  0
SECTION
  2
HEADER
  9
$ACADVER
  1
AC1014
  9
$ACADMAINTVER
 70
     9
  9
$DWGCODEPAGE
  3
ANSI_1252
  9
$INSBASE
 10
0.0
 20
0.0
 30
0.0
  9
$EXTMIN
 10
0.0
 20
0.0
 30
0.0
  9
$EXTMAX
 10
2440.0
 20
1220.0
 30
0.0
  9
$LIMMIN
 10
0.0
 20
0.0
  9
$LIMMAX
 10
2440.0
 20
1220.0
  9
$ORTHOMODE
 70
     0
  9
$REGENMODE
 70
     1
  9
$FILLMODE
 70
     1
  9
$QTEXTMODE
 70
     0
  9
$MIRRTEXT
 70
     1
  9
$DRAGMODE
 70
     2
  9
$LTSCALE
 40
1.0
  9
$OSMODE
 70
    37
  9
$ATTMODE
 70
     1
  9
$TEXTSIZE
 40
3.5
  9
$TRACEWID
 40
1.0
  9
$TEXTSTYLE
  7
STANDARD
  9
$CLAYER
  8
0
  9
$CELTYPE
  6
BYLAYER
  9
$CECOLOR
 62
   256
  9
$CELTSCALE
 40
1.0
  9
$DELOBJ
 70
     1
  9
$DISPSILH
 70
     0
  9
$DIMSCALE
 40
1.0
  9
$DIMASZ
 40
3.302
  9
$DIMEXO
 40
1.0
  9
$DIMDLI
 40
3.75
  9
$DIMRND
 40
0.0
  9
$DIMDLE
 40
0.0
  9
$DIMEXE
 40
1.0
  9
$DIMTP
 40
0.0
  9
$DIMTM
 40
0.0
  9
$DIMTXT
 40
4.5861111111
  9
$DIMCEN
 40
2.5
  9
$DIMTSZ
 40
0.0
  9
$DIMTOL
 70
     0
  9
$DIMLIM
 70
     0
  9
$DIMTIH
 70
     1
  9
$DIMTOH
 70
     1
  9
$DIMSE1
 70
     0
  9
$DIMSE2
 70
     0
  9
$DIMTAD
 70
     1
  9
$DIMZIN
 70
     0
  9
$DIMBLK
  1

  9
$DIMASO
 70
     1
  9
$DIMSHO
 70
     1
  9
$DIMPOST
  1

  9
$DIMAPOST
  1

  9
$DIMALT
 70
     0
  9
$DIMALTD
 70
     3
  9
$DIMALTF
 40
0.0393700787
  9
$DIMLFAC
 40
1.0
  9
$DIMTOFL
 70
     1
  9
$DIMTVP
 40
0.0
  9
$DIMTIX
 70
     0
  9
$DIMSOXD
 70
     0
  9
$DIMSAH
 70
     0
  9
$DIMBLK1
  1

  9
$DIMBLK2
  1

  9
$DIMSTYLE
  2
ISO-25
  9
$DIMCLRD
 70
     0
  9
$DIMCLRE
 70
     0
  9
$DIMCLRT
 70
     0
  9
$DIMTFAC
 40
1.0
  9
$DIMGAP
 40
1.524
  9
$DIMJUST
 70
     0
  9
$DIMSD1
 70
     0
  9
$DIMSD2
 70
     0
  9
$DIMTOLJ
 70
     0
  9
$DIMTZIN
 70
     0
  9
$DIMALTZ
 70
     0
  9
$DIMALTTZ
 70
     0
  9
$DIMFIT
 70
     3
  9
$DIMUPT
 70
     0
  9
$DIMUNIT
 70
     2
  9
$DIMDEC
 70
     2
  9
$DIMTDEC
 70
     2
  9
$DIMALTU
 70
     2
  9
$DIMALTTD
 70
     3
  9
$DIMTXSTY
  7
STANDARD
  9
$DIMAUNIT
 70
     0
  9
$LUNITS
 70
     2
  9
$LUPREC
 70
     2
  9
$SKETCHINC
 40
1.0
  9
$FILLETRAD
 40
10.0
  9
$AUNITS
 70
     0
  9
$AUPREC
 70
     2
  9
$MENU
  1
.
  9
$ELEVATION
 40
0.0
  9
$PELEVATION
 40
0.0
  9
$THICKNESS
 40
0.0
  9
$LIMCHECK
 70
     0
  9
$CHAMFERA
 40
0.0
  9
$CHAMFERB
 40
0.0
  9
$CHAMFERC
 40
0.0
  9
$CHAMFERD
 40
0.0
  9
$SKPOLY
 70
     0
  9
$TDCREATE
 40
2457722.412403322
  9
$TDUPDATE
 40
2457722.412403646
  9
$TDINDWG
 40
0.0000000116
  9
$TDUSRTIMER
 40
0.0000000116
  9
$USRTIMER
 70
     1
  9
$ANGBASE
 50
0.0
  9
$ANGDIR
 70
     0
  9
$PDMODE
 70
     0
  9
$PDSIZE
 40
-1.0
  9
$PLINEWID
 40
0.0
  9
$COORDS
 70
     1
  9
$SPLFRAME
 70
     0
  9
$SPLINETYPE
 70
     6
  9
$SPLINESEGS
 70
     8
  9
$ATTDIA
 70
     0
  9
$ATTREQ
 70
     1
  9
$HANDLING
 70
     1
  9
$HANDSEED
  5
395
  9
$SURFTAB1
 70
     6
  9
$SURFTAB2
 70
     6
  9
$SURFTYPE
 70
     6
  9
$SURFU
 70
     6
  9
$SURFV
 70
     6
  9
$UCSNAME
  2

  9
$UCSORG
 10
0.0
 20
0.0
 30
0.0
  9
$UCSXDIR
 10
1.0
 20
0.0
 30
0.0
  9
$UCSYDIR
 10
0.0
 20
1.0
 30
0.0
  9
$PUCSNAME
  2

  9
$PUCSORG
 10
0.0
 20
0.0
 30
0.0
  9
$PUCSXDIR
 10
1.0
 20
0.0
 30
0.0
  9
$PUCSYDIR
 10
0.0
 20
1.0
 30
0.0
  9
$USERI1
 70
     0
  9
$USERI2
 70
     0
  9
$USERI3
 70
     0
  9
$USERI4
 70
     0
  9
$USERI5
 70
     0
  9
$USERR1
 40
0.0
  9
$USERR2
 40
0.0
  9
$USERR3
 40
0.0
  9
$USERR4
 40
0.0
  9
$USERR5
 40
0.0
  9
$WORLDVIEW
 70
     1
  9
$SHADEDGE
 70
     3
  9
$SHADEDIF
 70
    70
  9
$TILEMODE
 70
     1
  9
$MAXACTVP
 70
    64
  9
$PINSBASE
 10
0.0
 20
0.0
 30
0.0
  9
$PLIMCHECK
 70
     0
  9
$PEXTMIN
 10
1.0000000000E+20
 20
1.0000000000E+20
 30
1.0000000000E+20
  9
$PEXTMAX
 10
-1.0000000000E+20
 20
-1.0000000000E+20
 30
-1.0000000000E+20
  9
$PLIMMIN
 10
0.0
 20
0.0
  9
$PLIMMAX
 10
420.0
 20
297.0
  9
$UNITMODE
 70
     0
  9
$VISRETAIN
 70
     1
  9
$PLINEGEN
 70
     0
  9
$PSLTSCALE
 70
     1
  9
$TREEDEPTH
 70
  3020
  9
$PICKSTYLE
 70
     1
  9
$CMLSTYLE
  2
STANDARD
  9
$CMLJUST
 70
     0
  9
$CMLSCALE
 40
20.0
  9
$PROXYGRAPHICS
 70
     1
  9
$MEASUREMENT
 70
     1
  0
ENDSEC
  0
SECTION
  2
CLASSES
  0
CLASS
  1
ACDBDICTIONARYWDFLT
  2
AcDbDictionaryWithDefault
  3
ObjectDBX Classes
 90
        0
280
     0
281
     0
  0
CLASS
  1
VISUALSTYLE
  2
AcDbVisualStyle
  3
ObjectDBX Classes
 90
     4095
280
     0
281
     0
  0
CLASS
  1
MATERIAL
  2
AcDbMaterial
  3
ObjectDBX Classes
 90
     1153
280
     0
281
     0
  0
CLASS
  1
SCALE
  2
AcDbScale
  3
ObjectDBX Classes
 90
     1153
280
     0
281
     0
  0
CLASS
  1
TABLESTYLE
  2
AcDbTableStyle
  3
ObjectDBX Classes
 90
     4095
280
     0
281
     0
  0
CLASS
  1
MLEADERSTYLE
  2
AcDbMLeaderStyle
  3
ACDB_MLEADERSTYLE_CLASS
 90
     4095
280
     0
281
     0
  0
CLASS
  1
SUN
  2
AcDbSun
  3
SCENEOE
 90
     1153
280
     0
281
     0
  0
CLASS
  1
XRECORD
  2
AcDbXrecord
  3
ObjectDBX Classes
 90
        0
280
     0
281
     0
  0
CLASS
  1
LWPOLYLINE
  2
AcDbPolyline
  3
ObjectDBX Classes
 90
        0
280
     0
281
     1
  0
CLASS
  1
HATCH
  2
AcDbHatch
  3
ObjectDBX Classes
 90
        0
280
     0
281
     1
  0
ENDSEC
  0
SECTION
  2
TABLES
  0
TABLE
  2
VPORT
  5
8
330
0
100
AcDbSymbolTable
 70
     1
  0
VPORT
  5
29
330
8
100
AcDbSymbolTableRecord
100
AcDbViewportTableRecord
  2
*ACTIVE
 70
     0
 10
0.0
 20
0.0
 11
1.0
 21
1.0
 12
1220.0
 22
610.0
 13
0.0
 23
0.0
 14
10.0
 24
10.0
 15
10.0
 25
10.0
 16
0.0
 26
0.0
 36
1.0
 17
0.0
 27
0.0
 37
0.0
 40
1220.0
 41
2.0
 42
50.0
 43
0.0
 44
0.0
 50
0.0
 51
0.0
 71
     0
 72
  2000
 73
     1
 74
     3
 75
     0
 76
     0
 77
     0
 78
     0
  0
ENDTAB
  0
TABLE
  2
LTYPE
  5
5
330
0
100
AcDbSymbolTable
 70
     6
  0
LTYPE
  5
14
330
5
100
AcDbSymbolTableRecord
100
AcDbLinetypeTableRecord
  2
BYBLOCK
 70
     0
  3

 72
    65
 73
     0
 40
0.0
  0
LTYPE
  5
15
330
5
100
AcDbSymbolTableRecord
100
AcDbLinetypeTableRecord
  2
BYLAYER
 70
     0
  3

 72
    65
 73
     0
 40
0.0
  0
LTYPE
  5
16
330
5
100
AcDbSymbolTableRecord
100
AcDbLinetypeTableRecord
  2
CONTINUOUS
 70
     0
  3
Solid line
 72
    65
 73
     0
 40
0.0
  0
LTYPE
  5
6E
330
5
100
AcDbSymbolTableRecord
100
AcDbLinetypeTableRecord
  2
HIDDEN
 70
     0
  3
Hidden __ __ __ __ __ __ __ __ __ __ __ __ __ __
 72
    65
 73
     2
 40
1.905
 49
1.27
 74
     0
 49
-0.635
 74
     0
  0
LTYPE
  5
6F
330
5
100
AcDbSymbolTableRecord
100
AcDbLinetypeTableRecord
  2
PHANTOM
 70
     0
  3
Phantom ______  __  __  ______  __  __  ______
 72
    65
 73
     6
 40
12.7
 49
6.35
 74
     0
 49
-1.27
 74
     0
 49
1.27
 74
     0
 49
-1.27
 74
     0
 49
1.27
 74
     0
 49
-1.27
 74
     0
  0
LTYPE
  5
70
330
5
100
AcDbSymbolTableRecord
100
AcDbLinetypeTableRecord
  2
CENTER
 70
     0
  3
Center ____ _ ____ _ ____ _ ____ _ ____ _ ____
 72
    65
 73
     4
 40
10.16
 49
6.35
 74
     0
 49
-1.27
 74
     0
 49
1.27
 74
     0
 49
-1.27
 74
     0
  0
LTYPE
  5
71
330
5
100
AcDbSymbolTableRecord
100
AcDbLinetypeTableRecord
  2
CENTERX2
 70
     0
  3
Center (2x) ________  __  ________  __  _____
 72
    65
 73
     4
 40
20.32
 49
12.7
 74
     0
 49
-2.54
 74
     0
 49
2.54
 74
     0
 49
-2.54
 74
     0
  0
LTYPE
  5
72
330
5
100
AcDbSymbolTableRecord
100
AcDbLinetypeTableRecord
  2
DOT2
 70
     0
  3
Dot (.5x) ........................................
 72
    65
 73
     2
 40
0.635
 49
0.0
 74
     0
 49
-0.635
 74
     0
  0
ENDTAB
  0
TABLE
  2
LAYER
  5
2
330
0
100
AcDbSymbolTable
 70
     6
  0
LAYER
  5
10
330
2
100
AcDbSymbolTableRecord
100
AcDbLayerTableRecord
  2
0
 70
     0
 62
     7
  6
CONTINUOUS
  0
LAYER
  5
73
330
2
100
AcDbSymbolTableRecord
100
AcDbLayerTableRecord
  2
BOX_STOCK
 70
     0
 62
     1
  6
CONTINUOUS
  0
LAYER
  5
74
330
2
100
AcDbSymbolTableRecord
100
AcDbLayerTableRecord
  2
HOLES
 70
     0
 62
    30
  6
CONTINUOUS
  0
LAYER
  5
75
330
2
100
AcDbSymbolTableRecord
100
AcDbLayerTableRecord
  2
POCKETS
 70
     0
 62
   171
  6
CONTINUOUS
  0
LAYER
  5
76
330
2
100
AcDbSymbolTableRecord
100
AcDbLayerTableRecord
  2
PROFILES_OUTSIDE
 70
     0
 62
     6
  6
CONTINUOUS
  0
LAYER
  5
77
330
2
100
AcDbSymbolTableRecord
100
AcDbLayerTableRecord
  2
PROFILES_INSIDE
 70
     0
 62
     4
  6
CONTINUOUS
  0
ENDTAB
  0
TABLE
  2
STYLE
  5
3
330
0
100
AcDbSymbolTable
 70
     1
  0
STYLE
  5
11
330
3
100
AcDbSymbolTableRecord
100
AcDbTextStyleTableRecord
  2
STANDARD
 70
     0
 40
0.0
 41
1.0
 50
0.0
 71
     0
 42
3.5
  3
txt
  4

  0
ENDTAB
  0
TABLE
  2
VIEW
  5
6
330
0
100
AcDbSymbolTable
 70
     0
  0
ENDTAB
  0
TABLE
  2
UCS
  5
7
330
0
100
AcDbSymbolTable
 70
     0
  0
ENDTAB
  0
TABLE
  2
APPID
  5
9
330
0
100
AcDbSymbolTable
 70
     1
  0
APPID
  5
12
330
9
100
AcDbSymbolTableRecord
100
AcDbRegAppTableRecord
  2
ACAD
 70
     0
  0
ENDTAB
  0
TABLE
  2
DIMSTYLE
  5
A
330
0
100
AcDbSymbolTable
 70
     1
  0
DIMSTYLE
105
27
330
A
100
AcDbSymbolTableRecord
100
AcDbDimStyleTableRecord
  2
ISO-25
 70
     0
  3

  4

  5

  6

  7

 40
1.0
 41
2.5
 42
0.625
 43
3.75
 44
1.25
 45
0.0
 46
0.0
 47
0.0
 48
0.0
140
2.5
141
2.5
142
0.0
143
0.0393700787
144
1.0
145
0.0
146
1.0
147
0.625
 71
     0
 72
     0
 73
     0
 74
     0
 75
     0
 76
     0
 77
     1
 78
     8
170
     0
171
     3
172
     1
173
     0
174
     0
175
     0
176
     0
177
     0
178
     0
270
     2
271
     2
272
     2
273
     2
274
     3
340
11
275
     0
280
     0
281
     0
282
     0
283
     0
284
     8
285
     0
286
     0
287
     3
288
     0
  0
ENDTAB
  0
TABLE
  2
BLOCK_RECORD
  5
1
330
0
100
AcDbSymbolTable
 70
     1
  0
BLOCK_RECORD
  5
1F
330
1
100
AcDbSymbolTableRecord
100
AcDbBlockTableRecord
  2
*MODEL_SPACE
  0
BLOCK_RECORD
  5
1B
330
1
100
AcDbSymbolTableRecord
100
AcDbBlockTableRecord
  2
*PAPER_SPACE
  0
BLOCK_RECORD
  5
23
330
1
100
AcDbSymbolTableRecord
100
AcDbBlockTableRecord
  2
*PAPER_SPACE0
  0
ENDTAB
  0
ENDSEC
  0
SECTION
  2
BLOCKS
  0
BLOCK
  5
20
330
1F
100
AcDbEntity
  8
0
100
AcDbBlockBegin
  2
*MODEL_SPACE
 70
     0
 10
0.0
 20
0.0
 30
0.0
  3
*MODEL_SPACE
  1

  0
ENDBLK
  5
21
330
1F
100
AcDbEntity
  8
0
100
AcDbBlockEnd
  0
BLOCK
  5
1C
330
1B
100
AcDbEntity
 67
     1
  8
0
100
AcDbBlockBegin
  2
*PAPER_SPACE
 70
     0
 10
0.0
 20
0.0
 30
0.0
  3
*PAPER_SPACE
  1

  0
ENDBLK
  5
1D
330
1B
100
AcDbEntity
 67
     1
  8
0
100
AcDbBlockEnd
  0
BLOCK
  5
24
330
23
100
AcDbEntity
  8
0
100
AcDbBlockBegin
  2
*PAPER_SPACE0
 70
     0
 10
0.0
 20
0.0
 30
0.0
  3
*PAPER_SPACE0
  1

  0
ENDBLK
  5
25
330
23
100
AcDbEntity
  8
0
100
AcDbBlockEnd
  0
ENDSEC
  0
SECTION
  2
ENTITIES
  0
LINE
  5
78
330
1F
100
AcDbEntity
  8
0
  6
CONTINUOUS
 62
     7
100
AcDbLine
 10
1204.3882822822
 20
30.0712617606
 30
0.0
 11
1472.3882889579
 21
30.0712617606
 31
0.0
  0
LINE
  5
79
330
1F
100
AcDbEntity
  8
0
  6
CONTINUOUS
 62
     7
100
AcDbLine
 10
1204.3882822822
 20
68.6492635429
 30
0.0
 11
1204.3882822822
 21
30.0712617606
 31
0.0
  0
LINE
  5
7A
330
1F
100
AcDbEntity
  8
0
  6
CONTINUOUS
 62
     7
100
AcDbLine
 10
1472.3882889579
 20
68.6492635429
 30
0.0
 11
1204.3882822822
 21
68.6492635429
 31
0.0
  0
LINE
  5
7B
330
1F
100
AcDbEntity
  8
0
  6
CONTINUOUS
 62
     7
100
AcDbLine
 10
1472.3882889579
 20
30.0712617606
 30
0.0
 11
1472.3882889579
 21
68.6492635429
 31
0.0
  0
LINE
  5
7C
330
1F
100
AcDbEntity
  8
0
  6
CONTINUOUS
 62
     7
100
AcDbLine
 10
1472.3882889579
 20
438.0549503982
 30
0.0
 11
1204.3882822822
 21
438.0549503982
 31
0.0
  0
LINE
  5
7D
330
1F
100
AcDbEntity
  8
0
  6
CONTINUOUS
 62
     7
100
AcDbLine
 10
1204.3882822822
 20
86.8880166233
 30
0.0
 11
1472.3882889579
 21
86.8880166233
 31
0.0
  0
LINE
  5
7E
330
1F
100
AcDbEntity
  8
0
  6
CONTINUOUS
 62
     7
100
AcDbLine
 10
1204.3882822822
 20
438.0549503982
 30
0.0
 11
1204.3882822822
 21
86.8880166233
 31
0.0
  0
LINE
  5
7F
330
1F
100
AcDbEntity
  8
0
  6
CONTINUOUS
 62
     7
100
AcDbLine
 10
1472.3882889579
 20
86.8880166233
 30
0.0
 11
1472.3882889579
 21
438.0549503982
 31
0.0
  0
LINE
  5
80
330
1F
100
AcDbEntity
  8
0
  6
CONTINUOUS
 62
     7
100
AcDbLine
 10
1204.3882822822
 20
68.6492635429
 30
0.0
 11
1204.3882822822
 21
86.8880166233
 31
0.0
  0
LINE
  5
81
330
1F
100
AcDbEntity
  8
0
  6
CONTINUOUS
 62
     7
100
AcDbLine
 10
1472.3882889579
 20
86.8880166233
 30
0.0
 11
1472.3882889579
 21
68.6492635429
 31
0.0
  0
LINE
  5
82
330
1F
100
AcDbEntity
  8
0
  6
CONTINUOUS
 62
     7
100
AcDbLine
 10
1172.9083275627
 20
808.0712868393
 30
0.0
 11
904.9082612823
 21
808.0712868393
 31
0.0
  0
LINE
  5
83
330
1F
100
AcDbEntity
  8
0
  6
CONTINUOUS
 62
     7
100
AcDbLine
 10
904.9082612823
 20
30.0712617606
 30
0.0
 11
1172.9083275627
 21
30.0712617606
 31
0.0
  0
LINE
  5
84
330
1F
100
AcDbEntity
  8
0
  6
CONTINUOUS
 62
     7
100
AcDbLine
 10
1172.9083275627
 20
30.0712617606
 30
0.0
 11
1172.9083275627
 21
808.0712868393
 31
0.0
  0
LINE
  5
85
330
1F
100
AcDbEntity
  8
0
  6
CONTINUOUS
 62
     7
100
AcDbLine
 10
904.9082612823
 20
808.0712868393
 30
0.0
 11
904.9082612823
 21
30.0712617606
 31
0.0
  0
LINE
  5
86
330
1F
100
AcDbEntity
  8
0
  6
CONTINUOUS
 62
     7
100
AcDbLine
 10
418.9063823055
 20
836.79250018
 30
0.0
 11
428.9901768993
 21
838.5705067337
 31
0.0
  0
LINE
  5
87
330
1F
100
AcDbEntity
  8
0
  6
CONTINUOUS
 62
     7
100
AcDbLine
 10
428.9901768993
 20
148.0780853451
 30
0.0
 11
418.9063823055
 21
149.856121701
 31
0.0
  0
ARC
  5
88
330
1F
100
AcDbEntity
  8
0
  6
CONTINUOUS
 62
     7
100
AcDbCircle
 10
427.9482800697
 20
142.169235011
 30
0.0
 40
6.0
100
AcDbArc
 50
0.0
 51
80.0
  0
LINE
  5
89
330
1F
100
AcDbEntity
  8
0
  6
CONTINUOUS
 62
     7
100
AcDbLine
 10
393.9482784103
 20
115.2403964222
 30
0.0
 11
433.9482700657
 21
118.7399415791
 31
0.0
  0
LINE
  5
8A
330
1F
100
AcDbEntity
  8
0
  6
CONTINUOUS
 62
     7
100
AcDbLine
 10
393.9482784103
 20
871.4081956566
 30
0.0
 11
393.9482784103
 21
115.2403964222
 31
0.0
  0
LINE
  5
8B
330
1F
100
AcDbEntity
  8
0
  6
CONTINUOUS
 62
     7
100
AcDbLine
 10
433.9482700657
 20
867.9086877525
 30
0.0
 11
393.9482784103
 21
871.4081956566
 31
0.0
  0
LINE
  5
8C
330
1F
100
AcDbEntity
  8
0
  6
CONTINUOUS
 62
     7
100
AcDbLine
 10
433.9482700657
 20
867.9086877525
 30
0.0
 11
433.9482700657
 21
844.4793535889
 31
0.0
  0
ARC
  5
8D
330
1F
100
AcDbEntity
  8
0
  6
CONTINUOUS
 62
     7
100
AcDbCircle
 10
419.9482800697
 20
830.8836338572
 30
0.0
 40
6.0
100
AcDbArc
 50
100.0
 51
180.0
  0
ARC
  5
8E
330
1F
100
AcDbEntity
  8
0
  6
CONTINUOUS
 62
     7
100
AcDbCircle
 10
419.9482800697
 20
155.7649701993
 30
0.0
 40
6.0
100
AcDbArc
 50
180.0
 51
260.0
  0
LINE
  5
8F
330
1F
100
AcDbEntity
  8
0
  6
CONTINUOUS
 62
     7
100
AcDbLine
 10
413.9482891391
 20
155.7649685562
 30
0.0
 11
413.9482891391
 21
830.8836533249
 31
0.0
  0
LINE
  5
90
330
1F
100
AcDbEntity
  8
0
  6
CONTINUOUS
 62
     7
100
AcDbLine
 10
433.9482700657
 20
142.1692384899
 30
0.0
 11
433.9482700657
 21
118.7399415791
 31
0.0
  0
ARC
  5
91
330
1F
100
AcDbEntity
  8
0
  6
CONTINUOUS
 62
     7
100
AcDbCircle
 10
427.9482800697
 20
844.4793690455
 30
0.0
 40
6.0
100
AcDbArc
 50
280.0
 51
360.0
  0
ARC
  5
92
330
1F
100
AcDbEntity
  8
0
  6
CONTINUOUS
 62
     7
100
AcDbCircle
 10
31.9482800697
 20
948.5922949706
 30
0.0
 40
6.000000000000056
100
AcDbArc
 50
85.0
 51
180.0
  0
LINE
  5
93
330
1F
100
AcDbEntity
  8
0
  6
CONTINUOUS
 62
     7
100
AcDbLine
 10
32.4712163042
 20
954.5694901169
 30
0.0
 11
428.4712290596
 21
919.9239327133
 31
0.0
  0
LINE
  5
94
330
1F
100
AcDbEntity
  8
0
  6
CONTINUOUS
 62
     7
100
AcDbLine
 10
433.9482700657
 20
913.9467789352
 30
0.0
 11
433.9482700657
 21
886.6600109756
 31
0.0
  0
ARC
  5
95
330
1F
100
AcDbEntity
  8
0
  6
CONTINUOUS
 62
     7
100
AcDbCircle
 10
401.8616992233
 20
889.8242590768
 30
0.0
 40
5.170000000000003
100
AcDbArc
 50
351.0551891295
 51
19.8879040116
  0
ARC
  5
96
330
1F
100
AcDbEntity
  8
0
  6
CONTINUOUS
 62
     7
100
AcDbCircle
 10
397.6130500543
 20
908.7408654212
 30
0.0
 40
1.000000000000101
100
AcDbArc
 50
265.0000509005
 51
337.399543816
  0
LINE
  5
97
330
1F
100
AcDbEntity
  8
0
  6
CONTINUOUS
 62
     7
100
AcDbLine
 10
393.4976374935
 20
908.0971194923
 30
0.0
 11
397.5258982013
 21
907.7446772278
 31
0.0
  0
ARC
  5
98
330
1F
100
AcDbEntity
  8
0
  6
CONTINUOUS
 62
     7
100
AcDbCircle
 10
393.5848002792
 20
909.0932880044
 30
0.0
 40
1.000000991595013
100
AcDbArc
 50
192.6004773877
 51
265.0000509005
  0
ARC
  5
99
330
1F
100
AcDbEntity
  8
0
  6
CONTINUOUS
 62
     7
100
AcDbCircle
 10
387.5634050726
 20
907.7472940347
 30
0.0
 40
5.169999008405042
100
AcDbArc
 50
12.6004773877
 51
199.8878356916
  0
ARC
  5
9A
330
1F
100
AcDbEntity
  8
0
  6
CONTINUOUS
 62
     7
100
AcDbCircle
 10
381.7613847941
 20
905.6483851352
 30
0.0
 40
0.9999985700007028
100
AcDbArc
 50
355.0
 51
19.8878356916
  0
LINE
  5
9B
330
1F
100
AcDbEntity
  8
0
  6
CONTINUOUS
 62
     7
100
AcDbLine
 10
381.7626452278
 20
894.189210099
 30
0.0
 11
382.7575659584
 21
905.5612398804
 31
0.0
  0
ARC
  5
9C
330
1F
100
AcDbEntity
  8
0
  6
CONTINUOUS
 62
     7
100
AcDbCircle
 10
380.7664626534
 20
894.2763730305
 30
0.0
 40
1.00000000000002
100
AcDbArc
 50
330.1121199588
 51
355.0
  0
ARC
  5
9D
330
1F
100
AcDbEntity
  8
0
  6
CONTINUOUS
 62
     7
100
AcDbCircle
 10
386.1158660808
 20
891.2018351837
 30
0.0
 40
5.169999999999997
100
AcDbArc
 50
150.1121199588
 51
178.9447467872
  0
LINE
  5
9E
330
1F
100
AcDbEntity
  8
0
  6
CONTINUOUS
 62
     7
100
AcDbLine
 10
90.2772313188
 20
916.727335614
 30
0.0
 11
380.9467470478
 21
891.2970735252
 31
0.0
  0
ARC
  5
9F
330
1F
100
AcDbEntity
  8
0
  6
CONTINUOUS
 62
     7
100
AcDbCircle
 10
85.1701086274
 20
917.5311830879
 30
0.0
 40
5.169999999999982
100
AcDbArc
 50
351.0551891295
 51
19.8879040116
  0
ARC
  5
A0
330
1F
100
AcDbEntity
  8
0
  6
CONTINUOUS
 62
     7
100
AcDbCircle
 10
90.9721296128
 20
919.6301000669
 30
0.0
 40
1.00000000000001
100
AcDbArc
 50
175.0
 51
199.8879040116
  0
LINE
  5
A1
330
1F
100
AcDbEntity
  8
0
  6
CONTINUOUS
 62
     7
100
AcDbLine
 10
90.9708580207
 20
931.0892535866
 30
0.0
 11
89.9759372901
 21
919.7172834099
 31
0.0
  0
ARC
  5
A2
330
1F
100
AcDbEntity
  8
0
  6
CONTINUOUS
 62
     7
100
AcDbCircle
 10
91.9670869535
 20
931.0020928094
 30
0.0
 40
1.000036753616298
100
AcDbArc
 50
150.1121952728
 51
175.0
  0
ARC
  5
A3
330
1F
100
AcDbEntity
  8
0
  6
CONTINUOUS
 62
     7
100
AcDbCircle
 10
86.6176476192
 20
934.0766419389
 30
0.0
 40
5.170000000000077
100
AcDbArc
 50
330.1121952728
 51
157.399543816
  0
ARC
  5
A4
330
1F
100
AcDbEntity
  8
0
  6
CONTINUOUS
 62
     7
100
AcDbCircle
 10
80.9214594583
 20
936.4477894323
 30
0.0
 40
1.000000000000018
100
AcDbArc
 50
265.0000509005
 51
337.399543816
  0
LINE
  5
A5
330
1F
100
AcDbEntity
  8
0
  6
CONTINUOUS
 62
     7
100
AcDbLine
 10
76.8060526084
 20
935.8040405929
 30
0.0
 11
80.8343058656
 21
935.4515983284
 31
0.0
  0
ARC
  5
A6
330
1F
100
AcDbEntity
  8
0
  6
CONTINUOUS
 62
     7
100
AcDbCircle
 10
76.8932096833
 20
936.8002120155
 30
0.0
 40
1.000000991595013
100
AcDbArc
 50
192.6004773877
 51
265.0000509005
  0
ARC
  5
A7
330
1F
100
AcDbEntity
  8
0
  6
CONTINUOUS
 62
     7
100
AcDbCircle
 10
70.8718144767
 20
935.4542180458
 30
0.0
 40
5.16999900840503
100
AcDbArc
 50
12.6004773877
 51
199.8878356916
  0
ARC
  5
A8
330
1F
100
AcDbEntity
  8
0
  6
CONTINUOUS
 62
     7
100
AcDbCircle
 10
65.0697941981
 20
933.3553091464
 30
0.0
 40
0.9999985700006507
100
AcDbArc
 50
355.0
 51
19.8878356916
  0
LINE
  5
A9
330
1F
100
AcDbEntity
  8
0
  6
CONTINUOUS
 62
     7
100
AcDbLine
 10
65.0710677932
 20
921.8961311996
 30
0.0
 11
66.0659885238
 21
933.268160981
 31
0.0
  0
ARC
  5
AA
330
1F
100
AcDbEntity
  8
0
  6
CONTINUOUS
 62
     7
100
AcDbCircle
 10
64.0748720575
 20
921.9832970416
 30
0.0
 40
1.00000000000011
100
AcDbArc
 50
330.1121199588
 51
355.0
  0
ARC
  5
AB
330
1F
100
AcDbEntity
  8
0
  6
CONTINUOUS
 62
     7
100
AcDbCircle
 10
69.4242754849
 20
918.9087591949
 30
0.0
 40
5.169999999999898
100
AcDbArc
 50
150.1121199588
 51
178.9447467872
  0
LINE
  5
AC
330
1F
100
AcDbEntity
  8
0
  6
CONTINUOUS
 62
     7
100
AcDbLine
 10
25.9482795577
 20
922.3553849876
 30
0.0
 11
64.2551547121
 21
919.0039946258
 31
0.0
  0
LINE
  5
AD
330
1F
100
AcDbEntity
  8
0
  6
CONTINUOUS
 62
     7
100
AcDbLine
 10
25.9482795577
 20
922.3553849876
 30
0.0
 11
25.9482795577
 21
948.5922767341
 31
0.0
  0
ARC
  5
AE
330
1F
100
AcDbEntity
  8
0
  6
CONTINUOUS
 62
     7
100
AcDbCircle
 10
407.6637202088
 20
891.9231760558
 30
0.0
 40
1.00000000000001
100
AcDbArc
 50
175.0
 51
199.8879040116
  0
ARC
  5
AF
330
1F
100
AcDbEntity
  8
0
  6
CONTINUOUS
 62
     7
100
AcDbCircle
 10
408.6586775494
 20
903.2951687983
 30
0.0
 40
1.000036753616323
100
AcDbArc
 50
150.1121952728
 51
175.0
  0
ARC
  5
B0
330
1F
100
AcDbEntity
  8
0
  6
CONTINUOUS
 62
     7
100
AcDbCircle
 10
403.3092382152
 20
906.3697179278
 30
0.0
 40
5.17000000000002
100
AcDbArc
 50
330.1121952728
 51
157.399543816
  0
LINE
  5
B1
330
1F
100
AcDbEntity
  8
0
  6
CONTINUOUS
 62
     7
100
AcDbLine
 10
406.9688236545
 20
889.0204145134
 30
0.0
 11
433.9482700657
 21
886.6600109756
 31
0.0
  0
LINE
  5
B2
330
1F
100
AcDbEntity
  8
0
  6
CONTINUOUS
 62
     7
100
AcDbLine
 10
407.6624429058
 20
903.3823324859
 30
0.0
 11
406.6675221752
 21
892.0103027046
 31
0.0
  0
ARC
  5
B3
330
1F
100
AcDbEntity
  8
0
  6
CONTINUOUS
 62
     7
100
AcDbCircle
 10
427.9482800697
 20
913.9467842143
 30
0.0
 40
6.0
100
AcDbArc
 50
360.0
 51
85.0
  0
ARC
  5
B4
330
1F
100
AcDbEntity
  8
0
  6
CONTINUOUS
 62
     7
100
AcDbCircle
 10
31.9482800697
 20
38.0563090859
 30
0.0
 40
6.000000000000227
100
AcDbArc
 50
180.0
 51
275.0
  0
LINE
  5
B5
330
1F
100
AcDbEntity
  8
0
  6
CONTINUOUS
 62
     7
100
AcDbLine
 10
25.9482795577
 20
38.056307894
 30
0.0
 11
25.9482795577
 21
64.2932145417
 31
0.0
  0
LINE
  5
B6
330
1F
100
AcDbEntity
  8
0
  6
CONTINUOUS
 62
     7
100
AcDbLine
 10
64.2551547121
 20
67.6446347058
 30
0.0
 11
25.9482795577
 21
64.2932145417
 31
0.0
  0
ARC
  5
B7
330
1F
100
AcDbEntity
  8
0
  6
CONTINUOUS
 62
     7
100
AcDbCircle
 10
69.4242749055
 20
67.7398390201
 30
0.0
 40
5.169999008405023
100
AcDbArc
 50
181.0551883717
 51
209.8878356916
  0
ARC
  5
B8
330
1F
100
AcDbEntity
  8
0
  6
CONTINUOUS
 62
     7
100
AcDbCircle
 10
64.0748720575
 20
64.6653070149
 30
0.0
 40
0.9999985700006372
100
AcDbArc
 50
5.0
 51
29.8878356916
  0
LINE
  5
B9
330
1F
100
AcDbEntity
  8
0
  6
CONTINUOUS
 62
     7
100
AcDbLine
 10
66.0659885238
 20
53.3804497242
 30
0.0
 11
65.0710677932
 21
64.7524608791
 31
0.0
  0
ARC
  5
BA
330
1F
100
AcDbEntity
  8
0
  6
CONTINUOUS
 62
     7
100
AcDbCircle
 10
65.0697941981
 20
53.2932949101
 30
0.0
 40
0.9999999999999187
100
AcDbArc
 50
340.1121199588
 51
5.0
  0
ARC
  5
BB
330
1F
100
AcDbEntity
  8
0
  6
CONTINUOUS
 62
     7
100
AcDbCircle
 10
70.8718160617
 20
51.1943803585
 30
0.0
 40
5.170000000000035
100
AcDbArc
 50
160.1121199588
 51
347.399543816
  0
ARC
  5
BC
330
1F
100
AcDbEntity
  8
0
  6
CONTINUOUS
 62
     7
100
AcDbCircle
 10
76.8932117664
 20
49.8483886172
 30
0.0
 40
1.000000000000086
100
AcDbArc
 50
95.0000509005
 51
167.399543816
  0
LINE
  5
BD
330
1F
100
AcDbEntity
  8
0
  6
CONTINUOUS
 62
     7
100
AcDbLine
 10
80.8343058656
 20
51.1970123768
 30
0.0
 11
76.8060526084
 21
50.8445850134
 31
0.0
  0
ARC
  5
BE
330
1F
100
AcDbEntity
  8
0
  6
CONTINUOUS
 62
     7
100
AcDbCircle
 10
80.9214609152
 20
50.2008183576
 30
0.0
 40
1.00000000000001
100
AcDbArc
 50
22.6004773877
 51
95.0000509005
  0
ARC
  5
BF
330
1F
100
AcDbEntity
  8
0
  6
CONTINUOUS
 62
     7
100
AcDbCircle
 10
86.6176481986
 20
52.5719679591
 30
0.0
 40
5.170000000000027
100
AcDbArc
 50
202.6004773877
 51
29.8879040116
  0
ARC
  5
C0
330
1F
100
AcDbEntity
  8
0
  6
CONTINUOUS
 62
     7
100
AcDbCircle
 10
91.9670503398
 20
55.6465080438
 30
0.0
 40
1.00000000000002
100
AcDbArc
 50
185.0
 51
209.8879040116
  0
LINE
  5
C1
330
1F
100
AcDbEntity
  8
0
  6
CONTINUOUS
 62
     7
100
AcDbLine
 10
89.9759372901
 20
66.9313459218
 30
0.0
 11
90.9708580207
 21
55.5593533934
 31
0.0
  0
ARC
  5
C2
330
1F
100
AcDbEntity
  8
0
  6
CONTINUOUS
 62
     7
100
AcDbCircle
 10
90.9721662266
 20
67.0185071929
 30
0.0
 40
1.000036753616304
100
AcDbArc
 50
160.1121952728
 51
185.0
  0
ARC
  5
C3
330
1F
100
AcDbEntity
  8
0
  6
CONTINUOUS
 62
     7
100
AcDbCircle
 10
85.1701070424
 20
69.1174266207
 30
0.0
 40
5.170000000000107
100
AcDbArc
 50
340.1121952728
 51
8.9447467872
  0
LINE
  5
C4
330
1F
100
AcDbEntity
  8
0
  6
CONTINUOUS
 62
     7
100
AcDbLine
 10
380.9467470478
 20
95.3515558064
 30
0.0
 11
90.2772313188
 21
69.9212713659
 31
0.0
  0
ARC
  5
C5
330
1F
100
AcDbEntity
  8
0
  6
CONTINUOUS
 62
     7
100
AcDbCircle
 10
386.1158655014
 20
95.4467630313
 30
0.0
 40
5.169999008404989
100
AcDbArc
 50
181.0551883717
 51
209.8878356916
  0
ARC
  5
C6
330
1F
100
AcDbEntity
  8
0
  6
CONTINUOUS
 62
     7
100
AcDbCircle
 10
380.7664626534
 20
92.372231026
 30
0.0
 40
0.9999985700006495
100
AcDbArc
 50
5.0
 51
29.8878356916
  0
LINE
  5
C7
330
1F
100
AcDbEntity
  8
0
  6
CONTINUOUS
 62
     7
100
AcDbLine
 10
382.7575659584
 20
81.0873745501
 30
0.0
 11
381.7626452278
 21
92.4593894303
 31
0.0
  0
ARC
  5
C8
330
1F
100
AcDbEntity
  8
0
  6
CONTINUOUS
 62
     7
100
AcDbCircle
 10
381.7613847941
 20
81.0002189213
 30
0.0
 40
0.9999999999999588
100
AcDbArc
 50
340.1121199588
 51
5.0
  0
ARC
  5
C9
330
1F
100
AcDbEntity
  8
0
  6
CONTINUOUS
 62
     7
100
AcDbCircle
 10
387.5634066576
 20
78.9013043697
 30
0.0
 40
5.170000000000046
100
AcDbArc
 50
160.1121199588
 51
347.399543816
  0
ARC
  5
CA
330
1F
100
AcDbEntity
  8
0
  6
CONTINUOUS
 62
     7
100
AcDbCircle
 10
393.5848023623
 20
77.5553126284
 30
0.0
 40
1.000000000000097
100
AcDbArc
 50
95.0000509005
 51
167.399543816
  0
LINE
  5
CB
330
1F
100
AcDbEntity
  8
0
  6
CONTINUOUS
 62
     7
100
AcDbLine
 10
397.5258982013
 20
78.9039372027
 30
0.0
 11
393.4976374935
 21
78.5515098393
 31
0.0
  0
ARC
  5
CC
330
1F
100
AcDbEntity
  8
0
  6
CONTINUOUS
 62
     7
100
AcDbCircle
 10
397.6130515112
 20
77.9077423688
 30
0.0
 40
0.9999999999999843
100
AcDbArc
 50
22.6004773877
 51
95.0000509005
  0
ARC
  5
CD
330
1F
100
AcDbEntity
  8
0
  6
CONTINUOUS
 62
     7
100
AcDbCircle
 10
408.6586409357
 20
83.3534320549
 30
0.0
 40
0.9999999999999827
100
AcDbArc
 50
185.0
 51
209.8879040116
  0
ARC
  5
CE
330
1F
100
AcDbEntity
  8
0
  6
CONTINUOUS
 62
     7
100
AcDbCircle
 10
403.3092387946
 20
80.2788919702
 30
0.0
 40
5.170000000000034
100
AcDbArc
 50
202.6004773877
 51
29.8879040116
  0
LINE
  5
CF
330
1F
100
AcDbEntity
  8
0
  6
CONTINUOUS
 62
     7
100
AcDbLine
 10
433.9482700657
 20
99.9885885537
 30
0.0
 11
406.9688236545
 21
97.6281924665
 31
0.0
  0
ARC
  5
D0
330
1F
100
AcDbEntity
  8
0
  6
CONTINUOUS
 62
     7
100
AcDbCircle
 10
427.9482800697
 20
72.7018198421
 30
0.0
 40
6.000000000000114
100
AcDbArc
 50
275.0
 51
0.0
  0
LINE
  5
D1
330
1F
100
AcDbEntity
  8
0
  6
CONTINUOUS
 62
     7
100
AcDbLine
 10
428.4712290596
 20
66.7246519149
 30
0.0
 11
32.4712163042
 21
32.0791410774
 31
0.0
  0
LINE
  5
D2
330
1F
100
AcDbEntity
  8
0
  6
CONTINUOUS
 62
     7
100
AcDbLine
 10
433.9482700657
 20
99.9885885537
 30
0.0
 11
433.9482700657
 21
72.7018205941
 31
0.0
  0
LINE
  5
D3
330
1F
100
AcDbEntity
  8
0
  6
CONTINUOUS
 62
     7
100
AcDbLine
 10
406.6675221752
 20
94.638274473
 30
0.0
 11
407.6624429058
 21
83.266274494
 31
0.0
  0
ARC
  5
D4
330
1F
100
AcDbEntity
  8
0
  6
CONTINUOUS
 62
     7
100
AcDbCircle
 10
407.6637568225
 20
94.725431204
 30
0.0
 40
1.000036753616247
100
AcDbArc
 50
160.1121952728
 51
185.0
  0
ARC
  5
D5
330
1F
100
AcDbEntity
  8
0
  6
CONTINUOUS
 62
     7
100
AcDbCircle
 10
401.8616976384
 20
96.8243506318
 30
0.0
 40
5.169999999999967
100
AcDbArc
 50
340.1121952728
 51
8.9447467872
  0
LINE
  5
D6
330
1F
100
AcDbEntity
  8
0
  6
CONTINUOUS
 62
     7
100
AcDbLine
 10
25.9482795577
 20
83.0445675671
 30
0.0
 11
25.9482795577
 21
903.6040617645
 31
0.0
  0
LINE
  5
D7
330
1F
100
AcDbEntity
  8
0
  6
CONTINUOUS
 62
     7
100
AcDbLine
 10
375.6082868408
 20
873.0127526939
 30
0.0
 11
25.9482795577
 21
903.6040617645
 31
0.0
  0
LINE
  5
D8
330
1F
100
AcDbEntity
  8
0
  6
CONTINUOUS
 62
     7
100
AcDbLine
 10
375.6082868408
 20
113.635854286
 30
0.0
 11
375.6082868408
 21
873.0127526939
 31
0.0
  0
LINE
  5
D9
330
1F
100
AcDbEntity
  8
0
  6
CONTINUOUS
 62
     7
100
AcDbLine
 10
25.9482795577
 20
83.0445675671
 30
0.0
 11
375.6082868408
 21
113.635854286
 31
0.0
  0
ARC
  5
DA
330
1F
100
AcDbEntity
  8
0
  6
CONTINUOUS
 62
     7
100
AcDbCircle
 10
395.8403019337
 20
98.1703423731
 30
0.0
 40
0.9999999999999843
100
AcDbArc
 50
275.0000509005
 51
347.399543816
  0
LINE
  5
DB
330
1F
100
AcDbEntity
  8
0
  6
CONTINUOUS
 62
     7
100
AcDbLine
 10
395.9274506401
 20
97.1741466344
 30
0.0
 11
391.8992197345
 21
96.821719271
 31
0.0
  0
ARC
  5
DC
330
1F
100
AcDbEntity
  8
0
  6
CONTINUOUS
 62
     7
100
AcDbCircle
 10
391.8120527848
 20
97.8179126327
 30
0.0
 40
1.00000000000001
100
AcDbArc
 50
202.6004773877
 51
275.0000509005
  0
ARC
  5
DD
330
1F
100
AcDbEntity
  8
0
  6
CONTINUOUS
 62
     7
100
AcDbCircle
 10
79.1487113377
 20
70.463418362
 30
0.0
 40
0.9999999999999818
100
AcDbArc
 50
275.0000509005
 51
347.399543816
  0
LINE
  5
DE
330
1F
100
AcDbEntity
  8
0
  6
CONTINUOUS
 62
     7
100
AcDbLine
 10
79.235865755
 20
69.4672255338
 30
0.0
 11
75.2076199483
 21
69.1147907198
 31
0.0
  0
ARC
  5
DF
330
1F
100
AcDbEntity
  8
0
  6
CONTINUOUS
 62
     7
100
AcDbCircle
 10
75.1204621889
 20
70.1109886216
 30
0.0
 40
1.000000000000105
100
AcDbArc
 50
202.6004773877
 51
275.0000509005
  0
ARC
  5
E0
330
1F
100
AcDbEntity
  8
0
  6
CONTINUOUS
 62
     7
100
AcDbCircle
 10
75.1204636458
 20
916.5376117014
 30
0.0
 40
1.000000000000062
100
AcDbArc
 50
85.0000509005
 51
157.399543816
  0
LINE
  5
E1
330
1F
100
AcDbEntity
  8
0
  6
CONTINUOUS
 62
     7
100
AcDbLine
 10
75.2076199483
 20
917.5337864578
 30
0.0
 11
79.235865755
 21
917.1814037979
 31
0.0
  0
ARC
  5
E2
330
1F
100
AcDbEntity
  8
0
  6
CONTINUOUS
 62
     7
100
AcDbCircle
 10
79.1487134208
 20
916.1851891183
 30
0.0
 40
1.000000000000024
100
AcDbArc
 50
12.6004773877
 51
85.0000509005
  0
ARC
  5
E3
330
1F
100
AcDbEntity
  8
0
  6
CONTINUOUS
 62
     7
100
AcDbCircle
 10
391.8120542417
 20
888.8306876903
 30
0.0
 40
1.000000000000005
100
AcDbArc
 50
85.0000509005
 51
157.399543816
  0
LINE
  5
E4
330
1F
100
AcDbEntity
  8
0
  6
CONTINUOUS
 62
     7
100
AcDbLine
 10
391.8992197345
 20
889.8268653572
 30
0.0
 11
395.9274506401
 21
889.4744826973
 31
0.0
  0
ARC
  5
E5
330
1F
100
AcDbEntity
  8
0
  6
CONTINUOUS
 62
     7
100
AcDbCircle
 10
395.8403040168
 20
888.4782651072
 30
0.0
 40
1.000000000000094
100
AcDbArc
 50
12.6004773877
 51
85.0000509005
  0
LINE
  5
E6
330
1F
100
AcDbEntity
  8
0
  6
CONTINUOUS
 62
     7
100
AcDbLine
 10
25.9482795577
 20
83.0445675671
 30
0.0
 11
25.9482795577
 21
64.2932145417
 31
0.0
  0
LINE
  5
E7
330
1F
100
AcDbEntity
  8
0
  6
CONTINUOUS
 62
     7
100
AcDbLine
 10
25.9482795577
 20
922.3553849876
 30
0.0
 11
25.9482795577
 21
903.6040617645
 31
0.0
  0
ARC
  5
E8
330
1F
100
AcDbEntity
  8
0
  6
CONTINUOUS
 62
     7
100
AcDbCircle
 10
69.4242749055
 20
67.7398390201
 30
0.0
 40
5.169999999999927
100
AcDbArc
 50
22.6004773877
 51
181.0551883717
  0
ARC
  5
E9
330
1F
100
AcDbEntity
  8
0
  6
CONTINUOUS
 62
     7
100
AcDbCircle
 10
69.4242754849
 20
918.9087591949
 30
0.0
 40
5.170000000000034
100
AcDbArc
 50
178.9447467872
 51
337.399543816
  0
ARC
  5
EA
330
1F
100
AcDbEntity
  8
0
  6
CONTINUOUS
 62
     7
100
AcDbCircle
 10
85.1701070424
 20
69.1174266207
 30
0.0
 40
5.170000000000053
100
AcDbArc
 50
8.9447467872
 51
167.399543816
  0
ARC
  5
EB
330
1F
100
AcDbEntity
  8
0
  6
CONTINUOUS
 62
     7
100
AcDbCircle
 10
85.1701086274
 20
917.5311830879
 30
0.0
 40
5.170000000000015
100
AcDbArc
 50
192.6004773877
 51
351.0551891295
  0
ARC
  5
EC
330
1F
100
AcDbEntity
  8
0
  6
CONTINUOUS
 62
     7
100
AcDbCircle
 10
386.1158655014
 20
95.4467630313
 30
0.0
 40
5.169999999999975
100
AcDbArc
 50
22.6004773877
 51
181.0551883717
  0
ARC
  5
ED
330
1F
100
AcDbEntity
  8
0
  6
CONTINUOUS
 62
     7
100
AcDbCircle
 10
386.1158660808
 20
891.2018351837
 30
0.0
 40
5.170000000000116
100
AcDbArc
 50
178.9447467872
 51
337.399543816
  0
ARC
  5
EE
330
1F
100
AcDbEntity
  8
0
  6
CONTINUOUS
 62
     7
100
AcDbCircle
 10
401.8616992233
 20
889.8242590768
 30
0.0
 40
5.17000000000004
100
AcDbArc
 50
192.6004773877
 51
351.0551891295
  0
LINE
  5
EF
330
1F
100
AcDbEntity
  8
0
  6
CONTINUOUS
 62
     7
100
AcDbLine
 10
433.9482700657
 20
867.9086877525
 30
0.0
 11
433.9482700657
 21
886.6600109756
 31
0.0
  0
LINE
  5
F0
330
1F
100
AcDbEntity
  8
0
  6
CONTINUOUS
 62
     7
100
AcDbLine
 10
433.9482700657
 20
99.9885885537
 30
0.0
 11
433.9482700657
 21
118.7399415791
 31
0.0
  0
ARC
  5
F1
330
1F
100
AcDbEntity
  8
0
  6
CONTINUOUS
 62
     7
100
AcDbCircle
 10
401.8616976384
 20
96.8243506318
 30
0.0
 40
5.1700000000001
100
AcDbArc
 50
8.9447467871
 51
167.399543816
  0
ARC
  5
F2
330
1F
100
AcDbEntity
  8
0
  6
CONTINUOUS
 62
     7
100
AcDbCircle
 10
1509.8682800697
 20
49.0732622726
 30
0.0
 40
6.000000000000227
100
AcDbArc
 50
90.0
 51
180.0
  0
LINE
  5
F3
330
1F
100
AcDbEntity
  8
0
  6
CONTINUOUS
 62
     7
100
AcDbLine
 10
1597.8182768654
 20
55.073262614
 30
0.0
 11
1509.8682856392
 21
55.073262614
 31
0.0
  0
ARC
  5
F4
330
1F
100
AcDbEntity
  8
0
  6
CONTINUOUS
 62
     7
100
AcDbCircle
 10
1597.8182800697
 20
67.0732622726
 30
0.0
 40
12.0
100
AcDbArc
 50
270.0
 51
0.0
  0
LINE
  5
F5
330
1F
100
AcDbEntity
  8
0
  6
CONTINUOUS
 62
     7
100
AcDbLine
 10
1609.8182415794
 20
156.7063643158
 30
0.0
 11
1609.8182415794
 21
67.073264581
 31
0.0
  0
ARC
  5
F6
330
1F
100
AcDbEntity
  8
0
  6
CONTINUOUS
 62
     7
100
AcDbCircle
 10
1628.8682800697
 20
156.7063626137
 30
0.0
 40
19.04999999999995
100
AcDbArc
 50
120.0
 51
180.0
  0
ARC
  5
F7
330
1F
100
AcDbEntity
  8
0
  6
CONTINUOUS
 62
     7
100
AcDbCircle
 10
1609.8182800697
 20
189.7019304979
 30
0.0
 40
19.04999999999995
100
AcDbArc
 50
300.0
 51
0.0
  0
LINE
  5
F8
330
1F
100
AcDbEntity
  8
0
  6
CONTINUOUS
 62
     7
100
AcDbLine
 10
1628.8682436775
 20
238.3458925903
 30
0.0
 11
1628.8682436775
 21
189.7019310415
 31
0.0
  0
ARC
  5
F9
330
1F
100
AcDbEntity
  8
0
  6
CONTINUOUS
 62
     7
100
AcDbCircle
 10
1609.8182800697
 20
238.3458950707
 30
0.0
 40
19.05000000000018
100
AcDbArc
 50
0.0
 51
60.0
  0
ARC
  5
FA
330
1F
100
AcDbEntity
  8
0
  6
CONTINUOUS
 62
     7
100
AcDbCircle
 10
1628.8682800697
 20
271.3414629549
 30
0.0
 40
19.05000000000018
100
AcDbArc
 50
180.0
 51
240.0
  0
LINE
  5
FB
330
1F
100
AcDbEntity
  8
0
  6
CONTINUOUS
 62
     7
100
AcDbLine
 10
1609.8182415794
 20
360.9745516003
 30
0.0
 11
1609.8182415794
 21
271.3414742172
 31
0.0
  0
ARC
  5
FC
330
1F
100
AcDbEntity
  8
0
  6
CONTINUOUS
 62
     7
100
AcDbCircle
 10
1597.8182800697
 20
360.974563296
 30
0.0
 40
12.0
100
AcDbArc
 50
0.0
 51
90.0
  0
LINE
  5
FD
330
1F
100
AcDbEntity
  8
0
  6
CONTINUOUS
 62
     7
100
AcDbLine
 10
1509.8682856392
 20
372.9745759189
 30
0.0
 11
1597.8182768654
 21
372.9745759189
 31
0.0
  0
ARC
  5
FE
330
1F
100
AcDbEntity
  8
0
  6
CONTINUOUS
 62
     7
100
AcDbCircle
 10
1509.8682800697
 20
378.974563296
 30
0.0
 40
6.000000000000227
100
AcDbArc
 50
180.0
 51
270.0
  0
LINE
  5
FF
330
1F
100
AcDbEntity
  8
0
  6
CONTINUOUS
 62
     7
100
AcDbLine
 10
1503.8682436775
 20
390.7245709122
 30
0.0
 11
1503.8682436775
 21
378.974558276
 31
0.0
  0
ARC
  5
100
330
1F
100
AcDbEntity
  8
0
  6
CONTINUOUS
 62
     7
100
AcDbCircle
 10
1504.8682800697
 20
390.724563296
 30
0.0
 40
1.0
100
AcDbArc
 50
90.0
 51
180.0
  0
LINE
  5
101
330
1F
100
AcDbEntity
  8
0
  6
CONTINUOUS
 62
     7
100
AcDbLine
 10
1504.8682904075
 20
391.7245580376
 30
0.0
 11
1510.1282810997
 21
391.7245580376
 31
0.0
  0
LINE
  5
102
330
1F
100
AcDbEntity
  8
0
  6
CONTINUOUS
 62
     7
100
AcDbLine
 10
1510.1282810997
 20
391.7245580376
 30
0.0
 11
1510.4683852028
 21
386.4106847465
 31
0.0
  0
ARC
  5
103
330
1F
100
AcDbEntity
  8
0
  6
CONTINUOUS
 62
     7
100
AcDbCircle
 10
1511.4663259768
 20
386.474563296
 30
0.0
 40
1.00000000000016
100
AcDbArc
 50
183.6619355755
 51
270.0
  0
LINE
  5
104
330
1F
100
AcDbEntity
  8
0
  6
CONTINUOUS
 62
     7
100
AcDbLine
 10
1511.4662861656
 20
385.474563998
 30
0.0
 11
1525.4060244392
 21
385.474563998
 31
0.0
  0
ARC
  5
105
330
1F
100
AcDbEntity
  8
0
  6
CONTINUOUS
 62
     7
100
AcDbCircle
 10
1525.4060016863
 20
384.474563296
 30
0.0
 40
1.000000000000057
100
AcDbArc
 50
65.1121079736
 51
90.0
  0
ARC
  5
106
330
1F
100
AcDbEntity
  8
0
  6
CONTINUOUS
 62
     7
100
AcDbCircle
 10
1528.0026099301
 20
390.0715737148
 30
0.0
 40
5.170000000000028
100
AcDbArc
 50
245.1121079736
 51
72.3995332141
  0
ARC
  5
107
330
1F
100
AcDbEntity
  8
0
  6
CONTINUOUS
 62
     7
100
AcDbCircle
 10
1529.8682800697
 20
395.9527449357
 30
0.0
 40
1.000000000000227
100
AcDbArc
 50
180.0
 51
252.3995332141
  0
LINE
  5
108
330
1F
100
AcDbEntity
  8
0
  6
CONTINUOUS
 62
     7
100
AcDbLine
 10
1528.8683390449
 20
397.9765488327
 30
0.0
 11
1528.8683390449
 21
395.952732724
 31
0.0
  0
LINE
  5
109
330
1F
100
AcDbEntity
  8
0
  6
CONTINUOUS
 62
     7
100
AcDbLine
 10
1616.8682789634
 20
397.9765488327
 30
0.0
 11
1528.8683390449
 21
397.9765488327
 31
0.0
  0
ARC
  5
10A
330
1F
100
AcDbEntity
  8
0
  6
CONTINUOUS
 62
     7
100
AcDbCircle
 10
1616.8682800697
 20
385.976563296
 30
0.0
 40
12.0
100
AcDbArc
 50
0.0
 51
90.0
  0
LINE
  5
10B
330
1F
100
AcDbEntity
  8
0
  6
CONTINUOUS
 62
     7
100
AcDbLine
 10
1628.8682436775
 20
283.3414687336
 30
0.0
 11
1628.8682436775
 21
385.9765543163
 31
0.0
  0
ARC
  5
10C
330
1F
100
AcDbEntity
  8
0
  6
CONTINUOUS
 62
     7
100
AcDbCircle
 10
1640.8682800697
 20
283.3414629549
 30
0.0
 40
12.0
100
AcDbArc
 50
180.0
 51
270.0
  0
LINE
  5
10D
330
1F
100
AcDbEntity
  8
0
  6
CONTINUOUS
 62
     7
100
AcDbLine
 10
1666.8682312797
 20
271.3414742172
 30
0.0
 11
1640.8683276008
 21
271.3414742172
 31
0.0
  0
ARC
  5
10E
330
1F
100
AcDbEntity
  8
0
  6
CONTINUOUS
 62
     7
100
AcDbCircle
 10
1666.8682800697
 20
283.3414629549
 30
0.0
 40
12.0
100
AcDbArc
 50
270.0
 51
0.0
  0
LINE
  5
10F
330
1F
100
AcDbEntity
  8
0
  6
CONTINUOUS
 62
     7
100
AcDbLine
 10
1678.8683152031
 20
385.9765543163
 30
0.0
 11
1678.8683152031
 21
283.3414687336
 31
0.0
  0
ARC
  5
110
330
1F
100
AcDbEntity
  8
0
  6
CONTINUOUS
 62
     7
100
AcDbCircle
 10
1690.8682800697
 20
385.976563296
 30
0.0
 40
12.0
100
AcDbArc
 50
90.0
 51
180.0
  0
LINE
  5
111
330
1F
100
AcDbEntity
  8
0
  6
CONTINUOUS
 62
     7
100
AcDbLine
 10
1778.8683390449
 20
397.9765488327
 30
0.0
 11
1690.8682799171
 21
397.9765488327
 31
0.0
  0
LINE
  5
112
330
1F
100
AcDbEntity
  8
0
  6
CONTINUOUS
 62
     7
100
AcDbLine
 10
1778.8683390449
 20
395.952732724
 30
0.0
 11
1778.8683390449
 21
397.9765488327
 31
0.0
  0
ARC
  5
113
330
1F
100
AcDbEntity
  8
0
  6
CONTINUOUS
 62
     7
100
AcDbCircle
 10
1777.8682800697
 20
395.9527449357
 30
0.0
 40
1.000000000000045
100
AcDbArc
 50
287.6004667859
 51
0.0
  0
ARC
  5
114
330
1F
100
AcDbEntity
  8
0
  6
CONTINUOUS
 62
     7
100
AcDbCircle
 10
1779.7339502093
 20
390.0715737148
 30
0.0
 40
5.169999999999925
100
AcDbArc
 50
107.6004667859
 51
294.8878920264
  0
ARC
  5
115
330
1F
100
AcDbEntity
  8
0
  6
CONTINUOUS
 62
     7
100
AcDbCircle
 10
1782.3305584531
 20
384.474563296
 30
0.0
 40
1.00000000000014
100
AcDbArc
 50
90.0
 51
114.8878920264
  0
LINE
  5
116
330
1F
100
AcDbEntity
  8
0
  6
CONTINUOUS
 62
     7
100
AcDbLine
 10
1782.3305344413
 20
385.474563998
 30
0.0
 11
1796.270272715
 21
385.474563998
 31
0.0
  0
ARC
  5
117
330
1F
100
AcDbEntity
  8
0
  6
CONTINUOUS
 62
     7
100
AcDbCircle
 10
1796.2702341626
 20
386.474563296
 30
0.0
 40
1.0
100
AcDbArc
 50
270.0
 51
356.3380644245
  0
LINE
  5
118
330
1F
100
AcDbEntity
  8
0
  6
CONTINUOUS
 62
     7
100
AcDbLine
 10
1797.2681736778
 20
386.4106847465
 30
0.0
 11
1797.6082777809
 21
391.7245580376
 31
0.0
  0
LINE
  5
119
330
1F
100
AcDbEntity
  8
0
  6
CONTINUOUS
 62
     7
100
AcDbLine
 10
1797.6082777809
 20
391.7245580376
 30
0.0
 11
1802.868268473
 21
391.7245580376
 31
0.0
  0
ARC
  5
11A
330
1F
100
AcDbEntity
  8
0
  6
CONTINUOUS
 62
     7
100
AcDbCircle
 10
1802.8682800697
 20
390.724563296
 30
0.0
 40
1.0
100
AcDbArc
 50
0.0
 51
90.0
  0
LINE
  5
11B
330
1F
100
AcDbEntity
  8
0
  6
CONTINUOUS
 62
     7
100
AcDbLine
 10
1803.8683152031
 20
378.974558276
 30
0.0
 11
1803.8683152031
 21
390.7245709122
 31
0.0
  0
ARC
  5
11C
330
1F
100
AcDbEntity
  8
0
  6
CONTINUOUS
 62
     7
100
AcDbCircle
 10
1797.8682800697
 20
378.974563296
 30
0.0
 40
6.000000000000057
100
AcDbArc
 50
270.0
 51
0.0
  0
LINE
  5
11D
330
1F
100
AcDbEntity
  8
0
  6
CONTINUOUS
 62
     7
100
AcDbLine
 10
1709.9182820152
 20
372.9745759189
 30
0.0
 11
1797.8682732414
 21
372.9745759189
 31
0.0
  0
ARC
  5
11E
330
1F
100
AcDbEntity
  8
0
  6
CONTINUOUS
 62
     7
100
AcDbCircle
 10
1709.9182800697
 20
360.974563296
 30
0.0
 40
12.00000000000017
100
AcDbArc
 50
90.0
 51
180.0
  0
LINE
  5
11F
330
1F
100
AcDbEntity
  8
0
  6
CONTINUOUS
 62
     7
100
AcDbLine
 10
1697.9183173011
 20
271.3414742172
 30
0.0
 11
1697.9183173011
 21
360.9745516003
 31
0.0
  0
ARC
  5
120
330
1F
100
AcDbEntity
  8
0
  6
CONTINUOUS
 62
     7
100
AcDbCircle
 10
1678.8682800697
 20
271.3414629549
 30
0.0
 40
19.04999999999995
100
AcDbArc
 50
300.0
 51
0.0
  0
ARC
  5
121
330
1F
100
AcDbEntity
  8
0
  6
CONTINUOUS
 62
     7
100
AcDbCircle
 10
1697.9182800697
 20
238.3458950707
 30
0.0
 40
19.05000000000001
100
AcDbArc
 50
120.0
 51
180.0
  0
LINE
  5
122
330
1F
100
AcDbEntity
  8
0
  6
CONTINUOUS
 62
     7
100
AcDbLine
 10
1678.8683152031
 20
189.7019310415
 30
0.0
 11
1678.8683152031
 21
238.3458925903
 31
0.0
  0
ARC
  5
123
330
1F
100
AcDbEntity
  8
0
  6
CONTINUOUS
 62
     7
100
AcDbCircle
 10
1697.9182800697
 20
189.7019304979
 30
0.0
 40
19.05000000000004
100
AcDbArc
 50
180.0
 51
240.0
  0
ARC
  5
124
330
1F
100
AcDbEntity
  8
0
  6
CONTINUOUS
 62
     7
100
AcDbCircle
 10
1678.8682800697
 20
156.7063626137
 30
0.0
 40
19.04999999999995
100
AcDbArc
 50
0.0
 51
60.0
  0
LINE
  5
125
330
1F
100
AcDbEntity
  8
0
  6
CONTINUOUS
 62
     7
100
AcDbLine
 10
1697.9183173011
 20
67.073264581
 30
0.0
 11
1697.9183173011
 21
156.7063643158
 31
0.0
  0
ARC
  5
126
330
1F
100
AcDbEntity
  8
0
  6
CONTINUOUS
 62
     7
100
AcDbCircle
 10
1709.9182800697
 20
67.0732622726
 30
0.0
 40
12.00000000000006
100
AcDbArc
 50
180.0
 51
270.0
  0
LINE
  5
127
330
1F
100
AcDbEntity
  8
0
  6
CONTINUOUS
 62
     7
100
AcDbLine
 10
1797.8682732414
 20
55.073262614
 30
0.0
 11
1709.9182820152
 21
55.073262614
 31
0.0
  0
ARC
  5
128
330
1F
100
AcDbEntity
  8
0
  6
CONTINUOUS
 62
     7
100
AcDbCircle
 10
1797.8682800697
 20
49.0732622726
 30
0.0
 40
6.0
100
AcDbArc
 50
0.0
 51
90.0
  0
LINE
  5
129
330
1F
100
AcDbEntity
  8
0
  6
CONTINUOUS
 62
     7
100
AcDbLine
 10
1803.8683152031
 20
37.3232638955
 30
0.0
 11
1803.8683152031
 21
49.0732616306
 31
0.0
  0
ARC
  5
12A
330
1F
100
AcDbEntity
  8
0
  6
CONTINUOUS
 62
     7
100
AcDbCircle
 10
1802.8682800697
 20
37.3232622726
 30
0.0
 40
1.0
100
AcDbArc
 50
270.0
 51
0.0
  0
LINE
  5
12B
330
1F
100
AcDbEntity
  8
0
  6
CONTINUOUS
 62
     7
100
AcDbLine
 10
1802.868268473
 20
36.323261869
 30
0.0
 11
1797.6082777809
 21
36.323261869
 31
0.0
  0
LINE
  5
12C
330
1F
100
AcDbEntity
  8
0
  6
CONTINUOUS
 62
     7
100
AcDbLine
 10
1797.6082777809
 20
36.323261869
 30
0.0
 11
1797.2681736778
 21
41.6371314347
 31
0.0
  0
ARC
  5
12D
330
1F
100
AcDbEntity
  8
0
  6
CONTINUOUS
 62
     7
100
AcDbCircle
 10
1796.2702341626
 20
41.5732622726
 30
0.0
 40
1.0
100
AcDbArc
 50
3.6619355755
 51
90.0
  0
LINE
  5
12E
330
1F
100
AcDbEntity
  8
0
  6
CONTINUOUS
 62
     7
100
AcDbLine
 10
1796.270272715
 20
42.5732633591
 30
0.0
 11
1782.3305344413
 21
42.5732633591
 31
0.0
  0
ARC
  5
12F
330
1F
100
AcDbEntity
  8
0
  6
CONTINUOUS
 62
     7
100
AcDbCircle
 10
1782.3305584531
 20
43.5732622726
 30
0.0
 40
1.0
100
AcDbArc
 50
245.1121079736
 51
270.0
  0
ARC
  5
130
330
1F
100
AcDbEntity
  8
0
  6
CONTINUOUS
 62
     7
100
AcDbCircle
 10
1779.7339502093
 20
37.9762518538
 30
0.0
 40
5.170000000000043
100
AcDbArc
 50
65.1121079736
 51
252.3995332141
  0
ARC
  5
131
330
1F
100
AcDbEntity
  8
0
  6
CONTINUOUS
 62
     7
100
AcDbCircle
 10
1777.8682800697
 20
32.0950806329
 30
0.0
 40
0.9999999999999638
100
AcDbArc
 50
0.0
 51
72.3995332141
  0
LINE
  5
132
330
1F
100
AcDbEntity
  8
0
  6
CONTINUOUS
 62
     7
100
AcDbLine
 10
1778.8683390449
 20
30.0712617606
 30
0.0
 11
1778.8683390449
 21
32.095079732
 31
0.0
  0
LINE
  5
133
330
1F
100
AcDbEntity
  8
0
  6
CONTINUOUS
 62
     7
100
AcDbLine
 10
1690.8682799171
 20
30.0712617606
 30
0.0
 11
1778.8683390449
 21
30.0712617606
 31
0.0
  0
LINE
  5
134
330
1F
100
AcDbEntity
  8
0
  6
CONTINUOUS
 62
     7
100
AcDbLine
 10
1678.8683152031
 20
144.7063697994
 30
0.0
 11
1678.8683152031
 21
42.0712618649
 31
0.0
  0
ARC
  5
135
330
1F
100
AcDbEntity
  8
0
  6
CONTINUOUS
 62
     7
100
AcDbCircle
 10
1666.8682800697
 20
144.7063626137
 30
0.0
 40
12.0
100
AcDbArc
 50
0.0
 51
90.0
  0
LINE
  5
136
330
1F
100
AcDbEntity
  8
0
  6
CONTINUOUS
 62
     7
100
AcDbLine
 10
1640.8683276008
 20
156.7063643158
 30
0.0
 11
1666.8682312797
 21
156.7063643158
 31
0.0
  0
ARC
  5
137
330
1F
100
AcDbEntity
  8
0
  6
CONTINUOUS
 62
     7
100
AcDbCircle
 10
1640.8682800697
 20
144.7063626137
 30
0.0
 40
12.0
100
AcDbArc
 50
90.0
 51
180.0
  0
LINE
  5
138
330
1F
100
AcDbEntity
  8
0
  6
CONTINUOUS
 62
     7
100
AcDbLine
 10
1628.8682436775
 20
42.0712618649
 30
0.0
 11
1628.8682436775
 21
144.7063697994
 31
0.0
  0
ARC
  5
139
330
1F
100
AcDbEntity
  8
0
  6
CONTINUOUS
 62
     7
100
AcDbCircle
 10
1616.8682800697
 20
42.0712622726
 30
0.0
 40
12.00000000000001
100
AcDbArc
 50
270.0
 51
0.0
  0
LINE
  5
13A
330
1F
100
AcDbEntity
  8
0
  6
CONTINUOUS
 62
     7
100
AcDbLine
 10
1528.8683390449
 20
30.0712617606
 30
0.0
 11
1616.8682789634
 21
30.0712617606
 31
0.0
  0
ARC
  5
13B
330
1F
100
AcDbEntity
  8
0
  6
CONTINUOUS
 62
     7
100
AcDbCircle
 10
1529.8682800697
 20
32.0950806329
 30
0.0
 40
1.000000000000227
100
AcDbArc
 50
107.6004667859
 51
180.0
  0
ARC
  5
13C
330
1F
100
AcDbEntity
  8
0
  6
CONTINUOUS
 62
     7
100
AcDbCircle
 10
1528.0026099301
 20
37.9762518538
 30
0.0
 40
5.169999999999974
100
AcDbArc
 50
287.6004667859
 51
114.8878920264
  0
ARC
  5
13D
330
1F
100
AcDbEntity
  8
0
  6
CONTINUOUS
 62
     7
100
AcDbCircle
 10
1525.4060016863
 20
43.5732622726
 30
0.0
 40
1.000000000000007
100
AcDbArc
 50
270.0
 51
294.8878920264
  0
LINE
  5
13E
330
1F
100
AcDbEntity
  8
0
  6
CONTINUOUS
 62
     7
100
AcDbLine
 10
1525.4060244392
 20
42.5732633591
 30
0.0
 11
1511.4662861656
 21
42.5732633591
 31
0.0
  0
ARC
  5
13F
330
1F
100
AcDbEntity
  8
0
  6
CONTINUOUS
 62
     7
100
AcDbCircle
 10
1511.4663259768
 20
41.5732622726
 30
0.0
 40
1.000000000000153
100
AcDbArc
 50
90.0
 51
176.3380644245
  0
LINE
  5
140
330
1F
100
AcDbEntity
  8
0
  6
CONTINUOUS
 62
     7
100
AcDbLine
 10
1510.4683852028
 20
41.6371314347
 30
0.0
 11
1510.1282810997
 21
36.323261869
 31
0.0
  0
LINE
  5
141
330
1F
100
AcDbEntity
  8
0
  6
CONTINUOUS
 62
     7
100
AcDbLine
 10
1510.1282810997
 20
36.323261869
 30
0.0
 11
1504.8682904075
 21
36.323261869
 31
0.0
  0
ARC
  5
142
330
1F
100
AcDbEntity
  8
0
  6
CONTINUOUS
 62
     7
100
AcDbCircle
 10
1504.8682800697
 20
37.3232622726
 30
0.0
 40
1.0
100
AcDbArc
 50
180.0
 51
270.0
  0
LINE
  5
143
330
1F
100
AcDbEntity
  8
0
  6
CONTINUOUS
 62
     7
100
AcDbLine
 10
1503.8682436775
 20
49.0732616306
 30
0.0
 11
1503.8682436775
 21
37.3232638955
 31
0.0
  0
ARC
  5
144
330
1F
100
AcDbEntity
  8
0
  6
CONTINUOUS
 62
     7
100
AcDbCircle
 10
1690.8682800697
 20
42.0712622726
 30
0.0
 40
12.00000000000001
100
AcDbArc
 50
180.0
 51
270.0
  0
LINE
  5
145
330
1F
100
AcDbEntity
  8
0
  6
CONTINUOUS
 62
     7
100
AcDbLine
 10
1528.8683390449
 20
32.095079732
 30
0.0
 11
1528.8683390449
 21
30.0712617606
 31
0.0
  0
ARC
  5
146
330
1F
100
AcDbEntity
  8
0
  6
CONTINUOUS
 62
     7
100
AcDbCircle
 10
1797.8682800697
 20
778.3558643193
 30
0.0
 40
6.000000000000227
100
AcDbArc
 50
270.0
 51
0.0
  0
LINE
  5
147
330
1F
100
AcDbEntity
  8
0
  6
CONTINUOUS
 62
     7
100
AcDbLine
 10
1709.9182820152
 20
772.3558856666
 30
0.0
 11
1797.8682732414
 21
772.3558856666
 31
0.0
  0
ARC
  5
148
330
1F
100
AcDbEntity
  8
0
  6
CONTINUOUS
 62
     7
100
AcDbCircle
 10
1709.9182800697
 20
760.3558643193
 30
0.0
 40
12.0
100
AcDbArc
 50
90.0
 51
180.0
  0
LINE
  5
149
330
1F
100
AcDbEntity
  8
0
  6
CONTINUOUS
 62
     7
100
AcDbLine
 10
1697.9183173011
 20
670.7227541626
 30
0.0
 11
1697.9183173011
 21
760.3558613479
 31
0.0
  0
ARC
  5
14A
330
1F
100
AcDbEntity
  8
0
  6
CONTINUOUS
 62
     7
100
AcDbCircle
 10
1678.8682800697
 20
670.7227639782
 30
0.0
 40
19.04999999999973
100
AcDbArc
 50
300.0
 51
0.0
  0
ARC
  5
14B
330
1F
100
AcDbEntity
  8
0
  6
CONTINUOUS
 62
     7
100
AcDbCircle
 10
1697.9182800697
 20
637.727196094
 30
0.0
 40
19.05000000000011
100
AcDbArc
 50
120.0
 51
180.0
  0
LINE
  5
14C
330
1F
100
AcDbEntity
  8
0
  6
CONTINUOUS
 62
     7
100
AcDbLine
 10
1678.8683152031
 20
589.083225888
 30
0.0
 11
1678.8683152031
 21
637.7271725357
 31
0.0
  0
ARC
  5
14D
330
1F
100
AcDbEntity
  8
0
  6
CONTINUOUS
 62
     7
100
AcDbCircle
 10
1697.9182800697
 20
589.0832315213
 30
0.0
 40
19.05
100
AcDbArc
 50
180.0
 51
240.0
  0
ARC
  5
14E
330
1F
100
AcDbEntity
  8
0
  6
CONTINUOUS
 62
     7
100
AcDbCircle
 10
1678.8682800697
 20
556.0876636371
 30
0.0
 40
19.04999999999995
100
AcDbArc
 50
0.0
 51
60.0
  0
LINE
  5
14F
330
1F
100
AcDbEntity
  8
0
  6
CONTINUOUS
 62
     7
100
AcDbLine
 10
1697.9183173011
 20
466.4545668781
 30
0.0
 11
1697.9183173011
 21
556.0876442612
 31
0.0
  0
ARC
  5
150
330
1F
100
AcDbEntity
  8
0
  6
CONTINUOUS
 62
     7
100
AcDbCircle
 10
1709.9182800697
 20
466.454563296
 30
0.0
 40
12.0
100
AcDbArc
 50
180.0
 51
270.0
  0
LINE
  5
151
330
1F
100
AcDbEntity
  8
0
  6
CONTINUOUS
 62
     7
100
AcDbLine
 10
1797.8682732414
 20
454.4545723617
 30
0.0
 11
1709.9182820152
 21
454.4545723617
 31
0.0
  0
ARC
  5
152
330
1F
100
AcDbEntity
  8
0
  6
CONTINUOUS
 62
     7
100
AcDbCircle
 10
1797.8682800697
 20
448.454563296
 30
0.0
 40
6.000000000000227
100
AcDbArc
 50
0.0
 51
90.0
  0
LINE
  5
153
330
1F
100
AcDbEntity
  8
0
  6
CONTINUOUS
 62
     7
100
AcDbLine
 10
1803.8683152031
 20
436.7045773685
 30
0.0
 11
1803.8683152031
 21
448.4545602024
 31
0.0
  0
ARC
  5
154
330
1F
100
AcDbEntity
  8
0
  6
CONTINUOUS
 62
     7
100
AcDbCircle
 10
1802.8682800697
 20
436.704563296
 30
0.0
 40
1.000000000000227
100
AcDbArc
 50
270.0
 51
0.0
  0
LINE
  5
155
330
1F
100
AcDbEntity
  8
0
  6
CONTINUOUS
 62
     7
100
AcDbLine
 10
1802.868268473
 20
435.7045604408
 30
0.0
 11
1797.6082777809
 21
435.7045604408
 31
0.0
  0
LINE
  5
156
330
1F
100
AcDbEntity
  8
0
  6
CONTINUOUS
 62
     7
100
AcDbLine
 10
1797.6082777809
 20
435.7045604408
 30
0.0
 11
1797.2681736778
 21
441.0184337318
 31
0.0
  0
ARC
  5
157
330
1F
100
AcDbEntity
  8
0
  6
CONTINUOUS
 62
     7
100
AcDbCircle
 10
1796.2702341626
 20
440.954563296
 30
0.0
 40
1.0
100
AcDbArc
 50
3.6619355755
 51
90.0
  0
LINE
  5
158
330
1F
100
AcDbEntity
  8
0
  6
CONTINUOUS
 62
     7
100
AcDbLine
 10
1796.270272715
 20
441.9545544803
 30
0.0
 11
1782.3305344413
 21
441.9545544803
 31
0.0
  0
ARC
  5
159
330
1F
100
AcDbEntity
  8
0
  6
CONTINUOUS
 62
     7
100
AcDbCircle
 10
1782.3305584531
 20
442.954563296
 30
0.0
 40
1.000000000000057
100
AcDbArc
 50
245.1121079736
 51
270.0
  0
ARC
  5
15A
330
1F
100
AcDbEntity
  8
0
  6
CONTINUOUS
 62
     7
100
AcDbCircle
 10
1779.7339502093
 20
437.3575528772
 30
0.0
 40
5.170000000000028
100
AcDbArc
 50
65.1121079736
 51
252.3995332141
  0
ARC
  5
15B
330
1F
100
AcDbEntity
  8
0
  6
CONTINUOUS
 62
     7
100
AcDbCircle
 10
1777.8682800697
 20
431.4763816562
 30
0.0
 40
1.0
100
AcDbArc
 50
0.0
 51
72.3995332141
  0
LINE
  5
15C
330
1F
100
AcDbEntity
  8
0
  6
CONTINUOUS
 62
     7
100
AcDbLine
 10
1778.8683390449
 20
429.4525696457
 30
0.0
 11
1778.8683390449
 21
431.4763857544
 31
0.0
  0
LINE
  5
15D
330
1F
100
AcDbEntity
  8
0
  6
CONTINUOUS
 62
     7
100
AcDbLine
 10
1690.8682799171
 20
429.4525696457
 30
0.0
 11
1778.8683390449
 21
429.4525696457
 31
0.0
  0
LINE
  5
15E
330
1F
100
AcDbEntity
  8
0
  6
CONTINUOUS
 62
     7
100
AcDbLine
 10
1678.8683152031
 20
544.0876795471
 30
0.0
 11
1678.8683152031
 21
441.4525641621
 31
0.0
  0
ARC
  5
15F
330
1F
100
AcDbEntity
  8
0
  6
CONTINUOUS
 62
     7
100
AcDbCircle
 10
1666.8682800697
 20
544.0876636371
 30
0.0
 40
12.0
100
AcDbArc
 50
0.0
 51
90.0
  0
LINE
  5
160
330
1F
100
AcDbEntity
  8
0
  6
CONTINUOUS
 62
     7
100
AcDbLine
 10
1640.8683276008
 20
556.0876442612
 30
0.0
 11
1666.8682312797
 21
556.0876442612
 31
0.0
  0
ARC
  5
161
330
1F
100
AcDbEntity
  8
0
  6
CONTINUOUS
 62
     7
100
AcDbCircle
 10
1640.8682800697
 20
544.0876636371
 30
0.0
 40
12.0
100
AcDbArc
 50
90.0
 51
180.0
  0
LINE
  5
162
330
1F
100
AcDbEntity
  8
0
  6
CONTINUOUS
 62
     7
100
AcDbLine
 10
1628.8682436775
 20
441.4525641621
 30
0.0
 11
1628.8682436775
 21
544.0876795471
 31
0.0
  0
LINE
  5
163
330
1F
100
AcDbEntity
  8
0
  6
CONTINUOUS
 62
     7
100
AcDbLine
 10
1528.8683390449
 20
429.4525696457
 30
0.0
 11
1616.8682789634
 21
429.4525696457
 31
0.0
  0
LINE
  5
164
330
1F
100
AcDbEntity
  8
0
  6
CONTINUOUS
 62
     7
100
AcDbLine
 10
1528.8683390449
 20
431.4763857544
 30
0.0
 11
1528.8683390449
 21
429.4525696457
 31
0.0
  0
ARC
  5
165
330
1F
100
AcDbEntity
  8
0
  6
CONTINUOUS
 62
     7
100
AcDbCircle
 10
1529.8682800697
 20
431.4763816562
 30
0.0
 40
1.00000000000006
100
AcDbArc
 50
107.6004667859
 51
180.0
  0
ARC
  5
166
330
1F
100
AcDbEntity
  8
0
  6
CONTINUOUS
 62
     7
100
AcDbCircle
 10
1528.0026099301
 20
437.3575528772
 30
0.0
 40
5.169999999999925
100
AcDbArc
 50
287.6004667859
 51
114.8878920264
  0
ARC
  5
167
330
1F
100
AcDbEntity
  8
0
  6
CONTINUOUS
 62
     7
100
AcDbCircle
 10
1525.4060016863
 20
442.954563296
 30
0.0
 40
1.000000000000114
100
AcDbArc
 50
270.0
 51
294.8878920264
  0
LINE
  5
168
330
1F
100
AcDbEntity
  8
0
  6
CONTINUOUS
 62
     7
100
AcDbLine
 10
1525.4060244392
 20
441.9545544803
 30
0.0
 11
1511.4662861656
 21
441.9545544803
 31
0.0
  0
ARC
  5
169
330
1F
100
AcDbEntity
  8
0
  6
CONTINUOUS
 62
     7
100
AcDbCircle
 10
1511.4663259768
 20
440.954563296
 30
0.0
 40
1.00000000000016
100
AcDbArc
 50
90.0
 51
176.3380644245
  0
LINE
  5
16A
330
1F
100
AcDbEntity
  8
0
  6
CONTINUOUS
 62
     7
100
AcDbLine
 10
1510.4683852028
 20
441.0184337318
 30
0.0
 11
1510.1282810997
 21
435.7045604408
 31
0.0
  0
LINE
  5
16B
330
1F
100
AcDbEntity
  8
0
  6
CONTINUOUS
 62
     7
100
AcDbLine
 10
1510.1282810997
 20
435.7045604408
 30
0.0
 11
1504.8682904075
 21
435.7045604408
 31
0.0
  0
ARC
  5
16C
330
1F
100
AcDbEntity
  8
0
  6
CONTINUOUS
 62
     7
100
AcDbCircle
 10
1504.8682800697
 20
436.704563296
 30
0.0
 40
1.0
100
AcDbArc
 50
180.0
 51
270.0
  0
LINE
  5
16D
330
1F
100
AcDbEntity
  8
0
  6
CONTINUOUS
 62
     7
100
AcDbLine
 10
1503.8682436775
 20
448.4545602024
 30
0.0
 11
1503.8682436775
 21
436.7045773685
 31
0.0
  0
ARC
  5
16E
330
1F
100
AcDbEntity
  8
0
  6
CONTINUOUS
 62
     7
100
AcDbCircle
 10
1509.8682800697
 20
448.454563296
 30
0.0
 40
6.000000000000057
100
AcDbArc
 50
90.0
 51
180.0
  0
LINE
  5
16F
330
1F
100
AcDbEntity
  8
0
  6
CONTINUOUS
 62
     7
100
AcDbLine
 10
1597.8182768654
 20
454.4545723617
 30
0.0
 11
1509.8682856392
 21
454.4545723617
 31
0.0
  0
ARC
  5
170
330
1F
100
AcDbEntity
  8
0
  6
CONTINUOUS
 62
     7
100
AcDbCircle
 10
1597.8182800697
 20
466.454563296
 30
0.0
 40
12.00000000000023
100
AcDbArc
 50
270.0
 51
0.0
  0
LINE
  5
171
330
1F
100
AcDbEntity
  8
0
  6
CONTINUOUS
 62
     7
100
AcDbLine
 10
1609.8182415794
 20
556.0876442612
 30
0.0
 11
1609.8182415794
 21
466.4545668781
 31
0.0
  0
ARC
  5
172
330
1F
100
AcDbEntity
  8
0
  6
CONTINUOUS
 62
     7
100
AcDbCircle
 10
1628.8682800697
 20
556.0876636371
 30
0.0
 40
19.05000000000018
100
AcDbArc
 50
120.0
 51
180.0
  0
ARC
  5
173
330
1F
100
AcDbEntity
  8
0
  6
CONTINUOUS
 62
     7
100
AcDbCircle
 10
1609.8182800697
 20
589.0832315213
 30
0.0
 40
19.05000000000018
100
AcDbArc
 50
300.0
 51
0.0
  0
LINE
  5
174
330
1F
100
AcDbEntity
  8
0
  6
CONTINUOUS
 62
     7
100
AcDbLine
 10
1628.8682436775
 20
637.7271725357
 30
0.0
 11
1628.8682436775
 21
589.083225888
 31
0.0
  0
ARC
  5
175
330
1F
100
AcDbEntity
  8
0
  6
CONTINUOUS
 62
     7
100
AcDbCircle
 10
1609.8182800697
 20
637.727196094
 30
0.0
 40
19.05000000000018
100
AcDbArc
 50
0.0
 51
60.0
  0
ARC
  5
176
330
1F
100
AcDbEntity
  8
0
  6
CONTINUOUS
 62
     7
100
AcDbCircle
 10
1628.8682800697
 20
670.7227639782
 30
0.0
 40
19.05000000000018
100
AcDbArc
 50
180.0
 51
240.0
  0
LINE
  5
177
330
1F
100
AcDbEntity
  8
0
  6
CONTINUOUS
 62
     7
100
AcDbLine
 10
1609.8182415794
 20
760.3558613479
 30
0.0
 11
1609.8182415794
 21
670.7227541626
 31
0.0
  0
ARC
  5
178
330
1F
100
AcDbEntity
  8
0
  6
CONTINUOUS
 62
     7
100
AcDbCircle
 10
1597.8182800697
 20
760.3558643193
 30
0.0
 40
12.00000000000011
100
AcDbArc
 50
0.0
 51
90.0
  0
LINE
  5
179
330
1F
100
AcDbEntity
  8
0
  6
CONTINUOUS
 62
     7
100
AcDbLine
 10
1509.8682856392
 20
772.3558856666
 30
0.0
 11
1597.8182768654
 21
772.3558856666
 31
0.0
  0
ARC
  5
17A
330
1F
100
AcDbEntity
  8
0
  6
CONTINUOUS
 62
     7
100
AcDbCircle
 10
1509.8682800697
 20
778.3558643193
 30
0.0
 40
6.0
100
AcDbArc
 50
180.0
 51
270.0
  0
LINE
  5
17B
330
1F
100
AcDbEntity
  8
0
  6
CONTINUOUS
 62
     7
100
AcDbLine
 10
1503.8682436775
 20
790.1058508575
 30
0.0
 11
1503.8682436775
 21
778.3558680237
 31
0.0
  0
ARC
  5
17C
330
1F
100
AcDbEntity
  8
0
  6
CONTINUOUS
 62
     7
100
AcDbCircle
 10
1504.8682800697
 20
790.1058643193
 30
0.0
 40
1.0
100
AcDbArc
 50
90.0
 51
180.0
  0
LINE
  5
17D
330
1F
100
AcDbEntity
  8
0
  6
CONTINUOUS
 62
     7
100
AcDbLine
 10
1504.8682904075
 20
791.1058379829
 30
0.0
 11
1510.1282810997
 21
791.1058379829
 31
0.0
  0
LINE
  5
17E
330
1F
100
AcDbEntity
  8
0
  6
CONTINUOUS
 62
     7
100
AcDbLine
 10
1510.1282810997
 20
791.1058379829
 30
0.0
 11
1510.4683852028
 21
785.7920242966
 31
0.0
  0
ARC
  5
17F
330
1F
100
AcDbEntity
  8
0
  6
CONTINUOUS
 62
     7
100
AcDbCircle
 10
1511.4663259768
 20
785.8558643193
 30
0.0
 40
1.000000000000163
100
AcDbArc
 50
183.6619355755
 51
270.0
  0
LINE
  5
180
330
1F
100
AcDbEntity
  8
0
  6
CONTINUOUS
 62
     7
100
AcDbLine
 10
1511.4662861656
 20
784.8558737457
 30
0.0
 11
1525.4060244392
 21
784.8558737457
 31
0.0
  0
ARC
  5
181
330
1F
100
AcDbEntity
  8
0
  6
CONTINUOUS
 62
     7
100
AcDbCircle
 10
1525.4060016863
 20
783.8558643193
 30
0.0
 40
0.999999999999934
100
AcDbArc
 50
65.1121079736
 51
90.0
  0
ARC
  5
182
330
1F
100
AcDbEntity
  8
0
  6
CONTINUOUS
 62
     7
100
AcDbCircle
 10
1528.0026099301
 20
789.4528747381
 30
0.0
 40
5.170000000000028
100
AcDbArc
 50
245.1121079736
 51
72.3995332141
  0
ARC
  5
183
330
1F
100
AcDbEntity
  8
0
  6
CONTINUOUS
 62
     7
100
AcDbCircle
 10
1529.8682800697
 20
795.3340459591
 30
0.0
 40
1.00000000000006
100
AcDbArc
 50
180.0
 51
252.3995332141
  0
LINE
  5
184
330
1F
100
AcDbEntity
  8
0
  6
CONTINUOUS
 62
     7
100
AcDbLine
 10
1528.8683390449
 20
797.3578883827
 30
0.0
 11
1528.8683390449
 21
795.334072274
 31
0.0
  0
LINE
  5
185
330
1F
100
AcDbEntity
  8
0
  6
CONTINUOUS
 62
     7
100
AcDbLine
 10
1616.8682789634
 20
797.3578883827
 30
0.0
 11
1528.8683390449
 21
797.3578883827
 31
0.0
  0
ARC
  5
186
330
1F
100
AcDbEntity
  8
0
  6
CONTINUOUS
 62
     7
100
AcDbCircle
 10
1616.8682800697
 20
785.3578643193
 30
0.0
 40
12.0
100
AcDbArc
 50
0.0
 51
90.0
  0
LINE
  5
187
330
1F
100
AcDbEntity
  8
0
  6
CONTINUOUS
 62
     7
100
AcDbLine
 10
1628.8682436775
 20
682.7227784813
 30
0.0
 11
1628.8682436775
 21
785.357864064
 31
0.0
  0
ARC
  5
188
330
1F
100
AcDbEntity
  8
0
  6
CONTINUOUS
 62
     7
100
AcDbCircle
 10
1640.8682800697
 20
682.7227639782
 30
0.0
 40
12.0
100
AcDbArc
 50
180.0
 51
270.0
  0
LINE
  5
189
330
1F
100
AcDbEntity
  8
0
  6
CONTINUOUS
 62
     7
100
AcDbLine
 10
1666.8682312797
 20
670.7227541626
 30
0.0
 11
1640.8683276008
 21
670.7227541626
 31
0.0
  0
ARC
  5
18A
330
1F
100
AcDbEntity
  8
0
  6
CONTINUOUS
 62
     7
100
AcDbCircle
 10
1666.8682800697
 20
682.7227639782
 30
0.0
 40
12.0
100
AcDbArc
 50
270.0
 51
0.0
  0
LINE
  5
18B
330
1F
100
AcDbEntity
  8
0
  6
CONTINUOUS
 62
     7
100
AcDbLine
 10
1678.8683152031
 20
785.357864064
 30
0.0
 11
1678.8683152031
 21
682.7227784813
 31
0.0
  0
ARC
  5
18C
330
1F
100
AcDbEntity
  8
0
  6
CONTINUOUS
 62
     7
100
AcDbCircle
 10
1690.8682800697
 20
785.3578643193
 30
0.0
 40
12.0
100
AcDbArc
 50
90.0
 51
180.0
  0
LINE
  5
18D
330
1F
100
AcDbEntity
  8
0
  6
CONTINUOUS
 62
     7
100
AcDbLine
 10
1778.8683390449
 20
797.3578883827
 30
0.0
 11
1690.8682799171
 21
797.3578883827
 31
0.0
  0
LINE
  5
18E
330
1F
100
AcDbEntity
  8
0
  6
CONTINUOUS
 62
     7
100
AcDbLine
 10
1778.8683390449
 20
795.334072274
 30
0.0
 11
1778.8683390449
 21
797.3578883827
 31
0.0
  0
ARC
  5
18F
330
1F
100
AcDbEntity
  8
0
  6
CONTINUOUS
 62
     7
100
AcDbCircle
 10
1777.8682800697
 20
795.3340459591
 30
0.0
 40
1.0
100
AcDbArc
 50
287.6004667859
 51
0.0
  0
ARC
  5
190
330
1F
100
AcDbEntity
  8
0
  6
CONTINUOUS
 62
     7
100
AcDbCircle
 10
1779.7339502093
 20
789.4528747381
 30
0.0
 40
5.17000000000007
100
AcDbArc
 50
107.6004667859
 51
294.8878920264
  0
ARC
  5
191
330
1F
100
AcDbEntity
  8
0
  6
CONTINUOUS
 62
     7
100
AcDbCircle
 10
1782.3305584531
 20
783.8558643193
 30
0.0
 40
1.0
100
AcDbArc
 50
90.0
 51
114.8878920264
  0
LINE
  5
192
330
1F
100
AcDbEntity
  8
0
  6
CONTINUOUS
 62
     7
100
AcDbLine
 10
1782.3305344413
 20
784.8558737457
 30
0.0
 11
1796.270272715
 21
784.8558737457
 31
0.0
  0
ARC
  5
193
330
1F
100
AcDbEntity
  8
0
  6
CONTINUOUS
 62
     7
100
AcDbCircle
 10
1796.2702341626
 20
785.8558643193
 30
0.0
 40
1.0
100
AcDbArc
 50
270.0
 51
356.3380644245
  0
LINE
  5
194
330
1F
100
AcDbEntity
  8
0
  6
CONTINUOUS
 62
     7
100
AcDbLine
 10
1797.2681736778
 20
785.7920242966
 30
0.0
 11
1797.6082777809
 21
791.1058379829
 31
0.0
  0
LINE
  5
195
330
1F
100
AcDbEntity
  8
0
  6
CONTINUOUS
 62
     7
100
AcDbLine
 10
1797.6082777809
 20
791.1058379829
 30
0.0
 11
1802.868268473
 21
791.1058379829
 31
0.0
  0
ARC
  5
196
330
1F
100
AcDbEntity
  8
0
  6
CONTINUOUS
 62
     7
100
AcDbCircle
 10
1802.8682800697
 20
790.1058643193
 30
0.0
 40
1.000000000000227
100
AcDbArc
 50
0.0
 51
90.0
  0
LINE
  5
197
330
1F
100
AcDbEntity
  8
0
  6
CONTINUOUS
 62
     7
100
AcDbLine
 10
1803.8683152031
 20
778.3558680237
 30
0.0
 11
1803.8683152031
 21
790.1058508575
 31
0.0
  0
ARC
  5
198
330
1F
100
AcDbEntity
  8
0
  6
CONTINUOUS
 62
     7
100
AcDbCircle
 10
1690.8682800697
 20
441.452563296
 30
0.0
 40
12.0
100
AcDbArc
 50
180.0
 51
270.0
  0
ARC
  5
199
330
1F
100
AcDbEntity
  8
0
  6
CONTINUOUS
 62
     7
100
AcDbCircle
 10
1616.8682800697
 20
441.452563296
 30
0.0
 40
12.0
100
AcDbArc
 50
270.0
 51
0.0
  0
ARC
  5
19A
330
1F
100
AcDbEntity
  8
0
  6
CONTINUOUS
 62
     7
100
AcDbCircle
 10
841.3416992233
 20
889.8242590768
 30
0.0
 40
5.169999999999971
100
AcDbArc
 50
351.0551891295
 51
19.8879040116
  0
ARC
  5
19B
330
1F
100
AcDbEntity
  8
0
  6
CONTINUOUS
 62
     7
100
AcDbCircle
 10
847.1437202088
 20
891.9231760558
 30
0.0
 40
0.9999999999999535
100
AcDbArc
 50
175.0
 51
199.8879040116
  0
LINE
  5
19C
330
1F
100
AcDbEntity
  8
0
  6
CONTINUOUS
 62
     7
100
AcDbLine
 10
847.1424197982
 20
903.3823324859
 30
0.0
 11
846.1474990677
 21
892.0103027046
 31
0.0
  0
ARC
  5
19D
330
1F
100
AcDbEntity
  8
0
  6
CONTINUOUS
 62
     7
100
AcDbCircle
 10
848.1386775494
 20
903.2951687983
 30
0.0
 40
1.000036753616183
100
AcDbArc
 50
150.1121952728
 51
175.0
  0
ARC
  5
19E
330
1F
100
AcDbEntity
  8
0
  6
CONTINUOUS
 62
     7
100
AcDbCircle
 10
842.7892382152
 20
906.3697179278
 30
0.0
 40
5.170000000000064
100
AcDbArc
 50
330.1121952728
 51
157.399543816
  0
ARC
  5
19F
330
1F
100
AcDbEntity
  8
0
  6
CONTINUOUS
 62
     7
100
AcDbCircle
 10
837.0930500543
 20
908.7408654212
 30
0.0
 40
1.000000000000032
100
AcDbArc
 50
265.0000509005
 51
337.399543816
  0
LINE
  5
1A0
330
1F
100
AcDbEntity
  8
0
  6
CONTINUOUS
 62
     7
100
AcDbLine
 10
832.9776739906
 20
908.0971194923
 30
0.0
 11
837.0058750938
 21
907.7446772278
 31
0.0
  0
ARC
  5
1A1
330
1F
100
AcDbEntity
  8
0
  6
CONTINUOUS
 62
     7
100
AcDbCircle
 10
833.0648002792
 20
909.0932880044
 30
0.0
 40
1.000000991595013
100
AcDbArc
 50
192.6004773877
 51
265.0000509005
  0
ARC
  5
1A2
330
1F
100
AcDbEntity
  8
0
  6
CONTINUOUS
 62
     7
100
AcDbCircle
 10
827.0434050726
 20
907.7472940347
 30
0.0
 40
5.169999008404986
100
AcDbArc
 50
12.6004773877
 51
199.8878356916
  0
ARC
  5
1A3
330
1F
100
AcDbEntity
  8
0
  6
CONTINUOUS
 62
     7
100
AcDbCircle
 10
821.2413847941
 20
905.6483851352
 30
0.0
 40
0.9999985700006107
100
AcDbArc
 50
355.0
 51
19.8878356916
  0
LINE
  5
1A4
330
1F
100
AcDbEntity
  8
0
  6
CONTINUOUS
 62
     7
100
AcDbLine
 10
821.2426519226
 20
894.189210099
 30
0.0
 11
822.2375726532
 21
905.5612398804
 31
0.0
  0
ARC
  5
1A5
330
1F
100
AcDbEntity
  8
0
  6
CONTINUOUS
 62
     7
100
AcDbCircle
 10
820.2464626534
 20
894.2763730305
 30
0.0
 40
1.000000000000053
100
AcDbArc
 50
330.1121199588
 51
355.0
  0
ARC
  5
1A6
330
1F
100
AcDbEntity
  8
0
  6
CONTINUOUS
 62
     7
100
AcDbCircle
 10
825.5958660808
 20
891.2018351837
 30
0.0
 40
5.169999999999948
100
AcDbArc
 50
150.1121199588
 51
178.9447467872
  0
LINE
  5
1A7
330
1F
100
AcDbEntity
  8
0
  6
CONTINUOUS
 62
     7
100
AcDbLine
 10
820.4267239402
 20
891.2970735252
 30
0.0
 11
529.9012875389
 21
916.714759034
 31
0.0
  0
ARC
  5
1A8
330
1F
100
AcDbEntity
  8
0
  6
CONTINUOUS
 62
     7
100
AcDbCircle
 10
524.7941583807
 20
917.5185803675
 30
0.0
 40
5.170000000000009
100
AcDbArc
 50
351.0551891295
 51
19.8879040116
  0
ARC
  5
1A9
330
1F
100
AcDbEntity
  8
0
  6
CONTINUOUS
 62
     7
100
AcDbCircle
 10
530.5961793662
 20
919.6174973465
 30
0.0
 40
0.999999999999923
100
AcDbArc
 50
175.0
 51
199.8879040116
  0
LINE
  5
1AA
330
1F
100
AcDbEntity
  8
0
  6
CONTINUOUS
 62
     7
100
AcDbLine
 10
530.5949067901
 20
931.0766770065
 30
0.0
 11
529.5999860595
 21
919.7046472252
 31
0.0
  0
ARC
  5
1AB
330
1F
100
AcDbEntity
  8
0
  6
CONTINUOUS
 62
     7
100
AcDbCircle
 10
531.5911367069
 20
930.989490089
 30
0.0
 40
1.000036753616296
100
AcDbArc
 50
150.1121952728
 51
175.0
  0
ARC
  5
1AC
330
1F
100
AcDbEntity
  8
0
  6
CONTINUOUS
 62
     7
100
AcDbCircle
 10
526.2416973726
 20
934.0640392185
 30
0.0
 40
5.17000000000002
100
AcDbArc
 50
330.1121952728
 51
157.399543816
  0
ARC
  5
1AD
330
1F
100
AcDbEntity
  8
0
  6
CONTINUOUS
 62
     7
100
AcDbCircle
 10
520.5455092117
 20
936.4351867119
 30
0.0
 40
1.000000000000101
100
AcDbArc
 50
265.0000509005
 51
337.399543816
  0
LINE
  5
1AE
330
1F
100
AcDbEntity
  8
0
  6
CONTINUOUS
 62
     7
100
AcDbLine
 10
516.4301013778
 20
935.7914044083
 30
0.0
 11
520.4583620857
 21
935.4389621437
 31
0.0
  0
ARC
  5
1AF
330
1F
100
AcDbEntity
  8
0
  6
CONTINUOUS
 62
     7
100
AcDbCircle
 10
516.5172594366
 20
936.7876092951
 30
0.0
 40
1.000000991595037
100
AcDbArc
 50
192.6004773877
 51
265.0000509005
  0
ARC
  5
1B0
330
1F
100
AcDbEntity
  8
0
  6
CONTINUOUS
 62
     7
100
AcDbCircle
 10
510.4958642301
 20
935.4416153254
 30
0.0
 40
5.169999008405097
100
AcDbArc
 50
12.6004773877
 51
199.8878356916
  0
ARC
  5
1B1
330
1F
100
AcDbEntity
  8
0
  6
CONTINUOUS
 62
     7
100
AcDbCircle
 10
504.6938439515
 20
933.342706426
 30
0.0
 40
0.9999985700006493
100
AcDbArc
 50
355.0
 51
19.8878356916
  0
LINE
  5
1B2
330
1F
100
AcDbEntity
  8
0
  6
CONTINUOUS
 62
     7
100
AcDbLine
 10
504.6951389145
 20
921.8835546196
 30
0.0
 11
505.6900596451
 21
933.2555247963
 31
0.0
  0
ARC
  5
1B3
330
1F
100
AcDbEntity
  8
0
  6
CONTINUOUS
 62
     7
100
AcDbCircle
 10
503.6989218108
 20
921.9706943212
 30
0.0
 40
1.000000000000123
100
AcDbArc
 50
330.1121199588
 51
355.0
  0
ARC
  5
1B4
330
1F
100
AcDbEntity
  8
0
  6
CONTINUOUS
 62
     7
100
AcDbCircle
 10
509.0483252382
 20
918.8961564745
 30
0.0
 40
5.17000000000006
100
AcDbArc
 50
150.1121199588
 51
178.9447467872
  0
LINE
  5
1B5
330
1F
100
AcDbEntity
  8
0
  6
CONTINUOUS
 62
     7
100
AcDbLine
 10
503.8792109321
 20
918.9913584411
 30
0.0
 11
465.4282843898
 21
922.3553849876
 31
0.0
  0
LINE
  5
1B6
330
1F
100
AcDbEntity
  8
0
  6
CONTINUOUS
 62
     7
100
AcDbLine
 10
465.4282843898
 20
948.5922767341
 30
0.0
 11
465.4282843898
 21
922.3553849876
 31
0.0
  0
ARC
  5
1B7
330
1F
100
AcDbEntity
  8
0
  6
CONTINUOUS
 62
     7
100
AcDbCircle
 10
471.4282800697
 20
948.5922949706
 30
0.0
 40
6.000000000000045
100
AcDbArc
 50
85.0
 51
180.0
  0
LINE
  5
1B8
330
1F
100
AcDbEntity
  8
0
  6
CONTINUOUS
 62
     7
100
AcDbLine
 10
867.9512357544
 20
919.9239327133
 30
0.0
 11
471.9512080978
 21
954.5694901169
 31
0.0
  0
ARC
  5
1B9
330
1F
100
AcDbEntity
  8
0
  6
CONTINUOUS
 62
     7
100
AcDbCircle
 10
867.4282800697
 20
913.9467842143
 30
0.0
 40
6.0
100
AcDbArc
 50
360.0
 51
85.0
  0
LINE
  5
1BA
330
1F
100
AcDbEntity
  8
0
  6
CONTINUOUS
 62
     7
100
AcDbLine
 10
873.4283065628
 20
886.6600109756
 30
0.0
 11
873.4283065628
 21
913.9467789352
 31
0.0
  0
LINE
  5
1BB
330
1F
100
AcDbEntity
  8
0
  6
CONTINUOUS
 62
     7
100
AcDbLine
 10
873.4283065628
 20
886.6600109756
 30
0.0
 11
846.448800547
 21
889.0204145134
 31
0.0
  0
ARC
  5
1BC
330
1F
100
AcDbEntity
  8
0
  6
CONTINUOUS
 62
     7
100
AcDbCircle
 10
509.0483246588
 20
67.7524417405
 30
0.0
 40
5.169999008404933
100
AcDbArc
 50
181.0551883717
 51
209.8878356916
  0
ARC
  5
1BD
330
1F
100
AcDbEntity
  8
0
  6
CONTINUOUS
 62
     7
100
AcDbCircle
 10
503.6989218108
 20
64.6779097353
 30
0.0
 40
0.999998570000618
100
AcDbArc
 50
5.0
 51
29.8878356916
  0
LINE
  5
1BE
330
1F
100
AcDbEntity
  8
0
  6
CONTINUOUS
 62
     7
100
AcDbLine
 10
505.6900596451
 20
53.3930523813
 30
0.0
 11
504.6951389145
 21
64.7650635362
 31
0.0
  0
ARC
  5
1BF
330
1F
100
AcDbEntity
  8
0
  6
CONTINUOUS
 62
     7
100
AcDbCircle
 10
504.6938439515
 20
53.3058976305
 30
0.0
 40
1.000000000000122
100
AcDbArc
 50
340.1121199588
 51
5.0
  0
ARC
  5
1C0
330
1F
100
AcDbEntity
  8
0
  6
CONTINUOUS
 62
     7
100
AcDbCircle
 10
510.495865815
 20
51.2069830789
 30
0.0
 40
5.170000000000068
100
AcDbArc
 50
160.1121199588
 51
347.399543816
  0
ARC
  5
1C1
330
1F
100
AcDbEntity
  8
0
  6
CONTINUOUS
 62
     7
100
AcDbCircle
 10
516.5172615197
 20
49.8609913376
 30
0.0
 40
0.9999999999999913
100
AcDbArc
 50
95.0000509005
 51
167.399543816
  0
LINE
  5
1C2
330
1F
100
AcDbEntity
  8
0
  6
CONTINUOUS
 62
     7
100
AcDbLine
 10
520.4583620857
 20
51.2096150339
 30
0.0
 11
516.4301013778
 21
50.8571876705
 31
0.0
  0
ARC
  5
1C3
330
1F
100
AcDbEntity
  8
0
  6
CONTINUOUS
 62
     7
100
AcDbCircle
 10
520.5455106686
 20
50.213421078
 30
0.0
 40
0.9999999999999942
100
AcDbArc
 50
22.6004773877
 51
95.0000509005
  0
ARC
  5
1C4
330
1F
100
AcDbEntity
  8
0
  6
CONTINUOUS
 62
     7
100
AcDbCircle
 10
526.241697952
 20
52.5845706795
 30
0.0
 40
5.17000000000003
100
AcDbArc
 50
202.6004773877
 51
29.8879040116
  0
ARC
  5
1C5
330
1F
100
AcDbEntity
  8
0
  6
CONTINUOUS
 62
     7
100
AcDbCircle
 10
531.5911000931
 20
55.6591107642
 30
0.0
 40
1.000000000000066
100
AcDbArc
 50
185.0
 51
209.8879040116
  0
LINE
  5
1C6
330
1F
100
AcDbEntity
  8
0
  6
CONTINUOUS
 62
     7
100
AcDbLine
 10
529.5999860595
 20
66.9439523042
 30
0.0
 11
530.5949067901
 21
55.5719560504
 31
0.0
  0
ARC
  5
1C7
330
1F
100
AcDbEntity
  8
0
  6
CONTINUOUS
 62
     7
100
AcDbCircle
 10
530.5962159799
 20
67.0311099133
 30
0.0
 40
1.000036753616189
100
AcDbArc
 50
160.1121952728
 51
185.0
  0
ARC
  5
1C8
330
1F
100
AcDbEntity
  8
0
  6
CONTINUOUS
 62
     7
100
AcDbCircle
 10
524.7941567958
 20
69.1300293411
 30
0.0
 40
5.170000000000006
100
AcDbArc
 50
340.1121952728
 51
8.9447467872
  0
LINE
  5
1C9
330
1F
100
AcDbEntity
  8
0
  6
CONTINUOUS
 62
     7
100
AcDbLine
 10
529.9012875389
 20
69.9338702977
 30
0.0
 11
820.4267239402
 21
95.3515558064
 31
0.0
  0
ARC
  5
1CA
330
1F
100
AcDbEntity
  8
0
  6
CONTINUOUS
 62
     7
100
AcDbCircle
 10
825.5958655014
 20
95.4467630313
 30
0.0
 40
5.169999008404988
100
AcDbArc
 50
181.0551883717
 51
209.8878356916
  0
ARC
  5
1CB
330
1F
100
AcDbEntity
  8
0
  6
CONTINUOUS
 62
     7
100
AcDbCircle
 10
820.2464626534
 20
92.372231026
 30
0.0
 40
0.9999985700005664
100
AcDbArc
 50
5.0
 51
29.8878356916
  0
LINE
  5
1CC
330
1F
100
AcDbEntity
  8
0
  6
CONTINUOUS
 62
     7
100
AcDbLine
 10
822.2375726532
 20
81.0873745501
 30
0.0
 11
821.2426519226
 21
92.4593894303
 31
0.0
  0
ARC
  5
1CD
330
1F
100
AcDbEntity
  8
0
  6
CONTINUOUS
 62
     7
100
AcDbCircle
 10
821.2413847941
 20
81.0002189213
 30
0.0
 40
1.00000000000007
100
AcDbArc
 50
340.1121199588
 51
5.0
  0
ARC
  5
1CE
330
1F
100
AcDbEntity
  8
0
  6
CONTINUOUS
 62
     7
100
AcDbCircle
 10
827.0434066576
 20
78.9013043697
 30
0.0
 40
5.169999999999989
100
AcDbArc
 50
160.1121199588
 51
347.399543816
  0
ARC
  5
1CF
330
1F
100
AcDbEntity
  8
0
  6
CONTINUOUS
 62
     7
100
AcDbCircle
 10
833.0648023623
 20
77.5553126284
 30
0.0
 40
1.000000000000078
100
AcDbArc
 50
95.0000509005
 51
167.399543816
  0
LINE
  5
1D0
330
1F
100
AcDbEntity
  8
0
  6
CONTINUOUS
 62
     7
100
AcDbLine
 10
837.0058750938
 20
78.9039372027
 30
0.0
 11
832.9776739906
 21
78.5515098393
 31
0.0
  0
ARC
  5
1D1
330
1F
100
AcDbEntity
  8
0
  6
CONTINUOUS
 62
     7
100
AcDbCircle
 10
837.0930515112
 20
77.9077423688
 30
0.0
 40
1.000000000000124
100
AcDbArc
 50
22.6004773877
 51
95.0000509005
  0
ARC
  5
1D2
330
1F
100
AcDbEntity
  8
0
  6
CONTINUOUS
 62
     7
100
AcDbCircle
 10
842.7892387946
 20
80.2788919702
 30
0.0
 40
5.170000000000116
100
AcDbArc
 50
202.6004773877
 51
29.8879040116
  0
ARC
  5
1D3
330
1F
100
AcDbEntity
  8
0
  6
CONTINUOUS
 62
     7
100
AcDbCircle
 10
848.1386409357
 20
83.3534320549
 30
0.0
 40
0.9999999999999521
100
AcDbArc
 50
185.0
 51
209.8879040116
  0
LINE
  5
1D4
330
1F
100
AcDbEntity
  8
0
  6
CONTINUOUS
 62
     7
100
AcDbLine
 10
846.1474990677
 20
94.638274473
 30
0.0
 11
847.1424197982
 21
83.266274494
 31
0.0
  0
ARC
  5
1D5
330
1F
100
AcDbEntity
  8
0
  6
CONTINUOUS
 62
     7
100
AcDbCircle
 10
847.1437568225
 20
94.725431204
 30
0.0
 40
1.000036753616202
100
AcDbArc
 50
160.1121952728
 51
185.0
  0
ARC
  5
1D6
330
1F
100
AcDbEntity
  8
0
  6
CONTINUOUS
 62
     7
100
AcDbCircle
 10
841.3416976384
 20
96.8243506318
 30
0.0
 40
5.169999999999959
100
AcDbArc
 50
340.1121952728
 51
8.9447467872
  0
LINE
  5
1D7
330
1F
100
AcDbEntity
  8
0
  6
CONTINUOUS
 62
     7
100
AcDbLine
 10
846.448800547
 20
97.6281924665
 30
0.0
 11
873.4283065628
 21
99.9885885537
 31
0.0
  0
LINE
  5
1D8
330
1F
100
AcDbEntity
  8
0
  6
CONTINUOUS
 62
     7
100
AcDbLine
 10
873.4283065628
 20
72.7018205941
 30
0.0
 11
873.4283065628
 21
99.9885885537
 31
0.0
  0
ARC
  5
1D9
330
1F
100
AcDbEntity
  8
0
  6
CONTINUOUS
 62
     7
100
AcDbCircle
 10
867.4282800697
 20
72.7018198421
 30
0.0
 40
6.000000000000018
100
AcDbArc
 50
275.0
 51
0.0
  0
LINE
  5
1DA
330
1F
100
AcDbEntity
  8
0
  6
CONTINUOUS
 62
     7
100
AcDbLine
 10
471.9512080978
 20
32.0791410774
 30
0.0
 11
867.9512357544
 21
66.7246519149
 31
0.0
  0
ARC
  5
1DB
330
1F
100
AcDbEntity
  8
0
  6
CONTINUOUS
 62
     7
100
AcDbCircle
 10
471.4282800697
 20
38.0563090859
 30
0.0
 40
6.000000000000073
100
AcDbArc
 50
180.0
 51
275.0
  0
LINE
  5
1DC
330
1F
100
AcDbEntity
  8
0
  6
CONTINUOUS
 62
     7
100
AcDbLine
 10
465.4282843898
 20
64.2932145417
 30
0.0
 11
465.4282843898
 21
38.056307894
 31
0.0
  0
LINE
  5
1DD
330
1F
100
AcDbEntity
  8
0
  6
CONTINUOUS
 62
     7
100
AcDbLine
 10
465.4282843898
 20
64.2932145417
 30
0.0
 11
503.8792109321
 21
67.6572336376
 31
0.0
  0
LINE
  5
1DE
330
1F
100
AcDbEntity
  8
0
  6
CONTINUOUS
 62
     7
100
AcDbLine
 10
868.4701537918
 20
838.5705067337
 30
0.0
 11
858.3864188026
 21
836.79250018
 31
0.0
  0
ARC
  5
1DF
330
1F
100
AcDbEntity
  8
0
  6
CONTINUOUS
 62
     7
100
AcDbCircle
 10
859.4282800697
 20
830.8836338572
 30
0.0
 40
6.0
100
AcDbArc
 50
100.0
 51
180.0
  0
LINE
  5
1E0
330
1F
100
AcDbEntity
  8
0
  6
CONTINUOUS
 62
     7
100
AcDbLine
 10
853.4282660316
 20
830.8836533249
 30
0.0
 11
853.4282660316
 21
155.7649685562
 31
0.0
  0
ARC
  5
1E1
330
1F
100
AcDbEntity
  8
0
  6
CONTINUOUS
 62
     7
100
AcDbCircle
 10
859.4282800697
 20
155.7649701993
 30
0.0
 40
6.000000000000006
100
AcDbArc
 50
180.0
 51
260.0
  0
LINE
  5
1E2
330
1F
100
AcDbEntity
  8
0
  6
CONTINUOUS
 62
     7
100
AcDbLine
 10
858.3864188026
 20
149.856121701
 30
0.0
 11
868.4701537918
 21
148.0780853451
 31
0.0
  0
ARC
  5
1E3
330
1F
100
AcDbEntity
  8
0
  6
CONTINUOUS
 62
     7
100
AcDbCircle
 10
867.4282800697
 20
142.169235011
 30
0.0
 40
6.0
100
AcDbArc
 50
0.0
 51
80.0
  0
LINE
  5
1E4
330
1F
100
AcDbEntity
  8
0
  6
CONTINUOUS
 62
     7
100
AcDbLine
 10
873.4283065628
 20
118.7399415791
 30
0.0
 11
873.4283065628
 21
142.1692384899
 31
0.0
  0
LINE
  5
1E5
330
1F
100
AcDbEntity
  8
0
  6
CONTINUOUS
 62
     7
100
AcDbLine
 10
873.4283065628
 20
118.7399415791
 30
0.0
 11
833.4282851051
 21
115.2403964222
 31
0.0
  0
LINE
  5
1E6
330
1F
100
AcDbEntity
  8
0
  6
CONTINUOUS
 62
     7
100
AcDbLine
 10
833.4282851051
 20
115.2403964222
 30
0.0
 11
833.4282851051
 21
871.4081956566
 31
0.0
  0
ARC
  5
1E7
330
1F
100
AcDbEntity
  8
0
  6
CONTINUOUS
 62
     7
100
AcDbCircle
 10
867.4282800697
 20
844.4793690455
 30
0.0
 40
6.0
100
AcDbArc
 50
280.0
 51
360.0
  0
LINE
  5
1E8
330
1F
100
AcDbEntity
  8
0
  6
CONTINUOUS
 62
     7
100
AcDbLine
 10
873.4283065628
 20
844.4793535889
 30
0.0
 11
873.4283065628
 21
867.9086877525
 31
0.0
  0
LINE
  5
1E9
330
1F
100
AcDbEntity
  8
0
  6
CONTINUOUS
 62
     7
100
AcDbLine
 10
833.4282851051
 20
871.4081956566
 30
0.0
 11
873.4283065628
 21
867.9086877525
 31
0.0
  0
LINE
  5
1EA
330
1F
100
AcDbEntity
  8
0
  6
CONTINUOUS
 62
     7
100
AcDbLine
 10
465.4282843898
 20
903.6040617645
 30
0.0
 11
465.4282843898
 21
83.0445675671
 31
0.0
  0
LINE
  5
1EB
330
1F
100
AcDbEntity
  8
0
  6
CONTINUOUS
 62
     7
100
AcDbLine
 10
815.0882935356
 20
873.0127526939
 30
0.0
 11
815.0882935356
 21
113.635854286
 31
0.0
  0
LINE
  5
1EC
330
1F
100
AcDbEntity
  8
0
  6
CONTINUOUS
 62
     7
100
AcDbLine
 10
815.0882935356
 20
113.635854286
 30
0.0
 11
465.4282843898
 21
83.0445675671
 31
0.0
  0
LINE
  5
1ED
330
1F
100
AcDbEntity
  8
0
  6
CONTINUOUS
 62
     7
100
AcDbLine
 10
465.4282843898
 20
903.6040617645
 30
0.0
 11
815.0882935356
 21
873.0127526939
 31
0.0
  0
ARC
  5
1EE
330
1F
100
AcDbEntity
  8
0
  6
CONTINUOUS
 62
     7
100
AcDbCircle
 10
835.3203019337
 20
98.1703423731
 30
0.0
 40
0.9999999999999744
100
AcDbArc
 50
275.0000509005
 51
347.399543816
  0
LINE
  5
1EF
330
1F
100
AcDbEntity
  8
0
  6
CONTINUOUS
 62
     7
100
AcDbLine
 10
835.4074573349
 20
97.1741466344
 30
0.0
 11
831.379196627
 21
96.821719271
 31
0.0
  0
ARC
  5
1F0
330
1F
100
AcDbEntity
  8
0
  6
CONTINUOUS
 62
     7
100
AcDbCircle
 10
831.2920527848
 20
97.8179126327
 30
0.0
 40
0.9999999999999843
100
AcDbArc
 50
202.6004773877
 51
275.0000509005
  0
ARC
  5
1F1
330
1F
100
AcDbEntity
  8
0
  6
CONTINUOUS
 62
     7
100
AcDbCircle
 10
518.7727610911
 20
70.4760210824
 30
0.0
 40
1.000000000000078
100
AcDbArc
 50
275.0000509005
 51
347.399543816
  0
LINE
  5
1F2
330
1F
100
AcDbEntity
  8
0
  6
CONTINUOUS
 62
     7
100
AcDbLine
 10
518.8599443268
 20
69.4798244655
 30
0.0
 11
514.8316836189
 21
69.1273971022
 31
0.0
  0
ARC
  5
1F3
330
1F
100
AcDbEntity
  8
0
  6
CONTINUOUS
 62
     7
100
AcDbCircle
 10
514.7445119422
 20
70.123591342
 30
0.0
 40
1.000000000000041
100
AcDbArc
 50
202.6004773877
 51
275.0000509005
  0
ARC
  5
1F4
330
1F
100
AcDbEntity
  8
0
  6
CONTINUOUS
 62
     7
100
AcDbCircle
 10
514.7445133991
 20
916.525008981
 30
0.0
 40
1.000000000000058
100
AcDbArc
 50
85.0000509005
 51
157.399543816
  0
LINE
  5
1F5
330
1F
100
AcDbEntity
  8
0
  6
CONTINUOUS
 62
     7
100
AcDbLine
 10
514.8316836189
 20
917.5212098778
 30
0.0
 11
518.8599443268
 21
917.1687676132
 31
0.0
  0
ARC
  5
1F6
330
1F
100
AcDbEntity
  8
0
  6
CONTINUOUS
 62
     7
100
AcDbCircle
 10
518.7727631742
 20
916.1725863979
 30
0.0
 40
1.000000000000125
100
AcDbArc
 50
12.6004773877
 51
85.0000509005
  0
ARC
  5
1F7
330
1F
100
AcDbEntity
  8
0
  6
CONTINUOUS
 62
     7
100
AcDbCircle
 10
831.2920542417
 20
888.8306876903
 30
0.0
 40
1.000000000000022
100
AcDbArc
 50
85.0000509005
 51
157.399543816
  0
LINE
  5
1F8
330
1F
100
AcDbEntity
  8
0
  6
CONTINUOUS
 62
     7
100
AcDbLine
 10
831.379196627
 20
889.8268653572
 30
0.0
 11
835.4074573349
 21
889.4744826973
 31
0.0
  0
ARC
  5
1F9
330
1F
100
AcDbEntity
  8
0
  6
CONTINUOUS
 62
     7
100
AcDbCircle
 10
835.3203040168
 20
888.4782651072
 30
0.0
 40
1.000000000000125
100
AcDbArc
 50
12.6004773877
 51
85.0000509005
  0
LINE
  5
1FA
330
1F
100
AcDbEntity
  8
0
  6
CONTINUOUS
 62
     7
100
AcDbLine
 10
465.4282843898
 20
903.6040617645
 30
0.0
 11
465.4282843898
 21
922.3553849876
 31
0.0
  0
LINE
  5
1FB
330
1F
100
AcDbEntity
  8
0
  6
CONTINUOUS
 62
     7
100
AcDbLine
 10
465.4282843898
 20
64.2932145417
 30
0.0
 11
465.4282843898
 21
83.0445675671
 31
0.0
  0
ARC
  5
1FC
330
1F
100
AcDbEntity
  8
0
  6
CONTINUOUS
 62
     7
100
AcDbCircle
 10
825.5958660808
 20
891.2018351837
 30
0.0
 40
5.170000000000064
100
AcDbArc
 50
178.9447467872
 51
337.399543816
  0
ARC
  5
1FD
330
1F
100
AcDbEntity
  8
0
  6
CONTINUOUS
 62
     7
100
AcDbCircle
 10
825.5958655014
 20
95.4467630313
 30
0.0
 40
5.170000000000027
100
AcDbArc
 50
22.6004773877
 51
181.0551883717
  0
ARC
  5
1FE
330
1F
100
AcDbEntity
  8
0
  6
CONTINUOUS
 62
     7
100
AcDbCircle
 10
841.3416976384
 20
96.8243506318
 30
0.0
 40
5.169999999999989
100
AcDbArc
 50
8.9447467872
 51
167.399543816
  0
ARC
  5
1FF
330
1F
100
AcDbEntity
  8
0
  6
CONTINUOUS
 62
     7
100
AcDbCircle
 10
841.3416992233
 20
889.8242590768
 30
0.0
 40
5.170000000000044
100
AcDbArc
 50
192.6004773877
 51
351.0551891295
  0
LINE
  5
200
330
1F
100
AcDbEntity
  8
0
  6
CONTINUOUS
 62
     7
100
AcDbLine
 10
873.4283065628
 20
118.7399415791
 30
0.0
 11
873.4283065628
 21
99.9885885537
 31
0.0
  0
LINE
  5
201
330
1F
100
AcDbEntity
  8
0
  6
CONTINUOUS
 62
     7
100
AcDbLine
 10
873.4283065628
 20
886.6600109756
 30
0.0
 11
873.4283065628
 21
867.9086877525
 31
0.0
  0
ARC
  5
202
330
1F
100
AcDbEntity
  8
0
  6
CONTINUOUS
 62
     7
100
AcDbCircle
 10
524.7941583807
 20
917.5185803675
 30
0.0
 40
5.169999999999985
100
AcDbArc
 50
192.6004773877
 51
351.0551891295
  0
ARC
  5
203
330
1F
100
AcDbEntity
  8
0
  6
CONTINUOUS
 62
     7
100
AcDbCircle
 10
524.7941567958
 20
69.1300293411
 30
0.0
 40
5.169999999999989
100
AcDbArc
 50
8.9447467872
 51
167.399543816
  0
ARC
  5
204
330
1F
100
AcDbEntity
  8
0
  6
CONTINUOUS
 62
     7
100
AcDbCircle
 10
509.0483246588
 20
67.7524417405
 30
0.0
 40
5.17000000000008
100
AcDbArc
 50
22.6004773877
 51
181.0551883717
  0
ARC
  5
205
330
1F
100
AcDbEntity
  8
0
  6
CONTINUOUS
 62
     7
100
AcDbCircle
 10
509.0483252382
 20
918.8961564745
 30
0.0
 40
5.169999999999993
100
AcDbArc
 50
178.9447467872
 51
337.399543816
  0
LINE
  5
206
330
1F
100
AcDbEntity
  8
0
  6
CONTINUOUS
 62
     7
100
AcDbLine
 10
1204.3882822822
 20
469.5349647224
 30
0.0
 11
1472.3882889579
 21
469.5349647224
 31
0.0
  0
LINE
  5
207
330
1F
100
AcDbEntity
  8
0
  6
CONTINUOUS
 62
     7
100
AcDbLine
 10
1204.3882822822
 20
508.1129385651
 30
0.0
 11
1204.3882822822
 21
469.5349647224
 31
0.0
  0
LINE
  5
208
330
1F
100
AcDbEntity
  8
0
  6
CONTINUOUS
 62
     7
100
AcDbLine
 10
1204.3882822822
 20
508.1129385651
 30
0.0
 11
1472.3882889579
 21
508.1129385651
 31
0.0
  0
LINE
  5
209
330
1F
100
AcDbEntity
  8
0
  6
CONTINUOUS
 62
     7
100
AcDbLine
 10
1472.3882889579
 20
469.5349647224
 30
0.0
 11
1472.3882889579
 21
508.1129385651
 31
0.0
  0
LINE
  5
20A
330
1F
100
AcDbEntity
  8
0
  6
CONTINUOUS
 62
     7
100
AcDbLine
 10
1472.3882889579
 20
877.518685025
 30
0.0
 11
1204.3882822822
 21
877.518685025
 31
0.0
  0
LINE
  5
20B
330
1F
100
AcDbEntity
  8
0
  6
CONTINUOUS
 62
     7
100
AcDbLine
 10
1472.3882889579
 20
526.3517214477
 30
0.0
 11
1204.3882822822
 21
526.3517214477
 31
0.0
  0
LINE
  5
20C
330
1F
100
AcDbEntity
  8
0
  6
CONTINUOUS
 62
     7
100
AcDbLine
 10
1204.3882822822
 20
877.518685025
 30
0.0
 11
1204.3882822822
 21
526.3517214477
 31
0.0
  0
LINE
  5
20D
330
1F
100
AcDbEntity
  8
0
  6
CONTINUOUS
 62
     7
100
AcDbLine
 10
1472.3882889579
 20
526.3517214477
 30
0.0
 11
1472.3882889579
 21
877.518685025
 31
0.0
  0
LINE
  5
20E
330
1F
100
AcDbEntity
  8
0
  6
CONTINUOUS
 62
     7
100
AcDbLine
 10
1204.3882822822
 20
508.1129385651
 30
0.0
 11
1204.3882822822
 21
526.3517214477
 31
0.0
  0
LINE
  5
20F
330
1F
100
AcDbEntity
  8
0
  6
CONTINUOUS
 62
     7
100
AcDbLine
 10
1472.3882889579
 20
526.3517214477
 30
0.0
 11
1472.3882889579
 21
508.1129385651
 31
0.0
  0
LINE
  5
210
330
1F
100
AcDbEntity
  8
POCKETS
100
AcDbLine
 10
1482.3882800697
 20
86.8880169067
 30
0.0
 11
1194.3882800697
 21
86.8880169067
 31
0.0
  0
LINE
  5
211
330
1F
100
AcDbEntity
  8
POCKETS
100
AcDbLine
 10
1194.3882800697
 20
86.8880169067
 30
0.0
 11
1194.3882800697
 21
68.6492598309
 31
0.0
  0
LINE
  5
212
330
1F
100
AcDbEntity
  8
POCKETS
100
AcDbLine
 10
1194.3882800697
 20
68.6492598309
 30
0.0
 11
1482.3882800697
 21
68.6492598309
 31
0.0
  0
LINE
  5
213
330
1F
100
AcDbEntity
  8
PROFILES_OUTSIDE
100
AcDbLine
 10
433.9482800697
 20
844.4793690455
 30
0.0
 11
433.9482800697
 21
919.4447712585
 31
0.0
  0
LINE
  5
214
330
1F
100
AcDbEntity
  8
PROFILES_OUTSIDE
100
AcDbLine
 10
433.9482800697
 20
919.4447712585
 30
0.0
 11
25.9482800697
 21
955.140145977
 31
0.0
  0
LINE
  5
215
330
1F
100
AcDbEntity
  8
PROFILES_OUTSIDE
100
AcDbLine
 10
25.9482800697
 20
955.140145977
 30
0.0
 11
25.9482800697
 21
31.5084580795
 31
0.0
  0
LINE
  5
216
330
1F
100
AcDbEntity
  8
PROFILES_OUTSIDE
100
AcDbLine
 10
25.9482800697
 20
31.5084580795
 30
0.0
 11
433.9482800697
 21
67.203832798
 31
0.0
  0
LINE
  5
217
330
1F
100
AcDbEntity
  8
POCKETS
100
AcDbLine
 10
1482.3882800697
 20
68.6492598309
 30
0.0
 11
1482.3882800697
 21
86.8880169067
 31
0.0
  0
LINE
  5
218
330
1F
100
AcDbEntity
  8
PROFILES_OUTSIDE
100
AcDbLine
 10
433.9482800697
 20
67.203832798
 30
0.0
 11
433.9482800697
 21
142.169235011
 31
0.0
  0
LINE
  5
219
330
1F
100
AcDbEntity
  8
PROFILES_OUTSIDE
100
AcDbLine
 10
428.9901691357
 20
148.078081529
 30
0.0
 11
418.9063910037
 21
149.8561236812
 31
0.0
  0
LINE
  5
21A
330
1F
100
AcDbEntity
  8
PROFILES_OUTSIDE
100
AcDbLine
 10
413.9482800697
 20
155.7649701993
 30
0.0
 11
413.9482800697
 21
830.8836338572
 31
0.0
  0
LINE
  5
21B
330
1F
100
AcDbEntity
  8
PROFILES_OUTSIDE
100
AcDbLine
 10
418.9063910037
 20
836.7924803753
 30
0.0
 11
428.9901691357
 21
838.5705225274
 31
0.0
  0
LINE
  5
21C
330
1F
100
AcDbEntity
  8
PROFILES_INSIDE
100
AcDbLine
 10
406.6675255107
 20
892.0103317985
 30
0.0
 11
407.6624462376
 21
903.3823277443
 31
0.0
  0
LINE
  5
21D
330
1F
100
AcDbEntity
  8
PROFILES_INSIDE
100
AcDbLine
 10
391.8992090995
 20
889.8268824658
 30
0.0
 11
395.9274588745
 21
889.4744598827
 31
0.0
  0
LINE
  5
21E
330
1F
100
AcDbEntity
  8
PROFILES_INSIDE
100
AcDbLine
 10
382.7575780676
 20
905.5612295171
 30
0.0
 11
381.7626573515
 21
894.1892172877
 31
0.0
  0
LINE
  5
21F
330
1F
100
AcDbEntity
  8
PROFILES_INSIDE
100
AcDbLine
 10
397.5258951965
 20
907.7446706457
 30
0.0
 11
393.4976453026
 21
908.0970918706
 31
0.0
  0
LINE
  5
220
330
1F
100
AcDbEntity
  8
PROFILES_OUTSIDE
100
AcDbLine
 10
1172.9082800697
 20
30.0712622726
 30
0.0
 11
1172.9082800697
 21
808.0712622726
 31
0.0
  0
LINE
  5
221
330
1F
100
AcDbEntity
  8
PROFILES_OUTSIDE
100
AcDbLine
 10
1172.9082800697
 20
808.0712622726
 30
0.0
 11
904.9082800697
 21
808.0712622726
 31
0.0
  0
LINE
  5
222
330
1F
100
AcDbEntity
  8
PROFILES_OUTSIDE
100
AcDbLine
 10
904.9082800697
 20
808.0712622726
 30
0.0
 11
904.9082800697
 21
30.0712622726
 31
0.0
  0
LINE
  5
223
330
1F
100
AcDbEntity
  8
PROFILES_OUTSIDE
100
AcDbLine
 10
904.9082800697
 20
30.0712622726
 30
0.0
 11
1172.9082800697
 21
30.0712622726
 31
0.0
  0
LINE
  5
224
330
1F
100
AcDbEntity
  8
PROFILES_OUTSIDE
100
AcDbLine
 10
1472.3882800697
 20
438.0549600469
 30
0.0
 11
1204.3882800697
 21
438.0549600469
 31
0.0
  0
LINE
  5
225
330
1F
100
AcDbEntity
  8
PROFILES_OUTSIDE
100
AcDbLine
 10
1204.3882800697
 20
438.0549600469
 30
0.0
 11
1204.3882800697
 21
30.0712622726
 31
0.0
  0
LINE
  5
226
330
1F
100
AcDbEntity
  8
PROFILES_OUTSIDE
100
AcDbLine
 10
1204.3882800697
 20
30.0712622726
 30
0.0
 11
1472.3882800697
 21
30.0712622726
 31
0.0
  0
LINE
  5
227
330
1F
100
AcDbEntity
  8
PROFILES_OUTSIDE
100
AcDbLine
 10
1472.3882800697
 20
30.0712622726
 30
0.0
 11
1472.3882800697
 21
438.0549600469
 31
0.0
  0
LINE
  5
228
330
1F
100
AcDbEntity
  8
PROFILES_OUTSIDE
100
AcDbLine
 10
1204.3882800697
 20
877.5186578211
 30
0.0
 11
1204.3882800697
 21
469.5349600469
 31
0.0
  0
LINE
  5
229
330
1F
100
AcDbEntity
  8
PROFILES_OUTSIDE
100
AcDbLine
 10
1204.3882800697
 20
469.5349600469
 30
0.0
 11
1472.3882800697
 21
469.5349600469
 31
0.0
  0
LINE
  5
22A
330
1F
100
AcDbEntity
  8
BOX_STOCK
100
AcDbLine
 10
0.2082800697
 20
4.3312622726
 30
0.0
 11
2440.2082800697
 21
4.3312622726
 31
0.0
  0
LINE
  5
22B
330
1F
100
AcDbEntity
  8
BOX_STOCK
100
AcDbLine
 10
2440.2082800697
 20
4.3312622726
 30
0.0
 11
2440.2082800697
 21
1224.3312622726
 31
0.0
  0
LINE
  5
22C
330
1F
100
AcDbEntity
  8
BOX_STOCK
100
AcDbLine
 10
2440.2082800697
 20
1224.3312622726
 30
0.0
 11
0.2082800697
 21
1224.3312622726
 31
0.0
  0
LINE
  5
22D
330
1F
100
AcDbEntity
  8
BOX_STOCK
100
AcDbLine
 10
0.2082800697
 20
1224.3312622726
 30
0.0
 11
0.2082800697
 21
4.3312622726
 31
0.0
  0
LINE
  5
22E
330
1F
100
AcDbEntity
  8
POCKETS
100
AcDbLine
 10
1482.3882800697
 20
526.3517146809
 30
0.0
 11
1194.3882800697
 21
526.3517146809
 31
0.0
  0
LINE
  5
22F
330
1F
100
AcDbEntity
  8
PROFILES_OUTSIDE
100
AcDbLine
 10
1472.3882800697
 20
469.5349600469
 30
0.0
 11
1472.3882800697
 21
877.5186578211
 31
0.0
  0
LINE
  5
230
330
1F
100
AcDbEntity
  8
POCKETS
100
AcDbLine
 10
1194.3882800697
 20
526.3517146809
 30
0.0
 11
1194.3882800697
 21
508.1129576051
 31
0.0
  0
LINE
  5
231
330
1F
100
AcDbEntity
  8
POCKETS
100
AcDbLine
 10
1194.3882800697
 20
508.1129576051
 30
0.0
 11
1482.3882800697
 21
508.1129576051
 31
0.0
  0
LINE
  5
232
330
1F
100
AcDbEntity
  8
POCKETS
100
AcDbLine
 10
1482.3882800697
 20
508.1129576051
 30
0.0
 11
1482.3882800697
 21
526.3517146809
 31
0.0
  0
LINE
  5
233
330
1F
100
AcDbEntity
  8
PROFILES_OUTSIDE
100
AcDbLine
 10
1472.3882800697
 20
877.5186578211
 30
0.0
 11
1204.3882800697
 21
877.5186578211
 31
0.0
  0
LINE
  5
234
330
1F
100
AcDbEntity
  8
PROFILES_INSIDE
100
AcDbLine
 10
89.9759349147
 20
919.7172558096
 30
0.0
 11
90.9708556417
 21
931.0892517554
 31
0.0
  0
LINE
  5
235
330
1F
100
AcDbEntity
  8
PROFILES_INSIDE
100
AcDbLine
 10
80.8343046006
 20
935.4515946568
 30
0.0
 11
76.8060547823
 21
935.8040167461
 31
0.0
  0
LINE
  5
236
330
1F
100
AcDbEntity
  8
PROFILES_INSIDE
100
AcDbLine
 10
66.0659873482
 20
933.268153539
 30
0.0
 11
65.0710667556
 21
921.8961412989
 31
0.0
  0
LINE
  5
237
330
1F
100
AcDbEntity
  8
PROFILES_INSIDE
100
AcDbLine
 10
75.2076185035
 20
917.533806477
 30
0.0
 11
79.2358682786
 21
917.1813838938
 31
0.0
  0
LINE
  5
238
330
1F
100
AcDbEntity
  8
PROFILES_INSIDE
100
AcDbLine
 10
407.6624462376
 20
83.2662763122
 30
0.0
 11
406.6675255107
 21
94.638272258
 31
0.0
  0
LINE
  5
239
330
1F
100
AcDbEntity
  8
PROFILES_INSIDE
100
AcDbLine
 10
395.9274585614
 20
97.1741477524
 30
0.0
 11
391.8992094234
 21
96.8217178886
 31
0.0
  0
LINE
  5
23A
330
1F
100
AcDbEntity
  8
PROFILES_INSIDE
100
AcDbLine
 10
381.76265568
 20
92.4593866225
 30
0.0
 11
382.7575794922
 21
81.087374664
 31
0.0
  0
LINE
  5
23B
330
1F
100
AcDbEntity
  8
PROFILES_INSIDE
100
AcDbLine
 10
393.4976457346
 20
78.551507249
 30
0.0
 11
397.5258948834
 21
78.9039369894
 31
0.0
  0
LINE
  5
23C
330
1F
100
AcDbEntity
  8
PROFILES_INSIDE
100
AcDbLine
 10
65.071065331
 20
64.752462633
 30
0.0
 11
66.0659888962
 21
53.3804506529
 31
0.0
  0
LINE
  5
23D
330
1F
100
AcDbEntity
  8
PROFILES_INSIDE
100
AcDbLine
 10
76.8060551386
 20
50.8445832379
 30
0.0
 11
80.8343042875
 21
51.1970129783
 31
0.0
  0
LINE
  5
23E
330
1F
100
AcDbEntity
  8
PROFILES_INSIDE
100
AcDbLine
 10
90.9708556417
 20
55.5593523011
 30
0.0
 11
89.9759349147
 21
66.9313482468
 31
0.0
  0
LINE
  5
23F
330
1F
100
AcDbEntity
  8
PROFILES_INSIDE
100
AcDbLine
 10
79.2358679655
 20
69.4672237413
 30
0.0
 11
75.2076188166
 21
69.1147940009
 31
0.0
  0
LINE
  5
240
330
1F
100
AcDbEntity
  8
PROFILES_OUTSIDE
100
AcDbLine
 10
1510.1282800697
 20
391.724563296
 30
0.0
 11
1504.8682800697
 21
391.724563296
 31
0.0
  0
LINE
  5
241
330
1F
100
AcDbEntity
  8
PROFILES_OUTSIDE
100
AcDbLine
 10
1510.4683677068
 20
386.4106939667
 30
0.0
 11
1510.1282800697
 21
391.724563296
 31
0.0
  0
LINE
  5
242
330
1F
100
AcDbEntity
  8
PROFILES_OUTSIDE
100
AcDbLine
 10
1525.4060016863
 20
385.474563296
 30
0.0
 11
1511.4663259768
 21
385.474563296
 31
0.0
  0
LINE
  5
243
330
1F
100
AcDbEntity
  8
PROFILES_OUTSIDE
100
AcDbLine
 10
1528.8682800697
 20
397.976563296
 30
0.0
 11
1528.8682800697
 21
395.9527449357
 31
0.0
  0
LINE
  5
244
330
1F
100
AcDbEntity
  8
PROFILES_OUTSIDE
100
AcDbLine
 10
1616.8682800697
 20
397.976563296
 30
0.0
 11
1528.8682800697
 21
397.976563296
 31
0.0
  0
LINE
  5
245
330
1F
100
AcDbEntity
  8
PROFILES_OUTSIDE
100
AcDbLine
 10
1628.8682800697
 20
283.3414629549
 30
0.0
 11
1628.8682800697
 21
385.976563296
 31
0.0
  0
LINE
  5
246
330
1F
100
AcDbEntity
  8
PROFILES_OUTSIDE
100
AcDbLine
 10
1666.8682800697
 20
271.3414629549
 30
0.0
 11
1640.8682800697
 21
271.3414629549
 31
0.0
  0
LINE
  5
247
330
1F
100
AcDbEntity
  8
PROFILES_OUTSIDE
100
AcDbLine
 10
1678.8682800697
 20
385.976563296
 30
0.0
 11
1678.8682800697
 21
283.3414629549
 31
0.0
  0
LINE
  5
248
330
1F
100
AcDbEntity
  8
PROFILES_INSIDE
100
AcDbLine
 10
846.1475255107
 20
892.0103317985
 30
0.0
 11
847.1424462376
 21
903.3823277443
 31
0.0
  0
LINE
  5
249
330
1F
100
AcDbEntity
  8
PROFILES_INSIDE
100
AcDbLine
 10
831.3792090995
 20
889.8268824658
 30
0.0
 11
835.4074588745
 21
889.4744598827
 31
0.0
  0
LINE
  5
24A
330
1F
100
AcDbEntity
  8
PROFILES_INSIDE
100
AcDbLine
 10
822.2375780676
 20
905.5612295171
 30
0.0
 11
821.2426573515
 21
894.1892172877
 31
0.0
  0
LINE
  5
24B
330
1F
100
AcDbEntity
  8
PROFILES_INSIDE
100
AcDbLine
 10
837.0058951965
 20
907.7446706457
 30
0.0
 11
832.9776453026
 21
908.0970918706
 31
0.0
  0
LINE
  5
24C
330
1F
100
AcDbEntity
  8
PROFILES_INSIDE
100
AcDbLine
 10
529.5999846681
 20
919.7046530892
 30
0.0
 11
530.594905395
 21
931.076649035
 31
0.0
  0
LINE
  5
24D
330
1F
100
AcDbEntity
  8
PROFILES_INSIDE
100
AcDbLine
 10
520.4583543539
 20
935.4389919364
 30
0.0
 11
516.4301045357
 21
935.7914140257
 31
0.0
  0
LINE
  5
24E
330
1F
100
AcDbEntity
  8
PROFILES_INSIDE
100
AcDbLine
 10
505.6900371015
 20
933.2555508186
 30
0.0
 11
504.6951165089
 21
921.8835385785
 31
0.0
  0
LINE
  5
24F
330
1F
100
AcDbEntity
  8
PROFILES_INSIDE
100
AcDbLine
 10
514.8316682569
 20
917.5212037566
 30
0.0
 11
518.8599180319
 21
917.1687811734
 31
0.0
  0
LINE
  5
250
330
1F
100
AcDbEntity
  8
PROFILES_INSIDE
100
AcDbLine
 10
847.1424462376
 20
83.2662763122
 30
0.0
 11
846.1475255107
 21
94.638272258
 31
0.0
  0
LINE
  5
251
330
1F
100
AcDbEntity
  8
PROFILES_INSIDE
100
AcDbLine
 10
835.4074585614
 20
97.1741477524
 30
0.0
 11
831.3792094234
 21
96.8217178886
 31
0.0
  0
LINE
  5
252
330
1F
100
AcDbEntity
  8
PROFILES_INSIDE
100
AcDbLine
 10
821.24265568
 20
92.4593866225
 30
0.0
 11
822.2375794922
 21
81.087374664
 31
0.0
  0
LINE
  5
253
330
1F
100
AcDbEntity
  8
PROFILES_INSIDE
100
AcDbLine
 10
832.9776457346
 20
78.551507249
 30
0.0
 11
837.0058948834
 21
78.9039369894
 31
0.0
  0
LINE
  5
254
330
1F
100
AcDbEntity
  8
PROFILES_OUTSIDE
100
AcDbLine
 10
1778.8682800697
 20
397.976563296
 30
0.0
 11
1690.8682800697
 21
397.976563296
 31
0.0
  0
LINE
  5
255
330
1F
100
AcDbEntity
  8
PROFILES_OUTSIDE
100
AcDbLine
 10
1778.8682800697
 20
395.9527449357
 30
0.0
 11
1778.8682800697
 21
397.976563296
 31
0.0
  0
LINE
  5
256
330
1F
100
AcDbEntity
  8
PROFILES_OUTSIDE
100
AcDbLine
 10
1796.2702341626
 20
385.474563296
 30
0.0
 11
1782.3305584531
 21
385.474563296
 31
0.0
  0
LINE
  5
257
330
1F
100
AcDbEntity
  8
PROFILES_OUTSIDE
100
AcDbLine
 10
1797.6082800697
 20
391.724563296
 30
0.0
 11
1797.2681924326
 21
386.4106939667
 31
0.0
  0
LINE
  5
258
330
1F
100
AcDbEntity
  8
PROFILES_OUTSIDE
100
AcDbLine
 10
1802.8682800697
 20
391.724563296
 30
0.0
 11
1797.6082800697
 21
391.724563296
 31
0.0
  0
LINE
  5
259
330
1F
100
AcDbEntity
  8
PROFILES_INSIDE
100
AcDbLine
 10
504.6951150844
 20
64.7650653534
 30
0.0
 11
505.6900386496
 21
53.3930533733
 31
0.0
  0
LINE
  5
25A
330
1F
100
AcDbEntity
  8
PROFILES_INSIDE
100
AcDbLine
 10
516.430104892
 20
50.8571859583
 30
0.0
 11
520.4583540408
 21
51.2096156987
 31
0.0
  0
LINE
  5
25B
330
1F
100
AcDbEntity
  8
PROFILES_INSIDE
100
AcDbLine
 10
530.594905395
 20
55.5719550215
 30
0.0
 11
529.5999846681
 21
66.9439509672
 31
0.0
  0
LINE
  5
25C
330
1F
100
AcDbEntity
  8
PROFILES_INSIDE
100
AcDbLine
 10
518.8599177188
 20
69.4798264617
 30
0.0
 11
514.83166857
 21
69.1273967213
 31
0.0
  0
LINE
  5
25D
330
1F
100
AcDbEntity
  8
PROFILES_OUTSIDE
100
AcDbLine
 10
465.4282800697
 20
948.5922949706
 30
0.0
 11
465.4282800697
 21
38.0563090859
 31
0.0
  0
LINE
  5
25E
330
1F
100
AcDbEntity
  8
PROFILES_OUTSIDE
100
AcDbLine
 10
867.9512145262
 20
919.9239524029
 30
0.0
 11
471.9512145262
 21
954.5694631592
 31
0.0
  0
LINE
  5
25F
330
1F
100
AcDbEntity
  8
PROFILES_OUTSIDE
100
AcDbLine
 10
873.4282800697
 20
844.4793690455
 30
0.0
 11
873.4282800697
 21
913.9467842143
 31
0.0
  0
LINE
  5
260
330
1F
100
AcDbEntity
  8
PROFILES_OUTSIDE
100
AcDbLine
 10
858.3863910037
 20
836.7924803753
 30
0.0
 11
868.4701691357
 21
838.5705225274
 31
0.0
  0
LINE
  5
261
330
1F
100
AcDbEntity
  8
POCKETS
100
AcDbLine
 10
444.2193002954
 20
119.6385410901
 30
0.0
 11
434.2573533145
 21
118.7669836626
 31
0.0
  0
LINE
  5
262
330
1F
100
AcDbEntity
  8
PROFILES_OUTSIDE
100
AcDbLine
 10
1803.8682800697
 20
378.974563296
 30
0.0
 11
1803.8682800697
 21
390.724563296
 31
0.0
  0
LINE
  5
263
330
1F
100
AcDbEntity
  8
PROFILES_OUTSIDE
100
AcDbLine
 10
1709.9182800697
 20
372.974563296
 30
0.0
 11
1797.8682800697
 21
372.974563296
 31
0.0
  0
LINE
  5
264
330
1F
100
AcDbEntity
  8
PROFILES_OUTSIDE
100
AcDbLine
 10
1697.9182800697
 20
271.3414629549
 30
0.0
 11
1697.9182800697
 21
360.974563296
 31
0.0
  0
LINE
  5
265
330
1F
100
AcDbEntity
  8
PROFILES_OUTSIDE
100
AcDbLine
 10
1678.8682800697
 20
189.7019304979
 30
0.0
 11
1678.8682800697
 21
238.3458950707
 31
0.0
  0
LINE
  5
266
330
1F
100
AcDbEntity
  8
PROFILES_OUTSIDE
100
AcDbLine
 10
1697.9182800697
 20
67.0732622726
 30
0.0
 11
1697.9182800697
 21
156.7063626137
 31
0.0
  0
LINE
  5
267
330
1F
100
AcDbEntity
  8
PROFILES_OUTSIDE
100
AcDbLine
 10
1797.8682800697
 20
55.0732622726
 30
0.0
 11
1709.9182800697
 21
55.0732622726
 31
0.0
  0
LINE
  5
268
330
1F
100
AcDbEntity
  8
PROFILES_OUTSIDE
100
AcDbLine
 10
1803.8682800697
 20
37.3232622726
 30
0.0
 11
1803.8682800697
 21
49.0732622726
 31
0.0
  0
LINE
  5
269
330
1F
100
AcDbEntity
  8
PROFILES_OUTSIDE
100
AcDbLine
 10
1797.6082800697
 20
36.3232622726
 30
0.0
 11
1802.8682800697
 21
36.3232622726
 31
0.0
  0
LINE
  5
26A
330
1F
100
AcDbEntity
  8
PROFILES_OUTSIDE
100
AcDbLine
 10
1797.2681924326
 20
41.6371316019
 30
0.0
 11
1797.6082800697
 21
36.3232622726
 31
0.0
  0
LINE
  5
26B
330
1F
100
AcDbEntity
  8
PROFILES_OUTSIDE
100
AcDbLine
 10
1782.3305584531
 20
42.5732622726
 30
0.0
 11
1796.2702341626
 21
42.5732622726
 31
0.0
  0
LINE
  5
26C
330
1F
100
AcDbEntity
  8
PROFILES_OUTSIDE
100
AcDbLine
 10
1778.8682800697
 20
30.0712622726
 30
0.0
 11
1778.8682800697
 21
32.0950806329
 31
0.0
  0
LINE
  5
26D
330
1F
100
AcDbEntity
  8
PROFILES_OUTSIDE
100
AcDbLine
 10
1690.8682800697
 20
30.0712622726
 30
0.0
 11
1778.8682800697
 21
30.0712622726
 31
0.0
  0
LINE
  5
26E
330
1F
100
AcDbEntity
  8
PROFILES_OUTSIDE
100
AcDbLine
 10
1678.8682800697
 20
144.7063626137
 30
0.0
 11
1678.8682800697
 21
42.0712622726
 31
0.0
  0
LINE
  5
26F
330
1F
100
AcDbEntity
  8
PROFILES_OUTSIDE
100
AcDbLine
 10
1640.8682800697
 20
156.7063626137
 30
0.0
 11
1666.8682800697
 21
156.7063626137
 31
0.0
  0
LINE
  5
270
330
1F
100
AcDbEntity
  8
PROFILES_OUTSIDE
100
AcDbLine
 10
1628.8682800697
 20
42.0712622726
 30
0.0
 11
1628.8682800697
 21
144.7063626137
 31
0.0
  0
LINE
  5
271
330
1F
100
AcDbEntity
  8
PROFILES_OUTSIDE
100
AcDbLine
 10
1528.8682800697
 20
30.0712622726
 30
0.0
 11
1616.8682800697
 21
30.0712622726
 31
0.0
  0
LINE
  5
272
330
1F
100
AcDbEntity
  8
PROFILES_OUTSIDE
100
AcDbLine
 10
853.4282800697
 20
155.7649701993
 30
0.0
 11
853.4282800697
 21
830.8836338572
 31
0.0
  0
LINE
  5
273
330
1F
100
AcDbEntity
  8
POCKETS
100
AcDbLine
 10
445.84736957
 20
101.0296241298
 30
0.0
 11
444.2193002954
 21
119.6385410901
 31
0.0
  0
LINE
  5
274
330
1F
100
AcDbEntity
  8
PROFILES_OUTSIDE
100
AcDbLine
 10
868.4701691357
 20
148.078081529
 30
0.0
 11
858.3863910037
 21
149.8561236812
 31
0.0
  0
LINE
  5
275
330
1F
100
AcDbEntity
  8
POCKETS
100
AcDbLine
 10
435.885422589
 20
100.1580667023
 30
0.0
 11
445.84736957
 21
101.0296241298
 31
0.0
  0
LINE
  5
276
330
1F
100
AcDbEntity
  8
POCKETS
100
AcDbLine
 10
25.6392068249
 20
64.2661735685
 30
0.0
 11
435.885422589
 21
100.1580667023
 31
0.0
  0
LINE
  5
277
330
1F
100
AcDbEntity
  8
POCKETS
100
AcDbLine
 10
15.677259844
 20
63.394616141
 30
0.0
 11
25.6392068249
 21
64.2661735685
 31
0.0
  0
LINE
  5
278
330
1F
100
AcDbEntity
  8
POCKETS
100
AcDbLine
 10
14.0491905694
 20
82.0035331014
 30
0.0
 11
15.677259844
 21
63.394616141
 31
0.0
  0
LINE
  5
279
330
1F
100
AcDbEntity
  8
POCKETS
100
AcDbLine
 10
24.0111375504
 20
82.8750905289
 30
0.0
 11
14.0491905694
 21
82.0035331014
 31
0.0
  0
LINE
  5
27A
330
1F
100
AcDbEntity
  8
POCKETS
100
AcDbLine
 10
375.6082800697
 20
113.6358546274
 30
0.0
 11
24.0111375504
 21
82.8750905289
 31
0.0
  0
LINE
  5
27B
330
1F
100
AcDbEntity
  8
POCKETS
100
AcDbLine
 10
375.6082800697
 20
873.0127494291
 30
0.0
 11
375.6082800697
 21
113.6358546274
 31
0.0
  0
LINE
  5
27C
330
1F
100
AcDbEntity
  8
POCKETS
100
AcDbLine
 10
24.0111375504
 20
903.7735135276
 30
0.0
 11
375.6082800697
 21
873.0127494291
 31
0.0
  0
LINE
  5
27D
330
1F
100
AcDbEntity
  8
POCKETS
100
AcDbLine
 10
14.0491905694
 20
904.6450709551
 30
0.0
 11
24.0111375504
 21
903.7735135276
 31
0.0
  0
LINE
  5
27E
330
1F
100
AcDbEntity
  8
POCKETS
100
AcDbLine
 10
15.677259844
 20
923.2539879155
 30
0.0
 11
14.0491905694
 21
904.6450709551
 31
0.0
  0
LINE
  5
27F
330
1F
100
AcDbEntity
  8
POCKETS
100
AcDbLine
 10
25.6392068249
 20
922.382430488
 30
0.0
 11
15.677259844
 21
923.2539879155
 31
0.0
  0
LINE
  5
280
330
1F
100
AcDbEntity
  8
POCKETS
100
AcDbLine
 10
435.885422589
 20
886.4905373542
 30
0.0
 11
25.6392068249
 21
922.382430488
 31
0.0
  0
LINE
  5
281
330
1F
100
AcDbEntity
  8
POCKETS
100
AcDbLine
 10
445.84736957
 20
885.6189799267
 30
0.0
 11
435.885422589
 21
886.4905373542
 31
0.0
  0
LINE
  5
282
330
1F
100
AcDbEntity
  8
POCKETS
100
AcDbLine
 10
444.2193002954
 20
867.0100629664
 30
0.0
 11
445.84736957
 21
885.6189799267
 31
0.0
  0
LINE
  5
283
330
1F
100
AcDbEntity
  8
POCKETS
100
AcDbLine
 10
434.2573533145
 20
867.8816203939
 30
0.0
 11
444.2193002954
 21
867.0100629664
 31
0.0
  0
LINE
  5
284
330
1F
100
AcDbEntity
  8
POCKETS
100
AcDbLine
 10
393.9482800697
 20
871.40820734
 30
0.0
 11
434.2573533145
 21
867.8816203939
 31
0.0
  0
LINE
  5
285
330
1F
100
AcDbEntity
  8
PROFILES_OUTSIDE
100
AcDbLine
 10
1528.8682800697
 20
32.0950806329
 30
0.0
 11
1528.8682800697
 21
30.0712622726
 31
0.0
  0
LINE
  5
286
330
1F
100
AcDbEntity
  8
PROFILES_OUTSIDE
100
AcDbLine
 10
1511.4663259768
 20
42.5732622726
 30
0.0
 11
1525.4060016863
 21
42.5732622726
 31
0.0
  0
LINE
  5
287
330
1F
100
AcDbEntity
  8
PROFILES_OUTSIDE
100
AcDbLine
 10
1510.1282800697
 20
36.3232622726
 30
0.0
 11
1510.4683677068
 21
41.6371316019
 31
0.0
  0
LINE
  5
288
330
1F
100
AcDbEntity
  8
PROFILES_OUTSIDE
100
AcDbLine
 10
1504.8682800697
 20
36.3232622726
 30
0.0
 11
1510.1282800697
 21
36.3232622726
 31
0.0
  0
LINE
  5
289
330
1F
100
AcDbEntity
  8
PROFILES_OUTSIDE
100
AcDbLine
 10
1503.8682800697
 20
49.0732622726
 30
0.0
 11
1503.8682800697
 21
37.3232622726
 31
0.0
  0
LINE
  5
28A
330
1F
100
AcDbEntity
  8
PROFILES_OUTSIDE
100
AcDbLine
 10
1597.8182800697
 20
55.0732622726
 30
0.0
 11
1509.8682800697
 21
55.0732622726
 31
0.0
  0
LINE
  5
28B
330
1F
100
AcDbEntity
  8
PROFILES_OUTSIDE
100
AcDbLine
 10
1609.8182800697
 20
156.7063626137
 30
0.0
 11
1609.8182800697
 21
67.0732622726
 31
0.0
  0
LINE
  5
28C
330
1F
100
AcDbEntity
  8
PROFILES_OUTSIDE
100
AcDbLine
 10
1628.8682800697
 20
238.3458950707
 30
0.0
 11
1628.8682800697
 21
189.7019304979
 31
0.0
  0
LINE
  5
28D
330
1F
100
AcDbEntity
  8
PROFILES_OUTSIDE
100
AcDbLine
 10
1609.8182800697
 20
360.974563296
 30
0.0
 11
1609.8182800697
 21
271.3414629549
 31
0.0
  0
LINE
  5
28E
330
1F
100
AcDbEntity
  8
PROFILES_OUTSIDE
100
AcDbLine
 10
1509.8682800697
 20
372.974563296
 30
0.0
 11
1597.8182800697
 21
372.974563296
 31
0.0
  0
LINE
  5
28F
330
1F
100
AcDbEntity
  8
PROFILES_OUTSIDE
100
AcDbLine
 10
1503.8682800697
 20
390.724563296
 30
0.0
 11
1503.8682800697
 21
378.974563296
 31
0.0
  0
LINE
  5
290
330
1F
100
AcDbEntity
  8
POCKETS
100
AcDbLine
 10
393.9482800697
 20
115.2403967165
 30
0.0
 11
393.9482800697
 21
871.40820734
 31
0.0
  0
LINE
  5
291
330
1F
100
AcDbEntity
  8
PROFILES_OUTSIDE
100
AcDbLine
 10
1797.6082800697
 20
435.704563296
 30
0.0
 11
1802.8682800697
 21
435.704563296
 31
0.0
  0
LINE
  5
292
330
1F
100
AcDbEntity
  8
PROFILES_OUTSIDE
100
AcDbLine
 10
1797.2681924326
 20
441.0184326253
 30
0.0
 11
1797.6082800697
 21
435.704563296
 31
0.0
  0
LINE
  5
293
330
1F
100
AcDbEntity
  8
PROFILES_OUTSIDE
100
AcDbLine
 10
1782.3305584531
 20
441.954563296
 30
0.0
 11
1796.2702341626
 21
441.954563296
 31
0.0
  0
LINE
  5
294
330
1F
100
AcDbEntity
  8
PROFILES_OUTSIDE
100
AcDbLine
 10
1778.8682800697
 20
429.452563296
 30
0.0
 11
1778.8682800697
 21
431.4763816562
 31
0.0
  0
LINE
  5
295
330
1F
100
AcDbEntity
  8
PROFILES_OUTSIDE
100
AcDbLine
 10
1690.8682800697
 20
429.452563296
 30
0.0
 11
1778.8682800697
 21
429.452563296
 31
0.0
  0
LINE
  5
296
330
1F
100
AcDbEntity
  8
PROFILES_OUTSIDE
100
AcDbLine
 10
1678.8682800697
 20
544.0876636371
 30
0.0
 11
1678.8682800697
 21
441.452563296
 31
0.0
  0
LINE
  5
297
330
1F
100
AcDbEntity
  8
PROFILES_OUTSIDE
100
AcDbLine
 10
1640.8682800697
 20
556.0876636371
 30
0.0
 11
1666.8682800697
 21
556.0876636371
 31
0.0
  0
LINE
  5
298
330
1F
100
AcDbEntity
  8
PROFILES_OUTSIDE
100
AcDbLine
 10
1628.8682800697
 20
441.452563296
 30
0.0
 11
1628.8682800697
 21
544.0876636371
 31
0.0
  0
LINE
  5
299
330
1F
100
AcDbEntity
  8
PROFILES_OUTSIDE
100
AcDbLine
 10
1528.8682800697
 20
429.452563296
 30
0.0
 11
1616.8682800697
 21
429.452563296
 31
0.0
  0
LINE
  5
29A
330
1F
100
AcDbEntity
  8
PROFILES_OUTSIDE
100
AcDbLine
 10
1528.8682800697
 20
431.4763816562
 30
0.0
 11
1528.8682800697
 21
429.452563296
 31
0.0
  0
LINE
  5
29B
330
1F
100
AcDbEntity
  8
PROFILES_OUTSIDE
100
AcDbLine
 10
1511.4663259768
 20
441.954563296
 30
0.0
 11
1525.4060016863
 21
441.954563296
 31
0.0
  0
LINE
  5
29C
330
1F
100
AcDbEntity
  8
PROFILES_OUTSIDE
100
AcDbLine
 10
1510.1282800697
 20
435.704563296
 30
0.0
 11
1510.4683677068
 21
441.0184326253
 31
0.0
  0
LINE
  5
29D
330
1F
100
AcDbEntity
  8
PROFILES_OUTSIDE
100
AcDbLine
 10
1504.8682800697
 20
435.704563296
 30
0.0
 11
1510.1282800697
 21
435.704563296
 31
0.0
  0
LINE
  5
29E
330
1F
100
AcDbEntity
  8
PROFILES_OUTSIDE
100
AcDbLine
 10
1503.8682800697
 20
448.454563296
 30
0.0
 11
1503.8682800697
 21
436.704563296
 31
0.0
  0
LINE
  5
29F
330
1F
100
AcDbEntity
  8
PROFILES_OUTSIDE
100
AcDbLine
 10
1597.8182800697
 20
454.454563296
 30
0.0
 11
1509.8682800697
 21
454.454563296
 31
0.0
  0
LINE
  5
2A0
330
1F
100
AcDbEntity
  8
PROFILES_OUTSIDE
100
AcDbLine
 10
1609.8182800697
 20
556.0876636371
 30
0.0
 11
1609.8182800697
 21
466.454563296
 31
0.0
  0
LINE
  5
2A1
330
1F
100
AcDbEntity
  8
PROFILES_OUTSIDE
100
AcDbLine
 10
1628.8682800697
 20
637.727196094
 30
0.0
 11
1628.8682800697
 21
589.0832315213
 31
0.0
  0
LINE
  5
2A2
330
1F
100
AcDbEntity
  8
PROFILES_OUTSIDE
100
AcDbLine
 10
1609.8182800697
 20
760.3558643193
 30
0.0
 11
1609.8182800697
 21
670.7227639782
 31
0.0
  0
LINE
  5
2A3
330
1F
100
AcDbEntity
  8
PROFILES_OUTSIDE
100
AcDbLine
 10
1509.8682800697
 20
772.3558643193
 30
0.0
 11
1597.8182800697
 21
772.3558643193
 31
0.0
  0
LINE
  5
2A4
330
1F
100
AcDbEntity
  8
PROFILES_OUTSIDE
100
AcDbLine
 10
1503.8682800697
 20
790.1058643193
 30
0.0
 11
1503.8682800697
 21
778.3558643193
 31
0.0
  0
LINE
  5
2A5
330
1F
100
AcDbEntity
  8
PROFILES_OUTSIDE
100
AcDbLine
 10
1510.1282800697
 20
791.1058643193
 30
0.0
 11
1504.8682800697
 21
791.1058643193
 31
0.0
  0
LINE
  5
2A6
330
1F
100
AcDbEntity
  8
PROFILES_OUTSIDE
100
AcDbLine
 10
1510.4683677068
 20
785.7919949901
 30
0.0
 11
1510.1282800697
 21
791.1058643193
 31
0.0
  0
LINE
  5
2A7
330
1F
100
AcDbEntity
  8
PROFILES_OUTSIDE
100
AcDbLine
 10
1525.4060016863
 20
784.8558643193
 30
0.0
 11
1511.4663259768
 21
784.8558643193
 31
0.0
  0
LINE
  5
2A8
330
1F
100
AcDbEntity
  8
PROFILES_OUTSIDE
100
AcDbLine
 10
1528.8682800697
 20
797.3578643193
 30
0.0
 11
1528.8682800697
 21
795.3340459591
 31
0.0
  0
LINE
  5
2A9
330
1F
100
AcDbEntity
  8
PROFILES_OUTSIDE
100
AcDbLine
 10
1616.8682800697
 20
797.3578643193
 30
0.0
 11
1528.8682800697
 21
797.3578643193
 31
0.0
  0
LINE
  5
2AA
330
1F
100
AcDbEntity
  8
PROFILES_OUTSIDE
100
AcDbLine
 10
1628.8682800697
 20
682.7227639782
 30
0.0
 11
1628.8682800697
 21
785.3578643193
 31
0.0
  0
LINE
  5
2AB
330
1F
100
AcDbEntity
  8
PROFILES_OUTSIDE
100
AcDbLine
 10
1666.8682800697
 20
670.7227639782
 30
0.0
 11
1640.8682800697
 21
670.7227639782
 31
0.0
  0
LINE
  5
2AC
330
1F
100
AcDbEntity
  8
PROFILES_OUTSIDE
100
AcDbLine
 10
1678.8682800697
 20
785.3578643193
 30
0.0
 11
1678.8682800697
 21
682.7227639782
 31
0.0
  0
LINE
  5
2AD
330
1F
100
AcDbEntity
  8
PROFILES_OUTSIDE
100
AcDbLine
 10
1778.8682800697
 20
797.3578643193
 30
0.0
 11
1690.8682800697
 21
797.3578643193
 31
0.0
  0
LINE
  5
2AE
330
1F
100
AcDbEntity
  8
PROFILES_OUTSIDE
100
AcDbLine
 10
1778.8682800697
 20
795.3340459591
 30
0.0
 11
1778.8682800697
 21
797.3578643193
 31
0.0
  0
LINE
  5
2AF
330
1F
100
AcDbEntity
  8
PROFILES_OUTSIDE
100
AcDbLine
 10
1796.2702341626
 20
784.8558643193
 30
0.0
 11
1782.3305584531
 21
784.8558643193
 31
0.0
  0
LINE
  5
2B0
330
1F
100
AcDbEntity
  8
PROFILES_OUTSIDE
100
AcDbLine
 10
1797.6082800697
 20
791.1058643193
 30
0.0
 11
1797.2681924326
 21
785.7919949901
 31
0.0
  0
LINE
  5
2B1
330
1F
100
AcDbEntity
  8
PROFILES_OUTSIDE
100
AcDbLine
 10
1802.8682800697
 20
791.1058643193
 30
0.0
 11
1797.6082800697
 21
791.1058643193
 31
0.0
  0
LINE
  5
2B2
330
1F
100
AcDbEntity
  8
PROFILES_OUTSIDE
100
AcDbLine
 10
1803.8682800697
 20
778.3558643193
 30
0.0
 11
1803.8682800697
 21
790.1058643193
 31
0.0
  0
LINE
  5
2B3
330
1F
100
AcDbEntity
  8
PROFILES_OUTSIDE
100
AcDbLine
 10
1709.9182800697
 20
772.3558643193
 30
0.0
 11
1797.8682800697
 21
772.3558643193
 31
0.0
  0
LINE
  5
2B4
330
1F
100
AcDbEntity
  8
PROFILES_OUTSIDE
100
AcDbLine
 10
1697.9182800697
 20
670.7227639782
 30
0.0
 11
1697.9182800697
 21
760.3558643193
 31
0.0
  0
LINE
  5
2B5
330
1F
100
AcDbEntity
  8
PROFILES_OUTSIDE
100
AcDbLine
 10
1678.8682800697
 20
589.0832315213
 30
0.0
 11
1678.8682800697
 21
637.727196094
 31
0.0
  0
LINE
  5
2B6
330
1F
100
AcDbEntity
  8
PROFILES_OUTSIDE
100
AcDbLine
 10
1697.9182800697
 20
466.454563296
 30
0.0
 11
1697.9182800697
 21
556.0876636371
 31
0.0
  0
LINE
  5
2B7
330
1F
100
AcDbEntity
  8
PROFILES_OUTSIDE
100
AcDbLine
 10
1797.8682800697
 20
454.454563296
 30
0.0
 11
1709.9182800697
 21
454.454563296
 31
0.0
  0
LINE
  5
2B8
330
1F
100
AcDbEntity
  8
PROFILES_OUTSIDE
100
AcDbLine
 10
1803.8682800697
 20
436.704563296
 30
0.0
 11
1803.8682800697
 21
448.454563296
 31
0.0
  0
LINE
  5
2B9
330
1F
100
AcDbEntity
  8
POCKETS
100
AcDbLine
 10
434.2573533145
 20
118.7669836626
 30
0.0
 11
393.9482800697
 21
115.2403967165
 31
0.0
  0
LINE
  5
2BA
330
1F
100
AcDbEntity
  8
POCKETS
100
AcDbLine
 10
833.4282800697
 20
871.40820734
 30
0.0
 11
873.7373533145
 21
867.8816203939
 31
0.0
  0
LINE
  5
2BB
330
1F
100
AcDbEntity
  8
POCKETS
100
AcDbLine
 10
873.7373533145
 20
867.8816203939
 30
0.0
 11
883.6993002954
 21
867.0100629664
 31
0.0
  0
LINE
  5
2BC
330
1F
100
AcDbEntity
  8
POCKETS
100
AcDbLine
 10
883.6993002954
 20
867.0100629664
 30
0.0
 11
885.32736957
 21
885.6189799267
 31
0.0
  0
LINE
  5
2BD
330
1F
100
AcDbEntity
  8
POCKETS
100
AcDbLine
 10
885.32736957
 20
885.6189799267
 30
0.0
 11
875.365422589
 21
886.4905373542
 31
0.0
  0
LINE
  5
2BE
330
1F
100
AcDbEntity
  8
POCKETS
100
AcDbLine
 10
875.365422589
 20
886.4905373542
 30
0.0
 11
466.6880101943
 21
922.2451779779
 31
0.0
  0
LINE
  5
2BF
330
1F
100
AcDbEntity
  8
POCKETS
100
AcDbLine
 10
466.6880101943
 20
922.2451779779
 30
0.0
 11
456.7260632134
 21
923.1167354053
 31
0.0
  0
LINE
  5
2C0
330
1F
100
AcDbEntity
  8
POCKETS
100
AcDbLine
 10
456.7260632134
 20
923.1167354053
 30
0.0
 11
455.0979939389
 21
904.507818445
 31
0.0
  0
LINE
  5
2C1
330
1F
100
AcDbEntity
  8
POCKETS
100
AcDbLine
 10
455.0979939389
 20
904.507818445
 30
0.0
 11
465.0599409198
 21
903.6362610175
 31
0.0
  0
LINE
  5
2C2
330
1F
100
AcDbEntity
  8
POCKETS
100
AcDbLine
 10
465.0599409198
 20
903.6362610175
 30
0.0
 11
815.0882800697
 21
873.0127494291
 31
0.0
  0
LINE
  5
2C3
330
1F
100
AcDbEntity
  8
POCKETS
100
AcDbLine
 10
815.0882800697
 20
873.0127494291
 30
0.0
 11
815.0882800697
 21
113.6358546274
 31
0.0
  0
LINE
  5
2C4
330
1F
100
AcDbEntity
  8
POCKETS
100
AcDbLine
 10
815.0882800697
 20
113.6358546274
 30
0.0
 11
465.0599409198
 21
83.012343039
 31
0.0
  0
LINE
  5
2C5
330
1F
100
AcDbEntity
  8
POCKETS
100
AcDbLine
 10
465.0599409198
 20
83.012343039
 30
0.0
 11
455.0979939389
 21
82.1407856115
 31
0.0
  0
LINE
  5
2C6
330
1F
100
AcDbEntity
  8
POCKETS
100
AcDbLine
 10
455.0979939389
 20
82.1407856115
 30
0.0
 11
456.7260632134
 21
63.5318686512
 31
0.0
  0
LINE
  5
2C7
330
1F
100
AcDbEntity
  8
POCKETS
100
AcDbLine
 10
456.7260632134
 20
63.5318686512
 30
0.0
 11
466.6880101943
 21
64.4034260786
 31
0.0
  0
LINE
  5
2C8
330
1F
100
AcDbEntity
  8
POCKETS
100
AcDbLine
 10
466.6880101943
 20
64.4034260786
 30
0.0
 11
875.365422589
 21
100.1580667023
 31
0.0
  0
LINE
  5
2C9
330
1F
100
AcDbEntity
  8
POCKETS
100
AcDbLine
 10
875.365422589
 20
100.1580667023
 30
0.0
 11
885.32736957
 21
101.0296241298
 31
0.0
  0
LINE
  5
2CA
330
1F
100
AcDbEntity
  8
POCKETS
100
AcDbLine
 10
885.32736957
 20
101.0296241298
 30
0.0
 11
883.6993002954
 21
119.6385410901
 31
0.0
  0
LINE
  5
2CB
330
1F
100
AcDbEntity
  8
POCKETS
100
AcDbLine
 10
883.6993002954
 20
119.6385410901
 30
0.0
 11
873.7373533145
 21
118.7669836626
 31
0.0
  0
LINE
  5
2CC
330
1F
100
AcDbEntity
  8
POCKETS
100
AcDbLine
 10
873.7373533145
 20
118.7669836626
 30
0.0
 11
833.4282800697
 21
115.2403967165
 31
0.0
  0
LINE
  5
2CD
330
1F
100
AcDbEntity
  8
POCKETS
100
AcDbLine
 10
833.4282800697
 20
115.2403967165
 30
0.0
 11
833.4282800697
 21
871.40820734
 31
0.0
  0
LINE
  5
2CE
330
1F
100
AcDbEntity
  8
PROFILES_OUTSIDE
100
AcDbLine
 10
873.4282800697
 20
72.7018198421
 30
0.0
 11
873.4282800697
 21
142.169235011
 31
0.0
  0
LINE
  5
2CF
330
1F
100
AcDbEntity
  8
PROFILES_OUTSIDE
100
AcDbLine
 10
471.9512145262
 20
32.0791408973
 30
0.0
 11
867.9512145262
 21
66.7246516536
 31
0.0
  0
ARC
  5
2D0
330
1F
100
AcDbEntity
  8
PROFILES_OUTSIDE
100
AcDbCircle
 10
427.9482800697
 20
142.169235011
 30
0.0
 40
6.0
100
AcDbArc
 50
0.0
 51
80.0
  0
ARC
  5
2D1
330
1F
100
AcDbEntity
  8
PROFILES_OUTSIDE
100
AcDbCircle
 10
419.9482800697
 20
155.7649701993
 30
0.0
 40
6.0
100
AcDbArc
 50
180.0
 51
260.0
  0
ARC
  5
2D2
330
1F
100
AcDbEntity
  8
PROFILES_OUTSIDE
100
AcDbCircle
 10
419.9482800697
 20
830.8836338572
 30
0.0
 40
6.0
100
AcDbArc
 50
100.0
 51
180.0
  0
ARC
  5
2D3
330
1F
100
AcDbEntity
  8
PROFILES_OUTSIDE
100
AcDbCircle
 10
427.9482800697
 20
844.4793690455
 30
0.0
 40
5.999999999999978
100
AcDbArc
 50
280.0
 51
360.0
  0
ARC
  5
2D4
330
1F
100
AcDbEntity
  8
PROFILES_INSIDE
100
AcDbCircle
 10
421.9482800697
 20
647.9262649486
 30
0.0
 40
6.0
100
AcDbArc
 50
280.0
 51
0.0
  0
ARC
  5
2D5
330
1F
100
AcDbEntity
  8
PROFILES_OUTSIDE
100
AcDbCircle
 10
1802.8682800697
 20
390.724563296
 30
0.0
 40
1.0
100
AcDbArc
 50
0.0
 51
90.0
  0
ARC
  5
2D6
330
1F
100
AcDbEntity
  8
PROFILES_INSIDE
100
AcDbCircle
 10
397.6130500543
 20
908.7408654212
 30
0.0
 40
1.000000000000101
100
AcDbArc
 50
265.0000509005
 51
337.399543816
  0
ARC
  5
2D7
330
1F
100
AcDbEntity
  8
PROFILES_INSIDE
100
AcDbCircle
 10
403.3092382152
 20
906.3697179278
 30
0.0
 40
5.169999999999994
100
AcDbArc
 50
330.1121952728
 51
157.399543816
  0
ARC
  5
2D8
330
1F
100
AcDbEntity
  8
PROFILES_INSIDE
100
AcDbCircle
 10
408.6586775494
 20
903.2951687983
 30
0.0
 40
1.000036753616266
100
AcDbArc
 50
150.1121952728
 51
175.0
  0
ARC
  5
2D9
330
1F
100
AcDbEntity
  8
PROFILES_INSIDE
100
AcDbCircle
 10
407.6637202088
 20
891.9231760558
 30
0.0
 40
1.000000000000015
100
AcDbArc
 50
175.0
 51
199.8879040116
  0
ARC
  5
2DA
330
1F
100
AcDbEntity
  8
PROFILES_INSIDE
100
AcDbCircle
 10
401.8616992233
 20
889.8242590768
 30
0.0
 40
5.17000000000004
100
AcDbArc
 50
192.6004773877
 51
19.8879040116
  0
ARC
  5
2DB
330
1F
100
AcDbEntity
  8
PROFILES_INSIDE
100
AcDbCircle
 10
395.8403040168
 20
888.4782651072
 30
0.0
 40
1.000000000000069
100
AcDbArc
 50
12.6004773877
 51
85.0000509005
  0
ARC
  5
2DC
330
1F
100
AcDbEntity
  8
PROFILES_INSIDE
100
AcDbCircle
 10
391.8120542417
 20
888.8306876903
 30
0.0
 40
1.000000000000005
100
AcDbArc
 50
85.0000509005
 51
157.399543816
  0
ARC
  5
2DD
330
1F
100
AcDbEntity
  8
PROFILES_INSIDE
100
AcDbCircle
 10
386.1158660808
 20
891.2018351837
 30
0.0
 40
5.170000000000116
100
AcDbArc
 50
150.1121199588
 51
337.399543816
  0
ARC
  5
2DE
330
1F
100
AcDbEntity
  8
PROFILES_INSIDE
100
AcDbCircle
 10
380.7664626534
 20
894.2763730305
 30
0.0
 40
1.0
100
AcDbArc
 50
330.1121199588
 51
355.0
  0
ARC
  5
2DF
330
1F
100
AcDbEntity
  8
PROFILES_INSIDE
100
AcDbCircle
 10
381.7613847941
 20
905.6483851352
 30
0.0
 40
0.9999985700005503
100
AcDbArc
 50
355.0
 51
19.8878356916
  0
ARC
  5
2E0
330
1F
100
AcDbEntity
  8
PROFILES_INSIDE
100
AcDbCircle
 10
387.5634050726
 20
907.7472940347
 30
0.0
 40
5.169998636556972
100
AcDbArc
 50
12.6004773877
 51
199.8878356916
  0
ARC
  5
2E1
330
1F
100
AcDbEntity
  8
PROFILES_INSIDE
100
AcDbCircle
 10
393.5848002792
 20
909.0932880044
 30
0.0
 40
1.000001363443086
100
AcDbArc
 50
192.6004773877
 51
265.0000509005
  0
ARC
  5
2E2
330
1F
100
AcDbEntity
  8
PROFILES_INSIDE
100
AcDbCircle
 10
91.9670869535
 20
931.0020928094
 30
0.0
 40
1.000036753616355
100
AcDbArc
 50
150.1121952728
 51
175.0
  0
ARC
  5
2E3
330
1F
100
AcDbEntity
  8
PROFILES_INSIDE
100
AcDbCircle
 10
86.6176476192
 20
934.0766419389
 30
0.0
 40
5.169999999999972
100
AcDbArc
 50
330.1121952728
 51
157.399543816
  0
ARC
  5
2E4
330
1F
100
AcDbEntity
  8
PROFILES_INSIDE
100
AcDbCircle
 10
80.9214594583
 20
936.4477894323
 30
0.0
 40
1.000000000000123
100
AcDbArc
 50
265.0000509005
 51
337.399543816
  0
ARC
  5
2E5
330
1F
100
AcDbEntity
  8
PROFILES_INSIDE
100
AcDbCircle
 10
76.8932096833
 20
936.8002120155
 30
0.0
 40
1.000000743696208
100
AcDbArc
 50
192.6004773877
 51
265.0000509005
  0
ARC
  5
2E6
330
1F
100
AcDbEntity
  8
PROFILES_INSIDE
100
AcDbCircle
 10
70.8718144767
 20
935.4542180458
 30
0.0
 40
5.169999256303861
100
AcDbArc
 50
12.6004773877
 51
199.8878356916
  0
ARC
  5
2E7
330
1F
100
AcDbEntity
  8
PROFILES_INSIDE
100
AcDbCircle
 10
65.0697941981
 20
933.3553091464
 30
0.0
 40
0.9999984460513028
100
AcDbArc
 50
355.0
 51
19.8878356916
  0
ARC
  5
2E8
330
1F
100
AcDbEntity
  8
PROFILES_INSIDE
100
AcDbCircle
 10
64.0748720575
 20
921.9832970416
 30
0.0
 40
1.000000000000053
100
AcDbArc
 50
330.1121199588
 51
355.0
  0
ARC
  5
2E9
330
1F
100
AcDbEntity
  8
PROFILES_INSIDE
100
AcDbCircle
 10
69.4242754849
 20
918.9087591949
 30
0.0
 40
5.169999999999977
100
AcDbArc
 50
150.1121199588
 51
337.399543816
  0
ARC
  5
2EA
330
1F
100
AcDbEntity
  8
PROFILES_INSIDE
100
AcDbCircle
 10
75.1204636458
 20
916.5376117014
 30
0.0
 40
1.00000000000025
100
AcDbArc
 50
85.0000509005
 51
157.399543816
  0
ARC
  5
2EB
330
1F
100
AcDbEntity
  8
PROFILES_INSIDE
100
AcDbCircle
 10
79.1487134208
 20
916.1851891183
 30
0.0
 40
1.000000000000137
100
AcDbArc
 50
12.6004773877
 51
85.0000509005
  0
ARC
  5
2EC
330
1F
100
AcDbEntity
  8
PROFILES_INSIDE
100
AcDbCircle
 10
85.1701086274
 20
917.5311830879
 30
0.0
 40
5.170000000000015
100
AcDbArc
 50
192.6004773877
 51
19.8879040116
  0
ARC
  5
2ED
330
1F
100
AcDbEntity
  8
PROFILES_INSIDE
100
AcDbCircle
 10
90.9721296128
 20
919.6301000669
 30
0.0
 40
1.00000000000001
100
AcDbArc
 50
175.0
 51
199.8879040116
  0
ARC
  5
2EE
330
1F
100
AcDbEntity
  8
PROFILES_INSIDE
100
AcDbCircle
 10
403.3092387946
 20
80.2788919702
 30
0.0
 40
5.170000000000034
100
AcDbArc
 50
202.6004773877
 51
29.8879040116
  0
ARC
  5
2EF
330
1F
100
AcDbEntity
  8
PROFILES_INSIDE
100
AcDbCircle
 10
408.6586409357
 20
83.3534320549
 30
0.0
 40
1.00000000000001
100
AcDbArc
 50
185.0
 51
209.8879040116
  0
ARC
  5
2F0
330
1F
100
AcDbEntity
  8
PROFILES_INSIDE
100
AcDbCircle
 10
407.6637568225
 20
94.725431204
 30
0.0
 40
1.000036753616255
100
AcDbArc
 50
160.1121952728
 51
185.0
  0
ARC
  5
2F1
330
1F
100
AcDbEntity
  8
PROFILES_INSIDE
100
AcDbCircle
 10
401.8616976384
 20
96.8243506318
 30
0.0
 40
5.169999999999989
100
AcDbArc
 50
340.1121952728
 51
167.399543816
  0
ARC
  5
2F2
330
1F
100
AcDbEntity
  8
PROFILES_INSIDE
100
AcDbCircle
 10
395.8403019337
 20
98.1703423731
 30
0.0
 40
0.9999999999999843
100
AcDbArc
 50
275.0000509005
 51
347.399543816
  0
ARC
  5
2F3
330
1F
100
AcDbEntity
  8
PROFILES_INSIDE
100
AcDbCircle
 10
391.8120527848
 20
97.8179126327
 30
0.0
 40
1.000000619746868
100
AcDbArc
 50
202.6004773877
 51
275.0000509005
  0
ARC
  5
2F4
330
1F
100
AcDbEntity
  8
PROFILES_INSIDE
100
AcDbCircle
 10
386.1158655014
 20
95.4467630313
 30
0.0
 40
5.169999380253118
100
AcDbArc
 50
22.6004773877
 51
209.8878356916
  0
ARC
  5
2F5
330
1F
100
AcDbEntity
  8
PROFILES_INSIDE
100
AcDbCircle
 10
380.7664626534
 20
92.372231026
 30
0.0
 40
0.9999983221017402
100
AcDbArc
 50
5.0
 51
29.8878356916
  0
ARC
  5
2F6
330
1F
100
AcDbEntity
  8
PROFILES_INSIDE
100
AcDbCircle
 10
381.7613847941
 20
81.0002189213
 30
0.0
 40
1.000000000000066
100
AcDbArc
 50
340.1121199588
 51
5.0
  0
ARC
  5
2F7
330
1F
100
AcDbEntity
  8
PROFILES_INSIDE
100
AcDbCircle
 10
387.5634066576
 20
78.9013043697
 30
0.0
 40
5.170000000000046
100
AcDbArc
 50
160.1121199588
 51
347.399543816
  0
ARC
  5
2F8
330
1F
100
AcDbEntity
  8
PROFILES_INSIDE
100
AcDbCircle
 10
393.5848023623
 20
77.5553126284
 30
0.0
 40
1.000000000000003
100
AcDbArc
 50
95.0000509005
 51
167.399543816
  0
ARC
  5
2F9
330
1F
100
AcDbEntity
  8
PROFILES_INSIDE
100
AcDbCircle
 10
397.6130515112
 20
77.9077423688
 30
0.0
 40
0.9999999999999843
100
AcDbArc
 50
22.6004773877
 51
95.0000509005
  0
ARC
  5
2FA
330
1F
100
AcDbEntity
  8
PROFILES_INSIDE
100
AcDbCircle
 10
65.0697941981
 20
53.2932949101
 30
0.0
 40
0.9999999999999187
100
AcDbArc
 50
340.1121199588
 51
5.0
  0
ARC
  5
2FB
330
1F
100
AcDbEntity
  8
PROFILES_INSIDE
100
AcDbCircle
 10
70.8718160617
 20
51.1943803585
 30
0.0
 40
5.170000000000035
100
AcDbArc
 50
160.1121199588
 51
347.399543816
  0
ARC
  5
2FC
330
1F
100
AcDbEntity
  8
PROFILES_INSIDE
100
AcDbCircle
 10
76.8932117664
 20
49.8483886172
 30
0.0
 40
0.9999999999999808
100
AcDbArc
 50
95.0000509005
 51
167.399543816
  0
ARC
  5
2FD
330
1F
100
AcDbEntity
  8
PROFILES_INSIDE
100
AcDbCircle
 10
80.9214609152
 20
50.2008183576
 30
0.0
 40
1.00000000000001
100
AcDbArc
 50
22.6004773877
 51
95.0000509005
  0
ARC
  5
2FE
330
1F
100
AcDbEntity
  8
PROFILES_INSIDE
100
AcDbCircle
 10
86.6176481986
 20
52.5719679591
 30
0.0
 40
5.170000000000027
100
AcDbArc
 50
202.6004773877
 51
29.8879040116
  0
ARC
  5
2FF
330
1F
100
AcDbEntity
  8
PROFILES_INSIDE
100
AcDbCircle
 10
91.9670503398
 20
55.6465080438
 30
0.0
 40
1.00000000000002
100
AcDbArc
 50
185.0
 51
209.8879040116
  0
ARC
  5
300
330
1F
100
AcDbEntity
  8
PROFILES_INSIDE
100
AcDbCircle
 10
90.9721662266
 20
67.0185071929
 30
0.0
 40
1.000036753616304
100
AcDbArc
 50
160.1121952728
 51
185.0
  0
ARC
  5
301
330
1F
100
AcDbEntity
  8
PROFILES_INSIDE
100
AcDbCircle
 10
85.1701070424
 20
69.1174266207
 30
0.0
 40
5.170000000000107
100
AcDbArc
 50
340.1121952728
 51
167.399543816
  0
ARC
  5
302
330
1F
100
AcDbEntity
  8
PROFILES_INSIDE
100
AcDbCircle
 10
79.1487113377
 20
70.463418362
 30
0.0
 40
0.9999999999999818
100
AcDbArc
 50
275.0000509005
 51
347.399543816
  0
ARC
  5
303
330
1F
100
AcDbEntity
  8
PROFILES_INSIDE
100
AcDbCircle
 10
75.1204621889
 20
70.1109886216
 30
0.0
 40
1.000000123949367
100
AcDbArc
 50
202.6004773877
 51
275.0000509005
  0
ARC
  5
304
330
1F
100
AcDbEntity
  8
PROFILES_INSIDE
100
AcDbCircle
 10
69.4242749055
 20
67.7398390201
 30
0.0
 40
5.169999876050557
100
AcDbArc
 50
22.6004773877
 51
209.8878356916
  0
ARC
  5
305
330
1F
100
AcDbEntity
  8
PROFILES_INSIDE
100
AcDbCircle
 10
64.0748720575
 20
64.6653070149
 30
0.0
 40
0.9999985700005097
100
AcDbArc
 50
5.0
 51
29.8878356916
  0
ARC
  5
306
330
1F
100
AcDbEntity
  8
PROFILES_INSIDE
100
AcDbCircle
 10
837.0930500543
 20
908.7408654212
 30
0.0
 40
1.000000000000032
100
AcDbArc
 50
265.0000509005
 51
337.399543816
  0
ARC
  5
307
330
1F
100
AcDbEntity
  8
PROFILES_INSIDE
100
AcDbCircle
 10
842.7892382152
 20
906.3697179278
 30
0.0
 40
5.170000000000064
100
AcDbArc
 50
330.1121952728
 51
157.399543816
  0
ARC
  5
308
330
1F
100
AcDbEntity
  8
PROFILES_INSIDE
100
AcDbCircle
 10
848.1386775494
 20
903.2951687983
 30
0.0
 40
1.000036753616217
100
AcDbArc
 50
150.1121952728
 51
175.0
  0
ARC
  5
309
330
1F
100
AcDbEntity
  8
PROFILES_INSIDE
100
AcDbCircle
 10
847.1437202088
 20
891.9231760558
 30
0.0
 40
0.9999999999999535
100
AcDbArc
 50
175.0
 51
199.8879040116
  0
ARC
  5
30A
330
1F
100
AcDbEntity
  8
PROFILES_INSIDE
100
AcDbCircle
 10
841.3416992233
 20
889.8242590768
 30
0.0
 40
5.169999999999985
100
AcDbArc
 50
192.6004773877
 51
19.8879040116
  0
ARC
  5
30B
330
1F
100
AcDbEntity
  8
PROFILES_INSIDE
100
AcDbCircle
 10
835.3203040168
 20
888.4782651072
 30
0.0
 40
1.000000000000125
100
AcDbArc
 50
12.6004773877
 51
85.0000509005
  0
ARC
  5
30C
330
1F
100
AcDbEntity
  8
PROFILES_INSIDE
100
AcDbCircle
 10
831.2920542417
 20
888.8306876903
 30
0.0
 40
1.000000000000058
100
AcDbArc
 50
85.0000509005
 51
157.399543816
  0
ARC
  5
30D
330
1F
100
AcDbEntity
  8
PROFILES_INSIDE
100
AcDbCircle
 10
825.5958660808
 20
891.2018351837
 30
0.0
 40
5.170000000000064
100
AcDbArc
 50
150.1121199588
 51
337.399543816
  0
ARC
  5
30E
330
1F
100
AcDbEntity
  8
PROFILES_INSIDE
100
AcDbCircle
 10
820.2464626534
 20
894.2763730305
 30
0.0
 40
1.000000000000053
100
AcDbArc
 50
330.1121199588
 51
355.0
  0
ARC
  5
30F
330
1F
100
AcDbEntity
  8
PROFILES_INSIDE
100
AcDbCircle
 10
821.2413847941
 20
905.6483851352
 30
0.0
 40
0.9999985700006834
100
AcDbArc
 50
355.0
 51
19.8878356916
  0
ARC
  5
310
330
1F
100
AcDbEntity
  8
PROFILES_INSIDE
100
AcDbCircle
 10
827.0434050726
 20
907.7472940347
 30
0.0
 40
5.169998636556886
100
AcDbArc
 50
12.6004773877
 51
199.8878356916
  0
ARC
  5
311
330
1F
100
AcDbEntity
  8
PROFILES_INSIDE
100
AcDbCircle
 10
833.0648002792
 20
909.0932880044
 30
0.0
 40
1.000001363443112
100
AcDbArc
 50
192.6004773877
 51
265.0000509005
  0
ARC
  5
312
330
1F
100
AcDbEntity
  8
PROFILES_INSIDE
100
AcDbCircle
 10
531.5911367069
 20
930.989490089
 30
0.0
 40
1.000036753616296
100
AcDbArc
 50
150.1121952728
 51
175.0
  0
ARC
  5
313
330
1F
100
AcDbEntity
  8
PROFILES_INSIDE
100
AcDbCircle
 10
526.2416973726
 20
934.0640392185
 30
0.0
 40
5.17000000000002
100
AcDbArc
 50
330.1121952728
 51
157.399543816
  0
ARC
  5
314
330
1F
100
AcDbEntity
  8
PROFILES_INSIDE
100
AcDbCircle
 10
520.5455092117
 20
936.4351867119
 30
0.0
 40
1.000000000000101
100
AcDbArc
 50
265.0000509005
 51
337.399543816
  0
ARC
  5
315
330
1F
100
AcDbEntity
  8
PROFILES_INSIDE
100
AcDbCircle
 10
516.5172594366
 20
936.7876092951
 30
0.0
 40
1.000000743696374
100
AcDbArc
 50
192.6004773877
 51
265.0000509005
  0
ARC
  5
316
330
1F
100
AcDbEntity
  8
PROFILES_INSIDE
100
AcDbCircle
 10
510.4958642301
 20
935.4416153254
 30
0.0
 40
5.16999925630376
100
AcDbArc
 50
12.6004773877
 51
199.8878356916
  0
ARC
  5
317
330
1F
100
AcDbEntity
  8
PROFILES_INSIDE
100
AcDbCircle
 10
504.6938439515
 20
933.342706426
 30
0.0
 40
0.999998446051293
100
AcDbArc
 50
355.0
 51
19.8878356916
  0
ARC
  5
318
330
1F
100
AcDbEntity
  8
PROFILES_INSIDE
100
AcDbCircle
 10
503.6989218108
 20
921.9706943212
 30
0.0
 40
1.000000000000123
100
AcDbArc
 50
330.1121199588
 51
355.0
  0
ARC
  5
319
330
1F
100
AcDbEntity
  8
PROFILES_INSIDE
100
AcDbCircle
 10
509.0483252382
 20
918.8961564745
 30
0.0
 40
5.170000000000055
100
AcDbArc
 50
150.1121199588
 51
337.399543816
  0
ARC
  5
31A
330
1F
100
AcDbEntity
  8
PROFILES_INSIDE
100
AcDbCircle
 10
514.7445133991
 20
916.525008981
 30
0.0
 40
1.000000000000032
100
AcDbArc
 50
85.0000509005
 51
157.399543816
  0
ARC
  5
31B
330
1F
100
AcDbEntity
  8
PROFILES_INSIDE
100
AcDbCircle
 10
518.7727631742
 20
916.1725863979
 30
0.0
 40
1.000000000000125
100
AcDbArc
 50
12.6004773877
 51
85.0000509005
  0
ARC
  5
31C
330
1F
100
AcDbEntity
  8
PROFILES_INSIDE
100
AcDbCircle
 10
524.7941583807
 20
917.5185803675
 30
0.0
 40
5.170000000000009
100
AcDbArc
 50
192.6004773877
 51
19.8879040116
  0
ARC
  5
31D
330
1F
100
AcDbEntity
  8
PROFILES_INSIDE
100
AcDbCircle
 10
530.5961793662
 20
919.6174973465
 30
0.0
 40
0.999999999999923
100
AcDbArc
 50
175.0
 51
199.8879040116
  0
ARC
  5
31E
330
1F
100
AcDbEntity
  8
PROFILES_INSIDE
100
AcDbCircle
 10
842.7892387946
 20
80.2788919702
 30
0.0
 40
5.170000000000088
100
AcDbArc
 50
202.6004773877
 51
29.8879040116
  0
ARC
  5
31F
330
1F
100
AcDbEntity
  8
PROFILES_INSIDE
100
AcDbCircle
 10
848.1386409357
 20
83.3534320549
 30
0.0
 40
0.9999999999999521
100
AcDbArc
 50
185.0
 51
209.8879040116
  0
ARC
  5
320
330
1F
100
AcDbEntity
  8
PROFILES_INSIDE
100
AcDbCircle
 10
847.1437568225
 20
94.725431204
 30
0.0
 40
1.000036753616189
100
AcDbArc
 50
160.1121952728
 51
185.0
  0
ARC
  5
321
330
1F
100
AcDbEntity
  8
PROFILES_INSIDE
100
AcDbCircle
 10
841.3416976384
 20
96.8243506318
 30
0.0
 40
5.170000000000113
100
AcDbArc
 50
340.1121952728
 51
167.399543816
  0
ARC
  5
322
330
1F
100
AcDbEntity
  8
PROFILES_INSIDE
100
AcDbCircle
 10
835.3203019337
 20
98.1703423731
 30
0.0
 40
0.9999999999999744
100
AcDbArc
 50
275.0000509005
 51
347.399543816
  0
ARC
  5
323
330
1F
100
AcDbEntity
  8
PROFILES_INSIDE
100
AcDbCircle
 10
831.2920527848
 20
97.8179126327
 30
0.0
 40
1.000000619746847
100
AcDbArc
 50
202.6004773877
 51
275.0000509005
  0
ARC
  5
324
330
1F
100
AcDbEntity
  8
PROFILES_INSIDE
100
AcDbCircle
 10
825.5958655014
 20
95.4467630313
 30
0.0
 40
5.169999380253222
100
AcDbArc
 50
22.6004773877
 51
209.8878356916
  0
ARC
  5
325
330
1F
100
AcDbEntity
  8
PROFILES_INSIDE
100
AcDbCircle
 10
820.2464626534
 20
92.372231026
 30
0.0
 40
0.9999983221017968
100
AcDbArc
 50
5.0
 51
29.8878356916
  0
ARC
  5
326
330
1F
100
AcDbEntity
  8
PROFILES_INSIDE
100
AcDbCircle
 10
821.2413847941
 20
81.0002189213
 30
0.0
 40
1.000000000000139
100
AcDbArc
 50
340.1121199588
 51
5.0
  0
ARC
  5
327
330
1F
100
AcDbEntity
  8
PROFILES_INSIDE
100
AcDbCircle
 10
827.0434066576
 20
78.9013043697
 30
0.0
 40
5.169999999999989
100
AcDbArc
 50
160.1121199588
 51
347.399543816
  0
ARC
  5
328
330
1F
100
AcDbEntity
  8
PROFILES_INSIDE
100
AcDbCircle
 10
833.0648023623
 20
77.5553126284
 30
0.0
 40
1.000000000000078
100
AcDbArc
 50
95.0000509005
 51
167.399543816
  0
ARC
  5
329
330
1F
100
AcDbEntity
  8
PROFILES_INSIDE
100
AcDbCircle
 10
837.0930515112
 20
77.9077423688
 30
0.0
 40
1.000000000000124
100
AcDbArc
 50
22.6004773877
 51
95.0000509005
  0
ARC
  5
32A
330
1F
100
AcDbEntity
  8
PROFILES_INSIDE
100
AcDbCircle
 10
504.6938439515
 20
53.3058976305
 30
0.0
 40
1.000000000000122
100
AcDbArc
 50
340.1121199588
 51
5.0
  0
ARC
  5
32B
330
1F
100
AcDbEntity
  8
PROFILES_INSIDE
100
AcDbCircle
 10
510.495865815
 20
51.2069830789
 30
0.0
 40
5.170000000000068
100
AcDbArc
 50
160.1121199588
 51
347.399543816
  0
ARC
  5
32C
330
1F
100
AcDbEntity
  8
PROFILES_INSIDE
100
AcDbCircle
 10
516.5172615197
 20
49.8609913376
 30
0.0
 40
0.9999999999999913
100
AcDbArc
 50
95.0000509005
 51
167.399543816
  0
ARC
  5
32D
330
1F
100
AcDbEntity
  8
PROFILES_INSIDE
100
AcDbCircle
 10
520.5455106686
 20
50.213421078
 30
0.0
 40
1.000000000000107
100
AcDbArc
 50
22.6004773877
 51
95.0000509005
  0
ARC
  5
32E
330
1F
100
AcDbEntity
  8
PROFILES_INSIDE
100
AcDbCircle
 10
526.241697952
 20
52.5845706795
 30
0.0
 40
5.170000000000116
100
AcDbArc
 50
202.6004773877
 51
29.8879040116
  0
ARC
  5
32F
330
1F
100
AcDbEntity
  8
PROFILES_INSIDE
100
AcDbCircle
 10
531.5911000931
 20
55.6591107642
 30
0.0
 40
1.000000000000066
100
AcDbArc
 50
185.0
 51
209.8879040116
  0
ARC
  5
330
330
1F
100
AcDbEntity
  8
PROFILES_INSIDE
100
AcDbCircle
 10
530.5962159799
 20
67.0311099133
 30
0.0
 40
1.000036753616202
100
AcDbArc
 50
160.1121952728
 51
185.0
  0
ARC
  5
331
330
1F
100
AcDbEntity
  8
PROFILES_INSIDE
100
AcDbCircle
 10
524.7941567958
 20
69.1300293411
 30
0.0
 40
5.170000000000006
100
AcDbArc
 50
340.1121952728
 51
167.399543816
  0
ARC
  5
332
330
1F
100
AcDbEntity
  8
PROFILES_INSIDE
100
AcDbCircle
 10
518.7727610911
 20
70.4760210824
 30
0.0
 40
1.000000000000078
100
AcDbArc
 50
275.0000509005
 51
347.399543816
  0
ARC
  5
333
330
1F
100
AcDbEntity
  8
PROFILES_INSIDE
100
AcDbCircle
 10
514.7445119422
 20
70.123591342
 30
0.0
 40
1.000000123949402
100
AcDbArc
 50
202.6004773877
 51
275.0000509005
  0
ARC
  5
334
330
1F
100
AcDbEntity
  8
PROFILES_INSIDE
100
AcDbCircle
 10
509.0483246588
 20
67.7524417405
 30
0.0
 40
5.169999876050719
100
AcDbArc
 50
22.6004773877
 51
209.8878356916
  0
ARC
  5
335
330
1F
100
AcDbEntity
  8
PROFILES_INSIDE
100
AcDbCircle
 10
503.6989218108
 20
64.6779097353
 30
0.0
 40
0.999998570000623
100
AcDbArc
 50
5.0
 51
29.8878356916
  0
ARC
  5
336
330
1F
100
AcDbEntity
  8
PROFILES_OUTSIDE
100
AcDbCircle
 10
471.4282800697
 20
948.5922949706
 30
0.0
 40
6.000000000000045
100
AcDbArc
 50
85.0
 51
180.0
  0
ARC
  5
337
330
1F
100
AcDbEntity
  8
PROFILES_OUTSIDE
100
AcDbCircle
 10
867.4282800697
 20
913.9467842143
 30
0.0
 40
6.0
100
AcDbArc
 50
360.0
 51
85.0
  0
ARC
  5
338
330
1F
100
AcDbEntity
  8
PROFILES_OUTSIDE
100
AcDbCircle
 10
867.4282800697
 20
844.4793690455
 30
0.0
 40
6.0
100
AcDbArc
 50
280.0
 51
0.0
  0
ARC
  5
339
330
1F
100
AcDbEntity
  8
PROFILES_OUTSIDE
100
AcDbCircle
 10
859.4282800697
 20
830.8836338572
 30
0.0
 40
6.0
100
AcDbArc
 50
100.0
 51
180.0
  0
ARC
  5
33A
330
1F
100
AcDbEntity
  8
PROFILES_OUTSIDE
100
AcDbCircle
 10
859.4282800697
 20
155.7649701993
 30
0.0
 40
6.0
100
AcDbArc
 50
180.0
 51
260.0
  0
ARC
  5
33B
330
1F
100
AcDbEntity
  8
PROFILES_OUTSIDE
100
AcDbCircle
 10
867.4282800697
 20
142.169235011
 30
0.0
 40
6.0
100
AcDbArc
 50
0.0
 51
80.0
  0
ARC
  5
33C
330
1F
100
AcDbEntity
  8
PROFILES_OUTSIDE
100
AcDbCircle
 10
867.4282800697
 20
72.7018198421
 30
0.0
 40
6.0
100
AcDbArc
 50
275.0
 51
0.0
  0
ARC
  5
33D
330
1F
100
AcDbEntity
  8
PROFILES_OUTSIDE
100
AcDbCircle
 10
471.4282800697
 20
38.0563090859
 30
0.0
 40
6.000000000000073
100
AcDbArc
 50
180.0
 51
275.0
  0
ARC
  5
33E
330
1F
100
AcDbEntity
  8
PROFILES_OUTSIDE
100
AcDbCircle
 10
1709.9182800697
 20
360.974563296
 30
0.0
 40
12.00000000000006
100
AcDbArc
 50
90.0
 51
180.0
  0
ARC
  5
33F
330
1F
100
AcDbEntity
  8
PROFILES_OUTSIDE
100
AcDbCircle
 10
1709.9182800697
 20
67.0732622726
 30
0.0
 40
12.00000000000023
100
AcDbArc
 50
180.0
 51
270.0
  0
ARC
  5
340
330
1F
100
AcDbEntity
  8
PROFILES_OUTSIDE
100
AcDbCircle
 10
1802.8682800697
 20
37.3232622726
 30
0.0
 40
1.0
100
AcDbArc
 50
270.0
 51
0.0
  0
ARC
  5
341
330
1F
100
AcDbEntity
  8
PROFILES_OUTSIDE
100
AcDbCircle
 10
1511.4663259768
 20
386.474563296
 30
0.0
 40
1.0
100
AcDbArc
 50
183.6619355755
 51
270.0
  0
ARC
  5
342
330
1F
100
AcDbEntity
  8
PROFILES_OUTSIDE
100
AcDbCircle
 10
1525.4060016863
 20
384.474563296
 30
0.0
 40
1.0
100
AcDbArc
 50
65.1121079736
 51
90.0
  0
ARC
  5
343
330
1F
100
AcDbEntity
  8
PROFILES_OUTSIDE
100
AcDbCircle
 10
1528.0026099301
 20
390.0715737148
 30
0.0
 40
5.169999999999933
100
AcDbArc
 50
245.1121079736
 51
72.3995332141
  0
ARC
  5
344
330
1F
100
AcDbEntity
  8
PROFILES_OUTSIDE
100
AcDbCircle
 10
1529.8682800697
 20
395.9527449357
 30
0.0
 40
1.000000000000227
100
AcDbArc
 50
180.0
 51
252.3995332141
  0
ARC
  5
345
330
1F
100
AcDbEntity
  8
PROFILES_OUTSIDE
100
AcDbCircle
 10
1616.8682800697
 20
385.976563296
 30
0.0
 40
12.0
100
AcDbArc
 50
0.0
 51
90.0
  0
ARC
  5
346
330
1F
100
AcDbEntity
  8
PROFILES_OUTSIDE
100
AcDbCircle
 10
1640.8682800697
 20
283.3414629549
 30
0.0
 40
12.0
100
AcDbArc
 50
180.0
 51
270.0
  0
ARC
  5
347
330
1F
100
AcDbEntity
  8
PROFILES_OUTSIDE
100
AcDbCircle
 10
1666.8682800697
 20
283.3414629549
 30
0.0
 40
12.0
100
AcDbArc
 50
270.0
 51
0.0
  0
ARC
  5
348
330
1F
100
AcDbEntity
  8
PROFILES_OUTSIDE
100
AcDbCircle
 10
1690.8682800697
 20
385.976563296
 30
0.0
 40
12.0
100
AcDbArc
 50
90.0
 51
180.0
  0
ARC
  5
349
330
1F
100
AcDbEntity
  8
PROFILES_OUTSIDE
100
AcDbCircle
 10
1777.8682800697
 20
395.9527449357
 30
0.0
 40
1.000000000000045
100
AcDbArc
 50
287.6004667859
 51
0.0
  0
ARC
  5
34A
330
1F
100
AcDbEntity
  8
PROFILES_OUTSIDE
100
AcDbCircle
 10
1779.7339502093
 20
390.0715737148
 30
0.0
 40
5.169999999999925
100
AcDbArc
 50
107.6004667859
 51
294.8878920264
  0
ARC
  5
34B
330
1F
100
AcDbEntity
  8
PROFILES_OUTSIDE
100
AcDbCircle
 10
1782.3305584531
 20
384.474563296
 30
0.0
 40
1.000000000000114
100
AcDbArc
 50
90.0
 51
114.8878920264
  0
ARC
  5
34C
330
1F
100
AcDbEntity
  8
PROFILES_OUTSIDE
100
AcDbCircle
 10
1796.2702341626
 20
386.474563296
 30
0.0
 40
0.9999999999999432
100
AcDbArc
 50
270.0
 51
356.3380644245
  0
ARC
  5
34D
330
1F
100
AcDbEntity
  8
PROFILES_OUTSIDE
100
AcDbCircle
 10
1797.8682800697
 20
378.974563296
 30
0.0
 40
6.000000000000057
100
AcDbArc
 50
270.0
 51
0.0
  0
ARC
  5
34E
330
1F
100
AcDbEntity
  8
PROFILES_OUTSIDE
100
AcDbCircle
 10
1504.8682800697
 20
37.3232622726
 30
0.0
 40
1.0
100
AcDbArc
 50
180.0
 51
270.0
  0
ARC
  5
34F
330
1F
100
AcDbEntity
  8
PROFILES_OUTSIDE
100
AcDbCircle
 10
1678.8682800697
 20
271.3414629549
 30
0.0
 40
19.04999999999995
100
AcDbArc
 50
300.0
 51
0.0
  0
ARC
  5
350
330
1F
100
AcDbEntity
  8
PROFILES_OUTSIDE
100
AcDbCircle
 10
1697.9182800697
 20
238.3458950707
 30
0.0
 40
19.05000000000001
100
AcDbArc
 50
120.0
 51
180.0
  0
ARC
  5
351
330
1F
100
AcDbEntity
  8
PROFILES_OUTSIDE
100
AcDbCircle
 10
1697.9182800697
 20
189.7019304979
 30
0.0
 40
19.05000000000015
100
AcDbArc
 50
180.0
 51
240.0
  0
ARC
  5
352
330
1F
100
AcDbEntity
  8
PROFILES_OUTSIDE
100
AcDbCircle
 10
1678.8682800697
 20
156.7063626137
 30
0.0
 40
19.04999999999995
100
AcDbArc
 50
0.0
 51
60.0
  0
ARC
  5
353
330
1F
100
AcDbEntity
  8
PROFILES_OUTSIDE
100
AcDbCircle
 10
1797.8682800697
 20
49.0732622726
 30
0.0
 40
6.000000000000114
100
AcDbArc
 50
0.0
 51
90.0
  0
ARC
  5
354
330
1F
100
AcDbEntity
  8
PROFILES_OUTSIDE
100
AcDbCircle
 10
1597.8182800697
 20
67.0732622726
 30
0.0
 40
12.0
100
AcDbArc
 50
270.0
 51
0.0
  0
ARC
  5
355
330
1F
100
AcDbEntity
  8
PROFILES_OUTSIDE
100
AcDbCircle
 10
1796.2702341626
 20
41.5732622726
 30
0.0
 40
1.0
100
AcDbArc
 50
3.6619355755
 51
90.0
  0
ARC
  5
356
330
1F
100
AcDbEntity
  8
PROFILES_OUTSIDE
100
AcDbCircle
 10
1782.3305584531
 20
43.5732622726
 30
0.0
 40
1.0
100
AcDbArc
 50
245.1121079736
 51
270.0
  0
ARC
  5
357
330
1F
100
AcDbEntity
  8
PROFILES_OUTSIDE
100
AcDbCircle
 10
1779.7339502093
 20
37.9762518538
 30
0.0
 40
5.170000000000016
100
AcDbArc
 50
65.1121079736
 51
252.3995332141
  0
ARC
  5
358
330
1F
100
AcDbEntity
  8
PROFILES_OUTSIDE
100
AcDbCircle
 10
1777.8682800697
 20
32.0950806329
 30
0.0
 40
0.9999999999999638
100
AcDbArc
 50
0.0
 51
72.3995332141
  0
ARC
  5
359
330
1F
100
AcDbEntity
  8
PROFILES_OUTSIDE
100
AcDbCircle
 10
1690.8682800697
 20
42.0712622726
 30
0.0
 40
12.00000000000001
100
AcDbArc
 50
180.0
 51
270.0
  0
ARC
  5
35A
330
1F
100
AcDbEntity
  8
PROFILES_OUTSIDE
100
AcDbCircle
 10
1666.8682800697
 20
144.7063626137
 30
0.0
 40
12.0
100
AcDbArc
 50
0.0
 51
90.0
  0
ARC
  5
35B
330
1F
100
AcDbEntity
  8
PROFILES_OUTSIDE
100
AcDbCircle
 10
1640.8682800697
 20
144.7063626137
 30
0.0
 40
12.0
100
AcDbArc
 50
90.0
 51
180.0
  0
ARC
  5
35C
330
1F
100
AcDbEntity
  8
PROFILES_OUTSIDE
100
AcDbCircle
 10
1616.8682800697
 20
42.0712622726
 30
0.0
 40
12.00000000000001
100
AcDbArc
 50
270.0
 51
0.0
  0
ARC
  5
35D
330
1F
100
AcDbEntity
  8
PROFILES_OUTSIDE
100
AcDbCircle
 10
1529.8682800697
 20
32.0950806329
 30
0.0
 40
1.000000000000227
100
AcDbArc
 50
107.6004667859
 51
180.0
  0
ARC
  5
35E
330
1F
100
AcDbEntity
  8
PROFILES_OUTSIDE
100
AcDbCircle
 10
1528.0026099301
 20
37.9762518538
 30
0.0
 40
5.170000000000017
100
AcDbArc
 50
287.6004667859
 51
114.8878920264
  0
ARC
  5
35F
330
1F
100
AcDbEntity
  8
PROFILES_OUTSIDE
100
AcDbCircle
 10
1525.4060016863
 20
43.5732622726
 30
0.0
 40
1.000000000000082
100
AcDbArc
 50
270.0
 51
294.8878920264
  0
ARC
  5
360
330
1F
100
AcDbEntity
  8
PROFILES_OUTSIDE
100
AcDbCircle
 10
1511.4663259768
 20
41.5732622726
 30
0.0
 40
1.0
100
AcDbArc
 50
90.0
 51
176.3380644245
  0
ARC
  5
361
330
1F
100
AcDbEntity
  8
PROFILES_OUTSIDE
100
AcDbCircle
 10
1509.8682800697
 20
49.0732622726
 30
0.0
 40
6.0
100
AcDbArc
 50
90.0
 51
180.0
  0
ARC
  5
362
330
1F
100
AcDbEntity
  8
PROFILES_OUTSIDE
100
AcDbCircle
 10
1597.8182800697
 20
360.974563296
 30
0.0
 40
11.99999999999983
100
AcDbArc
 50
0.0
 51
90.0
  0
ARC
  5
363
330
1F
100
AcDbEntity
  8
PROFILES_OUTSIDE
100
AcDbCircle
 10
1628.8682800697
 20
156.7063626137
 30
0.0
 40
19.05000000000018
100
AcDbArc
 50
120.0
 51
180.0
  0
ARC
  5
364
330
1F
100
AcDbEntity
  8
PROFILES_OUTSIDE
100
AcDbCircle
 10
1609.8182800697
 20
189.7019304979
 30
0.0
 40
19.05000000000018
100
AcDbArc
 50
300.0
 51
0.0
  0
ARC
  5
365
330
1F
100
AcDbEntity
  8
PROFILES_OUTSIDE
100
AcDbCircle
 10
1609.8182800697
 20
238.3458950707
 30
0.0
 40
19.05000000000018
100
AcDbArc
 50
0.0
 51
60.0
  0
ARC
  5
366
330
1F
100
AcDbEntity
  8
PROFILES_OUTSIDE
100
AcDbCircle
 10
1628.8682800697
 20
271.3414629549
 30
0.0
 40
19.05000000000018
100
AcDbArc
 50
180.0
 51
240.0
  0
ARC
  5
367
330
1F
100
AcDbEntity
  8
PROFILES_OUTSIDE
100
AcDbCircle
 10
1509.8682800697
 20
378.974563296
 30
0.0
 40
6.0
100
AcDbArc
 50
180.0
 51
270.0
  0
ARC
  5
368
330
1F
100
AcDbEntity
  8
PROFILES_OUTSIDE
100
AcDbCircle
 10
1504.8682800697
 20
390.724563296
 30
0.0
 40
1.0
100
AcDbArc
 50
90.0
 51
180.0
  0
ARC
  5
369
330
1F
100
AcDbEntity
  8
PROFILES_OUTSIDE
100
AcDbCircle
 10
1504.8682800697
 20
436.704563296
 30
0.0
 40
1.0
100
AcDbArc
 50
180.0
 51
270.0
  0
ARC
  5
36A
330
1F
100
AcDbEntity
  8
PROFILES_OUTSIDE
100
AcDbCircle
 10
1597.8182800697
 20
466.454563296
 30
0.0
 40
12.00000000000006
100
AcDbArc
 50
270.0
 51
0.0
  0
ARC
  5
36B
330
1F
100
AcDbEntity
  8
PROFILES_OUTSIDE
100
AcDbCircle
 10
1597.8182800697
 20
760.3558643193
 30
0.0
 40
12.00000000000023
100
AcDbArc
 50
0.0
 51
90.0
  0
ARC
  5
36C
330
1F
100
AcDbEntity
  8
PROFILES_OUTSIDE
100
AcDbCircle
 10
1504.8682800697
 20
790.1058643193
 30
0.0
 40
1.0
100
AcDbArc
 50
90.0
 51
180.0
  0
ARC
  5
36D
330
1F
100
AcDbEntity
  8
PROFILES_OUTSIDE
100
AcDbCircle
 10
1796.2702341626
 20
440.954563296
 30
0.0
 40
1.0
100
AcDbArc
 50
3.6619355755
 51
90.0
  0
ARC
  5
36E
330
1F
100
AcDbEntity
  8
PROFILES_OUTSIDE
100
AcDbCircle
 10
1782.3305584531
 20
442.954563296
 30
0.0
 40
1.000000000000057
100
AcDbArc
 50
245.1121079736
 51
270.0
  0
ARC
  5
36F
330
1F
100
AcDbEntity
  8
PROFILES_OUTSIDE
100
AcDbCircle
 10
1779.7339502093
 20
437.3575528772
 30
0.0
 40
5.169999999999976
100
AcDbArc
 50
65.1121079736
 51
252.3995332141
  0
ARC
  5
370
330
1F
100
AcDbEntity
  8
PROFILES_OUTSIDE
100
AcDbCircle
 10
1777.8682800697
 20
431.4763816562
 30
0.0
 40
1.000000000000045
100
AcDbArc
 50
0.0
 51
72.3995332141
  0
ARC
  5
371
330
1F
100
AcDbEntity
  8
PROFILES_OUTSIDE
100
AcDbCircle
 10
1690.8682800697
 20
441.452563296
 30
0.0
 40
12.0
100
AcDbArc
 50
180.0
 51
270.0
  0
ARC
  5
372
330
1F
100
AcDbEntity
  8
PROFILES_OUTSIDE
100
AcDbCircle
 10
1666.8682800697
 20
544.0876636371
 30
0.0
 40
12.0
100
AcDbArc
 50
0.0
 51
90.0
  0
ARC
  5
373
330
1F
100
AcDbEntity
  8
PROFILES_OUTSIDE
100
AcDbCircle
 10
1640.8682800697
 20
544.0876636371
 30
0.0
 40
12.0
100
AcDbArc
 50
90.0
 51
180.0
  0
ARC
  5
374
330
1F
100
AcDbEntity
  8
PROFILES_OUTSIDE
100
AcDbCircle
 10
1616.8682800697
 20
441.452563296
 30
0.0
 40
12.0
100
AcDbArc
 50
270.0
 51
0.0
  0
ARC
  5
375
330
1F
100
AcDbEntity
  8
PROFILES_OUTSIDE
100
AcDbCircle
 10
1529.8682800697
 20
431.4763816562
 30
0.0
 40
1.000000000000114
100
AcDbArc
 50
107.6004667859
 51
180.0
  0
ARC
  5
376
330
1F
100
AcDbEntity
  8
PROFILES_OUTSIDE
100
AcDbCircle
 10
1528.0026099301
 20
437.3575528772
 30
0.0
 40
5.169999999999925
100
AcDbArc
 50
287.6004667859
 51
114.8878920264
  0
ARC
  5
377
330
1F
100
AcDbEntity
  8
PROFILES_OUTSIDE
100
AcDbCircle
 10
1525.4060016863
 20
442.954563296
 30
0.0
 40
1.000000000000114
100
AcDbArc
 50
270.0
 51
294.8878920264
  0
ARC
  5
378
330
1F
100
AcDbEntity
  8
PROFILES_OUTSIDE
100
AcDbCircle
 10
1511.4663259768
 20
440.954563296
 30
0.0
 40
1.0
100
AcDbArc
 50
90.0
 51
176.3380644245
  0
ARC
  5
379
330
1F
100
AcDbEntity
  8
PROFILES_OUTSIDE
100
AcDbCircle
 10
1509.8682800697
 20
448.454563296
 30
0.0
 40
6.000000000000057
100
AcDbArc
 50
90.0
 51
180.0
  0
ARC
  5
37A
330
1F
100
AcDbEntity
  8
PROFILES_OUTSIDE
100
AcDbCircle
 10
1802.8682800697
 20
790.1058643193
 30
0.0
 40
1.0
100
AcDbArc
 50
0.0
 51
90.0
  0
ARC
  5
37B
330
1F
100
AcDbEntity
  8
PROFILES_OUTSIDE
100
AcDbCircle
 10
1628.8682800697
 20
556.0876636371
 30
0.0
 40
19.05000000000018
100
AcDbArc
 50
120.0
 51
180.0
  0
ARC
  5
37C
330
1F
100
AcDbEntity
  8
PROFILES_OUTSIDE
100
AcDbCircle
 10
1609.8182800697
 20
589.0832315213
 30
0.0
 40
19.05000000000011
100
AcDbArc
 50
300.0
 51
0.0
  0
ARC
  5
37D
330
1F
100
AcDbEntity
  8
PROFILES_OUTSIDE
100
AcDbCircle
 10
1609.8182800697
 20
637.727196094
 30
0.0
 40
19.05000000000018
100
AcDbArc
 50
0.0
 51
60.0
  0
ARC
  5
37E
330
1F
100
AcDbEntity
  8
PROFILES_OUTSIDE
100
AcDbCircle
 10
1628.8682800697
 20
670.7227639782
 30
0.0
 40
19.05000000000018
100
AcDbArc
 50
180.0
 51
240.0
  0
ARC
  5
37F
330
1F
100
AcDbEntity
  8
PROFILES_OUTSIDE
100
AcDbCircle
 10
1509.8682800697
 20
778.3558643193
 30
0.0
 40
6.0
100
AcDbArc
 50
180.0
 51
270.0
  0
ARC
  5
380
330
1F
100
AcDbEntity
  8
PROFILES_OUTSIDE
100
AcDbCircle
 10
1709.9182800697
 20
760.3558643193
 30
0.0
 40
12.0
100
AcDbArc
 50
90.0
 51
180.0
  0
ARC
  5
381
330
1F
100
AcDbEntity
  8
PROFILES_OUTSIDE
100
AcDbCircle
 10
1511.4663259768
 20
785.8558643193
 30
0.0
 40
1.0
100
AcDbArc
 50
183.6619355755
 51
270.0
  0
ARC
  5
382
330
1F
100
AcDbEntity
  8
PROFILES_OUTSIDE
100
AcDbCircle
 10
1525.4060016863
 20
783.8558643193
 30
0.0
 40
0.999999999999934
100
AcDbArc
 50
65.1121079736
 51
90.0
  0
ARC
  5
383
330
1F
100
AcDbEntity
  8
PROFILES_OUTSIDE
100
AcDbCircle
 10
1528.0026099301
 20
789.4528747381
 30
0.0
 40
5.170000000000028
100
AcDbArc
 50
245.1121079736
 51
72.3995332141
  0
ARC
  5
384
330
1F
100
AcDbEntity
  8
PROFILES_OUTSIDE
100
AcDbCircle
 10
1529.8682800697
 20
795.3340459591
 30
0.0
 40
1.0
100
AcDbArc
 50
180.0
 51
252.3995332141
  0
ARC
  5
385
330
1F
100
AcDbEntity
  8
PROFILES_OUTSIDE
100
AcDbCircle
 10
1616.8682800697
 20
785.3578643193
 30
0.0
 40
12.0
100
AcDbArc
 50
0.0
 51
90.0
  0
ARC
  5
386
330
1F
100
AcDbEntity
  8
PROFILES_OUTSIDE
100
AcDbCircle
 10
1640.8682800697
 20
682.7227639782
 30
0.0
 40
12.0
100
AcDbArc
 50
180.0
 51
270.0
  0
ARC
  5
387
330
1F
100
AcDbEntity
  8
PROFILES_OUTSIDE
100
AcDbCircle
 10
1666.8682800697
 20
682.7227639782
 30
0.0
 40
12.0
100
AcDbArc
 50
270.0
 51
0.0
  0
ARC
  5
388
330
1F
100
AcDbEntity
  8
PROFILES_OUTSIDE
100
AcDbCircle
 10
1690.8682800697
 20
785.3578643193
 30
0.0
 40
12.0
100
AcDbArc
 50
90.0
 51
180.0
  0
ARC
  5
389
330
1F
100
AcDbEntity
  8
PROFILES_OUTSIDE
100
AcDbCircle
 10
1777.8682800697
 20
795.3340459591
 30
0.0
 40
0.9999999999999909
100
AcDbArc
 50
287.6004667859
 51
0.0
  0
ARC
  5
38A
330
1F
100
AcDbEntity
  8
PROFILES_OUTSIDE
100
AcDbCircle
 10
1779.7339502093
 20
789.4528747381
 30
0.0
 40
5.17000000000007
100
AcDbArc
 50
107.6004667859
 51
294.8878920264
  0
ARC
  5
38B
330
1F
100
AcDbEntity
  8
PROFILES_OUTSIDE
100
AcDbCircle
 10
1782.3305584531
 20
783.8558643193
 30
0.0
 40
1.00000000000014
100
AcDbArc
 50
90.0
 51
114.8878920264
  0
ARC
  5
38C
330
1F
100
AcDbEntity
  8
PROFILES_OUTSIDE
100
AcDbCircle
 10
1796.2702341626
 20
785.8558643193
 30
0.0
 40
1.0
100
AcDbArc
 50
270.0
 51
356.3380644245
  0
ARC
  5
38D
330
1F
100
AcDbEntity
  8
PROFILES_OUTSIDE
100
AcDbCircle
 10
1797.8682800697
 20
778.3558643193
 30
0.0
 40
6.0
100
AcDbArc
 50
270.0
 51
0.0
  0
ARC
  5
38E
330
1F
100
AcDbEntity
  8
PROFILES_OUTSIDE
100
AcDbCircle
 10
1709.9182800697
 20
466.454563296
 30
0.0
 40
11.99999999999989
100
AcDbArc
 50
180.0
 51
270.0
  0
ARC
  5
38F
330
1F
100
AcDbEntity
  8
PROFILES_OUTSIDE
100
AcDbCircle
 10
1678.8682800697
 20
670.7227639782
 30
0.0
 40
19.04999999999995
100
AcDbArc
 50
300.0
 51
0.0
  0
ARC
  5
390
330
1F
100
AcDbEntity
  8
PROFILES_OUTSIDE
100
AcDbCircle
 10
1697.9182800697
 20
637.727196094
 30
0.0
 40
19.05000000000001
100
AcDbArc
 50
120.0
 51
180.0
  0
ARC
  5
391
330
1F
100
AcDbEntity
  8
PROFILES_OUTSIDE
100
AcDbCircle
 10
1697.9182800697
 20
589.0832315213
 30
0.0
 40
19.05000000000011
100
AcDbArc
 50
180.0
 51
240.0
  0
ARC
  5
392
330
1F
100
AcDbEntity
  8
PROFILES_OUTSIDE
100
AcDbCircle
 10
1678.8682800697
 20
556.0876636371
 30
0.0
 40
19.04999999999995
100
AcDbArc
 50
0.0
 51
60.0
  0
ARC
  5
393
330
1F
100
AcDbEntity
  8
PROFILES_OUTSIDE
100
AcDbCircle
 10
1797.8682800697
 20
448.454563296
 30
0.0
 40
5.999999999999943
100
AcDbArc
 50
0.0
 51
90.0
  0
ARC
  5
394
330
1F
100
AcDbEntity
  8
PROFILES_OUTSIDE
100
AcDbCircle
 10
1802.8682800697
 20
436.704563296
 30
0.0
 40
1.000000000000227
100
AcDbArc
 50
270.0
 51
0.0
  0
ENDSEC
  0
SECTION
  2
OBJECTS
  0
DICTIONARY
  5
C
330
0
100
AcDbDictionary
  3
ACAD_GROUP
350
D
  3
ACAD_MLINESTYLE
350
17
  3
ACAD_SCALELIST
350
47
  0
DICTIONARY
  5
D
102
{ACAD_REACTORS
330
C
102
}
330
C
100
AcDbDictionary
  0
DICTIONARY
  5
17
102
{ACAD_REACTORS
330
C
102
}
330
C
100
AcDbDictionary
  3
STANDARD
350
18
  0
DICTIONARY
  5
47
102
{ACAD_REACTORS
330
C
102
}
330
C
100
AcDbDictionary
  0
MLINESTYLE
  5
18
102
{ACAD_REACTORS
330
17
102
}
330
17
100
AcDbMlineStyle
  2
Standard
 70
     0
  3

 62
   256
 51
90.0
 52
90.0
 71
     2
 49
0.5
 62
   256
  6
BYLAYER
 49
-0.5
 62
   256
  6
BYLAYER
  0
ENDSEC
  0
EOF
