  0
SECTION
  2
HEADER
  9
$ACADVER
  1
AC1014
  9
$ACADMAINTVER
 70
     9
  9
$DWGCODEPAGE
  3
ANSI_1252
  9
$INSBASE
 10
0.0
 20
0.0
 30
0.0
  9
$EXTMIN
 10
0.0
 20
0.0
 30
0.0
  9
$EXTMAX
 10
96.062992126
 20
48.031496063
 30
0.0
  9
$LIMMIN
 10
0.0
 20
0.0
  9
$LIMMAX
 10
96.062992126
 20
48.031496063
  9
$ORTHOMODE
 70
     0
  9
$REGENMODE
 70
     1
  9
$FILLMODE
 70
     1
  9
$QTEXTMODE
 70
     0
  9
$MIRRTEXT
 70
     1
  9
$DRAGMODE
 70
     2
  9
$LTSCALE
 40
1.0
  9
$OSMODE
 70
    37
  9
$ATTMODE
 70
     1
  9
$TEXTSIZE
 40
0.1377952756
  9
$TRACEWID
 40
0.05
  9
$TEXTSTYLE
  7
STANDARD
  9
$CLAYER
  8
0
  9
$CELTYPE
  6
BYLAYER
  9
$CECOLOR
 62
   256
  9
$CELTSCALE
 40
1.0
  9
$DELOBJ
 70
     1
  9
$DISPSILH
 70
     0
  9
$DIMSCALE
 40
1.0
  9
$DIMASZ
 40
0.13
  9
$DIMEXO
 40
0.0393700787
  9
$DIMDLI
 40
0.38
  9
$DIMRND
 40
0.0
  9
$DIMDLE
 40
0.0
  9
$DIMEXE
 40
0.0393700787
  9
$DIMTP
 40
0.0
  9
$DIMTM
 40
0.0
  9
$DIMTXT
 40
0.1805555556
  9
$DIMCEN
 40
0.09
  9
$DIMTSZ
 40
0.0
  9
$DIMTOL
 70
     0
  9
$DIMLIM
 70
     0
  9
$DIMTIH
 70
     1
  9
$DIMTOH
 70
     1
  9
$DIMSE1
 70
     0
  9
$DIMSE2
 70
     0
  9
$DIMTAD
 70
     1
  9
$DIMZIN
 70
     0
  9
$DIMBLK
  1

  9
$DIMASO
 70
     1
  9
$DIMSHO
 70
     1
  9
$DIMPOST
  1

  9
$DIMAPOST
  1

  9
$DIMALT
 70
     0
  9
$DIMALTD
 70
     2
  9
$DIMALTF
 40
25.4
  9
$DIMLFAC
 40
1.0
  9
$DIMTOFL
 70
     0
  9
$DIMTVP
 40
0.0
  9
$DIMTIX
 70
     0
  9
$DIMSOXD
 70
     0
  9
$DIMSAH
 70
     0
  9
$DIMBLK1
  1

  9
$DIMBLK2
  1

  9
$DIMSTYLE
  2
STANDARD
  9
$DIMCLRD
 70
     0
  9
$DIMCLRE
 70
     0
  9
$DIMCLRT
 70
     0
  9
$DIMTFAC
 40
1.0
  9
$DIMGAP
 40
0.06
  9
$DIMJUST
 70
     0
  9
$DIMSD1
 70
     0
  9
$DIMSD2
 70
     0
  9
$DIMTOLJ
 70
     1
  9
$DIMTZIN
 70
     0
  9
$DIMALTZ
 70
     0
  9
$DIMALTTZ
 70
     0
  9
$DIMFIT
 70
     3
  9
$DIMUPT
 70
     0
  9
$DIMUNIT
 70
     2
  9
$DIMDEC
 70
     2
  9
$DIMTDEC
 70
     2
  9
$DIMALTU
 70
     2
  9
$DIMALTTD
 70
     2
  9
$DIMTXSTY
  7
STANDARD
  9
$DIMAUNIT
 70
     0
  9
$LUNITS
 70
     2
  9
$LUPREC
 70
     2
  9
$SKETCHINC
 40
0.1
  9
$FILLETRAD
 40
0.5
  9
$AUNITS
 70
     0
  9
$AUPREC
 70
     2
  9
$MENU
  1
.
  9
$ELEVATION
 40
0.0
  9
$PELEVATION
 40
0.0
  9
$THICKNESS
 40
0.0
  9
$LIMCHECK
 70
     0
  9
$CHAMFERA
 40
0.0
  9
$CHAMFERB
 40
0.0
  9
$CHAMFERC
 40
0.0
  9
$CHAMFERD
 40
0.0
  9
$SKPOLY
 70
     0
  9
$TDCREATE
 40
2457722.415036053
  9
$TDUPDATE
 40
2457722.4150364
  9
$TDINDWG
 40
0.0000000116
  9
$TDUSRTIMER
 40
0.0000000116
  9
$USRTIMER
 70
     1
  9
$ANGBASE
 50
0.0
  9
$ANGDIR
 70
     0
  9
$PDMODE
 70
     0
  9
$PDSIZE
 40
-1.0
  9
$PLINEWID
 40
0.0
  9
$COORDS
 70
     1
  9
$SPLFRAME
 70
     0
  9
$SPLINETYPE
 70
     6
  9
$SPLINESEGS
 70
     8
  9
$ATTDIA
 70
     0
  9
$ATTREQ
 70
     1
  9
$HANDLING
 70
     1
  9
$HANDSEED
  5
395
  9
$SURFTAB1
 70
     6
  9
$SURFTAB2
 70
     6
  9
$SURFTYPE
 70
     6
  9
$SURFU
 70
     6
  9
$SURFV
 70
     6
  9
$UCSNAME
  2

  9
$UCSORG
 10
0.0
 20
0.0
 30
0.0
  9
$UCSXDIR
 10
1.0
 20
0.0
 30
0.0
  9
$UCSYDIR
 10
0.0
 20
1.0
 30
0.0
  9
$PUCSNAME
  2

  9
$PUCSORG
 10
0.0
 20
0.0
 30
0.0
  9
$PUCSXDIR
 10
1.0
 20
0.0
 30
0.0
  9
$PUCSYDIR
 10
0.0
 20
1.0
 30
0.0
  9
$USERI1
 70
     0
  9
$USERI2
 70
     0
  9
$USERI3
 70
     0
  9
$USERI4
 70
     0
  9
$USERI5
 70
     0
  9
$USERR1
 40
0.0
  9
$USERR2
 40
0.0
  9
$USERR3
 40
0.0
  9
$USERR4
 40
0.0
  9
$USERR5
 40
0.0
  9
$WORLDVIEW
 70
     1
  9
$SHADEDGE
 70
     3
  9
$SHADEDIF
 70
    70
  9
$TILEMODE
 70
     1
  9
$MAXACTVP
 70
    64
  9
$PINSBASE
 10
0.0
 20
0.0
 30
0.0
  9
$PLIMCHECK
 70
     0
  9
$PEXTMIN
 10
1.0000000000E+20
 20
1.0000000000E+20
 30
1.0000000000E+20
  9
$PEXTMAX
 10
-1.0000000000E+20
 20
-1.0000000000E+20
 30
-1.0000000000E+20
  9
$PLIMMIN
 10
0.0
 20
0.0
  9
$PLIMMAX
 10
12.0
 20
9.0
  9
$UNITMODE
 70
     0
  9
$VISRETAIN
 70
     1
  9
$PLINEGEN
 70
     0
  9
$PSLTSCALE
 70
     1
  9
$TREEDEPTH
 70
  3020
  9
$PICKSTYLE
 70
     1
  9
$CMLSTYLE
  2
STANDARD
  9
$CMLJUST
 70
     0
  9
$CMLSCALE
 40
1.0
  9
$PROXYGRAPHICS
 70
     1
  9
$MEASUREMENT
 70
     0
  0
ENDSEC
  0
SECTION
  2
CLASSES
  0
CLASS
  1
ACDBDICTIONARYWDFLT
  2
AcDbDictionaryWithDefault
  3
ObjectDBX Classes
 90
        0
280
     0
281
     0
  0
CLASS
  1
VISUALSTYLE
  2
AcDbVisualStyle
  3
ObjectDBX Classes
 90
     4095
280
     0
281
     0
  0
CLASS
  1
MATERIAL
  2
AcDbMaterial
  3
ObjectDBX Classes
 90
     1153
280
     0
281
     0
  0
CLASS
  1
SCALE
  2
AcDbScale
  3
ObjectDBX Classes
 90
     1153
280
     0
281
     0
  0
CLASS
  1
TABLESTYLE
  2
AcDbTableStyle
  3
ObjectDBX Classes
 90
     4095
280
     0
281
     0
  0
CLASS
  1
MLEADERSTYLE
  2
AcDbMLeaderStyle
  3
ACDB_MLEADERSTYLE_CLASS
 90
     4095
280
     0
281
     0
  0
CLASS
  1
SUN
  2
AcDbSun
  3
SCENEOE
 90
     1153
280
     0
281
     0
  0
CLASS
  1
XRECORD
  2
AcDbXrecord
  3
ObjectDBX Classes
 90
        0
280
     0
281
     0
  0
CLASS
  1
LWPOLYLINE
  2
AcDbPolyline
  3
ObjectDBX Classes
 90
        0
280
     0
281
     1
  0
CLASS
  1
HATCH
  2
AcDbHatch
  3
ObjectDBX Classes
 90
        0
280
     0
281
     1
  0
ENDSEC
  0
SECTION
  2
TABLES
  0
TABLE
  2
VPORT
  5
8
330
0
100
AcDbSymbolTable
 70
     1
  0
VPORT
  5
29
330
8
100
AcDbSymbolTableRecord
100
AcDbViewportTableRecord
  2
*ACTIVE
 70
     0
 10
0.0
 20
0.0
 11
1.0
 21
1.0
 12
48.031496063
 22
24.0157480315
 13
0.0
 23
0.0
 14
0.5
 24
0.5
 15
0.5
 25
0.5
 16
0.0
 26
0.0
 36
1.0
 17
0.0
 27
0.0
 37
0.0
 40
48.031496063
 41
2.0
 42
50.0
 43
0.0
 44
0.0
 50
0.0
 51
0.0
 71
     0
 72
  2000
 73
     1
 74
     3
 75
     0
 76
     0
 77
     0
 78
     0
  0
ENDTAB
  0
TABLE
  2
LTYPE
  5
5
330
0
100
AcDbSymbolTable
 70
     6
  0
LTYPE
  5
14
330
5
100
AcDbSymbolTableRecord
100
AcDbLinetypeTableRecord
  2
BYBLOCK
 70
     0
  3

 72
    65
 73
     0
 40
0.0
  0
LTYPE
  5
15
330
5
100
AcDbSymbolTableRecord
100
AcDbLinetypeTableRecord
  2
BYLAYER
 70
     0
  3

 72
    65
 73
     0
 40
0.0
  0
LTYPE
  5
16
330
5
100
AcDbSymbolTableRecord
100
AcDbLinetypeTableRecord
  2
CONTINUOUS
 70
     0
  3
Solid line
 72
    65
 73
     0
 40
0.0
  0
LTYPE
  5
6E
330
5
100
AcDbSymbolTableRecord
100
AcDbLinetypeTableRecord
  2
HIDDEN
 70
     0
  3
Hidden __ __ __ __ __ __ __ __ __ __ __ __ __ __
 72
    65
 73
     2
 40
0.075
 49
0.05
 74
     0
 49
-0.025
 74
     0
  0
LTYPE
  5
6F
330
5
100
AcDbSymbolTableRecord
100
AcDbLinetypeTableRecord
  2
PHANTOM
 70
     0
  3
Phantom ______  __  __  ______  __  __  ______
 72
    65
 73
     6
 40
0.5
 49
0.25
 74
     0
 49
-0.05
 74
     0
 49
0.05
 74
     0
 49
-0.05
 74
     0
 49
0.05
 74
     0
 49
-0.05
 74
     0
  0
LTYPE
  5
70
330
5
100
AcDbSymbolTableRecord
100
AcDbLinetypeTableRecord
  2
CENTER
 70
     0
  3
Center ____ _ ____ _ ____ _ ____ _ ____ _ ____
 72
    65
 73
     4
 40
0.4
 49
0.25
 74
     0
 49
-0.05
 74
     0
 49
0.05
 74
     0
 49
-0.05
 74
     0
  0
LTYPE
  5
71
330
5
100
AcDbSymbolTableRecord
100
AcDbLinetypeTableRecord
  2
CENTERX2
 70
     0
  3
Center (2x) ________  __  ________  __  _____
 72
    65
 73
     4
 40
0.8
 49
0.5
 74
     0
 49
-0.1
 74
     0
 49
0.1
 74
     0
 49
-0.1
 74
     0
  0
LTYPE
  5
72
330
5
100
AcDbSymbolTableRecord
100
AcDbLinetypeTableRecord
  2
DOT2
 70
     0
  3
Dot (.5x) ........................................
 72
    65
 73
     2
 40
0.025
 49
0.0
 74
     0
 49
-0.025
 74
     0
  0
ENDTAB
  0
TABLE
  2
LAYER
  5
2
330
0
100
AcDbSymbolTable
 70
     6
  0
LAYER
  5
10
330
2
100
AcDbSymbolTableRecord
100
AcDbLayerTableRecord
  2
0
 70
     0
 62
     7
  6
CONTINUOUS
  0
LAYER
  5
73
330
2
100
AcDbSymbolTableRecord
100
AcDbLayerTableRecord
  2
BOX_STOCK
 70
     0
 62
     1
  6
CONTINUOUS
  0
LAYER
  5
74
330
2
100
AcDbSymbolTableRecord
100
AcDbLayerTableRecord
  2
HOLES
 70
     0
 62
    30
  6
CONTINUOUS
  0
LAYER
  5
75
330
2
100
AcDbSymbolTableRecord
100
AcDbLayerTableRecord
  2
POCKETS
 70
     0
 62
   171
  6
CONTINUOUS
  0
LAYER
  5
76
330
2
100
AcDbSymbolTableRecord
100
AcDbLayerTableRecord
  2
PROFILES_OUTSIDE
 70
     0
 62
     6
  6
CONTINUOUS
  0
LAYER
  5
77
330
2
100
AcDbSymbolTableRecord
100
AcDbLayerTableRecord
  2
PROFILES_INSIDE
 70
     0
 62
     4
  6
CONTINUOUS
  0
ENDTAB
  0
TABLE
  2
STYLE
  5
3
330
0
100
AcDbSymbolTable
 70
     1
  0
STYLE
  5
11
330
3
100
AcDbSymbolTableRecord
100
AcDbTextStyleTableRecord
  2
STANDARD
 70
     0
 40
0.0
 41
1.0
 50
0.0
 71
     0
 42
0.1377952756
  3
txt
  4

  0
ENDTAB
  0
TABLE
  2
VIEW
  5
6
330
0
100
AcDbSymbolTable
 70
     0
  0
ENDTAB
  0
TABLE
  2
UCS
  5
7
330
0
100
AcDbSymbolTable
 70
     0
  0
ENDTAB
  0
TABLE
  2
APPID
  5
9
330
0
100
AcDbSymbolTable
 70
     1
  0
APPID
  5
12
330
9
100
AcDbSymbolTableRecord
100
AcDbRegAppTableRecord
  2
ACAD
 70
     0
  0
ENDTAB
  0
TABLE
  2
DIMSTYLE
  5
A
330
0
100
AcDbSymbolTable
 70
     1
  0
DIMSTYLE
105
27
330
A
100
AcDbSymbolTableRecord
100
AcDbDimStyleTableRecord
  2
STANDARD
 70
     0
  3

  4

  5

  6

  7

 40
1.0
 41
0.18
 42
0.0625
 43
0.38
 44
0.18
 45
0.0
 46
0.0
 47
0.0
 48
0.0
140
0.18
141
0.09
142
0.0
143
25.4
144
1.0
145
0.0
146
1.0
147
0.09
 71
     0
 72
     0
 73
     1
 74
     1
 75
     0
 76
     0
 77
     0
 78
     0
170
     0
171
     2
172
     0
173
     0
174
     0
175
     0
176
     0
177
     0
178
     0
270
     2
271
     4
272
     4
273
     2
274
     2
340
11
275
     0
280
     0
281
     0
282
     0
283
     1
284
     0
285
     0
286
     0
287
     3
288
     0
  0
ENDTAB
  0
TABLE
  2
BLOCK_RECORD
  5
1
330
0
100
AcDbSymbolTable
 70
     1
  0
BLOCK_RECORD
  5
1F
330
1
100
AcDbSymbolTableRecord
100
AcDbBlockTableRecord
  2
*MODEL_SPACE
  0
BLOCK_RECORD
  5
1B
330
1
100
AcDbSymbolTableRecord
100
AcDbBlockTableRecord
  2
*PAPER_SPACE
  0
BLOCK_RECORD
  5
23
330
1
100
AcDbSymbolTableRecord
100
AcDbBlockTableRecord
  2
*PAPER_SPACE0
  0
ENDTAB
  0
ENDSEC
  0
SECTION
  2
BLOCKS
  0
BLOCK
  5
20
330
1F
100
AcDbEntity
  8
0
100
AcDbBlockBegin
  2
*MODEL_SPACE
 70
     0
 10
0.0
 20
0.0
 30
0.0
  3
*MODEL_SPACE
  1

  0
ENDBLK
  5
21
330
1F
100
AcDbEntity
  8
0
100
AcDbBlockEnd
  0
BLOCK
  5
1C
330
1B
100
AcDbEntity
 67
     1
  8
0
100
AcDbBlockBegin
  2
*PAPER_SPACE
 70
     0
 10
0.0
 20
0.0
 30
0.0
  3
*PAPER_SPACE
  1

  0
ENDBLK
  5
1D
330
1B
100
AcDbEntity
 67
     1
  8
0
100
AcDbBlockEnd
  0
BLOCK
  5
24
330
23
100
AcDbEntity
  8
0
100
AcDbBlockBegin
  2
*PAPER_SPACE0
 70
     0
 10
0.0
 20
0.0
 30
0.0
  3
*PAPER_SPACE0
  1

  0
ENDBLK
  5
25
330
23
100
AcDbEntity
  8
0
100
AcDbBlockEnd
  0
ENDSEC
  0
SECTION
  2
ENTITIES
  0
LINE
  5
78
330
1F
100
AcDbEntity
  8
0
  6
CONTINUOUS
 62
     7
100
AcDbLine
 10
35.2089878136
 20
1.1839079433
 30
0.0
 11
45.5515083359
 21
1.1839079433
 31
0.0
  0
LINE
  5
79
330
1F
100
AcDbEntity
  8
0
  6
CONTINUOUS
 62
     7
100
AcDbLine
 10
35.2089878136
 20
31.605167001
 30
0.0
 11
35.2089878136
 21
1.1839079433
 31
0.0
  0
LINE
  5
7A
330
1F
100
AcDbEntity
  8
0
  6
CONTINUOUS
 62
     7
100
AcDbLine
 10
45.5515083359
 20
31.605167001
 30
0.0
 11
35.2089878136
 21
31.605167001
 31
0.0
  0
LINE
  5
7B
330
1F
100
AcDbEntity
  8
0
  6
CONTINUOUS
 62
     7
100
AcDbLine
 10
45.5515083359
 20
1.1839079433
 30
0.0
 11
45.5515083359
 21
31.605167001
 31
0.0
  0
ARC
  5
7C
330
1F
100
AcDbEntity
  8
0
  6
CONTINUOUS
 62
     7
100
AcDbCircle
 10
58.6089874043
 20
1.9320181997
 30
0.0
 40
0.2362204724409449
100
AcDbArc
 50
90.0
 51
180.0
  0
LINE
  5
7D
330
1F
100
AcDbEntity
  8
0
  6
CONTINUOUS
 62
     7
100
AcDbLine
 10
62.0715880012
 20
2.1682386856
 30
0.0
 11
58.6089852281
 21
2.1682386856
 31
0.0
  0
ARC
  5
7E
330
1F
100
AcDbEntity
  8
0
  6
CONTINUOUS
 62
     7
100
AcDbCircle
 10
62.0715858295
 20
2.640679617
 30
0.0
 40
0.4724409448818889
100
AcDbArc
 50
270.0
 51
0.0
  0
LINE
  5
7F
330
1F
100
AcDbEntity
  8
0
  6
CONTINUOUS
 62
     7
100
AcDbLine
 10
62.5440275569
 20
6.1058077585
 30
0.0
 11
62.5440275569
 21
2.6406797079
 31
0.0
  0
ARC
  5
80
330
1F
100
AcDbEntity
  8
0
  6
CONTINUOUS
 62
     7
100
AcDbCircle
 10
63.2940267744
 20
6.1058075147
 30
0.0
 40
0.7499999999999986
100
AcDbArc
 50
120.0
 51
180.0
  0
ARC
  5
81
330
1F
100
AcDbEntity
  8
0
  6
CONTINUOUS
 62
     7
100
AcDbCircle
 10
62.5440267744
 20
7.4048456204
 30
0.0
 40
0.7499999999999929
100
AcDbArc
 50
300.0
 51
0.0
  0
LINE
  5
82
330
1F
100
AcDbEntity
  8
0
  6
CONTINUOUS
 62
     7
100
AcDbLine
 10
63.2940276395
 20
9.2562282712
 30
0.0
 11
63.2940276395
 21
7.4048458185
 31
0.0
  0
ARC
  5
83
330
1F
100
AcDbEntity
  8
0
  6
CONTINUOUS
 62
     7
100
AcDbCircle
 10
62.5440267744
 20
9.2562280153
 30
0.0
 40
0.75
100
AcDbArc
 50
0.0
 51
60.0
  0
ARC
  5
84
330
1F
100
AcDbEntity
  8
0
  6
CONTINUOUS
 62
     7
100
AcDbCircle
 10
63.2940267744
 20
10.555266121
 30
0.0
 40
0.75
100
AcDbArc
 50
180.0
 51
240.0
  0
LINE
  5
85
330
1F
100
AcDbEntity
  8
0
  6
CONTINUOUS
 62
     7
100
AcDbLine
 10
62.5440275569
 20
14.0203935018
 30
0.0
 11
62.5440275569
 21
10.5552657446
 31
0.0
  0
ARC
  5
86
330
1F
100
AcDbEntity
  8
0
  6
CONTINUOUS
 62
     7
100
AcDbCircle
 10
62.0715858295
 20
14.0203940186
 30
0.0
 40
0.4724409448818889
100
AcDbArc
 50
0.0
 51
90.0
  0
LINE
  5
87
330
1F
100
AcDbEntity
  8
0
  6
CONTINUOUS
 62
     7
100
AcDbLine
 10
58.6089852281
 20
14.4928354041
 30
0.0
 11
62.0715880012
 21
14.4928354041
 31
0.0
  0
ARC
  5
88
330
1F
100
AcDbEntity
  8
0
  6
CONTINUOUS
 62
     7
100
AcDbCircle
 10
58.6089874043
 20
14.729055436
 30
0.0
 40
0.2362204724409445
100
AcDbArc
 50
180.0
 51
270.0
  0
LINE
  5
89
330
1F
100
AcDbEntity
  8
0
  6
CONTINUOUS
 62
     7
100
AcDbLine
 10
58.3727677969
 20
15.1916541047
 30
0.0
 11
58.3727677969
 21
14.729055182
 31
0.0
  0
ARC
  5
8A
330
1F
100
AcDbEntity
  8
0
  6
CONTINUOUS
 62
     7
100
AcDbCircle
 10
58.4121370106
 20
15.1916538612
 30
0.0
 40
0.0393700787401627
100
AcDbArc
 50
90.0
 51
180.0
  0
LINE
  5
8B
330
1F
100
AcDbEntity
  8
0
  6
CONTINUOUS
 62
     7
100
AcDbLine
 10
58.4121350222
 20
15.2310236765
 30
0.0
 11
58.8278844594
 21
15.2310236765
 31
0.0
  0
LINE
  5
8C
330
1F
100
AcDbEntity
  8
0
  6
CONTINUOUS
 62
     7
100
AcDbLine
 10
58.8278844594
 20
15.2310236765
 30
0.0
 11
58.8412743847
 21
15.0218160666
 31
0.0
  0
ARC
  5
8D
330
1F
100
AcDbEntity
  8
0
  6
CONTINUOUS
 62
     7
100
AcDbCircle
 10
58.8805640148
 20
15.0243310265
 30
0.0
 40
0.039370078740159
100
AcDbArc
 50
183.6619355755
 51
270.0
  0
LINE
  5
8E
330
1F
100
AcDbEntity
  8
0
  6
CONTINUOUS
 62
     7
100
AcDbLine
 10
58.8805618242
 20
14.9849609191
 30
0.0
 11
59.2207072281
 21
14.9849609191
 31
0.0
  0
ARC
  5
8F
330
1F
100
AcDbEntity
  8
0
  6
CONTINUOUS
 62
     7
100
AcDbCircle
 10
59.2207087278
 20
14.945590869
 30
0.0
 40
0.0393700787401592
100
AcDbArc
 50
65.1121079736
 51
90.0
  0
ARC
  5
90
330
1F
100
AcDbEntity
  8
0
  6
CONTINUOUS
 62
     7
100
AcDbCircle
 10
59.3229373988
 20
15.1659456099
 30
0.0
 40
0.2035433070866139
100
AcDbArc
 50
245.1121079736
 51
72.3995332141
  0
ARC
  5
91
330
1F
100
AcDbEntity
  8
0
  6
CONTINUOUS
 62
     7
100
AcDbCircle
 10
59.3963889791
 20
15.397487784
 30
0.0
 40
0.0393700787401627
100
AcDbArc
 50
180.0
 51
252.3995332141
  0
LINE
  5
92
330
1F
100
AcDbEntity
  8
0
  6
CONTINUOUS
 62
     7
100
AcDbLine
 10
59.3570188268
 20
15.4771662197
 30
0.0
 11
59.3570188268
 21
15.3974872469
 31
0.0
  0
LINE
  5
93
330
1F
100
AcDbEntity
  8
0
  6
CONTINUOUS
 62
     7
100
AcDbLine
 10
62.8215880838
 20
15.4771662197
 30
0.0
 11
59.3570188268
 21
15.4771662197
 31
0.0
  0
ARC
  5
94
330
1F
100
AcDbEntity
  8
0
  6
CONTINUOUS
 62
     7
100
AcDbCircle
 10
62.8215858295
 20
15.0047247273
 30
0.0
 40
0.4724409448818907
100
AcDbArc
 50
0.0
 51
90.0
  0
LINE
  5
95
330
1F
100
AcDbEntity
  8
0
  6
CONTINUOUS
 62
     7
100
AcDbLine
 10
63.2940276395
 20
11.0277076469
 30
0.0
 11
63.2940276395
 21
15.0047243174
 31
0.0
  0
ARC
  5
96
330
1F
100
AcDbEntity
  8
0
  6
CONTINUOUS
 62
     7
100
AcDbCircle
 10
63.7664677193
 20
11.0277070659
 30
0.0
 40
0.4724409448818889
100
AcDbArc
 50
180.0
 51
270.0
  0
LINE
  5
97
330
1F
100
AcDbEntity
  8
0
  6
CONTINUOUS
 62
     7
100
AcDbLine
 10
64.7900901435
 20
10.5552657446
 30
0.0
 11
63.7664671951
 21
10.5552657446
 31
0.0
  0
ARC
  5
98
330
1F
100
AcDbEntity
  8
0
  6
CONTINUOUS
 62
     7
100
AcDbCircle
 10
64.7900897665
 20
11.0277070659
 30
0.0
 40
0.472440944881896
100
AcDbArc
 50
270.0
 51
0.0
  0
LINE
  5
99
330
1F
100
AcDbEntity
  8
0
  6
CONTINUOUS
 62
     7
100
AcDbLine
 10
65.2625296992
 20
15.0047243174
 30
0.0
 11
65.2625296992
 21
11.0277076469
 31
0.0
  0
ARC
  5
9A
330
1F
100
AcDbEntity
  8
0
  6
CONTINUOUS
 62
     7
100
AcDbCircle
 10
65.7349716563
 20
15.0047247273
 30
0.0
 40
0.4724409448818907
100
AcDbArc
 50
90.0
 51
180.0
  0
LINE
  5
9B
330
1F
100
AcDbEntity
  8
0
  6
CONTINUOUS
 62
     7
100
AcDbLine
 10
69.1995385118
 20
15.4771662197
 30
0.0
 11
65.7349739481
 21
15.4771662197
 31
0.0
  0
LINE
  5
9C
330
1F
100
AcDbEntity
  8
0
  6
CONTINUOUS
 62
     7
100
AcDbLine
 10
69.1995385118
 20
15.3974872469
 30
0.0
 11
69.1995385118
 21
15.4771662197
 31
0.0
  0
ARC
  5
9D
330
1F
100
AcDbEntity
  8
0
  6
CONTINUOUS
 62
     7
100
AcDbCircle
 10
69.1601685067
 20
15.397487784
 30
0.0
 40
0.0393700787401586
100
AcDbArc
 50
287.6004667859
 51
0.0
  0
ARC
  5
9E
330
1F
100
AcDbEntity
  8
0
  6
CONTINUOUS
 62
     7
100
AcDbCircle
 10
69.233620087
 20
15.1659456099
 30
0.0
 40
0.2035433070866123
100
AcDbArc
 50
107.6004667859
 51
294.8878920264
  0
ARC
  5
9F
330
1F
100
AcDbEntity
  8
0
  6
CONTINUOUS
 62
     7
100
AcDbCircle
 10
69.335848758
 20
14.945590869
 30
0.0
 40
0.0393700787401625
100
AcDbArc
 50
90.0
 51
114.8878920264
  0
LINE
  5
A0
330
1F
100
AcDbEntity
  8
0
  6
CONTINUOUS
 62
     7
100
AcDbLine
 10
69.3358501105
 20
14.9849609191
 30
0.0
 11
69.6759955144
 21
14.9849609191
 31
0.0
  0
ARC
  5
A1
330
1F
100
AcDbEntity
  8
0
  6
CONTINUOUS
 62
     7
100
AcDbCircle
 10
69.675993471
 20
15.0243310265
 30
0.0
 40
0.039370078740159
100
AcDbArc
 50
270.0
 51
356.3380644245
  0
LINE
  5
A2
330
1F
100
AcDbEntity
  8
0
  6
CONTINUOUS
 62
     7
100
AcDbLine
 10
69.7152829539
 20
15.0218160666
 30
0.0
 11
69.7286728792
 21
15.2310236765
 31
0.0
  0
LINE
  5
A3
330
1F
100
AcDbEntity
  8
0
  6
CONTINUOUS
 62
     7
100
AcDbLine
 10
69.7286728792
 20
15.2310236765
 30
0.0
 11
70.1444223165
 21
15.2310236765
 31
0.0
  0
ARC
  5
A4
330
1F
100
AcDbEntity
  8
0
  6
CONTINUOUS
 62
     7
100
AcDbCircle
 10
70.1444204752
 20
15.1916538612
 30
0.0
 40
0.0393700787401574
100
AcDbArc
 50
0.0
 51
90.0
  0
LINE
  5
A5
330
1F
100
AcDbEntity
  8
0
  6
CONTINUOUS
 62
     7
100
AcDbLine
 10
70.1837895417
 20
14.729055182
 30
0.0
 11
70.1837895417
 21
15.1916541047
 31
0.0
  0
ARC
  5
A6
330
1F
100
AcDbEntity
  8
0
  6
CONTINUOUS
 62
     7
100
AcDbCircle
 10
69.9475700815
 20
14.729055436
 30
0.0
 40
0.236220472440948
100
AcDbArc
 50
270.0
 51
0.0
  0
LINE
  5
A7
330
1F
100
AcDbEntity
  8
0
  6
CONTINUOUS
 62
     7
100
AcDbLine
 10
66.4849693374
 20
14.4928354041
 30
0.0
 11
69.9475721105
 21
14.4928354041
 31
0.0
  0
ARC
  5
A8
330
1F
100
AcDbEntity
  8
0
  6
CONTINUOUS
 62
     7
100
AcDbCircle
 10
66.4849716563
 20
14.0203940186
 30
0.0
 40
0.472440944881896
100
AcDbArc
 50
90.0
 51
180.0
  0
LINE
  5
A9
330
1F
100
AcDbEntity
  8
0
  6
CONTINUOUS
 62
     7
100
AcDbLine
 10
66.0125297818
 20
10.5552657446
 30
0.0
 11
66.0125297818
 21
14.0203935018
 31
0.0
  0
ARC
  5
AA
330
1F
100
AcDbEntity
  8
0
  6
CONTINUOUS
 62
     7
100
AcDbCircle
 10
65.2625307114
 20
10.555266121
 30
0.0
 40
0.75
100
AcDbArc
 50
300.0
 51
0.0
  0
ARC
  5
AB
330
1F
100
AcDbEntity
  8
0
  6
CONTINUOUS
 62
     7
100
AcDbCircle
 10
66.0125307114
 20
9.2562280153
 30
0.0
 40
0.75
100
AcDbArc
 50
120.0
 51
180.0
  0
LINE
  5
AC
330
1F
100
AcDbEntity
  8
0
  6
CONTINUOUS
 62
     7
100
AcDbLine
 10
65.2625296992
 20
7.4048458185
 30
0.0
 11
65.2625296992
 21
9.2562282712
 31
0.0
  0
ARC
  5
AD
330
1F
100
AcDbEntity
  8
0
  6
CONTINUOUS
 62
     7
100
AcDbCircle
 10
66.0125307114
 20
7.4048456204
 30
0.0
 40
0.75
100
AcDbArc
 50
180.0
 51
240.0
  0
ARC
  5
AE
330
1F
100
AcDbEntity
  8
0
  6
CONTINUOUS
 62
     7
100
AcDbCircle
 10
65.2625307114
 20
6.1058075147
 30
0.0
 40
0.75
100
AcDbArc
 50
0.0
 51
60.0
  0
LINE
  5
AF
330
1F
100
AcDbEntity
  8
0
  6
CONTINUOUS
 62
     7
100
AcDbLine
 10
66.0125297818
 20
2.6406797079
 30
0.0
 11
66.0125297818
 21
6.1058077585
 31
0.0
  0
ARC
  5
B0
330
1F
100
AcDbEntity
  8
0
  6
CONTINUOUS
 62
     7
100
AcDbCircle
 10
66.4849716563
 20
2.640679617
 30
0.0
 40
0.4724409448818943
100
AcDbArc
 50
180.0
 51
270.0
  0
LINE
  5
B1
330
1F
100
AcDbEntity
  8
0
  6
CONTINUOUS
 62
     7
100
AcDbLine
 10
69.9475721105
 20
2.1682386856
 30
0.0
 11
66.4849693374
 21
2.1682386856
 31
0.0
  0
ARC
  5
B2
330
1F
100
AcDbEntity
  8
0
  6
CONTINUOUS
 62
     7
100
AcDbCircle
 10
69.9475700815
 20
1.9320181997
 30
0.0
 40
0.2362204724409449
100
AcDbArc
 50
0.0
 51
90.0
  0
LINE
  5
B3
330
1F
100
AcDbEntity
  8
0
  6
CONTINUOUS
 62
     7
100
AcDbLine
 10
70.1837895417
 20
1.4694198384
 30
0.0
 11
70.1837895417
 21
1.9320181744
 31
0.0
  0
ARC
  5
B4
330
1F
100
AcDbEntity
  8
0
  6
CONTINUOUS
 62
     7
100
AcDbCircle
 10
70.1444204752
 20
1.4694197745
 30
0.0
 40
0.0393700787401574
100
AcDbArc
 50
270.0
 51
0.0
  0
LINE
  5
B5
330
1F
100
AcDbEntity
  8
0
  6
CONTINUOUS
 62
     7
100
AcDbLine
 10
70.1444223165
 20
1.4300496799
 30
0.0
 11
69.7286728792
 21
1.4300496799
 31
0.0
  0
LINE
  5
B6
330
1F
100
AcDbEntity
  8
0
  6
CONTINUOUS
 62
     7
100
AcDbLine
 10
69.7286728792
 20
1.4300496799
 30
0.0
 11
69.7152829539
 21
1.6392571431
 31
0.0
  0
ARC
  5
B7
330
1F
100
AcDbEntity
  8
0
  6
CONTINUOUS
 62
     7
100
AcDbCircle
 10
69.675993471
 20
1.6367426092
 30
0.0
 40
0.039370078740159
100
AcDbArc
 50
3.6619355755
 51
90.0
  0
LINE
  5
B8
330
1F
100
AcDbEntity
  8
0
  6
CONTINUOUS
 62
     7
100
AcDbLine
 10
69.6759955144
 20
1.6761127307
 30
0.0
 11
69.3358501105
 21
1.6761127307
 31
0.0
  0
ARC
  5
B9
330
1F
100
AcDbEntity
  8
0
  6
CONTINUOUS
 62
     7
100
AcDbCircle
 10
69.335848758
 20
1.7154827666
 30
0.0
 40
0.0393700787401574
100
AcDbArc
 50
245.1121079736
 51
270.0
  0
ARC
  5
BA
330
1F
100
AcDbEntity
  8
0
  6
CONTINUOUS
 62
     7
100
AcDbCircle
 10
69.233620087
 20
1.4951280257
 30
0.0
 40
0.2035433070866159
100
AcDbArc
 50
65.1121079736
 51
252.3995332141
  0
LINE
  5
BB
330
1F
100
AcDbEntity
  8
0
  6
CONTINUOUS
 62
     7
100
AcDbLine
 10
65.7349739481
 20
1.1839079433
 30
0.0
 11
69.1995385118
 21
1.1839079433
 31
0.0
  0
LINE
  5
BC
330
1F
100
AcDbEntity
  8
0
  6
CONTINUOUS
 62
     7
100
AcDbLine
 10
65.2625296992
 20
5.6333664428
 30
0.0
 11
65.2625296992
 21
1.6563488923
 31
0.0
  0
ARC
  5
BD
330
1F
100
AcDbEntity
  8
0
  6
CONTINUOUS
 62
     7
100
AcDbCircle
 10
64.7900897665
 20
5.6333665698
 30
0.0
 40
0.472440944881896
100
AcDbArc
 50
0.0
 51
90.0
  0
LINE
  5
BE
330
1F
100
AcDbEntity
  8
0
  6
CONTINUOUS
 62
     7
100
AcDbLine
 10
63.7664671951
 20
6.1058077585
 30
0.0
 11
64.7900901435
 21
6.1058077585
 31
0.0
  0
ARC
  5
BF
330
1F
100
AcDbEntity
  8
0
  6
CONTINUOUS
 62
     7
100
AcDbCircle
 10
63.7664677193
 20
5.6333665698
 30
0.0
 40
0.4724409448818907
100
AcDbArc
 50
90.0
 51
180.0
  0
LINE
  5
C0
330
1F
100
AcDbEntity
  8
0
  6
CONTINUOUS
 62
     7
100
AcDbLine
 10
63.2940276395
 20
1.6563488923
 30
0.0
 11
63.2940276395
 21
5.6333664428
 31
0.0
  0
ARC
  5
C1
330
1F
100
AcDbEntity
  8
0
  6
CONTINUOUS
 62
     7
100
AcDbCircle
 10
62.8215858295
 20
1.6563489084
 30
0.0
 40
0.4724409448818903
100
AcDbArc
 50
270.0
 51
0.0
  0
LINE
  5
C2
330
1F
100
AcDbEntity
  8
0
  6
CONTINUOUS
 62
     7
100
AcDbLine
 10
59.3570188268
 20
1.1839079433
 30
0.0
 11
62.8215880838
 21
1.1839079433
 31
0.0
  0
ARC
  5
C3
330
1F
100
AcDbEntity
  8
0
  6
CONTINUOUS
 62
     7
100
AcDbCircle
 10
59.3963889791
 20
1.2635858517
 30
0.0
 40
0.0393700787401627
100
AcDbArc
 50
107.6004667859
 51
180.0
  0
ARC
  5
C4
330
1F
100
AcDbEntity
  8
0
  6
CONTINUOUS
 62
     7
100
AcDbCircle
 10
59.3229373988
 20
1.4951280257
 30
0.0
 40
0.2035433070866144
100
AcDbArc
 50
287.6004667859
 51
114.8878920264
  0
ARC
  5
C5
330
1F
100
AcDbEntity
  8
0
  6
CONTINUOUS
 62
     7
100
AcDbCircle
 10
59.2207087278
 20
1.7154827666
 30
0.0
 40
0.0393700787401583
100
AcDbArc
 50
270.0
 51
294.8878920264
  0
LINE
  5
C6
330
1F
100
AcDbEntity
  8
0
  6
CONTINUOUS
 62
     7
100
AcDbLine
 10
59.2207072281
 20
1.6761127307
 30
0.0
 11
58.8805618242
 21
1.6761127307
 31
0.0
  0
ARC
  5
C7
330
1F
100
AcDbEntity
  8
0
  6
CONTINUOUS
 62
     7
100
AcDbCircle
 10
58.8805640148
 20
1.6367426092
 30
0.0
 40
0.039370078740159
100
AcDbArc
 50
90.0
 51
176.3380644245
  0
LINE
  5
C8
330
1F
100
AcDbEntity
  8
0
  6
CONTINUOUS
 62
     7
100
AcDbLine
 10
58.8412743847
 20
1.6392571431
 30
0.0
 11
58.8278844594
 21
1.4300496799
 31
0.0
  0
LINE
  5
C9
330
1F
100
AcDbEntity
  8
0
  6
CONTINUOUS
 62
     7
100
AcDbLine
 10
58.8278844594
 20
1.4300496799
 30
0.0
 11
58.4121350222
 21
1.4300496799
 31
0.0
  0
ARC
  5
CA
330
1F
100
AcDbEntity
  8
0
  6
CONTINUOUS
 62
     7
100
AcDbCircle
 10
58.4121370106
 20
1.4694197745
 30
0.0
 40
0.0393700787401574
100
AcDbArc
 50
180.0
 51
270.0
  0
LINE
  5
CB
330
1F
100
AcDbEntity
  8
0
  6
CONTINUOUS
 62
     7
100
AcDbLine
 10
58.3727677969
 20
1.9320181744
 30
0.0
 11
58.3727677969
 21
1.4694198384
 31
0.0
  0
ARC
  5
CC
330
1F
100
AcDbEntity
  8
0
  6
CONTINUOUS
 62
     7
100
AcDbCircle
 10
65.7349716563
 20
1.6563489084
 30
0.0
 40
0.4724409448818903
100
AcDbArc
 50
180.0
 51
270.0
  0
LINE
  5
CD
330
1F
100
AcDbEntity
  8
0
  6
CONTINUOUS
 62
     7
100
AcDbLine
 10
69.1995385118
 20
1.1839079433
 30
0.0
 11
69.1995385118
 21
1.2635858162
 31
0.0
  0
LINE
  5
CE
330
1F
100
AcDbEntity
  8
0
  6
CONTINUOUS
 62
     7
100
AcDbLine
 10
59.3570188268
 20
1.2635858162
 30
0.0
 11
59.3570188268
 21
1.1839079433
 31
0.0
  0
ARC
  5
CF
330
1F
100
AcDbEntity
  8
0
  6
CONTINUOUS
 62
     7
100
AcDbCircle
 10
69.1601685067
 20
1.2635858517
 30
0.0
 40
0.0393700787401562
100
AcDbArc
 50
0.0
 51
72.3995332141
  0
ARC
  5
D0
330
1F
100
AcDbEntity
  8
0
  6
CONTINUOUS
 62
     7
100
AcDbCircle
 10
69.9475700815
 20
30.2615257431
 30
0.0
 40
0.2362204724409445
100
AcDbArc
 50
270.0
 51
0.0
  0
LINE
  5
D1
330
1F
100
AcDbEntity
  8
0
  6
CONTINUOUS
 62
     7
100
AcDbLine
 10
66.4849693374
 20
30.0253059984
 30
0.0
 11
69.9475721105
 21
30.0253059984
 31
0.0
  0
ARC
  5
D2
330
1F
100
AcDbEntity
  8
0
  6
CONTINUOUS
 62
     7
100
AcDbCircle
 10
66.4849716563
 20
29.5528643258
 30
0.0
 40
0.4724409448818818
100
AcDbArc
 50
90.0
 51
180.0
  0
LINE
  5
D3
330
1F
100
AcDbEntity
  8
0
  6
CONTINUOUS
 62
     7
100
AcDbLine
 10
66.0125297818
 20
26.0877363388
 30
0.0
 11
66.0125297818
 21
29.5528640961
 31
0.0
  0
ARC
  5
D4
330
1F
100
AcDbEntity
  8
0
  6
CONTINUOUS
 62
     7
100
AcDbCircle
 10
65.2625307114
 20
26.0877364281
 30
0.0
 40
0.75
100
AcDbArc
 50
300.0
 51
0.0
  0
ARC
  5
D5
330
1F
100
AcDbEntity
  8
0
  6
CONTINUOUS
 62
     7
100
AcDbCircle
 10
66.0125307114
 20
24.7886983224
 30
0.0
 40
0.75
100
AcDbArc
 50
120.0
 51
180.0
  0
LINE
  5
D6
330
1F
100
AcDbEntity
  8
0
  6
CONTINUOUS
 62
     7
100
AcDbLine
 10
65.2625296992
 20
22.9373164128
 30
0.0
 11
65.2625296992
 21
24.7886976921
 31
0.0
  0
ARC
  5
D7
330
1F
100
AcDbEntity
  8
0
  6
CONTINUOUS
 62
     7
100
AcDbCircle
 10
66.0125307114
 20
22.9373159275
 30
0.0
 40
0.7500000000000031
100
AcDbArc
 50
180.0
 51
240.0
  0
ARC
  5
D8
330
1F
100
AcDbEntity
  8
0
  6
CONTINUOUS
 62
     7
100
AcDbCircle
 10
65.2625307114
 20
21.6382778218
 30
0.0
 40
0.75
100
AcDbArc
 50
0.0
 51
60.0
  0
LINE
  5
D9
330
1F
100
AcDbEntity
  8
0
  6
CONTINUOUS
 62
     7
100
AcDbLine
 10
66.0125297818
 20
18.1731500088
 30
0.0
 11
66.0125297818
 21
21.638277766
 31
0.0
  0
ARC
  5
DA
330
1F
100
AcDbEntity
  8
0
  6
CONTINUOUS
 62
     7
100
AcDbCircle
 10
66.4849716563
 20
18.1731499242
 30
0.0
 40
0.4724409448818854
100
AcDbArc
 50
180.0
 51
270.0
  0
LINE
  5
DB
330
1F
100
AcDbEntity
  8
0
  6
CONTINUOUS
 62
     7
100
AcDbLine
 10
69.9475721105
 20
17.7007092798
 30
0.0
 11
66.4849693374
 21
17.7007092798
 31
0.0
  0
ARC
  5
DC
330
1F
100
AcDbEntity
  8
0
  6
CONTINUOUS
 62
     7
100
AcDbCircle
 10
69.9475700815
 20
17.4644885068
 30
0.0
 40
0.2362204724409445
100
AcDbArc
 50
0.0
 51
90.0
  0
LINE
  5
DD
330
1F
100
AcDbEntity
  8
0
  6
CONTINUOUS
 62
     7
100
AcDbLine
 10
70.1837895417
 20
17.0018905793
 30
0.0
 11
70.1837895417
 21
17.4644883287
 31
0.0
  0
ARC
  5
DE
330
1F
100
AcDbEntity
  8
0
  6
CONTINUOUS
 62
     7
100
AcDbCircle
 10
70.1444204752
 20
17.0018900816
 30
0.0
 40
0.0393700787401627
100
AcDbArc
 50
270.0
 51
0.0
  0
LINE
  5
DF
330
1F
100
AcDbEntity
  8
0
  6
CONTINUOUS
 62
     7
100
AcDbLine
 10
70.1444223165
 20
16.9625198341
 30
0.0
 11
69.7286728792
 21
16.9625198341
 31
0.0
  0
LINE
  5
E0
330
1F
100
AcDbEntity
  8
0
  6
CONTINUOUS
 62
     7
100
AcDbLine
 10
69.7286728792
 20
16.9625198341
 30
0.0
 11
69.7152829539
 21
17.171727444
 31
0.0
  0
ARC
  5
E1
330
1F
100
AcDbEntity
  8
0
  6
CONTINUOUS
 62
     7
100
AcDbCircle
 10
69.675993471
 20
17.1692129163
 30
0.0
 40
0.039370078740159
100
AcDbArc
 50
3.6619355755
 51
90.0
  0
LINE
  5
E2
330
1F
100
AcDbEntity
  8
0
  6
CONTINUOUS
 62
     7
100
AcDbLine
 10
69.6759955144
 20
17.2085825916
 30
0.0
 11
69.3358501105
 21
17.2085825916
 31
0.0
  0
ARC
  5
E3
330
1F
100
AcDbEntity
  8
0
  6
CONTINUOUS
 62
     7
100
AcDbCircle
 10
69.335848758
 20
17.2479530738
 30
0.0
 40
0.0393700787401592
100
AcDbArc
 50
245.1121079736
 51
270.0
  0
ARC
  5
E4
330
1F
100
AcDbEntity
  8
0
  6
CONTINUOUS
 62
     7
100
AcDbCircle
 10
69.233620087
 20
17.0275983329
 30
0.0
 40
0.2035433070866139
100
AcDbArc
 50
65.1121079736
 51
252.3995332141
  0
LINE
  5
E5
330
1F
100
AcDbEntity
  8
0
  6
CONTINUOUS
 62
     7
100
AcDbLine
 10
65.7349739481
 20
16.7163784642
 30
0.0
 11
69.1995385118
 21
16.7163784642
 31
0.0
  0
ARC
  5
E6
330
1F
100
AcDbEntity
  8
0
  6
CONTINUOUS
 62
     7
100
AcDbCircle
 10
65.7349716563
 20
17.1888192155
 30
0.0
 40
0.472440944881896
100
AcDbArc
 50
180.0
 51
270.0
  0
LINE
  5
E7
330
1F
100
AcDbEntity
  8
0
  6
CONTINUOUS
 62
     7
100
AcDbLine
 10
65.2625296992
 20
21.1658358637
 30
0.0
 11
65.2625296992
 21
17.1888191932
 31
0.0
  0
ARC
  5
E8
330
1F
100
AcDbEntity
  8
0
  6
CONTINUOUS
 62
     7
100
AcDbCircle
 10
64.7900897665
 20
21.1658368769
 30
0.0
 40
0.4724409448818854
100
AcDbArc
 50
0.0
 51
90.0
  0
LINE
  5
E9
330
1F
100
AcDbEntity
  8
0
  6
CONTINUOUS
 62
     7
100
AcDbLine
 10
63.7664671951
 20
21.638277766
 30
0.0
 11
64.7900901435
 21
21.638277766
 31
0.0
  0
ARC
  5
EA
330
1F
100
AcDbEntity
  8
0
  6
CONTINUOUS
 62
     7
100
AcDbCircle
 10
63.7664677193
 20
21.1658368769
 30
0.0
 40
0.4724409448818889
100
AcDbArc
 50
90.0
 51
180.0
  0
LINE
  5
EB
330
1F
100
AcDbEntity
  8
0
  6
CONTINUOUS
 62
     7
100
AcDbLine
 10
63.2940276395
 20
17.1888191932
 30
0.0
 11
63.2940276395
 21
21.1658358637
 31
0.0
  0
LINE
  5
EC
330
1F
100
AcDbEntity
  8
0
  6
CONTINUOUS
 62
     7
100
AcDbLine
 10
59.3570188268
 20
16.7163784642
 30
0.0
 11
62.8215880838
 21
16.7163784642
 31
0.0
  0
LINE
  5
ED
330
1F
100
AcDbEntity
  8
0
  6
CONTINUOUS
 62
     7
100
AcDbLine
 10
59.3570188268
 20
16.7960562638
 30
0.0
 11
59.3570188268
 21
16.7163784642
 31
0.0
  0
ARC
  5
EE
330
1F
100
AcDbEntity
  8
0
  6
CONTINUOUS
 62
     7
100
AcDbCircle
 10
59.3229373988
 20
17.0275983329
 30
0.0
 40
0.2035433070866118
100
AcDbArc
 50
287.6004667859
 51
114.8878920264
  0
ARC
  5
EF
330
1F
100
AcDbEntity
  8
0
  6
CONTINUOUS
 62
     7
100
AcDbCircle
 10
59.2207087278
 20
17.2479530738
 30
0.0
 40
0.0393700787401641
100
AcDbArc
 50
270.0
 51
294.8878920264
  0
LINE
  5
F0
330
1F
100
AcDbEntity
  8
0
  6
CONTINUOUS
 62
     7
100
AcDbLine
 10
59.2207072281
 20
17.2085825916
 30
0.0
 11
58.8805618242
 21
17.2085825916
 31
0.0
  0
ARC
  5
F1
330
1F
100
AcDbEntity
  8
0
  6
CONTINUOUS
 62
     7
100
AcDbCircle
 10
58.8805640148
 20
17.1692129163
 30
0.0
 40
0.0393700787401592
100
AcDbArc
 50
90.0
 51
176.3380644245
  0
LINE
  5
F2
330
1F
100
AcDbEntity
  8
0
  6
CONTINUOUS
 62
     7
100
AcDbLine
 10
58.8412743847
 20
17.171727444
 30
0.0
 11
58.8278844594
 21
16.9625198341
 31
0.0
  0
LINE
  5
F3
330
1F
100
AcDbEntity
  8
0
  6
CONTINUOUS
 62
     7
100
AcDbLine
 10
58.8278844594
 20
16.9625198341
 30
0.0
 11
58.4121350222
 21
16.9625198341
 31
0.0
  0
ARC
  5
F4
330
1F
100
AcDbEntity
  8
0
  6
CONTINUOUS
 62
     7
100
AcDbCircle
 10
58.4121370106
 20
17.0018900816
 30
0.0
 40
0.0393700787401592
100
AcDbArc
 50
180.0
 51
270.0
  0
LINE
  5
F5
330
1F
100
AcDbEntity
  8
0
  6
CONTINUOUS
 62
     7
100
AcDbLine
 10
58.3727677969
 20
17.4644883287
 30
0.0
 11
58.3727677969
 21
17.0018905793
 31
0.0
  0
ARC
  5
F6
330
1F
100
AcDbEntity
  8
0
  6
CONTINUOUS
 62
     7
100
AcDbCircle
 10
58.6089874043
 20
17.4644885068
 30
0.0
 40
0.236220472440948
100
AcDbArc
 50
90.0
 51
180.0
  0
LINE
  5
F7
330
1F
100
AcDbEntity
  8
0
  6
CONTINUOUS
 62
     7
100
AcDbLine
 10
62.0715880012
 20
17.7007092798
 30
0.0
 11
58.6089852281
 21
17.7007092798
 31
0.0
  0
ARC
  5
F8
330
1F
100
AcDbEntity
  8
0
  6
CONTINUOUS
 62
     7
100
AcDbCircle
 10
62.0715858295
 20
18.1731499242
 30
0.0
 40
0.472440944881896
100
AcDbArc
 50
270.0
 51
0.0
  0
LINE
  5
F9
330
1F
100
AcDbEntity
  8
0
  6
CONTINUOUS
 62
     7
100
AcDbLine
 10
62.5440275569
 20
21.638277766
 30
0.0
 11
62.5440275569
 21
18.1731500088
 31
0.0
  0
ARC
  5
FA
330
1F
100
AcDbEntity
  8
0
  6
CONTINUOUS
 62
     7
100
AcDbCircle
 10
63.2940267744
 20
21.6382778218
 30
0.0
 40
0.75
100
AcDbArc
 50
120.0
 51
180.0
  0
ARC
  5
FB
330
1F
100
AcDbEntity
  8
0
  6
CONTINUOUS
 62
     7
100
AcDbCircle
 10
62.5440267744
 20
22.9373159275
 30
0.0
 40
0.75
100
AcDbArc
 50
300.0
 51
0.0
  0
LINE
  5
FC
330
1F
100
AcDbEntity
  8
0
  6
CONTINUOUS
 62
     7
100
AcDbLine
 10
63.2940276395
 20
24.7886976921
 30
0.0
 11
63.2940276395
 21
22.9373164128
 31
0.0
  0
ARC
  5
FD
330
1F
100
AcDbEntity
  8
0
  6
CONTINUOUS
 62
     7
100
AcDbCircle
 10
62.5440267744
 20
24.7886983224
 30
0.0
 40
0.75
100
AcDbArc
 50
0.0
 51
60.0
  0
ARC
  5
FE
330
1F
100
AcDbEntity
  8
0
  6
CONTINUOUS
 62
     7
100
AcDbCircle
 10
63.2940267744
 20
26.0877364281
 30
0.0
 40
0.75
100
AcDbArc
 50
180.0
 51
240.0
  0
LINE
  5
FF
330
1F
100
AcDbEntity
  8
0
  6
CONTINUOUS
 62
     7
100
AcDbLine
 10
62.5440275569
 20
29.5528640961
 30
0.0
 11
62.5440275569
 21
26.0877363388
 31
0.0
  0
ARC
  5
100
330
1F
100
AcDbEntity
  8
0
  6
CONTINUOUS
 62
     7
100
AcDbCircle
 10
62.0715858295
 20
29.5528643258
 30
0.0
 40
0.4724409448818925
100
AcDbArc
 50
0.0
 51
90.0
  0
LINE
  5
101
330
1F
100
AcDbEntity
  8
0
  6
CONTINUOUS
 62
     7
100
AcDbLine
 10
58.6089852281
 20
30.0253059984
 30
0.0
 11
62.0715880012
 21
30.0253059984
 31
0.0
  0
ARC
  5
102
330
1F
100
AcDbEntity
  8
0
  6
CONTINUOUS
 62
     7
100
AcDbCircle
 10
58.6089874043
 20
30.2615257431
 30
0.0
 40
0.236220472440948
100
AcDbArc
 50
180.0
 51
270.0
  0
LINE
  5
103
330
1F
100
AcDbEntity
  8
0
  6
CONTINUOUS
 62
     7
100
AcDbLine
 10
58.3727677969
 20
30.7241235256
 30
0.0
 11
58.3727677969
 21
30.2615257762
 31
0.0
  0
ARC
  5
104
330
1F
100
AcDbEntity
  8
0
  6
CONTINUOUS
 62
     7
100
AcDbCircle
 10
58.4121370106
 20
30.7241241683
 30
0.0
 40
0.0393700787401627
100
AcDbArc
 50
90.0
 51
180.0
  0
LINE
  5
105
330
1F
100
AcDbEntity
  8
0
  6
CONTINUOUS
 62
     7
100
AcDbLine
 10
58.4121350222
 20
30.7634930974
 30
0.0
 11
58.8278844594
 21
30.7634930974
 31
0.0
  0
LINE
  5
106
330
1F
100
AcDbEntity
  8
0
  6
CONTINUOUS
 62
     7
100
AcDbLine
 10
58.8278844594
 20
30.7634930974
 30
0.0
 11
58.8412743847
 21
30.5542878342
 31
0.0
  0
ARC
  5
107
330
1F
100
AcDbEntity
  8
0
  6
CONTINUOUS
 62
     7
100
AcDbCircle
 10
58.8805640148
 20
30.5568013337
 30
0.0
 40
0.0393700787401592
100
AcDbArc
 50
183.6619355755
 51
270.0
  0
LINE
  5
108
330
1F
100
AcDbEntity
  8
0
  6
CONTINUOUS
 62
     7
100
AcDbLine
 10
58.8805618242
 20
30.5174315133
 30
0.0
 11
59.2207072281
 21
30.5174315133
 31
0.0
  0
ARC
  5
109
330
1F
100
AcDbEntity
  8
0
  6
CONTINUOUS
 62
     7
100
AcDbCircle
 10
59.2207087278
 20
30.4780611762
 30
0.0
 40
0.0393700787401627
100
AcDbArc
 50
65.1121079736
 51
90.0
  0
ARC
  5
10A
330
1F
100
AcDbEntity
  8
0
  6
CONTINUOUS
 62
     7
100
AcDbCircle
 10
59.3229373988
 20
30.6984159171
 30
0.0
 40
0.2035433070866142
100
AcDbArc
 50
245.1121079736
 51
72.3995332141
  0
ARC
  5
10B
330
1F
100
AcDbEntity
  8
0
  6
CONTINUOUS
 62
     7
100
AcDbCircle
 10
59.3963889791
 20
30.9299580911
 30
0.0
 40
0.0393700787401569
100
AcDbArc
 50
180.0
 51
252.3995332141
  0
LINE
  5
10C
330
1F
100
AcDbEntity
  8
0
  6
CONTINUOUS
 62
     7
100
AcDbLine
 10
59.3570188268
 20
31.009636814
 30
0.0
 11
59.3570188268
 21
30.9299590144
 31
0.0
  0
LINE
  5
10D
330
1F
100
AcDbEntity
  8
0
  6
CONTINUOUS
 62
     7
100
AcDbLine
 10
62.8215880838
 20
31.009636814
 30
0.0
 11
59.3570188268
 21
31.009636814
 31
0.0
  0
ARC
  5
10E
330
1F
100
AcDbEntity
  8
0
  6
CONTINUOUS
 62
     7
100
AcDbCircle
 10
62.8215858295
 20
30.5371950344
 30
0.0
 40
0.4724409448818889
100
AcDbArc
 50
0.0
 51
90.0
  0
LINE
  5
10F
330
1F
100
AcDbEntity
  8
0
  6
CONTINUOUS
 62
     7
100
AcDbLine
 10
63.2940276395
 20
26.5601782412
 30
0.0
 11
63.2940276395
 21
30.5371949117
 31
0.0
  0
ARC
  5
110
330
1F
100
AcDbEntity
  8
0
  6
CONTINUOUS
 62
     7
100
AcDbCircle
 10
63.7664677193
 20
26.560177373
 30
0.0
 40
0.4724409448818925
100
AcDbArc
 50
180.0
 51
270.0
  0
LINE
  5
111
330
1F
100
AcDbEntity
  8
0
  6
CONTINUOUS
 62
     7
100
AcDbLine
 10
64.7900901435
 20
26.0877363388
 30
0.0
 11
63.7664671951
 21
26.0877363388
 31
0.0
  0
ARC
  5
112
330
1F
100
AcDbEntity
  8
0
  6
CONTINUOUS
 62
     7
100
AcDbCircle
 10
64.7900897665
 20
26.560177373
 30
0.0
 40
0.4724409448818925
100
AcDbArc
 50
270.0
 51
0.0
  0
LINE
  5
113
330
1F
100
AcDbEntity
  8
0
  6
CONTINUOUS
 62
     7
100
AcDbLine
 10
65.2625296992
 20
30.5371949117
 30
0.0
 11
65.2625296992
 21
26.5601782412
 31
0.0
  0
ARC
  5
114
330
1F
100
AcDbEntity
  8
0
  6
CONTINUOUS
 62
     7
100
AcDbCircle
 10
65.7349716563
 20
30.5371950344
 30
0.0
 40
0.472440944881896
100
AcDbArc
 50
90.0
 51
180.0
  0
LINE
  5
115
330
1F
100
AcDbEntity
  8
0
  6
CONTINUOUS
 62
     7
100
AcDbLine
 10
69.1995385118
 20
31.009636814
 30
0.0
 11
65.7349739481
 21
31.009636814
 31
0.0
  0
LINE
  5
116
330
1F
100
AcDbEntity
  8
0
  6
CONTINUOUS
 62
     7
100
AcDbLine
 10
69.1995385118
 20
30.9299590144
 30
0.0
 11
69.1995385118
 21
31.009636814
 31
0.0
  0
ARC
  5
117
330
1F
100
AcDbEntity
  8
0
  6
CONTINUOUS
 62
     7
100
AcDbCircle
 10
69.1601685067
 20
30.9299580911
 30
0.0
 40
0.0393700787401627
100
AcDbArc
 50
287.6004667859
 51
0.0
  0
ARC
  5
118
330
1F
100
AcDbEntity
  8
0
  6
CONTINUOUS
 62
     7
100
AcDbCircle
 10
69.233620087
 20
30.6984159171
 30
0.0
 40
0.2035433070866172
100
AcDbArc
 50
107.6004667859
 51
294.8878920264
  0
ARC
  5
119
330
1F
100
AcDbEntity
  8
0
  6
CONTINUOUS
 62
     7
100
AcDbCircle
 10
69.335848758
 20
30.4780611762
 30
0.0
 40
0.0393700787401592
100
AcDbArc
 50
90.0
 51
114.8878920264
  0
LINE
  5
11A
330
1F
100
AcDbEntity
  8
0
  6
CONTINUOUS
 62
     7
100
AcDbLine
 10
69.3358501105
 20
30.5174315133
 30
0.0
 11
69.6759955144
 21
30.5174315133
 31
0.0
  0
ARC
  5
11B
330
1F
100
AcDbEntity
  8
0
  6
CONTINUOUS
 62
     7
100
AcDbCircle
 10
69.675993471
 20
30.5568013337
 30
0.0
 40
0.039370078740159
100
AcDbArc
 50
270.0
 51
356.3380644245
  0
LINE
  5
11C
330
1F
100
AcDbEntity
  8
0
  6
CONTINUOUS
 62
     7
100
AcDbLine
 10
69.7152829539
 20
30.5542878342
 30
0.0
 11
69.7286728792
 21
30.7634930974
 31
0.0
  0
LINE
  5
11D
330
1F
100
AcDbEntity
  8
0
  6
CONTINUOUS
 62
     7
100
AcDbLine
 10
69.7286728792
 20
30.7634930974
 30
0.0
 11
70.1444223165
 21
30.7634930974
 31
0.0
  0
ARC
  5
11E
330
1F
100
AcDbEntity
  8
0
  6
CONTINUOUS
 62
     7
100
AcDbCircle
 10
70.1444204752
 20
30.7241241683
 30
0.0
 40
0.0393700787401627
100
AcDbArc
 50
0.0
 51
90.0
  0
LINE
  5
11F
330
1F
100
AcDbEntity
  8
0
  6
CONTINUOUS
 62
     7
100
AcDbLine
 10
70.1837895417
 20
30.2615257762
 30
0.0
 11
70.1837895417
 21
30.7241235256
 31
0.0
  0
LINE
  5
120
330
1F
100
AcDbEntity
  8
0
  6
CONTINUOUS
 62
     7
100
AcDbLine
 10
69.1995385118
 20
16.7163784642
 30
0.0
 11
69.1995385118
 21
16.7960562638
 31
0.0
  0
ARC
  5
121
330
1F
100
AcDbEntity
  8
0
  6
CONTINUOUS
 62
     7
100
AcDbCircle
 10
69.1601685067
 20
16.7960561588
 30
0.0
 40
0.0393700787401627
100
AcDbArc
 50
0.0
 51
72.3995332141
  0
ARC
  5
122
330
1F
100
AcDbEntity
  8
0
  6
CONTINUOUS
 62
     7
100
AcDbCircle
 10
62.8215858295
 20
17.1888192155
 30
0.0
 40
0.4724409448818889
100
AcDbArc
 50
270.0
 51
0.0
  0
ARC
  5
123
330
1F
100
AcDbEntity
  8
0
  6
CONTINUOUS
 62
     7
100
AcDbCircle
 10
59.3963889791
 20
16.7960561588
 30
0.0
 40
0.0393700787401603
100
AcDbArc
 50
107.6004667859
 51
180.0
  0
ARC
  5
124
330
1F
100
AcDbEntity
  8
0
  6
CONTINUOUS
 62
     7
100
AcDbCircle
 10
32.7063661185
 20
34.4223312695
 30
0.0
 40
0.2035433070866141
100
AcDbArc
 50
351.0551815601
 51
19.8879068429
  0
ARC
  5
125
330
1F
100
AcDbEntity
  8
0
  6
CONTINUOUS
 62
     7
100
AcDbCircle
 10
32.9347921375
 20
34.5049658075
 30
0.0
 40
0.0393700787401627
100
AcDbArc
 50
175.0
 51
199.8879068429
  0
LINE
  5
126
330
1F
100
AcDbEntity
  8
0
  6
CONTINUOUS
 62
     7
100
AcDbLine
 10
32.9165556293
 20
34.7482466386
 30
0.0
 11
32.8955719784
 21
34.5083966093
 31
0.0
  0
ARC
  5
127
330
1F
100
AcDbEntity
  8
0
  6
CONTINUOUS
 62
     7
100
AcDbCircle
 10
32.9557779795
 20
34.7448145546
 30
0.0
 40
0.0393718675624497
100
AcDbArc
 50
150.1122158958
 51
175.0
  0
ARC
  5
128
330
1F
100
AcDbEntity
  8
0
  6
CONTINUOUS
 62
     7
100
AcDbCircle
 10
32.7451697917
 20
34.8658598905
 30
0.0
 40
0.2035433070866207
100
AcDbArc
 50
330.1122158958
 51
157.3995463205
  0
ARC
  5
129
330
1F
100
AcDbEntity
  8
0
  6
CONTINUOUS
 62
     7
100
AcDbCircle
 10
32.5209104112
 20
34.9592121442
 30
0.0
 40
0.0393700787401607
100
AcDbArc
 50
265.0000629249
 51
337.3995463205
  0
LINE
  5
12A
330
1F
100
AcDbEntity
  8
0
  6
CONTINUOUS
 62
     7
100
AcDbLine
 10
32.3588861249
 20
34.9338658276
 30
0.0
 11
32.5174790661
 21
34.9199924945
 31
0.0
  0
ARC
  5
12B
330
1F
100
AcDbEntity
  8
0
  6
CONTINUOUS
 62
     7
100
AcDbCircle
 10
32.3623178975
 20
34.9730870157
 30
0.0
 40
0.0393701270016907
100
AcDbArc
 50
192.6004798922
 51
265.0000629249
  0
ARC
  5
12C
330
1F
100
AcDbEntity
  8
0
  6
CONTINUOUS
 62
     7
100
AcDbCircle
 10
32.1252550964
 20
34.9200951168
 30
0.0
 40
0.2035432588250799
100
AcDbArc
 50
12.6004798922
 51
199.8878223834
  0
ARC
  5
12D
330
1F
100
AcDbEntity
  8
0
  6
CONTINUOUS
 62
     7
100
AcDbCircle
 10
31.8968291119
 20
34.837460972
 30
0.0
 40
0.0393700091412004
100
AcDbArc
 50
355.0
 51
19.8878223834
  0
LINE
  5
12E
330
1F
100
AcDbEntity
  8
0
  6
CONTINUOUS
 62
     7
100
AcDbLine
 10
31.9150661852
 20
34.594180365
 30
0.0
 11
31.9360498362
 21
34.8340303942
 31
0.0
  0
ARC
  5
12F
330
1F
100
AcDbEntity
  8
0
  6
CONTINUOUS
 62
     7
100
AcDbCircle
 10
31.8758449831
 20
34.5976112825
 30
0.0
 40
0.0393700787401621
100
AcDbArc
 50
330.1121227901
 51
355.0
  0
ARC
  5
130
330
1F
100
AcDbEntity
  8
0
  6
CONTINUOUS
 62
     7
100
AcDbCircle
 10
32.0864514232
 20
34.4765664958
 30
0.0
 40
0.203543307086615
100
AcDbArc
 50
150.1121227901
 51
178.9447392179
  0
LINE
  5
131
330
1F
100
AcDbEntity
  8
0
  6
CONTINUOUS
 62
     7
100
AcDbLine
 10
31.8829430363
 20
34.4803143737
 30
0.0
 11
20.6354081155
 21
35.4643471661
 31
0.0
  0
ARC
  5
132
330
1F
100
AcDbEntity
  8
0
  6
CONTINUOUS
 62
     7
100
AcDbCircle
 10
20.4343398871
 20
35.4959944432
 30
0.0
 40
0.2035433070866174
100
AcDbArc
 50
351.0551815601
 51
19.8879068429
  0
ARC
  5
133
330
1F
100
AcDbEntity
  8
0
  6
CONTINUOUS
 62
     7
100
AcDbCircle
 10
20.662765906
 20
35.5786289812
 30
0.0
 40
0.0393700787401623
100
AcDbArc
 50
175.0
 51
199.8879068429
  0
LINE
  5
134
330
1F
100
AcDbEntity
  8
0
  6
CONTINUOUS
 62
     7
100
AcDbLine
 10
20.6445295034
 20
35.8219093289
 30
0.0
 11
20.6235458525
 21
35.5820592996
 31
0.0
  0
ARC
  5
135
330
1F
100
AcDbEntity
  8
0
  6
CONTINUOUS
 62
     7
100
AcDbCircle
 10
20.683751748
 20
35.8184777284
 30
0.0
 40
0.0393718675624503
100
AcDbArc
 50
150.1122158958
 51
175.0
  0
ARC
  5
136
330
1F
100
AcDbEntity
  8
0
  6
CONTINUOUS
 62
     7
100
AcDbCircle
 10
20.4731435603
 20
35.9395230642
 30
0.0
 40
0.203543307086617
100
AcDbArc
 50
330.1122158958
 51
157.3995463205
  0
ARC
  5
137
330
1F
100
AcDbEntity
  8
0
  6
CONTINUOUS
 62
     7
100
AcDbCircle
 10
20.2488841798
 20
36.0328753179
 30
0.0
 40
0.0393700787401574
100
AcDbArc
 50
265.0000629249
 51
337.3995463205
  0
LINE
  5
138
330
1F
100
AcDbEntity
  8
0
  6
CONTINUOUS
 62
     7
100
AcDbLine
 10
20.086859999
 20
36.0075308645
 30
0.0
 11
20.2454529403
 21
35.9936551848
 31
0.0
  0
ARC
  5
139
330
1F
100
AcDbEntity
  8
0
  6
CONTINUOUS
 62
     7
100
AcDbCircle
 10
20.090291666
 20
36.0467501895
 30
0.0
 40
0.0393701270016907
100
AcDbArc
 50
192.6004798922
 51
265.0000629249
  0
ARC
  5
13A
330
1F
100
AcDbEntity
  8
0
  6
CONTINUOUS
 62
     7
100
AcDbCircle
 10
19.8532288649
 20
35.9937582906
 30
0.0
 40
0.2035432588250799
100
AcDbArc
 50
12.6004798922
 51
199.8878223834
  0
ARC
  5
13B
330
1F
100
AcDbEntity
  8
0
  6
CONTINUOUS
 62
     7
100
AcDbCircle
 10
19.6248028804
 20
35.9111241458
 30
0.0
 40
0.0393700091412018
100
AcDbArc
 50
355.0
 51
19.8878223834
  0
LINE
  5
13C
330
1F
100
AcDbEntity
  8
0
  6
CONTINUOUS
 62
     7
100
AcDbLine
 10
19.6430388861
 20
35.6678430553
 30
0.0
 11
19.664022537
 21
35.9076930845
 31
0.0
  0
ARC
  5
13D
330
1F
100
AcDbEntity
  8
0
  6
CONTINUOUS
 62
     7
100
AcDbCircle
 10
19.6038187516
 20
35.6712744563
 30
0.0
 40
0.0393700787401588
100
AcDbArc
 50
330.1121227901
 51
355.0
  0
ARC
  5
13E
330
1F
100
AcDbEntity
  8
0
  6
CONTINUOUS
 62
     7
100
AcDbCircle
 10
19.8144251917
 20
35.5502296696
 30
0.0
 40
0.2035433070866149
100
AcDbArc
 50
150.1121227901
 51
178.9447392179
  0
LINE
  5
13F
330
1F
100
AcDbEntity
  8
0
  6
CONTINUOUS
 62
     7
100
AcDbLine
 10
19.6109169105
 20
35.5539794107
 30
0.0
 11
18.1152861881
 21
35.6848280324
 31
0.0
  0
LINE
  5
140
330
1F
100
AcDbEntity
  8
0
  6
CONTINUOUS
 62
     7
100
AcDbLine
 10
18.1152861881
 20
36.5083201727
 30
0.0
 11
18.1152861881
 21
35.6848280324
 31
0.0
  0
ARC
  5
141
330
1F
100
AcDbEntity
  8
0
  6
CONTINUOUS
 62
     7
100
AcDbCircle
 10
18.3515070894
 20
36.5083194651
 30
0.0
 40
0.2362204724409445
100
AcDbArc
 50
85.0
 51
180.0
  0
LINE
  5
142
330
1F
100
AcDbEntity
  8
0
  6
CONTINUOUS
 62
     7
100
AcDbLine
 10
33.7539844619
 20
35.3978997204
 30
0.0
 11
18.3720953815
 21
36.7436411876
 31
0.0
  0
ARC
  5
143
330
1F
100
AcDbEntity
  8
0
  6
CONTINUOUS
 62
     7
100
AcDbCircle
 10
33.7333968531
 20
35.1625784872
 30
0.0
 40
0.236220472440948
100
AcDbArc
 50
360.0
 51
85.0
  0
LINE
  5
144
330
1F
100
AcDbEntity
  8
0
  6
CONTINUOUS
 62
     7
100
AcDbLine
 10
33.9696171709
 20
34.2977552027
 30
0.0
 11
33.9696171709
 21
35.1625787055
 31
0.0
  0
LINE
  5
145
330
1F
100
AcDbEntity
  8
0
  6
CONTINUOUS
 62
     7
100
AcDbLine
 10
33.9696171709
 20
34.2977552027
 30
0.0
 11
32.9074342413
 21
34.3906844758
 31
0.0
  0
ARC
  5
146
330
1F
100
AcDbEntity
  8
0
  6
CONTINUOUS
 62
     7
100
AcDbCircle
 10
19.8144251635
 20
2.4563693966
 30
0.0
 40
0.2035432588250759
100
AcDbArc
 50
181.0551806233
 51
209.8878223834
  0
ARC
  5
147
330
1F
100
AcDbEntity
  8
0
  6
CONTINUOUS
 62
     7
100
AcDbCircle
 10
19.6038187516
 20
2.3353248942
 30
0.0
 40
0.0393700091412038
100
AcDbArc
 50
5.0
 51
29.8878223834
  0
LINE
  5
148
330
1F
100
AcDbEntity
  8
0
  6
CONTINUOUS
 62
     7
100
AcDbLine
 10
19.6640237103
 20
2.0989064865
 30
0.0
 11
19.6430388861
 21
2.3387562224
 31
0.0
  0
ARC
  5
149
330
1F
100
AcDbEntity
  8
0
  6
CONTINUOUS
 62
     7
100
AcDbCircle
 10
19.6248028804
 20
2.0954752046
 30
0.0
 40
0.0393700787401552
100
AcDbArc
 50
340.1121227901
 51
5.0
  0
ARC
  5
14A
330
1F
100
AcDbEntity
  8
0
  6
CONTINUOUS
 62
     7
100
AcDbCircle
 10
19.8532289421
 20
2.0128407848
 30
0.0
 40
0.2035433070866166
100
AcDbArc
 50
160.1121227901
 51
347.3995463205
  0
ARC
  5
14B
330
1F
100
AcDbEntity
  8
0
  6
CONTINUOUS
 62
     7
100
AcDbCircle
 10
20.0902917674
 20
1.9598489943
 30
0.0
 40
0.0393700787401598
100
AcDbArc
 50
95.0000629249
 51
167.3995463205
  0
LINE
  5
14C
330
1F
100
AcDbEntity
  8
0
  6
CONTINUOUS
 62
     7
100
AcDbLine
 10
20.2454529403
 20
2.0129445329
 30
0.0
 11
20.086859999
 21
1.9990692932
 31
0.0
  0
ARC
  5
14D
330
1F
100
AcDbEntity
  8
0
  6
CONTINUOUS
 62
     7
100
AcDbCircle
 10
20.2488842507
 20
1.9737242142
 30
0.0
 40
0.039370078740156
100
AcDbArc
 50
22.6004798922
 51
95.0000629249
  0
ARC
  5
14E
330
1F
100
AcDbEntity
  8
0
  6
CONTINUOUS
 62
     7
100
AcDbCircle
 10
20.4731435885
 20
2.0670765705
 30
0.0
 40
0.2035433070866184
100
AcDbArc
 50
202.6004798922
 51
29.8879068429
  0
ARC
  5
14F
330
1F
100
AcDbEntity
  8
0
  6
CONTINUOUS
 62
     7
100
AcDbCircle
 10
20.683749966
 20
2.1881214662
 30
0.0
 40
0.0393700787401624
100
AcDbArc
 50
185.0
 51
209.8879068429
  0
LINE
  5
150
330
1F
100
AcDbEntity
  8
0
  6
CONTINUOUS
 62
     7
100
AcDbLine
 10
20.6235458525
 20
2.4245390981
 30
0.0
 11
20.6445295034
 21
2.1846900955
 31
0.0
  0
ARC
  5
151
330
1F
100
AcDbEntity
  8
0
  6
CONTINUOUS
 62
     7
100
AcDbCircle
 10
20.662767688
 20
2.4279705251
 30
0.0
 40
0.0393718675624498
100
AcDbArc
 50
160.1122158958
 51
185.0
  0
ARC
  5
152
330
1F
100
AcDbEntity
  8
0
  6
CONTINUOUS
 62
     7
100
AcDbCircle
 10
20.4343398099
 20
2.5106051823
 30
0.0
 40
0.20354330708662
100
AcDbArc
 50
340.1122158958
 51
8.9447392179
  0
LINE
  5
153
330
1F
100
AcDbEntity
  8
0
  6
CONTINUOUS
 62
     7
100
AcDbLine
 10
20.6354081155
 20
2.542252405
 30
0.0
 11
31.8829430363
 21
3.5262841707
 31
0.0
  0
ARC
  5
154
330
1F
100
AcDbEntity
  8
0
  6
CONTINUOUS
 62
     7
100
AcDbCircle
 10
32.086451395
 20
3.5300325703
 30
0.0
 40
0.2035432588250828
100
AcDbArc
 50
181.0551806233
 51
209.8878223834
  0
ARC
  5
155
330
1F
100
AcDbEntity
  8
0
  6
CONTINUOUS
 62
     7
100
AcDbCircle
 10
31.8758449831
 20
3.4089880679
 30
0.0
 40
0.0393700091412033
100
AcDbArc
 50
5.0
 51
29.8878223834
  0
LINE
  5
156
330
1F
100
AcDbEntity
  8
0
  6
CONTINUOUS
 62
     7
100
AcDbLine
 10
31.9360498362
 20
3.1725696168
 30
0.0
 11
31.9150661852
 21
3.4124193527
 31
0.0
  0
ARC
  5
157
330
1F
100
AcDbEntity
  8
0
  6
CONTINUOUS
 62
     7
100
AcDbCircle
 10
31.8968291119
 20
3.1691383784
 30
0.0
 40
0.0393700787401588
100
AcDbArc
 50
340.1121227901
 51
5.0
  0
ARC
  5
158
330
1F
100
AcDbEntity
  8
0
  6
CONTINUOUS
 62
     7
100
AcDbCircle
 10
32.1252551736
 20
3.0865039585
 30
0.0
 40
0.2035433070866165
100
AcDbArc
 50
160.1121227901
 51
347.3995463205
  0
ARC
  5
159
330
1F
100
AcDbEntity
  8
0
  6
CONTINUOUS
 62
     7
100
AcDbCircle
 10
32.3623179989
 20
3.033512168
 30
0.0
 40
0.0393700787401574
100
AcDbArc
 50
95.0000629249
 51
167.3995463205
  0
LINE
  5
15A
330
1F
100
AcDbEntity
  8
0
  6
CONTINUOUS
 62
     7
100
AcDbLine
 10
32.5174790661
 20
3.0866075165
 30
0.0
 11
32.3588861249
 21
3.0727324235
 31
0.0
  0
ARC
  5
15B
330
1F
100
AcDbEntity
  8
0
  6
CONTINUOUS
 62
     7
100
AcDbCircle
 10
32.5209104822
 20
3.047387388
 30
0.0
 40
0.0393700787401593
100
AcDbArc
 50
22.6004798922
 51
95.0000629249
  0
ARC
  5
15C
330
1F
100
AcDbEntity
  8
0
  6
CONTINUOUS
 62
     7
100
AcDbCircle
 10
32.7451698199
 20
3.1407397443
 30
0.0
 40
0.2035433070866184
100
AcDbArc
 50
202.6004798922
 51
29.8879068429
  0
ARC
  5
15D
330
1F
100
AcDbEntity
  8
0
  6
CONTINUOUS
 62
     7
100
AcDbCircle
 10
32.9557761975
 20
3.2617846399
 30
0.0
 40
0.0393700787401605
100
AcDbArc
 50
185.0
 51
209.8879068429
  0
LINE
  5
15E
330
1F
100
AcDbEntity
  8
0
  6
CONTINUOUS
 62
     7
100
AcDbLine
 10
32.8955719784
 20
3.4982022284
 30
0.0
 11
32.9165556293
 21
3.2583533725
 31
0.0
  0
ARC
  5
15F
330
1F
100
AcDbEntity
  8
0
  6
CONTINUOUS
 62
     7
100
AcDbCircle
 10
32.9347939195
 20
3.5016336988
 30
0.0
 40
0.0393718675624449
100
AcDbArc
 50
160.1122158958
 51
185.0
  0
ARC
  5
160
330
1F
100
AcDbEntity
  8
0
  6
CONTINUOUS
 62
     7
100
AcDbCircle
 10
32.7063660414
 20
3.5842683561
 30
0.0
 40
0.2035433070866179
100
AcDbArc
 50
340.1122158958
 51
8.9447392179
  0
LINE
  5
161
330
1F
100
AcDbEntity
  8
0
  6
CONTINUOUS
 62
     7
100
AcDbLine
 10
32.9074342413
 20
3.6159155352
 30
0.0
 11
33.9696171709
 21
3.708844515
 31
0.0
  0
LINE
  5
162
330
1F
100
AcDbEntity
  8
0
  6
CONTINUOUS
 62
     7
100
AcDbLine
 10
33.9696171709
 20
2.8440207189
 30
0.0
 11
33.9696171709
 21
3.708844515
 31
0.0
  0
ARC
  5
163
330
1F
100
AcDbEntity
  8
0
  6
CONTINUOUS
 62
     7
100
AcDbCircle
 10
33.7333968531
 20
2.8440208632
 30
0.0
 40
0.2362204724409457
100
AcDbArc
 50
275.0
 51
0.0
  0
LINE
  5
164
330
1F
100
AcDbEntity
  8
0
  6
CONTINUOUS
 62
     7
100
AcDbLine
 10
18.3720953815
 20
1.2629583101
 30
0.0
 11
33.7539844619
 21
2.608699264
 31
0.0
  0
ARC
  5
165
330
1F
100
AcDbEntity
  8
0
  6
CONTINUOUS
 62
     7
100
AcDbCircle
 10
18.3515070894
 20
1.4982798853
 30
0.0
 40
0.236220472440948
100
AcDbArc
 50
180.0
 51
275.0
  0
LINE
  5
166
330
1F
100
AcDbEntity
  8
0
  6
CONTINUOUS
 62
     7
100
AcDbLine
 10
18.1152861881
 20
2.3217703653
 30
0.0
 11
18.1152861881
 21
1.4982798383
 31
0.0
  0
LINE
  5
167
330
1F
100
AcDbEntity
  8
0
  6
CONTINUOUS
 62
     7
100
AcDbLine
 10
18.1152861881
 20
2.3217703653
 30
0.0
 11
19.6109169105
 21
2.4526210404
 31
0.0
  0
LINE
  5
168
330
1F
100
AcDbEntity
  8
0
  6
CONTINUOUS
 62
     7
100
AcDbLine
 10
33.7744166525
 20
32.1950089338
 30
0.0
 11
33.3774168654
 21
32.1250063291
 31
0.0
  0
ARC
  5
169
330
1F
100
AcDbEntity
  8
0
  6
CONTINUOUS
 62
     7
100
AcDbCircle
 10
33.4184362232
 20
31.8923757172
 30
0.0
 40
0.2362204724409414
100
AcDbArc
 50
100.0
 51
180.0
  0
LINE
  5
16A
330
1F
100
AcDbEntity
  8
0
  6
CONTINUOUS
 62
     7
100
AcDbLine
 10
33.182216347
 20
31.8923745632
 30
0.0
 11
33.182216347
 21
6.1142233946
 31
0.0
  0
ARC
  5
16B
330
1F
100
AcDbEntity
  8
0
  6
CONTINUOUS
 62
     7
100
AcDbCircle
 10
33.4184362232
 20
6.1142236332
 30
0.0
 40
0.2362204724409449
100
AcDbArc
 50
180.0
 51
260.0
  0
LINE
  5
16C
330
1F
100
AcDbEntity
  8
0
  6
CONTINUOUS
 62
     7
100
AcDbLine
 10
33.3774168654
 20
5.8815916286
 30
0.0
 11
33.7744166525
 21
5.8115901973
 31
0.0
  0
ARC
  5
16D
330
1F
100
AcDbEntity
  8
0
  6
CONTINUOUS
 62
     7
100
AcDbCircle
 10
33.7333968531
 20
5.5789584683
 30
0.0
 40
0.236220472440944
100
AcDbArc
 50
0.0
 51
80.0
  0
LINE
  5
16E
330
1F
100
AcDbEntity
  8
0
  6
CONTINUOUS
 62
     7
100
AcDbLine
 10
33.9696171709
 20
4.2376283532
 30
0.0
 11
33.9696171709
 21
5.5789584313
 31
0.0
  0
LINE
  5
16F
330
1F
100
AcDbEntity
  8
0
  6
CONTINUOUS
 62
     7
100
AcDbLine
 10
33.9696171709
 20
4.2376283532
 30
0.0
 11
32.3948131765
 21
4.0998509848
 31
0.0
  0
LINE
  5
170
330
1F
100
AcDbEntity
  8
0
  6
CONTINUOUS
 62
     7
100
AcDbLine
 10
32.3948131765
 20
4.0998509848
 30
0.0
 11
32.3948131765
 21
33.9067487329
 31
0.0
  0
LINE
  5
171
330
1F
100
AcDbEntity
  8
0
  6
CONTINUOUS
 62
     7
100
AcDbLine
 10
32.3948131765
 20
33.9067487329
 30
0.0
 11
33.9696171709
 21
33.7689704846
 31
0.0
  0
ARC
  5
172
330
1F
100
AcDbEntity
  8
0
  6
CONTINUOUS
 62
     7
100
AcDbCircle
 10
33.7333968531
 20
32.4276408821
 30
0.0
 40
0.236220472440948
100
AcDbArc
 50
280.0
 51
360.0
  0
LINE
  5
173
330
1F
100
AcDbEntity
  8
0
  6
CONTINUOUS
 62
     7
100
AcDbLine
 10
33.9696171709
 20
32.4276406997
 30
0.0
 11
33.9696171709
 21
33.7689704846
 31
0.0
  0
LINE
  5
174
330
1F
100
AcDbEntity
  8
0
  6
CONTINUOUS
 62
     7
100
AcDbLine
 10
18.1152861881
 20
35.156045661
 30
0.0
 11
18.1152861881
 21
2.8505543501
 31
0.0
  0
LINE
  5
175
330
1F
100
AcDbEntity
  8
0
  6
CONTINUOUS
 62
     7
100
AcDbLine
 10
31.8814294538
 20
4.054935717
 30
0.0
 11
18.1152861881
 21
2.8505543501
 31
0.0
  0
LINE
  5
176
330
1F
100
AcDbEntity
  8
0
  6
CONTINUOUS
 62
     7
100
AcDbLine
 10
18.1152861881
 20
35.156045661
 30
0.0
 11
31.8814294538
 21
33.9516634141
 31
0.0
  0
LINE
  5
177
330
1F
100
AcDbEntity
  8
0
  6
CONTINUOUS
 62
     7
100
AcDbLine
 10
31.8814294538
 20
33.9516634141
 30
0.0
 11
31.8814294538
 21
4.054935717
 31
0.0
  0
ARC
  5
178
330
1F
100
AcDbEntity
  8
0
  6
CONTINUOUS
 62
     7
100
AcDbCircle
 10
32.469303216
 20
3.6372601465
 30
0.0
 40
0.0393700787401572
100
AcDbArc
 50
275.0000629249
 51
347.3995463205
  0
LINE
  5
179
330
1F
100
AcDbEntity
  8
0
  6
CONTINUOUS
 62
     7
100
AcDbLine
 10
32.4727356897
 20
3.5980400084
 30
0.0
 11
32.3141427484
 21
3.584164622
 31
0.0
  0
ARC
  5
17A
330
1F
100
AcDbEntity
  8
0
  6
CONTINUOUS
 62
     7
100
AcDbCircle
 10
32.3107107328
 20
3.6233849266
 30
0.0
 40
0.0393700787401601
100
AcDbArc
 50
202.6004798922
 51
275.0000629249
  0
ARC
  5
17B
330
1F
100
AcDbEntity
  8
0
  6
CONTINUOUS
 62
     7
100
AcDbCircle
 10
20.1972769846
 20
2.5635969728
 30
0.0
 40
0.0393700787401596
100
AcDbArc
 50
275.0000629249
 51
347.3995463205
  0
LINE
  5
17C
330
1F
100
AcDbEntity
  8
0
  6
CONTINUOUS
 62
     7
100
AcDbLine
 10
20.2007072172
 20
2.5243767315
 30
0.0
 11
20.0421166226
 21
2.5105014917
 31
0.0
  0
ARC
  5
17D
330
1F
100
AcDbEntity
  8
0
  6
CONTINUOUS
 62
     7
100
AcDbCircle
 10
20.0386845013
 20
2.5497217529
 30
0.0
 40
0.0393700787401578
100
AcDbArc
 50
202.6004798922
 51
275.0000629249
  0
ARC
  5
17E
330
1F
100
AcDbEntity
  8
0
  6
CONTINUOUS
 62
     7
100
AcDbCircle
 10
20.0386845722
 20
35.4568774158
 30
0.0
 40
0.0393700787401631
100
AcDbArc
 50
85.0000629249
 51
157.3995463205
  0
LINE
  5
17F
330
1F
100
AcDbEntity
  8
0
  6
CONTINUOUS
 62
     7
100
AcDbLine
 10
20.0421166226
 20
35.4960971993
 30
0.0
 11
20.2007072172
 21
35.4822238663
 31
0.0
  0
ARC
  5
180
330
1F
100
AcDbEntity
  8
0
  6
CONTINUOUS
 62
     7
100
AcDbCircle
 10
20.197277086
 20
35.4430025443
 30
0.0
 40
0.0393700787401563
100
AcDbArc
 50
12.6004798922
 51
85.0000629249
  0
ARC
  5
181
330
1F
100
AcDbEntity
  8
0
  6
CONTINUOUS
 62
     7
100
AcDbCircle
 10
32.3107108037
 20
34.3832142421
 30
0.0
 40
0.0393700787401628
100
AcDbArc
 50
85.0000629249
 51
157.3995463205
  0
LINE
  5
182
330
1F
100
AcDbEntity
  8
0
  6
CONTINUOUS
 62
     7
100
AcDbLine
 10
32.3141427484
 20
34.422434509
 30
0.0
 11
32.4727356897
 21
34.4085588293
 31
0.0
  0
ARC
  5
183
330
1F
100
AcDbEntity
  8
0
  6
CONTINUOUS
 62
     7
100
AcDbCircle
 10
32.4693033174
 20
34.3693393705
 30
0.0
 40
0.0393700787401653
100
AcDbArc
 50
12.6004798922
 51
85.0000629249
  0
LINE
  5
184
330
1F
100
AcDbEntity
  8
0
  6
CONTINUOUS
 62
     7
100
AcDbLine
 10
18.1152861881
 20
35.156045661
 30
0.0
 11
18.1152861881
 21
35.6848280324
 31
0.0
  0
LINE
  5
185
330
1F
100
AcDbEntity
  8
0
  6
CONTINUOUS
 62
     7
100
AcDbLine
 10
18.1152861881
 20
2.3217703653
 30
0.0
 11
18.1152861881
 21
2.8505543501
 31
0.0
  0
ARC
  5
186
330
1F
100
AcDbEntity
  8
0
  6
CONTINUOUS
 62
     7
100
AcDbCircle
 10
32.086451395
 20
3.5300325703
 30
0.0
 40
0.2035433070866151
100
AcDbArc
 50
22.6004798922
 51
181.0551806233
  0
ARC
  5
187
330
1F
100
AcDbEntity
  8
0
  6
CONTINUOUS
 62
     7
100
AcDbCircle
 10
32.0864514232
 20
34.4765664958
 30
0.0
 40
0.203543307086617
100
AcDbArc
 50
178.9447392179
 51
337.3995463205
  0
ARC
  5
188
330
1F
100
AcDbEntity
  8
0
  6
CONTINUOUS
 62
     7
100
AcDbCircle
 10
32.7063660414
 20
3.5842683561
 30
0.0
 40
0.2035433070866133
100
AcDbArc
 50
8.9447392179
 51
167.3995463205
  0
ARC
  5
189
330
1F
100
AcDbEntity
  8
0
  6
CONTINUOUS
 62
     7
100
AcDbCircle
 10
32.7063661185
 20
34.4223312695
 30
0.0
 40
0.2035433070866107
100
AcDbArc
 50
192.6004798922
 51
351.0551815601
  0
LINE
  5
18A
330
1F
100
AcDbEntity
  8
0
  6
CONTINUOUS
 62
     7
100
AcDbLine
 10
33.9696171709
 20
4.2376283532
 30
0.0
 11
33.9696171709
 21
3.708844515
 31
0.0
  0
LINE
  5
18B
330
1F
100
AcDbEntity
  8
0
  6
CONTINUOUS
 62
     7
100
AcDbLine
 10
33.9696171709
 20
34.2977552027
 30
0.0
 11
33.9696171709
 21
33.7689704846
 31
0.0
  0
ARC
  5
18C
330
1F
100
AcDbEntity
  8
0
  6
CONTINUOUS
 62
     7
100
AcDbCircle
 10
20.4343398099
 20
2.5106051823
 30
0.0
 40
0.2035433070866165
100
AcDbArc
 50
8.9447392179
 51
167.3995463205
  0
ARC
  5
18D
330
1F
100
AcDbEntity
  8
0
  6
CONTINUOUS
 62
     7
100
AcDbCircle
 10
20.4343398871
 20
35.4959944432
 30
0.0
 40
0.2035433070866142
100
AcDbArc
 50
192.6004798922
 51
351.0551815601
  0
ARC
  5
18E
330
1F
100
AcDbEntity
  8
0
  6
CONTINUOUS
 62
     7
100
AcDbCircle
 10
19.8144251635
 20
2.4563693966
 30
0.0
 40
0.2035433070866152
100
AcDbArc
 50
22.6004798922
 51
181.0551806233
  0
ARC
  5
18F
330
1F
100
AcDbEntity
  8
0
  6
CONTINUOUS
 62
     7
100
AcDbCircle
 10
19.8144251917
 20
35.5502296696
 30
0.0
 40
0.2035433070866164
100
AcDbArc
 50
178.9447392179
 51
337.3995463205
  0
LINE
  5
190
330
1F
100
AcDbEntity
  8
0
  6
CONTINUOUS
 62
     7
100
AcDbLine
 10
16.6602840098
 20
2.608699264
 30
0.0
 11
1.2783943427
 21
1.2629583101
 31
0.0
  0
ARC
  5
191
330
1F
100
AcDbEntity
  8
0
  6
CONTINUOUS
 62
     7
100
AcDbCircle
 10
1.257806302
 20
1.4982798853
 30
0.0
 40
0.2362204724409538
100
AcDbArc
 50
180.0
 51
275.0
  0
LINE
  5
192
330
1F
100
AcDbEntity
  8
0
  6
CONTINUOUS
 62
     7
100
AcDbLine
 10
1.0215858094
 20
1.4982798383
 30
0.0
 11
1.0215858094
 21
2.3217703653
 31
0.0
  0
LINE
  5
193
330
1F
100
AcDbEntity
  8
0
  6
CONTINUOUS
 62
     7
100
AcDbLine
 10
2.5115443372
 20
2.4521248728
 30
0.0
 11
1.0215858094
 21
2.3217703653
 31
0.0
  0
ARC
  5
194
330
1F
100
AcDbEntity
  8
0
  6
CONTINUOUS
 62
     7
100
AcDbCircle
 10
2.715053126
 20
2.4558732265
 30
0.0
 40
0.2035432588250843
100
AcDbArc
 50
181.0551806233
 51
209.8878223834
  0
ARC
  5
195
330
1F
100
AcDbEntity
  8
0
  6
CONTINUOUS
 62
     7
100
AcDbCircle
 10
2.5044467141
 20
2.3348287241
 30
0.0
 40
0.0393700091412029
100
AcDbArc
 50
5.0
 51
29.8878223834
  0
LINE
  5
196
330
1F
100
AcDbEntity
  8
0
  6
CONTINUOUS
 62
     7
100
AcDbLine
 10
2.5646511371
 20
2.0984103189
 30
0.0
 11
2.5436668995
 21
2.3382600548
 31
0.0
  0
ARC
  5
197
330
1F
100
AcDbEntity
  8
0
  6
CONTINUOUS
 62
     7
100
AcDbCircle
 10
2.5254308429
 20
2.0949790346
 30
0.0
 40
0.0393700787401594
100
AcDbArc
 50
340.1121227901
 51
5.0
  0
ARC
  5
198
330
1F
100
AcDbEntity
  8
0
  6
CONTINUOUS
 62
     7
100
AcDbCircle
 10
2.7538569046
 20
2.0123446147
 30
0.0
 40
0.203543307086617
100
AcDbArc
 50
160.1121227901
 51
347.3995463205
  0
ARC
  5
199
330
1F
100
AcDbEntity
  8
0
  6
CONTINUOUS
 62
     7
100
AcDbCircle
 10
2.9909197299
 20
1.9593528242
 30
0.0
 40
0.0393700787401645
100
AcDbArc
 50
95.0000629249
 51
167.3995463205
  0
LINE
  5
19A
330
1F
100
AcDbEntity
  8
0
  6
CONTINUOUS
 62
     7
100
AcDbLine
 10
3.1460809537
 20
2.0124483653
 30
0.0
 11
2.9874883058
 21
1.9985731256
 31
0.0
  0
ARC
  5
19B
330
1F
100
AcDbEntity
  8
0
  6
CONTINUOUS
 62
     7
100
AcDbCircle
 10
3.1495122132
 20
1.9732280441
 30
0.0
 40
0.0393700787401599
100
AcDbArc
 50
22.6004798922
 51
95.0000629249
  0
ARC
  5
19C
330
1F
100
AcDbEntity
  8
0
  6
CONTINUOUS
 62
     7
100
AcDbCircle
 10
3.3737715509
 20
2.0665804004
 30
0.0
 40
0.2035433070866187
100
AcDbArc
 50
202.6004798922
 51
29.8879068429
  0
ARC
  5
19D
330
1F
100
AcDbEntity
  8
0
  6
CONTINUOUS
 62
     7
100
AcDbCircle
 10
3.5843779285
 20
2.1876252961
 30
0.0
 40
0.0393700787401623
100
AcDbArc
 50
185.0
 51
209.8879068429
  0
LINE
  5
19E
330
1F
100
AcDbEntity
  8
0
  6
CONTINUOUS
 62
     7
100
AcDbLine
 10
3.5241735726
 20
2.4240429305
 30
0.0
 11
3.5451578102
 21
2.1841939279
 31
0.0
  0
ARC
  5
19F
330
1F
100
AcDbEntity
  8
0
  6
CONTINUOUS
 62
     7
100
AcDbCircle
 10
3.5633956505
 20
2.427474355
 30
0.0
 40
0.0393718675624502
100
AcDbArc
 50
160.1122158958
 51
185.0
  0
ARC
  5
1A0
330
1F
100
AcDbEntity
  8
0
  6
CONTINUOUS
 62
     7
100
AcDbCircle
 10
3.3349677724
 20
2.5101090122
 30
0.0
 40
0.2035433070866152
100
AcDbArc
 50
340.1122158958
 51
8.9447392179
  0
LINE
  5
1A1
330
1F
100
AcDbEntity
  8
0
  6
CONTINUOUS
 62
     7
100
AcDbLine
 10
14.7892414109
 20
3.5262841707
 30
0.0
 11
3.5360358356
 21
2.5417562374
 31
0.0
  0
ARC
  5
1A2
330
1F
100
AcDbEntity
  8
0
  6
CONTINUOUS
 62
     7
100
AcDbCircle
 10
14.9927506076
 20
3.5300325703
 30
0.0
 40
0.2035432588250797
100
AcDbArc
 50
181.0551806233
 51
209.8878223834
  0
ARC
  5
1A3
330
1F
100
AcDbEntity
  8
0
  6
CONTINUOUS
 62
     7
100
AcDbCircle
 10
14.7821441957
 20
3.4089880679
 30
0.0
 40
0.0393700091412073
100
AcDbArc
 50
5.0
 51
29.8878223834
  0
LINE
  5
1A4
330
1F
100
AcDbEntity
  8
0
  6
CONTINUOUS
 62
     7
100
AcDbLine
 10
14.8423482107
 20
3.1725696168
 30
0.0
 11
14.8213645598
 21
3.4124193527
 31
0.0
  0
ARC
  5
1A5
330
1F
100
AcDbEntity
  8
0
  6
CONTINUOUS
 62
     7
100
AcDbCircle
 10
14.8031283244
 20
3.1691383784
 30
0.0
 40
0.0393700787401595
100
AcDbArc
 50
340.1121227901
 51
5.0
  0
ARC
  5
1A6
330
1F
100
AcDbEntity
  8
0
  6
CONTINUOUS
 62
     7
100
AcDbCircle
 10
15.0315543862
 20
3.0865039585
 30
0.0
 40
0.2035433070866132
100
AcDbArc
 50
160.1121227901
 51
347.3995463205
  0
ARC
  5
1A7
330
1F
100
AcDbEntity
  8
0
  6
CONTINUOUS
 62
     7
100
AcDbCircle
 10
15.2686172115
 20
3.033512168
 30
0.0
 40
0.0393700787401593
100
AcDbArc
 50
95.0000629249
 51
167.3995463205
  0
LINE
  5
1A8
330
1F
100
AcDbEntity
  8
0
  6
CONTINUOUS
 62
     7
100
AcDbLine
 10
15.423778614
 20
3.0866075165
 30
0.0
 11
15.2651856727
 21
3.0727324235
 31
0.0
  0
ARC
  5
1A9
330
1F
100
AcDbEntity
  8
0
  6
CONTINUOUS
 62
     7
100
AcDbCircle
 10
15.4272096948
 20
3.047387388
 30
0.0
 40
0.039370078740161
100
AcDbArc
 50
22.6004798922
 51
95.0000629249
  0
ARC
  5
1AA
330
1F
100
AcDbEntity
  8
0
  6
CONTINUOUS
 62
     7
100
AcDbCircle
 10
15.6514690325
 20
3.1407397443
 30
0.0
 40
0.2035433070866151
100
AcDbArc
 50
202.6004798922
 51
29.8879068429
  0
ARC
  5
1AB
330
1F
100
AcDbEntity
  8
0
  6
CONTINUOUS
 62
     7
100
AcDbCircle
 10
15.8620754101
 20
3.2617846399
 30
0.0
 40
0.0393700787401559
100
AcDbArc
 50
185.0
 51
209.8879068429
  0
LINE
  5
1AC
330
1F
100
AcDbEntity
  8
0
  6
CONTINUOUS
 62
     7
100
AcDbLine
 10
15.8018715262
 20
3.4982022284
 30
0.0
 11
15.8228551772
 21
3.2583533725
 31
0.0
  0
ARC
  5
1AD
330
1F
100
AcDbEntity
  8
0
  6
CONTINUOUS
 62
     7
100
AcDbCircle
 10
15.8410931321
 20
3.5016336988
 30
0.0
 40
0.0393718675624463
100
AcDbArc
 50
160.1122158958
 51
185.0
  0
ARC
  5
1AE
330
1F
100
AcDbEntity
  8
0
  6
CONTINUOUS
 62
     7
100
AcDbCircle
 10
15.612665254
 20
3.5842683561
 30
0.0
 40
0.203543307086615
100
AcDbArc
 50
340.1122158958
 51
8.9447392179
  0
LINE
  5
1AF
330
1F
100
AcDbEntity
  8
0
  6
CONTINUOUS
 62
     7
100
AcDbLine
 10
16.8759167188
 20
3.708844515
 30
0.0
 11
15.8137337892
 21
3.6159155352
 31
0.0
  0
LINE
  5
1B0
330
1F
100
AcDbEntity
  8
0
  6
CONTINUOUS
 62
     7
100
AcDbLine
 10
16.8759167188
 20
3.708844515
 30
0.0
 11
16.8759167188
 21
2.8440207189
 31
0.0
  0
ARC
  5
1B1
330
1F
100
AcDbEntity
  8
0
  6
CONTINUOUS
 62
     7
100
AcDbCircle
 10
16.6396960657
 20
2.8440208632
 30
0.0
 40
0.2362204724409445
100
AcDbArc
 50
275.0
 51
0.0
  0
ARC
  5
1B2
330
1F
100
AcDbEntity
  8
0
  6
CONTINUOUS
 62
     7
100
AcDbCircle
 10
1.257806302
 20
36.5083194651
 30
0.0
 40
0.2362204724409538
100
AcDbArc
 50
85.0
 51
180.0
  0
LINE
  5
1B3
330
1F
100
AcDbEntity
  8
0
  6
CONTINUOUS
 62
     7
100
AcDbLine
 10
1.2783943427
 20
36.7436411876
 30
0.0
 11
16.6602840098
 21
35.3978997204
 31
0.0
  0
LINE
  5
1B4
330
1F
100
AcDbEntity
  8
0
  6
CONTINUOUS
 62
     7
100
AcDbLine
 10
16.8759167188
 20
35.1625787055
 30
0.0
 11
16.8759167188
 21
34.2977552027
 31
0.0
  0
LINE
  5
1B5
330
1F
100
AcDbEntity
  8
0
  6
CONTINUOUS
 62
     7
100
AcDbLine
 10
15.8137337892
 20
34.3906844758
 30
0.0
 11
16.8759167188
 21
34.2977552027
 31
0.0
  0
ARC
  5
1B6
330
1F
100
AcDbEntity
  8
0
  6
CONTINUOUS
 62
     7
100
AcDbCircle
 10
15.6126653311
 20
34.4223312695
 30
0.0
 40
0.2035433070866167
100
AcDbArc
 50
351.0551815601
 51
19.8879068429
  0
ARC
  5
1B7
330
1F
100
AcDbEntity
  8
0
  6
CONTINUOUS
 62
     7
100
AcDbCircle
 10
15.8410913501
 20
34.5049658075
 30
0.0
 40
0.0393700787401544
100
AcDbArc
 50
175.0
 51
199.8879068429
  0
LINE
  5
1B8
330
1F
100
AcDbEntity
  8
0
  6
CONTINUOUS
 62
     7
100
AcDbLine
 10
15.8228551772
 20
34.7482466386
 30
0.0
 11
15.8018715262
 21
34.5083966093
 31
0.0
  0
ARC
  5
1B9
330
1F
100
AcDbEntity
  8
0
  6
CONTINUOUS
 62
     7
100
AcDbCircle
 10
15.8620771921
 20
34.7448145546
 30
0.0
 40
0.0393718675624463
100
AcDbArc
 50
150.1122158958
 51
175.0
  0
ARC
  5
1BA
330
1F
100
AcDbEntity
  8
0
  6
CONTINUOUS
 62
     7
100
AcDbCircle
 10
15.6514690043
 20
34.8658598905
 30
0.0
 40
0.2035433070866181
100
AcDbArc
 50
330.1122158958
 51
157.3995463205
  0
ARC
  5
1BB
330
1F
100
AcDbEntity
  8
0
  6
CONTINUOUS
 62
     7
100
AcDbCircle
 10
15.4272096238
 20
34.9592121442
 30
0.0
 40
0.0393700787401558
100
AcDbArc
 50
265.0000629249
 51
337.3995463205
  0
LINE
  5
1BC
330
1F
100
AcDbEntity
  8
0
  6
CONTINUOUS
 62
     7
100
AcDbLine
 10
15.2651856727
 20
34.9338658276
 30
0.0
 11
15.423778614
 21
34.9199924945
 31
0.0
  0
ARC
  5
1BD
330
1F
100
AcDbEntity
  8
0
  6
CONTINUOUS
 62
     7
100
AcDbCircle
 10
15.2686171101
 20
34.9730870157
 30
0.0
 40
0.0393701270016925
100
AcDbArc
 50
192.6004798922
 51
265.0000629249
  0
ARC
  5
1BE
330
1F
100
AcDbEntity
  8
0
  6
CONTINUOUS
 62
     7
100
AcDbCircle
 10
15.031554309
 20
34.9200951168
 30
0.0
 40
0.2035432588250782
100
AcDbArc
 50
12.6004798922
 51
199.8878223834
  0
ARC
  5
1BF
330
1F
100
AcDbEntity
  8
0
  6
CONTINUOUS
 62
     7
100
AcDbCircle
 10
14.8031283244
 20
34.837460972
 30
0.0
 40
0.0393700091411993
100
AcDbArc
 50
355.0
 51
19.8878223834
  0
LINE
  5
1C0
330
1F
100
AcDbEntity
  8
0
  6
CONTINUOUS
 62
     7
100
AcDbLine
 10
14.8213645598
 20
34.594180365
 30
0.0
 11
14.8423482107
 21
34.8340303942
 31
0.0
  0
ARC
  5
1C1
330
1F
100
AcDbEntity
  8
0
  6
CONTINUOUS
 62
     7
100
AcDbCircle
 10
14.7821441957
 20
34.5976112825
 30
0.0
 40
0.0393700787401588
100
AcDbArc
 50
330.1121227901
 51
355.0
  0
ARC
  5
1C2
330
1F
100
AcDbEntity
  8
0
  6
CONTINUOUS
 62
     7
100
AcDbCircle
 10
14.9927506358
 20
34.4765664958
 30
0.0
 40
0.2035433070866184
100
AcDbArc
 50
150.1121227901
 51
178.9447392179
  0
LINE
  5
1C3
330
1F
100
AcDbEntity
  8
0
  6
CONTINUOUS
 62
     7
100
AcDbLine
 10
3.5360358356
 20
35.4648423071
 30
0.0
 11
14.7892414109
 21
34.4803143737
 31
0.0
  0
ARC
  5
1C4
330
1F
100
AcDbEntity
  8
0
  6
CONTINUOUS
 62
     7
100
AcDbCircle
 10
3.3349678495
 20
35.4964906133
 30
0.0
 40
0.2035433070866121
100
AcDbArc
 50
351.0551815602
 51
19.8879068429
  0
ARC
  5
1C5
330
1F
100
AcDbEntity
  8
0
  6
CONTINUOUS
 62
     7
100
AcDbCircle
 10
3.5633938685
 20
35.5791251513
 30
0.0
 40
0.0393700787401544
100
AcDbArc
 50
175.0
 51
199.8879068429
  0
LINE
  5
1C6
330
1F
100
AcDbEntity
  8
0
  6
CONTINUOUS
 62
     7
100
AcDbLine
 10
3.5451578102
 20
35.8224044698
 30
0.0
 11
3.5241735726
 21
35.5825567872
 31
0.0
  0
ARC
  5
1C7
330
1F
100
AcDbEntity
  8
0
  6
CONTINUOUS
 62
     7
100
AcDbCircle
 10
3.5843797105
 20
35.8189738984
 30
0.0
 40
0.0393718675624501
100
AcDbArc
 50
150.1122158958
 51
175.0
  0
ARC
  5
1C8
330
1F
100
AcDbEntity
  8
0
  6
CONTINUOUS
 62
     7
100
AcDbCircle
 10
3.3737715227
 20
35.9400192343
 30
0.0
 40
0.2035433070866156
100
AcDbArc
 50
330.1122158958
 51
157.3995463205
  0
ARC
  5
1C9
330
1F
100
AcDbEntity
  8
0
  6
CONTINUOUS
 62
     7
100
AcDbCircle
 10
3.1495121422
 20
36.033371488
 30
0.0
 40
0.0393700787401603
100
AcDbArc
 50
265.0000629249
 51
337.3995463205
  0
LINE
  5
1CA
330
1F
100
AcDbEntity
  8
0
  6
CONTINUOUS
 62
     7
100
AcDbLine
 10
2.9874883058
 20
36.0080260055
 30
0.0
 11
3.1460809537
 21
35.9941503258
 31
0.0
  0
ARC
  5
1CB
330
1F
100
AcDbEntity
  8
0
  6
CONTINUOUS
 62
     7
100
AcDbCircle
 10
2.9909196285
 20
36.0472463596
 30
0.0
 40
0.0393701270016861
100
AcDbArc
 50
192.6004798922
 51
265.0000629249
  0
ARC
  5
1CC
330
1F
100
AcDbEntity
  8
0
  6
CONTINUOUS
 62
     7
100
AcDbCircle
 10
2.7538568274
 20
35.9942544606
 30
0.0
 40
0.2035432588250834
100
AcDbArc
 50
12.6004798922
 51
199.8878223834
  0
ARC
  5
1CD
330
1F
100
AcDbEntity
  8
0
  6
CONTINUOUS
 62
     7
100
AcDbCircle
 10
2.5254308429
 20
35.9116203159
 30
0.0
 40
0.0393700091412006
100
AcDbArc
 50
355.0
 51
19.8878223834
  0
LINE
  5
1CE
330
1F
100
AcDbEntity
  8
0
  6
CONTINUOUS
 62
     7
100
AcDbLine
 10
2.5436668995
 20
35.6683381963
 30
0.0
 11
2.5646511371
 21
35.9081882255
 31
0.0
  0
ARC
  5
1CF
330
1F
100
AcDbEntity
  8
0
  6
CONTINUOUS
 62
     7
100
AcDbCircle
 10
2.5044467141
 20
35.6717706264
 30
0.0
 40
0.0393700787401547
100
AcDbArc
 50
330.1121227901
 51
355.0
  0
ARC
  5
1D0
330
1F
100
AcDbEntity
  8
0
  6
CONTINUOUS
 62
     7
100
AcDbCircle
 10
2.7150531542
 20
35.5507258396
 30
0.0
 40
0.2035433070866151
100
AcDbArc
 50
150.1121227901
 51
178.9447392179
  0
LINE
  5
1D1
330
1F
100
AcDbEntity
  8
0
  6
CONTINUOUS
 62
     7
100
AcDbLine
 10
1.0215858094
 20
35.6848280324
 30
0.0
 11
2.5115443372
 21
35.5544745516
 31
0.0
  0
LINE
  5
1D2
330
1F
100
AcDbEntity
  8
0
  6
CONTINUOUS
 62
     7
100
AcDbLine
 10
1.0215858094
 20
35.6848280324
 30
0.0
 11
1.0215858094
 21
36.5083201727
 31
0.0
  0
ARC
  5
1D3
330
1F
100
AcDbEntity
  8
0
  6
CONTINUOUS
 62
     7
100
AcDbCircle
 10
16.6396960657
 20
35.1625784872
 30
0.0
 40
0.2362204724409529
100
AcDbArc
 50
360.0
 51
85.0
  0
ARC
  5
1D4
330
1F
100
AcDbEntity
  8
0
  6
CONTINUOUS
 62
     7
100
AcDbCircle
 10
16.3247354358
 20
31.8923757172
 30
0.0
 40
0.2362204724409484
100
AcDbArc
 50
100.0
 51
180.0
  0
LINE
  5
1D5
330
1F
100
AcDbEntity
  8
0
  6
CONTINUOUS
 62
     7
100
AcDbLine
 10
16.0885147216
 20
6.1142233946
 30
0.0
 11
16.0885147216
 21
31.8923745632
 31
0.0
  0
ARC
  5
1D6
330
1F
100
AcDbEntity
  8
0
  6
CONTINUOUS
 62
     7
100
AcDbCircle
 10
16.3247354358
 20
6.1142236332
 30
0.0
 40
0.236220472440948
100
AcDbArc
 50
180.0
 51
260.0
  0
LINE
  5
1D7
330
1F
100
AcDbEntity
  8
0
  6
CONTINUOUS
 62
     7
100
AcDbLine
 10
15.3011138977
 20
33.9067487329
 30
0.0
 11
15.3011138977
 21
4.0998509848
 31
0.0
  0
LINE
  5
1D8
330
1F
100
AcDbEntity
  8
0
  6
CONTINUOUS
 62
     7
100
AcDbLine
 10
16.8759167188
 20
33.7689704846
 30
0.0
 11
15.3011138977
 21
33.9067487329
 31
0.0
  0
LINE
  5
1D9
330
1F
100
AcDbEntity
  8
0
  6
CONTINUOUS
 62
     7
100
AcDbLine
 10
16.8759167188
 20
33.7689704846
 30
0.0
 11
16.8759167188
 21
32.4276406997
 31
0.0
  0
LINE
  5
1DA
330
1F
100
AcDbEntity
  8
0
  6
CONTINUOUS
 62
     7
100
AcDbLine
 10
16.6807150271
 20
5.8115901973
 30
0.0
 11
16.2837164133
 21
5.8815916286
 31
0.0
  0
LINE
  5
1DB
330
1F
100
AcDbEntity
  8
0
  6
CONTINUOUS
 62
     7
100
AcDbLine
 10
16.2837164133
 20
32.1250063291
 30
0.0
 11
16.6807150271
 21
32.1950089338
 31
0.0
  0
LINE
  5
1DC
330
1F
100
AcDbEntity
  8
0
  6
CONTINUOUS
 62
     7
100
AcDbLine
 10
15.3011138977
 20
4.0998509848
 30
0.0
 11
16.8759167188
 21
4.2376283532
 31
0.0
  0
LINE
  5
1DD
330
1F
100
AcDbEntity
  8
0
  6
CONTINUOUS
 62
     7
100
AcDbLine
 10
16.8759167188
 20
5.5789584313
 30
0.0
 11
16.8759167188
 21
4.2376283532
 31
0.0
  0
ARC
  5
1DE
330
1F
100
AcDbEntity
  8
0
  6
CONTINUOUS
 62
     7
100
AcDbCircle
 10
16.6396960657
 20
32.4276408821
 30
0.0
 40
0.2362204724409449
100
AcDbArc
 50
280.0
 51
360.0
  0
ARC
  5
1DF
330
1F
100
AcDbEntity
  8
0
  6
CONTINUOUS
 62
     7
100
AcDbCircle
 10
16.6396960657
 20
5.5789584683
 30
0.0
 40
0.2362204724409445
100
AcDbArc
 50
0.0
 51
80.0
  0
LINE
  5
1E0
330
1F
100
AcDbEntity
  8
0
  6
CONTINUOUS
 62
     7
100
AcDbLine
 10
1.0215858094
 20
2.8505543501
 30
0.0
 11
1.0215858094
 21
35.156045661
 31
0.0
  0
LINE
  5
1E1
330
1F
100
AcDbEntity
  8
0
  6
CONTINUOUS
 62
     7
100
AcDbLine
 10
14.7877278284
 20
4.054935717
 30
0.0
 11
14.7877278284
 21
33.9516634141
 31
0.0
  0
LINE
  5
1E2
330
1F
100
AcDbEntity
  8
0
  6
CONTINUOUS
 62
     7
100
AcDbLine
 10
1.0215858094
 20
2.8505543501
 30
0.0
 11
14.7877278284
 21
4.054935717
 31
0.0
  0
LINE
  5
1E3
330
1F
100
AcDbEntity
  8
0
  6
CONTINUOUS
 62
     7
100
AcDbLine
 10
14.7877278284
 20
33.9516634141
 30
0.0
 11
1.0215858094
 21
35.156045661
 31
0.0
  0
ARC
  5
1E4
330
1F
100
AcDbEntity
  8
0
  6
CONTINUOUS
 62
     7
100
AcDbCircle
 10
15.3756024286
 20
3.6372601465
 30
0.0
 40
0.0393700787401597
100
AcDbArc
 50
275.0000629249
 51
347.3995463205
  0
LINE
  5
1E5
330
1F
100
AcDbEntity
  8
0
  6
CONTINUOUS
 62
     7
100
AcDbLine
 10
15.3790340642
 20
3.5980400084
 30
0.0
 11
15.220441123
 21
3.584164622
 31
0.0
  0
ARC
  5
1E6
330
1F
100
AcDbEntity
  8
0
  6
CONTINUOUS
 62
     7
100
AcDbCircle
 10
15.2170099454
 20
3.6233849266
 30
0.0
 40
0.0393700787401593
100
AcDbArc
 50
202.6004798922
 51
275.0000629249
  0
ARC
  5
1E7
330
1F
100
AcDbEntity
  8
0
  6
CONTINUOUS
 62
     7
100
AcDbCircle
 10
3.0979049471
 20
2.5631008027
 30
0.0
 40
0.0393700787401596
100
AcDbArc
 50
275.0000629249
 51
347.3995463205
  0
LINE
  5
1E8
330
1F
100
AcDbEntity
  8
0
  6
CONTINUOUS
 62
     7
100
AcDbLine
 10
3.1013364039
 20
2.5238805639
 30
0.0
 11
2.942743756
 21
2.5100053241
 31
0.0
  0
ARC
  5
1E9
330
1F
100
AcDbEntity
  8
0
  6
CONTINUOUS
 62
     7
100
AcDbCircle
 10
2.9393124638
 20
2.5492255828
 30
0.0
 40
0.0393700787401556
100
AcDbArc
 50
202.6004798922
 51
275.0000629249
  0
ARC
  5
1EA
330
1F
100
AcDbEntity
  8
0
  6
CONTINUOUS
 62
     7
100
AcDbCircle
 10
2.9393125347
 20
35.4573735859
 30
0.0
 40
0.0393700787401567
100
AcDbArc
 50
85.0000629249
 51
157.3995463205
  0
LINE
  5
1EB
330
1F
100
AcDbEntity
  8
0
  6
CONTINUOUS
 62
     7
100
AcDbLine
 10
2.942743756
 20
35.4965946869
 30
0.0
 11
3.1013364039
 21
35.4827190072
 31
0.0
  0
ARC
  5
1EC
330
1F
100
AcDbEntity
  8
0
  6
CONTINUOUS
 62
     7
100
AcDbCircle
 10
3.0979050484
 20
35.4434987144
 30
0.0
 40
0.0393700787401601
100
AcDbArc
 50
12.6004798922
 51
85.0000629249
  0
ARC
  5
1ED
330
1F
100
AcDbEntity
  8
0
  6
CONTINUOUS
 62
     7
100
AcDbCircle
 10
15.2170100163
 20
34.3832142421
 30
0.0
 40
0.0393700787401563
100
AcDbArc
 50
85.0000629249
 51
157.3995463205
  0
LINE
  5
1EE
330
1F
100
AcDbEntity
  8
0
  6
CONTINUOUS
 62
     7
100
AcDbLine
 10
15.220441123
 20
34.422434509
 30
0.0
 11
15.3790340642
 21
34.4085588293
 31
0.0
  0
ARC
  5
1EF
330
1F
100
AcDbEntity
  8
0
  6
CONTINUOUS
 62
     7
100
AcDbCircle
 10
15.37560253
 20
34.3693393705
 30
0.0
 40
0.0393700787401566
100
AcDbArc
 50
12.6004798922
 51
85.0000629249
  0
LINE
  5
1F0
330
1F
100
AcDbEntity
  8
0
  6
CONTINUOUS
 62
     7
100
AcDbLine
 10
1.0215858094
 20
2.8505543501
 30
0.0
 11
1.0215858094
 21
2.3217703653
 31
0.0
  0
LINE
  5
1F1
330
1F
100
AcDbEntity
  8
0
  6
CONTINUOUS
 62
     7
100
AcDbLine
 10
1.0215858094
 20
35.6848280324
 30
0.0
 11
1.0215858094
 21
35.156045661
 31
0.0
  0
ARC
  5
1F2
330
1F
100
AcDbEntity
  8
0
  6
CONTINUOUS
 62
     7
100
AcDbCircle
 10
2.715053126
 20
2.4558732265
 30
0.0
 40
0.2035433070866164
100
AcDbArc
 50
22.6004798922
 51
181.0551806233
  0
ARC
  5
1F3
330
1F
100
AcDbEntity
  8
0
  6
CONTINUOUS
 62
     7
100
AcDbCircle
 10
2.7150531542
 20
35.5507258396
 30
0.0
 40
0.2035433070866159
100
AcDbArc
 50
178.9447392179
 51
337.3995463205
  0
ARC
  5
1F4
330
1F
100
AcDbEntity
  8
0
  6
CONTINUOUS
 62
     7
100
AcDbCircle
 10
3.3349678495
 20
35.4964906133
 30
0.0
 40
0.2035433070866147
100
AcDbArc
 50
192.6004798922
 51
351.0551815601
  0
ARC
  5
1F5
330
1F
100
AcDbEntity
  8
0
  6
CONTINUOUS
 62
     7
100
AcDbCircle
 10
3.3349677724
 20
2.5101090122
 30
0.0
 40
0.2035433070866171
100
AcDbArc
 50
8.9447392179
 51
167.3995463205
  0
ARC
  5
1F6
330
1F
100
AcDbEntity
  8
0
  6
CONTINUOUS
 62
     7
100
AcDbCircle
 10
14.9927506076
 20
3.5300325703
 30
0.0
 40
0.2035433070866134
100
AcDbArc
 50
22.6004798922
 51
181.0551806233
  0
ARC
  5
1F7
330
1F
100
AcDbEntity
  8
0
  6
CONTINUOUS
 62
     7
100
AcDbCircle
 10
14.9927506358
 20
34.4765664958
 30
0.0
 40
0.2035433070866162
100
AcDbArc
 50
178.9447392183
 51
337.3995463205
  0
ARC
  5
1F8
330
1F
100
AcDbEntity
  8
0
  6
CONTINUOUS
 62
     7
100
AcDbCircle
 10
15.6126653311
 20
34.4223312695
 30
0.0
 40
0.2035433070866142
100
AcDbArc
 50
192.6004798922
 51
351.0551815597
  0
ARC
  5
1F9
330
1F
100
AcDbEntity
  8
0
  6
CONTINUOUS
 62
     7
100
AcDbCircle
 10
15.612665254
 20
3.5842683561
 30
0.0
 40
0.2035433070866157
100
AcDbArc
 50
8.9447392179
 51
167.3995463205
  0
LINE
  5
1FA
330
1F
100
AcDbEntity
  8
0
  6
CONTINUOUS
 62
     7
100
AcDbLine
 10
16.8759167188
 20
33.7689704846
 30
0.0
 11
16.8759167188
 21
34.2977552027
 31
0.0
  0
LINE
  5
1FB
330
1F
100
AcDbEntity
  8
0
  6
CONTINUOUS
 62
     7
100
AcDbLine
 10
16.8759167188
 20
3.708844515
 30
0.0
 11
16.8759167188
 21
4.2376283532
 31
0.0
  0
LINE
  5
1FC
330
1F
100
AcDbEntity
  8
0
  6
CONTINUOUS
 62
     7
100
AcDbLine
 10
46.7908766319
 20
19.8315002381
 30
0.0
 11
46.7908766319
 21
18.2944255145
 31
0.0
  0
LINE
  5
1FD
330
1F
100
AcDbEntity
  8
0
  6
CONTINUOUS
 62
     7
100
AcDbLine
 10
46.7908766319
 20
19.8315002381
 30
0.0
 11
57.1333948076
 21
19.8315002381
 31
0.0
  0
LINE
  5
1FE
330
1F
100
AcDbEntity
  8
0
  6
CONTINUOUS
 62
     7
100
AcDbLine
 10
46.7908766319
 20
18.2944255145
 30
0.0
 11
57.1333948076
 21
18.2944255145
 31
0.0
  0
LINE
  5
1FF
330
1F
100
AcDbEntity
  8
0
  6
CONTINUOUS
 62
     7
100
AcDbLine
 10
57.1333948076
 20
18.2944255145
 30
0.0
 11
57.1333948076
 21
19.8315002381
 31
0.0
  0
LINE
  5
200
330
1F
100
AcDbEntity
  8
0
  6
CONTINUOUS
 62
     7
100
AcDbLine
 10
57.1333948076
 20
34.1655736896
 30
0.0
 11
46.7908766319
 21
34.1655736896
 31
0.0
  0
LINE
  5
201
330
1F
100
AcDbEntity
  8
0
  6
CONTINUOUS
 62
     7
100
AcDbLine
 10
57.1333948076
 20
20.3401026827
 30
0.0
 11
46.7908766319
 21
20.3401026827
 31
0.0
  0
LINE
  5
202
330
1F
100
AcDbEntity
  8
0
  6
CONTINUOUS
 62
     7
100
AcDbLine
 10
46.7908766319
 20
34.1655736896
 30
0.0
 11
46.7908766319
 21
20.3401026827
 31
0.0
  0
LINE
  5
203
330
1F
100
AcDbEntity
  8
0
  6
CONTINUOUS
 62
     7
100
AcDbLine
 10
57.1333948076
 20
20.3401026827
 30
0.0
 11
57.1333948076
 21
34.1655736896
 31
0.0
  0
LINE
  5
204
330
1F
100
AcDbEntity
  8
0
  6
CONTINUOUS
 62
     7
100
AcDbLine
 10
46.7908766319
 20
19.8315002381
 30
0.0
 11
46.7908766319
 21
20.3401026827
 31
0.0
  0
LINE
  5
205
330
1F
100
AcDbEntity
  8
0
  6
CONTINUOUS
 62
     7
100
AcDbLine
 10
57.1333948076
 20
20.3401026827
 30
0.0
 11
57.1333948076
 21
19.8315002381
 31
0.0
  0
LINE
  5
206
330
1F
100
AcDbEntity
  8
0
  6
CONTINUOUS
 62
     7
100
AcDbLine
 10
46.7908766319
 20
2.7209823003
 30
0.0
 11
46.7908766319
 21
1.1839079433
 31
0.0
  0
LINE
  5
207
330
1F
100
AcDbEntity
  8
0
  6
CONTINUOUS
 62
     7
100
AcDbLine
 10
57.1333948076
 20
2.7209823003
 30
0.0
 11
46.7908766319
 21
2.7209823003
 31
0.0
  0
LINE
  5
208
330
1F
100
AcDbEntity
  8
0
  6
CONTINUOUS
 62
     7
100
AcDbLine
 10
46.7908766319
 20
1.1839079433
 30
0.0
 11
57.1333948076
 21
1.1839079433
 31
0.0
  0
LINE
  5
209
330
1F
100
AcDbEntity
  8
0
  6
CONTINUOUS
 62
     7
100
AcDbLine
 10
57.1333948076
 20
1.1839079433
 30
0.0
 11
57.1333948076
 21
2.7209823003
 31
0.0
  0
LINE
  5
20A
330
1F
100
AcDbEntity
  8
0
  6
CONTINUOUS
 62
     7
100
AcDbLine
 10
57.1333948076
 20
17.0550548718
 30
0.0
 11
46.7908766319
 21
17.0550548718
 31
0.0
  0
LINE
  5
20B
330
1F
100
AcDbEntity
  8
0
  6
CONTINUOUS
 62
     7
100
AcDbLine
 10
46.7908766319
 20
3.2295850382
 30
0.0
 11
57.1333948076
 21
3.2295850382
 31
0.0
  0
LINE
  5
20C
330
1F
100
AcDbEntity
  8
0
  6
CONTINUOUS
 62
     7
100
AcDbLine
 10
46.7908766319
 20
17.0550548718
 30
0.0
 11
46.7908766319
 21
3.2295850382
 31
0.0
  0
LINE
  5
20D
330
1F
100
AcDbEntity
  8
0
  6
CONTINUOUS
 62
     7
100
AcDbLine
 10
57.1333948076
 20
3.2295850382
 30
0.0
 11
57.1333948076
 21
17.0550548718
 31
0.0
  0
LINE
  5
20E
330
1F
100
AcDbEntity
  8
0
  6
CONTINUOUS
 62
     7
100
AcDbLine
 10
46.7908766319
 20
2.7209823003
 30
0.0
 11
46.7908766319
 21
3.2295850382
 31
0.0
  0
LINE
  5
20F
330
1F
100
AcDbEntity
  8
0
  6
CONTINUOUS
 62
     7
100
AcDbLine
 10
57.1333948076
 20
3.2295850382
 30
0.0
 11
57.1333948076
 21
2.7209823003
 31
0.0
  0
LINE
  5
210
330
1F
100
AcDbEntity
  8
POCKETS
100
AcDbLine
 10
57.5270976405
 20
3.2295851057
 30
0.0
 11
46.3971763807
 21
3.2295851057
 31
0.0
  0
LINE
  5
211
330
1F
100
AcDbEntity
  8
POCKETS
100
AcDbLine
 10
46.3971763807
 20
3.2295851057
 30
0.0
 11
46.3971763807
 21
2.7209822735
 31
0.0
  0
LINE
  5
212
330
1F
100
AcDbEntity
  8
POCKETS
100
AcDbLine
 10
46.3971763807
 20
2.7209822735
 30
0.0
 11
57.5270976405
 21
2.7209822735
 31
0.0
  0
LINE
  5
213
330
1F
100
AcDbEntity
  8
PROFILES_OUTSIDE
100
AcDbLine
 10
16.8759165382
 20
32.4276408821
 30
0.0
 11
16.8759165382
 21
35.37903467
 31
0.0
  0
LINE
  5
214
330
1F
100
AcDbEntity
  8
PROFILES_OUTSIDE
100
AcDbLine
 10
16.8759165382
 20
35.37903467
 30
0.0
 11
1.0215858295
 21
36.7661088748
 31
0.0
  0
LINE
  5
215
330
1F
100
AcDbEntity
  8
PROFILES_OUTSIDE
100
AcDbLine
 10
1.0215858295
 20
36.7661088748
 30
0.0
 11
1.0215858295
 21
1.2404904756
 31
0.0
  0
LINE
  5
216
330
1F
100
AcDbEntity
  8
PROFILES_OUTSIDE
100
AcDbLine
 10
1.0215858295
 20
1.2404904756
 30
0.0
 11
16.8759165382
 21
2.6275646804
 31
0.0
  0
LINE
  5
217
330
1F
100
AcDbEntity
  8
POCKETS
100
AcDbLine
 10
57.5270976405
 20
2.7209822735
 30
0.0
 11
57.5270976405
 21
3.2295851057
 31
0.0
  0
LINE
  5
218
330
1F
100
AcDbEntity
  8
PROFILES_OUTSIDE
100
AcDbLine
 10
16.8759165382
 20
2.6275646804
 30
0.0
 11
16.8759165382
 21
5.5789584683
 31
0.0
  0
LINE
  5
219
330
1F
100
AcDbEntity
  8
PROFILES_OUTSIDE
100
AcDbLine
 10
16.6807153203
 20
5.811590221
 30
0.0
 11
16.2837161812
 21
5.8815918805
 31
0.0
  0
LINE
  5
21A
330
1F
100
AcDbEntity
  8
PROFILES_OUTSIDE
100
AcDbLine
 10
16.0885149634
 20
6.1142236332
 30
0.0
 11
16.0885149634
 21
31.8923757172
 31
0.0
  0
LINE
  5
21B
330
1F
100
AcDbEntity
  8
PROFILES_OUTSIDE
100
AcDbLine
 10
16.2837161812
 20
32.1250074699
 30
0.0
 11
16.6807153203
 21
32.1950091295
 31
0.0
  0
LINE
  5
21C
330
1F
100
AcDbEntity
  8
PROFILES_INSIDE
100
AcDbLine
 10
15.8018710864
 20
34.5083971359
 30
0.0
 11
15.8228551464
 21
34.748246039
 31
0.0
  0
LINE
  5
21D
330
1F
100
AcDbEntity
  8
PROFILES_INSIDE
100
AcDbLine
 10
15.2204413017
 20
34.4224345096
 30
0.0
 11
15.3790338154
 21
34.408559638
 31
0.0
  0
LINE
  5
21E
330
1F
100
AcDbEntity
  8
PROFILES_INSIDE
100
AcDbLine
 10
14.8423485188
 20
34.8340296496
 30
0.0
 11
14.8213644594
 21
34.5941799541
 31
0.0
  0
LINE
  5
21F
330
1F
100
AcDbEntity
  8
PROFILES_INSIDE
100
AcDbLine
 10
15.4237783385
 20
34.9199918767
 30
0.0
 11
15.2651858189
 21
34.9338666822
 31
0.0
  0
LINE
  5
220
330
1F
100
AcDbEntity
  8
PROFILES_OUTSIDE
100
AcDbLine
 10
45.5515070894
 20
1.1839079635
 30
0.0
 11
45.5515070894
 21
31.605167806
 31
0.0
  0
LINE
  5
221
330
1F
100
AcDbEntity
  8
PROFILES_OUTSIDE
100
AcDbLine
 10
45.5515070894
 20
31.605167806
 30
0.0
 11
35.2089874043
 21
31.605167806
 31
0.0
  0
LINE
  5
222
330
1F
100
AcDbEntity
  8
PROFILES_OUTSIDE
100
AcDbLine
 10
35.2089874043
 20
31.605167806
 30
0.0
 11
35.2089874043
 21
1.1839079635
 31
0.0
  0
LINE
  5
223
330
1F
100
AcDbEntity
  8
PROFILES_OUTSIDE
100
AcDbLine
 10
35.2089874043
 20
1.1839079635
 30
0.0
 11
45.5515070894
 21
1.1839079635
 31
0.0
  0
LINE
  5
224
330
1F
100
AcDbEntity
  8
PROFILES_OUTSIDE
100
AcDbLine
 10
57.1333968531
 20
17.0550553081
 30
0.0
 11
46.7908771681
 21
17.0550553081
 31
0.0
  0
LINE
  5
225
330
1F
100
AcDbEntity
  8
PROFILES_OUTSIDE
100
AcDbLine
 10
46.7908771681
 20
17.0550553081
 30
0.0
 11
46.7908771681
 21
1.1839079635
 31
0.0
  0
LINE
  5
226
330
1F
100
AcDbEntity
  8
PROFILES_OUTSIDE
100
AcDbLine
 10
46.7908771681
 20
1.1839079635
 30
0.0
 11
57.1333968531
 21
1.1839079635
 31
0.0
  0
LINE
  5
227
330
1F
100
AcDbEntity
  8
PROFILES_OUTSIDE
100
AcDbLine
 10
57.1333968531
 20
1.1839079635
 30
0.0
 11
57.1333968531
 21
17.0550553081
 31
0.0
  0
LINE
  5
228
330
1F
100
AcDbEntity
  8
PROFILES_OUTSIDE
100
AcDbLine
 10
46.7908771681
 20
34.1655727314
 30
0.0
 11
46.7908771681
 21
18.2944253868
 31
0.0
  0
LINE
  5
229
330
1F
100
AcDbEntity
  8
PROFILES_OUTSIDE
100
AcDbLine
 10
46.7908771681
 20
18.2944253868
 30
0.0
 11
57.1333968531
 21
18.2944253868
 31
0.0
  0
LINE
  5
22A
330
1F
100
AcDbEntity
  8
BOX_STOCK
100
AcDbLine
 10
0.0082000027
 20
0.1705221367
 30
0.0
 11
96.0711921287
 21
0.1705221367
 31
0.0
  0
LINE
  5
22B
330
1F
100
AcDbEntity
  8
BOX_STOCK
100
AcDbLine
 10
96.0711921287
 20
0.1705221367
 30
0.0
 11
96.0711921287
 21
48.2020181997
 31
0.0
  0
LINE
  5
22C
330
1F
100
AcDbEntity
  8
BOX_STOCK
100
AcDbLine
 10
96.0711921287
 20
48.2020181997
 30
0.0
 11
0.0082000027
 21
48.2020181997
 31
0.0
  0
LINE
  5
22D
330
1F
100
AcDbEntity
  8
BOX_STOCK
100
AcDbLine
 10
0.0082000027
 20
48.2020181997
 30
0.0
 11
0.0082000027
 21
0.1705221367
 31
0.0
  0
LINE
  5
22E
330
1F
100
AcDbEntity
  8
POCKETS
100
AcDbLine
 10
57.5270976405
 20
20.340102529
 30
0.0
 11
46.3971763807
 21
20.340102529
 31
0.0
  0
LINE
  5
22F
330
1F
100
AcDbEntity
  8
PROFILES_OUTSIDE
100
AcDbLine
 10
57.1333968531
 20
18.2944253868
 30
0.0
 11
57.1333968531
 21
34.1655727314
 31
0.0
  0
LINE
  5
230
330
1F
100
AcDbEntity
  8
POCKETS
100
AcDbLine
 10
46.3971763807
 20
20.340102529
 30
0.0
 11
46.3971763807
 21
19.8314996968
 31
0.0
  0
LINE
  5
231
330
1F
100
AcDbEntity
  8
POCKETS
100
AcDbLine
 10
46.3971763807
 20
19.8314996968
 30
0.0
 11
57.5270976405
 21
19.8314996968
 31
0.0
  0
LINE
  5
232
330
1F
100
AcDbEntity
  8
POCKETS
100
AcDbLine
 10
57.5270976405
 20
19.8314996968
 30
0.0
 11
57.5270976405
 21
20.340102529
 31
0.0
  0
LINE
  5
233
330
1F
100
AcDbEntity
  8
PROFILES_OUTSIDE
100
AcDbLine
 10
57.1333968531
 20
34.1655727314
 30
0.0
 11
46.7908771681
 21
34.1655727314
 31
0.0
  0
LINE
  5
234
330
1F
100
AcDbEntity
  8
PROFILES_INSIDE
100
AcDbLine
 10
3.5241736048
 20
35.5825564798
 30
0.0
 11
3.5451576648
 21
35.8224053828
 31
0.0
  0
LINE
  5
235
330
1F
100
AcDbEntity
  8
PROFILES_INSIDE
100
AcDbLine
 10
3.1460808569
 20
35.9941512205
 30
0.0
 11
2.987488341
 21
36.0080260681
 31
0.0
  0
LINE
  5
236
330
1F
100
AcDbEntity
  8
PROFILES_INSIDE
100
AcDbLine
 10
2.5646510312
 20
35.908188994
 30
0.0
 11
2.5436669778
 21
35.6683392979
 31
0.0
  0
LINE
  5
237
330
1F
100
AcDbEntity
  8
PROFILES_INSIDE
100
AcDbLine
 10
2.9427438201
 20
35.4965938534
 30
0.0
 11
3.1013363338
 21
35.4827189818
 31
0.0
  0
LINE
  5
238
330
1F
100
AcDbEntity
  8
PROFILES_INSIDE
100
AcDbLine
 10
15.8228551464
 20
3.2583533114
 30
0.0
 11
15.8018710864
 21
3.4982022145
 31
0.0
  0
LINE
  5
239
330
1F
100
AcDbEntity
  8
PROFILES_INSIDE
100
AcDbLine
 10
15.3790338002
 20
3.5980398866
 30
0.0
 11
15.2204413174
 21
3.5841646607
 31
0.0
  0
LINE
  5
23A
330
1F
100
AcDbEntity
  8
PROFILES_INSIDE
100
AcDbLine
 10
14.821364378
 20
3.4124193892
 30
0.0
 11
14.8423485882
 21
3.1725697068
 31
0.0
  0
LINE
  5
23B
330
1F
100
AcDbEntity
  8
PROFILES_INSIDE
100
AcDbLine
 10
15.26518584
 20
3.072732428
 30
0.0
 11
15.4237783232
 21
3.0866076479
 31
0.0
  0
LINE
  5
23C
330
1F
100
AcDbEntity
  8
PROFILES_INSIDE
100
AcDbLine
 10
2.5436669084
 20
2.3382600464
 30
0.0
 11
2.5646511066
 21
2.098410363
 31
0.0
  0
LINE
  5
23D
330
1F
100
AcDbEntity
  8
PROFILES_INSIDE
100
AcDbLine
 10
2.9874883584
 20
1.9985730841
 30
0.0
 11
3.1460808416
 21
2.012448304
 31
0.0
  0
LINE
  5
23E
330
1F
100
AcDbEntity
  8
PROFILES_INSIDE
100
AcDbLine
 10
3.5451576648
 20
2.1841939676
 30
0.0
 11
3.5241736048
 21
2.4240428706
 31
0.0
  0
LINE
  5
23F
330
1F
100
AcDbEntity
  8
PROFILES_INSIDE
100
AcDbLine
 10
3.1013363186
 20
2.5238805428
 30
0.0
 11
2.9427438353
 21
2.5100053228
 31
0.0
  0
LINE
  5
240
330
1F
100
AcDbEntity
  8
PROFILES_OUTSIDE
100
AcDbLine
 10
58.8278850421
 20
15.2310239399
 30
0.0
 11
58.4121370106
 21
15.2310239399
 31
0.0
  0
LINE
  5
241
330
1F
100
AcDbEntity
  8
PROFILES_OUTSIDE
100
AcDbLine
 10
58.8412743192
 20
15.021816486
 30
0.0
 11
58.8278850421
 21
15.2310239399
 31
0.0
  0
LINE
  5
242
330
1F
100
AcDbEntity
  8
PROFILES_OUTSIDE
100
AcDbLine
 10
59.2207087278
 20
14.9849609478
 30
0.0
 11
58.8805640148
 21
14.9849609478
 31
0.0
  0
LINE
  5
243
330
1F
100
AcDbEntity
  8
PROFILES_OUTSIDE
100
AcDbLine
 10
59.3570189004
 20
15.4771656722
 30
0.0
 11
59.3570189004
 21
15.397487784
 31
0.0
  0
LINE
  5
244
330
1F
100
AcDbEntity
  8
PROFILES_OUTSIDE
100
AcDbLine
 10
62.8215858295
 20
15.4771656722
 30
0.0
 11
59.3570189004
 21
15.4771656722
 31
0.0
  0
LINE
  5
245
330
1F
100
AcDbEntity
  8
PROFILES_OUTSIDE
100
AcDbLine
 10
63.2940267744
 20
11.0277070659
 30
0.0
 11
63.2940267744
 21
15.0047247273
 31
0.0
  0
LINE
  5
246
330
1F
100
AcDbEntity
  8
PROFILES_OUTSIDE
100
AcDbLine
 10
64.7900897665
 20
10.555266121
 30
0.0
 11
63.7664677193
 21
10.555266121
 31
0.0
  0
LINE
  5
247
330
1F
100
AcDbEntity
  8
PROFILES_OUTSIDE
100
AcDbLine
 10
65.2625307114
 20
15.0047247273
 30
0.0
 11
65.2625307114
 21
11.0277070659
 31
0.0
  0
LINE
  5
248
330
1F
100
AcDbEntity
  8
PROFILES_INSIDE
100
AcDbLine
 10
32.8955718738
 20
34.5083971359
 30
0.0
 11
32.9165559338
 21
34.748246039
 31
0.0
  0
LINE
  5
249
330
1F
100
AcDbEntity
  8
PROFILES_INSIDE
100
AcDbLine
 10
32.3141420891
 20
34.4224345096
 30
0.0
 11
32.4727346028
 21
34.408559638
 31
0.0
  0
LINE
  5
24A
330
1F
100
AcDbEntity
  8
PROFILES_INSIDE
100
AcDbLine
 10
31.9360493062
 20
34.8340296496
 30
0.0
 11
31.9150652468
 21
34.5941799541
 31
0.0
  0
LINE
  5
24B
330
1F
100
AcDbEntity
  8
PROFILES_INSIDE
100
AcDbLine
 10
32.5174791259
 20
34.9199918767
 30
0.0
 11
32.3588866063
 21
34.9338666822
 31
0.0
  0
LINE
  5
24C
330
1F
100
AcDbEntity
  8
PROFILES_INSIDE
100
AcDbLine
 10
20.6235456423
 20
35.5820603097
 30
0.0
 11
20.6445297023
 21
35.8219092127
 31
0.0
  0
LINE
  5
24D
330
1F
100
AcDbEntity
  8
PROFILES_INSIDE
100
AcDbLine
 10
20.2454528944
 20
35.9936550504
 30
0.0
 11
20.0868603786
 21
36.007529898
 31
0.0
  0
LINE
  5
24E
330
1F
100
AcDbEntity
  8
PROFILES_INSIDE
100
AcDbLine
 10
19.6640230687
 20
35.9076928239
 30
0.0
 11
19.6430390153
 21
35.6678431278
 31
0.0
  0
LINE
  5
24F
330
1F
100
AcDbEntity
  8
PROFILES_INSIDE
100
AcDbLine
 10
20.0421158576
 20
35.4960976833
 30
0.0
 11
20.2007083714
 21
35.4822228117
 31
0.0
  0
LINE
  5
250
330
1F
100
AcDbEntity
  8
PROFILES_INSIDE
100
AcDbLine
 10
32.9165559338
 20
3.2583533114
 30
0.0
 11
32.8955718738
 21
3.4982022145
 31
0.0
  0
LINE
  5
251
330
1F
100
AcDbEntity
  8
PROFILES_INSIDE
100
AcDbLine
 10
32.4727345876
 20
3.5980398866
 30
0.0
 11
32.3141421048
 21
3.5841646607
 31
0.0
  0
LINE
  5
252
330
1F
100
AcDbEntity
  8
PROFILES_INSIDE
100
AcDbLine
 10
31.9150651654
 20
3.4124193892
 30
0.0
 11
31.9360493756
 21
3.1725697068
 31
0.0
  0
LINE
  5
253
330
1F
100
AcDbEntity
  8
PROFILES_INSIDE
100
AcDbLine
 10
32.3588866274
 20
3.072732428
 30
0.0
 11
32.5174791106
 21
3.0866076479
 31
0.0
  0
LINE
  5
254
330
1F
100
AcDbEntity
  8
PROFILES_OUTSIDE
100
AcDbLine
 10
69.1995385854
 20
15.4771656722
 30
0.0
 11
65.7349716563
 21
15.4771656722
 31
0.0
  0
LINE
  5
255
330
1F
100
AcDbEntity
  8
PROFILES_OUTSIDE
100
AcDbLine
 10
69.1995385854
 20
15.397487784
 30
0.0
 11
69.1995385854
 21
15.4771656722
 31
0.0
  0
LINE
  5
256
330
1F
100
AcDbEntity
  8
PROFILES_OUTSIDE
100
AcDbLine
 10
69.675993471
 20
14.9849609478
 30
0.0
 11
69.335848758
 21
14.9849609478
 31
0.0
  0
LINE
  5
257
330
1F
100
AcDbEntity
  8
PROFILES_OUTSIDE
100
AcDbLine
 10
69.7286724437
 20
15.2310239399
 30
0.0
 11
69.7152831666
 21
15.021816486
 31
0.0
  0
LINE
  5
258
330
1F
100
AcDbEntity
  8
PROFILES_OUTSIDE
100
AcDbLine
 10
70.1444204752
 20
15.2310239399
 30
0.0
 11
69.7286724437
 21
15.2310239399
 31
0.0
  0
LINE
  5
259
330
1F
100
AcDbEntity
  8
PROFILES_INSIDE
100
AcDbLine
 10
19.643038946
 20
2.3387562165
 30
0.0
 11
19.6640231441
 21
2.0989065331
 31
0.0
  0
LINE
  5
25A
330
1F
100
AcDbEntity
  8
PROFILES_INSIDE
100
AcDbLine
 10
20.0868603959
 20
1.9990692542
 30
0.0
 11
20.2454528792
 21
2.0129444741
 31
0.0
  0
LINE
  5
25B
330
1F
100
AcDbEntity
  8
PROFILES_INSIDE
100
AcDbLine
 10
20.6445297023
 20
2.1846901377
 30
0.0
 11
20.6235456423
 21
2.4245390407
 31
0.0
  0
LINE
  5
25C
330
1F
100
AcDbEntity
  8
PROFILES_INSIDE
100
AcDbLine
 10
20.2007083561
 20
2.5243767128
 30
0.0
 11
20.0421158729
 21
2.5105014929
 31
0.0
  0
LINE
  5
25D
330
1F
100
AcDbEntity
  8
PROFILES_OUTSIDE
100
AcDbLine
 10
18.1152866169
 20
36.5083194651
 30
0.0
 11
18.1152866169
 21
1.4982798853
 31
0.0
  0
LINE
  5
25E
330
1F
100
AcDbEntity
  8
PROFILES_OUTSIDE
100
AcDbLine
 10
33.7539848239
 20
35.3979000694
 30
0.0
 11
18.3720950601
 21
36.7436410474
 31
0.0
  0
LINE
  5
25F
330
1F
100
AcDbEntity
  8
PROFILES_OUTSIDE
100
AcDbLine
 10
33.9696173256
 20
32.4276408821
 30
0.0
 11
33.9696173256
 21
35.1625784872
 31
0.0
  0
LINE
  5
260
330
1F
100
AcDbEntity
  8
PROFILES_OUTSIDE
100
AcDbLine
 10
33.3774169686
 20
32.1250074699
 30
0.0
 11
33.7744161077
 21
32.1950091295
 31
0.0
  0
LINE
  5
261
330
1F
100
AcDbEntity
  8
POCKETS
100
AcDbLine
 10
17.2802874132
 20
4.2730063345
 30
0.0
 11
16.8880847762
 21
4.2386930499
 31
0.0
  0
LINE
  5
262
330
1F
100
AcDbEntity
  8
PROFILES_OUTSIDE
100
AcDbLine
 10
70.1837905539
 20
14.729055436
 30
0.0
 11
70.1837905539
 21
15.1916538612
 31
0.0
  0
LINE
  5
263
330
1F
100
AcDbEntity
  8
PROFILES_OUTSIDE
100
AcDbLine
 10
66.4849716563
 20
14.4928349635
 30
0.0
 11
69.9475700815
 21
14.4928349635
 31
0.0
  0
LINE
  5
264
330
1F
100
AcDbEntity
  8
PROFILES_OUTSIDE
100
AcDbLine
 10
66.0125307114
 20
10.555266121
 30
0.0
 11
66.0125307114
 21
14.0203940186
 31
0.0
  0
LINE
  5
265
330
1F
100
AcDbEntity
  8
PROFILES_OUTSIDE
100
AcDbLine
 10
65.2625307114
 20
7.4048456204
 30
0.0
 11
65.2625307114
 21
9.2562280153
 31
0.0
  0
LINE
  5
266
330
1F
100
AcDbEntity
  8
PROFILES_OUTSIDE
100
AcDbLine
 10
66.0125307114
 20
2.640679617
 30
0.0
 11
66.0125307114
 21
6.1058075147
 31
0.0
  0
LINE
  5
267
330
1F
100
AcDbEntity
  8
PROFILES_OUTSIDE
100
AcDbLine
 10
69.9475700815
 20
2.1682386722
 30
0.0
 11
66.4849716563
 21
2.1682386722
 31
0.0
  0
LINE
  5
268
330
1F
100
AcDbEntity
  8
PROFILES_OUTSIDE
100
AcDbLine
 10
70.1837905539
 20
1.4694197745
 30
0.0
 11
70.1837905539
 21
1.9320181997
 31
0.0
  0
LINE
  5
269
330
1F
100
AcDbEntity
  8
PROFILES_OUTSIDE
100
AcDbLine
 10
69.7286724437
 20
1.4300496958
 30
0.0
 11
70.1444204752
 21
1.4300496958
 31
0.0
  0
LINE
  5
26A
330
1F
100
AcDbEntity
  8
PROFILES_OUTSIDE
100
AcDbLine
 10
69.7152831666
 20
1.6392571497
 30
0.0
 11
69.7286724437
 21
1.4300496958
 31
0.0
  0
LINE
  5
26B
330
1F
100
AcDbEntity
  8
PROFILES_OUTSIDE
100
AcDbLine
 10
69.335848758
 20
1.6761126879
 30
0.0
 11
69.675993471
 21
1.6761126879
 31
0.0
  0
LINE
  5
26C
330
1F
100
AcDbEntity
  8
PROFILES_OUTSIDE
100
AcDbLine
 10
69.1995385854
 20
1.1839079635
 30
0.0
 11
69.1995385854
 21
1.2635858517
 31
0.0
  0
LINE
  5
26D
330
1F
100
AcDbEntity
  8
PROFILES_OUTSIDE
100
AcDbLine
 10
65.7349716563
 20
1.1839079635
 30
0.0
 11
69.1995385854
 21
1.1839079635
 31
0.0
  0
LINE
  5
26E
330
1F
100
AcDbEntity
  8
PROFILES_OUTSIDE
100
AcDbLine
 10
65.2625307114
 20
5.6333665698
 30
0.0
 11
65.2625307114
 21
1.6563489084
 31
0.0
  0
LINE
  5
26F
330
1F
100
AcDbEntity
  8
PROFILES_OUTSIDE
100
AcDbLine
 10
63.7664677193
 20
6.1058075147
 30
0.0
 11
64.7900897665
 21
6.1058075147
 31
0.0
  0
LINE
  5
270
330
1F
100
AcDbEntity
  8
PROFILES_OUTSIDE
100
AcDbLine
 10
63.2940267744
 20
1.6563489084
 30
0.0
 11
63.2940267744
 21
5.6333665698
 31
0.0
  0
LINE
  5
271
330
1F
100
AcDbEntity
  8
PROFILES_OUTSIDE
100
AcDbLine
 10
59.3570189004
 20
1.1839079635
 30
0.0
 11
62.8215858295
 21
1.1839079635
 31
0.0
  0
LINE
  5
272
330
1F
100
AcDbEntity
  8
PROFILES_OUTSIDE
100
AcDbLine
 10
33.1822157508
 20
6.1142236332
 30
0.0
 11
33.1822157508
 21
31.8923757172
 31
0.0
  0
LINE
  5
273
330
1F
100
AcDbEntity
  8
POCKETS
100
AcDbLine
 10
17.3261985879
 20
3.7482392061
 30
0.0
 11
17.2802874132
 21
4.2730063345
 31
0.0
  0
LINE
  5
274
330
1F
100
AcDbEntity
  8
PROFILES_OUTSIDE
100
AcDbLine
 10
33.7744161077
 20
5.811590221
 30
0.0
 11
33.3774169686
 21
5.8815918805
 31
0.0
  0
LINE
  5
275
330
1F
100
AcDbEntity
  8
POCKETS
100
AcDbLine
 10
16.9339959509
 20
3.7139259216
 30
0.0
 11
17.3261985879
 21
3.7482392061
 31
0.0
  0
LINE
  5
276
330
1F
100
AcDbEntity
  8
POCKETS
100
AcDbLine
 10
1.0094175915
 20
2.3207058437
 30
0.0
 11
16.9339959509
 21
3.7139259216
 31
0.0
  0
LINE
  5
277
330
1F
100
AcDbEntity
  8
POCKETS
100
AcDbLine
 10
0.6172149545
 20
2.2863925591
 30
0.0
 11
1.0094175915
 21
2.3207058437
 31
0.0
  0
LINE
  5
278
330
1F
100
AcDbEntity
  8
POCKETS
100
AcDbLine
 10
0.5713037798
 20
2.8111596875
 30
0.0
 11
0.6172149545
 21
2.2863925591
 31
0.0
  0
LINE
  5
279
330
1F
100
AcDbEntity
  8
POCKETS
100
AcDbLine
 10
0.9635064168
 20
2.845472972
 30
0.0
 11
0.5713037798
 21
2.8111596875
 31
0.0
  0
LINE
  5
27A
330
1F
100
AcDbEntity
  8
POCKETS
100
AcDbLine
 10
14.7877275618
 20
4.0549356043
 30
0.0
 11
0.9635064168
 21
2.845472972
 31
0.0
  0
LINE
  5
27B
330
1F
100
AcDbEntity
  8
POCKETS
100
AcDbLine
 10
14.7877275618
 20
33.9516637461
 30
0.0
 11
14.7877275618
 21
4.0549356043
 31
0.0
  0
LINE
  5
27C
330
1F
100
AcDbEntity
  8
POCKETS
100
AcDbLine
 10
0.9635064168
 20
35.1611263784
 30
0.0
 11
14.7877275618
 21
33.9516637461
 31
0.0
  0
LINE
  5
27D
330
1F
100
AcDbEntity
  8
POCKETS
100
AcDbLine
 10
0.5713037798
 20
35.1954396629
 30
0.0
 11
0.9635064168
 21
35.1611263784
 31
0.0
  0
LINE
  5
27E
330
1F
100
AcDbEntity
  8
POCKETS
100
AcDbLine
 10
0.6172149545
 20
35.7202067913
 30
0.0
 11
0.5713037798
 21
35.1954396629
 31
0.0
  0
LINE
  5
27F
330
1F
100
AcDbEntity
  8
POCKETS
100
AcDbLine
 10
1.0094175915
 20
35.6858935067
 30
0.0
 11
0.6172149545
 21
35.7202067913
 31
0.0
  0
LINE
  5
280
330
1F
100
AcDbEntity
  8
POCKETS
100
AcDbLine
 10
16.9339959509
 20
34.2926734289
 30
0.0
 11
1.0094175915
 21
35.6858935067
 31
0.0
  0
LINE
  5
281
330
1F
100
AcDbEntity
  8
POCKETS
100
AcDbLine
 10
17.3261985879
 20
34.2583601443
 30
0.0
 11
16.9339959509
 21
34.2926734289
 31
0.0
  0
LINE
  5
282
330
1F
100
AcDbEntity
  8
POCKETS
100
AcDbLine
 10
17.2802874132
 20
33.7335930159
 30
0.0
 11
17.3261985879
 21
34.2583601443
 31
0.0
  0
LINE
  5
283
330
1F
100
AcDbEntity
  8
POCKETS
100
AcDbLine
 10
16.8880847762
 20
33.7679063005
 30
0.0
 11
17.2802874132
 21
33.7335930159
 31
0.0
  0
LINE
  5
284
330
1F
100
AcDbEntity
  8
POCKETS
100
AcDbLine
 10
15.3011133886
 20
33.9067483062
 30
0.0
 11
16.8880847762
 21
33.7679063005
 31
0.0
  0
LINE
  5
285
330
1F
100
AcDbEntity
  8
PROFILES_OUTSIDE
100
AcDbLine
 10
59.3570189004
 20
1.2635858517
 30
0.0
 11
59.3570189004
 21
1.1839079635
 31
0.0
  0
LINE
  5
286
330
1F
100
AcDbEntity
  8
PROFILES_OUTSIDE
100
AcDbLine
 10
58.8805640148
 20
1.6761126879
 30
0.0
 11
59.2207087278
 21
1.6761126879
 31
0.0
  0
LINE
  5
287
330
1F
100
AcDbEntity
  8
PROFILES_OUTSIDE
100
AcDbLine
 10
58.8278850421
 20
1.4300496958
 30
0.0
 11
58.8412743192
 21
1.6392571497
 31
0.0
  0
LINE
  5
288
330
1F
100
AcDbEntity
  8
PROFILES_OUTSIDE
100
AcDbLine
 10
58.4121370106
 20
1.4300496958
 30
0.0
 11
58.8278850421
 21
1.4300496958
 31
0.0
  0
LINE
  5
289
330
1F
100
AcDbEntity
  8
PROFILES_OUTSIDE
100
AcDbLine
 10
58.3727669319
 20
1.9320181997
 30
0.0
 11
58.3727669319
 21
1.4694197745
 31
0.0
  0
LINE
  5
28A
330
1F
100
AcDbEntity
  8
PROFILES_OUTSIDE
100
AcDbLine
 10
62.0715858295
 20
2.1682386722
 30
0.0
 11
58.6089874043
 21
2.1682386722
 31
0.0
  0
LINE
  5
28B
330
1F
100
AcDbEntity
  8
PROFILES_OUTSIDE
100
AcDbLine
 10
62.5440267744
 20
6.1058075147
 30
0.0
 11
62.5440267744
 21
2.640679617
 31
0.0
  0
LINE
  5
28C
330
1F
100
AcDbEntity
  8
PROFILES_OUTSIDE
100
AcDbLine
 10
63.2940267744
 20
9.2562280153
 30
0.0
 11
63.2940267744
 21
7.4048456204
 31
0.0
  0
LINE
  5
28D
330
1F
100
AcDbEntity
  8
PROFILES_OUTSIDE
100
AcDbLine
 10
62.5440267744
 20
14.0203940186
 30
0.0
 11
62.5440267744
 21
10.555266121
 31
0.0
  0
LINE
  5
28E
330
1F
100
AcDbEntity
  8
PROFILES_OUTSIDE
100
AcDbLine
 10
58.6089874043
 20
14.4928349635
 30
0.0
 11
62.0715858295
 21
14.4928349635
 31
0.0
  0
LINE
  5
28F
330
1F
100
AcDbEntity
  8
PROFILES_OUTSIDE
100
AcDbLine
 10
58.3727669319
 20
15.1916538612
 30
0.0
 11
58.3727669319
 21
14.729055436
 31
0.0
  0
LINE
  5
290
330
1F
100
AcDbEntity
  8
POCKETS
100
AcDbLine
 10
15.3011133886
 20
4.0998510442
 30
0.0
 11
15.3011133886
 21
33.9067483062
 31
0.0
  0
LINE
  5
291
330
1F
100
AcDbEntity
  8
PROFILES_OUTSIDE
100
AcDbLine
 10
69.7286724437
 20
16.9625200029
 30
0.0
 11
70.1444204752
 21
16.9625200029
 31
0.0
  0
LINE
  5
292
330
1F
100
AcDbEntity
  8
PROFILES_OUTSIDE
100
AcDbLine
 10
69.7152831666
 20
17.1717274568
 30
0.0
 11
69.7286724437
 21
16.9625200029
 31
0.0
  0
LINE
  5
293
330
1F
100
AcDbEntity
  8
PROFILES_OUTSIDE
100
AcDbLine
 10
69.335848758
 20
17.208582995
 30
0.0
 11
69.675993471
 21
17.208582995
 31
0.0
  0
LINE
  5
294
330
1F
100
AcDbEntity
  8
PROFILES_OUTSIDE
100
AcDbLine
 10
69.1995385854
 20
16.7163782706
 30
0.0
 11
69.1995385854
 21
16.7960561588
 31
0.0
  0
LINE
  5
295
330
1F
100
AcDbEntity
  8
PROFILES_OUTSIDE
100
AcDbLine
 10
65.7349716563
 20
16.7163782706
 30
0.0
 11
69.1995385854
 21
16.7163782706
 31
0.0
  0
LINE
  5
296
330
1F
100
AcDbEntity
  8
PROFILES_OUTSIDE
100
AcDbLine
 10
65.2625307114
 20
21.1658368769
 30
0.0
 11
65.2625307114
 21
17.1888192155
 31
0.0
  0
LINE
  5
297
330
1F
100
AcDbEntity
  8
PROFILES_OUTSIDE
100
AcDbLine
 10
63.7664677193
 20
21.6382778218
 30
0.0
 11
64.7900897665
 21
21.6382778218
 31
0.0
  0
LINE
  5
298
330
1F
100
AcDbEntity
  8
PROFILES_OUTSIDE
100
AcDbLine
 10
63.2940267744
 20
17.1888192155
 30
0.0
 11
63.2940267744
 21
21.1658368769
 31
0.0
  0
LINE
  5
299
330
1F
100
AcDbEntity
  8
PROFILES_OUTSIDE
100
AcDbLine
 10
59.3570189004
 20
16.7163782706
 30
0.0
 11
62.8215858295
 21
16.7163782706
 31
0.0
  0
LINE
  5
29A
330
1F
100
AcDbEntity
  8
PROFILES_OUTSIDE
100
AcDbLine
 10
59.3570189004
 20
16.7960561588
 30
0.0
 11
59.3570189004
 21
16.7163782706
 31
0.0
  0
LINE
  5
29B
330
1F
100
AcDbEntity
  8
PROFILES_OUTSIDE
100
AcDbLine
 10
58.8805640148
 20
17.208582995
 30
0.0
 11
59.2207087278
 21
17.208582995
 31
0.0
  0
LINE
  5
29C
330
1F
100
AcDbEntity
  8
PROFILES_OUTSIDE
100
AcDbLine
 10
58.8278850421
 20
16.9625200029
 30
0.0
 11
58.8412743192
 21
17.1717274568
 31
0.0
  0
LINE
  5
29D
330
1F
100
AcDbEntity
  8
PROFILES_OUTSIDE
100
AcDbLine
 10
58.4121370106
 20
16.9625200029
 30
0.0
 11
58.8278850421
 21
16.9625200029
 31
0.0
  0
LINE
  5
29E
330
1F
100
AcDbEntity
  8
PROFILES_OUTSIDE
100
AcDbLine
 10
58.3727669319
 20
17.4644885068
 30
0.0
 11
58.3727669319
 21
17.0018900816
 31
0.0
  0
LINE
  5
29F
330
1F
100
AcDbEntity
  8
PROFILES_OUTSIDE
100
AcDbLine
 10
62.0715858295
 20
17.7007089793
 30
0.0
 11
58.6089874043
 21
17.7007089793
 31
0.0
  0
LINE
  5
2A0
330
1F
100
AcDbEntity
  8
PROFILES_OUTSIDE
100
AcDbLine
 10
62.5440267744
 20
21.6382778218
 30
0.0
 11
62.5440267744
 21
18.1731499242
 31
0.0
  0
LINE
  5
2A1
330
1F
100
AcDbEntity
  8
PROFILES_OUTSIDE
100
AcDbLine
 10
63.2940267744
 20
24.7886983224
 30
0.0
 11
63.2940267744
 21
22.9373159275
 31
0.0
  0
LINE
  5
2A2
330
1F
100
AcDbEntity
  8
PROFILES_OUTSIDE
100
AcDbLine
 10
62.5440267744
 20
29.5528643258
 30
0.0
 11
62.5440267744
 21
26.0877364281
 31
0.0
  0
LINE
  5
2A3
330
1F
100
AcDbEntity
  8
PROFILES_OUTSIDE
100
AcDbLine
 10
58.6089874043
 20
30.0253052707
 30
0.0
 11
62.0715858295
 21
30.0253052707
 31
0.0
  0
LINE
  5
2A4
330
1F
100
AcDbEntity
  8
PROFILES_OUTSIDE
100
AcDbLine
 10
58.3727669319
 20
30.7241241683
 30
0.0
 11
58.3727669319
 21
30.2615257431
 31
0.0
  0
LINE
  5
2A5
330
1F
100
AcDbEntity
  8
PROFILES_OUTSIDE
100
AcDbLine
 10
58.8278850421
 20
30.763494247
 30
0.0
 11
58.4121370106
 21
30.763494247
 31
0.0
  0
LINE
  5
2A6
330
1F
100
AcDbEntity
  8
PROFILES_OUTSIDE
100
AcDbLine
 10
58.8412743192
 20
30.5542867931
 30
0.0
 11
58.8278850421
 21
30.763494247
 31
0.0
  0
LINE
  5
2A7
330
1F
100
AcDbEntity
  8
PROFILES_OUTSIDE
100
AcDbLine
 10
59.2207087278
 20
30.5174312549
 30
0.0
 11
58.8805640148
 21
30.5174312549
 31
0.0
  0
LINE
  5
2A8
330
1F
100
AcDbEntity
  8
PROFILES_OUTSIDE
100
AcDbLine
 10
59.3570189004
 20
31.0096359793
 30
0.0
 11
59.3570189004
 21
30.9299580911
 31
0.0
  0
LINE
  5
2A9
330
1F
100
AcDbEntity
  8
PROFILES_OUTSIDE
100
AcDbLine
 10
62.8215858295
 20
31.0096359793
 30
0.0
 11
59.3570189004
 21
31.0096359793
 31
0.0
  0
LINE
  5
2AA
330
1F
100
AcDbEntity
  8
PROFILES_OUTSIDE
100
AcDbLine
 10
63.2940267744
 20
26.560177373
 30
0.0
 11
63.2940267744
 21
30.5371950344
 31
0.0
  0
LINE
  5
2AB
330
1F
100
AcDbEntity
  8
PROFILES_OUTSIDE
100
AcDbLine
 10
64.7900897665
 20
26.0877364281
 30
0.0
 11
63.7664677193
 21
26.0877364281
 31
0.0
  0
LINE
  5
2AC
330
1F
100
AcDbEntity
  8
PROFILES_OUTSIDE
100
AcDbLine
 10
65.2625307114
 20
30.5371950344
 30
0.0
 11
65.2625307114
 21
26.560177373
 31
0.0
  0
LINE
  5
2AD
330
1F
100
AcDbEntity
  8
PROFILES_OUTSIDE
100
AcDbLine
 10
69.1995385854
 20
31.0096359793
 30
0.0
 11
65.7349716563
 21
31.0096359793
 31
0.0
  0
LINE
  5
2AE
330
1F
100
AcDbEntity
  8
PROFILES_OUTSIDE
100
AcDbLine
 10
69.1995385854
 20
30.9299580911
 30
0.0
 11
69.1995385854
 21
31.0096359793
 31
0.0
  0
LINE
  5
2AF
330
1F
100
AcDbEntity
  8
PROFILES_OUTSIDE
100
AcDbLine
 10
69.675993471
 20
30.5174312549
 30
0.0
 11
69.335848758
 21
30.5174312549
 31
0.0
  0
LINE
  5
2B0
330
1F
100
AcDbEntity
  8
PROFILES_OUTSIDE
100
AcDbLine
 10
69.7286724437
 20
30.763494247
 30
0.0
 11
69.7152831666
 21
30.5542867931
 31
0.0
  0
LINE
  5
2B1
330
1F
100
AcDbEntity
  8
PROFILES_OUTSIDE
100
AcDbLine
 10
70.1444204752
 20
30.763494247
 30
0.0
 11
69.7286724437
 21
30.763494247
 31
0.0
  0
LINE
  5
2B2
330
1F
100
AcDbEntity
  8
PROFILES_OUTSIDE
100
AcDbLine
 10
70.1837905539
 20
30.2615257431
 30
0.0
 11
70.1837905539
 21
30.7241241683
 31
0.0
  0
LINE
  5
2B3
330
1F
100
AcDbEntity
  8
PROFILES_OUTSIDE
100
AcDbLine
 10
66.4849716563
 20
30.0253052707
 30
0.0
 11
69.9475700815
 21
30.0253052707
 31
0.0
  0
LINE
  5
2B4
330
1F
100
AcDbEntity
  8
PROFILES_OUTSIDE
100
AcDbLine
 10
66.0125307114
 20
26.0877364281
 30
0.0
 11
66.0125307114
 21
29.5528643258
 31
0.0
  0
LINE
  5
2B5
330
1F
100
AcDbEntity
  8
PROFILES_OUTSIDE
100
AcDbLine
 10
65.2625307114
 20
22.9373159275
 30
0.0
 11
65.2625307114
 21
24.7886983224
 31
0.0
  0
LINE
  5
2B6
330
1F
100
AcDbEntity
  8
PROFILES_OUTSIDE
100
AcDbLine
 10
66.0125307114
 20
18.1731499242
 30
0.0
 11
66.0125307114
 21
21.6382778218
 31
0.0
  0
LINE
  5
2B7
330
1F
100
AcDbEntity
  8
PROFILES_OUTSIDE
100
AcDbLine
 10
69.9475700815
 20
17.7007089793
 30
0.0
 11
66.4849716563
 21
17.7007089793
 31
0.0
  0
LINE
  5
2B8
330
1F
100
AcDbEntity
  8
PROFILES_OUTSIDE
100
AcDbLine
 10
70.1837905539
 20
17.0018900816
 30
0.0
 11
70.1837905539
 21
17.4644885068
 31
0.0
  0
LINE
  5
2B9
330
1F
100
AcDbEntity
  8
POCKETS
100
AcDbLine
 10
16.8880847762
 20
4.2386930499
 30
0.0
 11
15.3011133886
 21
4.0998510442
 31
0.0
  0
LINE
  5
2BA
330
1F
100
AcDbEntity
  8
POCKETS
100
AcDbLine
 10
32.394814176
 20
33.9067483062
 30
0.0
 11
33.9817855636
 21
33.7679063005
 31
0.0
  0
LINE
  5
2BB
330
1F
100
AcDbEntity
  8
POCKETS
100
AcDbLine
 10
33.9817855636
 20
33.7679063005
 30
0.0
 11
34.3739882006
 21
33.7335930159
 31
0.0
  0
LINE
  5
2BC
330
1F
100
AcDbEntity
  8
POCKETS
100
AcDbLine
 10
34.3739882006
 20
33.7335930159
 30
0.0
 11
34.4198993753
 21
34.2583601443
 31
0.0
  0
LINE
  5
2BD
330
1F
100
AcDbEntity
  8
POCKETS
100
AcDbLine
 10
34.4198993753
 20
34.2583601443
 30
0.0
 11
34.0276967383
 21
34.2926734289
 31
0.0
  0
LINE
  5
2BE
330
1F
100
AcDbEntity
  8
POCKETS
100
AcDbLine
 10
34.0276967383
 20
34.2926734289
 30
0.0
 11
18.1466962503
 21
35.682080937
 31
0.0
  0
LINE
  5
2BF
330
1F
100
AcDbEntity
  8
POCKETS
100
AcDbLine
 10
18.1466962503
 20
35.682080937
 30
0.0
 11
17.7544936133
 21
35.7163942216
 31
0.0
  0
LINE
  5
2C0
330
1F
100
AcDbEntity
  8
POCKETS
100
AcDbLine
 10
17.7544936133
 20
35.7163942216
 30
0.0
 11
17.7085824385
 21
35.1916270932
 31
0.0
  0
LINE
  5
2C1
330
1F
100
AcDbEntity
  8
POCKETS
100
AcDbLine
 10
17.7085824385
 20
35.1916270932
 30
0.0
 11
18.1007850756
 21
35.1573138086
 31
0.0
  0
LINE
  5
2C2
330
1F
100
AcDbEntity
  8
POCKETS
100
AcDbLine
 10
18.1007850756
 20
35.1573138086
 30
0.0
 11
31.8814283492
 21
33.9516637461
 31
0.0
  0
LINE
  5
2C3
330
1F
100
AcDbEntity
  8
POCKETS
100
AcDbLine
 10
31.8814283492
 20
33.9516637461
 30
0.0
 11
31.8814283492
 21
4.0549356043
 31
0.0
  0
LINE
  5
2C4
330
1F
100
AcDbEntity
  8
POCKETS
100
AcDbLine
 10
31.8814283492
 20
4.0549356043
 30
0.0
 11
18.1007850756
 21
2.8492855418
 31
0.0
  0
LINE
  5
2C5
330
1F
100
AcDbEntity
  8
POCKETS
100
AcDbLine
 10
18.1007850756
 20
2.8492855418
 30
0.0
 11
17.7085824385
 21
2.8149722572
 31
0.0
  0
LINE
  5
2C6
330
1F
100
AcDbEntity
  8
POCKETS
100
AcDbLine
 10
17.7085824385
 20
2.8149722572
 30
0.0
 11
17.7544936133
 21
2.2902051289
 31
0.0
  0
LINE
  5
2C7
330
1F
100
AcDbEntity
  8
POCKETS
100
AcDbLine
 10
17.7544936133
 20
2.2902051289
 30
0.0
 11
18.1466962503
 21
2.3245184134
 31
0.0
  0
LINE
  5
2C8
330
1F
100
AcDbEntity
  8
POCKETS
100
AcDbLine
 10
18.1466962503
 20
2.3245184134
 30
0.0
 11
34.0276967383
 21
3.7139259216
 31
0.0
  0
LINE
  5
2C9
330
1F
100
AcDbEntity
  8
POCKETS
100
AcDbLine
 10
34.0276967383
 20
3.7139259216
 30
0.0
 11
34.4198993753
 21
3.7482392061
 31
0.0
  0
LINE
  5
2CA
330
1F
100
AcDbEntity
  8
POCKETS
100
AcDbLine
 10
34.4198993753
 20
3.7482392061
 30
0.0
 11
34.3739882006
 21
4.2730063345
 31
0.0
  0
LINE
  5
2CB
330
1F
100
AcDbEntity
  8
POCKETS
100
AcDbLine
 10
34.3739882006
 20
4.2730063345
 30
0.0
 11
33.9817855636
 21
4.2386930499
 31
0.0
  0
LINE
  5
2CC
330
1F
100
AcDbEntity
  8
POCKETS
100
AcDbLine
 10
33.9817855636
 20
4.2386930499
 30
0.0
 11
32.394814176
 21
4.0998510442
 31
0.0
  0
LINE
  5
2CD
330
1F
100
AcDbEntity
  8
POCKETS
100
AcDbLine
 10
32.394814176
 20
4.0998510442
 30
0.0
 11
32.394814176
 21
33.9067483062
 31
0.0
  0
LINE
  5
2CE
330
1F
100
AcDbEntity
  8
PROFILES_OUTSIDE
100
AcDbLine
 10
33.9696173256
 20
2.8440208632
 30
0.0
 11
33.9696173256
 21
5.5789584683
 31
0.0
  0
LINE
  5
2CF
330
1F
100
AcDbEntity
  8
PROFILES_OUTSIDE
100
AcDbLine
 10
18.3720950601
 20
1.262958303
 30
0.0
 11
33.7539848239
 21
2.608699281
 31
0.0
  0
ARC
  5
2D0
330
1F
100
AcDbEntity
  8
PROFILES_OUTSIDE
100
AcDbCircle
 10
16.6396960657
 20
5.5789584683
 30
0.0
 40
0.236220472440944
100
AcDbArc
 50
0.0
 51
80.0
  0
ARC
  5
2D1
330
1F
100
AcDbEntity
  8
PROFILES_OUTSIDE
100
AcDbCircle
 10
16.3247354358
 20
6.1142236332
 30
0.0
 40
0.2362204724409445
100
AcDbArc
 50
180.0
 51
260.0
  0
ARC
  5
2D2
330
1F
100
AcDbEntity
  8
PROFILES_OUTSIDE
100
AcDbCircle
 10
16.3247354358
 20
31.8923757172
 30
0.0
 40
0.2362204724409445
100
AcDbArc
 50
100.0
 51
180.0
  0
ARC
  5
2D3
330
1F
100
AcDbEntity
  8
PROFILES_OUTSIDE
100
AcDbCircle
 10
16.6396960657
 20
32.4276408821
 30
0.0
 40
0.2362204724409449
100
AcDbArc
 50
280.0
 51
0.0
  0
ARC
  5
2D4
330
1F
100
AcDbEntity
  8
PROFILES_INSIDE
100
AcDbCircle
 10
16.6121370106
 20
25.0899911288
 30
0.0
 40
0.2362204724409484
100
AcDbArc
 50
280.0
 51
0.0
  0
ARC
  5
2D5
330
1F
100
AcDbEntity
  8
PROFILES_OUTSIDE
100
AcDbCircle
 10
70.1444204752
 20
15.1916538612
 30
0.0
 40
0.0393700787401574
100
AcDbArc
 50
0.0
 51
90.0
  0
ARC
  5
2D6
330
1F
100
AcDbEntity
  8
PROFILES_INSIDE
100
AcDbCircle
 10
15.4272096238
 20
34.9592121442
 30
0.0
 40
0.0393700787401629
100
AcDbArc
 50
265.0000629249
 51
337.3995463205
  0
ARC
  5
2D7
330
1F
100
AcDbEntity
  8
PROFILES_INSIDE
100
AcDbCircle
 10
15.6514690043
 20
34.8658598905
 30
0.0
 40
0.2035433070866181
100
AcDbArc
 50
330.1122158958
 51
157.3995463205
  0
ARC
  5
2D8
330
1F
100
AcDbEntity
  8
PROFILES_INSIDE
100
AcDbCircle
 10
15.8620771921
 20
34.7448145546
 30
0.0
 40
0.0393718675624463
100
AcDbArc
 50
150.1122158958
 51
175.0
  0
ARC
  5
2D9
330
1F
100
AcDbEntity
  8
PROFILES_INSIDE
100
AcDbCircle
 10
15.8410913501
 20
34.5049658075
 30
0.0
 40
0.0393700787401588
100
AcDbArc
 50
175.0
 51
199.8879068429
  0
ARC
  5
2DA
330
1F
100
AcDbEntity
  8
PROFILES_INSIDE
100
AcDbCircle
 10
15.6126653311
 20
34.4223312695
 30
0.0
 40
0.2035433070866167
100
AcDbArc
 50
192.6004798922
 51
19.8879068429
  0
ARC
  5
2DB
330
1F
100
AcDbEntity
  8
PROFILES_INSIDE
100
AcDbCircle
 10
15.37560253
 20
34.3693393705
 30
0.0
 40
0.0393700787401566
100
AcDbArc
 50
12.6004798922
 51
85.0000629249
  0
ARC
  5
2DC
330
1F
100
AcDbEntity
  8
PROFILES_INSIDE
100
AcDbCircle
 10
15.2170100163
 20
34.3832142421
 30
0.0
 40
0.0393700787401585
100
AcDbArc
 50
85.0000629249
 51
157.3995463205
  0
ARC
  5
2DD
330
1F
100
AcDbEntity
  8
PROFILES_INSIDE
100
AcDbCircle
 10
14.9927506358
 20
34.4765664958
 30
0.0
 40
0.2035433070866136
100
AcDbArc
 50
150.1121227901
 51
337.3995463205
  0
ARC
  5
2DE
330
1F
100
AcDbEntity
  8
PROFILES_INSIDE
100
AcDbCircle
 10
14.7821441957
 20
34.5976112825
 30
0.0
 40
0.0393700787401601
100
AcDbArc
 50
330.1121227901
 51
355.0
  0
ARC
  5
2DF
330
1F
100
AcDbEntity
  8
PROFILES_INSIDE
100
AcDbCircle
 10
14.8031283244
 20
34.837460972
 30
0.0
 40
0.0393700091412016
100
AcDbArc
 50
355.0
 51
19.8878223834
  0
ARC
  5
2E0
330
1F
100
AcDbEntity
  8
PROFILES_INSIDE
100
AcDbCircle
 10
15.031554309
 20
34.9200951168
 30
0.0
 40
0.203543240727003
100
AcDbArc
 50
12.6004798922
 51
199.8878223834
  0
ARC
  5
2E1
330
1F
100
AcDbEntity
  8
PROFILES_INSIDE
100
AcDbCircle
 10
15.2686171101
 20
34.9730870157
 30
0.0
 40
0.0393701450997677
100
AcDbArc
 50
192.6004798922
 51
265.0000629249
  0
ARC
  5
2E2
330
1F
100
AcDbEntity
  8
PROFILES_INSIDE
100
AcDbCircle
 10
3.5843797105
 20
35.8189738984
 30
0.0
 40
0.0393718675624495
100
AcDbArc
 50
150.1122158958
 51
175.0
  0
ARC
  5
2E3
330
1F
100
AcDbEntity
  8
PROFILES_INSIDE
100
AcDbCircle
 10
3.3737715227
 20
35.9400192343
 30
0.0
 40
0.2035433070866156
100
AcDbArc
 50
330.1122158958
 51
157.3995463205
  0
ARC
  5
2E4
330
1F
100
AcDbEntity
  8
PROFILES_INSIDE
100
AcDbCircle
 10
3.1495121422
 20
36.033371488
 30
0.0
 40
0.0393700787401603
100
AcDbArc
 50
265.0000629249
 51
337.3995463205
  0
ARC
  5
2E5
330
1F
100
AcDbEntity
  8
PROFILES_INSIDE
100
AcDbCircle
 10
2.9909196285
 20
36.0472463596
 30
0.0
 40
0.0393701149363044
100
AcDbArc
 50
192.6004798922
 51
265.0000629249
  0
ARC
  5
2E6
330
1F
100
AcDbEntity
  8
PROFILES_INSIDE
100
AcDbCircle
 10
2.7538568274
 20
35.9942544606
 30
0.0
 40
0.2035432708904651
100
AcDbArc
 50
12.6004798922
 51
199.8878223834
  0
ARC
  5
2E7
330
1F
100
AcDbEntity
  8
PROFILES_INSIDE
100
AcDbCircle
 10
2.5254308429
 20
35.9116203159
 30
0.0
 40
0.0393700031085096
100
AcDbArc
 50
355.0
 51
19.8878223834
  0
ARC
  5
2E8
330
1F
100
AcDbEntity
  8
PROFILES_INSIDE
100
AcDbCircle
 10
2.5044467141
 20
35.6717706264
 30
0.0
 40
0.0393700787401547
100
AcDbArc
 50
330.1121227901
 51
355.0
  0
ARC
  5
2E9
330
1F
100
AcDbEntity
  8
PROFILES_INSIDE
100
AcDbCircle
 10
2.7150531542
 20
35.5507258396
 30
0.0
 40
0.2035433070866156
100
AcDbArc
 50
150.1121227901
 51
337.3995463205
  0
ARC
  5
2EA
330
1F
100
AcDbEntity
  8
PROFILES_INSIDE
100
AcDbCircle
 10
2.9393125347
 20
35.4573735859
 30
0.0
 40
0.0393700787401567
100
AcDbArc
 50
85.0000629249
 51
157.3995463205
  0
ARC
  5
2EB
330
1F
100
AcDbEntity
  8
PROFILES_INSIDE
100
AcDbCircle
 10
3.0979050484
 20
35.4434987144
 30
0.0
 40
0.0393700787401586
100
AcDbArc
 50
12.6004798922
 51
85.0000629249
  0
ARC
  5
2EC
330
1F
100
AcDbEntity
  8
PROFILES_INSIDE
100
AcDbCircle
 10
3.3349678495
 20
35.4964906133
 30
0.0
 40
0.2035433070866153
100
AcDbArc
 50
192.6004798922
 51
19.8879068429
  0
ARC
  5
2ED
330
1F
100
AcDbEntity
  8
PROFILES_INSIDE
100
AcDbCircle
 10
3.5633938685
 20
35.5791251513
 30
0.0
 40
0.0393700787401544
100
AcDbArc
 50
175.0
 51
199.8879068429
  0
ARC
  5
2EE
330
1F
100
AcDbEntity
  8
PROFILES_INSIDE
100
AcDbCircle
 10
15.6514690325
 20
3.1407397443
 30
0.0
 40
0.2035433070866167
100
AcDbArc
 50
202.6004798922
 51
29.8879068429
  0
ARC
  5
2EF
330
1F
100
AcDbEntity
  8
PROFILES_INSIDE
100
AcDbCircle
 10
15.8620754101
 20
3.2617846399
 30
0.0
 40
0.039370078740157
100
AcDbArc
 50
185.0
 51
209.8879068429
  0
ARC
  5
2F0
330
1F
100
AcDbEntity
  8
PROFILES_INSIDE
100
AcDbCircle
 10
15.8410931321
 20
3.5016336988
 30
0.0
 40
0.0393718675624463
100
AcDbArc
 50
160.1122158958
 51
185.0
  0
ARC
  5
2F1
330
1F
100
AcDbEntity
  8
PROFILES_INSIDE
100
AcDbCircle
 10
15.612665254
 20
3.5842683561
 30
0.0
 40
0.203543307086615
100
AcDbArc
 50
340.1122158958
 51
167.3995463205
  0
ARC
  5
2F2
330
1F
100
AcDbEntity
  8
PROFILES_INSIDE
100
AcDbCircle
 10
15.3756024286
 20
3.6372601465
 30
0.0
 40
0.0393700787401597
100
AcDbArc
 50
275.0000629249
 51
347.3995463205
  0
ARC
  5
2F3
330
1F
100
AcDbEntity
  8
PROFILES_INSIDE
100
AcDbCircle
 10
15.2170099454
 20
3.6233849266
 30
0.0
 40
0.0393701089036147
100
AcDbArc
 50
202.6004798922
 51
275.0000629249
  0
ARC
  5
2F4
330
1F
100
AcDbEntity
  8
PROFILES_INSIDE
100
AcDbCircle
 10
14.9927506076
 20
3.5300325703
 30
0.0
 40
0.203543276923158
100
AcDbArc
 50
22.6004798922
 51
209.8878223834
  0
ARC
  5
2F5
330
1F
100
AcDbEntity
  8
PROFILES_INSIDE
100
AcDbCircle
 10
14.7821441957
 20
3.4089880679
 30
0.0
 40
0.0393699970758196
100
AcDbArc
 50
5.0
 51
29.8878223834
  0
ARC
  5
2F6
330
1F
100
AcDbEntity
  8
PROFILES_INSIDE
100
AcDbCircle
 10
14.8031283244
 20
3.1691383784
 30
0.0
 40
0.0393700787401595
100
AcDbArc
 50
340.1121227901
 51
5.0
  0
ARC
  5
2F7
330
1F
100
AcDbEntity
  8
PROFILES_INSIDE
100
AcDbCircle
 10
15.0315543862
 20
3.0865039585
 30
0.0
 40
0.2035433070866132
100
AcDbArc
 50
160.1121227901
 51
347.3995463205
  0
ARC
  5
2F8
330
1F
100
AcDbEntity
  8
PROFILES_INSIDE
100
AcDbCircle
 10
15.2686172115
 20
3.033512168
 30
0.0
 40
0.0393700787401593
100
AcDbArc
 50
95.0000629249
 51
167.3995463205
  0
ARC
  5
2F9
330
1F
100
AcDbEntity
  8
PROFILES_INSIDE
100
AcDbCircle
 10
15.4272096948
 20
3.047387388
 30
0.0
 40
0.0393700787401593
100
AcDbArc
 50
22.6004798922
 51
95.0000629249
  0
ARC
  5
2FA
330
1F
100
AcDbEntity
  8
PROFILES_INSIDE
100
AcDbCircle
 10
2.5254308429
 20
2.0949790346
 30
0.0
 40
0.0393700787401594
100
AcDbArc
 50
340.1121227901
 51
5.0
  0
ARC
  5
2FB
330
1F
100
AcDbEntity
  8
PROFILES_INSIDE
100
AcDbCircle
 10
2.7538569046
 20
2.0123446147
 30
0.0
 40
0.203543307086617
100
AcDbArc
 50
160.1121227901
 51
347.3995463205
  0
ARC
  5
2FC
330
1F
100
AcDbEntity
  8
PROFILES_INSIDE
100
AcDbCircle
 10
2.9909197299
 20
1.9593528242
 30
0.0
 40
0.0393700787401603
100
AcDbArc
 50
95.0000629249
 51
167.3995463205
  0
ARC
  5
2FD
330
1F
100
AcDbEntity
  8
PROFILES_INSIDE
100
AcDbCircle
 10
3.1495122132
 20
1.9732280441
 30
0.0
 40
0.0393700787401599
100
AcDbArc
 50
22.6004798922
 51
95.0000629249
  0
ARC
  5
2FE
330
1F
100
AcDbEntity
  8
PROFILES_INSIDE
100
AcDbCircle
 10
3.3737715509
 20
2.0665804004
 30
0.0
 40
0.2035433070866148
100
AcDbArc
 50
202.6004798922
 51
29.8879068429
  0
ARC
  5
2FF
330
1F
100
AcDbEntity
  8
PROFILES_INSIDE
100
AcDbCircle
 10
3.5843779285
 20
2.1876252961
 30
0.0
 40
0.0393700787401623
100
AcDbArc
 50
185.0
 51
209.8879068429
  0
ARC
  5
300
330
1F
100
AcDbEntity
  8
PROFILES_INSIDE
100
AcDbCircle
 10
3.5633956505
 20
2.427474355
 30
0.0
 40
0.0393718675624502
100
AcDbArc
 50
160.1122158958
 51
185.0
  0
ARC
  5
301
330
1F
100
AcDbEntity
  8
PROFILES_INSIDE
100
AcDbCircle
 10
3.3349677724
 20
2.5101090122
 30
0.0
 40
0.2035433070866171
100
AcDbArc
 50
340.1122158958
 51
167.3995463205
  0
ARC
  5
302
330
1F
100
AcDbEntity
  8
PROFILES_INSIDE
100
AcDbCircle
 10
3.0979049471
 20
2.5631008027
 30
0.0
 40
0.0393700787401574
100
AcDbArc
 50
275.0000629249
 51
347.3995463205
  0
ARC
  5
303
330
1F
100
AcDbEntity
  8
PROFILES_INSIDE
100
AcDbCircle
 10
2.9393124638
 20
2.5492255828
 30
0.0
 40
0.0393700847728452
100
AcDbArc
 50
202.6004798922
 51
275.0000629249
  0
ARC
  5
304
330
1F
100
AcDbEntity
  8
PROFILES_INSIDE
100
AcDbCircle
 10
2.715053126
 20
2.4558732265
 30
0.0
 40
0.2035433010539231
100
AcDbArc
 50
22.6004798922
 51
209.8878223834
  0
ARC
  5
305
330
1F
100
AcDbEntity
  8
PROFILES_INSIDE
100
AcDbCircle
 10
2.5044467141
 20
2.3348287241
 30
0.0
 40
0.0393700091412029
100
AcDbArc
 50
5.0
 51
29.8878223834
  0
ARC
  5
306
330
1F
100
AcDbEntity
  8
PROFILES_INSIDE
100
AcDbCircle
 10
32.5209104112
 20
34.9592121442
 30
0.0
 40
0.0393700787401607
100
AcDbArc
 50
265.0000629249
 51
337.3995463205
  0
ARC
  5
307
330
1F
100
AcDbEntity
  8
PROFILES_INSIDE
100
AcDbCircle
 10
32.7451697917
 20
34.8658598905
 30
0.0
 40
0.2035433070866207
100
AcDbArc
 50
330.1122158958
 51
157.3995463205
  0
ARC
  5
308
330
1F
100
AcDbEntity
  8
PROFILES_INSIDE
100
AcDbCircle
 10
32.9557779795
 20
34.7448145546
 30
0.0
 40
0.0393718675624432
100
AcDbArc
 50
150.1122158958
 51
175.0
  0
ARC
  5
309
330
1F
100
AcDbEntity
  8
PROFILES_INSIDE
100
AcDbCircle
 10
32.9347921375
 20
34.5049658075
 30
0.0
 40
0.0393700787401627
100
AcDbArc
 50
175.0
 51
199.8879068429
  0
ARC
  5
30A
330
1F
100
AcDbEntity
  8
PROFILES_INSIDE
100
AcDbCircle
 10
32.7063661185
 20
34.4223312695
 30
0.0
 40
0.2035433070866141
100
AcDbArc
 50
192.6004798922
 51
19.8879068429
  0
ARC
  5
30B
330
1F
100
AcDbEntity
  8
PROFILES_INSIDE
100
AcDbCircle
 10
32.4693033174
 20
34.3693393705
 30
0.0
 40
0.0393700787401653
100
AcDbArc
 50
12.6004798922
 51
85.0000629249
  0
ARC
  5
30C
330
1F
100
AcDbEntity
  8
PROFILES_INSIDE
100
AcDbCircle
 10
32.3107108037
 20
34.3832142421
 30
0.0
 40
0.0393700787401634
100
AcDbArc
 50
85.0000629249
 51
157.3995463205
  0
ARC
  5
30D
330
1F
100
AcDbEntity
  8
PROFILES_INSIDE
100
AcDbCircle
 10
32.0864514232
 20
34.4765664958
 30
0.0
 40
0.203543307086617
100
AcDbArc
 50
150.1121227901
 51
337.3995463205
  0
ARC
  5
30E
330
1F
100
AcDbEntity
  8
PROFILES_INSIDE
100
AcDbCircle
 10
31.8758449831
 20
34.5976112825
 30
0.0
 40
0.0393700787401621
100
AcDbArc
 50
330.1121227901
 51
355.0
  0
ARC
  5
30F
330
1F
100
AcDbEntity
  8
PROFILES_INSIDE
100
AcDbCircle
 10
31.8968291119
 20
34.837460972
 30
0.0
 40
0.0393700091412075
100
AcDbArc
 50
355.0
 51
19.8878223834
  0
ARC
  5
310
330
1F
100
AcDbEntity
  8
PROFILES_INSIDE
100
AcDbCircle
 10
32.1252550964
 20
34.9200951168
 30
0.0
 40
0.2035432407270049
100
AcDbArc
 50
12.6004798922
 51
199.8878223834
  0
ARC
  5
311
330
1F
100
AcDbEntity
  8
PROFILES_INSIDE
100
AcDbCircle
 10
32.3623178975
 20
34.9730870157
 30
0.0
 40
0.0393701450997727
100
AcDbArc
 50
192.6004798922
 51
265.0000629249
  0
ARC
  5
312
330
1F
100
AcDbEntity
  8
PROFILES_INSIDE
100
AcDbCircle
 10
20.683751748
 20
35.8184777284
 30
0.0
 40
0.0393718675624503
100
AcDbArc
 50
150.1122158958
 51
175.0
  0
ARC
  5
313
330
1F
100
AcDbEntity
  8
PROFILES_INSIDE
100
AcDbCircle
 10
20.4731435603
 20
35.9395230642
 30
0.0
 40
0.203543307086617
100
AcDbArc
 50
330.1122158958
 51
157.3995463205
  0
ARC
  5
314
330
1F
100
AcDbEntity
  8
PROFILES_INSIDE
100
AcDbCircle
 10
20.2488841798
 20
36.0328753179
 30
0.0
 40
0.0393700787401574
100
AcDbArc
 50
265.0000629249
 51
337.3995463205
  0
ARC
  5
315
330
1F
100
AcDbEntity
  8
PROFILES_INSIDE
100
AcDbCircle
 10
20.090291666
 20
36.0467501895
 30
0.0
 40
0.0393701149363084
100
AcDbArc
 50
192.6004798923
 51
265.0000629249
  0
ARC
  5
316
330
1F
100
AcDbEntity
  8
PROFILES_INSIDE
100
AcDbCircle
 10
19.8532288649
 20
35.9937582906
 30
0.0
 40
0.2035432708904622
100
AcDbArc
 50
12.6004798922
 51
199.8878223834
  0
ARC
  5
317
330
1F
100
AcDbEntity
  8
PROFILES_INSIDE
100
AcDbCircle
 10
19.6248028804
 20
35.9111241458
 30
0.0
 40
0.039370003108509
100
AcDbArc
 50
355.0
 51
19.8878223834
  0
ARC
  5
318
330
1F
100
AcDbEntity
  8
PROFILES_INSIDE
100
AcDbCircle
 10
19.6038187516
 20
35.6712744563
 30
0.0
 40
0.0393700787401588
100
AcDbArc
 50
330.1121227901
 51
355.0
  0
ARC
  5
319
330
1F
100
AcDbEntity
  8
PROFILES_INSIDE
100
AcDbCircle
 10
19.8144251917
 20
35.5502296696
 30
0.0
 40
0.2035433070866164
100
AcDbArc
 50
150.1121227901
 51
337.3995463205
  0
ARC
  5
31A
330
1F
100
AcDbEntity
  8
PROFILES_INSIDE
100
AcDbCircle
 10
20.0386845722
 20
35.4568774158
 30
0.0
 40
0.0393700787401631
100
AcDbArc
 50
85.0000629249
 51
157.3995463205
  0
ARC
  5
31B
330
1F
100
AcDbEntity
  8
PROFILES_INSIDE
100
AcDbCircle
 10
20.197277086
 20
35.4430025443
 30
0.0
 40
0.039370078740156
100
AcDbArc
 50
12.6004798922
 51
85.0000629249
  0
ARC
  5
31C
330
1F
100
AcDbEntity
  8
PROFILES_INSIDE
100
AcDbCircle
 10
20.4343398871
 20
35.4959944432
 30
0.0
 40
0.2035433070866117
100
AcDbArc
 50
192.6004798922
 51
19.8879068429
  0
ARC
  5
31D
330
1F
100
AcDbEntity
  8
PROFILES_INSIDE
100
AcDbCircle
 10
20.662765906
 20
35.5786289812
 30
0.0
 40
0.0393700787401652
100
AcDbArc
 50
175.0
 51
199.8879068429
  0
ARC
  5
31E
330
1F
100
AcDbEntity
  8
PROFILES_INSIDE
100
AcDbCircle
 10
32.7451698199
 20
3.1407397443
 30
0.0
 40
0.2035433070866184
100
AcDbArc
 50
202.6004798922
 51
29.8879068429
  0
ARC
  5
31F
330
1F
100
AcDbEntity
  8
PROFILES_INSIDE
100
AcDbCircle
 10
32.9557761975
 20
3.2617846399
 30
0.0
 40
0.0393700787401605
100
AcDbArc
 50
185.0
 51
209.8879068429
  0
ARC
  5
320
330
1F
100
AcDbEntity
  8
PROFILES_INSIDE
100
AcDbCircle
 10
32.9347939195
 20
3.5016336988
 30
0.0
 40
0.0393718675624449
100
AcDbArc
 50
160.1122158958
 51
185.0
  0
ARC
  5
321
330
1F
100
AcDbEntity
  8
PROFILES_INSIDE
100
AcDbCircle
 10
32.7063660414
 20
3.5842683561
 30
0.0
 40
0.2035433070866165
100
AcDbArc
 50
340.1122158958
 51
167.3995463205
  0
ARC
  5
322
330
1F
100
AcDbEntity
  8
PROFILES_INSIDE
100
AcDbCircle
 10
32.469303216
 20
3.6372601465
 30
0.0
 40
0.0393700787401572
100
AcDbArc
 50
275.0000629249
 51
347.3995463205
  0
ARC
  5
323
330
1F
100
AcDbEntity
  8
PROFILES_INSIDE
100
AcDbCircle
 10
32.3107107328
 20
3.6233849266
 30
0.0
 40
0.0393701089036106
100
AcDbArc
 50
202.6004798922
 51
275.0000629249
  0
ARC
  5
324
330
1F
100
AcDbEntity
  8
PROFILES_INSIDE
100
AcDbCircle
 10
32.086451395
 20
3.5300325703
 30
0.0
 40
0.2035432769231571
100
AcDbArc
 50
22.6004798922
 51
209.8878223834
  0
ARC
  5
325
330
1F
100
AcDbEntity
  8
PROFILES_INSIDE
100
AcDbCircle
 10
31.8758449831
 20
3.4089880679
 30
0.0
 40
0.039369997075818
100
AcDbArc
 50
5.0
 51
29.8878223834
  0
ARC
  5
326
330
1F
100
AcDbEntity
  8
PROFILES_INSIDE
100
AcDbCircle
 10
31.8968291119
 20
3.1691383784
 30
0.0
 40
0.039370078740159
100
AcDbArc
 50
340.1121227901
 51
5.0
  0
ARC
  5
327
330
1F
100
AcDbEntity
  8
PROFILES_INSIDE
100
AcDbCircle
 10
32.1252551736
 20
3.0865039585
 30
0.0
 40
0.2035433070866165
100
AcDbArc
 50
160.1121227901
 51
347.3995463205
  0
ARC
  5
328
330
1F
100
AcDbEntity
  8
PROFILES_INSIDE
100
AcDbCircle
 10
32.3623179989
 20
3.033512168
 30
0.0
 40
0.0393700787401568
100
AcDbArc
 50
95.0000629249
 51
167.3995463205
  0
ARC
  5
329
330
1F
100
AcDbEntity
  8
PROFILES_INSIDE
100
AcDbCircle
 10
32.5209104822
 20
3.047387388
 30
0.0
 40
0.0393700787401601
100
AcDbArc
 50
22.6004798922
 51
95.0000629249
  0
ARC
  5
32A
330
1F
100
AcDbEntity
  8
PROFILES_INSIDE
100
AcDbCircle
 10
19.6248028804
 20
2.0954752046
 30
0.0
 40
0.0393700787401552
100
AcDbArc
 50
340.1121227901
 51
5.0
  0
ARC
  5
32B
330
1F
100
AcDbEntity
  8
PROFILES_INSIDE
100
AcDbCircle
 10
19.8532289421
 20
2.0128407848
 30
0.0
 40
0.2035433070866166
100
AcDbArc
 50
160.1121227901
 51
347.3995463205
  0
ARC
  5
32C
330
1F
100
AcDbEntity
  8
PROFILES_INSIDE
100
AcDbCircle
 10
20.0902917674
 20
1.9598489943
 30
0.0
 40
0.0393700787401583
100
AcDbArc
 50
95.0000629249
 51
167.3995463205
  0
ARC
  5
32D
330
1F
100
AcDbEntity
  8
PROFILES_INSIDE
100
AcDbCircle
 10
20.2488842507
 20
1.9737242142
 30
0.0
 40
0.039370078740156
100
AcDbArc
 50
22.6004798922
 51
95.0000629249
  0
ARC
  5
32E
330
1F
100
AcDbEntity
  8
PROFILES_INSIDE
100
AcDbCircle
 10
20.4731435885
 20
2.0670765705
 30
0.0
 40
0.2035433070866184
100
AcDbArc
 50
202.6004798922
 51
29.8879068429
  0
ARC
  5
32F
330
1F
100
AcDbEntity
  8
PROFILES_INSIDE
100
AcDbCircle
 10
20.683749966
 20
2.1881214662
 30
0.0
 40
0.0393700787401623
100
AcDbArc
 50
185.0
 51
209.8879068429
  0
ARC
  5
330
330
1F
100
AcDbEntity
  8
PROFILES_INSIDE
100
AcDbCircle
 10
20.662767688
 20
2.4279705251
 30
0.0
 40
0.0393718675624498
100
AcDbArc
 50
160.1122158958
 51
185.0
  0
ARC
  5
331
330
1F
100
AcDbEntity
  8
PROFILES_INSIDE
100
AcDbCircle
 10
20.4343398099
 20
2.5106051823
 30
0.0
 40
0.2035433070866164
100
AcDbArc
 50
340.1122158958
 51
167.3995463205
  0
ARC
  5
332
330
1F
100
AcDbEntity
  8
PROFILES_INSIDE
100
AcDbCircle
 10
20.1972769846
 20
2.5635969728
 30
0.0
 40
0.0393700787401568
100
AcDbArc
 50
275.0000629249
 51
347.3995463205
  0
ARC
  5
333
330
1F
100
AcDbEntity
  8
PROFILES_INSIDE
100
AcDbCircle
 10
20.0386845013
 20
2.5497217529
 30
0.0
 40
0.039370084772851
100
AcDbArc
 50
202.6004798922
 51
275.0000629249
  0
ARC
  5
334
330
1F
100
AcDbEntity
  8
PROFILES_INSIDE
100
AcDbCircle
 10
19.8144251635
 20
2.4563693966
 30
0.0
 40
0.2035433010539219
100
AcDbArc
 50
22.6004798922
 51
209.8878223834
  0
ARC
  5
335
330
1F
100
AcDbEntity
  8
PROFILES_INSIDE
100
AcDbCircle
 10
19.6038187516
 20
2.3353248942
 30
0.0
 40
0.0393700091412038
100
AcDbArc
 50
5.0
 51
29.8878223834
  0
ARC
  5
336
330
1F
100
AcDbEntity
  8
PROFILES_OUTSIDE
100
AcDbCircle
 10
18.3515070894
 20
36.5083194651
 30
0.0
 40
0.2362204724409445
100
AcDbArc
 50
85.0
 51
180.0
  0
ARC
  5
337
330
1F
100
AcDbEntity
  8
PROFILES_OUTSIDE
100
AcDbCircle
 10
33.7333968531
 20
35.1625784872
 30
0.0
 40
0.236220472440948
100
AcDbArc
 50
360.0
 51
85.0
  0
ARC
  5
338
330
1F
100
AcDbEntity
  8
PROFILES_OUTSIDE
100
AcDbCircle
 10
33.7333968531
 20
32.4276408821
 30
0.0
 40
0.236220472440948
100
AcDbArc
 50
280.0
 51
0.0
  0
ARC
  5
339
330
1F
100
AcDbEntity
  8
PROFILES_OUTSIDE
100
AcDbCircle
 10
33.4184362232
 20
31.8923757172
 30
0.0
 40
0.2362204724409414
100
AcDbArc
 50
100.0
 51
180.0
  0
ARC
  5
33A
330
1F
100
AcDbEntity
  8
PROFILES_OUTSIDE
100
AcDbCircle
 10
33.4184362232
 20
6.1142236332
 30
0.0
 40
0.2362204724409458
100
AcDbArc
 50
180.0
 51
260.0
  0
ARC
  5
33B
330
1F
100
AcDbEntity
  8
PROFILES_OUTSIDE
100
AcDbCircle
 10
33.7333968531
 20
5.5789584683
 30
0.0
 40
0.236220472440948
100
AcDbArc
 50
0.0
 51
80.0
  0
ARC
  5
33C
330
1F
100
AcDbEntity
  8
PROFILES_OUTSIDE
100
AcDbCircle
 10
33.7333968531
 20
2.8440208632
 30
0.0
 40
0.236220472440948
100
AcDbArc
 50
275.0
 51
0.0
  0
ARC
  5
33D
330
1F
100
AcDbEntity
  8
PROFILES_OUTSIDE
100
AcDbCircle
 10
18.3515070894
 20
1.4982798853
 30
0.0
 40
0.2362204724409516
100
AcDbArc
 50
180.0
 51
275.0
  0
ARC
  5
33E
330
1F
100
AcDbEntity
  8
PROFILES_OUTSIDE
100
AcDbCircle
 10
66.4849716563
 20
14.0203940186
 30
0.0
 40
0.4724409448818925
100
AcDbArc
 50
90.0
 51
180.0
  0
ARC
  5
33F
330
1F
100
AcDbEntity
  8
PROFILES_OUTSIDE
100
AcDbCircle
 10
66.4849716563
 20
2.640679617
 30
0.0
 40
0.472440944881896
100
AcDbArc
 50
180.0
 51
270.0
  0
ARC
  5
340
330
1F
100
AcDbEntity
  8
PROFILES_OUTSIDE
100
AcDbCircle
 10
70.1444204752
 20
1.4694197745
 30
0.0
 40
0.0393700787401574
100
AcDbArc
 50
270.0
 51
0.0
  0
ARC
  5
341
330
1F
100
AcDbEntity
  8
PROFILES_OUTSIDE
100
AcDbCircle
 10
58.8805640148
 20
15.0243310265
 30
0.0
 40
0.0393700787401574
100
AcDbArc
 50
183.6619355755
 51
270.0
  0
ARC
  5
342
330
1F
100
AcDbEntity
  8
PROFILES_OUTSIDE
100
AcDbCircle
 10
59.2207087278
 20
14.945590869
 30
0.0
 40
0.0393700787401579
100
AcDbArc
 50
65.1121079736
 51
90.0
  0
ARC
  5
343
330
1F
100
AcDbEntity
  8
PROFILES_OUTSIDE
100
AcDbCircle
 10
59.3229373988
 20
15.1659456099
 30
0.0
 40
0.2035433070866126
100
AcDbArc
 50
245.1121079736
 51
72.3995332141
  0
ARC
  5
344
330
1F
100
AcDbEntity
  8
PROFILES_OUTSIDE
100
AcDbCircle
 10
59.3963889791
 20
15.397487784
 30
0.0
 40
0.0393700787401627
100
AcDbArc
 50
180.0
 51
252.3995332141
  0
ARC
  5
345
330
1F
100
AcDbEntity
  8
PROFILES_OUTSIDE
100
AcDbCircle
 10
62.8215858295
 20
15.0047247273
 30
0.0
 40
0.4724409448818907
100
AcDbArc
 50
0.0
 51
90.0
  0
ARC
  5
346
330
1F
100
AcDbEntity
  8
PROFILES_OUTSIDE
100
AcDbCircle
 10
63.7664677193
 20
11.0277070659
 30
0.0
 40
0.4724409448818889
100
AcDbArc
 50
180.0
 51
270.0
  0
ARC
  5
347
330
1F
100
AcDbEntity
  8
PROFILES_OUTSIDE
100
AcDbCircle
 10
64.7900897665
 20
11.0277070659
 30
0.0
 40
0.472440944881896
100
AcDbArc
 50
270.0
 51
0.0
  0
ARC
  5
348
330
1F
100
AcDbEntity
  8
PROFILES_OUTSIDE
100
AcDbCircle
 10
65.7349716563
 20
15.0047247273
 30
0.0
 40
0.4724409448818907
100
AcDbArc
 50
90.0
 51
180.0
  0
ARC
  5
349
330
1F
100
AcDbEntity
  8
PROFILES_OUTSIDE
100
AcDbCircle
 10
69.1601685067
 20
15.397487784
 30
0.0
 40
0.0393700787401629
100
AcDbArc
 50
287.6004667859
 51
0.0
  0
ARC
  5
34A
330
1F
100
AcDbEntity
  8
PROFILES_OUTSIDE
100
AcDbCircle
 10
69.233620087
 20
15.1659456099
 30
0.0
 40
0.2035433070866123
100
AcDbArc
 50
107.6004667859
 51
294.8878920264
  0
ARC
  5
34B
330
1F
100
AcDbEntity
  8
PROFILES_OUTSIDE
100
AcDbCircle
 10
69.335848758
 20
14.945590869
 30
0.0
 40
0.0393700787401625
100
AcDbArc
 50
90.0
 51
114.8878920264
  0
ARC
  5
34C
330
1F
100
AcDbEntity
  8
PROFILES_OUTSIDE
100
AcDbCircle
 10
69.675993471
 20
15.0243310265
 30
0.0
 40
0.039370078740159
100
AcDbArc
 50
270.0
 51
356.3380644245
  0
ARC
  5
34D
330
1F
100
AcDbEntity
  8
PROFILES_OUTSIDE
100
AcDbCircle
 10
69.9475700815
 20
14.729055436
 30
0.0
 40
0.236220472440948
100
AcDbArc
 50
270.0
 51
0.0
  0
ARC
  5
34E
330
1F
100
AcDbEntity
  8
PROFILES_OUTSIDE
100
AcDbCircle
 10
58.4121370106
 20
1.4694197745
 30
0.0
 40
0.0393700787401627
100
AcDbArc
 50
180.0
 51
270.0
  0
ARC
  5
34F
330
1F
100
AcDbEntity
  8
PROFILES_OUTSIDE
100
AcDbCircle
 10
65.2625307114
 20
10.555266121
 30
0.0
 40
0.75
100
AcDbArc
 50
300.0
 51
0.0
  0
ARC
  5
350
330
1F
100
AcDbEntity
  8
PROFILES_OUTSIDE
100
AcDbCircle
 10
66.0125307114
 20
9.2562280153
 30
0.0
 40
0.75
100
AcDbArc
 50
120.0
 51
180.0
  0
ARC
  5
351
330
1F
100
AcDbEntity
  8
PROFILES_OUTSIDE
100
AcDbCircle
 10
66.0125307114
 20
7.4048456204
 30
0.0
 40
0.75
100
AcDbArc
 50
180.0
 51
240.0
  0
ARC
  5
352
330
1F
100
AcDbEntity
  8
PROFILES_OUTSIDE
100
AcDbCircle
 10
65.2625307114
 20
6.1058075147
 30
0.0
 40
0.75
100
AcDbArc
 50
0.0
 51
60.0
  0
ARC
  5
353
330
1F
100
AcDbEntity
  8
PROFILES_OUTSIDE
100
AcDbCircle
 10
69.9475700815
 20
1.9320181997
 30
0.0
 40
0.2362204724409449
100
AcDbArc
 50
0.0
 51
90.0
  0
ARC
  5
354
330
1F
100
AcDbEntity
  8
PROFILES_OUTSIDE
100
AcDbCircle
 10
62.0715858295
 20
2.640679617
 30
0.0
 40
0.4724409448818898
100
AcDbArc
 50
270.0
 51
0.0
  0
ARC
  5
355
330
1F
100
AcDbEntity
  8
PROFILES_OUTSIDE
100
AcDbCircle
 10
69.675993471
 20
1.6367426092
 30
0.0
 40
0.039370078740159
100
AcDbArc
 50
3.6619355755
 51
90.0
  0
ARC
  5
356
330
1F
100
AcDbEntity
  8
PROFILES_OUTSIDE
100
AcDbCircle
 10
69.335848758
 20
1.7154827666
 30
0.0
 40
0.0393700787401574
100
AcDbArc
 50
245.1121079736
 51
270.0
  0
ARC
  5
357
330
1F
100
AcDbEntity
  8
PROFILES_OUTSIDE
100
AcDbCircle
 10
69.233620087
 20
1.4951280257
 30
0.0
 40
0.2035433070866159
100
AcDbArc
 50
65.1121079736
 51
252.3995332141
  0
ARC
  5
358
330
1F
100
AcDbEntity
  8
PROFILES_OUTSIDE
100
AcDbCircle
 10
69.1601685067
 20
1.2635858517
 30
0.0
 40
0.0393700787401627
100
AcDbArc
 50
0.0
 51
72.3995332141
  0
ARC
  5
359
330
1F
100
AcDbEntity
  8
PROFILES_OUTSIDE
100
AcDbCircle
 10
65.7349716563
 20
1.6563489084
 30
0.0
 40
0.4724409448818903
100
AcDbArc
 50
180.0
 51
270.0
  0
ARC
  5
35A
330
1F
100
AcDbEntity
  8
PROFILES_OUTSIDE
100
AcDbCircle
 10
64.7900897665
 20
5.6333665698
 30
0.0
 40
0.472440944881896
100
AcDbArc
 50
0.0
 51
90.0
  0
ARC
  5
35B
330
1F
100
AcDbEntity
  8
PROFILES_OUTSIDE
100
AcDbCircle
 10
63.7664677193
 20
5.6333665698
 30
0.0
 40
0.4724409448818907
100
AcDbArc
 50
90.0
 51
180.0
  0
ARC
  5
35C
330
1F
100
AcDbEntity
  8
PROFILES_OUTSIDE
100
AcDbCircle
 10
62.8215858295
 20
1.6563489084
 30
0.0
 40
0.4724409448818903
100
AcDbArc
 50
270.0
 51
0.0
  0
ARC
  5
35D
330
1F
100
AcDbEntity
  8
PROFILES_OUTSIDE
100
AcDbCircle
 10
59.3963889791
 20
1.2635858517
 30
0.0
 40
0.0393700787401627
100
AcDbArc
 50
107.6004667859
 51
180.0
  0
ARC
  5
35E
330
1F
100
AcDbEntity
  8
PROFILES_OUTSIDE
100
AcDbCircle
 10
59.3229373988
 20
1.4951280257
 30
0.0
 40
0.203543307086613
100
AcDbArc
 50
287.6004667859
 51
114.8878920264
  0
ARC
  5
35F
330
1F
100
AcDbEntity
  8
PROFILES_OUTSIDE
100
AcDbCircle
 10
59.2207087278
 20
1.7154827666
 30
0.0
 40
0.0393700787401583
100
AcDbArc
 50
270.0
 51
294.8878920264
  0
ARC
  5
360
330
1F
100
AcDbEntity
  8
PROFILES_OUTSIDE
100
AcDbCircle
 10
58.8805640148
 20
1.6367426092
 30
0.0
 40
0.0393700787401576
100
AcDbArc
 50
90.0
 51
176.3380644245
  0
ARC
  5
361
330
1F
100
AcDbEntity
  8
PROFILES_OUTSIDE
100
AcDbCircle
 10
58.6089874043
 20
1.9320181997
 30
0.0
 40
0.2362204724409551
100
AcDbArc
 50
90.0
 51
180.0
  0
ARC
  5
362
330
1F
100
AcDbEntity
  8
PROFILES_OUTSIDE
100
AcDbCircle
 10
62.0715858295
 20
14.0203940186
 30
0.0
 40
0.4724409448818889
100
AcDbArc
 50
0.0
 51
90.0
  0
ARC
  5
363
330
1F
100
AcDbEntity
  8
PROFILES_OUTSIDE
100
AcDbCircle
 10
63.2940267744
 20
6.1058075147
 30
0.0
 40
0.75
100
AcDbArc
 50
120.0
 51
180.0
  0
ARC
  5
364
330
1F
100
AcDbEntity
  8
PROFILES_OUTSIDE
100
AcDbCircle
 10
62.5440267744
 20
7.4048456204
 30
0.0
 40
0.75
100
AcDbArc
 50
300.0
 51
0.0
  0
ARC
  5
365
330
1F
100
AcDbEntity
  8
PROFILES_OUTSIDE
100
AcDbCircle
 10
62.5440267744
 20
9.2562280153
 30
0.0
 40
0.75
100
AcDbArc
 50
0.0
 51
60.0
  0
ARC
  5
366
330
1F
100
AcDbEntity
  8
PROFILES_OUTSIDE
100
AcDbCircle
 10
63.2940267744
 20
10.555266121
 30
0.0
 40
0.75
100
AcDbArc
 50
180.0
 51
240.0
  0
ARC
  5
367
330
1F
100
AcDbEntity
  8
PROFILES_OUTSIDE
100
AcDbCircle
 10
58.6089874043
 20
14.729055436
 30
0.0
 40
0.2362204724409551
100
AcDbArc
 50
180.0
 51
270.0
  0
ARC
  5
368
330
1F
100
AcDbEntity
  8
PROFILES_OUTSIDE
100
AcDbCircle
 10
58.4121370106
 20
15.1916538612
 30
0.0
 40
0.0393700787401627
100
AcDbArc
 50
90.0
 51
180.0
  0
ARC
  5
369
330
1F
100
AcDbEntity
  8
PROFILES_OUTSIDE
100
AcDbCircle
 10
58.4121370106
 20
17.0018900816
 30
0.0
 40
0.0393700787401592
100
AcDbArc
 50
180.0
 51
270.0
  0
ARC
  5
36A
330
1F
100
AcDbEntity
  8
PROFILES_OUTSIDE
100
AcDbCircle
 10
62.0715858295
 20
18.1731499242
 30
0.0
 40
0.4724409448818889
100
AcDbArc
 50
270.0
 51
0.0
  0
ARC
  5
36B
330
1F
100
AcDbEntity
  8
PROFILES_OUTSIDE
100
AcDbCircle
 10
62.0715858295
 20
29.5528643258
 30
0.0
 40
0.4724409448818996
100
AcDbArc
 50
0.0
 51
90.0
  0
ARC
  5
36C
330
1F
100
AcDbEntity
  8
PROFILES_OUTSIDE
100
AcDbCircle
 10
58.4121370106
 20
30.7241241683
 30
0.0
 40
0.0393700787401627
100
AcDbArc
 50
90.0
 51
180.0
  0
ARC
  5
36D
330
1F
100
AcDbEntity
  8
PROFILES_OUTSIDE
100
AcDbCircle
 10
69.675993471
 20
17.1692129163
 30
0.0
 40
0.0393700787401556
100
AcDbArc
 50
3.6619355755
 51
90.0
  0
ARC
  5
36E
330
1F
100
AcDbEntity
  8
PROFILES_OUTSIDE
100
AcDbCircle
 10
69.335848758
 20
17.2479530738
 30
0.0
 40
0.0393700787401592
100
AcDbArc
 50
245.1121079736
 51
270.0
  0
ARC
  5
36F
330
1F
100
AcDbEntity
  8
PROFILES_OUTSIDE
100
AcDbCircle
 10
69.233620087
 20
17.0275983329
 30
0.0
 40
0.2035433070866139
100
AcDbArc
 50
65.1121079736
 51
252.3995332141
  0
ARC
  5
370
330
1F
100
AcDbEntity
  8
PROFILES_OUTSIDE
100
AcDbCircle
 10
69.1601685067
 20
16.7960561588
 30
0.0
 40
0.0393700787401627
100
AcDbArc
 50
0.0
 51
72.3995332141
  0
ARC
  5
371
330
1F
100
AcDbEntity
  8
PROFILES_OUTSIDE
100
AcDbCircle
 10
65.7349716563
 20
17.1888192155
 30
0.0
 40
0.4724409448818889
100
AcDbArc
 50
180.0
 51
270.0
  0
ARC
  5
372
330
1F
100
AcDbEntity
  8
PROFILES_OUTSIDE
100
AcDbCircle
 10
64.7900897665
 20
21.1658368769
 30
0.0
 40
0.4724409448818854
100
AcDbArc
 50
0.0
 51
90.0
  0
ARC
  5
373
330
1F
100
AcDbEntity
  8
PROFILES_OUTSIDE
100
AcDbCircle
 10
63.7664677193
 20
21.1658368769
 30
0.0
 40
0.4724409448818889
100
AcDbArc
 50
90.0
 51
180.0
  0
ARC
  5
374
330
1F
100
AcDbEntity
  8
PROFILES_OUTSIDE
100
AcDbCircle
 10
62.8215858295
 20
17.1888192155
 30
0.0
 40
0.4724409448818889
100
AcDbArc
 50
270.0
 51
0.0
  0
ARC
  5
375
330
1F
100
AcDbEntity
  8
PROFILES_OUTSIDE
100
AcDbCircle
 10
59.3963889791
 20
16.7960561588
 30
0.0
 40
0.0393700787401627
100
AcDbArc
 50
107.6004667859
 51
180.0
  0
ARC
  5
376
330
1F
100
AcDbEntity
  8
PROFILES_OUTSIDE
100
AcDbCircle
 10
59.3229373988
 20
17.0275983329
 30
0.0
 40
0.2035433070866118
100
AcDbArc
 50
287.6004667859
 51
114.8878920264
  0
ARC
  5
377
330
1F
100
AcDbEntity
  8
PROFILES_OUTSIDE
100
AcDbCircle
 10
59.2207087278
 20
17.2479530738
 30
0.0
 40
0.0393700787401641
100
AcDbArc
 50
270.0
 51
294.8878920264
  0
ARC
  5
378
330
1F
100
AcDbEntity
  8
PROFILES_OUTSIDE
100
AcDbCircle
 10
58.8805640148
 20
17.1692129163
 30
0.0
 40
0.0393700787401592
100
AcDbArc
 50
90.0
 51
176.3380644245
  0
ARC
  5
379
330
1F
100
AcDbEntity
  8
PROFILES_OUTSIDE
100
AcDbCircle
 10
58.6089874043
 20
17.4644885068
 30
0.0
 40
0.2362204724409551
100
AcDbArc
 50
90.0
 51
180.0
  0
ARC
  5
37A
330
1F
100
AcDbEntity
  8
PROFILES_OUTSIDE
100
AcDbCircle
 10
70.1444204752
 20
30.7241241683
 30
0.0
 40
0.0393700787401627
100
AcDbArc
 50
0.0
 51
90.0
  0
ARC
  5
37B
330
1F
100
AcDbEntity
  8
PROFILES_OUTSIDE
100
AcDbCircle
 10
63.2940267744
 20
21.6382778218
 30
0.0
 40
0.75
100
AcDbArc
 50
120.0
 51
180.0
  0
ARC
  5
37C
330
1F
100
AcDbEntity
  8
PROFILES_OUTSIDE
100
AcDbCircle
 10
62.5440267744
 20
22.9373159275
 30
0.0
 40
0.75
100
AcDbArc
 50
300.0
 51
0.0
  0
ARC
  5
37D
330
1F
100
AcDbEntity
  8
PROFILES_OUTSIDE
100
AcDbCircle
 10
62.5440267744
 20
24.7886983224
 30
0.0
 40
0.75
100
AcDbArc
 50
0.0
 51
60.0
  0
ARC
  5
37E
330
1F
100
AcDbEntity
  8
PROFILES_OUTSIDE
100
AcDbCircle
 10
63.2940267744
 20
26.0877364281
 30
0.0
 40
0.75
100
AcDbArc
 50
180.0
 51
240.0
  0
ARC
  5
37F
330
1F
100
AcDbEntity
  8
PROFILES_OUTSIDE
100
AcDbCircle
 10
58.6089874043
 20
30.2615257431
 30
0.0
 40
0.236220472440948
100
AcDbArc
 50
180.0
 51
270.0
  0
ARC
  5
380
330
1F
100
AcDbEntity
  8
PROFILES_OUTSIDE
100
AcDbCircle
 10
66.4849716563
 20
29.5528643258
 30
0.0
 40
0.4724409448818889
100
AcDbArc
 50
90.0
 51
180.0
  0
ARC
  5
381
330
1F
100
AcDbEntity
  8
PROFILES_OUTSIDE
100
AcDbCircle
 10
58.8805640148
 20
30.5568013337
 30
0.0
 40
0.0393700787401592
100
AcDbArc
 50
183.6619355755
 51
270.0
  0
ARC
  5
382
330
1F
100
AcDbEntity
  8
PROFILES_OUTSIDE
100
AcDbCircle
 10
59.2207087278
 20
30.4780611762
 30
0.0
 40
0.0393700787401609
100
AcDbArc
 50
65.1121079736
 51
90.0
  0
ARC
  5
383
330
1F
100
AcDbEntity
  8
PROFILES_OUTSIDE
100
AcDbCircle
 10
59.3229373988
 20
30.6984159171
 30
0.0
 40
0.2035433070866173
100
AcDbArc
 50
245.1121079736
 51
72.3995332141
  0
ARC
  5
384
330
1F
100
AcDbEntity
  8
PROFILES_OUTSIDE
100
AcDbCircle
 10
59.3963889791
 20
30.9299580911
 30
0.0
 40
0.0393700787401627
100
AcDbArc
 50
180.0
 51
252.3995332141
  0
ARC
  5
385
330
1F
100
AcDbEntity
  8
PROFILES_OUTSIDE
100
AcDbCircle
 10
62.8215858295
 20
30.5371950344
 30
0.0
 40
0.4724409448818889
100
AcDbArc
 50
0.0
 51
90.0
  0
ARC
  5
386
330
1F
100
AcDbEntity
  8
PROFILES_OUTSIDE
100
AcDbCircle
 10
63.7664677193
 20
26.560177373
 30
0.0
 40
0.4724409448818925
100
AcDbArc
 50
180.0
 51
270.0
  0
ARC
  5
387
330
1F
100
AcDbEntity
  8
PROFILES_OUTSIDE
100
AcDbCircle
 10
64.7900897665
 20
26.560177373
 30
0.0
 40
0.472440944881896
100
AcDbArc
 50
270.0
 51
0.0
  0
ARC
  5
388
330
1F
100
AcDbEntity
  8
PROFILES_OUTSIDE
100
AcDbCircle
 10
65.7349716563
 20
30.5371950344
 30
0.0
 40
0.4724409448818889
100
AcDbArc
 50
90.0
 51
180.0
  0
ARC
  5
389
330
1F
100
AcDbEntity
  8
PROFILES_OUTSIDE
100
AcDbCircle
 10
69.1601685067
 20
30.9299580911
 30
0.0
 40
0.0393700787401627
100
AcDbArc
 50
287.6004667859
 51
0.0
  0
ARC
  5
38A
330
1F
100
AcDbEntity
  8
PROFILES_OUTSIDE
100
AcDbCircle
 10
69.233620087
 20
30.6984159171
 30
0.0
 40
0.2035433070866139
100
AcDbArc
 50
107.6004667859
 51
294.8878920264
  0
ARC
  5
38B
330
1F
100
AcDbEntity
  8
PROFILES_OUTSIDE
100
AcDbCircle
 10
69.335848758
 20
30.4780611762
 30
0.0
 40
0.0393700787401627
100
AcDbArc
 50
90.0
 51
114.8878920264
  0
ARC
  5
38C
330
1F
100
AcDbEntity
  8
PROFILES_OUTSIDE
100
AcDbCircle
 10
69.675993471
 20
30.5568013337
 30
0.0
 40
0.0393700787401556
100
AcDbArc
 50
270.0
 51
356.3380644245
  0
ARC
  5
38D
330
1F
100
AcDbEntity
  8
PROFILES_OUTSIDE
100
AcDbCircle
 10
69.9475700815
 20
30.2615257431
 30
0.0
 40
0.236220472440948
100
AcDbArc
 50
270.0
 51
0.0
  0
ARC
  5
38E
330
1F
100
AcDbEntity
  8
PROFILES_OUTSIDE
100
AcDbCircle
 10
66.4849716563
 20
18.1731499242
 30
0.0
 40
0.4724409448818854
100
AcDbArc
 50
180.0
 51
270.0
  0
ARC
  5
38F
330
1F
100
AcDbEntity
  8
PROFILES_OUTSIDE
100
AcDbCircle
 10
65.2625307114
 20
26.0877364281
 30
0.0
 40
0.75
100
AcDbArc
 50
300.0
 51
0.0
  0
ARC
  5
390
330
1F
100
AcDbEntity
  8
PROFILES_OUTSIDE
100
AcDbCircle
 10
66.0125307114
 20
24.7886983224
 30
0.0
 40
0.75
100
AcDbArc
 50
120.0
 51
180.0
  0
ARC
  5
391
330
1F
100
AcDbEntity
  8
PROFILES_OUTSIDE
100
AcDbCircle
 10
66.0125307114
 20
22.9373159275
 30
0.0
 40
0.7500000000000031
100
AcDbArc
 50
180.0
 51
240.0
  0
ARC
  5
392
330
1F
100
AcDbEntity
  8
PROFILES_OUTSIDE
100
AcDbCircle
 10
65.2625307114
 20
21.6382778218
 30
0.0
 40
0.75
100
AcDbArc
 50
0.0
 51
60.0
  0
ARC
  5
393
330
1F
100
AcDbEntity
  8
PROFILES_OUTSIDE
100
AcDbCircle
 10
69.9475700815
 20
17.4644885068
 30
0.0
 40
0.236220472440948
100
AcDbArc
 50
0.0
 51
90.0
  0
ARC
  5
394
330
1F
100
AcDbEntity
  8
PROFILES_OUTSIDE
100
AcDbCircle
 10
70.1444204752
 20
17.0018900816
 30
0.0
 40
0.0393700787401627
100
AcDbArc
 50
270.0
 51
0.0
  0
ENDSEC
  0
SECTION
  2
OBJECTS
  0
DICTIONARY
  5
C
330
0
100
AcDbDictionary
  3
ACAD_GROUP
350
D
  3
ACAD_MLINESTYLE
350
17
  3
ACAD_SCALELIST
350
47
  0
DICTIONARY
  5
D
102
{ACAD_REACTORS
330
C
102
}
330
C
100
AcDbDictionary
  0
DICTIONARY
  5
17
102
{ACAD_REACTORS
330
C
102
}
330
C
100
AcDbDictionary
  3
STANDARD
350
18
  0
DICTIONARY
  5
47
102
{ACAD_REACTORS
330
C
102
}
330
C
100
AcDbDictionary
  0
MLINESTYLE
  5
18
102
{ACAD_REACTORS
330
17
102
}
330
17
100
AcDbMlineStyle
  2
Standard
 70
     0
  3

 62
   256
 51
90.0
 52
90.0
 71
     2
 49
0.5
 62
   256
  6
BYLAYER
 49
-0.5
 62
   256
  6
BYLAYER
  0
ENDSEC
  0
EOF
