  0
SECTION
  2
HEADER
  9
$ACADVER
  1
AC1014
  9
$ACADMAINTVER
 70
     9
  9
$DWGCODEPAGE
  3
ANSI_1252
  9
$INSBASE
 10
0.0
 20
0.0
 30
0.0
  9
$EXTMIN
 10
0.0
 20
0.0
 30
0.0
  9
$EXTMAX
 10
2440.0
 20
1220.0
 30
0.0
  9
$LIMMIN
 10
0.0
 20
0.0
  9
$LIMMAX
 10
2440.0
 20
1220.0
  9
$ORTHOMODE
 70
     0
  9
$REGENMODE
 70
     1
  9
$FILLMODE
 70
     1
  9
$QTEXTMODE
 70
     0
  9
$MIRRTEXT
 70
     1
  9
$DRAGMODE
 70
     2
  9
$LTSCALE
 40
1.0
  9
$OSMODE
 70
    37
  9
$ATTMODE
 70
     1
  9
$TEXTSIZE
 40
3.5
  9
$TRACEWID
 40
1.0
  9
$TEXTSTYLE
  7
STANDARD
  9
$CLAYER
  8
0
  9
$CELTYPE
  6
BYLAYER
  9
$CECOLOR
 62
   256
  9
$CELTSCALE
 40
1.0
  9
$DELOBJ
 70
     1
  9
$DISPSILH
 70
     0
  9
$DIMSCALE
 40
1.0
  9
$DIMASZ
 40
3.302
  9
$DIMEXO
 40
1.0
  9
$DIMDLI
 40
3.75
  9
$DIMRND
 40
0.0
  9
$DIMDLE
 40
0.0
  9
$DIMEXE
 40
1.0
  9
$DIMTP
 40
0.0
  9
$DIMTM
 40
0.0
  9
$DIMTXT
 40
4.5861111111
  9
$DIMCEN
 40
2.5
  9
$DIMTSZ
 40
0.0
  9
$DIMTOL
 70
     0
  9
$DIMLIM
 70
     0
  9
$DIMTIH
 70
     1
  9
$DIMTOH
 70
     1
  9
$DIMSE1
 70
     0
  9
$DIMSE2
 70
     0
  9
$DIMTAD
 70
     1
  9
$DIMZIN
 70
     0
  9
$DIMBLK
  1

  9
$DIMASO
 70
     1
  9
$DIMSHO
 70
     1
  9
$DIMPOST
  1

  9
$DIMAPOST
  1

  9
$DIMALT
 70
     0
  9
$DIMALTD
 70
     3
  9
$DIMALTF
 40
0.0393700787
  9
$DIMLFAC
 40
1.0
  9
$DIMTOFL
 70
     1
  9
$DIMTVP
 40
0.0
  9
$DIMTIX
 70
     0
  9
$DIMSOXD
 70
     0
  9
$DIMSAH
 70
     0
  9
$DIMBLK1
  1

  9
$DIMBLK2
  1

  9
$DIMSTYLE
  2
ISO-25
  9
$DIMCLRD
 70
     0
  9
$DIMCLRE
 70
     0
  9
$DIMCLRT
 70
     0
  9
$DIMTFAC
 40
1.0
  9
$DIMGAP
 40
1.524
  9
$DIMJUST
 70
     0
  9
$DIMSD1
 70
     0
  9
$DIMSD2
 70
     0
  9
$DIMTOLJ
 70
     0
  9
$DIMTZIN
 70
     0
  9
$DIMALTZ
 70
     0
  9
$DIMALTTZ
 70
     0
  9
$DIMFIT
 70
     3
  9
$DIMUPT
 70
     0
  9
$DIMUNIT
 70
     2
  9
$DIMDEC
 70
     2
  9
$DIMTDEC
 70
     2
  9
$DIMALTU
 70
     2
  9
$DIMALTTD
 70
     3
  9
$DIMTXSTY
  7
STANDARD
  9
$DIMAUNIT
 70
     0
  9
$LUNITS
 70
     2
  9
$LUPREC
 70
     2
  9
$SKETCHINC
 40
1.0
  9
$FILLETRAD
 40
10.0
  9
$AUNITS
 70
     0
  9
$AUPREC
 70
     2
  9
$MENU
  1
.
  9
$ELEVATION
 40
0.0
  9
$PELEVATION
 40
0.0
  9
$THICKNESS
 40
0.0
  9
$LIMCHECK
 70
     0
  9
$CHAMFERA
 40
0.0
  9
$CHAMFERB
 40
0.0
  9
$CHAMFERC
 40
0.0
  9
$CHAMFERD
 40
0.0
  9
$SKPOLY
 70
     0
  9
$TDCREATE
 40
2457722.412402049
  9
$TDUPDATE
 40
2457722.412402419
  9
$TDINDWG
 40
0.0000000116
  9
$TDUSRTIMER
 40
0.0000000116
  9
$USRTIMER
 70
     1
  9
$ANGBASE
 50
0.0
  9
$ANGDIR
 70
     0
  9
$PDMODE
 70
     0
  9
$PDSIZE
 40
-1.0
  9
$PLINEWID
 40
0.0
  9
$COORDS
 70
     1
  9
$SPLFRAME
 70
     0
  9
$SPLINETYPE
 70
     6
  9
$SPLINESEGS
 70
     8
  9
$ATTDIA
 70
     0
  9
$ATTREQ
 70
     1
  9
$HANDLING
 70
     1
  9
$HANDSEED
  5
395
  9
$SURFTAB1
 70
     6
  9
$SURFTAB2
 70
     6
  9
$SURFTYPE
 70
     6
  9
$SURFU
 70
     6
  9
$SURFV
 70
     6
  9
$UCSNAME
  2

  9
$UCSORG
 10
0.0
 20
0.0
 30
0.0
  9
$UCSXDIR
 10
1.0
 20
0.0
 30
0.0
  9
$UCSYDIR
 10
0.0
 20
1.0
 30
0.0
  9
$PUCSNAME
  2

  9
$PUCSORG
 10
0.0
 20
0.0
 30
0.0
  9
$PUCSXDIR
 10
1.0
 20
0.0
 30
0.0
  9
$PUCSYDIR
 10
0.0
 20
1.0
 30
0.0
  9
$USERI1
 70
     0
  9
$USERI2
 70
     0
  9
$USERI3
 70
     0
  9
$USERI4
 70
     0
  9
$USERI5
 70
     0
  9
$USERR1
 40
0.0
  9
$USERR2
 40
0.0
  9
$USERR3
 40
0.0
  9
$USERR4
 40
0.0
  9
$USERR5
 40
0.0
  9
$WORLDVIEW
 70
     1
  9
$SHADEDGE
 70
     3
  9
$SHADEDIF
 70
    70
  9
$TILEMODE
 70
     1
  9
$MAXACTVP
 70
    64
  9
$PINSBASE
 10
0.0
 20
0.0
 30
0.0
  9
$PLIMCHECK
 70
     0
  9
$PEXTMIN
 10
1.0000000000E+20
 20
1.0000000000E+20
 30
1.0000000000E+20
  9
$PEXTMAX
 10
-1.0000000000E+20
 20
-1.0000000000E+20
 30
-1.0000000000E+20
  9
$PLIMMIN
 10
0.0
 20
0.0
  9
$PLIMMAX
 10
420.0
 20
297.0
  9
$UNITMODE
 70
     0
  9
$VISRETAIN
 70
     1
  9
$PLINEGEN
 70
     0
  9
$PSLTSCALE
 70
     1
  9
$TREEDEPTH
 70
  3020
  9
$PICKSTYLE
 70
     1
  9
$CMLSTYLE
  2
STANDARD
  9
$CMLJUST
 70
     0
  9
$CMLSCALE
 40
20.0
  9
$PROXYGRAPHICS
 70
     1
  9
$MEASUREMENT
 70
     1
  0
ENDSEC
  0
SECTION
  2
CLASSES
  0
CLASS
  1
ACDBDICTIONARYWDFLT
  2
AcDbDictionaryWithDefault
  3
ObjectDBX Classes
 90
        0
280
     0
281
     0
  0
CLASS
  1
VISUALSTYLE
  2
AcDbVisualStyle
  3
ObjectDBX Classes
 90
     4095
280
     0
281
     0
  0
CLASS
  1
MATERIAL
  2
AcDbMaterial
  3
ObjectDBX Classes
 90
     1153
280
     0
281
     0
  0
CLASS
  1
SCALE
  2
AcDbScale
  3
ObjectDBX Classes
 90
     1153
280
     0
281
     0
  0
CLASS
  1
TABLESTYLE
  2
AcDbTableStyle
  3
ObjectDBX Classes
 90
     4095
280
     0
281
     0
  0
CLASS
  1
MLEADERSTYLE
  2
AcDbMLeaderStyle
  3
ACDB_MLEADERSTYLE_CLASS
 90
     4095
280
     0
281
     0
  0
CLASS
  1
SUN
  2
AcDbSun
  3
SCENEOE
 90
     1153
280
     0
281
     0
  0
CLASS
  1
XRECORD
  2
AcDbXrecord
  3
ObjectDBX Classes
 90
        0
280
     0
281
     0
  0
CLASS
  1
LWPOLYLINE
  2
AcDbPolyline
  3
ObjectDBX Classes
 90
        0
280
     0
281
     1
  0
CLASS
  1
HATCH
  2
AcDbHatch
  3
ObjectDBX Classes
 90
        0
280
     0
281
     1
  0
ENDSEC
  0
SECTION
  2
TABLES
  0
TABLE
  2
VPORT
  5
8
330
0
100
AcDbSymbolTable
 70
     1
  0
VPORT
  5
29
330
8
100
AcDbSymbolTableRecord
100
AcDbViewportTableRecord
  2
*ACTIVE
 70
     0
 10
0.0
 20
0.0
 11
1.0
 21
1.0
 12
1220.0
 22
610.0
 13
0.0
 23
0.0
 14
10.0
 24
10.0
 15
10.0
 25
10.0
 16
0.0
 26
0.0
 36
1.0
 17
0.0
 27
0.0
 37
0.0
 40
1220.0
 41
2.0
 42
50.0
 43
0.0
 44
0.0
 50
0.0
 51
0.0
 71
     0
 72
  2000
 73
     1
 74
     3
 75
     0
 76
     0
 77
     0
 78
     0
  0
ENDTAB
  0
TABLE
  2
LTYPE
  5
5
330
0
100
AcDbSymbolTable
 70
     6
  0
LTYPE
  5
14
330
5
100
AcDbSymbolTableRecord
100
AcDbLinetypeTableRecord
  2
BYBLOCK
 70
     0
  3

 72
    65
 73
     0
 40
0.0
  0
LTYPE
  5
15
330
5
100
AcDbSymbolTableRecord
100
AcDbLinetypeTableRecord
  2
BYLAYER
 70
     0
  3

 72
    65
 73
     0
 40
0.0
  0
LTYPE
  5
16
330
5
100
AcDbSymbolTableRecord
100
AcDbLinetypeTableRecord
  2
CONTINUOUS
 70
     0
  3
Solid line
 72
    65
 73
     0
 40
0.0
  0
LTYPE
  5
6E
330
5
100
AcDbSymbolTableRecord
100
AcDbLinetypeTableRecord
  2
HIDDEN
 70
     0
  3
Hidden __ __ __ __ __ __ __ __ __ __ __ __ __ __
 72
    65
 73
     2
 40
1.905
 49
1.27
 74
     0
 49
-0.635
 74
     0
  0
LTYPE
  5
6F
330
5
100
AcDbSymbolTableRecord
100
AcDbLinetypeTableRecord
  2
PHANTOM
 70
     0
  3
Phantom ______  __  __  ______  __  __  ______
 72
    65
 73
     6
 40
12.7
 49
6.35
 74
     0
 49
-1.27
 74
     0
 49
1.27
 74
     0
 49
-1.27
 74
     0
 49
1.27
 74
     0
 49
-1.27
 74
     0
  0
LTYPE
  5
70
330
5
100
AcDbSymbolTableRecord
100
AcDbLinetypeTableRecord
  2
CENTER
 70
     0
  3
Center ____ _ ____ _ ____ _ ____ _ ____ _ ____
 72
    65
 73
     4
 40
10.16
 49
6.35
 74
     0
 49
-1.27
 74
     0
 49
1.27
 74
     0
 49
-1.27
 74
     0
  0
LTYPE
  5
71
330
5
100
AcDbSymbolTableRecord
100
AcDbLinetypeTableRecord
  2
CENTERX2
 70
     0
  3
Center (2x) ________  __  ________  __  _____
 72
    65
 73
     4
 40
20.32
 49
12.7
 74
     0
 49
-2.54
 74
     0
 49
2.54
 74
     0
 49
-2.54
 74
     0
  0
LTYPE
  5
72
330
5
100
AcDbSymbolTableRecord
100
AcDbLinetypeTableRecord
  2
DOT2
 70
     0
  3
Dot (.5x) ........................................
 72
    65
 73
     2
 40
0.635
 49
0.0
 74
     0
 49
-0.635
 74
     0
  0
ENDTAB
  0
TABLE
  2
LAYER
  5
2
330
0
100
AcDbSymbolTable
 70
     6
  0
LAYER
  5
10
330
2
100
AcDbSymbolTableRecord
100
AcDbLayerTableRecord
  2
0
 70
     0
 62
     7
  6
CONTINUOUS
  0
LAYER
  5
73
330
2
100
AcDbSymbolTableRecord
100
AcDbLayerTableRecord
  2
BOX_STOCK
 70
     0
 62
     1
  6
CONTINUOUS
  0
LAYER
  5
74
330
2
100
AcDbSymbolTableRecord
100
AcDbLayerTableRecord
  2
HOLES
 70
     0
 62
    30
  6
CONTINUOUS
  0
LAYER
  5
75
330
2
100
AcDbSymbolTableRecord
100
AcDbLayerTableRecord
  2
POCKETS
 70
     0
 62
   171
  6
CONTINUOUS
  0
LAYER
  5
76
330
2
100
AcDbSymbolTableRecord
100
AcDbLayerTableRecord
  2
PROFILES_OUTSIDE
 70
     0
 62
     6
  6
CONTINUOUS
  0
LAYER
  5
77
330
2
100
AcDbSymbolTableRecord
100
AcDbLayerTableRecord
  2
PROFILES_INSIDE
 70
     0
 62
     4
  6
CONTINUOUS
  0
ENDTAB
  0
TABLE
  2
STYLE
  5
3
330
0
100
AcDbSymbolTable
 70
     1
  0
STYLE
  5
11
330
3
100
AcDbSymbolTableRecord
100
AcDbTextStyleTableRecord
  2
STANDARD
 70
     0
 40
0.0
 41
1.0
 50
0.0
 71
     0
 42
3.5
  3
txt
  4

  0
ENDTAB
  0
TABLE
  2
VIEW
  5
6
330
0
100
AcDbSymbolTable
 70
     0
  0
ENDTAB
  0
TABLE
  2
UCS
  5
7
330
0
100
AcDbSymbolTable
 70
     0
  0
ENDTAB
  0
TABLE
  2
APPID
  5
9
330
0
100
AcDbSymbolTable
 70
     1
  0
APPID
  5
12
330
9
100
AcDbSymbolTableRecord
100
AcDbRegAppTableRecord
  2
ACAD
 70
     0
  0
ENDTAB
  0
TABLE
  2
DIMSTYLE
  5
A
330
0
100
AcDbSymbolTable
 70
     1
  0
DIMSTYLE
105
27
330
A
100
AcDbSymbolTableRecord
100
AcDbDimStyleTableRecord
  2
ISO-25
 70
     0
  3

  4

  5

  6

  7

 40
1.0
 41
2.5
 42
0.625
 43
3.75
 44
1.25
 45
0.0
 46
0.0
 47
0.0
 48
0.0
140
2.5
141
2.5
142
0.0
143
0.0393700787
144
1.0
145
0.0
146
1.0
147
0.625
 71
     0
 72
     0
 73
     0
 74
     0
 75
     0
 76
     0
 77
     1
 78
     8
170
     0
171
     3
172
     1
173
     0
174
     0
175
     0
176
     0
177
     0
178
     0
270
     2
271
     2
272
     2
273
     2
274
     3
340
11
275
     0
280
     0
281
     0
282
     0
283
     0
284
     8
285
     0
286
     0
287
     3
288
     0
  0
ENDTAB
  0
TABLE
  2
BLOCK_RECORD
  5
1
330
0
100
AcDbSymbolTable
 70
     1
  0
BLOCK_RECORD
  5
1F
330
1
100
AcDbSymbolTableRecord
100
AcDbBlockTableRecord
  2
*MODEL_SPACE
  0
BLOCK_RECORD
  5
1B
330
1
100
AcDbSymbolTableRecord
100
AcDbBlockTableRecord
  2
*PAPER_SPACE
  0
BLOCK_RECORD
  5
23
330
1
100
AcDbSymbolTableRecord
100
AcDbBlockTableRecord
  2
*PAPER_SPACE0
  0
ENDTAB
  0
ENDSEC
  0
SECTION
  2
BLOCKS
  0
BLOCK
  5
20
330
1F
100
AcDbEntity
  8
0
100
AcDbBlockBegin
  2
*MODEL_SPACE
 70
     0
 10
0.0
 20
0.0
 30
0.0
  3
*MODEL_SPACE
  1

  0
ENDBLK
  5
21
330
1F
100
AcDbEntity
  8
0
100
AcDbBlockEnd
  0
BLOCK
  5
1C
330
1B
100
AcDbEntity
 67
     1
  8
0
100
AcDbBlockBegin
  2
*PAPER_SPACE
 70
     0
 10
0.0
 20
0.0
 30
0.0
  3
*PAPER_SPACE
  1

  0
ENDBLK
  5
1D
330
1B
100
AcDbEntity
 67
     1
  8
0
100
AcDbBlockEnd
  0
BLOCK
  5
24
330
23
100
AcDbEntity
  8
0
100
AcDbBlockBegin
  2
*PAPER_SPACE0
 70
     0
 10
0.0
 20
0.0
 30
0.0
  3
*PAPER_SPACE0
  1

  0
ENDBLK
  5
25
330
23
100
AcDbEntity
  8
0
100
AcDbBlockEnd
  0
ENDSEC
  0
SECTION
  2
ENTITIES
  0
ARC
  5
78
330
1F
100
AcDbEntity
  8
0
  6
CONTINUOUS
 62
     7
100
AcDbCircle
 10
1773.8682800697
 20
767.3598902311
 30
0.0
 40
6.000000000000227
100
AcDbArc
 50
270.0
 51
0.0
  0
LINE
  5
79
330
1F
100
AcDbEntity
  8
0
  6
CONTINUOUS
 62
     7
100
AcDbLine
 10
1685.9182333778
 20
761.3599015892
 30
0.0
 11
1773.868224604
 21
761.3599015892
 31
0.0
  0
ARC
  5
7A
330
1F
100
AcDbEntity
  8
0
  6
CONTINUOUS
 62
     7
100
AcDbCircle
 10
1685.9182800697
 20
749.3598902311
 30
0.0
 40
12.0
100
AcDbArc
 50
90.0
 51
180.0
  0
LINE
  5
7B
330
1F
100
AcDbEntity
  8
0
  6
CONTINUOUS
 62
     7
100
AcDbLine
 10
1673.9182686638
 20
661.559434098
 30
0.0
 11
1673.9182686638
 21
749.3598772705
 31
0.0
  0
ARC
  5
7C
330
1F
100
AcDbEntity
  8
0
  6
CONTINUOUS
 62
     7
100
AcDbCircle
 10
1654.8682800697
 20
661.559452238
 30
0.0
 40
19.04999999999988
100
AcDbArc
 50
300.0
 51
0.0
  0
ARC
  5
7D
330
1F
100
AcDbEntity
  8
0
  6
CONTINUOUS
 62
     7
100
AcDbCircle
 10
1673.9182800697
 20
628.5638843539
 30
0.0
 40
19.04999999999992
100
AcDbArc
 50
120.0
 51
180.0
  0
LINE
  5
7E
330
1F
100
AcDbEntity
  8
0
  6
CONTINUOUS
 62
     7
100
AcDbLine
 10
1654.8682665657
 20
581.7525698364
 30
0.0
 11
1654.8682665657
 21
628.5639120758
 31
0.0
  0
ARC
  5
7F
330
1F
100
AcDbEntity
  8
0
  6
CONTINUOUS
 62
     7
100
AcDbCircle
 10
1673.9182800697
 20
581.7525821291
 30
0.0
 40
19.05
100
AcDbArc
 50
180.0
 51
240.0
  0
ARC
  5
80
330
1F
100
AcDbEntity
  8
0
  6
CONTINUOUS
 62
     7
100
AcDbCircle
 10
1654.8682800697
 20
548.757014245
 30
0.0
 40
19.04999999999995
100
AcDbArc
 50
0.0
 51
60.0
  0
LINE
  5
81
330
1F
100
AcDbEntity
  8
0
  6
CONTINUOUS
 62
     7
100
AcDbLine
 10
1673.9182686638
 20
460.9565748394
 30
0.0
 11
1673.9182686638
 21
548.7569882095
 31
0.0
  0
ARC
  5
82
330
1F
100
AcDbEntity
  8
0
  6
CONTINUOUS
 62
     7
100
AcDbCircle
 10
1685.9182800697
 20
460.9565762519
 30
0.0
 40
12.0
100
AcDbArc
 50
180.0
 51
270.0
  0
LINE
  5
83
330
1F
100
AcDbEntity
  8
0
  6
CONTINUOUS
 62
     7
100
AcDbLine
 10
1773.868224604
 20
448.956580323
 30
0.0
 11
1685.9182333778
 21
448.956580323
 31
0.0
  0
ARC
  5
84
330
1F
100
AcDbEntity
  8
0
  6
CONTINUOUS
 62
     7
100
AcDbCircle
 10
1773.8682800697
 20
442.9565762519
 30
0.0
 40
6.000000000000227
100
AcDbArc
 50
0.0
 51
90.0
  0
LINE
  5
85
330
1F
100
AcDbEntity
  8
0
  6
CONTINUOUS
 62
     7
100
AcDbLine
 10
1779.8682665657
 20
431.2065853298
 30
0.0
 11
1779.8682665657
 21
442.9565681637
 31
0.0
  0
ARC
  5
86
330
1F
100
AcDbEntity
  8
0
  6
CONTINUOUS
 62
     7
100
AcDbCircle
 10
1778.8682800697
 20
431.2065762519
 30
0.0
 40
1.000000000000227
100
AcDbArc
 50
270.0
 51
0.0
  0
LINE
  5
87
330
1F
100
AcDbEntity
  8
0
  6
CONTINUOUS
 62
     7
100
AcDbLine
 10
1778.8683390449
 20
430.2065684021
 30
0.0
 11
1767.6083063911
 21
430.2065684021
 31
0.0
  0
LINE
  5
88
330
1F
100
AcDbEntity
  8
0
  6
CONTINUOUS
 62
     7
100
AcDbLine
 10
1767.6083063911
 20
430.2065684021
 30
0.0
 11
1767.268202288
 21
435.5204416931
 31
0.0
  0
ARC
  5
89
330
1F
100
AcDbEntity
  8
0
  6
CONTINUOUS
 62
     7
100
AcDbCircle
 10
1766.2702341626
 20
435.4565762519
 30
0.0
 40
1.0
100
AcDbArc
 50
3.6619355755
 51
90.0
  0
LINE
  5
8A
330
1F
100
AcDbEntity
  8
0
  6
CONTINUOUS
 62
     7
100
AcDbLine
 10
1766.2701821159
 20
436.4565624416
 30
0.0
 11
1758.3306050132
 21
436.4565624416
 31
0.0
  0
ARC
  5
8B
330
1F
100
AcDbEntity
  8
0
  6
CONTINUOUS
 62
     7
100
AcDbCircle
 10
1758.3305584531
 20
437.4565762519
 30
0.0
 40
1.000000000000089
100
AcDbArc
 50
245.1121079736
 51
270.0
  0
ARC
  5
8C
330
1F
100
AcDbEntity
  8
0
  6
CONTINUOUS
 62
     7
100
AcDbCircle
 10
1755.7339502093
 20
431.8595658331
 30
0.0
 40
5.170000000000028
100
AcDbArc
 50
65.1121079736
 51
252.3995332141
  0
LINE
  5
8D
330
1F
100
AcDbEntity
  8
0
  6
CONTINUOUS
 62
     7
100
AcDbLine
 10
1754.8682904075
 20
423.954577607
 30
0.0
 11
1754.8682904075
 21
425.9783937157
 31
0.0
  0
LINE
  5
8E
330
1F
100
AcDbEntity
  8
0
  6
CONTINUOUS
 62
     7
100
AcDbLine
 10
1666.8682312797
 20
423.954577607
 30
0.0
 11
1754.8682904075
 21
423.954577607
 31
0.0
  0
ARC
  5
8F
330
1F
100
AcDbEntity
  8
0
  6
CONTINUOUS
 62
     7
100
AcDbCircle
 10
1666.8682800697
 20
435.9545762519
 30
0.0
 40
12.00000000000006
100
AcDbArc
 50
180.0
 51
270.0
  0
LINE
  5
90
330
1F
100
AcDbEntity
  8
0
  6
CONTINUOUS
 62
     7
100
AcDbLine
 10
1654.8682665657
 20
536.7570234955
 30
0.0
 11
1654.8682665657
 21
435.9545721233
 31
0.0
  0
ARC
  5
91
330
1F
100
AcDbEntity
  8
0
  6
CONTINUOUS
 62
     7
100
AcDbCircle
 10
1642.8682800697
 20
536.757014245
 30
0.0
 40
12.0
100
AcDbArc
 50
0.0
 51
90.0
  0
LINE
  5
92
330
1F
100
AcDbEntity
  8
0
  6
CONTINUOUS
 62
     7
100
AcDbLine
 10
1616.8682789634
 20
548.7569882095
 30
0.0
 11
1642.8683018516
 21
548.7569882095
 31
0.0
  0
ARC
  5
93
330
1F
100
AcDbEntity
  8
0
  6
CONTINUOUS
 62
     7
100
AcDbCircle
 10
1616.8682800697
 20
536.757014245
 30
0.0
 40
12.0
100
AcDbArc
 50
90.0
 51
180.0
  0
LINE
  5
94
330
1F
100
AcDbEntity
  8
0
  6
CONTINUOUS
 62
     7
100
AcDbLine
 10
1604.8683142494
 20
435.9545721233
 30
0.0
 11
1604.8683142494
 21
536.7570234955
 31
0.0
  0
LINE
  5
95
330
1F
100
AcDbEntity
  8
0
  6
CONTINUOUS
 62
     7
100
AcDbLine
 10
1504.8682904075
 20
423.954577607
 30
0.0
 11
1592.8682303261
 21
423.954577607
 31
0.0
  0
ARC
  5
96
330
1F
100
AcDbEntity
  8
0
  6
CONTINUOUS
 62
     7
100
AcDbCircle
 10
1505.8682800697
 20
425.9783946121
 30
0.0
 40
1.000000000000114
100
AcDbArc
 50
107.6004667859
 51
180.0
  0
ARC
  5
97
330
1F
100
AcDbEntity
  8
0
  6
CONTINUOUS
 62
     7
100
AcDbCircle
 10
1504.0026099301
 20
431.8595658331
 30
0.0
 40
5.169999999999925
100
AcDbArc
 50
287.6004667859
 51
114.8878920264
  0
ARC
  5
98
330
1F
100
AcDbEntity
  8
0
  6
CONTINUOUS
 62
     7
100
AcDbCircle
 10
1501.4060016863
 20
437.4565762519
 30
0.0
 40
1.00000000000014
100
AcDbArc
 50
270.0
 51
294.8878920264
  0
LINE
  5
99
330
1F
100
AcDbEntity
  8
0
  6
CONTINUOUS
 62
     7
100
AcDbLine
 10
1501.4059758018
 20
436.4565624416
 30
0.0
 11
1493.4662794899
 21
436.4565624416
 31
0.0
  0
ARC
  5
9A
330
1F
100
AcDbEntity
  8
0
  6
CONTINUOUS
 62
     7
100
AcDbCircle
 10
1493.4663259768
 20
435.4565762519
 30
0.0
 40
1.00000000000016
100
AcDbArc
 50
90.0
 51
176.3380644245
  0
LINE
  5
9B
330
1F
100
AcDbEntity
  8
0
  6
CONTINUOUS
 62
     7
100
AcDbLine
 10
1492.468378527
 20
435.5204416931
 30
0.0
 11
1492.128274424
 21
430.2065684021
 31
0.0
  0
LINE
  5
9C
330
1F
100
AcDbEntity
  8
0
  6
CONTINUOUS
 62
     7
100
AcDbLine
 10
1492.128274424
 20
430.2065684021
 30
0.0
 11
1480.8682417701
 21
430.2065684021
 31
0.0
  0
ARC
  5
9D
330
1F
100
AcDbEntity
  8
0
  6
CONTINUOUS
 62
     7
100
AcDbCircle
 10
1480.8682800697
 20
431.2065762519
 30
0.0
 40
1.0
100
AcDbArc
 50
180.0
 51
270.0
  0
LINE
  5
9E
330
1F
100
AcDbEntity
  8
0
  6
CONTINUOUS
 62
     7
100
AcDbLine
 10
1479.8683142494
 20
442.9565681637
 30
0.0
 11
1479.8683142494
 21
431.2065853298
 31
0.0
  0
ARC
  5
9F
330
1F
100
AcDbEntity
  8
0
  6
CONTINUOUS
 62
     7
100
AcDbCircle
 10
1485.8682800697
 20
442.9565762519
 30
0.0
 40
6.000000000000227
100
AcDbArc
 50
90.0
 51
180.0
  0
LINE
  5
A0
330
1F
100
AcDbEntity
  8
0
  6
CONTINUOUS
 62
     7
100
AcDbLine
 10
1573.818228228
 20
448.956580323
 30
0.0
 11
1485.8682370018
 21
448.956580323
 31
0.0
  0
ARC
  5
A1
330
1F
100
AcDbEntity
  8
0
  6
CONTINUOUS
 62
     7
100
AcDbCircle
 10
1573.8182800697
 20
460.9565762519
 30
0.0
 40
12.00000000000017
100
AcDbArc
 50
270.0
 51
0.0
  0
LINE
  5
A2
330
1F
100
AcDbEntity
  8
0
  6
CONTINUOUS
 62
     7
100
AcDbLine
 10
1585.8183121513
 20
548.7569882095
 30
0.0
 11
1585.8183121513
 21
460.9565748394
 31
0.0
  0
ARC
  5
A3
330
1F
100
AcDbEntity
  8
0
  6
CONTINUOUS
 62
     7
100
AcDbCircle
 10
1604.8682800697
 20
548.757014245
 30
0.0
 40
19.05000000000018
100
AcDbArc
 50
120.0
 51
180.0
  0
ARC
  5
A4
330
1F
100
AcDbEntity
  8
0
  6
CONTINUOUS
 62
     7
100
AcDbCircle
 10
1585.8182800697
 20
581.7525821291
 30
0.0
 40
19.05000000000018
100
AcDbArc
 50
300.0
 51
0.0
  0
LINE
  5
A5
330
1F
100
AcDbEntity
  8
0
  6
CONTINUOUS
 62
     7
100
AcDbLine
 10
1604.8683142494
 20
628.5639120758
 30
0.0
 11
1604.8683142494
 21
581.7525698364
 31
0.0
  0
ARC
  5
A6
330
1F
100
AcDbEntity
  8
0
  6
CONTINUOUS
 62
     7
100
AcDbCircle
 10
1585.8182800697
 20
628.5638843539
 30
0.0
 40
19.05000000000018
100
AcDbArc
 50
0.0
 51
60.0
  0
ARC
  5
A7
330
1F
100
AcDbEntity
  8
0
  6
CONTINUOUS
 62
     7
100
AcDbCircle
 10
1604.8682800697
 20
661.559452238
 30
0.0
 40
19.05000000000018
100
AcDbArc
 50
180.0
 51
240.0
  0
LINE
  5
A8
330
1F
100
AcDbEntity
  8
0
  6
CONTINUOUS
 62
     7
100
AcDbLine
 10
1585.8183121513
 20
749.3598772705
 30
0.0
 11
1585.8183121513
 21
661.559434098
 31
0.0
  0
ARC
  5
A9
330
1F
100
AcDbEntity
  8
0
  6
CONTINUOUS
 62
     7
100
AcDbCircle
 10
1573.8182800697
 20
749.3598902311
 30
0.0
 40
12.00000000000011
100
AcDbArc
 50
0.0
 51
90.0
  0
LINE
  5
AA
330
1F
100
AcDbEntity
  8
0
  6
CONTINUOUS
 62
     7
100
AcDbLine
 10
1485.8682370018
 20
761.3599015892
 30
0.0
 11
1573.818228228
 21
761.3599015892
 31
0.0
  0
ARC
  5
AB
330
1F
100
AcDbEntity
  8
0
  6
CONTINUOUS
 62
     7
100
AcDbCircle
 10
1485.8682800697
 20
767.3598902311
 30
0.0
 40
6.000000000000227
100
AcDbArc
 50
180.0
 51
270.0
  0
LINE
  5
AC
330
1F
100
AcDbEntity
  8
0
  6
CONTINUOUS
 62
     7
100
AcDbLine
 10
1479.8683142494
 20
779.1098667801
 30
0.0
 11
1479.8683142494
 21
767.3598839462
 31
0.0
  0
ARC
  5
AD
330
1F
100
AcDbEntity
  8
0
  6
CONTINUOUS
 62
     7
100
AcDbCircle
 10
1480.8682800697
 20
779.1098902311
 30
0.0
 40
1.0
100
AcDbArc
 50
90.0
 51
180.0
  0
LINE
  5
AE
330
1F
100
AcDbEntity
  8
0
  6
CONTINUOUS
 62
     7
100
AcDbLine
 10
1480.8682417701
 20
780.1099135101
 30
0.0
 11
1492.128274424
 21
780.1099135101
 31
0.0
  0
LINE
  5
AF
330
1F
100
AcDbEntity
  8
0
  6
CONTINUOUS
 62
     7
100
AcDbLine
 10
1492.128274424
 20
780.1099135101
 30
0.0
 11
1492.468378527
 21
774.7960402191
 31
0.0
  0
ARC
  5
B0
330
1F
100
AcDbEntity
  8
0
  6
CONTINUOUS
 62
     7
100
AcDbCircle
 10
1493.4663259768
 20
774.8598902311
 30
0.0
 40
1.000000000000156
100
AcDbArc
 50
183.6619355755
 51
270.0
  0
LINE
  5
B1
330
1F
100
AcDbEntity
  8
0
  6
CONTINUOUS
 62
     7
100
AcDbLine
 10
1493.4662794899
 20
773.8598896683
 30
0.0
 11
1501.4059758018
 21
773.8598896683
 31
0.0
  0
ARC
  5
B2
330
1F
100
AcDbEntity
  8
0
  6
CONTINUOUS
 62
     7
100
AcDbCircle
 10
1501.4060016863
 20
772.8598902311
 30
0.0
 40
1.000000000000037
100
AcDbArc
 50
65.1121079736
 51
90.0
  0
ARC
  5
B3
330
1F
100
AcDbEntity
  8
0
  6
CONTINUOUS
 62
     7
100
AcDbCircle
 10
1504.0026099301
 20
778.4569006499
 30
0.0
 40
5.170000000000002
100
AcDbArc
 50
245.1121079736
 51
72.3995332141
  0
ARC
  5
B4
330
1F
100
AcDbEntity
  8
0
  6
CONTINUOUS
 62
     7
100
AcDbCircle
 10
1505.8682800697
 20
784.3380718709
 30
0.0
 40
1.00000000000006
100
AcDbArc
 50
180.0
 51
252.3995332141
  0
LINE
  5
B5
330
1F
100
AcDbEntity
  8
0
  6
CONTINUOUS
 62
     7
100
AcDbLine
 10
1504.8682904075
 20
786.3619043053
 30
0.0
 11
1504.8682904075
 21
784.3380881966
 31
0.0
  0
LINE
  5
B6
330
1F
100
AcDbEntity
  8
0
  6
CONTINUOUS
 62
     7
100
AcDbLine
 10
1592.8682303261
 20
786.3619043053
 30
0.0
 11
1504.8682904075
 21
786.3619043053
 31
0.0
  0
ARC
  5
B7
330
1F
100
AcDbEntity
  8
0
  6
CONTINUOUS
 62
     7
100
AcDbCircle
 10
1592.8682800697
 20
774.3618902311
 30
0.0
 40
12.0
100
AcDbArc
 50
0.0
 51
90.0
  0
LINE
  5
B8
330
1F
100
AcDbEntity
  8
0
  6
CONTINUOUS
 62
     7
100
AcDbLine
 10
1604.8683142494
 20
673.5594584167
 30
0.0
 11
1604.8683142494
 21
774.3618799866
 31
0.0
  0
ARC
  5
B9
330
1F
100
AcDbEntity
  8
0
  6
CONTINUOUS
 62
     7
100
AcDbCircle
 10
1616.8682800697
 20
673.559452238
 30
0.0
 40
12.0
100
AcDbArc
 50
180.0
 51
270.0
  0
LINE
  5
BA
330
1F
100
AcDbEntity
  8
0
  6
CONTINUOUS
 62
     7
100
AcDbLine
 10
1642.8683018516
 20
661.559434098
 30
0.0
 11
1616.8682789634
 21
661.559434098
 31
0.0
  0
ARC
  5
BB
330
1F
100
AcDbEntity
  8
0
  6
CONTINUOUS
 62
     7
100
AcDbCircle
 10
1642.8682800697
 20
673.559452238
 30
0.0
 40
12.0
100
AcDbArc
 50
270.0
 51
0.0
  0
LINE
  5
BC
330
1F
100
AcDbEntity
  8
0
  6
CONTINUOUS
 62
     7
100
AcDbLine
 10
1654.8682665657
 20
774.3618799866
 30
0.0
 11
1654.8682665657
 21
673.5594584167
 31
0.0
  0
ARC
  5
BD
330
1F
100
AcDbEntity
  8
0
  6
CONTINUOUS
 62
     7
100
AcDbCircle
 10
1666.8682800697
 20
774.3618902311
 30
0.0
 40
12.0
100
AcDbArc
 50
90.0
 51
180.0
  0
LINE
  5
BE
330
1F
100
AcDbEntity
  8
0
  6
CONTINUOUS
 62
     7
100
AcDbLine
 10
1754.8682904075
 20
786.3619043053
 30
0.0
 11
1666.8682312797
 21
786.3619043053
 31
0.0
  0
LINE
  5
BF
330
1F
100
AcDbEntity
  8
0
  6
CONTINUOUS
 62
     7
100
AcDbLine
 10
1754.8682904075
 20
784.3380881966
 30
0.0
 11
1754.8682904075
 21
786.3619043053
 31
0.0
  0
ARC
  5
C0
330
1F
100
AcDbEntity
  8
0
  6
CONTINUOUS
 62
     7
100
AcDbCircle
 10
1753.8682800697
 20
784.3380718709
 30
0.0
 40
1.000000000000099
100
AcDbArc
 50
287.6004667859
 51
0.0
  0
ARC
  5
C1
330
1F
100
AcDbEntity
  8
0
  6
CONTINUOUS
 62
     7
100
AcDbCircle
 10
1755.7339502093
 20
778.4569006499
 30
0.0
 40
5.169999999999933
100
AcDbArc
 50
107.6004667859
 51
294.8878920264
  0
ARC
  5
C2
330
1F
100
AcDbEntity
  8
0
  6
CONTINUOUS
 62
     7
100
AcDbCircle
 10
1758.3305584531
 20
772.8598902311
 30
0.0
 40
1.000000000000236
100
AcDbArc
 50
90.0
 51
114.8878920264
  0
LINE
  5
C3
330
1F
100
AcDbEntity
  8
0
  6
CONTINUOUS
 62
     7
100
AcDbLine
 10
1758.3306050132
 20
773.8598896683
 30
0.0
 11
1766.2701821159
 21
773.8598896683
 31
0.0
  0
ARC
  5
C4
330
1F
100
AcDbEntity
  8
0
  6
CONTINUOUS
 62
     7
100
AcDbCircle
 10
1766.2702341626
 20
774.8598902311
 30
0.0
 40
1.0
100
AcDbArc
 50
270.0
 51
356.3380644245
  0
LINE
  5
C5
330
1F
100
AcDbEntity
  8
0
  6
CONTINUOUS
 62
     7
100
AcDbLine
 10
1767.268202288
 20
774.7960402191
 30
0.0
 11
1767.6083063911
 21
780.1099135101
 31
0.0
  0
LINE
  5
C6
330
1F
100
AcDbEntity
  8
0
  6
CONTINUOUS
 62
     7
100
AcDbLine
 10
1767.6083063911
 20
780.1099135101
 30
0.0
 11
1778.8683390449
 21
780.1099135101
 31
0.0
  0
ARC
  5
C7
330
1F
100
AcDbEntity
  8
0
  6
CONTINUOUS
 62
     7
100
AcDbCircle
 10
1778.8682800697
 20
779.1098902311
 30
0.0
 40
1.000000000000227
100
AcDbArc
 50
0.0
 51
90.0
  0
LINE
  5
C8
330
1F
100
AcDbEntity
  8
0
  6
CONTINUOUS
 62
     7
100
AcDbLine
 10
1779.8682665657
 20
767.3598839462
 30
0.0
 11
1779.8682665657
 21
779.1098667801
 31
0.0
  0
ARC
  5
C9
330
1F
100
AcDbEntity
  8
0
  6
CONTINUOUS
 62
     7
100
AcDbCircle
 10
1753.8682800697
 20
425.9783946121
 30
0.0
 40
1.000000000000045
100
AcDbArc
 50
0.0
 51
72.3995332141
  0
LINE
  5
CA
330
1F
100
AcDbEntity
  8
0
  6
CONTINUOUS
 62
     7
100
AcDbLine
 10
1504.8682904075
 20
425.9783937157
 30
0.0
 11
1504.8682904075
 21
423.954577607
 31
0.0
  0
ARC
  5
CB
330
1F
100
AcDbEntity
  8
0
  6
CONTINUOUS
 62
     7
100
AcDbCircle
 10
1592.8682800697
 20
435.9545762519
 30
0.0
 40
12.00000000000006
100
AcDbArc
 50
270.0
 51
0.0
  0
ARC
  5
CC
330
1F
100
AcDbEntity
  8
0
  6
CONTINUOUS
 62
     7
100
AcDbCircle
 10
1485.8682800697
 20
49.0732622726
 30
0.0
 40
6.000000000000227
100
AcDbArc
 50
90.0
 51
180.0
  0
LINE
  5
CD
330
1F
100
AcDbEntity
  8
0
  6
CONTINUOUS
 62
     7
100
AcDbLine
 10
1573.818228228
 20
55.073262614
 30
0.0
 11
1485.8682370018
 21
55.073262614
 31
0.0
  0
ARC
  5
CE
330
1F
100
AcDbEntity
  8
0
  6
CONTINUOUS
 62
     7
100
AcDbCircle
 10
1573.8182800697
 20
67.0732622726
 30
0.0
 40
12.0
100
AcDbArc
 50
270.0
 51
0.0
  0
LINE
  5
CF
330
1F
100
AcDbEntity
  8
0
  6
CONTINUOUS
 62
     7
100
AcDbLine
 10
1585.8183121513
 20
154.8737003029
 30
0.0
 11
1585.8183121513
 21
67.073264581
 31
0.0
  0
ARC
  5
D0
330
1F
100
AcDbEntity
  8
0
  6
CONTINUOUS
 62
     7
100
AcDbCircle
 10
1604.8682800697
 20
154.8737002657
 30
0.0
 40
19.04999999999995
100
AcDbArc
 50
120.0
 51
180.0
  0
ARC
  5
D1
330
1F
100
AcDbEntity
  8
0
  6
CONTINUOUS
 62
     7
100
AcDbCircle
 10
1585.8182800697
 20
187.8692681499
 30
0.0
 40
19.05000000000004
100
AcDbArc
 50
300.0
 51
0.0
  0
LINE
  5
D2
330
1F
100
AcDbEntity
  8
0
  6
CONTINUOUS
 62
     7
100
AcDbLine
 10
1604.8683142494
 20
234.6805645645
 30
0.0
 11
1604.8683142494
 21
187.8692670286
 31
0.0
  0
ARC
  5
D3
330
1F
100
AcDbEntity
  8
0
  6
CONTINUOUS
 62
     7
100
AcDbCircle
 10
1585.8182800697
 20
234.6805703746
 30
0.0
 40
19.05000000000018
100
AcDbArc
 50
0.0
 51
60.0
  0
ARC
  5
D4
330
1F
100
AcDbEntity
  8
0
  6
CONTINUOUS
 62
     7
100
AcDbCircle
 10
1604.8682800697
 20
267.6761382588
 30
0.0
 40
19.05000000000018
100
AcDbArc
 50
180.0
 51
240.0
  0
LINE
  5
D5
330
1F
100
AcDbEntity
  8
0
  6
CONTINUOUS
 62
     7
100
AcDbLine
 10
1585.8183121513
 20
355.4765893638
 30
0.0
 11
1585.8183121513
 21
267.6761461914
 31
0.0
  0
ARC
  5
D6
330
1F
100
AcDbEntity
  8
0
  6
CONTINUOUS
 62
     7
100
AcDbCircle
 10
1573.8182800697
 20
355.4765762519
 30
0.0
 40
12.0
100
AcDbArc
 50
0.0
 51
90.0
  0
LINE
  5
D7
330
1F
100
AcDbEntity
  8
0
  6
CONTINUOUS
 62
     7
100
AcDbLine
 10
1485.8682370018
 20
367.4765838802
 30
0.0
 11
1573.818228228
 21
367.4765838802
 31
0.0
  0
ARC
  5
D8
330
1F
100
AcDbEntity
  8
0
  6
CONTINUOUS
 62
     7
100
AcDbCircle
 10
1485.8682800697
 20
373.4765762519
 30
0.0
 40
6.000000000000227
100
AcDbArc
 50
180.0
 51
270.0
  0
LINE
  5
D9
330
1F
100
AcDbEntity
  8
0
  6
CONTINUOUS
 62
     7
100
AcDbLine
 10
1479.8683142494
 20
385.2265788734
 30
0.0
 11
1479.8683142494
 21
373.4765662372
 31
0.0
  0
ARC
  5
DA
330
1F
100
AcDbEntity
  8
0
  6
CONTINUOUS
 62
     7
100
AcDbCircle
 10
1480.8682800697
 20
385.2265762519
 30
0.0
 40
1.0
100
AcDbArc
 50
90.0
 51
180.0
  0
LINE
  5
DB
330
1F
100
AcDbEntity
  8
0
  6
CONTINUOUS
 62
     7
100
AcDbLine
 10
1480.8682417701
 20
386.2265659988
 30
0.0
 11
1492.128274424
 21
386.2265659988
 31
0.0
  0
LINE
  5
DC
330
1F
100
AcDbEntity
  8
0
  6
CONTINUOUS
 62
     7
100
AcDbLine
 10
1492.128274424
 20
386.2265659988
 30
0.0
 11
1492.468378527
 21
380.9126927078
 31
0.0
  0
ARC
  5
DD
330
1F
100
AcDbEntity
  8
0
  6
CONTINUOUS
 62
     7
100
AcDbCircle
 10
1493.4663259768
 20
380.9765762519
 30
0.0
 40
1.0
100
AcDbArc
 50
183.6619355755
 51
270.0
  0
LINE
  5
DE
330
1F
100
AcDbEntity
  8
0
  6
CONTINUOUS
 62
     7
100
AcDbLine
 10
1493.4662794899
 20
379.9765719593
 30
0.0
 11
1501.4059758018
 21
379.9765719593
 31
0.0
  0
ARC
  5
DF
330
1F
100
AcDbEntity
  8
0
  6
CONTINUOUS
 62
     7
100
AcDbCircle
 10
1501.4060016863
 20
378.9765762519
 30
0.0
 40
1.000000000000057
100
AcDbArc
 50
65.1121079736
 51
90.0
  0
ARC
  5
E0
330
1F
100
AcDbEntity
  8
0
  6
CONTINUOUS
 62
     7
100
AcDbCircle
 10
1504.0026099301
 20
384.5735866707
 30
0.0
 40
5.170000000000028
100
AcDbArc
 50
245.1121079736
 51
72.3995332141
  0
ARC
  5
E1
330
1F
100
AcDbEntity
  8
0
  6
CONTINUOUS
 62
     7
100
AcDbCircle
 10
1505.8682800697
 20
390.4547578916
 30
0.0
 40
1.000000000000227
100
AcDbArc
 50
180.0
 51
252.3995332141
  0
LINE
  5
E2
330
1F
100
AcDbEntity
  8
0
  6
CONTINUOUS
 62
     7
100
AcDbLine
 10
1504.8682904075
 20
392.4785865963
 30
0.0
 11
1504.8682904075
 21
390.4547704876
 31
0.0
  0
LINE
  5
E3
330
1F
100
AcDbEntity
  8
0
  6
CONTINUOUS
 62
     7
100
AcDbLine
 10
1592.8682303261
 20
392.4785865963
 30
0.0
 11
1504.8682904075
 21
392.4785865963
 31
0.0
  0
ARC
  5
E4
330
1F
100
AcDbEntity
  8
0
  6
CONTINUOUS
 62
     7
100
AcDbCircle
 10
1592.8682800697
 20
380.4785762519
 30
0.0
 40
12.0
100
AcDbArc
 50
0.0
 51
90.0
  0
LINE
  5
E5
330
1F
100
AcDbEntity
  8
0
  6
CONTINUOUS
 62
     7
100
AcDbLine
 10
1604.8683142494
 20
279.6761407078
 30
0.0
 11
1604.8683142494
 21
380.4785622776
 31
0.0
  0
ARC
  5
E6
330
1F
100
AcDbEntity
  8
0
  6
CONTINUOUS
 62
     7
100
AcDbCircle
 10
1616.8682800697
 20
279.6761382588
 30
0.0
 40
12.00000000000006
100
AcDbArc
 50
180.0
 51
270.0
  0
LINE
  5
E7
330
1F
100
AcDbEntity
  8
0
  6
CONTINUOUS
 62
     7
100
AcDbLine
 10
1642.8683018516
 20
267.6761461914
 30
0.0
 11
1616.8682789634
 21
267.6761461914
 31
0.0
  0
ARC
  5
E8
330
1F
100
AcDbEntity
  8
0
  6
CONTINUOUS
 62
     7
100
AcDbCircle
 10
1642.8682800697
 20
279.6761382588
 30
0.0
 40
12.00000000000006
100
AcDbArc
 50
270.0
 51
0.0
  0
LINE
  5
E9
330
1F
100
AcDbEntity
  8
0
  6
CONTINUOUS
 62
     7
100
AcDbLine
 10
1654.8682665657
 20
380.4785622776
 30
0.0
 11
1654.8682665657
 21
279.6761407078
 31
0.0
  0
ARC
  5
EA
330
1F
100
AcDbEntity
  8
0
  6
CONTINUOUS
 62
     7
100
AcDbCircle
 10
1666.8682800697
 20
380.4785762519
 30
0.0
 40
12.0
100
AcDbArc
 50
90.0
 51
180.0
  0
LINE
  5
EB
330
1F
100
AcDbEntity
  8
0
  6
CONTINUOUS
 62
     7
100
AcDbLine
 10
1754.8682904075
 20
392.4785865963
 30
0.0
 11
1666.8682312797
 21
392.4785865963
 31
0.0
  0
LINE
  5
EC
330
1F
100
AcDbEntity
  8
0
  6
CONTINUOUS
 62
     7
100
AcDbLine
 10
1754.8682904075
 20
390.4547704876
 30
0.0
 11
1754.8682904075
 21
392.4785865963
 31
0.0
  0
ARC
  5
ED
330
1F
100
AcDbEntity
  8
0
  6
CONTINUOUS
 62
     7
100
AcDbCircle
 10
1753.8682800697
 20
390.4547578916
 30
0.0
 40
1.000000000000045
100
AcDbArc
 50
287.6004667859
 51
0.0
  0
ARC
  5
EE
330
1F
100
AcDbEntity
  8
0
  6
CONTINUOUS
 62
     7
100
AcDbCircle
 10
1755.7339502093
 20
384.5735866707
 30
0.0
 40
5.169999999999925
100
AcDbArc
 50
107.6004667859
 51
294.8878920264
  0
ARC
  5
EF
330
1F
100
AcDbEntity
  8
0
  6
CONTINUOUS
 62
     7
100
AcDbCircle
 10
1758.3305584531
 20
378.9765762519
 30
0.0
 40
1.000000000000236
100
AcDbArc
 50
90.0
 51
114.8878920264
  0
LINE
  5
F0
330
1F
100
AcDbEntity
  8
0
  6
CONTINUOUS
 62
     7
100
AcDbLine
 10
1758.3306050132
 20
379.9765719593
 30
0.0
 11
1766.2701821159
 21
379.9765719593
 31
0.0
  0
ARC
  5
F1
330
1F
100
AcDbEntity
  8
0
  6
CONTINUOUS
 62
     7
100
AcDbCircle
 10
1766.2702341626
 20
380.9765762519
 30
0.0
 40
1.00000000000016
100
AcDbArc
 50
270.0
 51
356.3380644245
  0
LINE
  5
F2
330
1F
100
AcDbEntity
  8
0
  6
CONTINUOUS
 62
     7
100
AcDbLine
 10
1767.268202288
 20
380.9126927078
 30
0.0
 11
1767.6083063911
 21
386.2265659988
 31
0.0
  0
LINE
  5
F3
330
1F
100
AcDbEntity
  8
0
  6
CONTINUOUS
 62
     7
100
AcDbLine
 10
1767.6083063911
 20
386.2265659988
 30
0.0
 11
1778.8683390449
 21
386.2265659988
 31
0.0
  0
ARC
  5
F4
330
1F
100
AcDbEntity
  8
0
  6
CONTINUOUS
 62
     7
100
AcDbCircle
 10
1778.8682800697
 20
385.2265762519
 30
0.0
 40
1.0
100
AcDbArc
 50
0.0
 51
90.0
  0
LINE
  5
F5
330
1F
100
AcDbEntity
  8
0
  6
CONTINUOUS
 62
     7
100
AcDbLine
 10
1779.8682665657
 20
373.4765662372
 30
0.0
 11
1779.8682665657
 21
385.2265788734
 31
0.0
  0
ARC
  5
F6
330
1F
100
AcDbEntity
  8
0
  6
CONTINUOUS
 62
     7
100
AcDbCircle
 10
1773.8682800697
 20
373.4765762519
 30
0.0
 40
6.000000000000057
100
AcDbArc
 50
270.0
 51
0.0
  0
LINE
  5
F7
330
1F
100
AcDbEntity
  8
0
  6
CONTINUOUS
 62
     7
100
AcDbLine
 10
1685.9182333778
 20
367.4765838802
 30
0.0
 11
1773.868224604
 21
367.4765838802
 31
0.0
  0
ARC
  5
F8
330
1F
100
AcDbEntity
  8
0
  6
CONTINUOUS
 62
     7
100
AcDbCircle
 10
1685.9182800697
 20
355.4765762519
 30
0.0
 40
12.00000000000017
100
AcDbArc
 50
90.0
 51
180.0
  0
LINE
  5
F9
330
1F
100
AcDbEntity
  8
0
  6
CONTINUOUS
 62
     7
100
AcDbLine
 10
1673.9182686638
 20
267.6761461914
 30
0.0
 11
1673.9182686638
 21
355.4765893638
 31
0.0
  0
ARC
  5
FA
330
1F
100
AcDbEntity
  8
0
  6
CONTINUOUS
 62
     7
100
AcDbCircle
 10
1654.8682800697
 20
267.6761382588
 30
0.0
 40
19.04999999999995
100
AcDbArc
 50
300.0
 51
0.0
  0
ARC
  5
FB
330
1F
100
AcDbEntity
  8
0
  6
CONTINUOUS
 62
     7
100
AcDbCircle
 10
1673.9182800697
 20
234.6805703746
 30
0.0
 40
19.05000000000004
100
AcDbArc
 50
120.0
 51
180.0
  0
LINE
  5
FC
330
1F
100
AcDbEntity
  8
0
  6
CONTINUOUS
 62
     7
100
AcDbLine
 10
1654.8682665657
 20
187.8692670286
 30
0.0
 11
1654.8682665657
 21
234.6805645645
 31
0.0
  0
ARC
  5
FD
330
1F
100
AcDbEntity
  8
0
  6
CONTINUOUS
 62
     7
100
AcDbCircle
 10
1673.9182800697
 20
187.8692681499
 30
0.0
 40
19.05000000000001
100
AcDbArc
 50
180.0
 51
240.0
  0
ARC
  5
FE
330
1F
100
AcDbEntity
  8
0
  6
CONTINUOUS
 62
     7
100
AcDbCircle
 10
1654.8682800697
 20
154.8737002657
 30
0.0
 40
19.04999999999995
100
AcDbArc
 50
0.0
 51
60.0
  0
LINE
  5
FF
330
1F
100
AcDbEntity
  8
0
  6
CONTINUOUS
 62
     7
100
AcDbLine
 10
1673.9182686638
 20
67.073264581
 30
0.0
 11
1673.9182686638
 21
154.8737003029
 31
0.0
  0
ARC
  5
100
330
1F
100
AcDbEntity
  8
0
  6
CONTINUOUS
 62
     7
100
AcDbCircle
 10
1685.9182800697
 20
67.0732622726
 30
0.0
 40
12.00000000000006
100
AcDbArc
 50
180.0
 51
270.0
  0
LINE
  5
101
330
1F
100
AcDbEntity
  8
0
  6
CONTINUOUS
 62
     7
100
AcDbLine
 10
1773.868224604
 20
55.073262614
 30
0.0
 11
1685.9182333778
 21
55.073262614
 31
0.0
  0
ARC
  5
102
330
1F
100
AcDbEntity
  8
0
  6
CONTINUOUS
 62
     7
100
AcDbCircle
 10
1773.8682800697
 20
49.0732622726
 30
0.0
 40
6.0
100
AcDbArc
 50
0.0
 51
90.0
  0
LINE
  5
103
330
1F
100
AcDbEntity
  8
0
  6
CONTINUOUS
 62
     7
100
AcDbLine
 10
1779.8682665657
 20
37.3232638955
 30
0.0
 11
1779.8682665657
 21
49.0732616306
 31
0.0
  0
ARC
  5
104
330
1F
100
AcDbEntity
  8
0
  6
CONTINUOUS
 62
     7
100
AcDbCircle
 10
1778.8682800697
 20
37.3232622726
 30
0.0
 40
1.000000000000114
100
AcDbArc
 50
270.0
 51
0.0
  0
LINE
  5
105
330
1F
100
AcDbEntity
  8
0
  6
CONTINUOUS
 62
     7
100
AcDbLine
 10
1778.8683390449
 20
36.323261869
 30
0.0
 11
1767.6083063911
 21
36.323261869
 31
0.0
  0
LINE
  5
106
330
1F
100
AcDbEntity
  8
0
  6
CONTINUOUS
 62
     7
100
AcDbLine
 10
1767.6083063911
 20
36.323261869
 30
0.0
 11
1767.268202288
 21
41.6371314347
 31
0.0
  0
ARC
  5
107
330
1F
100
AcDbEntity
  8
0
  6
CONTINUOUS
 62
     7
100
AcDbCircle
 10
1766.2702341626
 20
41.5732622726
 30
0.0
 40
1.00000000000016
100
AcDbArc
 50
3.6619355755
 51
90.0
  0
LINE
  5
108
330
1F
100
AcDbEntity
  8
0
  6
CONTINUOUS
 62
     7
100
AcDbLine
 10
1766.2701821159
 20
42.5732633591
 30
0.0
 11
1758.3306050132
 21
42.5732633591
 31
0.0
  0
ARC
  5
109
330
1F
100
AcDbEntity
  8
0
  6
CONTINUOUS
 62
     7
100
AcDbCircle
 10
1758.3305584531
 20
43.5732622726
 30
0.0
 40
1.000000000000075
100
AcDbArc
 50
245.1121079736
 51
270.0
  0
ARC
  5
10A
330
1F
100
AcDbEntity
  8
0
  6
CONTINUOUS
 62
     7
100
AcDbCircle
 10
1755.7339502093
 20
37.9762518538
 30
0.0
 40
5.170000000000119
100
AcDbArc
 50
65.1121079736
 51
252.3995332141
  0
ARC
  5
10B
330
1F
100
AcDbEntity
  8
0
  6
CONTINUOUS
 62
     7
100
AcDbCircle
 10
1753.8682800697
 20
32.0950806329
 30
0.0
 40
0.9999999999999706
100
AcDbArc
 50
0.0
 51
72.3995332141
  0
LINE
  5
10C
330
1F
100
AcDbEntity
  8
0
  6
CONTINUOUS
 62
     7
100
AcDbLine
 10
1666.8682312797
 20
30.0712617606
 30
0.0
 11
1754.8682904075
 21
30.0712617606
 31
0.0
  0
ARC
  5
10D
330
1F
100
AcDbEntity
  8
0
  6
CONTINUOUS
 62
     7
100
AcDbCircle
 10
1666.8682800697
 20
42.0712622726
 30
0.0
 40
12.00000000000001
100
AcDbArc
 50
180.0
 51
270.0
  0
LINE
  5
10E
330
1F
100
AcDbEntity
  8
0
  6
CONTINUOUS
 62
     7
100
AcDbLine
 10
1654.8682665657
 20
142.8737057865
 30
0.0
 11
1654.8682665657
 21
42.0712618649
 31
0.0
  0
ARC
  5
10F
330
1F
100
AcDbEntity
  8
0
  6
CONTINUOUS
 62
     7
100
AcDbCircle
 10
1642.8682800697
 20
142.8737002657
 30
0.0
 40
12.0
100
AcDbArc
 50
0.0
 51
90.0
  0
LINE
  5
110
330
1F
100
AcDbEntity
  8
0
  6
CONTINUOUS
 62
     7
100
AcDbLine
 10
1616.8682789634
 20
154.8737003029
 30
0.0
 11
1642.8683018516
 21
154.8737003029
 31
0.0
  0
ARC
  5
111
330
1F
100
AcDbEntity
  8
0
  6
CONTINUOUS
 62
     7
100
AcDbCircle
 10
1616.8682800697
 20
142.8737002657
 30
0.0
 40
12.0
100
AcDbArc
 50
90.0
 51
180.0
  0
LINE
  5
112
330
1F
100
AcDbEntity
  8
0
  6
CONTINUOUS
 62
     7
100
AcDbLine
 10
1604.8683142494
 20
42.0712618649
 30
0.0
 11
1604.8683142494
 21
142.8737057865
 31
0.0
  0
ARC
  5
113
330
1F
100
AcDbEntity
  8
0
  6
CONTINUOUS
 62
     7
100
AcDbCircle
 10
1592.8682800697
 20
42.0712622726
 30
0.0
 40
12.00000000000001
100
AcDbArc
 50
270.0
 51
0.0
  0
ARC
  5
114
330
1F
100
AcDbEntity
  8
0
  6
CONTINUOUS
 62
     7
100
AcDbCircle
 10
1505.8682800697
 20
32.0950806329
 30
0.0
 40
1.000000000000227
100
AcDbArc
 50
107.6004667859
 51
180.0
  0
ARC
  5
115
330
1F
100
AcDbEntity
  8
0
  6
CONTINUOUS
 62
     7
100
AcDbCircle
 10
1504.0026099301
 20
37.9762518538
 30
0.0
 40
5.169999999999974
100
AcDbArc
 50
287.6004667859
 51
114.8878920264
  0
ARC
  5
116
330
1F
100
AcDbEntity
  8
0
  6
CONTINUOUS
 62
     7
100
AcDbCircle
 10
1501.4060016863
 20
43.5732622726
 30
0.0
 40
1.000000000000082
100
AcDbArc
 50
270.0
 51
294.8878920264
  0
LINE
  5
117
330
1F
100
AcDbEntity
  8
0
  6
CONTINUOUS
 62
     7
100
AcDbLine
 10
1501.4059758018
 20
42.5732633591
 30
0.0
 11
1493.4662794899
 21
42.5732633591
 31
0.0
  0
ARC
  5
118
330
1F
100
AcDbEntity
  8
0
  6
CONTINUOUS
 62
     7
100
AcDbCircle
 10
1493.4663259768
 20
41.5732622726
 30
0.0
 40
1.0
100
AcDbArc
 50
90.0
 51
176.3380644245
  0
LINE
  5
119
330
1F
100
AcDbEntity
  8
0
  6
CONTINUOUS
 62
     7
100
AcDbLine
 10
1492.468378527
 20
41.6371314347
 30
0.0
 11
1492.128274424
 21
36.323261869
 31
0.0
  0
LINE
  5
11A
330
1F
100
AcDbEntity
  8
0
  6
CONTINUOUS
 62
     7
100
AcDbLine
 10
1492.128274424
 20
36.323261869
 30
0.0
 11
1480.8682417701
 21
36.323261869
 31
0.0
  0
ARC
  5
11B
330
1F
100
AcDbEntity
  8
0
  6
CONTINUOUS
 62
     7
100
AcDbCircle
 10
1480.8682800697
 20
37.3232622726
 30
0.0
 40
1.000000000000114
100
AcDbArc
 50
180.0
 51
270.0
  0
LINE
  5
11C
330
1F
100
AcDbEntity
  8
0
  6
CONTINUOUS
 62
     7
100
AcDbLine
 10
1479.8683142494
 20
49.0732616306
 30
0.0
 11
1479.8683142494
 21
37.3232638955
 31
0.0
  0
LINE
  5
11D
330
1F
100
AcDbEntity
  8
0
  6
CONTINUOUS
 62
     7
100
AcDbLine
 10
1504.8682904075
 20
30.0712617606
 30
0.0
 11
1592.8682303261
 21
30.0712617606
 31
0.0
  0
LINE
  5
11E
330
1F
100
AcDbEntity
  8
0
  6
CONTINUOUS
 62
     7
100
AcDbLine
 10
1754.8682904075
 20
30.0712617606
 30
0.0
 11
1754.8682904075
 21
32.095079732
 31
0.0
  0
LINE
  5
11F
330
1F
100
AcDbEntity
  8
0
  6
CONTINUOUS
 62
     7
100
AcDbLine
 10
1504.8682904075
 20
32.095079732
 30
0.0
 11
1504.8682904075
 21
30.0712617606
 31
0.0
  0
ARC
  5
120
330
1F
100
AcDbEntity
  8
0
  6
CONTINUOUS
 62
     7
100
AcDbCircle
 10
829.3416994395
 20
872.2804347529
 30
0.0
 40
5.170000000000081
100
AcDbArc
 50
351.0551803913
 51
19.8879072801
  0
ARC
  5
121
330
1F
100
AcDbEntity
  8
0
  6
CONTINUOUS
 62
     7
100
AcDbCircle
 10
835.1437203052
 20
874.3793520628
 30
0.0
 40
0.9999999999999926
100
AcDbArc
 50
175.0
 51
199.8879072801
  0
LINE
  5
122
330
1F
100
AcDbEntity
  8
0
  6
CONTINUOUS
 62
     7
100
AcDbLine
 10
834.6194839309
 20
879.8613263786
 30
0.0
 11
834.1475343536
 21
874.46650998
 31
0.0
  0
ARC
  5
123
330
1F
100
AcDbEntity
  8
0
  6
CONTINUOUS
 62
     7
100
AcDbCircle
 10
835.6157529816
 20
879.7741735398
 30
0.0
 40
1.000046776821575
100
AcDbArc
 50
150.1122190803
 51
175.0
  0
ARC
  5
124
330
1F
100
AcDbEntity
  8
0
  6
CONTINUOUS
 62
     7
100
AcDbCircle
 10
830.2663036797
 20
882.8487254411
 30
0.0
 40
5.169999999999972
100
AcDbArc
 50
330.1122190803
 51
157.3995467073
  0
ARC
  5
125
330
1F
100
AcDbEntity
  8
0
  6
CONTINUOUS
 62
     7
100
AcDbCircle
 10
824.5701153991
 20
885.2198726471
 30
0.0
 40
1.000000000000056
100
AcDbArc
 50
265.0000647817
 51
337.3995467073
  0
LINE
  5
126
330
1F
100
AcDbEntity
  8
0
  6
CONTINUOUS
 62
     7
100
AcDbLine
 10
820.4547381233
 20
884.576113385
 30
0.0
 11
824.4829392265
 21
884.2236711204
 31
0.0
  0
ARC
  5
127
330
1F
100
AcDbEntity
  8
0
  6
CONTINUOUS
 62
     7
100
AcDbCircle
 10
820.5418655387
 20
885.5722942543
 30
0.0
 40
1.000001262015133
100
AcDbArc
 50
192.600480279
 51
265.0000647817
  0
ARC
  5
128
330
1F
100
AcDbEntity
  8
0
  6
CONTINUOUS
 62
     7
100
AcDbCircle
 10
814.5204704
 20
884.2262999808
 30
0.0
 40
5.169998737984807
100
AcDbArc
 50
12.600480279
 51
199.8878203283
  0
ARC
  5
129
330
1F
100
AcDbEntity
  8
0
  6
CONTINUOUS
 62
     7
100
AcDbCircle
 10
808.718450434
 20
882.1273929537
 30
0.0
 40
0.9999981800218227
100
AcDbArc
 50
355.0
 51
19.8878203283
  0
LINE
  5
12A
330
1F
100
AcDbEntity
  8
0
  6
CONTINUOUS
 62
     7
100
AcDbLine
 10
809.2426276039
 20
876.6454173744
 30
0.0
 11
809.7146367859
 21
882.040233773
 31
0.0
  0
ARC
  5
12B
330
1F
100
AcDbEntity
  8
0
  6
CONTINUOUS
 62
     7
100
AcDbCircle
 10
808.246462557
 20
876.7325468342
 30
0.0
 40
1.000000000000087
100
AcDbArc
 50
330.1121232273
 51
355.0
  0
ARC
  5
12C
330
1F
100
AcDbEntity
  8
0
  6
CONTINUOUS
 62
     7
100
AcDbCircle
 10
813.5958661598
 20
873.6580092926
 30
0.0
 40
5.170000000000042
100
AcDbArc
 50
150.1121232273
 51
178.944738049
  0
LINE
  5
12D
330
1F
100
AcDbEntity
  8
0
  6
CONTINUOUS
 62
     7
100
AcDbLine
 10
808.4267592262
 20
873.753221196
 30
0.0
 11
523.3783340286
 21
898.6917449653
 31
0.0
  0
ARC
  5
12E
330
1F
100
AcDbEntity
  8
0
  6
CONTINUOUS
 62
     7
100
AcDbCircle
 10
518.2712241404
 20
899.4955748992
 30
0.0
 40
5.170000000000027
100
AcDbArc
 50
351.0551803913
 51
19.8879072801
  0
ARC
  5
12F
330
1F
100
AcDbEntity
  8
0
  6
CONTINUOUS
 62
     7
100
AcDbCircle
 10
524.0732450061
 20
901.5944922091
 30
0.0
 40
1.000000000000031
100
AcDbArc
 50
175.0
 51
199.8879072801
  0
LINE
  5
130
330
1F
100
AcDbEntity
  8
0
  6
CONTINUOUS
 62
     7
100
AcDbLine
 10
523.5490417312
 20
907.0764495552
 30
0.0
 11
523.0770325493
 21
901.6816331566
 31
0.0
  0
ARC
  5
131
330
1F
100
AcDbEntity
  8
0
  6
CONTINUOUS
 62
     7
100
AcDbCircle
 10
524.5452776826
 20
906.9893136861
 30
0.0
 40
1.000046776821417
100
AcDbArc
 50
150.1122190803
 51
175.0
  0
ARC
  5
132
330
1F
100
AcDbEntity
  8
0
  6
CONTINUOUS
 62
     7
100
AcDbCircle
 10
519.1958283806
 20
910.0638655874
 30
0.0
 40
5.170000000000058
100
AcDbArc
 50
330.1122190803
 51
157.3995467073
  0
ARC
  5
133
330
1F
100
AcDbEntity
  8
0
  6
CONTINUOUS
 62
     7
100
AcDbCircle
 10
513.4996401
 20
912.4350127934
 30
0.0
 40
1.0000000000001
100
AcDbArc
 50
265.0000647817
 51
337.3995467073
  0
LINE
  5
134
330
1F
100
AcDbEntity
  8
0
  6
CONTINUOUS
 62
     7
100
AcDbLine
 10
509.3842363189
 20
911.7912365616
 30
0.0
 11
513.4124970268
 21
911.438794297
 31
0.0
  0
ARC
  5
135
330
1F
100
AcDbEntity
  8
0
  6
CONTINUOUS
 62
     7
100
AcDbCircle
 10
509.4713902396
 20
912.7874344006
 30
0.0
 40
1.000001262015189
100
AcDbArc
 50
192.600480279
 51
265.0000647817
  0
ARC
  5
136
330
1F
100
AcDbEntity
  8
0
  6
CONTINUOUS
 62
     7
100
AcDbCircle
 10
503.449995101
 20
911.4414401271
 30
0.0
 40
5.169998737984776
100
AcDbArc
 50
12.600480279
 51
199.8878203283
  0
ARC
  5
137
330
1F
100
AcDbEntity
  8
0
  6
CONTINUOUS
 62
     7
100
AcDbCircle
 10
497.6479751349
 20
909.3425331
 30
0.0
 40
0.9999981800219657
100
AcDbArc
 50
355.0
 51
19.8878203283
  0
LINE
  5
138
330
1F
100
AcDbEntity
  8
0
  6
CONTINUOUS
 62
     7
100
AcDbLine
 10
498.1721854042
 20
903.860540551
 30
0.0
 11
498.6441647838
 21
909.2553569496
 31
0.0
  0
ARC
  5
139
330
1F
100
AcDbEntity
  8
0
  6
CONTINUOUS
 62
     7
100
AcDbCircle
 10
497.175987258
 20
903.9476869804
 30
0.0
 40
0.9999999999999314
100
AcDbArc
 50
330.1121232273
 51
355.0
  0
ARC
  5
13A
330
1F
100
AcDbEntity
  8
0
  6
CONTINUOUS
 62
     7
100
AcDbCircle
 10
502.5253908608
 20
900.8731494389
 30
0.0
 40
5.17000000000017
100
AcDbArc
 50
150.1121232273
 51
178.944738049
  0
LINE
  5
13B
330
1F
100
AcDbEntity
  8
0
  6
CONTINUOUS
 62
     7
100
AcDbLine
 10
497.3562574218
 20
900.9683443725
 30
0.0
 11
459.4282722305
 21
904.2866541565
 31
0.0
  0
LINE
  5
13C
330
1F
100
AcDbEntity
  8
0
  6
CONTINUOUS
 62
     7
100
AcDbLine
 10
459.4282722305
 20
924.5006157577
 30
0.0
 11
459.4282722305
 21
904.2866541565
 31
0.0
  0
ARC
  5
13D
330
1F
100
AcDbEntity
  8
0
  6
CONTINUOUS
 62
     7
100
AcDbCircle
 10
465.4282800697
 20
924.5006188696
 30
0.0
 40
6.0
100
AcDbArc
 50
85.0
 51
180.0
  0
LINE
  5
13E
330
1F
100
AcDbEntity
  8
0
  6
CONTINUOUS
 62
     7
100
AcDbLine
 10
855.9512114357
 20
896.3572098434
 30
0.0
 11
465.9512257408
 21
930.4777695358
 31
0.0
  0
ARC
  5
13F
330
1F
100
AcDbEntity
  8
0
  6
CONTINUOUS
 62
     7
100
AcDbCircle
 10
855.4282800697
 20
890.3800400945
 30
0.0
 40
6.0
100
AcDbArc
 50
0.0
 51
85.0
  0
LINE
  5
140
330
1F
100
AcDbEntity
  8
0
  6
CONTINUOUS
 62
     7
100
AcDbLine
 10
861.4282822441
 20
869.116218251
 30
0.0
 11
861.4282822441
 21
890.3800560654
 31
0.0
  0
LINE
  5
141
330
1F
100
AcDbEntity
  8
0
  6
CONTINUOUS
 62
     7
100
AcDbLine
 10
861.4282822441
 20
869.116218251
 30
0.0
 11
834.4488358329
 21
871.4765621841
 31
0.0
  0
ARC
  5
142
330
1F
100
AcDbEntity
  8
0
  6
CONTINUOUS
 62
     7
100
AcDbCircle
 10
502.5253901233
 20
61.683771082
 30
0.0
 40
5.169998737984633
100
AcDbArc
 50
181.0551794268
 51
209.8878203283
  0
ARC
  5
143
330
1F
100
AcDbEntity
  8
0
  6
CONTINUOUS
 62
     7
100
AcDbCircle
 10
497.175987258
 20
58.609240975
 30
0.0
 40
0.9999981800219453
100
AcDbArc
 50
5.0
 51
29.8878203284
  0
LINE
  5
144
330
1F
100
AcDbEntity
  8
0
  6
CONTINUOUS
 62
     7
100
AcDbLine
 10
498.6441647838
 20
53.301551801
 30
0.0
 11
498.1721854042
 21
58.6963980019
 31
0.0
  0
ARC
  5
145
330
1F
100
AcDbEntity
  8
0
  6
CONTINUOUS
 62
     7
100
AcDbCircle
 10
497.6479751349
 20
53.2143948554
 30
0.0
 40
1.000000000000054
100
AcDbArc
 50
340.1121232273
 51
5.0
  0
ARC
  5
146
330
1F
100
AcDbEntity
  8
0
  6
CONTINUOUS
 62
     7
100
AcDbCircle
 10
503.4499971182
 20
51.1154806348
 30
0.0
 40
5.170000000000004
100
AcDbArc
 50
160.1121232273
 51
347.3995467073
  0
ARC
  5
147
330
1F
100
AcDbEntity
  8
0
  6
CONTINUOUS
 62
     7
100
AcDbCircle
 10
509.4713928908
 20
49.7694891974
 30
0.0
 40
1.000000000000107
100
AcDbArc
 50
95.0000647817
 51
167.3995467073
  0
LINE
  5
148
330
1F
100
AcDbEntity
  8
0
  6
CONTINUOUS
 62
     7
100
AcDbLine
 10
513.4124970268
 20
51.1181144536
 30
0.0
 11
509.3842363189
 21
50.7656833649
 31
0.0
  0
ARC
  5
149
330
1F
100
AcDbEntity
  8
0
  6
CONTINUOUS
 62
     7
100
AcDbCircle
 10
513.4996419543
 20
50.1219199137
 30
0.0
 40
1.000000000000155
100
AcDbArc
 50
22.600480279
 51
95.0000647817
  0
ARC
  5
14A
330
1F
100
AcDbEntity
  8
0
  6
CONTINUOUS
 62
     7
100
AcDbCircle
 10
519.195829118
 20
52.4930698026
 30
0.0
 40
5.169999999999982
100
AcDbArc
 50
202.600480279
 51
29.8879072801
  0
ARC
  5
14B
330
1F
100
AcDbEntity
  8
0
  6
CONTINUOUS
 62
     7
100
AcDbCircle
 10
524.5452310837
 20
55.5676101925
 30
0.0
 40
1.000000000000179
100
AcDbArc
 50
185.0
 51
209.8879072801
  0
LINE
  5
14C
330
1F
100
AcDbEntity
  8
0
  6
CONTINUOUS
 62
     7
100
AcDbLine
 10
523.0770325493
 20
60.8752793193
 30
0.0
 11
523.5490417312
 21
55.4804554701
 31
0.0
  0
ARC
  5
14D
330
1F
100
AcDbEntity
  8
0
  6
CONTINUOUS
 62
     7
100
AcDbCircle
 10
524.0732916049
 20
60.9624398232
 30
0.0
 40
1.000046776821536
100
AcDbArc
 50
160.1122190803
 51
185.0
  0
ARC
  5
14E
330
1F
100
AcDbEntity
  8
0
  6
CONTINUOUS
 62
     7
100
AcDbCircle
 10
518.2712221232
 20
63.0613602498
 30
0.0
 40
5.170000000000019
100
AcDbArc
 50
340.1122190803
 51
8.944738049
  0
LINE
  5
14F
330
1F
100
AcDbEntity
  8
0
  6
CONTINUOUS
 62
     7
100
AcDbLine
 10
523.3783340286
 20
63.8652010382
 30
0.0
 11
808.4267592262
 21
88.8037024558
 31
0.0
  0
ARC
  5
150
330
1F
100
AcDbEntity
  8
0
  6
CONTINUOUS
 62
     7
100
AcDbCircle
 10
813.5958654224
 20
88.8989112283
 30
0.0
 40
5.169998737984688
100
AcDbArc
 50
181.0551794268
 51
209.8878203283
  0
ARC
  5
151
330
1F
100
AcDbEntity
  8
0
  6
CONTINUOUS
 62
     7
100
AcDbCircle
 10
808.246462557
 20
85.8243811213
 30
0.0
 40
0.9999981800218802
100
AcDbArc
 50
5.0
 51
29.8878203283
  0
LINE
  5
152
330
1F
100
AcDbEntity
  8
0
  6
CONTINUOUS
 62
     7
100
AcDbLine
 10
809.7146367859
 20
80.5166898787
 30
0.0
 11
809.2426276039
 21
85.9115360797
 31
0.0
  0
ARC
  5
153
330
1F
100
AcDbEntity
  8
0
  6
CONTINUOUS
 62
     7
100
AcDbCircle
 10
808.718450434
 20
80.4295350017
 30
0.0
 40
1.00000000000011
100
AcDbArc
 50
340.1121232273
 51
5.0
  0
ARC
  5
154
330
1F
100
AcDbEntity
  8
0
  6
CONTINUOUS
 62
     7
100
AcDbCircle
 10
814.5204724173
 20
78.3306207811
 30
0.0
 40
5.169999999999981
100
AcDbArc
 50
160.1121232273
 51
347.3995467073
  0
ARC
  5
155
330
1F
100
AcDbEntity
  8
0
  6
CONTINUOUS
 62
     7
100
AcDbCircle
 10
820.5418681899
 20
76.9846293437
 30
0.0
 40
1.00000000000004
100
AcDbArc
 50
95.0000647817
 51
167.3995467073
  0
LINE
  5
156
330
1F
100
AcDbEntity
  8
0
  6
CONTINUOUS
 62
     7
100
AcDbLine
 10
824.4829392265
 20
78.3332525313
 30
0.0
 11
820.4547381233
 21
77.9808251679
 31
0.0
  0
ARC
  5
157
330
1F
100
AcDbEntity
  8
0
  6
CONTINUOUS
 62
     7
100
AcDbCircle
 10
824.5701172533
 20
77.33706006
 30
0.0
 40
1.000000000000026
100
AcDbArc
 50
22.600480279
 51
95.0000647817
  0
ARC
  5
158
330
1F
100
AcDbEntity
  8
0
  6
CONTINUOUS
 62
     7
100
AcDbCircle
 10
830.2663044171
 20
79.7082099489
 30
0.0
 40
5.170000000000006
100
AcDbArc
 50
202.600480279
 51
29.8879072801
  0
ARC
  5
159
330
1F
100
AcDbEntity
  8
0
  6
CONTINUOUS
 62
     7
100
AcDbCircle
 10
835.6157063828
 20
82.7827503388
 30
0.0
 40
0.9999999999999918
100
AcDbArc
 50
185.0
 51
209.8879072801
  0
LINE
  5
15A
330
1F
100
AcDbEntity
  8
0
  6
CONTINUOUS
 62
     7
100
AcDbLine
 10
834.1475343536
 20
88.0904211223
 30
0.0
 11
834.6194839309
 21
82.6955972731
 31
0.0
  0
ARC
  5
15B
330
1F
100
AcDbEntity
  8
0
  6
CONTINUOUS
 62
     7
100
AcDbCircle
 10
835.143766904
 20
88.1775799695
 30
0.0
 40
1.000046776821446
100
AcDbArc
 50
160.1122190803
 51
185.0
  0
ARC
  5
15C
330
1F
100
AcDbEntity
  8
0
  6
CONTINUOUS
 62
     7
100
AcDbCircle
 10
829.3416974222
 20
90.2765003961
 30
0.0
 40
5.169999999999982
100
AcDbArc
 50
340.1122190803
 51
8.944738049
  0
LINE
  5
15D
330
1F
100
AcDbEntity
  8
0
  6
CONTINUOUS
 62
     7
100
AcDbLine
 10
834.4488358329
 20
91.0803391159
 30
0.0
 11
861.4282822441
 21
93.4407352031
 31
0.0
  0
LINE
  5
15E
330
1F
100
AcDbEntity
  8
0
  6
CONTINUOUS
 62
     7
100
AcDbLine
 10
861.4282822441
 20
72.1768899382
 30
0.0
 11
861.4282822441
 21
93.4407352031
 31
0.0
  0
ARC
  5
15F
330
1F
100
AcDbEntity
  8
0
  6
CONTINUOUS
 62
     7
100
AcDbCircle
 10
855.4282800697
 20
72.176887861
 30
0.0
 40
6.000000000000004
100
AcDbArc
 50
275.0
 51
0.0
  0
LINE
  5
160
330
1F
100
AcDbEntity
  8
0
  6
CONTINUOUS
 62
     7
100
AcDbLine
 10
465.9512257408
 20
32.0791410774
 30
0.0
 11
855.9512114357
 21
66.1997212589
 31
0.0
  0
ARC
  5
161
330
1F
100
AcDbEntity
  8
0
  6
CONTINUOUS
 62
     7
100
AcDbCircle
 10
465.4282800697
 20
38.0563090859
 30
0.0
 40
6.000000000000063
100
AcDbArc
 50
180.0
 51
275.0
  0
LINE
  5
162
330
1F
100
AcDbEntity
  8
0
  6
CONTINUOUS
 62
     7
100
AcDbLine
 10
459.4282722305
 20
58.2702955723
 30
0.0
 11
459.4282722305
 21
38.056307894
 31
0.0
  0
LINE
  5
163
330
1F
100
AcDbEntity
  8
0
  6
CONTINUOUS
 62
     7
100
AcDbLine
 10
459.4282722305
 20
58.2702955723
 30
0.0
 11
497.3562574218
 21
61.5885643781
 31
0.0
  0
LINE
  5
164
330
1F
100
AcDbEntity
  8
0
  6
CONTINUOUS
 62
     7
100
AcDbLine
 10
856.4701890777
 20
815.0037838638
 30
0.0
 11
846.3863944839
 21
813.2257177055
 31
0.0
  0
ARC
  5
165
330
1F
100
AcDbEntity
  8
0
  6
CONTINUOUS
 62
     7
100
AcDbCircle
 10
847.4282800697
 20
807.3168897373
 30
0.0
 40
6.0
100
AcDbArc
 50
100.0
 51
180.0
  0
LINE
  5
166
330
1F
100
AcDbEntity
  8
0
  6
CONTINUOUS
 62
     7
100
AcDbLine
 10
841.4283013176
 20
807.3168708504
 30
0.0
 11
841.4283013176
 21
155.2400453508
 31
0.0
  0
ARC
  5
167
330
1F
100
AcDbEntity
  8
0
  6
CONTINUOUS
 62
     7
100
AcDbCircle
 10
847.4282800697
 20
155.2400382181
 30
0.0
 40
6.0
100
AcDbArc
 50
180.0
 51
260.0
  0
LINE
  5
168
330
1F
100
AcDbEntity
  8
0
  6
CONTINUOUS
 62
     7
100
AcDbLine
 10
846.3863944839
 20
149.3311984957
 30
0.0
 11
856.4701890777
 21
147.5531472385
 31
0.0
  0
ARC
  5
169
330
1F
100
AcDbEntity
  8
0
  6
CONTINUOUS
 62
     7
100
AcDbCircle
 10
855.4282800697
 20
141.6443030298
 30
0.0
 40
6.000000000000026
100
AcDbArc
 50
0.0
 51
80.0
  0
LINE
  5
16A
330
1F
100
AcDbEntity
  8
0
  6
CONTINUOUS
 62
     7
100
AcDbLine
 10
861.4282822441
 20
106.1691729844
 30
0.0
 11
861.4282822441
 21
141.6443003834
 31
0.0
  0
LINE
  5
16B
330
1F
100
AcDbEntity
  8
0
  6
CONTINUOUS
 62
     7
100
AcDbLine
 10
861.4282822441
 20
106.1691729844
 30
0.0
 11
821.4282607864
 21
102.6696278274
 31
0.0
  0
LINE
  5
16C
330
1F
100
AcDbEntity
  8
0
  6
CONTINUOUS
 62
     7
100
AcDbLine
 10
821.4282607864
 20
102.6696278274
 30
0.0
 11
821.4282607864
 21
859.8872734726
 31
0.0
  0
LINE
  5
16D
330
1F
100
AcDbEntity
  8
0
  6
CONTINUOUS
 62
     7
100
AcDbLine
 10
821.4282607864
 20
859.8872734726
 30
0.0
 11
861.4282822441
 21
856.3877655685
 31
0.0
  0
ARC
  5
16E
330
1F
100
AcDbEntity
  8
0
  6
CONTINUOUS
 62
     7
100
AcDbCircle
 10
855.4282800697
 20
820.9126249256
 30
0.0
 40
6.0
100
AcDbArc
 50
280.0
 51
0.0
  0
LINE
  5
16F
330
1F
100
AcDbEntity
  8
0
  6
CONTINUOUS
 62
     7
100
AcDbLine
 10
861.4282822441
 20
820.912630719
 30
0.0
 11
861.4282822441
 21
856.3877655685
 31
0.0
  0
LINE
  5
170
330
1F
100
AcDbEntity
  8
0
  6
CONTINUOUS
 62
     7
100
AcDbLine
 10
459.4282722305
 20
891.558201474
 30
0.0
 11
459.4282722305
 21
70.9987296284
 31
0.0
  0
LINE
  5
171
330
1F
100
AcDbEntity
  8
0
  6
CONTINUOUS
 62
     7
100
AcDbLine
 10
809.0882515739
 20
860.9668924034
 30
0.0
 11
809.0882515739
 21
101.5900163472
 31
0.0
  0
LINE
  5
172
330
1F
100
AcDbEntity
  8
0
  6
CONTINUOUS
 62
     7
100
AcDbLine
 10
809.0882515739
 20
101.5900163472
 30
0.0
 11
459.4282722305
 21
70.9987296284
 31
0.0
  0
LINE
  5
173
330
1F
100
AcDbEntity
  8
0
  6
CONTINUOUS
 62
     7
100
AcDbLine
 10
459.4282722305
 20
891.558201474
 30
0.0
 11
809.0882515739
 21
860.9668924034
 31
0.0
  0
ARC
  5
174
330
1F
100
AcDbEntity
  8
0
  6
CONTINUOUS
 62
     7
100
AcDbCircle
 10
823.3203016496
 20
91.6224918335
 30
0.0
 40
1.000000000000006
100
AcDbArc
 50
275.0000647817
 51
347.3995467073
  0
LINE
  5
175
330
1F
100
AcDbEntity
  8
0
  6
CONTINUOUS
 62
     7
100
AcDbLine
 10
823.4074330162
 20
90.6263007343
 30
0.0
 11
819.379231913
 21
90.2738659203
 31
0.0
  0
ARC
  5
176
330
1F
100
AcDbEntity
  8
0
  6
CONTINUOUS
 62
     7
100
AcDbCircle
 10
819.2920525862
 20
91.2700611172
 30
0.0
 40
1.000000000000026
100
AcDbArc
 50
202.600480279
 51
275.0000647817
  0
ARC
  5
177
330
1F
100
AcDbEntity
  8
0
  6
CONTINUOUS
 62
     7
100
AcDbCircle
 10
512.2498263506
 20
64.4073516873
 30
0.0
 40
1.000000000000117
100
AcDbArc
 50
275.0000647817
 51
347.3995467073
  0
LINE
  5
178
330
1F
100
AcDbEntity
  8
0
  6
CONTINUOUS
 62
     7
100
AcDbLine
 10
512.3369908165
 20
63.4111589313
 30
0.0
 11
508.3087301086
 21
63.0587278426
 31
0.0
  0
ARC
  5
179
330
1F
100
AcDbEntity
  8
0
  6
CONTINUOUS
 62
     7
100
AcDbCircle
 10
508.2215772871
 20
64.0549209709
 30
0.0
 40
1.00000000000021
100
AcDbArc
 50
202.600480279
 51
275.0000647817
  0
ARC
  5
17A
330
1F
100
AcDbEntity
  8
0
  6
CONTINUOUS
 62
     7
100
AcDbCircle
 10
508.2215791413
 20
898.5020022329
 30
0.0
 40
1.0000000000001
100
AcDbArc
 50
85.0000647817
 51
157.3995467073
  0
LINE
  5
17B
330
1F
100
AcDbEntity
  8
0
  6
CONTINUOUS
 62
     7
100
AcDbLine
 10
508.3087301086
 20
899.4981958092
 30
0.0
 11
512.3369908165
 21
899.1457535446
 31
0.0
  0
ARC
  5
17C
330
1F
100
AcDbEntity
  8
0
  6
CONTINUOUS
 62
     7
100
AcDbCircle
 10
512.2498290017
 20
898.1495806257
 30
0.0
 40
1.000000000000083
100
AcDbArc
 50
12.600480279
 51
85.0000647817
  0
ARC
  5
17D
330
1F
100
AcDbEntity
  8
0
  6
CONTINUOUS
 62
     7
100
AcDbCircle
 10
819.2920544404
 20
871.2868620866
 30
0.0
 40
1.000000000000012
100
AcDbArc
 50
85.0000647817
 51
157.3995467073
  0
LINE
  5
17E
330
1F
100
AcDbEntity
  8
0
  6
CONTINUOUS
 62
     7
100
AcDbLine
 10
819.379231913
 20
872.2830726326
 30
0.0
 11
823.4074330162
 21
871.930630368
 31
0.0
  0
ARC
  5
17F
330
1F
100
AcDbEntity
  8
0
  6
CONTINUOUS
 62
     7
100
AcDbCircle
 10
823.3203043008
 20
870.9344404794
 30
0.0
 40
0.9999999999999647
100
AcDbArc
 50
12.600480279
 51
85.0000647817
  0
LINE
  5
180
330
1F
100
AcDbEntity
  8
0
  6
CONTINUOUS
 62
     7
100
AcDbLine
 10
459.4282722305
 20
891.558201474
 30
0.0
 11
459.4282722305
 21
904.2866541565
 31
0.0
  0
LINE
  5
181
330
1F
100
AcDbEntity
  8
0
  6
CONTINUOUS
 62
     7
100
AcDbLine
 10
459.4282722305
 20
58.2702955723
 30
0.0
 11
459.4282722305
 21
70.9987296284
 31
0.0
  0
ARC
  5
182
330
1F
100
AcDbEntity
  8
0
  6
CONTINUOUS
 62
     7
100
AcDbCircle
 10
813.5958654224
 20
88.8989112283
 30
0.0
 40
5.170000000000001
100
AcDbArc
 50
22.600480279
 51
181.0551794268
  0
ARC
  5
183
330
1F
100
AcDbEntity
  8
0
  6
CONTINUOUS
 62
     7
100
AcDbCircle
 10
813.5958661598
 20
873.6580092926
 30
0.0
 40
5.170000000000042
100
AcDbArc
 50
178.944738049
 51
337.3995467073
  0
ARC
  5
184
330
1F
100
AcDbEntity
  8
0
  6
CONTINUOUS
 62
     7
100
AcDbCircle
 10
829.3416974222
 20
90.2765003961
 30
0.0
 40
5.169999999999994
100
AcDbArc
 50
8.944738049
 51
167.3995467073
  0
ARC
  5
185
330
1F
100
AcDbEntity
  8
0
  6
CONTINUOUS
 62
     7
100
AcDbCircle
 10
829.3416994395
 20
872.2804347529
 30
0.0
 40
5.169999999999968
100
AcDbArc
 50
192.600480279
 51
351.0551803913
  0
LINE
  5
186
330
1F
100
AcDbEntity
  8
0
  6
CONTINUOUS
 62
     7
100
AcDbLine
 10
861.4282822441
 20
106.1691729844
 30
0.0
 11
861.4282822441
 21
93.4407352031
 31
0.0
  0
LINE
  5
187
330
1F
100
AcDbEntity
  8
0
  6
CONTINUOUS
 62
     7
100
AcDbLine
 10
861.4282822441
 20
869.116218251
 30
0.0
 11
861.4282822441
 21
856.3877655685
 31
0.0
  0
ARC
  5
188
330
1F
100
AcDbEntity
  8
0
  6
CONTINUOUS
 62
     7
100
AcDbCircle
 10
518.2712221232
 20
63.0613602498
 30
0.0
 40
5.170000000000019
100
AcDbArc
 50
8.944738049
 51
167.3995467073
  0
ARC
  5
189
330
1F
100
AcDbEntity
  8
0
  6
CONTINUOUS
 62
     7
100
AcDbCircle
 10
518.2712241404
 20
899.4955748992
 30
0.0
 40
5.170000000000027
100
AcDbArc
 50
192.600480279
 51
351.0551803913
  0
ARC
  5
18A
330
1F
100
AcDbEntity
  8
0
  6
CONTINUOUS
 62
     7
100
AcDbCircle
 10
502.5253901233
 20
61.683771082
 30
0.0
 40
5.169999999999874
100
AcDbArc
 50
22.600480279
 51
181.0551794268
  0
ARC
  5
18B
330
1F
100
AcDbEntity
  8
0
  6
CONTINUOUS
 62
     7
100
AcDbCircle
 10
502.5253908608
 20
900.8731494389
 30
0.0
 40
5.170000000000057
100
AcDbArc
 50
178.944738049
 51
337.3995467073
  0
ARC
  5
18C
330
1F
100
AcDbEntity
  8
0
  6
CONTINUOUS
 62
     7
100
AcDbCircle
 10
421.9482800697
 20
72.176887861
 30
0.0
 40
6.0
100
AcDbArc
 50
275.0
 51
0.0
  0
LINE
  5
18D
330
1F
100
AcDbEntity
  8
0
  6
CONTINUOUS
 62
     7
100
AcDbLine
 10
422.4712169002
 20
66.1997212589
 30
0.0
 11
32.4712163042
 21
32.0791410774
 31
0.0
  0
ARC
  5
18E
330
1F
100
AcDbEntity
  8
0
  6
CONTINUOUS
 62
     7
100
AcDbCircle
 10
31.9482800697
 20
38.0563090859
 30
0.0
 40
6.000000000000227
100
AcDbArc
 50
180.0
 51
275.0
  0
LINE
  5
18F
330
1F
100
AcDbEntity
  8
0
  6
CONTINUOUS
 62
     7
100
AcDbLine
 10
25.9482795577
 20
38.056307894
 30
0.0
 11
25.9482795577
 21
58.2702955723
 31
0.0
  0
LINE
  5
190
330
1F
100
AcDbEntity
  8
0
  6
CONTINUOUS
 62
     7
100
AcDbLine
 10
63.7322208117
 20
61.575961721
 30
0.0
 11
25.9482795577
 21
58.2702955723
 31
0.0
  0
ARC
  5
191
330
1F
100
AcDbEntity
  8
0
  6
CONTINUOUS
 62
     7
100
AcDbCircle
 10
68.90134037
 20
61.6711683616
 30
0.0
 40
5.169998737984834
100
AcDbArc
 50
181.0551794268
 51
209.8878203283
  0
ARC
  5
192
330
1F
100
AcDbEntity
  8
0
  6
CONTINUOUS
 62
     7
100
AcDbCircle
 10
63.5519375046
 20
58.5966382546
 30
0.0
 40
0.9999981800218506
100
AcDbArc
 50
5.0
 51
29.8878203283
  0
LINE
  5
193
330
1F
100
AcDbEntity
  8
0
  6
CONTINUOUS
 62
     7
100
AcDbLine
 10
65.0201207231
 20
53.2889491439
 30
0.0
 11
64.5481338929
 21
58.6837953449
 31
0.0
  0
ARC
  5
194
330
1F
100
AcDbEntity
  8
0
  6
CONTINUOUS
 62
     7
100
AcDbCircle
 10
64.0239253816
 20
53.201792135
 30
0.0
 40
0.9999999999999339
100
AcDbArc
 50
340.1121232273
 51
5.0
  0
ARC
  5
195
330
1F
100
AcDbEntity
  8
0
  6
CONTINUOUS
 62
     7
100
AcDbCircle
 10
69.8259473648
 20
51.1028779144
 30
0.0
 40
5.170000000000011
100
AcDbArc
 50
160.1121232273
 51
347.3995467073
  0
ARC
  5
196
330
1F
100
AcDbEntity
  8
0
  6
CONTINUOUS
 62
     7
100
AcDbCircle
 10
75.8473431374
 20
49.756886477
 30
0.0
 40
1.000000000000151
100
AcDbArc
 50
95.0000647817
 51
167.3995467073
  0
LINE
  5
197
330
1F
100
AcDbEntity
  8
0
  6
CONTINUOUS
 62
     7
100
AcDbLine
 10
79.7884380649
 20
51.1055117965
 30
0.0
 11
75.7601848077
 21
50.7530807078
 31
0.0
  0
ARC
  5
198
330
1F
100
AcDbEntity
  8
0
  6
CONTINUOUS
 62
     7
100
AcDbCircle
 10
79.8755922009
 20
50.1093171933
 30
0.0
 40
0.9999999999999408
100
AcDbArc
 50
22.600480279
 51
95.0000647817
  0
ARC
  5
199
330
1F
100
AcDbEntity
  8
0
  6
CONTINUOUS
 62
     7
100
AcDbCircle
 10
85.5717793647
 20
52.4804670822
 30
0.0
 40
5.170000000000144
100
AcDbArc
 50
202.600480279
 51
29.8879072801
  0
ARC
  5
19A
330
1F
100
AcDbEntity
  8
0
  6
CONTINUOUS
 62
     7
100
AcDbCircle
 10
90.9211813304
 20
55.5550074721
 30
0.0
 40
0.9999999999998962
100
AcDbArc
 50
185.0
 51
209.8879072801
  0
LINE
  5
19B
330
1F
100
AcDbEntity
  8
0
  6
CONTINUOUS
 62
     7
100
AcDbLine
 10
89.4530033897
 20
60.8626766622
 30
0.0
 11
89.9249902199
 21
55.467852813
 31
0.0
  0
ARC
  5
19C
330
1F
100
AcDbEntity
  8
0
  6
CONTINUOUS
 62
     7
100
AcDbCircle
 10
90.4492418516
 20
60.9498371028
 30
0.0
 40
1.000046776821407
100
AcDbArc
 50
160.1122190803
 51
185.0
  0
ARC
  5
19D
330
1F
100
AcDbEntity
  8
0
  6
CONTINUOUS
 62
     7
100
AcDbCircle
 10
84.6471723698
 20
63.0487575294
 30
0.0
 40
5.170000000000095
100
AcDbArc
 50
340.1122190803
 51
8.944738049
  0
LINE
  5
19E
330
1F
100
AcDbEntity
  8
0
  6
CONTINUOUS
 62
     7
100
AcDbLine
 10
374.9467348884
 20
88.8037024558
 30
0.0
 11
89.7542974185
 21
63.8525983811
 31
0.0
  0
ARC
  5
19F
330
1F
100
AcDbEntity
  8
0
  6
CONTINUOUS
 62
     7
100
AcDbCircle
 10
380.1158654224
 20
88.8989112283
 30
0.0
 40
5.16999873798482
100
AcDbArc
 50
181.0551794268
 51
209.8878203283
  0
ARC
  5
1A0
330
1F
100
AcDbEntity
  8
0
  6
CONTINUOUS
 62
     7
100
AcDbCircle
 10
374.766462557
 20
85.8243811213
 30
0.0
 40
0.9999981800218781
100
AcDbArc
 50
5.0
 51
29.8878203283
  0
LINE
  5
1A1
330
1F
100
AcDbEntity
  8
0
  6
CONTINUOUS
 62
     7
100
AcDbLine
 10
376.2346422504
 20
80.5166898787
 30
0.0
 11
375.7626628708
 21
85.9115360797
 31
0.0
  0
ARC
  5
1A2
330
1F
100
AcDbEntity
  8
0
  6
CONTINUOUS
 62
     7
100
AcDbCircle
 10
375.238450434
 20
80.4295350017
 30
0.0
 40
1.000000000000009
100
AcDbArc
 50
340.1121232273
 51
5.0
  0
ARC
  5
1A3
330
1F
100
AcDbEntity
  8
0
  6
CONTINUOUS
 62
     7
100
AcDbCircle
 10
381.0404724173
 20
78.3306207811
 30
0.0
 40
5.170000000000142
100
AcDbArc
 50
160.1121232273
 51
347.3995467073
  0
ARC
  5
1A4
330
1F
100
AcDbEntity
  8
0
  6
CONTINUOUS
 62
     7
100
AcDbCircle
 10
387.0618681899
 20
76.9846293437
 30
0.0
 40
0.999999999999931
100
AcDbArc
 50
95.0000647817
 51
167.3995467073
  0
LINE
  5
1A5
330
1F
100
AcDbEntity
  8
0
  6
CONTINUOUS
 62
     7
100
AcDbLine
 10
391.0029744934
 20
78.3332525313
 30
0.0
 11
386.9747137855
 21
77.9808251679
 31
0.0
  0
ARC
  5
1A6
330
1F
100
AcDbEntity
  8
0
  6
CONTINUOUS
 62
     7
100
AcDbCircle
 10
391.0901172533
 20
77.33706006
 30
0.0
 40
0.9999999999999268
100
AcDbArc
 50
22.600480279
 51
95.0000647817
  0
ARC
  5
1A7
330
1F
100
AcDbEntity
  8
0
  6
CONTINUOUS
 62
     7
100
AcDbCircle
 10
396.7863044171
 20
79.7082099489
 30
0.0
 40
5.170000000000081
100
AcDbArc
 50
202.600480279
 51
29.8879072801
  0
ARC
  5
1A8
330
1F
100
AcDbEntity
  8
0
  6
CONTINUOUS
 62
     7
100
AcDbCircle
 10
402.1357063828
 20
82.7827503388
 30
0.0
 40
0.9999999999999425
100
AcDbArc
 50
185.0
 51
209.8879072801
  0
LINE
  5
1A9
330
1F
100
AcDbEntity
  8
0
  6
CONTINUOUS
 62
     7
100
AcDbLine
 10
400.6675398182
 20
88.0904211223
 30
0.0
 11
401.1395191978
 21
82.6955972731
 31
0.0
  0
ARC
  5
1AA
330
1F
100
AcDbEntity
  8
0
  6
CONTINUOUS
 62
     7
100
AcDbCircle
 10
401.663766904
 20
88.1775799695
 30
0.0
 40
1.000046776821373
100
AcDbArc
 50
160.1122190803
 51
185.0
  0
ARC
  5
1AB
330
1F
100
AcDbEntity
  8
0
  6
CONTINUOUS
 62
     7
100
AcDbCircle
 10
395.8616974222
 20
90.2765003961
 30
0.0
 40
5.17000000000018
100
AcDbArc
 50
340.1122190803
 51
8.944738049
  0
LINE
  5
1AC
330
1F
100
AcDbEntity
  8
0
  6
CONTINUOUS
 62
     7
100
AcDbLine
 10
427.9482877086
 20
93.4407352031
 30
0.0
 11
400.9688114952
 21
91.0803391159
 31
0.0
  0
LINE
  5
1AD
330
1F
100
AcDbEntity
  8
0
  6
CONTINUOUS
 62
     7
100
AcDbLine
 10
427.9482877086
 20
93.4407352031
 30
0.0
 11
427.9482877086
 21
72.1768899382
 31
0.0
  0
ARC
  5
1AE
330
1F
100
AcDbEntity
  8
0
  6
CONTINUOUS
 62
     7
100
AcDbCircle
 10
31.9482800697
 20
924.5006188696
 30
0.0
 40
6.000000000000056
100
AcDbArc
 50
85.0
 51
180.0
  0
LINE
  5
1AF
330
1F
100
AcDbEntity
  8
0
  6
CONTINUOUS
 62
     7
100
AcDbLine
 10
32.4712163042
 20
930.4777695358
 30
0.0
 11
422.4712169002
 21
896.3572098434
 31
0.0
  0
LINE
  5
1B0
330
1F
100
AcDbEntity
  8
0
  6
CONTINUOUS
 62
     7
100
AcDbLine
 10
400.9688114952
 20
871.4765621841
 30
0.0
 11
427.9482877086
 21
869.116218251
 31
0.0
  0
ARC
  5
1B1
330
1F
100
AcDbEntity
  8
0
  6
CONTINUOUS
 62
     7
100
AcDbCircle
 10
395.8616994395
 20
872.2804347529
 30
0.0
 40
5.170000000000036
100
AcDbArc
 50
351.0551803913
 51
19.8879072801
  0
ARC
  5
1B2
330
1F
100
AcDbEntity
  8
0
  6
CONTINUOUS
 62
     7
100
AcDbCircle
 10
401.6637203052
 20
874.3793520628
 30
0.0
 40
1.00000000000001
100
AcDbArc
 50
175.0
 51
199.8879072801
  0
LINE
  5
1B3
330
1F
100
AcDbEntity
  8
0
  6
CONTINUOUS
 62
     7
100
AcDbLine
 10
401.1395191978
 20
879.8613263786
 30
0.0
 11
400.6675398182
 21
874.46650998
 31
0.0
  0
ARC
  5
1B4
330
1F
100
AcDbEntity
  8
0
  6
CONTINUOUS
 62
     7
100
AcDbCircle
 10
402.1357529816
 20
879.7741735398
 30
0.0
 40
1.000046776821417
100
AcDbArc
 50
150.1122190803
 51
175.0
  0
ARC
  5
1B5
330
1F
100
AcDbEntity
  8
0
  6
CONTINUOUS
 62
     7
100
AcDbCircle
 10
396.7863036797
 20
882.8487254411
 30
0.0
 40
5.170000000000067
100
AcDbArc
 50
330.1122190803
 51
157.3995467073
  0
ARC
  5
1B6
330
1F
100
AcDbEntity
  8
0
  6
CONTINUOUS
 62
     7
100
AcDbCircle
 10
391.0901153991
 20
885.2198726471
 30
0.0
 40
1.000000000000012
100
AcDbArc
 50
265.0000647817
 51
337.3995467073
  0
LINE
  5
1B7
330
1F
100
AcDbEntity
  8
0
  6
CONTINUOUS
 62
     7
100
AcDbLine
 10
386.9747137855
 20
884.576113385
 30
0.0
 11
391.0029744934
 21
884.2236711204
 31
0.0
  0
ARC
  5
1B8
330
1F
100
AcDbEntity
  8
0
  6
CONTINUOUS
 62
     7
100
AcDbCircle
 10
387.0618655387
 20
885.5722942543
 30
0.0
 40
1.000001262015275
100
AcDbArc
 50
192.600480279
 51
265.0000647817
  0
ARC
  5
1B9
330
1F
100
AcDbEntity
  8
0
  6
CONTINUOUS
 62
     7
100
AcDbCircle
 10
381.0404704
 20
884.2262999808
 30
0.0
 40
5.169998737984751
100
AcDbArc
 50
12.600480279
 51
199.8878203283
  0
ARC
  5
1BA
330
1F
100
AcDbEntity
  8
0
  6
CONTINUOUS
 62
     7
100
AcDbCircle
 10
375.238450434
 20
882.1273929537
 30
0.0
 40
0.9999981800218053
100
AcDbArc
 50
355.0
 51
19.8878203283
  0
LINE
  5
1BB
330
1F
100
AcDbEntity
  8
0
  6
CONTINUOUS
 62
     7
100
AcDbLine
 10
375.7626628708
 20
876.6454173744
 30
0.0
 11
376.2346422504
 21
882.040233773
 31
0.0
  0
ARC
  5
1BC
330
1F
100
AcDbEntity
  8
0
  6
CONTINUOUS
 62
     7
100
AcDbCircle
 10
374.766462557
 20
876.7325468342
 30
0.0
 40
0.9999999999999314
100
AcDbArc
 50
330.1121232273
 51
355.0
  0
ARC
  5
1BD
330
1F
100
AcDbEntity
  8
0
  6
CONTINUOUS
 62
     7
100
AcDbCircle
 10
380.1158661598
 20
873.6580092926
 30
0.0
 40
5.169999999999994
100
AcDbArc
 50
150.1121232273
 51
178.944738049
  0
LINE
  5
1BE
330
1F
100
AcDbEntity
  8
0
  6
CONTINUOUS
 62
     7
100
AcDbLine
 10
89.7542974185
 20
898.7043215454
 30
0.0
 11
374.9467348884
 21
873.753221196
 31
0.0
  0
ARC
  5
1BF
330
1F
100
AcDbEntity
  8
0
  6
CONTINUOUS
 62
     7
100
AcDbCircle
 10
84.647174387
 20
899.5081776196
 30
0.0
 40
5.170000000000101
100
AcDbArc
 50
351.0551803913
 51
19.8879072801
  0
ARC
  5
1C0
330
1F
100
AcDbEntity
  8
0
  6
CONTINUOUS
 62
     7
100
AcDbCircle
 10
90.4491952527
 20
901.6070949295
 30
0.0
 40
1.000000000000033
100
AcDbArc
 50
175.0
 51
199.8879072801
  0
LINE
  5
1C1
330
1F
100
AcDbEntity
  8
0
  6
CONTINUOUS
 62
     7
100
AcDbLine
 10
89.9249902199
 20
907.0890857399
 30
0.0
 11
89.4530033897
 21
901.6942693413
 31
0.0
  0
ARC
  5
1C2
330
1F
100
AcDbEntity
  8
0
  6
CONTINUOUS
 62
     7
100
AcDbCircle
 10
90.9212279292
 20
907.0019164065
 30
0.0
 40
1.000046776821402
100
AcDbArc
 50
150.1122190803
 51
175.0
  0
ARC
  5
1C3
330
1F
100
AcDbEntity
  8
0
  6
CONTINUOUS
 62
     7
100
AcDbCircle
 10
85.5717786272
 20
910.0764683078
 30
0.0
 40
5.170000000000024
100
AcDbArc
 50
330.1122190803
 51
157.3995467073
  0
ARC
  5
1C4
330
1F
100
AcDbEntity
  8
0
  6
CONTINUOUS
 62
     7
100
AcDbCircle
 10
79.8755903467
 20
912.4476155138
 30
0.0
 40
1.000000000000082
100
AcDbArc
 50
265.0000647817
 51
337.3995467073
  0
LINE
  5
1C5
330
1F
100
AcDbEntity
  8
0
  6
CONTINUOUS
 62
     7
100
AcDbLine
 10
75.7601848077
 20
911.8038131416
 30
0.0
 11
79.7884380649
 21
911.4514304817
 31
0.0
  0
ARC
  5
1C6
330
1F
100
AcDbEntity
  8
0
  6
CONTINUOUS
 62
     7
100
AcDbCircle
 10
75.8473404863
 20
912.800037121
 30
0.0
 40
1.000001262015164
100
AcDbArc
 50
192.600480279
 51
265.0000647817
  0
ARC
  5
1C7
330
1F
100
AcDbEntity
  8
0
  6
CONTINUOUS
 62
     7
100
AcDbCircle
 10
69.8259453476
 20
911.4540428475
 30
0.0
 40
5.169998737984779
100
AcDbArc
 50
12.600480279
 51
199.8878203283
  0
ARC
  5
1C8
330
1F
100
AcDbEntity
  8
0
  6
CONTINUOUS
 62
     7
100
AcDbCircle
 10
64.0239253816
 20
909.3551358204
 30
0.0
 40
0.9999981800219644
100
AcDbArc
 50
355.0
 51
19.8878203283
  0
LINE
  5
1C9
330
1F
100
AcDbEntity
  8
0
  6
CONTINUOUS
 62
     7
100
AcDbLine
 10
64.5481338929
 20
903.873117131
 30
0.0
 11
65.0201207231
 21
909.2679931343
 31
0.0
  0
ARC
  5
1CA
330
1F
100
AcDbEntity
  8
0
  6
CONTINUOUS
 62
     7
100
AcDbCircle
 10
63.5519375046
 20
903.9602897008
 30
0.0
 40
1.000000000000036
100
AcDbArc
 50
330.1121232273
 51
355.0
  0
ARC
  5
1CB
330
1F
100
AcDbEntity
  8
0
  6
CONTINUOUS
 62
     7
100
AcDbCircle
 10
68.9013411074
 20
900.8857521593
 30
0.0
 40
5.170000000000046
100
AcDbArc
 50
150.1121232273
 51
178.944738049
  0
LINE
  5
1CC
330
1F
100
AcDbEntity
  8
0
  6
CONTINUOUS
 62
     7
100
AcDbLine
 10
25.9482795577
 20
904.2866541565
 30
0.0
 11
63.7322208117
 21
900.9809805572
 31
0.0
  0
LINE
  5
1CD
330
1F
100
AcDbEntity
  8
0
  6
CONTINUOUS
 62
     7
100
AcDbLine
 10
25.9482795577
 20
904.2866541565
 30
0.0
 11
25.9482795577
 21
924.5006157577
 31
0.0
  0
LINE
  5
1CE
330
1F
100
AcDbEntity
  8
0
  6
CONTINUOUS
 62
     7
100
AcDbLine
 10
427.9482877086
 20
890.3800560654
 30
0.0
 11
427.9482877086
 21
869.116218251
 31
0.0
  0
ARC
  5
1CF
330
1F
100
AcDbEntity
  8
0
  6
CONTINUOUS
 62
     7
100
AcDbCircle
 10
421.9482800697
 20
890.3800400945
 30
0.0
 40
6.0
100
AcDbArc
 50
0.0
 51
85.0
  0
LINE
  5
1D0
330
1F
100
AcDbEntity
  8
0
  6
CONTINUOUS
 62
     7
100
AcDbLine
 10
412.9063999485
 20
813.2257177055
 30
0.0
 11
422.99016474
 21
815.0037838638
 31
0.0
  0
ARC
  5
1D1
330
1F
100
AcDbEntity
  8
0
  6
CONTINUOUS
 62
     7
100
AcDbCircle
 10
413.9482800697
 20
807.3168897373
 30
0.0
 40
6.00000000000012
100
AcDbArc
 50
100.0
 51
180.0
  0
LINE
  5
1D2
330
1F
100
AcDbEntity
  8
0
  6
CONTINUOUS
 62
     7
100
AcDbLine
 10
407.9482769798
 20
155.2400453508
 30
0.0
 11
407.9482769798
 21
807.3168708504
 31
0.0
  0
ARC
  5
1D3
330
1F
100
AcDbEntity
  8
0
  6
CONTINUOUS
 62
     7
100
AcDbCircle
 10
413.9482800697
 20
155.2400382181
 30
0.0
 40
6.0
100
AcDbArc
 50
180.0
 51
260.0
  0
LINE
  5
1D4
330
1F
100
AcDbEntity
  8
0
  6
CONTINUOUS
 62
     7
100
AcDbLine
 10
387.948266251
 20
102.6696278274
 30
0.0
 11
427.9482877086
 21
106.1691729844
 31
0.0
  0
LINE
  5
1D5
330
1F
100
AcDbEntity
  8
0
  6
CONTINUOUS
 62
     7
100
AcDbLine
 10
387.948266251
 20
859.8872734726
 30
0.0
 11
387.948266251
 21
102.6696278274
 31
0.0
  0
ARC
  5
1D6
330
1F
100
AcDbEntity
  8
0
  6
CONTINUOUS
 62
     7
100
AcDbCircle
 10
421.9482800697
 20
141.6443030298
 30
0.0
 40
5.99999999999995
100
AcDbArc
 50
0.0
 51
80.0
  0
LINE
  5
1D7
330
1F
100
AcDbEntity
  8
0
  6
CONTINUOUS
 62
     7
100
AcDbLine
 10
422.99016474
 20
147.5531472385
 30
0.0
 11
412.9063999485
 21
149.3311984957
 31
0.0
  0
ARC
  5
1D8
330
1F
100
AcDbEntity
  8
0
  6
CONTINUOUS
 62
     7
100
AcDbCircle
 10
421.9482800697
 20
820.9126249256
 30
0.0
 40
6.0
100
AcDbArc
 50
280.0
 51
0.0
  0
LINE
  5
1D9
330
1F
100
AcDbEntity
  8
0
  6
CONTINUOUS
 62
     7
100
AcDbLine
 10
427.9482877086
 20
856.3877655685
 30
0.0
 11
427.9482877086
 21
820.912630719
 31
0.0
  0
LINE
  5
1DA
330
1F
100
AcDbEntity
  8
0
  6
CONTINUOUS
 62
     7
100
AcDbLine
 10
427.9482877086
 20
856.3877655685
 30
0.0
 11
387.948266251
 21
859.8872734726
 31
0.0
  0
LINE
  5
1DB
330
1F
100
AcDbEntity
  8
0
  6
CONTINUOUS
 62
     7
100
AcDbLine
 10
427.9482877086
 20
141.6443003834
 30
0.0
 11
427.9482877086
 21
106.1691729844
 31
0.0
  0
LINE
  5
1DC
330
1F
100
AcDbEntity
  8
0
  6
CONTINUOUS
 62
     7
100
AcDbLine
 10
25.9482795577
 20
70.9987296284
 30
0.0
 11
25.9482795577
 21
891.558201474
 31
0.0
  0
LINE
  5
1DD
330
1F
100
AcDbEntity
  8
0
  6
CONTINUOUS
 62
     7
100
AcDbLine
 10
375.6082868408
 20
860.9668924034
 30
0.0
 11
25.9482795577
 21
891.558201474
 31
0.0
  0
LINE
  5
1DE
330
1F
100
AcDbEntity
  8
0
  6
CONTINUOUS
 62
     7
100
AcDbLine
 10
375.6082868408
 20
101.5900163472
 30
0.0
 11
375.6082868408
 21
860.9668924034
 31
0.0
  0
LINE
  5
1DF
330
1F
100
AcDbEntity
  8
0
  6
CONTINUOUS
 62
     7
100
AcDbLine
 10
25.9482795577
 20
70.9987296284
 30
0.0
 11
375.6082868408
 21
101.5900163472
 31
0.0
  0
ARC
  5
1E0
330
1F
100
AcDbEntity
  8
0
  6
CONTINUOUS
 62
     7
100
AcDbCircle
 10
389.8403016496
 20
91.6224918335
 30
0.0
 40
0.9999999999999268
100
AcDbArc
 50
275.0000647817
 51
347.3995467073
  0
LINE
  5
1E1
330
1F
100
AcDbEntity
  8
0
  6
CONTINUOUS
 62
     7
100
AcDbLine
 10
389.9274682831
 20
90.6263007343
 30
0.0
 11
385.8992075752
 21
90.2738659203
 31
0.0
  0
ARC
  5
1E2
330
1F
100
AcDbEntity
  8
0
  6
CONTINUOUS
 62
     7
100
AcDbCircle
 10
385.8120525862
 20
91.2700611172
 30
0.0
 40
1.000000000000054
100
AcDbArc
 50
202.600480279
 51
275.0000647817
  0
ARC
  5
1E3
330
1F
100
AcDbEntity
  8
0
  6
CONTINUOUS
 62
     7
100
AcDbCircle
 10
78.6257765972
 20
64.3947489669
 30
0.0
 40
0.9999999999999339
100
AcDbArc
 50
275.0000647817
 51
347.3995467073
  0
LINE
  5
1E4
330
1F
100
AcDbEntity
  8
0
  6
CONTINUOUS
 62
     7
100
AcDbLine
 10
78.7129318546
 20
63.3985525489
 30
0.0
 11
74.6846860479
 21
63.0461251855
 31
0.0
  0
ARC
  5
1E5
330
1F
100
AcDbEntity
  8
0
  6
CONTINUOUS
 62
     7
100
AcDbCircle
 10
74.5975275337
 20
64.0423182505
 30
0.0
 40
1.000000000000076
100
AcDbArc
 50
202.600480279
 51
275.0000647817
  0
ARC
  5
1E6
330
1F
100
AcDbEntity
  8
0
  6
CONTINUOUS
 62
     7
100
AcDbCircle
 10
74.597529388
 20
898.5146049533
 30
0.0
 40
1.00000000000003
100
AcDbArc
 50
85.0000647817
 51
157.3995467073
  0
LINE
  5
1E7
330
1F
100
AcDbEntity
  8
0
  6
CONTINUOUS
 62
     7
100
AcDbLine
 10
74.6846860479
 20
899.5107723892
 30
0.0
 11
78.7129318546
 21
899.1583897293
 31
0.0
  0
ARC
  5
1E8
330
1F
100
AcDbEntity
  8
0
  6
CONTINUOUS
 62
     7
100
AcDbCircle
 10
78.6257792484
 20
898.1621833461
 30
0.0
 40
1.000000000000003
100
AcDbArc
 50
12.600480279
 51
85.0000647817
  0
ARC
  5
1E9
330
1F
100
AcDbEntity
  8
0
  6
CONTINUOUS
 62
     7
100
AcDbCircle
 10
385.8120544404
 20
871.2868620866
 30
0.0
 40
1.000000000000056
100
AcDbArc
 50
85.0000647817
 51
157.3995467073
  0
LINE
  5
1EA
330
1F
100
AcDbEntity
  8
0
  6
CONTINUOUS
 62
     7
100
AcDbLine
 10
385.8992075752
 20
872.2830726326
 30
0.0
 11
389.9274682831
 21
871.930630368
 31
0.0
  0
ARC
  5
1EB
330
1F
100
AcDbEntity
  8
0
  6
CONTINUOUS
 62
     7
100
AcDbCircle
 10
389.8403043008
 20
870.9344404794
 30
0.0
 40
0.9999999999999647
100
AcDbArc
 50
12.600480279
 51
85.0000647817
  0
LINE
  5
1EC
330
1F
100
AcDbEntity
  8
0
  6
CONTINUOUS
 62
     7
100
AcDbLine
 10
25.9482795577
 20
70.9987296284
 30
0.0
 11
25.9482795577
 21
58.2702955723
 31
0.0
  0
LINE
  5
1ED
330
1F
100
AcDbEntity
  8
0
  6
CONTINUOUS
 62
     7
100
AcDbLine
 10
25.9482795577
 20
904.2866541565
 30
0.0
 11
25.9482795577
 21
891.558201474
 31
0.0
  0
ARC
  5
1EE
330
1F
100
AcDbEntity
  8
0
  6
CONTINUOUS
 62
     7
100
AcDbCircle
 10
68.90134037
 20
61.6711683616
 30
0.0
 40
5.169999999999903
100
AcDbArc
 50
22.600480279
 51
181.0551794269
  0
ARC
  5
1EF
330
1F
100
AcDbEntity
  8
0
  6
CONTINUOUS
 62
     7
100
AcDbCircle
 10
68.9013411074
 20
900.8857521593
 30
0.0
 40
5.170000000000059
100
AcDbArc
 50
178.944738049
 51
337.3995467073
  0
ARC
  5
1F0
330
1F
100
AcDbEntity
  8
0
  6
CONTINUOUS
 62
     7
100
AcDbCircle
 10
84.6471723698
 20
63.0487575294
 30
0.0
 40
5.170000000000092
100
AcDbArc
 50
8.944738049
 51
167.3995467073
  0
ARC
  5
1F1
330
1F
100
AcDbEntity
  8
0
  6
CONTINUOUS
 62
     7
100
AcDbCircle
 10
84.647174387
 20
899.5081776196
 30
0.0
 40
5.170000000000013
100
AcDbArc
 50
192.600480279
 51
351.0551803913
  0
ARC
  5
1F2
330
1F
100
AcDbEntity
  8
0
  6
CONTINUOUS
 62
     7
100
AcDbCircle
 10
380.1158661598
 20
873.6580092926
 30
0.0
 40
5.170000000000024
100
AcDbArc
 50
178.944738049
 51
337.3995467073
  0
ARC
  5
1F3
330
1F
100
AcDbEntity
  8
0
  6
CONTINUOUS
 62
     7
100
AcDbCircle
 10
380.1158654224
 20
88.8989112283
 30
0.0
 40
5.169999999999932
100
AcDbArc
 50
22.600480279
 51
181.0551794269
  0
ARC
  5
1F4
330
1F
100
AcDbEntity
  8
0
  6
CONTINUOUS
 62
     7
100
AcDbCircle
 10
395.8616974222
 20
90.2765003961
 30
0.0
 40
5.170000000000176
100
AcDbArc
 50
8.944738049
 51
167.3995467073
  0
ARC
  5
1F5
330
1F
100
AcDbEntity
  8
0
  6
CONTINUOUS
 62
     7
100
AcDbCircle
 10
395.8616994395
 20
872.2804347529
 30
0.0
 40
5.170000000000061
100
AcDbArc
 50
192.600480279
 51
351.0551803913
  0
LINE
  5
1F6
330
1F
100
AcDbEntity
  8
0
  6
CONTINUOUS
 62
     7
100
AcDbLine
 10
427.9482877086
 20
856.3877655685
 30
0.0
 11
427.9482877086
 21
869.116218251
 31
0.0
  0
LINE
  5
1F7
330
1F
100
AcDbEntity
  8
0
  6
CONTINUOUS
 62
     7
100
AcDbLine
 10
427.9482877086
 20
93.4407352031
 30
0.0
 11
427.9482877086
 21
106.1691729844
 31
0.0
  0
LINE
  5
1F8
330
1F
100
AcDbEntity
  8
0
  6
CONTINUOUS
 62
     7
100
AcDbLine
 10
1448.3882403206
 20
464.0369726837
 30
0.0
 11
1448.3882403206
 21
503.1399144352
 31
0.0
  0
LINE
  5
1F9
330
1F
100
AcDbEntity
  8
0
  6
CONTINUOUS
 62
     7
100
AcDbLine
 10
1186.3882756065
 20
464.0369726837
 30
0.0
 11
1448.3882403206
 21
464.0369726837
 31
0.0
  0
LINE
  5
1FA
330
1F
100
AcDbEntity
  8
0
  6
CONTINUOUS
 62
     7
100
AcDbLine
 10
1186.3882756065
 20
503.1399144352
 30
0.0
 11
1186.3882756065
 21
464.0369726837
 31
0.0
  0
LINE
  5
1FB
330
1F
100
AcDbEntity
  8
0
  6
CONTINUOUS
 62
     7
100
AcDbLine
 10
1186.3882756065
 20
503.1399144352
 30
0.0
 11
1448.3882403206
 21
503.1399144352
 31
0.0
  0
LINE
  5
1FC
330
1F
100
AcDbEntity
  8
0
  6
CONTINUOUS
 62
     7
100
AcDbLine
 10
1448.3882403206
 20
866.5227009476
 30
0.0
 11
1186.3882756065
 21
866.5227009476
 31
0.0
  0
LINE
  5
1FD
330
1F
100
AcDbEntity
  8
0
  6
CONTINUOUS
 62
     7
100
AcDbLine
 10
1448.3882403206
 20
515.3557373703
 30
0.0
 11
1186.3882756065
 21
515.3557373703
 31
0.0
  0
LINE
  5
1FE
330
1F
100
AcDbEntity
  8
0
  6
CONTINUOUS
 62
     7
100
AcDbLine
 10
1186.3882756065
 20
866.5227009476
 30
0.0
 11
1186.3882756065
 21
515.3557373703
 31
0.0
  0
LINE
  5
1FF
330
1F
100
AcDbEntity
  8
0
  6
CONTINUOUS
 62
     7
100
AcDbLine
 10
1448.3882403206
 20
515.3557373703
 30
0.0
 11
1448.3882403206
 21
866.5227009476
 31
0.0
  0
LINE
  5
200
330
1F
100
AcDbEntity
  8
0
  6
CONTINUOUS
 62
     7
100
AcDbLine
 10
1186.3882756065
 20
503.1399144352
 30
0.0
 11
1186.3882756065
 21
515.3557373703
 31
0.0
  0
LINE
  5
201
330
1F
100
AcDbEntity
  8
0
  6
CONTINUOUS
 62
     7
100
AcDbLine
 10
1448.3882403206
 20
515.3557373703
 30
0.0
 11
1448.3882403206
 21
503.1399144352
 31
0.0
  0
LINE
  5
202
330
1F
100
AcDbEntity
  8
0
  6
CONTINUOUS
 62
     7
100
AcDbLine
 10
1186.3882756065
 20
30.0712617606
 30
0.0
 11
1448.3882403206
 21
30.0712617606
 31
0.0
  0
LINE
  5
203
330
1F
100
AcDbEntity
  8
0
  6
CONTINUOUS
 62
     7
100
AcDbLine
 10
1186.3882756065
 20
69.1741941989
 30
0.0
 11
1186.3882756065
 21
30.0712617606
 31
0.0
  0
LINE
  5
204
330
1F
100
AcDbEntity
  8
0
  6
CONTINUOUS
 62
     7
100
AcDbLine
 10
1448.3882403206
 20
69.1741941989
 30
0.0
 11
1186.3882756065
 21
69.1741941989
 31
0.0
  0
LINE
  5
205
330
1F
100
AcDbEntity
  8
0
  6
CONTINUOUS
 62
     7
100
AcDbLine
 10
1448.3882403206
 20
30.0712617606
 30
0.0
 11
1448.3882403206
 21
69.1741941989
 31
0.0
  0
LINE
  5
206
330
1F
100
AcDbEntity
  8
0
  6
CONTINUOUS
 62
     7
100
AcDbLine
 10
1448.3882403206
 20
432.5569583595
 30
0.0
 11
1186.3882756065
 21
432.5569583595
 31
0.0
  0
LINE
  5
207
330
1F
100
AcDbEntity
  8
0
  6
CONTINUOUS
 62
     7
100
AcDbLine
 10
1186.3882756065
 20
81.3900320351
 30
0.0
 11
1448.3882403206
 21
81.3900320351
 31
0.0
  0
LINE
  5
208
330
1F
100
AcDbEntity
  8
0
  6
CONTINUOUS
 62
     7
100
AcDbLine
 10
1186.3882756065
 20
432.5569583595
 30
0.0
 11
1186.3882756065
 21
81.3900320351
 31
0.0
  0
LINE
  5
209
330
1F
100
AcDbEntity
  8
0
  6
CONTINUOUS
 62
     7
100
AcDbLine
 10
1448.3882403206
 20
81.3900320351
 30
0.0
 11
1448.3882403206
 21
432.5569583595
 31
0.0
  0
LINE
  5
20A
330
1F
100
AcDbEntity
  8
0
  6
CONTINUOUS
 62
     7
100
AcDbLine
 10
1186.3882756065
 20
69.1741941989
 30
0.0
 11
1186.3882756065
 21
81.3900320351
 31
0.0
  0
LINE
  5
20B
330
1F
100
AcDbEntity
  8
0
  6
CONTINUOUS
 62
     7
100
AcDbLine
 10
1448.3882403206
 20
81.3900320351
 30
0.0
 11
1448.3882403206
 21
69.1741941989
 31
0.0
  0
LINE
  5
20C
330
1F
100
AcDbEntity
  8
0
  6
CONTINUOUS
 62
     7
100
AcDbLine
 10
892.9082965683
 20
802.0712448776
 30
0.0
 11
892.9082965683
 21
30.0712617606
 31
0.0
  0
LINE
  5
20D
330
1F
100
AcDbEntity
  8
0
  6
CONTINUOUS
 62
     7
100
AcDbLine
 10
1154.908320887
 20
802.0712448776
 30
0.0
 11
892.9082965683
 21
802.0712448776
 31
0.0
  0
LINE
  5
20E
330
1F
100
AcDbEntity
  8
0
  6
CONTINUOUS
 62
     7
100
AcDbLine
 10
1154.908320887
 20
30.0712617606
 30
0.0
 11
1154.908320887
 21
802.0712448776
 31
0.0
  0
LINE
  5
20F
330
1F
100
AcDbEntity
  8
0
  6
CONTINUOUS
 62
     7
100
AcDbLine
 10
892.9082965683
 20
30.0712617606
 30
0.0
 11
1154.908320887
 21
30.0712617606
 31
0.0
  0
LINE
  5
210
330
1F
100
AcDbEntity
  8
POCKETS
100
AcDbLine
 10
1458.3882800697
 20
81.3900298626
 30
0.0
 11
1176.3882800697
 21
81.3900298626
 31
0.0
  0
LINE
  5
211
330
1F
100
AcDbEntity
  8
POCKETS
100
AcDbLine
 10
1176.3882800697
 20
81.3900298626
 30
0.0
 11
1176.3882800697
 21
69.1741918121
 31
0.0
  0
LINE
  5
212
330
1F
100
AcDbEntity
  8
POCKETS
100
AcDbLine
 10
1176.3882800697
 20
69.1741918121
 30
0.0
 11
1458.3882800697
 21
69.1741918121
 31
0.0
  0
LINE
  5
213
330
1F
100
AcDbEntity
  8
PROFILES_OUTSIDE
100
AcDbLine
 10
427.9482800697
 20
820.9126249256
 30
0.0
 11
427.9482800697
 21
895.8780271386
 31
0.0
  0
LINE
  5
214
330
1F
100
AcDbEntity
  8
PROFILES_OUTSIDE
100
AcDbLine
 10
427.9482800697
 20
895.8780271386
 30
0.0
 11
25.9482800697
 21
931.048469876
 31
0.0
  0
LINE
  5
215
330
1F
100
AcDbEntity
  8
PROFILES_OUTSIDE
100
AcDbLine
 10
25.9482800697
 20
931.048469876
 30
0.0
 11
25.9482800697
 21
31.5084580795
 31
0.0
  0
LINE
  5
216
330
1F
100
AcDbEntity
  8
PROFILES_OUTSIDE
100
AcDbLine
 10
25.9482800697
 20
31.5084580795
 30
0.0
 11
427.9482800697
 21
66.6789008169
 31
0.0
  0
LINE
  5
217
330
1F
100
AcDbEntity
  8
POCKETS
100
AcDbLine
 10
1458.3882800697
 20
69.1741918121
 30
0.0
 11
1458.3882800697
 21
81.3900298626
 31
0.0
  0
LINE
  5
218
330
1F
100
AcDbEntity
  8
PROFILES_OUTSIDE
100
AcDbLine
 10
427.9482800697
 20
66.6789008169
 30
0.0
 11
427.9482800697
 21
141.6443030298
 31
0.0
  0
LINE
  5
219
330
1F
100
AcDbEntity
  8
PROFILES_OUTSIDE
100
AcDbLine
 10
422.9901691357
 20
147.5531495479
 30
0.0
 11
412.9063910037
 21
149.3311917
 31
0.0
  0
LINE
  5
21A
330
1F
100
AcDbEntity
  8
PROFILES_OUTSIDE
100
AcDbLine
 10
407.9482800697
 20
155.2400382181
 30
0.0
 11
407.9482800697
 21
807.3168897373
 31
0.0
  0
LINE
  5
21B
330
1F
100
AcDbEntity
  8
PROFILES_OUTSIDE
100
AcDbLine
 10
412.9063910037
 20
813.2257362554
 30
0.0
 11
422.9901691357
 21
815.0037784076
 31
0.0
  0
LINE
  5
21C
330
1F
100
AcDbEntity
  8
PROFILES_INSIDE
100
AcDbLine
 10
400.6675256071
 20
874.4665078056
 30
0.0
 11
401.1395116847
 21
879.8613333594
 31
0.0
  0
LINE
  5
21D
330
1F
100
AcDbEntity
  8
PROFILES_INSIDE
100
AcDbLine
 10
385.8992090568
 20
872.2830568832
 30
0.0
 11
389.9274589172
 21
871.930635276
 31
0.0
  0
LINE
  5
21E
330
1F
100
AcDbEntity
  8
PROFILES_INSIDE
100
AcDbLine
 10
376.234643319
 20
882.0402373696
 30
0.0
 11
375.7626572551
 21
876.6453910914
 31
0.0
  0
LINE
  5
21F
330
1F
100
AcDbEntity
  8
PROFILES_INSIDE
100
AcDbLine
 10
391.0029607827
 20
884.2236778505
 30
0.0
 11
386.9747107711
 21
884.576097729
 31
0.0
  0
LINE
  5
220
330
1F
100
AcDbEntity
  8
PROFILES_OUTSIDE
100
AcDbLine
 10
1154.9082800697
 20
30.0712622726
 30
0.0
 11
1154.9082800697
 21
802.0712622726
 31
0.0
  0
LINE
  5
221
330
1F
100
AcDbEntity
  8
PROFILES_OUTSIDE
100
AcDbLine
 10
1154.9082800697
 20
802.0712622726
 30
0.0
 11
892.9082800697
 21
802.0712622726
 31
0.0
  0
LINE
  5
222
330
1F
100
AcDbEntity
  8
PROFILES_OUTSIDE
100
AcDbLine
 10
892.9082800697
 20
802.0712622726
 30
0.0
 11
892.9082800697
 21
30.0712622726
 31
0.0
  0
LINE
  5
223
330
1F
100
AcDbEntity
  8
PROFILES_OUTSIDE
100
AcDbLine
 10
892.9082800697
 20
30.0712622726
 30
0.0
 11
1154.9082800697
 21
30.0712622726
 31
0.0
  0
LINE
  5
224
330
1F
100
AcDbEntity
  8
PROFILES_OUTSIDE
100
AcDbLine
 10
1448.3882800697
 20
432.5569730027
 30
0.0
 11
1186.3882800697
 21
432.5569730027
 31
0.0
  0
LINE
  5
225
330
1F
100
AcDbEntity
  8
PROFILES_OUTSIDE
100
AcDbLine
 10
1186.3882800697
 20
432.5569730027
 30
0.0
 11
1186.3882800697
 21
30.0712622726
 31
0.0
  0
LINE
  5
226
330
1F
100
AcDbEntity
  8
PROFILES_OUTSIDE
100
AcDbLine
 10
1186.3882800697
 20
30.0712622726
 30
0.0
 11
1448.3882800697
 21
30.0712622726
 31
0.0
  0
LINE
  5
227
330
1F
100
AcDbEntity
  8
PROFILES_OUTSIDE
100
AcDbLine
 10
1448.3882800697
 20
30.0712622726
 30
0.0
 11
1448.3882800697
 21
432.5569730027
 31
0.0
  0
LINE
  5
228
330
1F
100
AcDbEntity
  8
PROFILES_OUTSIDE
100
AcDbLine
 10
1186.3882800697
 20
866.5226837329
 30
0.0
 11
1186.3882800697
 21
464.0369730027
 31
0.0
  0
LINE
  5
229
330
1F
100
AcDbEntity
  8
PROFILES_OUTSIDE
100
AcDbLine
 10
1186.3882800697
 20
464.0369730027
 30
0.0
 11
1448.3882800697
 21
464.0369730027
 31
0.0
  0
LINE
  5
22A
330
1F
100
AcDbEntity
  8
BOX_STOCK
100
AcDbLine
 10
0.2082800697
 20
4.3312622726
 30
0.0
 11
2440.2082800697
 21
4.3312622726
 31
0.0
  0
LINE
  5
22B
330
1F
100
AcDbEntity
  8
BOX_STOCK
100
AcDbLine
 10
2440.2082800697
 20
4.3312622726
 30
0.0
 11
2440.2082800697
 21
1224.3312622726
 31
0.0
  0
LINE
  5
22C
330
1F
100
AcDbEntity
  8
BOX_STOCK
100
AcDbLine
 10
2440.2082800697
 20
1224.3312622726
 30
0.0
 11
0.2082800697
 21
1224.3312622726
 31
0.0
  0
LINE
  5
22D
330
1F
100
AcDbEntity
  8
BOX_STOCK
100
AcDbLine
 10
0.2082800697
 20
1224.3312622726
 30
0.0
 11
0.2082800697
 21
4.3312622726
 31
0.0
  0
LINE
  5
22E
330
1F
100
AcDbEntity
  8
POCKETS
100
AcDbLine
 10
1458.3882800697
 20
515.3557405927
 30
0.0
 11
1176.3882800697
 21
515.3557405927
 31
0.0
  0
LINE
  5
22F
330
1F
100
AcDbEntity
  8
PROFILES_OUTSIDE
100
AcDbLine
 10
1448.3882800697
 20
464.0369730027
 30
0.0
 11
1448.3882800697
 21
866.5226837329
 31
0.0
  0
LINE
  5
230
330
1F
100
AcDbEntity
  8
POCKETS
100
AcDbLine
 10
1176.3882800697
 20
515.3557405927
 30
0.0
 11
1176.3882800697
 21
503.1399025422
 31
0.0
  0
LINE
  5
231
330
1F
100
AcDbEntity
  8
POCKETS
100
AcDbLine
 10
1176.3882800697
 20
503.1399025422
 30
0.0
 11
1458.3882800697
 21
503.1399025422
 31
0.0
  0
LINE
  5
232
330
1F
100
AcDbEntity
  8
POCKETS
100
AcDbLine
 10
1458.3882800697
 20
503.1399025422
 30
0.0
 11
1458.3882800697
 21
515.3557405927
 31
0.0
  0
LINE
  5
233
330
1F
100
AcDbEntity
  8
PROFILES_OUTSIDE
100
AcDbLine
 10
1448.3882800697
 20
866.5226837329
 30
0.0
 11
1186.3882800697
 21
866.5226837329
 31
0.0
  0
LINE
  5
234
330
1F
100
AcDbEntity
  8
PROFILES_INSIDE
100
AcDbLine
 10
89.4530005546
 20
901.6942506723
 30
0.0
 11
89.9249866323
 21
907.0890762261
 31
0.0
  0
LINE
  5
235
330
1F
100
AcDbEntity
  8
PROFILES_INSIDE
100
AcDbLine
 10
79.7884357303
 20
911.4514207172
 30
0.0
 11
75.7601858149
 21
911.8038416958
 31
0.0
  0
LINE
  5
236
330
1F
100
AcDbEntity
  8
PROFILES_INSIDE
100
AcDbLine
 10
65.0201181094
 20
909.2679802501
 30
0.0
 11
64.5481322027
 21
903.8731339581
 31
0.0
  0
LINE
  5
237
330
1F
100
AcDbEntity
  8
PROFILES_INSIDE
100
AcDbLine
 10
74.6846840044
 20
899.5107997499
 30
0.0
 11
78.7129338648
 21
899.1583781427
 31
0.0
  0
LINE
  5
238
330
1F
100
AcDbEntity
  8
PROFILES_INSIDE
100
AcDbLine
 10
401.1395116847
 20
82.695594596
 30
0.0
 11
400.6675256071
 21
88.0904201499
 31
0.0
  0
LINE
  5
239
330
1F
100
AcDbEntity
  8
PROFILES_INSIDE
100
AcDbLine
 10
389.9274585187
 20
90.626297234
 30
0.0
 11
385.899209469
 21
90.2738663605
 31
0.0
  0
LINE
  5
23A
330
1F
100
AcDbEntity
  8
PROFILES_INSIDE
100
AcDbLine
 10
375.7626551278
 20
85.9115366779
 30
0.0
 11
376.2346451321
 21
80.5166907445
 31
0.0
  0
LINE
  5
23B
330
1F
100
AcDbEntity
  8
PROFILES_INSIDE
100
AcDbLine
 10
386.9747113208
 20
77.9808239432
 30
0.0
 11
391.0029603842
 21
78.3332546595
 31
0.0
  0
LINE
  5
23C
330
1F
100
AcDbEntity
  8
PROFILES_INSIDE
100
AcDbLine
 10
64.5481303897
 20
58.6837938387
 30
0.0
 11
65.0201200796
 21
53.2889478778
 31
0.0
  0
LINE
  5
23D
330
1F
100
AcDbEntity
  8
PROFILES_INSIDE
100
AcDbLine
 10
75.7601862683
 20
50.7530810765
 30
0.0
 11
79.7884353318
 21
51.1055117928
 31
0.0
  0
LINE
  5
23E
330
1F
100
AcDbEntity
  8
PROFILES_INSIDE
100
AcDbLine
 10
89.9249866323
 20
55.4678517293
 30
0.0
 11
89.4530005546
 21
60.8626772832
 31
0.0
  0
LINE
  5
23F
330
1F
100
AcDbEntity
  8
PROFILES_INSIDE
100
AcDbLine
 10
78.7129334663
 20
63.3985543673
 30
0.0
 11
74.6846844028
 21
63.046123651
 31
0.0
  0
LINE
  5
240
330
1F
100
AcDbEntity
  8
PROFILES_OUTSIDE
100
AcDbLine
 10
1492.1282800697
 20
386.2265762519
 30
0.0
 11
1480.8682800697
 21
386.2265762519
 31
0.0
  0
LINE
  5
241
330
1F
100
AcDbEntity
  8
PROFILES_OUTSIDE
100
AcDbLine
 10
1492.4683677068
 20
380.9127069226
 30
0.0
 11
1492.1282800697
 21
386.2265762519
 31
0.0
  0
LINE
  5
242
330
1F
100
AcDbEntity
  8
PROFILES_OUTSIDE
100
AcDbLine
 10
1501.4060016863
 20
379.9765762519
 30
0.0
 11
1493.4663259768
 21
379.9765762519
 31
0.0
  0
LINE
  5
243
330
1F
100
AcDbEntity
  8
PROFILES_OUTSIDE
100
AcDbLine
 10
1504.8682800697
 20
392.4785762519
 30
0.0
 11
1504.8682800697
 21
390.4547578916
 31
0.0
  0
LINE
  5
244
330
1F
100
AcDbEntity
  8
PROFILES_OUTSIDE
100
AcDbLine
 10
1592.8682800697
 20
392.4785762519
 30
0.0
 11
1504.8682800697
 21
392.4785762519
 31
0.0
  0
LINE
  5
245
330
1F
100
AcDbEntity
  8
PROFILES_OUTSIDE
100
AcDbLine
 10
1604.8682800697
 20
279.6761382588
 30
0.0
 11
1604.8682800697
 21
380.4785762519
 31
0.0
  0
LINE
  5
246
330
1F
100
AcDbEntity
  8
PROFILES_OUTSIDE
100
AcDbLine
 10
1642.8682800697
 20
267.6761382588
 30
0.0
 11
1616.8682800697
 21
267.6761382588
 31
0.0
  0
LINE
  5
247
330
1F
100
AcDbEntity
  8
PROFILES_OUTSIDE
100
AcDbLine
 10
1654.8682800697
 20
380.4785762519
 30
0.0
 11
1654.8682800697
 21
279.6761382588
 31
0.0
  0
LINE
  5
248
330
1F
100
AcDbEntity
  8
PROFILES_INSIDE
100
AcDbLine
 10
834.1475256071
 20
874.4665078056
 30
0.0
 11
834.6195116847
 21
879.8613333594
 31
0.0
  0
LINE
  5
249
330
1F
100
AcDbEntity
  8
PROFILES_INSIDE
100
AcDbLine
 10
819.3792090568
 20
872.2830568832
 30
0.0
 11
823.4074589172
 21
871.930635276
 31
0.0
  0
LINE
  5
24A
330
1F
100
AcDbEntity
  8
PROFILES_INSIDE
100
AcDbLine
 10
809.714643319
 20
882.0402373696
 30
0.0
 11
809.2426572551
 21
876.6453910914
 31
0.0
  0
LINE
  5
24B
330
1F
100
AcDbEntity
  8
PROFILES_INSIDE
100
AcDbLine
 10
824.4829607827
 20
884.2236778505
 30
0.0
 11
820.4547107711
 21
884.576097729
 31
0.0
  0
LINE
  5
24C
330
1F
100
AcDbEntity
  8
PROFILES_INSIDE
100
AcDbLine
 10
523.077050308
 20
901.6816479519
 30
0.0
 11
523.5490363857
 21
907.0764735057
 31
0.0
  0
LINE
  5
24D
330
1F
100
AcDbEntity
  8
PROFILES_INSIDE
100
AcDbLine
 10
513.4124854836
 20
911.4388179968
 30
0.0
 11
509.3842355682
 21
911.7912389754
 31
0.0
  0
LINE
  5
24E
330
1F
100
AcDbEntity
  8
PROFILES_INSIDE
100
AcDbLine
 10
498.6441678628
 20
909.2553775297
 30
0.0
 11
498.1721819561
 21
903.8605312377
 31
0.0
  0
LINE
  5
24F
330
1F
100
AcDbEntity
  8
PROFILES_INSIDE
100
AcDbLine
 10
508.3087337577
 20
899.4981970295
 30
0.0
 11
512.3369836181
 21
899.1457754223
 31
0.0
  0
LINE
  5
250
330
1F
100
AcDbEntity
  8
PROFILES_INSIDE
100
AcDbLine
 10
834.6195116847
 20
82.695594596
 30
0.0
 11
834.1475256071
 21
88.0904201499
 31
0.0
  0
LINE
  5
251
330
1F
100
AcDbEntity
  8
PROFILES_INSIDE
100
AcDbLine
 10
823.4074585187
 20
90.626297234
 30
0.0
 11
819.379209469
 21
90.2738663605
 31
0.0
  0
LINE
  5
252
330
1F
100
AcDbEntity
  8
PROFILES_INSIDE
100
AcDbLine
 10
809.2426551278
 20
85.9115366779
 30
0.0
 11
809.7146451321
 21
80.5166907445
 31
0.0
  0
LINE
  5
253
330
1F
100
AcDbEntity
  8
PROFILES_INSIDE
100
AcDbLine
 10
820.4547113208
 20
77.9808239432
 30
0.0
 11
824.4829603842
 21
78.3332546595
 31
0.0
  0
LINE
  5
254
330
1F
100
AcDbEntity
  8
PROFILES_OUTSIDE
100
AcDbLine
 10
1754.8682800697
 20
392.4785762519
 30
0.0
 11
1666.8682800697
 21
392.4785762519
 31
0.0
  0
LINE
  5
255
330
1F
100
AcDbEntity
  8
PROFILES_OUTSIDE
100
AcDbLine
 10
1754.8682800697
 20
390.4547578916
 30
0.0
 11
1754.8682800697
 21
392.4785762519
 31
0.0
  0
LINE
  5
256
330
1F
100
AcDbEntity
  8
PROFILES_OUTSIDE
100
AcDbLine
 10
1766.2702341626
 20
379.9765762519
 30
0.0
 11
1758.3305584531
 21
379.9765762519
 31
0.0
  0
LINE
  5
257
330
1F
100
AcDbEntity
  8
PROFILES_OUTSIDE
100
AcDbLine
 10
1767.6082800697
 20
386.2265762519
 30
0.0
 11
1767.2681924326
 21
380.9127069226
 31
0.0
  0
LINE
  5
258
330
1F
100
AcDbEntity
  8
PROFILES_OUTSIDE
100
AcDbLine
 10
1778.8682800697
 20
386.2265762519
 30
0.0
 11
1767.6082800697
 21
386.2265762519
 31
0.0
  0
LINE
  5
259
330
1F
100
AcDbEntity
  8
PROFILES_INSIDE
100
AcDbLine
 10
498.172180143
 20
58.6963965591
 30
0.0
 11
498.644169833
 21
53.3015505982
 31
0.0
  0
LINE
  5
25A
330
1F
100
AcDbEntity
  8
PROFILES_INSIDE
100
AcDbLine
 10
509.3842360217
 20
50.7656837969
 30
0.0
 11
513.4124850852
 21
51.1181145132
 31
0.0
  0
LINE
  5
25B
330
1F
100
AcDbEntity
  8
PROFILES_INSIDE
100
AcDbLine
 10
523.5490363857
 20
55.4804544497
 30
0.0
 11
523.077050308
 21
60.8752800036
 31
0.0
  0
LINE
  5
25C
330
1F
100
AcDbEntity
  8
PROFILES_INSIDE
100
AcDbLine
 10
512.3369832197
 20
63.4111570877
 30
0.0
 11
508.3087341562
 21
63.0587263714
 31
0.0
  0
LINE
  5
25D
330
1F
100
AcDbEntity
  8
PROFILES_OUTSIDE
100
AcDbLine
 10
459.4282800697
 20
924.5006188696
 30
0.0
 11
459.4282800697
 21
38.0563090859
 31
0.0
  0
LINE
  5
25E
330
1F
100
AcDbEntity
  8
PROFILES_OUTSIDE
100
AcDbLine
 10
855.9512145262
 20
896.357208283
 30
0.0
 11
465.9512145262
 21
930.4777870581
 31
0.0
  0
LINE
  5
25F
330
1F
100
AcDbEntity
  8
PROFILES_OUTSIDE
100
AcDbLine
 10
861.4282800697
 20
820.9126249256
 30
0.0
 11
861.4282800697
 21
890.3800400945
 31
0.0
  0
LINE
  5
260
330
1F
100
AcDbEntity
  8
PROFILES_OUTSIDE
100
AcDbLine
 10
846.3863910037
 20
813.2257362554
 30
0.0
 11
856.4701691357
 21
815.0037784076
 31
0.0
  0
LINE
  5
261
330
1F
100
AcDbEntity
  8
POCKETS
100
AcDbLine
 10
438.2193002954
 20
107.0677710584
 30
0.0
 11
428.2573533145
 21
106.196213631
 31
0.0
  0
LINE
  5
262
330
1F
100
AcDbEntity
  8
PROFILES_OUTSIDE
100
AcDbLine
 10
1779.8682800697
 20
373.4765762519
 30
0.0
 11
1779.8682800697
 21
385.2265762519
 31
0.0
  0
LINE
  5
263
330
1F
100
AcDbEntity
  8
PROFILES_OUTSIDE
100
AcDbLine
 10
1685.9182800697
 20
367.4765762519
 30
0.0
 11
1773.8682800697
 21
367.4765762519
 31
0.0
  0
LINE
  5
264
330
1F
100
AcDbEntity
  8
PROFILES_OUTSIDE
100
AcDbLine
 10
1673.9182800697
 20
267.6761382588
 30
0.0
 11
1673.9182800697
 21
355.4765762519
 31
0.0
  0
LINE
  5
265
330
1F
100
AcDbEntity
  8
PROFILES_OUTSIDE
100
AcDbLine
 10
1654.8682800697
 20
187.8692681499
 30
0.0
 11
1654.8682800697
 21
234.6805703746
 31
0.0
  0
LINE
  5
266
330
1F
100
AcDbEntity
  8
PROFILES_OUTSIDE
100
AcDbLine
 10
1673.9182800697
 20
67.0732622726
 30
0.0
 11
1673.9182800697
 21
154.8737002657
 31
0.0
  0
LINE
  5
267
330
1F
100
AcDbEntity
  8
PROFILES_OUTSIDE
100
AcDbLine
 10
1773.8682800697
 20
55.0732622726
 30
0.0
 11
1685.9182800697
 21
55.0732622726
 31
0.0
  0
LINE
  5
268
330
1F
100
AcDbEntity
  8
PROFILES_OUTSIDE
100
AcDbLine
 10
1779.8682800697
 20
37.3232622726
 30
0.0
 11
1779.8682800697
 21
49.0732622726
 31
0.0
  0
LINE
  5
269
330
1F
100
AcDbEntity
  8
PROFILES_OUTSIDE
100
AcDbLine
 10
1767.6082800697
 20
36.3232622726
 30
0.0
 11
1778.8682800697
 21
36.3232622726
 31
0.0
  0
LINE
  5
26A
330
1F
100
AcDbEntity
  8
PROFILES_OUTSIDE
100
AcDbLine
 10
1767.2681924326
 20
41.6371316019
 30
0.0
 11
1767.6082800697
 21
36.3232622726
 31
0.0
  0
LINE
  5
26B
330
1F
100
AcDbEntity
  8
PROFILES_OUTSIDE
100
AcDbLine
 10
1758.3305584531
 20
42.5732622726
 30
0.0
 11
1766.2702341626
 21
42.5732622726
 31
0.0
  0
LINE
  5
26C
330
1F
100
AcDbEntity
  8
PROFILES_OUTSIDE
100
AcDbLine
 10
1754.8682800697
 20
30.0712622726
 30
0.0
 11
1754.8682800697
 21
32.0950806329
 31
0.0
  0
LINE
  5
26D
330
1F
100
AcDbEntity
  8
PROFILES_OUTSIDE
100
AcDbLine
 10
1666.8682800697
 20
30.0712622726
 30
0.0
 11
1754.8682800697
 21
30.0712622726
 31
0.0
  0
LINE
  5
26E
330
1F
100
AcDbEntity
  8
PROFILES_OUTSIDE
100
AcDbLine
 10
1654.8682800697
 20
142.8737002657
 30
0.0
 11
1654.8682800697
 21
42.0712622726
 31
0.0
  0
LINE
  5
26F
330
1F
100
AcDbEntity
  8
PROFILES_OUTSIDE
100
AcDbLine
 10
1616.8682800697
 20
154.8737002657
 30
0.0
 11
1642.8682800697
 21
154.8737002657
 31
0.0
  0
LINE
  5
270
330
1F
100
AcDbEntity
  8
PROFILES_OUTSIDE
100
AcDbLine
 10
1604.8682800697
 20
42.0712622726
 30
0.0
 11
1604.8682800697
 21
142.8737002657
 31
0.0
  0
LINE
  5
271
330
1F
100
AcDbEntity
  8
PROFILES_OUTSIDE
100
AcDbLine
 10
1504.8682800697
 20
30.0712622726
 30
0.0
 11
1592.8682800697
 21
30.0712622726
 31
0.0
  0
LINE
  5
272
330
1F
100
AcDbEntity
  8
PROFILES_OUTSIDE
100
AcDbLine
 10
841.4282800697
 20
155.2400382181
 30
0.0
 11
841.4282800697
 21
807.3168897373
 31
0.0
  0
LINE
  5
273
330
1F
100
AcDbEntity
  8
POCKETS
100
AcDbLine
 10
439.3244351135
 20
94.4360222866
 30
0.0
 11
438.2193002954
 21
107.0677710584
 31
0.0
  0
LINE
  5
274
330
1F
100
AcDbEntity
  8
PROFILES_OUTSIDE
100
AcDbLine
 10
856.4701691357
 20
147.5531495479
 30
0.0
 11
846.3863910037
 21
149.3311917
 31
0.0
  0
LINE
  5
275
330
1F
100
AcDbEntity
  8
POCKETS
100
AcDbLine
 10
429.3624881326
 20
93.5644648592
 30
0.0
 11
439.3244351135
 21
94.4360222866
 31
0.0
  0
LINE
  5
276
330
1F
100
AcDbEntity
  8
POCKETS
100
AcDbLine
 10
25.6392068249
 20
58.2432545432
 30
0.0
 11
429.3624881326
 21
93.5644648592
 31
0.0
  0
LINE
  5
277
330
1F
100
AcDbEntity
  8
POCKETS
100
AcDbLine
 10
15.677259844
 20
57.3716971158
 30
0.0
 11
25.6392068249
 21
58.2432545432
 31
0.0
  0
LINE
  5
278
330
1F
100
AcDbEntity
  8
POCKETS
100
AcDbLine
 10
14.5721250259
 20
70.0034458876
 30
0.0
 11
15.677259844
 21
57.3716971158
 31
0.0
  0
LINE
  5
279
330
1F
100
AcDbEntity
  8
POCKETS
100
AcDbLine
 10
24.5340720068
 20
70.8750033151
 30
0.0
 11
14.5721250259
 21
70.0034458876
 31
0.0
  0
LINE
  5
27A
330
1F
100
AcDbEntity
  8
POCKETS
100
AcDbLine
 10
375.6082800697
 20
101.5900165769
 30
0.0
 11
24.5340720068
 21
70.8750033151
 31
0.0
  0
LINE
  5
27B
330
1F
100
AcDbEntity
  8
POCKETS
100
AcDbLine
 10
375.6082800697
 20
860.9669113786
 30
0.0
 11
375.6082800697
 21
101.5900165769
 31
0.0
  0
LINE
  5
27C
330
1F
100
AcDbEntity
  8
POCKETS
100
AcDbLine
 10
24.5340720068
 20
891.6819246404
 30
0.0
 11
375.6082800697
 21
860.9669113786
 31
0.0
  0
LINE
  5
27D
330
1F
100
AcDbEntity
  8
POCKETS
100
AcDbLine
 10
14.5721250259
 20
892.5534820679
 30
0.0
 11
24.5340720068
 21
891.6819246404
 31
0.0
  0
LINE
  5
27E
330
1F
100
AcDbEntity
  8
POCKETS
100
AcDbLine
 10
15.677259844
 20
905.1852308397
 30
0.0
 11
14.5721250259
 21
892.5534820679
 31
0.0
  0
LINE
  5
27F
330
1F
100
AcDbEntity
  8
POCKETS
100
AcDbLine
 10
25.6392068249
 20
904.3136734122
 30
0.0
 11
15.677259844
 21
905.1852308397
 31
0.0
  0
LINE
  5
280
330
1F
100
AcDbEntity
  8
POCKETS
100
AcDbLine
 10
429.3624881326
 20
868.9924630963
 30
0.0
 11
25.6392068249
 21
904.3136734122
 31
0.0
  0
LINE
  5
281
330
1F
100
AcDbEntity
  8
POCKETS
100
AcDbLine
 10
439.3244351135
 20
868.1209056688
 30
0.0
 11
429.3624881326
 21
868.9924630963
 31
0.0
  0
LINE
  5
282
330
1F
100
AcDbEntity
  8
POCKETS
100
AcDbLine
 10
438.2193002954
 20
855.489156897
 30
0.0
 11
439.3244351135
 21
868.1209056688
 31
0.0
  0
LINE
  5
283
330
1F
100
AcDbEntity
  8
POCKETS
100
AcDbLine
 10
428.2573533145
 20
856.3607143245
 30
0.0
 11
438.2193002954
 21
855.489156897
 31
0.0
  0
LINE
  5
284
330
1F
100
AcDbEntity
  8
POCKETS
100
AcDbLine
 10
387.9482800697
 20
859.8873012706
 30
0.0
 11
428.2573533145
 21
856.3607143245
 31
0.0
  0
LINE
  5
285
330
1F
100
AcDbEntity
  8
PROFILES_OUTSIDE
100
AcDbLine
 10
1504.8682800697
 20
32.0950806329
 30
0.0
 11
1504.8682800697
 21
30.0712622726
 31
0.0
  0
LINE
  5
286
330
1F
100
AcDbEntity
  8
PROFILES_OUTSIDE
100
AcDbLine
 10
1493.4663259768
 20
42.5732622726
 30
0.0
 11
1501.4060016863
 21
42.5732622726
 31
0.0
  0
LINE
  5
287
330
1F
100
AcDbEntity
  8
PROFILES_OUTSIDE
100
AcDbLine
 10
1492.1282800697
 20
36.3232622726
 30
0.0
 11
1492.4683677068
 21
41.6371316019
 31
0.0
  0
LINE
  5
288
330
1F
100
AcDbEntity
  8
PROFILES_OUTSIDE
100
AcDbLine
 10
1480.8682800697
 20
36.3232622726
 30
0.0
 11
1492.1282800697
 21
36.3232622726
 31
0.0
  0
LINE
  5
289
330
1F
100
AcDbEntity
  8
PROFILES_OUTSIDE
100
AcDbLine
 10
1479.8682800697
 20
49.0732622726
 30
0.0
 11
1479.8682800697
 21
37.3232622726
 31
0.0
  0
LINE
  5
28A
330
1F
100
AcDbEntity
  8
PROFILES_OUTSIDE
100
AcDbLine
 10
1573.8182800697
 20
55.0732622726
 30
0.0
 11
1485.8682800697
 21
55.0732622726
 31
0.0
  0
LINE
  5
28B
330
1F
100
AcDbEntity
  8
PROFILES_OUTSIDE
100
AcDbLine
 10
1585.8182800697
 20
154.8737002657
 30
0.0
 11
1585.8182800697
 21
67.0732622726
 31
0.0
  0
LINE
  5
28C
330
1F
100
AcDbEntity
  8
PROFILES_OUTSIDE
100
AcDbLine
 10
1604.8682800697
 20
234.6805703746
 30
0.0
 11
1604.8682800697
 21
187.8692681499
 31
0.0
  0
LINE
  5
28D
330
1F
100
AcDbEntity
  8
PROFILES_OUTSIDE
100
AcDbLine
 10
1585.8182800697
 20
355.4765762519
 30
0.0
 11
1585.8182800697
 21
267.6761382588
 31
0.0
  0
LINE
  5
28E
330
1F
100
AcDbEntity
  8
PROFILES_OUTSIDE
100
AcDbLine
 10
1485.8682800697
 20
367.4765762519
 30
0.0
 11
1573.8182800697
 21
367.4765762519
 31
0.0
  0
LINE
  5
28F
330
1F
100
AcDbEntity
  8
PROFILES_OUTSIDE
100
AcDbLine
 10
1479.8682800697
 20
385.2265762519
 30
0.0
 11
1479.8682800697
 21
373.4765762519
 31
0.0
  0
LINE
  5
290
330
1F
100
AcDbEntity
  8
POCKETS
100
AcDbLine
 10
387.9482800697
 20
102.6696266848
 30
0.0
 11
387.9482800697
 21
859.8873012706
 31
0.0
  0
LINE
  5
291
330
1F
100
AcDbEntity
  8
PROFILES_OUTSIDE
100
AcDbLine
 10
1767.6082800697
 20
430.2065762519
 30
0.0
 11
1778.8682800697
 21
430.2065762519
 31
0.0
  0
LINE
  5
292
330
1F
100
AcDbEntity
  8
PROFILES_OUTSIDE
100
AcDbLine
 10
1767.2681924326
 20
435.5204455812
 30
0.0
 11
1767.6082800697
 21
430.2065762519
 31
0.0
  0
LINE
  5
293
330
1F
100
AcDbEntity
  8
PROFILES_OUTSIDE
100
AcDbLine
 10
1758.3305584531
 20
436.4565762519
 30
0.0
 11
1766.2702341626
 21
436.4565762519
 31
0.0
  0
LINE
  5
294
330
1F
100
AcDbEntity
  8
PROFILES_OUTSIDE
100
AcDbLine
 10
1754.8682800697
 20
423.9545762519
 30
0.0
 11
1754.8682800697
 21
425.9783946121
 31
0.0
  0
LINE
  5
295
330
1F
100
AcDbEntity
  8
PROFILES_OUTSIDE
100
AcDbLine
 10
1666.8682800697
 20
423.9545762519
 30
0.0
 11
1754.8682800697
 21
423.9545762519
 31
0.0
  0
LINE
  5
296
330
1F
100
AcDbEntity
  8
PROFILES_OUTSIDE
100
AcDbLine
 10
1654.8682800697
 20
536.757014245
 30
0.0
 11
1654.8682800697
 21
435.9545762519
 31
0.0
  0
LINE
  5
297
330
1F
100
AcDbEntity
  8
PROFILES_OUTSIDE
100
AcDbLine
 10
1616.8682800697
 20
548.757014245
 30
0.0
 11
1642.8682800697
 21
548.757014245
 31
0.0
  0
LINE
  5
298
330
1F
100
AcDbEntity
  8
PROFILES_OUTSIDE
100
AcDbLine
 10
1604.8682800697
 20
435.9545762519
 30
0.0
 11
1604.8682800697
 21
536.757014245
 31
0.0
  0
LINE
  5
299
330
1F
100
AcDbEntity
  8
PROFILES_OUTSIDE
100
AcDbLine
 10
1504.8682800697
 20
423.9545762519
 30
0.0
 11
1592.8682800697
 21
423.9545762519
 31
0.0
  0
LINE
  5
29A
330
1F
100
AcDbEntity
  8
PROFILES_OUTSIDE
100
AcDbLine
 10
1504.8682800697
 20
425.9783946121
 30
0.0
 11
1504.8682800697
 21
423.9545762519
 31
0.0
  0
LINE
  5
29B
330
1F
100
AcDbEntity
  8
PROFILES_OUTSIDE
100
AcDbLine
 10
1493.4663259768
 20
436.4565762519
 30
0.0
 11
1501.4060016863
 21
436.4565762519
 31
0.0
  0
LINE
  5
29C
330
1F
100
AcDbEntity
  8
PROFILES_OUTSIDE
100
AcDbLine
 10
1492.1282800697
 20
430.2065762519
 30
0.0
 11
1492.4683677068
 21
435.5204455812
 31
0.0
  0
LINE
  5
29D
330
1F
100
AcDbEntity
  8
PROFILES_OUTSIDE
100
AcDbLine
 10
1480.8682800697
 20
430.2065762519
 30
0.0
 11
1492.1282800697
 21
430.2065762519
 31
0.0
  0
LINE
  5
29E
330
1F
100
AcDbEntity
  8
PROFILES_OUTSIDE
100
AcDbLine
 10
1479.8682800697
 20
442.9565762519
 30
0.0
 11
1479.8682800697
 21
431.2065762519
 31
0.0
  0
LINE
  5
29F
330
1F
100
AcDbEntity
  8
PROFILES_OUTSIDE
100
AcDbLine
 10
1573.8182800697
 20
448.9565762519
 30
0.0
 11
1485.8682800697
 21
448.9565762519
 31
0.0
  0
LINE
  5
2A0
330
1F
100
AcDbEntity
  8
PROFILES_OUTSIDE
100
AcDbLine
 10
1585.8182800697
 20
548.757014245
 30
0.0
 11
1585.8182800697
 21
460.9565762519
 31
0.0
  0
LINE
  5
2A1
330
1F
100
AcDbEntity
  8
PROFILES_OUTSIDE
100
AcDbLine
 10
1604.8682800697
 20
628.5638843539
 30
0.0
 11
1604.8682800697
 21
581.7525821291
 31
0.0
  0
LINE
  5
2A2
330
1F
100
AcDbEntity
  8
PROFILES_OUTSIDE
100
AcDbLine
 10
1585.8182800697
 20
749.3598902311
 30
0.0
 11
1585.8182800697
 21
661.559452238
 31
0.0
  0
LINE
  5
2A3
330
1F
100
AcDbEntity
  8
PROFILES_OUTSIDE
100
AcDbLine
 10
1485.8682800697
 20
761.3598902311
 30
0.0
 11
1573.8182800697
 21
761.3598902311
 31
0.0
  0
LINE
  5
2A4
330
1F
100
AcDbEntity
  8
PROFILES_OUTSIDE
100
AcDbLine
 10
1479.8682800697
 20
779.1098902311
 30
0.0
 11
1479.8682800697
 21
767.3598902311
 31
0.0
  0
LINE
  5
2A5
330
1F
100
AcDbEntity
  8
PROFILES_OUTSIDE
100
AcDbLine
 10
1492.1282800697
 20
780.1098902311
 30
0.0
 11
1480.8682800697
 21
780.1098902311
 31
0.0
  0
LINE
  5
2A6
330
1F
100
AcDbEntity
  8
PROFILES_OUTSIDE
100
AcDbLine
 10
1492.4683677068
 20
774.7960209018
 30
0.0
 11
1492.1282800697
 21
780.1098902311
 31
0.0
  0
LINE
  5
2A7
330
1F
100
AcDbEntity
  8
PROFILES_OUTSIDE
100
AcDbLine
 10
1501.4060016863
 20
773.8598902311
 30
0.0
 11
1493.4663259768
 21
773.8598902311
 31
0.0
  0
LINE
  5
2A8
330
1F
100
AcDbEntity
  8
PROFILES_OUTSIDE
100
AcDbLine
 10
1504.8682800697
 20
786.3618902311
 30
0.0
 11
1504.8682800697
 21
784.3380718709
 31
0.0
  0
LINE
  5
2A9
330
1F
100
AcDbEntity
  8
PROFILES_OUTSIDE
100
AcDbLine
 10
1592.8682800697
 20
786.3618902311
 30
0.0
 11
1504.8682800697
 21
786.3618902311
 31
0.0
  0
LINE
  5
2AA
330
1F
100
AcDbEntity
  8
PROFILES_OUTSIDE
100
AcDbLine
 10
1604.8682800697
 20
673.559452238
 30
0.0
 11
1604.8682800697
 21
774.3618902311
 31
0.0
  0
LINE
  5
2AB
330
1F
100
AcDbEntity
  8
PROFILES_OUTSIDE
100
AcDbLine
 10
1642.8682800697
 20
661.559452238
 30
0.0
 11
1616.8682800697
 21
661.559452238
 31
0.0
  0
LINE
  5
2AC
330
1F
100
AcDbEntity
  8
PROFILES_OUTSIDE
100
AcDbLine
 10
1654.8682800697
 20
774.3618902311
 30
0.0
 11
1654.8682800697
 21
673.559452238
 31
0.0
  0
LINE
  5
2AD
330
1F
100
AcDbEntity
  8
PROFILES_OUTSIDE
100
AcDbLine
 10
1754.8682800697
 20
786.3618902311
 30
0.0
 11
1666.8682800697
 21
786.3618902311
 31
0.0
  0
LINE
  5
2AE
330
1F
100
AcDbEntity
  8
PROFILES_OUTSIDE
100
AcDbLine
 10
1754.8682800697
 20
784.3380718709
 30
0.0
 11
1754.8682800697
 21
786.3618902311
 31
0.0
  0
LINE
  5
2AF
330
1F
100
AcDbEntity
  8
PROFILES_OUTSIDE
100
AcDbLine
 10
1766.2702341626
 20
773.8598902311
 30
0.0
 11
1758.3305584531
 21
773.8598902311
 31
0.0
  0
LINE
  5
2B0
330
1F
100
AcDbEntity
  8
PROFILES_OUTSIDE
100
AcDbLine
 10
1767.6082800697
 20
780.1098902311
 30
0.0
 11
1767.2681924326
 21
774.7960209018
 31
0.0
  0
LINE
  5
2B1
330
1F
100
AcDbEntity
  8
PROFILES_OUTSIDE
100
AcDbLine
 10
1778.8682800697
 20
780.1098902311
 30
0.0
 11
1767.6082800697
 21
780.1098902311
 31
0.0
  0
LINE
  5
2B2
330
1F
100
AcDbEntity
  8
PROFILES_OUTSIDE
100
AcDbLine
 10
1779.8682800697
 20
767.3598902311
 30
0.0
 11
1779.8682800697
 21
779.1098902311
 31
0.0
  0
LINE
  5
2B3
330
1F
100
AcDbEntity
  8
PROFILES_OUTSIDE
100
AcDbLine
 10
1685.9182800697
 20
761.3598902311
 30
0.0
 11
1773.8682800697
 21
761.3598902311
 31
0.0
  0
LINE
  5
2B4
330
1F
100
AcDbEntity
  8
PROFILES_OUTSIDE
100
AcDbLine
 10
1673.9182800697
 20
661.559452238
 30
0.0
 11
1673.9182800697
 21
749.3598902311
 31
0.0
  0
LINE
  5
2B5
330
1F
100
AcDbEntity
  8
PROFILES_OUTSIDE
100
AcDbLine
 10
1654.8682800697
 20
581.7525821291
 30
0.0
 11
1654.8682800697
 21
628.5638843539
 31
0.0
  0
LINE
  5
2B6
330
1F
100
AcDbEntity
  8
PROFILES_OUTSIDE
100
AcDbLine
 10
1673.9182800697
 20
460.9565762519
 30
0.0
 11
1673.9182800697
 21
548.757014245
 31
0.0
  0
LINE
  5
2B7
330
1F
100
AcDbEntity
  8
PROFILES_OUTSIDE
100
AcDbLine
 10
1773.8682800697
 20
448.9565762519
 30
0.0
 11
1685.9182800697
 21
448.9565762519
 31
0.0
  0
LINE
  5
2B8
330
1F
100
AcDbEntity
  8
PROFILES_OUTSIDE
100
AcDbLine
 10
1779.8682800697
 20
431.2065762519
 30
0.0
 11
1779.8682800697
 21
442.9565762519
 31
0.0
  0
LINE
  5
2B9
330
1F
100
AcDbEntity
  8
POCKETS
100
AcDbLine
 10
428.2573533145
 20
106.196213631
 30
0.0
 11
387.9482800697
 21
102.6696266848
 31
0.0
  0
LINE
  5
2BA
330
1F
100
AcDbEntity
  8
POCKETS
100
AcDbLine
 10
821.4282800697
 20
859.8873012706
 30
0.0
 11
861.7373533145
 21
856.3607143245
 31
0.0
  0
LINE
  5
2BB
330
1F
100
AcDbEntity
  8
POCKETS
100
AcDbLine
 10
861.7373533145
 20
856.3607143245
 30
0.0
 11
871.6993002954
 21
855.489156897
 31
0.0
  0
LINE
  5
2BC
330
1F
100
AcDbEntity
  8
POCKETS
100
AcDbLine
 10
871.6993002954
 20
855.489156897
 30
0.0
 11
872.8044351135
 21
868.1209056688
 31
0.0
  0
LINE
  5
2BD
330
1F
100
AcDbEntity
  8
POCKETS
100
AcDbLine
 10
872.8044351135
 20
868.1209056688
 30
0.0
 11
862.8424881326
 21
868.9924630963
 31
0.0
  0
LINE
  5
2BE
330
1F
100
AcDbEntity
  8
POCKETS
100
AcDbLine
 10
862.8424881326
 20
868.9924630963
 30
0.0
 11
460.1650757379
 21
904.2221717388
 31
0.0
  0
LINE
  5
2BF
330
1F
100
AcDbEntity
  8
POCKETS
100
AcDbLine
 10
460.1650757379
 20
904.2221717388
 30
0.0
 11
450.2031287569
 21
905.0937291663
 31
0.0
  0
LINE
  5
2C0
330
1F
100
AcDbEntity
  8
POCKETS
100
AcDbLine
 10
450.2031287569
 20
905.0937291663
 30
0.0
 11
449.0979939389
 21
892.4619803945
 31
0.0
  0
LINE
  5
2C1
330
1F
100
AcDbEntity
  8
POCKETS
100
AcDbLine
 10
449.0979939389
 20
892.4619803945
 30
0.0
 11
459.0599409198
 21
891.590422967
 31
0.0
  0
LINE
  5
2C2
330
1F
100
AcDbEntity
  8
POCKETS
100
AcDbLine
 10
459.0599409198
 20
891.590422967
 30
0.0
 11
809.0882800697
 21
860.9669113786
 31
0.0
  0
LINE
  5
2C3
330
1F
100
AcDbEntity
  8
POCKETS
100
AcDbLine
 10
809.0882800697
 20
860.9669113786
 30
0.0
 11
809.0882800697
 21
101.5900165769
 31
0.0
  0
LINE
  5
2C4
330
1F
100
AcDbEntity
  8
POCKETS
100
AcDbLine
 10
809.0882800697
 20
101.5900165769
 30
0.0
 11
459.0599409198
 21
70.9665049885
 31
0.0
  0
LINE
  5
2C5
330
1F
100
AcDbEntity
  8
POCKETS
100
AcDbLine
 10
459.0599409198
 20
70.9665049885
 30
0.0
 11
449.0979939389
 21
70.094947561
 31
0.0
  0
LINE
  5
2C6
330
1F
100
AcDbEntity
  8
POCKETS
100
AcDbLine
 10
449.0979939389
 20
70.094947561
 30
0.0
 11
450.2031287569
 21
57.4631987892
 31
0.0
  0
LINE
  5
2C7
330
1F
100
AcDbEntity
  8
POCKETS
100
AcDbLine
 10
450.2031287569
 20
57.4631987892
 30
0.0
 11
460.1650757379
 21
58.3347562167
 31
0.0
  0
LINE
  5
2C8
330
1F
100
AcDbEntity
  8
POCKETS
100
AcDbLine
 10
460.1650757379
 20
58.3347562167
 30
0.0
 11
862.8424881326
 21
93.5644648592
 31
0.0
  0
LINE
  5
2C9
330
1F
100
AcDbEntity
  8
POCKETS
100
AcDbLine
 10
862.8424881326
 20
93.5644648592
 30
0.0
 11
872.8044351135
 21
94.4360222866
 31
0.0
  0
LINE
  5
2CA
330
1F
100
AcDbEntity
  8
POCKETS
100
AcDbLine
 10
872.8044351135
 20
94.4360222866
 30
0.0
 11
871.6993002954
 21
107.0677710584
 31
0.0
  0
LINE
  5
2CB
330
1F
100
AcDbEntity
  8
POCKETS
100
AcDbLine
 10
871.6993002954
 20
107.0677710584
 30
0.0
 11
861.7373533145
 21
106.196213631
 31
0.0
  0
LINE
  5
2CC
330
1F
100
AcDbEntity
  8
POCKETS
100
AcDbLine
 10
861.7373533145
 20
106.196213631
 30
0.0
 11
821.4282800697
 21
102.6696266848
 31
0.0
  0
LINE
  5
2CD
330
1F
100
AcDbEntity
  8
POCKETS
100
AcDbLine
 10
821.4282800697
 20
102.6696266848
 30
0.0
 11
821.4282800697
 21
859.8873012706
 31
0.0
  0
LINE
  5
2CE
330
1F
100
AcDbEntity
  8
PROFILES_OUTSIDE
100
AcDbLine
 10
861.4282800697
 20
72.176887861
 30
0.0
 11
861.4282800697
 21
141.6443030298
 31
0.0
  0
LINE
  5
2CF
330
1F
100
AcDbEntity
  8
PROFILES_OUTSIDE
100
AcDbLine
 10
465.9512145262
 20
32.0791408973
 30
0.0
 11
855.9512145262
 21
66.1997196724
 31
0.0
  0
ARC
  5
2D0
330
1F
100
AcDbEntity
  8
PROFILES_OUTSIDE
100
AcDbCircle
 10
421.9482800697
 20
141.6443030298
 30
0.0
 40
6.0
100
AcDbArc
 50
0.0
 51
80.0
  0
ARC
  5
2D1
330
1F
100
AcDbEntity
  8
PROFILES_OUTSIDE
100
AcDbCircle
 10
413.9482800697
 20
155.2400382181
 30
0.0
 40
6.0
100
AcDbArc
 50
180.0
 51
260.0
  0
ARC
  5
2D2
330
1F
100
AcDbEntity
  8
PROFILES_OUTSIDE
100
AcDbCircle
 10
413.9482800697
 20
807.3168897373
 30
0.0
 40
6.00000000000012
100
AcDbArc
 50
100.0
 51
180.0
  0
ARC
  5
2D3
330
1F
100
AcDbEntity
  8
PROFILES_OUTSIDE
100
AcDbCircle
 10
421.9482800697
 20
820.9126249256
 30
0.0
 40
6.0
100
AcDbArc
 50
280.0
 51
0.0
  0
ARC
  5
2D4
330
1F
100
AcDbEntity
  8
PROFILES_INSIDE
100
AcDbCircle
 10
421.9482800697
 20
635.8804268981
 30
0.0
 40
6.0
100
AcDbArc
 50
280.0
 51
0.0
  0
ARC
  5
2D5
330
1F
100
AcDbEntity
  8
PROFILES_OUTSIDE
100
AcDbCircle
 10
1778.8682800697
 20
385.2265762519
 30
0.0
 40
1.0
100
AcDbArc
 50
0.0
 51
90.0
  0
ARC
  5
2D6
330
1F
100
AcDbEntity
  8
PROFILES_INSIDE
100
AcDbCircle
 10
391.0901153991
 20
885.2198726471
 30
0.0
 40
1.000000000000078
100
AcDbArc
 50
265.0000647817
 51
337.3995467073
  0
ARC
  5
2D7
330
1F
100
AcDbEntity
  8
PROFILES_INSIDE
100
AcDbCircle
 10
396.7863036797
 20
882.8487254411
 30
0.0
 40
5.170000000000024
100
AcDbArc
 50
330.1122190803
 51
157.3995467073
  0
ARC
  5
2D8
330
1F
100
AcDbEntity
  8
PROFILES_INSIDE
100
AcDbCircle
 10
402.1357529816
 20
879.7741735398
 30
0.0
 40
1.000046776821427
100
AcDbArc
 50
150.1122190803
 51
175.0
  0
ARC
  5
2D9
330
1F
100
AcDbEntity
  8
PROFILES_INSIDE
100
AcDbCircle
 10
401.6637203052
 20
874.3793520628
 30
0.0
 40
1.00000000000002
100
AcDbArc
 50
175.0
 51
199.8879072801
  0
ARC
  5
2DA
330
1F
100
AcDbEntity
  8
PROFILES_INSIDE
100
AcDbCircle
 10
395.8616994395
 20
872.2804347529
 30
0.0
 40
5.170000000000036
100
AcDbArc
 50
192.600480279
 51
19.8879072801
  0
ARC
  5
2DB
330
1F
100
AcDbEntity
  8
PROFILES_INSIDE
100
AcDbCircle
 10
389.8403043008
 20
870.9344404794
 30
0.0
 40
0.9999999999999896
100
AcDbArc
 50
12.600480279
 51
85.0000647817
  0
ARC
  5
2DC
330
1F
100
AcDbEntity
  8
PROFILES_INSIDE
100
AcDbCircle
 10
385.8120544404
 20
871.2868620866
 30
0.0
 40
1.000000000000056
100
AcDbArc
 50
85.0000647817
 51
157.3995467073
  0
ARC
  5
2DD
330
1F
100
AcDbEntity
  8
PROFILES_INSIDE
100
AcDbCircle
 10
380.1158661598
 20
873.6580092926
 30
0.0
 40
5.170000000000067
100
AcDbArc
 50
150.1121232273
 51
337.3995467073
  0
ARC
  5
2DE
330
1F
100
AcDbEntity
  8
PROFILES_INSIDE
100
AcDbCircle
 10
374.766462557
 20
876.7325468342
 30
0.0
 40
1.00000000000001
100
AcDbArc
 50
330.1121232273
 51
355.0
  0
ARC
  5
2DF
330
1F
100
AcDbEntity
  8
PROFILES_INSIDE
100
AcDbCircle
 10
375.238450434
 20
882.1273929537
 30
0.0
 40
0.999998180021776
100
AcDbArc
 50
355.0
 51
19.8878203283
  0
ARC
  5
2E0
330
1F
100
AcDbEntity
  8
PROFILES_INSIDE
100
AcDbCircle
 10
381.0404704
 20
884.2262999808
 30
0.0
 40
5.169998264729031
100
AcDbArc
 50
12.600480279
 51
199.8878203283
  0
ARC
  5
2E1
330
1F
100
AcDbEntity
  8
PROFILES_INSIDE
100
AcDbCircle
 10
387.0618655387
 20
885.5722942543
 30
0.0
 40
1.000001735270884
100
AcDbArc
 50
192.600480279
 51
265.0000647817
  0
ARC
  5
2E2
330
1F
100
AcDbEntity
  8
PROFILES_INSIDE
100
AcDbCircle
 10
90.9212279292
 20
907.0019164065
 30
0.0
 40
1.000046776821402
100
AcDbArc
 50
150.1122190803
 51
175.0
  0
ARC
  5
2E3
330
1F
100
AcDbEntity
  8
PROFILES_INSIDE
100
AcDbCircle
 10
85.5717786272
 20
910.0764683078
 30
0.0
 40
5.170000000000024
100
AcDbArc
 50
330.1122190803
 51
157.3995467073
  0
ARC
  5
2E4
330
1F
100
AcDbEntity
  8
PROFILES_INSIDE
100
AcDbCircle
 10
79.8755903467
 20
912.4476155138
 30
0.0
 40
1.000000000000082
100
AcDbArc
 50
265.0000647817
 51
337.3995467073
  0
ARC
  5
2E5
330
1F
100
AcDbEntity
  8
PROFILES_INSIDE
100
AcDbCircle
 10
75.8473404863
 20
912.800037121
 30
0.0
 40
1.000000946511309
100
AcDbArc
 50
192.600480279
 51
265.0000647817
  0
ARC
  5
2E6
330
1F
100
AcDbEntity
  8
PROFILES_INSIDE
100
AcDbCircle
 10
69.8259453476
 20
911.4540428475
 30
0.0
 40
5.169999053488635
100
AcDbArc
 50
12.600480279
 51
199.8878203283
  0
ARC
  5
2E7
330
1F
100
AcDbEntity
  8
PROFILES_INSIDE
100
AcDbCircle
 10
64.0239253816
 20
909.3551358204
 30
0.0
 40
0.9999980222700322
100
AcDbArc
 50
355.0
 51
19.8878203283
  0
ARC
  5
2E8
330
1F
100
AcDbEntity
  8
PROFILES_INSIDE
100
AcDbCircle
 10
63.5519375046
 20
903.9602897008
 30
0.0
 40
1.000000000000036
100
AcDbArc
 50
330.1121232273
 51
355.0
  0
ARC
  5
2E9
330
1F
100
AcDbEntity
  8
PROFILES_INSIDE
100
AcDbCircle
 10
68.9013411074
 20
900.8857521593
 30
0.0
 40
5.169999999999981
100
AcDbArc
 50
150.1121232273
 51
337.3995467073
  0
ARC
  5
2EA
330
1F
100
AcDbEntity
  8
PROFILES_INSIDE
100
AcDbCircle
 10
74.597529388
 20
898.5146049533
 30
0.0
 40
1.00000000000003
100
AcDbArc
 50
85.0000647817
 51
157.3995467073
  0
ARC
  5
2EB
330
1F
100
AcDbEntity
  8
PROFILES_INSIDE
100
AcDbCircle
 10
78.6257792484
 20
898.1621833461
 30
0.0
 40
0.9999999999999786
100
AcDbArc
 50
12.600480279
 51
85.0000647817
  0
ARC
  5
2EC
330
1F
100
AcDbEntity
  8
PROFILES_INSIDE
100
AcDbCircle
 10
84.647174387
 20
899.5081776196
 30
0.0
 40
5.169999999999891
100
AcDbArc
 50
192.600480279
 51
19.8879072801
  0
ARC
  5
2ED
330
1F
100
AcDbEntity
  8
PROFILES_INSIDE
100
AcDbCircle
 10
90.4491952527
 20
901.6070949295
 30
0.0
 40
1.000000000000139
100
AcDbArc
 50
175.0
 51
199.8879072801
  0
ARC
  5
2EE
330
1F
100
AcDbEntity
  8
PROFILES_INSIDE
100
AcDbCircle
 10
396.7863044171
 20
79.7082099489
 30
0.0
 40
5.170000000000081
100
AcDbArc
 50
202.600480279
 51
29.8879072801
  0
ARC
  5
2EF
330
1F
100
AcDbEntity
  8
PROFILES_INSIDE
100
AcDbCircle
 10
402.1357063828
 20
82.7827503388
 30
0.0
 40
0.9999999999999425
100
AcDbArc
 50
185.0
 51
209.8879072801
  0
ARC
  5
2F0
330
1F
100
AcDbEntity
  8
PROFILES_INSIDE
100
AcDbCircle
 10
401.663766904
 20
88.1775799695
 30
0.0
 40
1.000046776821536
100
AcDbArc
 50
160.1122190803
 51
185.0
  0
ARC
  5
2F1
330
1F
100
AcDbEntity
  8
PROFILES_INSIDE
100
AcDbCircle
 10
395.8616974222
 20
90.2765003961
 30
0.0
 40
5.170000000000092
100
AcDbArc
 50
340.1122190803
 51
167.3995467073
  0
ARC
  5
2F2
330
1F
100
AcDbEntity
  8
PROFILES_INSIDE
100
AcDbCircle
 10
389.8403016496
 20
91.6224918335
 30
0.0
 40
0.999999999999917
100
AcDbArc
 50
275.0000647817
 51
347.3995467073
  0
ARC
  5
2F3
330
1F
100
AcDbEntity
  8
PROFILES_INSIDE
100
AcDbCircle
 10
385.8120525862
 20
91.2700611172
 30
0.0
 40
1.000000788759439
100
AcDbArc
 50
202.600480279
 51
275.0000647817
  0
ARC
  5
2F4
330
1F
100
AcDbEntity
  8
PROFILES_INSIDE
100
AcDbCircle
 10
380.1158654224
 20
88.8989112283
 30
0.0
 40
5.169999211240546
100
AcDbArc
 50
22.600480279
 51
209.8878203283
  0
ARC
  5
2F5
330
1F
100
AcDbEntity
  8
PROFILES_INSIDE
100
AcDbCircle
 10
374.766462557
 20
85.8243811213
 30
0.0
 40
0.9999978645181086
100
AcDbArc
 50
5.0
 51
29.8878203283
  0
ARC
  5
2F6
330
1F
100
AcDbEntity
  8
PROFILES_INSIDE
100
AcDbCircle
 10
375.238450434
 20
80.4295350017
 30
0.0
 40
1.000000000000057
100
AcDbArc
 50
340.1121232273
 51
5.0
  0
ARC
  5
2F7
330
1F
100
AcDbEntity
  8
PROFILES_INSIDE
100
AcDbCircle
 10
381.0404724173
 20
78.3306207811
 30
0.0
 40
5.170000000000035
100
AcDbArc
 50
160.1121232273
 51
347.3995467073
  0
ARC
  5
2F8
330
1F
100
AcDbEntity
  8
PROFILES_INSIDE
100
AcDbCircle
 10
387.0618681899
 20
76.9846293437
 30
0.0
 40
1.00000000000003
100
AcDbArc
 50
95.0000647817
 51
167.3995467073
  0
ARC
  5
2F9
330
1F
100
AcDbEntity
  8
PROFILES_INSIDE
100
AcDbCircle
 10
391.0901172533
 20
77.33706006
 30
0.0
 40
0.9999999999999268
100
AcDbArc
 50
22.600480279
 51
95.0000647817
  0
ARC
  5
2FA
330
1F
100
AcDbEntity
  8
PROFILES_INSIDE
100
AcDbCircle
 10
64.0239253816
 20
53.201792135
 30
0.0
 40
0.9999999999999339
100
AcDbArc
 50
340.1121232273
 51
5.0
  0
ARC
  5
2FB
330
1F
100
AcDbEntity
  8
PROFILES_INSIDE
100
AcDbCircle
 10
69.8259473648
 20
51.1028779144
 30
0.0
 40
5.170000000000011
100
AcDbArc
 50
160.1121232273
 51
347.3995467073
  0
ARC
  5
2FC
330
1F
100
AcDbEntity
  8
PROFILES_INSIDE
100
AcDbCircle
 10
75.8473431374
 20
49.756886477
 30
0.0
 40
1.000000000000037
100
AcDbArc
 50
95.0000647817
 51
167.3995467073
  0
ARC
  5
2FD
330
1F
100
AcDbEntity
  8
PROFILES_INSIDE
100
AcDbCircle
 10
79.8755922009
 20
50.1093171933
 30
0.0
 40
0.9999999999999408
100
AcDbArc
 50
22.600480279
 51
95.0000647817
  0
ARC
  5
2FE
330
1F
100
AcDbEntity
  8
PROFILES_INSIDE
100
AcDbCircle
 10
85.5717793647
 20
52.4804670822
 30
0.0
 40
5.170000000000144
100
AcDbArc
 50
202.600480279
 51
29.8879072801
  0
ARC
  5
2FF
330
1F
100
AcDbEntity
  8
PROFILES_INSIDE
100
AcDbCircle
 10
90.9211813304
 20
55.5550074721
 30
0.0
 40
0.9999999999998962
100
AcDbArc
 50
185.0
 51
209.8879072801
  0
ARC
  5
300
330
1F
100
AcDbEntity
  8
PROFILES_INSIDE
100
AcDbCircle
 10
90.4492418516
 20
60.9498371028
 30
0.0
 40
1.000046776821407
100
AcDbArc
 50
160.1122190803
 51
185.0
  0
ARC
  5
301
330
1F
100
AcDbEntity
  8
PROFILES_INSIDE
100
AcDbCircle
 10
84.6471723698
 20
63.0487575294
 30
0.0
 40
5.170000000000095
100
AcDbArc
 50
340.1122190803
 51
167.3995467073
  0
ARC
  5
302
330
1F
100
AcDbEntity
  8
PROFILES_INSIDE
100
AcDbCircle
 10
78.6257765972
 20
64.3947489669
 30
0.0
 40
0.9999999999999339
100
AcDbArc
 50
275.0000647817
 51
347.3995467073
  0
ARC
  5
303
330
1F
100
AcDbEntity
  8
PROFILES_INSIDE
100
AcDbCircle
 10
74.5975275337
 20
64.0423182505
 30
0.0
 40
1.000000157751924
100
AcDbArc
 50
202.600480279
 51
275.0000647817
  0
ARC
  5
304
330
1F
100
AcDbEntity
  8
PROFILES_INSIDE
100
AcDbCircle
 10
68.90134037
 20
61.6711683616
 30
0.0
 40
5.169999842248054
100
AcDbArc
 50
22.600480279
 51
209.8878203283
  0
ARC
  5
305
330
1F
100
AcDbEntity
  8
PROFILES_INSIDE
100
AcDbCircle
 10
63.5519375046
 20
58.5966382546
 30
0.0
 40
0.9999981800217372
100
AcDbArc
 50
5.0
 51
29.8878203284
  0
ARC
  5
306
330
1F
100
AcDbEntity
  8
PROFILES_INSIDE
100
AcDbCircle
 10
824.5701153991
 20
885.2198726471
 30
0.0
 40
1.000000000000056
100
AcDbArc
 50
265.0000647817
 51
337.3995467073
  0
ARC
  5
307
330
1F
100
AcDbEntity
  8
PROFILES_INSIDE
100
AcDbCircle
 10
830.2663036797
 20
882.8487254411
 30
0.0
 40
5.169999999999972
100
AcDbArc
 50
330.1122190803
 51
157.3995467073
  0
ARC
  5
308
330
1F
100
AcDbEntity
  8
PROFILES_INSIDE
100
AcDbCircle
 10
835.6157529816
 20
879.7741735398
 30
0.0
 40
1.000046776821575
100
AcDbArc
 50
150.1122190803
 51
175.0
  0
ARC
  5
309
330
1F
100
AcDbEntity
  8
PROFILES_INSIDE
100
AcDbCircle
 10
835.1437203052
 20
874.3793520628
 30
0.0
 40
0.9999999999999926
100
AcDbArc
 50
175.0
 51
199.8879072801
  0
ARC
  5
30A
330
1F
100
AcDbEntity
  8
PROFILES_INSIDE
100
AcDbCircle
 10
829.3416994395
 20
872.2804347529
 30
0.0
 40
5.170000000000036
100
AcDbArc
 50
192.600480279
 51
19.8879072801
  0
ARC
  5
30B
330
1F
100
AcDbEntity
  8
PROFILES_INSIDE
100
AcDbCircle
 10
823.3203043008
 20
870.9344404794
 30
0.0
 40
0.9999999999999701
100
AcDbArc
 50
12.600480279
 51
85.0000647817
  0
ARC
  5
30C
330
1F
100
AcDbEntity
  8
PROFILES_INSIDE
100
AcDbCircle
 10
819.2920544404
 20
871.2868620866
 30
0.0
 40
1.000000000000012
100
AcDbArc
 50
85.0000647817
 51
157.3995467073
  0
ARC
  5
30D
330
1F
100
AcDbEntity
  8
PROFILES_INSIDE
100
AcDbCircle
 10
813.5958661598
 20
873.6580092926
 30
0.0
 40
5.169999999999987
100
AcDbArc
 50
150.1121232273
 51
337.3995467073
  0
ARC
  5
30E
330
1F
100
AcDbEntity
  8
PROFILES_INSIDE
100
AcDbCircle
 10
808.246462557
 20
876.7325468342
 30
0.0
 40
1.000000000000087
100
AcDbArc
 50
330.1121232273
 51
355.0
  0
ARC
  5
30F
330
1F
100
AcDbEntity
  8
PROFILES_INSIDE
100
AcDbCircle
 10
808.718450434
 20
882.1273929537
 30
0.0
 40
0.9999981800218227
100
AcDbArc
 50
355.0
 51
19.8878203283
  0
ARC
  5
310
330
1F
100
AcDbEntity
  8
PROFILES_INSIDE
100
AcDbCircle
 10
814.5204704
 20
884.2262999808
 30
0.0
 40
5.169998264729086
100
AcDbArc
 50
12.600480279
 51
199.8878203283
  0
ARC
  5
311
330
1F
100
AcDbEntity
  8
PROFILES_INSIDE
100
AcDbCircle
 10
820.5418655387
 20
885.5722942543
 30
0.0
 40
1.000001735270962
100
AcDbArc
 50
192.600480279
 51
265.0000647817
  0
ARC
  5
312
330
1F
100
AcDbEntity
  8
PROFILES_INSIDE
100
AcDbCircle
 10
524.5452776826
 20
906.9893136861
 30
0.0
 40
1.000046776821417
100
AcDbArc
 50
150.1122190803
 51
175.0
  0
ARC
  5
313
330
1F
100
AcDbEntity
  8
PROFILES_INSIDE
100
AcDbCircle
 10
519.1958283806
 20
910.0638655874
 30
0.0
 40
5.170000000000058
100
AcDbArc
 50
330.1122190803
 51
157.3995467073
  0
ARC
  5
314
330
1F
100
AcDbEntity
  8
PROFILES_INSIDE
100
AcDbCircle
 10
513.4996401
 20
912.4350127934
 30
0.0
 40
1.000000000000083
100
AcDbArc
 50
265.0000647817
 51
337.3995467073
  0
ARC
  5
315
330
1F
100
AcDbEntity
  8
PROFILES_INSIDE
100
AcDbCircle
 10
509.4713902396
 20
912.7874344006
 30
0.0
 40
1.000000946511431
100
AcDbArc
 50
192.600480279
 51
265.0000647817
  0
ARC
  5
316
330
1F
100
AcDbEntity
  8
PROFILES_INSIDE
100
AcDbCircle
 10
503.449995101
 20
911.4414401271
 30
0.0
 40
5.169999053488534
100
AcDbArc
 50
12.600480279
 51
199.8878203283
  0
ARC
  5
317
330
1F
100
AcDbEntity
  8
PROFILES_INSIDE
100
AcDbCircle
 10
497.6479751349
 20
909.3425331
 30
0.0
 40
0.9999980222700563
100
AcDbArc
 50
355.0
 51
19.8878203283
  0
ARC
  5
318
330
1F
100
AcDbEntity
  8
PROFILES_INSIDE
100
AcDbCircle
 10
497.175987258
 20
903.9476869804
 30
0.0
 40
1.000000000000079
100
AcDbArc
 50
330.1121232274
 51
355.0
  0
ARC
  5
319
330
1F
100
AcDbEntity
  8
PROFILES_INSIDE
100
AcDbCircle
 10
502.5253908608
 20
900.8731494389
 30
0.0
 40
5.170000000000001
100
AcDbArc
 50
150.1121232273
 51
337.3995467073
  0
ARC
  5
31A
330
1F
100
AcDbEntity
  8
PROFILES_INSIDE
100
AcDbCircle
 10
508.2215791413
 20
898.5020022329
 30
0.0
 40
1.0000000000001
100
AcDbArc
 50
85.0000647817
 51
157.3995467073
  0
ARC
  5
31B
330
1F
100
AcDbEntity
  8
PROFILES_INSIDE
100
AcDbCircle
 10
512.2498290017
 20
898.1495806257
 30
0.0
 40
1.000000000000187
100
AcDbArc
 50
12.600480279
 51
85.0000647817
  0
ARC
  5
31C
330
1F
100
AcDbEntity
  8
PROFILES_INSIDE
100
AcDbCircle
 10
518.2712241404
 20
899.4955748992
 30
0.0
 40
5.169999999999891
100
AcDbArc
 50
192.600480279
 51
19.8879072801
  0
ARC
  5
31D
330
1F
100
AcDbEntity
  8
PROFILES_INSIDE
100
AcDbCircle
 10
524.0732450061
 20
901.5944922091
 30
0.0
 40
1.000000000000138
100
AcDbArc
 50
175.0
 51
199.8879072801
  0
ARC
  5
31E
330
1F
100
AcDbEntity
  8
PROFILES_INSIDE
100
AcDbCircle
 10
830.2663044171
 20
79.7082099489
 30
0.0
 40
5.170000000000019
100
AcDbArc
 50
202.600480279
 51
29.8879072801
  0
ARC
  5
31F
330
1F
100
AcDbEntity
  8
PROFILES_INSIDE
100
AcDbCircle
 10
835.6157063828
 20
82.7827503388
 30
0.0
 40
0.9999999999998932
100
AcDbArc
 50
185.0
 51
209.8879072801
  0
ARC
  5
320
330
1F
100
AcDbEntity
  8
PROFILES_INSIDE
100
AcDbCircle
 10
835.143766904
 20
88.1775799695
 30
0.0
 40
1.000046776821446
100
AcDbArc
 50
160.1122190803
 51
185.0
  0
ARC
  5
321
330
1F
100
AcDbEntity
  8
PROFILES_INSIDE
100
AcDbCircle
 10
829.3416974222
 20
90.2765003961
 30
0.0
 40
5.169999999999994
100
AcDbArc
 50
340.1122190803
 51
167.3995467073
  0
ARC
  5
322
330
1F
100
AcDbEntity
  8
PROFILES_INSIDE
100
AcDbCircle
 10
823.3203016496
 20
91.6224918335
 30
0.0
 40
1.000000000000006
100
AcDbArc
 50
275.0000647817
 51
347.3995467073
  0
ARC
  5
323
330
1F
100
AcDbEntity
  8
PROFILES_INSIDE
100
AcDbCircle
 10
819.2920525862
 20
91.2700611172
 30
0.0
 40
1.000000788759533
100
AcDbArc
 50
202.600480279
 51
275.0000647817
  0
ARC
  5
324
330
1F
100
AcDbEntity
  8
PROFILES_INSIDE
100
AcDbCircle
 10
813.5958654224
 20
88.8989112283
 30
0.0
 40
5.169999211240493
100
AcDbArc
 50
22.600480279
 51
209.8878203283
  0
ARC
  5
325
330
1F
100
AcDbEntity
  8
PROFILES_INSIDE
100
AcDbCircle
 10
808.246462557
 20
85.8243811213
 30
0.0
 40
0.999997864518057
100
AcDbArc
 50
5.0
 51
29.8878203283
  0
ARC
  5
326
330
1F
100
AcDbEntity
  8
PROFILES_INSIDE
100
AcDbCircle
 10
808.718450434
 20
80.4295350017
 30
0.0
 40
1.00000000000011
100
AcDbArc
 50
340.1121232273
 51
5.0
  0
ARC
  5
327
330
1F
100
AcDbEntity
  8
PROFILES_INSIDE
100
AcDbCircle
 10
814.5204724173
 20
78.3306207811
 30
0.0
 40
5.169999999999981
100
AcDbArc
 50
160.1121232273
 51
347.3995467073
  0
ARC
  5
328
330
1F
100
AcDbEntity
  8
PROFILES_INSIDE
100
AcDbCircle
 10
820.5418681899
 20
76.9846293437
 30
0.0
 40
1.000000000000006
100
AcDbArc
 50
95.0000647817
 51
167.3995467073
  0
ARC
  5
329
330
1F
100
AcDbEntity
  8
PROFILES_INSIDE
100
AcDbCircle
 10
824.5701172533
 20
77.33706006
 30
0.0
 40
1.000000000000026
100
AcDbArc
 50
22.600480279
 51
95.0000647817
  0
ARC
  5
32A
330
1F
100
AcDbEntity
  8
PROFILES_INSIDE
100
AcDbCircle
 10
497.6479751349
 20
53.2143948554
 30
0.0
 40
1.000000000000015
100
AcDbArc
 50
340.1121232274
 51
5.0
  0
ARC
  5
32B
330
1F
100
AcDbEntity
  8
PROFILES_INSIDE
100
AcDbCircle
 10
503.4499971182
 20
51.1154806348
 30
0.0
 40
5.170000000000004
100
AcDbArc
 50
160.1121232273
 51
347.3995467073
  0
ARC
  5
32C
330
1F
100
AcDbEntity
  8
PROFILES_INSIDE
100
AcDbCircle
 10
509.4713928908
 20
49.7694891974
 30
0.0
 40
0.9999999999999956
100
AcDbArc
 50
95.0000647817
 51
167.3995467073
  0
ARC
  5
32D
330
1F
100
AcDbEntity
  8
PROFILES_INSIDE
100
AcDbCircle
 10
513.4996419543
 20
50.1219199137
 30
0.0
 40
1.00000000000005
100
AcDbArc
 50
22.600480279
 51
95.0000647817
  0
ARC
  5
32E
330
1F
100
AcDbEntity
  8
PROFILES_INSIDE
100
AcDbCircle
 10
519.195829118
 20
52.4930698026
 30
0.0
 40
5.170000000000022
100
AcDbArc
 50
202.600480279
 51
29.8879072801
  0
ARC
  5
32F
330
1F
100
AcDbEntity
  8
PROFILES_INSIDE
100
AcDbCircle
 10
524.5452310837
 20
55.5676101925
 30
0.0
 40
1.000000000000066
100
AcDbArc
 50
185.0
 51
209.8879072801
  0
ARC
  5
330
330
1F
100
AcDbEntity
  8
PROFILES_INSIDE
100
AcDbCircle
 10
524.0732916049
 20
60.9624398232
 30
0.0
 40
1.000046776821536
100
AcDbArc
 50
160.1122190803
 51
185.0
  0
ARC
  5
331
330
1F
100
AcDbEntity
  8
PROFILES_INSIDE
100
AcDbCircle
 10
518.2712221232
 20
63.0613602498
 30
0.0
 40
5.170000000000001
100
AcDbArc
 50
340.1122190803
 51
167.3995467073
  0
ARC
  5
332
330
1F
100
AcDbEntity
  8
PROFILES_INSIDE
100
AcDbCircle
 10
512.2498263506
 20
64.4073516873
 30
0.0
 40
1.00000000000003
100
AcDbArc
 50
275.0000647817
 51
347.3995467073
  0
ARC
  5
333
330
1F
100
AcDbEntity
  8
PROFILES_INSIDE
100
AcDbCircle
 10
508.2215772871
 20
64.0549209709
 30
0.0
 40
1.000000157751857
100
AcDbArc
 50
202.600480279
 51
275.0000647817
  0
ARC
  5
334
330
1F
100
AcDbEntity
  8
PROFILES_INSIDE
100
AcDbCircle
 10
502.5253901233
 20
61.683771082
 30
0.0
 40
5.169999842248174
100
AcDbArc
 50
22.600480279
 51
209.8878203283
  0
ARC
  5
335
330
1F
100
AcDbEntity
  8
PROFILES_INSIDE
100
AcDbCircle
 10
497.175987258
 20
58.609240975
 30
0.0
 40
0.999998180021832
100
AcDbArc
 50
5.0
 51
29.8878203284
  0
ARC
  5
336
330
1F
100
AcDbEntity
  8
PROFILES_OUTSIDE
100
AcDbCircle
 10
465.4282800697
 20
924.5006188696
 30
0.0
 40
6.0
100
AcDbArc
 50
85.0
 51
180.0
  0
ARC
  5
337
330
1F
100
AcDbEntity
  8
PROFILES_OUTSIDE
100
AcDbCircle
 10
855.4282800697
 20
890.3800400945
 30
0.0
 40
6.0
100
AcDbArc
 50
0.0
 51
85.0
  0
ARC
  5
338
330
1F
100
AcDbEntity
  8
PROFILES_OUTSIDE
100
AcDbCircle
 10
855.4282800697
 20
820.9126249256
 30
0.0
 40
6.0
100
AcDbArc
 50
280.0
 51
0.0
  0
ARC
  5
339
330
1F
100
AcDbEntity
  8
PROFILES_OUTSIDE
100
AcDbCircle
 10
847.4282800697
 20
807.3168897373
 30
0.0
 40
6.0
100
AcDbArc
 50
100.0
 51
180.0
  0
ARC
  5
33A
330
1F
100
AcDbEntity
  8
PROFILES_OUTSIDE
100
AcDbCircle
 10
847.4282800697
 20
155.2400382181
 30
0.0
 40
6.0
100
AcDbArc
 50
180.0
 51
260.0
  0
ARC
  5
33B
330
1F
100
AcDbEntity
  8
PROFILES_OUTSIDE
100
AcDbCircle
 10
855.4282800697
 20
141.6443030298
 30
0.0
 40
6.000000000000026
100
AcDbArc
 50
0.0
 51
80.0
  0
ARC
  5
33C
330
1F
100
AcDbEntity
  8
PROFILES_OUTSIDE
100
AcDbCircle
 10
855.4282800697
 20
72.176887861
 30
0.0
 40
6.000000000000004
100
AcDbArc
 50
275.0
 51
0.0
  0
ARC
  5
33D
330
1F
100
AcDbEntity
  8
PROFILES_OUTSIDE
100
AcDbCircle
 10
465.4282800697
 20
38.0563090859
 30
0.0
 40
6.000000000000073
100
AcDbArc
 50
180.0
 51
275.0
  0
ARC
  5
33E
330
1F
100
AcDbEntity
  8
PROFILES_OUTSIDE
100
AcDbCircle
 10
1685.9182800697
 20
355.4765762519
 30
0.0
 40
12.00000000000006
100
AcDbArc
 50
90.0
 51
180.0
  0
ARC
  5
33F
330
1F
100
AcDbEntity
  8
PROFILES_OUTSIDE
100
AcDbCircle
 10
1685.9182800697
 20
67.0732622726
 30
0.0
 40
12.00000000000023
100
AcDbArc
 50
180.0
 51
270.0
  0
ARC
  5
340
330
1F
100
AcDbEntity
  8
PROFILES_OUTSIDE
100
AcDbCircle
 10
1778.8682800697
 20
37.3232622726
 30
0.0
 40
1.0
100
AcDbArc
 50
270.0
 51
0.0
  0
ARC
  5
341
330
1F
100
AcDbEntity
  8
PROFILES_OUTSIDE
100
AcDbCircle
 10
1493.4663259768
 20
380.9765762519
 30
0.0
 40
1.00000000000016
100
AcDbArc
 50
183.6619355755
 51
270.0
  0
ARC
  5
342
330
1F
100
AcDbEntity
  8
PROFILES_OUTSIDE
100
AcDbCircle
 10
1501.4060016863
 20
378.9765762519
 30
0.0
 40
1.0
100
AcDbArc
 50
65.1121079736
 51
90.0
  0
ARC
  5
343
330
1F
100
AcDbEntity
  8
PROFILES_OUTSIDE
100
AcDbCircle
 10
1504.0026099301
 20
384.5735866707
 30
0.0
 40
5.169999999999933
100
AcDbArc
 50
245.1121079736
 51
72.3995332141
  0
ARC
  5
344
330
1F
100
AcDbEntity
  8
PROFILES_OUTSIDE
100
AcDbCircle
 10
1505.8682800697
 20
390.4547578916
 30
0.0
 40
1.000000000000227
100
AcDbArc
 50
180.0
 51
252.3995332141
  0
ARC
  5
345
330
1F
100
AcDbEntity
  8
PROFILES_OUTSIDE
100
AcDbCircle
 10
1592.8682800697
 20
380.4785762519
 30
0.0
 40
12.0
100
AcDbArc
 50
0.0
 51
90.0
  0
ARC
  5
346
330
1F
100
AcDbEntity
  8
PROFILES_OUTSIDE
100
AcDbCircle
 10
1616.8682800697
 20
279.6761382588
 30
0.0
 40
12.00000000000006
100
AcDbArc
 50
180.0
 51
270.0
  0
ARC
  5
347
330
1F
100
AcDbEntity
  8
PROFILES_OUTSIDE
100
AcDbCircle
 10
1642.8682800697
 20
279.6761382588
 30
0.0
 40
12.00000000000006
100
AcDbArc
 50
270.0
 51
0.0
  0
ARC
  5
348
330
1F
100
AcDbEntity
  8
PROFILES_OUTSIDE
100
AcDbCircle
 10
1666.8682800697
 20
380.4785762519
 30
0.0
 40
12.0
100
AcDbArc
 50
90.0
 51
180.0
  0
ARC
  5
349
330
1F
100
AcDbEntity
  8
PROFILES_OUTSIDE
100
AcDbCircle
 10
1753.8682800697
 20
390.4547578916
 30
0.0
 40
1.000000000000045
100
AcDbArc
 50
287.6004667859
 51
0.0
  0
ARC
  5
34A
330
1F
100
AcDbEntity
  8
PROFILES_OUTSIDE
100
AcDbCircle
 10
1755.7339502093
 20
384.5735866707
 30
0.0
 40
5.169999999999925
100
AcDbArc
 50
107.6004667859
 51
294.8878920264
  0
ARC
  5
34B
330
1F
100
AcDbEntity
  8
PROFILES_OUTSIDE
100
AcDbCircle
 10
1758.3305584531
 20
378.9765762519
 30
0.0
 40
1.00000000000014
100
AcDbArc
 50
90.0
 51
114.8878920264
  0
ARC
  5
34C
330
1F
100
AcDbEntity
  8
PROFILES_OUTSIDE
100
AcDbCircle
 10
1766.2702341626
 20
380.9765762519
 30
0.0
 40
1.00000000000016
100
AcDbArc
 50
270.0
 51
356.3380644245
  0
ARC
  5
34D
330
1F
100
AcDbEntity
  8
PROFILES_OUTSIDE
100
AcDbCircle
 10
1773.8682800697
 20
373.4765762519
 30
0.0
 40
6.000000000000057
100
AcDbArc
 50
270.0
 51
0.0
  0
ARC
  5
34E
330
1F
100
AcDbEntity
  8
PROFILES_OUTSIDE
100
AcDbCircle
 10
1480.8682800697
 20
37.3232622726
 30
0.0
 40
1.0
100
AcDbArc
 50
180.0
 51
270.0
  0
ARC
  5
34F
330
1F
100
AcDbEntity
  8
PROFILES_OUTSIDE
100
AcDbCircle
 10
1654.8682800697
 20
267.6761382588
 30
0.0
 40
19.04999999999995
100
AcDbArc
 50
300.0
 51
0.0
  0
ARC
  5
350
330
1F
100
AcDbEntity
  8
PROFILES_OUTSIDE
100
AcDbCircle
 10
1673.9182800697
 20
234.6805703746
 30
0.0
 40
19.04999999999999
100
AcDbArc
 50
120.0
 51
180.0
  0
ARC
  5
351
330
1F
100
AcDbEntity
  8
PROFILES_OUTSIDE
100
AcDbCircle
 10
1673.9182800697
 20
187.8692681499
 30
0.0
 40
19.05000000000013
100
AcDbArc
 50
180.0
 51
240.0
  0
ARC
  5
352
330
1F
100
AcDbEntity
  8
PROFILES_OUTSIDE
100
AcDbCircle
 10
1654.8682800697
 20
154.8737002657
 30
0.0
 40
19.04999999999995
100
AcDbArc
 50
0.0
 51
60.0
  0
ARC
  5
353
330
1F
100
AcDbEntity
  8
PROFILES_OUTSIDE
100
AcDbCircle
 10
1773.8682800697
 20
49.0732622726
 30
0.0
 40
6.0
100
AcDbArc
 50
0.0
 51
90.0
  0
ARC
  5
354
330
1F
100
AcDbEntity
  8
PROFILES_OUTSIDE
100
AcDbCircle
 10
1573.8182800697
 20
67.0732622726
 30
0.0
 40
12.0
100
AcDbArc
 50
270.0
 51
0.0
  0
ARC
  5
355
330
1F
100
AcDbEntity
  8
PROFILES_OUTSIDE
100
AcDbCircle
 10
1766.2702341626
 20
41.5732622726
 30
0.0
 40
1.00000000000016
100
AcDbArc
 50
3.6619355755
 51
90.0
  0
ARC
  5
356
330
1F
100
AcDbEntity
  8
PROFILES_OUTSIDE
100
AcDbCircle
 10
1758.3305584531
 20
43.5732622726
 30
0.0
 40
1.000000000000007
100
AcDbArc
 50
245.1121079736
 51
270.0
  0
ARC
  5
357
330
1F
100
AcDbEntity
  8
PROFILES_OUTSIDE
100
AcDbCircle
 10
1755.7339502093
 20
37.9762518538
 30
0.0
 40
5.170000000000016
100
AcDbArc
 50
65.1121079736
 51
252.3995332141
  0
ARC
  5
358
330
1F
100
AcDbEntity
  8
PROFILES_OUTSIDE
100
AcDbCircle
 10
1753.8682800697
 20
32.0950806329
 30
0.0
 40
0.9999999999999706
100
AcDbArc
 50
0.0
 51
72.3995332141
  0
ARC
  5
359
330
1F
100
AcDbEntity
  8
PROFILES_OUTSIDE
100
AcDbCircle
 10
1666.8682800697
 20
42.0712622726
 30
0.0
 40
12.00000000000001
100
AcDbArc
 50
180.0
 51
270.0
  0
ARC
  5
35A
330
1F
100
AcDbEntity
  8
PROFILES_OUTSIDE
100
AcDbCircle
 10
1642.8682800697
 20
142.8737002657
 30
0.0
 40
12.0
100
AcDbArc
 50
0.0
 51
90.0
  0
ARC
  5
35B
330
1F
100
AcDbEntity
  8
PROFILES_OUTSIDE
100
AcDbCircle
 10
1616.8682800697
 20
142.8737002657
 30
0.0
 40
12.0
100
AcDbArc
 50
90.0
 51
180.0
  0
ARC
  5
35C
330
1F
100
AcDbEntity
  8
PROFILES_OUTSIDE
100
AcDbCircle
 10
1592.8682800697
 20
42.0712622726
 30
0.0
 40
12.00000000000001
100
AcDbArc
 50
270.0
 51
0.0
  0
ARC
  5
35D
330
1F
100
AcDbEntity
  8
PROFILES_OUTSIDE
100
AcDbCircle
 10
1505.8682800697
 20
32.0950806329
 30
0.0
 40
1.000000000000141
100
AcDbArc
 50
107.6004667859
 51
180.0
  0
ARC
  5
35E
330
1F
100
AcDbEntity
  8
PROFILES_OUTSIDE
100
AcDbCircle
 10
1504.0026099301
 20
37.9762518538
 30
0.0
 40
5.169999999999935
100
AcDbArc
 50
287.6004667859
 51
114.8878920264
  0
ARC
  5
35F
330
1F
100
AcDbEntity
  8
PROFILES_OUTSIDE
100
AcDbCircle
 10
1501.4060016863
 20
43.5732622726
 30
0.0
 40
1.000000000000114
100
AcDbArc
 50
270.0
 51
294.8878920264
  0
ARC
  5
360
330
1F
100
AcDbEntity
  8
PROFILES_OUTSIDE
100
AcDbCircle
 10
1493.4663259768
 20
41.5732622726
 30
0.0
 40
1.00000000000016
100
AcDbArc
 50
90.0
 51
176.3380644245
  0
ARC
  5
361
330
1F
100
AcDbEntity
  8
PROFILES_OUTSIDE
100
AcDbCircle
 10
1485.8682800697
 20
49.0732622726
 30
0.0
 40
6.0
100
AcDbArc
 50
90.0
 51
180.0
  0
ARC
  5
362
330
1F
100
AcDbEntity
  8
PROFILES_OUTSIDE
100
AcDbCircle
 10
1573.8182800697
 20
355.4765762519
 30
0.0
 40
11.99999999999983
100
AcDbArc
 50
0.0
 51
90.0
  0
ARC
  5
363
330
1F
100
AcDbEntity
  8
PROFILES_OUTSIDE
100
AcDbCircle
 10
1604.8682800697
 20
154.8737002657
 30
0.0
 40
19.05000000000018
100
AcDbArc
 50
120.0
 51
180.0
  0
ARC
  5
364
330
1F
100
AcDbEntity
  8
PROFILES_OUTSIDE
100
AcDbCircle
 10
1585.8182800697
 20
187.8692681499
 30
0.0
 40
19.05000000000018
100
AcDbArc
 50
300.0
 51
0.0
  0
ARC
  5
365
330
1F
100
AcDbEntity
  8
PROFILES_OUTSIDE
100
AcDbCircle
 10
1585.8182800697
 20
234.6805703746
 30
0.0
 40
19.05000000000018
100
AcDbArc
 50
0.0
 51
60.0
  0
ARC
  5
366
330
1F
100
AcDbEntity
  8
PROFILES_OUTSIDE
100
AcDbCircle
 10
1604.8682800697
 20
267.6761382588
 30
0.0
 40
19.05000000000018
100
AcDbArc
 50
180.0
 51
240.0
  0
ARC
  5
367
330
1F
100
AcDbEntity
  8
PROFILES_OUTSIDE
100
AcDbCircle
 10
1485.8682800697
 20
373.4765762519
 30
0.0
 40
6.0
100
AcDbArc
 50
180.0
 51
270.0
  0
ARC
  5
368
330
1F
100
AcDbEntity
  8
PROFILES_OUTSIDE
100
AcDbCircle
 10
1480.8682800697
 20
385.2265762519
 30
0.0
 40
1.0
100
AcDbArc
 50
90.0
 51
180.0
  0
ARC
  5
369
330
1F
100
AcDbEntity
  8
PROFILES_OUTSIDE
100
AcDbCircle
 10
1480.8682800697
 20
431.2065762519
 30
0.0
 40
1.0
100
AcDbArc
 50
180.0
 51
270.0
  0
ARC
  5
36A
330
1F
100
AcDbEntity
  8
PROFILES_OUTSIDE
100
AcDbCircle
 10
1573.8182800697
 20
460.9565762519
 30
0.0
 40
12.0
100
AcDbArc
 50
270.0
 51
0.0
  0
ARC
  5
36B
330
1F
100
AcDbEntity
  8
PROFILES_OUTSIDE
100
AcDbCircle
 10
1573.8182800697
 20
749.3598902311
 30
0.0
 40
12.00000000000023
100
AcDbArc
 50
0.0
 51
90.0
  0
ARC
  5
36C
330
1F
100
AcDbEntity
  8
PROFILES_OUTSIDE
100
AcDbCircle
 10
1480.8682800697
 20
779.1098902311
 30
0.0
 40
1.0
100
AcDbArc
 50
90.0
 51
180.0
  0
ARC
  5
36D
330
1F
100
AcDbEntity
  8
PROFILES_OUTSIDE
100
AcDbCircle
 10
1766.2702341626
 20
435.4565762519
 30
0.0
 40
1.00000000000016
100
AcDbArc
 50
3.6619355755
 51
90.0
  0
ARC
  5
36E
330
1F
100
AcDbEntity
  8
PROFILES_OUTSIDE
100
AcDbCircle
 10
1758.3305584531
 20
437.4565762519
 30
0.0
 40
1.00000000000014
100
AcDbArc
 50
245.1121079736
 51
270.0
  0
ARC
  5
36F
330
1F
100
AcDbEntity
  8
PROFILES_OUTSIDE
100
AcDbCircle
 10
1755.7339502093
 20
431.8595658331
 30
0.0
 40
5.169999999999908
100
AcDbArc
 50
65.1121079736
 51
252.3995332141
  0
ARC
  5
370
330
1F
100
AcDbEntity
  8
PROFILES_OUTSIDE
100
AcDbCircle
 10
1753.8682800697
 20
425.9783946121
 30
0.0
 40
1.000000000000045
100
AcDbArc
 50
0.0
 51
72.3995332141
  0
ARC
  5
371
330
1F
100
AcDbEntity
  8
PROFILES_OUTSIDE
100
AcDbCircle
 10
1666.8682800697
 20
435.9545762519
 30
0.0
 40
12.00000000000006
100
AcDbArc
 50
180.0
 51
270.0
  0
ARC
  5
372
330
1F
100
AcDbEntity
  8
PROFILES_OUTSIDE
100
AcDbCircle
 10
1642.8682800697
 20
536.757014245
 30
0.0
 40
12.0
100
AcDbArc
 50
0.0
 51
90.0
  0
ARC
  5
373
330
1F
100
AcDbEntity
  8
PROFILES_OUTSIDE
100
AcDbCircle
 10
1616.8682800697
 20
536.757014245
 30
0.0
 40
12.0
100
AcDbArc
 50
90.0
 51
180.0
  0
ARC
  5
374
330
1F
100
AcDbEntity
  8
PROFILES_OUTSIDE
100
AcDbCircle
 10
1592.8682800697
 20
435.9545762519
 30
0.0
 40
12.00000000000006
100
AcDbArc
 50
270.0
 51
0.0
  0
ARC
  5
375
330
1F
100
AcDbEntity
  8
PROFILES_OUTSIDE
100
AcDbCircle
 10
1505.8682800697
 20
425.9783946121
 30
0.0
 40
1.000000000000114
100
AcDbArc
 50
107.6004667859
 51
180.0
  0
ARC
  5
376
330
1F
100
AcDbEntity
  8
PROFILES_OUTSIDE
100
AcDbCircle
 10
1504.0026099301
 20
431.8595658331
 30
0.0
 40
5.169999999999925
100
AcDbArc
 50
287.6004667859
 51
114.8878920264
  0
ARC
  5
377
330
1F
100
AcDbEntity
  8
PROFILES_OUTSIDE
100
AcDbCircle
 10
1501.4060016863
 20
437.4565762519
 30
0.0
 40
1.000000000000114
100
AcDbArc
 50
270.0
 51
294.8878920264
  0
ARC
  5
378
330
1F
100
AcDbEntity
  8
PROFILES_OUTSIDE
100
AcDbCircle
 10
1493.4663259768
 20
435.4565762519
 30
0.0
 40
1.00000000000016
100
AcDbArc
 50
90.0
 51
176.3380644245
  0
ARC
  5
379
330
1F
100
AcDbEntity
  8
PROFILES_OUTSIDE
100
AcDbCircle
 10
1485.8682800697
 20
442.9565762519
 30
0.0
 40
6.000000000000227
100
AcDbArc
 50
90.0
 51
180.0
  0
ARC
  5
37A
330
1F
100
AcDbEntity
  8
PROFILES_OUTSIDE
100
AcDbCircle
 10
1778.8682800697
 20
779.1098902311
 30
0.0
 40
1.0
100
AcDbArc
 50
0.0
 51
90.0
  0
ARC
  5
37B
330
1F
100
AcDbEntity
  8
PROFILES_OUTSIDE
100
AcDbCircle
 10
1604.8682800697
 20
548.757014245
 30
0.0
 40
19.05000000000018
100
AcDbArc
 50
120.0
 51
180.0
  0
ARC
  5
37C
330
1F
100
AcDbEntity
  8
PROFILES_OUTSIDE
100
AcDbCircle
 10
1585.8182800697
 20
581.7525821291
 30
0.0
 40
19.04999999999995
100
AcDbArc
 50
300.0
 51
0.0
  0
ARC
  5
37D
330
1F
100
AcDbEntity
  8
PROFILES_OUTSIDE
100
AcDbCircle
 10
1585.8182800697
 20
628.5638843539
 30
0.0
 40
19.05000000000018
100
AcDbArc
 50
0.0
 51
60.0
  0
ARC
  5
37E
330
1F
100
AcDbEntity
  8
PROFILES_OUTSIDE
100
AcDbCircle
 10
1604.8682800697
 20
661.559452238
 30
0.0
 40
19.05000000000018
100
AcDbArc
 50
180.0
 51
240.0
  0
ARC
  5
37F
330
1F
100
AcDbEntity
  8
PROFILES_OUTSIDE
100
AcDbCircle
 10
1485.8682800697
 20
767.3598902311
 30
0.0
 40
6.000000000000227
100
AcDbArc
 50
180.0
 51
270.0
  0
ARC
  5
380
330
1F
100
AcDbEntity
  8
PROFILES_OUTSIDE
100
AcDbCircle
 10
1685.9182800697
 20
749.3598902311
 30
0.0
 40
12.0
100
AcDbArc
 50
90.0
 51
180.0
  0
ARC
  5
381
330
1F
100
AcDbEntity
  8
PROFILES_OUTSIDE
100
AcDbCircle
 10
1493.4663259768
 20
774.8598902311
 30
0.0
 40
1.000000000000163
100
AcDbArc
 50
183.6619355755
 51
270.0
  0
ARC
  5
382
330
1F
100
AcDbEntity
  8
PROFILES_OUTSIDE
100
AcDbCircle
 10
1501.4060016863
 20
772.8598902311
 30
0.0
 40
0.9999999999999415
100
AcDbArc
 50
65.1121079736
 51
90.0
  0
ARC
  5
383
330
1F
100
AcDbEntity
  8
PROFILES_OUTSIDE
100
AcDbCircle
 10
1504.0026099301
 20
778.4569006499
 30
0.0
 40
5.170000000000002
100
AcDbArc
 50
245.1121079736
 51
72.3995332141
  0
ARC
  5
384
330
1F
100
AcDbEntity
  8
PROFILES_OUTSIDE
100
AcDbCircle
 10
1505.8682800697
 20
784.3380718709
 30
0.0
 40
1.0
100
AcDbArc
 50
180.0
 51
252.3995332141
  0
ARC
  5
385
330
1F
100
AcDbEntity
  8
PROFILES_OUTSIDE
100
AcDbCircle
 10
1592.8682800697
 20
774.3618902311
 30
0.0
 40
12.0
100
AcDbArc
 50
0.0
 51
90.0
  0
ARC
  5
386
330
1F
100
AcDbEntity
  8
PROFILES_OUTSIDE
100
AcDbCircle
 10
1616.8682800697
 20
673.559452238
 30
0.0
 40
12.0
100
AcDbArc
 50
180.0
 51
270.0
  0
ARC
  5
387
330
1F
100
AcDbEntity
  8
PROFILES_OUTSIDE
100
AcDbCircle
 10
1642.8682800697
 20
673.559452238
 30
0.0
 40
12.0
100
AcDbArc
 50
270.0
 51
0.0
  0
ARC
  5
388
330
1F
100
AcDbEntity
  8
PROFILES_OUTSIDE
100
AcDbCircle
 10
1666.8682800697
 20
774.3618902311
 30
0.0
 40
12.0
100
AcDbArc
 50
90.0
 51
180.0
  0
ARC
  5
389
330
1F
100
AcDbEntity
  8
PROFILES_OUTSIDE
100
AcDbCircle
 10
1753.8682800697
 20
784.3380718709
 30
0.0
 40
1.000000000000099
100
AcDbArc
 50
287.6004667859
 51
0.0
  0
ARC
  5
38A
330
1F
100
AcDbEntity
  8
PROFILES_OUTSIDE
100
AcDbCircle
 10
1755.7339502093
 20
778.4569006499
 30
0.0
 40
5.169999999999962
100
AcDbArc
 50
107.6004667859
 51
294.8878920264
  0
ARC
  5
38B
330
1F
100
AcDbEntity
  8
PROFILES_OUTSIDE
100
AcDbCircle
 10
1758.3305584531
 20
772.8598902311
 30
0.0
 40
1.00000000000014
100
AcDbArc
 50
90.0
 51
114.8878920264
  0
ARC
  5
38C
330
1F
100
AcDbEntity
  8
PROFILES_OUTSIDE
100
AcDbCircle
 10
1766.2702341626
 20
774.8598902311
 30
0.0
 40
1.000000000000163
100
AcDbArc
 50
270.0
 51
356.3380644245
  0
ARC
  5
38D
330
1F
100
AcDbEntity
  8
PROFILES_OUTSIDE
100
AcDbCircle
 10
1773.8682800697
 20
767.3598902311
 30
0.0
 40
5.999999999999886
100
AcDbArc
 50
270.0
 51
0.0
  0
ARC
  5
38E
330
1F
100
AcDbEntity
  8
PROFILES_OUTSIDE
100
AcDbCircle
 10
1685.9182800697
 20
460.9565762519
 30
0.0
 40
11.99999999999983
100
AcDbArc
 50
180.0
 51
270.0
  0
ARC
  5
38F
330
1F
100
AcDbEntity
  8
PROFILES_OUTSIDE
100
AcDbCircle
 10
1654.8682800697
 20
661.559452238
 30
0.0
 40
19.05
100
AcDbArc
 50
300.0
 51
0.0
  0
ARC
  5
390
330
1F
100
AcDbEntity
  8
PROFILES_OUTSIDE
100
AcDbCircle
 10
1673.9182800697
 20
628.5638843539
 30
0.0
 40
19.04999999999995
100
AcDbArc
 50
120.0
 51
180.0
  0
ARC
  5
391
330
1F
100
AcDbEntity
  8
PROFILES_OUTSIDE
100
AcDbCircle
 10
1673.9182800697
 20
581.7525821291
 30
0.0
 40
19.05000000000001
100
AcDbArc
 50
180.0
 51
240.0
  0
ARC
  5
392
330
1F
100
AcDbEntity
  8
PROFILES_OUTSIDE
100
AcDbCircle
 10
1654.8682800697
 20
548.757014245
 30
0.0
 40
19.04999999999995
100
AcDbArc
 50
0.0
 51
60.0
  0
ARC
  5
393
330
1F
100
AcDbEntity
  8
PROFILES_OUTSIDE
100
AcDbCircle
 10
1773.8682800697
 20
442.9565762519
 30
0.0
 40
5.999999999999943
100
AcDbArc
 50
0.0
 51
90.0
  0
ARC
  5
394
330
1F
100
AcDbEntity
  8
PROFILES_OUTSIDE
100
AcDbCircle
 10
1778.8682800697
 20
431.2065762519
 30
0.0
 40
1.000000000000227
100
AcDbArc
 50
270.0
 51
0.0
  0
ENDSEC
  0
SECTION
  2
OBJECTS
  0
DICTIONARY
  5
C
330
0
100
AcDbDictionary
  3
ACAD_GROUP
350
D
  3
ACAD_MLINESTYLE
350
17
  3
ACAD_SCALELIST
350
47
  0
DICTIONARY
  5
D
102
{ACAD_REACTORS
330
C
102
}
330
C
100
AcDbDictionary
  0
DICTIONARY
  5
17
102
{ACAD_REACTORS
330
C
102
}
330
C
100
AcDbDictionary
  3
STANDARD
350
18
  0
DICTIONARY
  5
47
102
{ACAD_REACTORS
330
C
102
}
330
C
100
AcDbDictionary
  0
MLINESTYLE
  5
18
102
{ACAD_REACTORS
330
17
102
}
330
17
100
AcDbMlineStyle
  2
Standard
 70
     0
  3

 62
   256
 51
90.0
 52
90.0
 71
     2
 49
0.5
 62
   256
  6
BYLAYER
 49
-0.5
 62
   256
  6
BYLAYER
  0
ENDSEC
  0
EOF
