  0
SECTION
  2
HEADER
  9
$ACADVER
  1
AC1014
  9
$ACADMAINTVER
 70
     9
  9
$DWGCODEPAGE
  3
ANSI_1252
  9
$INSBASE
 10
0.0
 20
0.0
 30
0.0
  9
$EXTMIN
 10
0.0
 20
0.0
 30
0.0
  9
$EXTMAX
 10
96.062992126
 20
48.031496063
 30
0.0
  9
$LIMMIN
 10
0.0
 20
0.0
  9
$LIMMAX
 10
96.062992126
 20
48.031496063
  9
$ORTHOMODE
 70
     0
  9
$REGENMODE
 70
     1
  9
$FILLMODE
 70
     1
  9
$QTEXTMODE
 70
     0
  9
$MIRRTEXT
 70
     1
  9
$DRAGMODE
 70
     2
  9
$LTSCALE
 40
1.0
  9
$OSMODE
 70
    37
  9
$ATTMODE
 70
     1
  9
$TEXTSIZE
 40
0.1377952756
  9
$TRACEWID
 40
0.05
  9
$TEXTSTYLE
  7
STANDARD
  9
$CLAYER
  8
0
  9
$CELTYPE
  6
BYLAYER
  9
$CECOLOR
 62
   256
  9
$CELTSCALE
 40
1.0
  9
$DELOBJ
 70
     1
  9
$DISPSILH
 70
     0
  9
$DIMSCALE
 40
1.0
  9
$DIMASZ
 40
0.13
  9
$DIMEXO
 40
0.0393700787
  9
$DIMDLI
 40
0.38
  9
$DIMRND
 40
0.0
  9
$DIMDLE
 40
0.0
  9
$DIMEXE
 40
0.0393700787
  9
$DIMTP
 40
0.0
  9
$DIMTM
 40
0.0
  9
$DIMTXT
 40
0.1805555556
  9
$DIMCEN
 40
0.09
  9
$DIMTSZ
 40
0.0
  9
$DIMTOL
 70
     0
  9
$DIMLIM
 70
     0
  9
$DIMTIH
 70
     1
  9
$DIMTOH
 70
     1
  9
$DIMSE1
 70
     0
  9
$DIMSE2
 70
     0
  9
$DIMTAD
 70
     1
  9
$DIMZIN
 70
     0
  9
$DIMBLK
  1

  9
$DIMASO
 70
     1
  9
$DIMSHO
 70
     1
  9
$DIMPOST
  1

  9
$DIMAPOST
  1

  9
$DIMALT
 70
     0
  9
$DIMALTD
 70
     2
  9
$DIMALTF
 40
25.4
  9
$DIMLFAC
 40
1.0
  9
$DIMTOFL
 70
     0
  9
$DIMTVP
 40
0.0
  9
$DIMTIX
 70
     0
  9
$DIMSOXD
 70
     0
  9
$DIMSAH
 70
     0
  9
$DIMBLK1
  1

  9
$DIMBLK2
  1

  9
$DIMSTYLE
  2
STANDARD
  9
$DIMCLRD
 70
     0
  9
$DIMCLRE
 70
     0
  9
$DIMCLRT
 70
     0
  9
$DIMTFAC
 40
1.0
  9
$DIMGAP
 40
0.06
  9
$DIMJUST
 70
     0
  9
$DIMSD1
 70
     0
  9
$DIMSD2
 70
     0
  9
$DIMTOLJ
 70
     1
  9
$DIMTZIN
 70
     0
  9
$DIMALTZ
 70
     0
  9
$DIMALTTZ
 70
     0
  9
$DIMFIT
 70
     3
  9
$DIMUPT
 70
     0
  9
$DIMUNIT
 70
     2
  9
$DIMDEC
 70
     2
  9
$DIMTDEC
 70
     2
  9
$DIMALTU
 70
     2
  9
$DIMALTTD
 70
     2
  9
$DIMTXSTY
  7
STANDARD
  9
$DIMAUNIT
 70
     0
  9
$LUNITS
 70
     2
  9
$LUPREC
 70
     2
  9
$SKETCHINC
 40
0.1
  9
$FILLETRAD
 40
0.5
  9
$AUNITS
 70
     0
  9
$AUPREC
 70
     2
  9
$MENU
  1
.
  9
$ELEVATION
 40
0.0
  9
$PELEVATION
 40
0.0
  9
$THICKNESS
 40
0.0
  9
$LIMCHECK
 70
     0
  9
$CHAMFERA
 40
0.0
  9
$CHAMFERB
 40
0.0
  9
$CHAMFERC
 40
0.0
  9
$CHAMFERD
 40
0.0
  9
$SKPOLY
 70
     0
  9
$TDCREATE
 40
2457722.415037164
  9
$TDUPDATE
 40
2457722.4150375
  9
$TDINDWG
 40
0.0000000116
  9
$TDUSRTIMER
 40
0.0000000116
  9
$USRTIMER
 70
     1
  9
$ANGBASE
 50
0.0
  9
$ANGDIR
 70
     0
  9
$PDMODE
 70
     0
  9
$PDSIZE
 40
-1.0
  9
$PLINEWID
 40
0.0
  9
$COORDS
 70
     1
  9
$SPLFRAME
 70
     0
  9
$SPLINETYPE
 70
     6
  9
$SPLINESEGS
 70
     8
  9
$ATTDIA
 70
     0
  9
$ATTREQ
 70
     1
  9
$HANDLING
 70
     1
  9
$HANDSEED
  5
395
  9
$SURFTAB1
 70
     6
  9
$SURFTAB2
 70
     6
  9
$SURFTYPE
 70
     6
  9
$SURFU
 70
     6
  9
$SURFV
 70
     6
  9
$UCSNAME
  2

  9
$UCSORG
 10
0.0
 20
0.0
 30
0.0
  9
$UCSXDIR
 10
1.0
 20
0.0
 30
0.0
  9
$UCSYDIR
 10
0.0
 20
1.0
 30
0.0
  9
$PUCSNAME
  2

  9
$PUCSORG
 10
0.0
 20
0.0
 30
0.0
  9
$PUCSXDIR
 10
1.0
 20
0.0
 30
0.0
  9
$PUCSYDIR
 10
0.0
 20
1.0
 30
0.0
  9
$USERI1
 70
     0
  9
$USERI2
 70
     0
  9
$USERI3
 70
     0
  9
$USERI4
 70
     0
  9
$USERI5
 70
     0
  9
$USERR1
 40
0.0
  9
$USERR2
 40
0.0
  9
$USERR3
 40
0.0
  9
$USERR4
 40
0.0
  9
$USERR5
 40
0.0
  9
$WORLDVIEW
 70
     1
  9
$SHADEDGE
 70
     3
  9
$SHADEDIF
 70
    70
  9
$TILEMODE
 70
     1
  9
$MAXACTVP
 70
    64
  9
$PINSBASE
 10
0.0
 20
0.0
 30
0.0
  9
$PLIMCHECK
 70
     0
  9
$PEXTMIN
 10
1.0000000000E+20
 20
1.0000000000E+20
 30
1.0000000000E+20
  9
$PEXTMAX
 10
-1.0000000000E+20
 20
-1.0000000000E+20
 30
-1.0000000000E+20
  9
$PLIMMIN
 10
0.0
 20
0.0
  9
$PLIMMAX
 10
12.0
 20
9.0
  9
$UNITMODE
 70
     0
  9
$VISRETAIN
 70
     1
  9
$PLINEGEN
 70
     0
  9
$PSLTSCALE
 70
     1
  9
$TREEDEPTH
 70
  3020
  9
$PICKSTYLE
 70
     1
  9
$CMLSTYLE
  2
STANDARD
  9
$CMLJUST
 70
     0
  9
$CMLSCALE
 40
1.0
  9
$PROXYGRAPHICS
 70
     1
  9
$MEASUREMENT
 70
     0
  0
ENDSEC
  0
SECTION
  2
CLASSES
  0
CLASS
  1
ACDBDICTIONARYWDFLT
  2
AcDbDictionaryWithDefault
  3
ObjectDBX Classes
 90
        0
280
     0
281
     0
  0
CLASS
  1
VISUALSTYLE
  2
AcDbVisualStyle
  3
ObjectDBX Classes
 90
     4095
280
     0
281
     0
  0
CLASS
  1
MATERIAL
  2
AcDbMaterial
  3
ObjectDBX Classes
 90
     1153
280
     0
281
     0
  0
CLASS
  1
SCALE
  2
AcDbScale
  3
ObjectDBX Classes
 90
     1153
280
     0
281
     0
  0
CLASS
  1
TABLESTYLE
  2
AcDbTableStyle
  3
ObjectDBX Classes
 90
     4095
280
     0
281
     0
  0
CLASS
  1
MLEADERSTYLE
  2
AcDbMLeaderStyle
  3
ACDB_MLEADERSTYLE_CLASS
 90
     4095
280
     0
281
     0
  0
CLASS
  1
SUN
  2
AcDbSun
  3
SCENEOE
 90
     1153
280
     0
281
     0
  0
CLASS
  1
XRECORD
  2
AcDbXrecord
  3
ObjectDBX Classes
 90
        0
280
     0
281
     0
  0
CLASS
  1
LWPOLYLINE
  2
AcDbPolyline
  3
ObjectDBX Classes
 90
        0
280
     0
281
     1
  0
CLASS
  1
HATCH
  2
AcDbHatch
  3
ObjectDBX Classes
 90
        0
280
     0
281
     1
  0
ENDSEC
  0
SECTION
  2
TABLES
  0
TABLE
  2
VPORT
  5
8
330
0
100
AcDbSymbolTable
 70
     1
  0
VPORT
  5
29
330
8
100
AcDbSymbolTableRecord
100
AcDbViewportTableRecord
  2
*ACTIVE
 70
     0
 10
0.0
 20
0.0
 11
1.0
 21
1.0
 12
48.031496063
 22
24.0157480315
 13
0.0
 23
0.0
 14
0.5
 24
0.5
 15
0.5
 25
0.5
 16
0.0
 26
0.0
 36
1.0
 17
0.0
 27
0.0
 37
0.0
 40
48.031496063
 41
2.0
 42
50.0
 43
0.0
 44
0.0
 50
0.0
 51
0.0
 71
     0
 72
  2000
 73
     1
 74
     3
 75
     0
 76
     0
 77
     0
 78
     0
  0
ENDTAB
  0
TABLE
  2
LTYPE
  5
5
330
0
100
AcDbSymbolTable
 70
     6
  0
LTYPE
  5
14
330
5
100
AcDbSymbolTableRecord
100
AcDbLinetypeTableRecord
  2
BYBLOCK
 70
     0
  3

 72
    65
 73
     0
 40
0.0
  0
LTYPE
  5
15
330
5
100
AcDbSymbolTableRecord
100
AcDbLinetypeTableRecord
  2
BYLAYER
 70
     0
  3

 72
    65
 73
     0
 40
0.0
  0
LTYPE
  5
16
330
5
100
AcDbSymbolTableRecord
100
AcDbLinetypeTableRecord
  2
CONTINUOUS
 70
     0
  3
Solid line
 72
    65
 73
     0
 40
0.0
  0
LTYPE
  5
6E
330
5
100
AcDbSymbolTableRecord
100
AcDbLinetypeTableRecord
  2
HIDDEN
 70
     0
  3
Hidden __ __ __ __ __ __ __ __ __ __ __ __ __ __
 72
    65
 73
     2
 40
0.075
 49
0.05
 74
     0
 49
-0.025
 74
     0
  0
LTYPE
  5
6F
330
5
100
AcDbSymbolTableRecord
100
AcDbLinetypeTableRecord
  2
PHANTOM
 70
     0
  3
Phantom ______  __  __  ______  __  __  ______
 72
    65
 73
     6
 40
0.5
 49
0.25
 74
     0
 49
-0.05
 74
     0
 49
0.05
 74
     0
 49
-0.05
 74
     0
 49
0.05
 74
     0
 49
-0.05
 74
     0
  0
LTYPE
  5
70
330
5
100
AcDbSymbolTableRecord
100
AcDbLinetypeTableRecord
  2
CENTER
 70
     0
  3
Center ____ _ ____ _ ____ _ ____ _ ____ _ ____
 72
    65
 73
     4
 40
0.4
 49
0.25
 74
     0
 49
-0.05
 74
     0
 49
0.05
 74
     0
 49
-0.05
 74
     0
  0
LTYPE
  5
71
330
5
100
AcDbSymbolTableRecord
100
AcDbLinetypeTableRecord
  2
CENTERX2
 70
     0
  3
Center (2x) ________  __  ________  __  _____
 72
    65
 73
     4
 40
0.8
 49
0.5
 74
     0
 49
-0.1
 74
     0
 49
0.1
 74
     0
 49
-0.1
 74
     0
  0
LTYPE
  5
72
330
5
100
AcDbSymbolTableRecord
100
AcDbLinetypeTableRecord
  2
DOT2
 70
     0
  3
Dot (.5x) ........................................
 72
    65
 73
     2
 40
0.025
 49
0.0
 74
     0
 49
-0.025
 74
     0
  0
ENDTAB
  0
TABLE
  2
LAYER
  5
2
330
0
100
AcDbSymbolTable
 70
     6
  0
LAYER
  5
10
330
2
100
AcDbSymbolTableRecord
100
AcDbLayerTableRecord
  2
0
 70
     0
 62
     7
  6
CONTINUOUS
  0
LAYER
  5
73
330
2
100
AcDbSymbolTableRecord
100
AcDbLayerTableRecord
  2
BOX_STOCK
 70
     0
 62
     1
  6
CONTINUOUS
  0
LAYER
  5
74
330
2
100
AcDbSymbolTableRecord
100
AcDbLayerTableRecord
  2
HOLES
 70
     0
 62
    30
  6
CONTINUOUS
  0
LAYER
  5
75
330
2
100
AcDbSymbolTableRecord
100
AcDbLayerTableRecord
  2
POCKETS
 70
     0
 62
   171
  6
CONTINUOUS
  0
LAYER
  5
76
330
2
100
AcDbSymbolTableRecord
100
AcDbLayerTableRecord
  2
PROFILES_OUTSIDE
 70
     0
 62
     6
  6
CONTINUOUS
  0
LAYER
  5
77
330
2
100
AcDbSymbolTableRecord
100
AcDbLayerTableRecord
  2
PROFILES_INSIDE
 70
     0
 62
     4
  6
CONTINUOUS
  0
ENDTAB
  0
TABLE
  2
STYLE
  5
3
330
0
100
AcDbSymbolTable
 70
     1
  0
STYLE
  5
11
330
3
100
AcDbSymbolTableRecord
100
AcDbTextStyleTableRecord
  2
STANDARD
 70
     0
 40
0.0
 41
1.0
 50
0.0
 71
     0
 42
0.1377952756
  3
txt
  4

  0
ENDTAB
  0
TABLE
  2
VIEW
  5
6
330
0
100
AcDbSymbolTable
 70
     0
  0
ENDTAB
  0
TABLE
  2
UCS
  5
7
330
0
100
AcDbSymbolTable
 70
     0
  0
ENDTAB
  0
TABLE
  2
APPID
  5
9
330
0
100
AcDbSymbolTable
 70
     1
  0
APPID
  5
12
330
9
100
AcDbSymbolTableRecord
100
AcDbRegAppTableRecord
  2
ACAD
 70
     0
  0
ENDTAB
  0
TABLE
  2
DIMSTYLE
  5
A
330
0
100
AcDbSymbolTable
 70
     1
  0
DIMSTYLE
105
27
330
A
100
AcDbSymbolTableRecord
100
AcDbDimStyleTableRecord
  2
STANDARD
 70
     0
  3

  4

  5

  6

  7

 40
1.0
 41
0.18
 42
0.0625
 43
0.38
 44
0.18
 45
0.0
 46
0.0
 47
0.0
 48
0.0
140
0.18
141
0.09
142
0.0
143
25.4
144
1.0
145
0.0
146
1.0
147
0.09
 71
     0
 72
     0
 73
     1
 74
     1
 75
     0
 76
     0
 77
     0
 78
     0
170
     0
171
     2
172
     0
173
     0
174
     0
175
     0
176
     0
177
     0
178
     0
270
     2
271
     4
272
     4
273
     2
274
     2
340
11
275
     0
280
     0
281
     0
282
     0
283
     1
284
     0
285
     0
286
     0
287
     3
288
     0
  0
ENDTAB
  0
TABLE
  2
BLOCK_RECORD
  5
1
330
0
100
AcDbSymbolTable
 70
     1
  0
BLOCK_RECORD
  5
1F
330
1
100
AcDbSymbolTableRecord
100
AcDbBlockTableRecord
  2
*MODEL_SPACE
  0
BLOCK_RECORD
  5
1B
330
1
100
AcDbSymbolTableRecord
100
AcDbBlockTableRecord
  2
*PAPER_SPACE
  0
BLOCK_RECORD
  5
23
330
1
100
AcDbSymbolTableRecord
100
AcDbBlockTableRecord
  2
*PAPER_SPACE0
  0
ENDTAB
  0
ENDSEC
  0
SECTION
  2
BLOCKS
  0
BLOCK
  5
20
330
1F
100
AcDbEntity
  8
0
100
AcDbBlockBegin
  2
*MODEL_SPACE
 70
     0
 10
0.0
 20
0.0
 30
0.0
  3
*MODEL_SPACE
  1

  0
ENDBLK
  5
21
330
1F
100
AcDbEntity
  8
0
100
AcDbBlockEnd
  0
BLOCK
  5
1C
330
1B
100
AcDbEntity
 67
     1
  8
0
100
AcDbBlockBegin
  2
*PAPER_SPACE
 70
     0
 10
0.0
 20
0.0
 30
0.0
  3
*PAPER_SPACE
  1

  0
ENDBLK
  5
1D
330
1B
100
AcDbEntity
 67
     1
  8
0
100
AcDbBlockEnd
  0
BLOCK
  5
24
330
23
100
AcDbEntity
  8
0
100
AcDbBlockBegin
  2
*PAPER_SPACE0
 70
     0
 10
0.0
 20
0.0
 30
0.0
  3
*PAPER_SPACE0
  1

  0
ENDBLK
  5
25
330
23
100
AcDbEntity
  8
0
100
AcDbBlockEnd
  0
ENDSEC
  0
SECTION
  2
ENTITIES
  0
ARC
  5
78
330
1F
100
AcDbEntity
  8
0
  6
CONTINUOUS
 62
     7
100
AcDbCircle
 10
16.8896960657
 20
2.8658930291
 30
0.0
 40
0.236220472440948
100
AcDbArc
 50
275.0
 51
0.0
  0
LINE
  5
79
330
1F
100
AcDbEntity
  8
0
  6
CONTINUOUS
 62
     7
100
AcDbLine
 10
16.9102844284
 20
2.6305714114
 30
0.0
 11
1.2783943427
 21
1.2629583101
 31
0.0
  0
ARC
  5
7A
330
1F
100
AcDbEntity
  8
0
  6
CONTINUOUS
 62
     7
100
AcDbCircle
 10
1.257806302
 20
1.4982798853
 30
0.0
 40
0.2362204724409538
100
AcDbArc
 50
180.0
 51
275.0
  0
LINE
  5
7B
330
1F
100
AcDbEntity
  8
0
  6
CONTINUOUS
 62
     7
100
AcDbLine
 10
1.0215858094
 20
1.4982798383
 30
0.0
 11
1.0215858094
 21
2.5727254263
 31
0.0
  0
LINE
  5
7C
330
1F
100
AcDbEntity
  8
0
  6
CONTINUOUS
 62
     7
100
AcDbLine
 10
2.5333331789
 20
2.7049861384
 30
0.0
 11
1.0215858094
 21
2.5727254263
 31
0.0
  0
ARC
  5
7D
330
1F
100
AcDbEntity
  8
0
  6
CONTINUOUS
 62
     7
100
AcDbCircle
 10
2.7368420648
 20
2.7087345023
 30
0.0
 40
0.2035432695399178
100
AcDbArc
 50
181.0551896256
 51
209.8878378453
  0
ARC
  5
7E
330
1F
100
AcDbEntity
  8
0
  6
CONTINUOUS
 62
     7
100
AcDbCircle
 10
2.5262356536
 20
2.5876899247
 30
0.0
 40
0.0393700245933038
100
AcDbArc
 50
5.0
 51
29.8878378453
  0
LINE
  5
7F
330
1F
100
AcDbEntity
  8
0
  6
CONTINUOUS
 62
     7
100
AcDbLine
 10
2.6082291137
 20
2.1022230215
 30
0.0
 11
2.5654557411
 21
2.5911213204
 31
0.0
  0
ARC
  5
80
330
1F
100
AcDbEntity
  8
0
  6
CONTINUOUS
 62
     7
100
AcDbCircle
 10
2.5690087104
 20
2.0987916479
 30
0.0
 40
0.0393700787401566
100
AcDbArc
 50
340.1121195006
 51
5.0
  0
ARC
  5
81
330
1F
100
AcDbEntity
  8
0
  6
CONTINUOUS
 62
     7
100
AcDbCircle
 10
2.7974347674
 20
2.0161572149
 30
0.0
 40
0.2035433070866141
100
AcDbArc
 50
160.1121195006
 51
347.3995434107
  0
ARC
  5
82
330
1F
100
AcDbEntity
  8
0
  6
CONTINUOUS
 62
     7
100
AcDbCircle
 10
3.03449759
 20
1.9631654124
 30
0.0
 40
0.039370078740164
100
AcDbArc
 50
95.0000489546
 51
167.3995434107
  0
LINE
  5
83
330
1F
100
AcDbEntity
  8
0
  6
CONTINUOUS
 62
     7
100
AcDbLine
 10
3.1896586369
 20
2.0162609213
 30
0.0
 11
3.0310662823
 21
2.0023856815
 31
0.0
  0
ARC
  5
84
330
1F
100
AcDbEntity
  8
0
  6
CONTINUOUS
 62
     7
100
AcDbCircle
 10
3.1930900767
 20
1.9770405937
 30
0.0
 40
0.0393700787401604
100
AcDbArc
 50
22.6004769824
 51
95.0000489546
  0
ARC
  5
85
330
1F
100
AcDbEntity
  8
0
  6
CONTINUOUS
 62
     7
100
AcDbCircle
 10
3.4173494192
 20
2.0703929386
 30
0.0
 40
0.2035433070866147
100
AcDbArc
 50
202.6004769824
 51
29.8879035534
  0
ARC
  5
86
330
1F
100
AcDbEntity
  8
0
  6
CONTINUOUS
 62
     7
100
AcDbCircle
 10
3.6279558037
 20
2.1914378221
 30
0.0
 40
0.0393700787401574
100
AcDbArc
 50
185.0
 51
209.8879035534
  0
LINE
  5
87
330
1F
100
AcDbEntity
  8
0
  6
CONTINUOUS
 62
     7
100
AcDbLine
 10
3.5459624142
 20
2.6769041961
 30
0.0
 11
3.5887354934
 21
2.1880064839
 31
0.0
  0
ARC
  5
88
330
1F
100
AcDbEntity
  8
0
  6
CONTINUOUS
 62
     7
100
AcDbCircle
 10
3.5851841867
 20
2.6803356083
 30
0.0
 40
0.0393714704138566
100
AcDbArc
 50
160.1121919354
 51
185.0
  0
ARC
  5
89
330
1F
100
AcDbEntity
  8
0
  6
CONTINUOUS
 62
     7
100
AcDbCircle
 10
3.3567567166
 20
2.7629702259
 30
0.0
 40
0.2035433070866127
100
AcDbArc
 50
340.1121919354
 51
8.9447480122
  0
LINE
  5
8A
330
1F
100
AcDbEntity
  8
0
  6
CONTINUOUS
 62
     7
100
AcDbLine
 10
15.0392418295
 20
3.7991112323
 30
0.0
 11
3.5578246772
 21
2.7946175029
 31
0.0
  0
ARC
  5
8B
330
1F
100
AcDbEntity
  8
0
  6
CONTINUOUS
 62
     7
100
AcDbCircle
 10
15.2427506107
 20
3.8028597271
 30
0.0
 40
0.2035432695399192
100
AcDbArc
 50
181.0551896256
 51
209.8878378453
  0
ARC
  5
8C
330
1F
100
AcDbEntity
  8
0
  6
CONTINUOUS
 62
     7
100
AcDbCircle
 10
15.0321441995
 20
3.6818151495
 30
0.0
 40
0.0393700245933011
100
AcDbArc
 50
5.0
 51
29.8878378453
  0
LINE
  5
8D
330
1F
100
AcDbEntity
  8
0
  6
CONTINUOUS
 62
     7
100
AcDbLine
 10
15.1141371777
 20
3.1963481155
 30
0.0
 11
15.0713649784
 21
3.6852464143
 31
0.0
  0
ARC
  5
8E
330
1F
100
AcDbEntity
  8
0
  6
CONTINUOUS
 62
     7
100
AcDbCircle
 10
15.0749172563
 20
3.1929168728
 30
0.0
 40
0.0393700787401592
100
AcDbArc
 50
340.1121195006
 51
5.0
  0
ARC
  5
8F
330
1F
100
AcDbEntity
  8
0
  6
CONTINUOUS
 62
     7
100
AcDbCircle
 10
15.3033433133
 20
3.1102824398
 30
0.0
 40
0.2035433070866167
100
AcDbArc
 50
160.1121195006
 51
347.3995434107
  0
ARC
  5
90
330
1F
100
AcDbEntity
  8
0
  6
CONTINUOUS
 62
     7
100
AcDbCircle
 10
15.5404061359
 20
3.0572906373
 30
0.0
 40
0.0393700787401601
100
AcDbArc
 50
95.0000489546
 51
167.3995434107
  0
LINE
  5
91
330
1F
100
AcDbEntity
  8
0
  6
CONTINUOUS
 62
     7
100
AcDbLine
 10
15.6955675809
 20
3.1103860152
 30
0.0
 11
15.5369746397
 21
3.0965109221
 31
0.0
  0
ARC
  5
92
330
1F
100
AcDbEntity
  8
0
  6
CONTINUOUS
 62
     7
100
AcDbCircle
 10
15.6989986226
 20
3.0711658185
 30
0.0
 40
0.0393700787401609
100
AcDbArc
 50
22.6004769824
 51
95.0000489546
  0
ARC
  5
93
330
1F
100
AcDbEntity
  8
0
  6
CONTINUOUS
 62
     7
100
AcDbCircle
 10
15.9232579651
 20
3.1645181635
 30
0.0
 40
0.2035433070866152
100
AcDbArc
 50
202.6004769824
 51
29.8879035534
  0
ARC
  5
94
330
1F
100
AcDbEntity
  8
0
  6
CONTINUOUS
 62
     7
100
AcDbCircle
 10
16.1338643496
 20
3.285563047
 30
0.0
 40
0.0393700787401553
100
AcDbArc
 50
185.0
 51
209.8879035534
  0
LINE
  5
95
330
1F
100
AcDbEntity
  8
0
  6
CONTINUOUS
 62
     7
100
AcDbLine
 10
16.0518707716
 20
3.77102929
 30
0.0
 11
16.0946441441
 21
3.2821315778
 31
0.0
  0
ARC
  5
96
330
1F
100
AcDbEntity
  8
0
  6
CONTINUOUS
 62
     7
100
AcDbCircle
 10
16.0910927326
 20
3.7744608332
 30
0.0
 40
0.0393714704138574
100
AcDbArc
 50
160.1121919354
 51
185.0
  0
ARC
  5
97
330
1F
100
AcDbEntity
  8
0
  6
CONTINUOUS
 62
     7
100
AcDbCircle
 10
15.8626652625
 20
3.8570954508
 30
0.0
 40
0.2035433070866171
100
AcDbArc
 50
340.1121919354
 51
8.9447480121
  0
LINE
  5
98
330
1F
100
AcDbEntity
  8
0
  6
CONTINUOUS
 62
     7
100
AcDbLine
 10
17.1259159641
 20
3.98167187
 30
0.0
 11
16.0637330345
 21
3.8887428902
 31
0.0
  0
LINE
  5
99
330
1F
100
AcDbEntity
  8
0
  6
CONTINUOUS
 62
     7
100
AcDbLine
 10
17.1259159641
 20
3.98167187
 30
0.0
 11
17.1259159641
 21
2.8658931596
 31
0.0
  0
LINE
  5
9A
330
1F
100
AcDbEntity
  8
0
  6
CONTINUOUS
 62
     7
100
AcDbLine
 10
16.5337156586
 20
33.1069553056
 30
0.0
 11
16.9307154457
 21
33.1769579102
 31
0.0
  0
ARC
  5
9B
330
1F
100
AcDbEntity
  8
0
  6
CONTINUOUS
 62
     7
100
AcDbCircle
 10
16.5747354358
 20
6.1360957991
 30
0.0
 40
0.236220472440948
100
AcDbArc
 50
180.0
 51
260.0
  0
ARC
  5
9C
330
1F
100
AcDbEntity
  8
0
  6
CONTINUOUS
 62
     7
100
AcDbCircle
 10
16.8896960657
 20
5.6008306342
 30
0.0
 40
0.2362204724409445
100
AcDbArc
 50
0.0
 51
80.0
  0
LINE
  5
9D
330
1F
100
AcDbEntity
  8
0
  6
CONTINUOUS
 62
     7
100
AcDbLine
 10
15.551113143
 20
4.623633254
 30
0.0
 11
17.1259159641
 21
4.7614106224
 31
0.0
  0
LINE
  5
9E
330
1F
100
AcDbEntity
  8
0
  6
CONTINUOUS
 62
     7
100
AcDbLine
 10
15.551113143
 20
34.3867867075
 30
0.0
 11
15.551113143
 21
4.623633254
 31
0.0
  0
LINE
  5
9F
330
1F
100
AcDbEntity
  8
0
  6
CONTINUOUS
 62
     7
100
AcDbLine
 10
17.1259159641
 20
34.2490084591
 30
0.0
 11
15.551113143
 21
34.3867867075
 31
0.0
  0
ARC
  5
A0
330
1F
100
AcDbEntity
  8
0
  6
CONTINUOUS
 62
     7
100
AcDbCircle
 10
16.5747354358
 20
32.8743233889
 30
0.0
 40
0.2362204724409519
100
AcDbArc
 50
100.0
 51
180.0
  0
LINE
  5
A1
330
1F
100
AcDbEntity
  8
0
  6
CONTINUOUS
 62
     7
100
AcDbLine
 10
16.9307154457
 20
5.8334626379
 30
0.0
 11
16.5337156586
 21
5.9034640693
 31
0.0
  0
LINE
  5
A2
330
1F
100
AcDbEntity
  8
0
  6
CONTINUOUS
 62
     7
100
AcDbLine
 10
17.1259159641
 20
5.600830872
 30
0.0
 11
17.1259159641
 21
4.7614106224
 31
0.0
  0
LINE
  5
A3
330
1F
100
AcDbEntity
  8
0
  6
CONTINUOUS
 62
     7
100
AcDbLine
 10
17.1259159641
 20
34.2490084591
 30
0.0
 11
17.1259159641
 21
33.4095896762
 31
0.0
  0
LINE
  5
A4
330
1F
100
AcDbEntity
  8
0
  6
CONTINUOUS
 62
     7
100
AcDbLine
 10
16.3385151402
 20
6.1360958352
 30
0.0
 11
16.3385151402
 21
32.8743235396
 31
0.0
  0
ARC
  5
A5
330
1F
100
AcDbEntity
  8
0
  6
CONTINUOUS
 62
     7
100
AcDbCircle
 10
16.8896960657
 20
33.4095885538
 30
0.0
 40
0.2362204724409449
100
AcDbArc
 50
280.0
 51
360.0
  0
ARC
  5
A6
330
1F
100
AcDbEntity
  8
0
  6
CONTINUOUS
 62
     7
100
AcDbCircle
 10
1.257806302
 20
37.5121393027
 30
0.0
 40
0.2362204724409465
100
AcDbArc
 50
85.0
 51
180.0
  0
ARC
  5
A7
330
1F
100
AcDbEntity
  8
0
  6
CONTINUOUS
 62
     7
100
AcDbCircle
 10
15.8626653226
 20
35.1533239512
 30
0.0
 40
0.2035433070866136
100
AcDbArc
 50
351.0551903544
 51
19.8879035534
  0
ARC
  5
A8
330
1F
100
AcDbEntity
  8
0
  6
CONTINUOUS
 62
     7
100
AcDbCircle
 10
16.0910913463
 20
35.2359584761
 30
0.0
 40
0.039370078740159
100
AcDbArc
 50
175.0
 51
199.8879035534
  0
LINE
  5
A9
330
1F
100
AcDbEntity
  8
0
  6
CONTINUOUS
 62
     7
100
AcDbLine
 10
16.0946441441
 20
35.728287797
 30
0.0
 11
16.0518707716
 21
35.2393889115
 31
0.0
  0
ARC
  5
AA
330
1F
100
AcDbEntity
  8
0
  6
CONTINUOUS
 62
     7
100
AcDbCircle
 10
15.9232579432
 20
35.8459012457
 30
0.0
 40
0.2035433070866164
100
AcDbArc
 50
330.1121919354
 51
157.3995434107
  0
ARC
  5
AB
330
1F
100
AcDbEntity
  8
0
  6
CONTINUOUS
 62
     7
100
AcDbCircle
 10
15.6989985674
 20
35.9392535108
 30
0.0
 40
0.0393700787401611
100
AcDbArc
 50
265.0000489546
 51
337.3995434107
  0
LINE
  5
AC
330
1F
100
AcDbEntity
  8
0
  6
CONTINUOUS
 62
     7
100
AcDbLine
 10
15.5369746397
 20
35.9139069861
 30
0.0
 11
15.6955675809
 21
35.900033653
 31
0.0
  0
ARC
  5
AD
330
1F
100
AcDbEntity
  8
0
  6
CONTINUOUS
 62
     7
100
AcDbCircle
 10
15.540406057
 20
35.953128421
 30
0.0
 40
0.0393701162868517
100
AcDbArc
 50
192.6004769824
 51
265.0000489546
  0
ARC
  5
AE
330
1F
100
AcDbEntity
  8
0
  6
CONTINUOUS
 62
     7
100
AcDbCircle
 10
15.3033432533
 20
35.9001365341
 30
0.0
 40
0.203543269539923
100
AcDbArc
 50
12.6004769824
 51
199.8878378453
  0
ARC
  5
AF
330
1F
100
AcDbEntity
  8
0
  6
CONTINUOUS
 62
     7
100
AcDbCircle
 10
15.0749172563
 20
35.8175023152
 30
0.0
 40
0.0393700245933031
100
AcDbArc
 50
355.0
 51
19.8878378453
  0
LINE
  5
B0
330
1F
100
AcDbEntity
  8
0
  6
CONTINUOUS
 62
     7
100
AcDbLine
 10
15.0713649784
 20
35.3251726672
 30
0.0
 11
15.1141371777
 21
35.8140715527
 31
0.0
  0
ARC
  5
B1
330
1F
100
AcDbEntity
  8
0
  6
CONTINUOUS
 62
     7
100
AcDbCircle
 10
15.0321441995
 20
35.3286040384
 30
0.0
 40
0.0393700787401535
100
AcDbArc
 50
330.1121195006
 51
355.0
  0
ARC
  5
B2
330
1F
100
AcDbEntity
  8
0
  6
CONTINUOUS
 62
     7
100
AcDbCircle
 10
15.2427506327
 20
35.2075592396
 30
0.0
 40
0.203543307086617
100
AcDbArc
 50
150.1121195006
 51
178.9447480122
  0
LINE
  5
B3
330
1F
100
AcDbEntity
  8
0
  6
CONTINUOUS
 62
     7
100
AcDbLine
 10
3.5578246772
 20
36.2158021652
 30
0.0
 11
15.0392418295
 21
35.2113066759
 31
0.0
  0
ARC
  5
B4
330
1F
100
AcDbEntity
  8
0
  6
CONTINUOUS
 62
     7
100
AcDbCircle
 10
3.3567567767
 20
36.2474491761
 30
0.0
 40
0.2035433070866148
100
AcDbArc
 50
351.0551903544
 51
19.8879035534
  0
ARC
  5
B5
330
1F
100
AcDbEntity
  8
0
  6
CONTINUOUS
 62
     7
100
AcDbCircle
 10
3.5851828004
 20
36.330083701
 30
0.0
 40
0.0393700787401623
100
AcDbArc
 50
175.0
 51
199.8879035534
  0
LINE
  5
B6
330
1F
100
AcDbEntity
  8
0
  6
CONTINUOUS
 62
     7
100
AcDbLine
 10
3.5887354934
 20
36.8224131843
 30
0.0
 11
3.5459624142
 21
36.3335142987
 31
0.0
  0
ARC
  5
B7
330
1F
100
AcDbEntity
  8
0
  6
CONTINUOUS
 62
     7
100
AcDbCircle
 10
3.62795719
 20
36.8189812445
 30
0.0
 40
0.0393714704138578
100
AcDbArc
 50
150.1121919354
 51
175.0
  0
ARC
  5
B8
330
1F
100
AcDbEntity
  8
0
  6
CONTINUOUS
 62
     7
100
AcDbCircle
 10
3.4173493972
 20
36.9400264706
 30
0.0
 40
0.2035433070866178
100
AcDbArc
 50
330.1121919354
 51
157.3995434107
  0
ARC
  5
B9
330
1F
100
AcDbEntity
  8
0
  6
CONTINUOUS
 62
     7
100
AcDbCircle
 10
3.1930900215
 20
37.0333787357
 30
0.0
 40
0.0393700787401611
100
AcDbArc
 50
265.0000489546
 51
337.3995434107
  0
LINE
  5
BA
330
1F
100
AcDbEntity
  8
0
  6
CONTINUOUS
 62
     7
100
AcDbLine
 10
3.0310662823
 20
37.0080323733
 30
0.0
 11
3.1896586369
 21
36.9941590403
 31
0.0
  0
ARC
  5
BB
330
1F
100
AcDbEntity
  8
0
  6
CONTINUOUS
 62
     7
100
AcDbCircle
 10
3.0344975111
 20
37.0472536459
 30
0.0
 40
0.0393701162868512
100
AcDbArc
 50
192.6004769824
 51
265.0000489546
  0
ARC
  5
BC
330
1F
100
AcDbEntity
  8
0
  6
CONTINUOUS
 62
     7
100
AcDbCircle
 10
2.7974347074
 20
36.994261759
 30
0.0
 40
0.2035432695399196
100
AcDbArc
 50
12.6004769824
 51
199.8878378453
  0
ARC
  5
BD
330
1F
100
AcDbEntity
  8
0
  6
CONTINUOUS
 62
     7
100
AcDbCircle
 10
2.5690087104
 20
36.91162754
 30
0.0
 40
0.0393700245933064
100
AcDbArc
 50
355.0
 51
19.8878378453
  0
LINE
  5
BE
330
1F
100
AcDbEntity
  8
0
  6
CONTINUOUS
 62
     7
100
AcDbLine
 10
2.5654560344
 20
36.4192980544
 30
0.0
 11
2.6082288203
 21
36.90819694
 31
0.0
  0
ARC
  5
BF
330
1F
100
AcDbEntity
  8
0
  6
CONTINUOUS
 62
     7
100
AcDbCircle
 10
2.5262356536
 20
36.4227292633
 30
0.0
 40
0.0393700787401619
100
AcDbArc
 50
330.1121195006
 51
355.0
  0
ARC
  5
C0
330
1F
100
AcDbEntity
  8
0
  6
CONTINUOUS
 62
     7
100
AcDbCircle
 10
2.7368420868
 20
36.3016844645
 30
0.0
 40
0.2035433070866139
100
AcDbArc
 50
150.1121195006
 51
178.9447480122
  0
LINE
  5
C1
330
1F
100
AcDbEntity
  8
0
  6
CONTINUOUS
 62
     7
100
AcDbLine
 10
1.0215858094
 20
36.4376933619
 30
0.0
 11
2.5333331789
 21
36.3054320632
 31
0.0
  0
LINE
  5
C2
330
1F
100
AcDbEntity
  8
0
  6
CONTINUOUS
 62
     7
100
AcDbLine
 10
1.0215858094
 20
36.4376933619
 30
0.0
 11
1.0215858094
 21
37.5121398298
 31
0.0
  0
LINE
  5
C3
330
1F
100
AcDbEntity
  8
0
  6
CONTINUOUS
 62
     7
100
AcDbLine
 10
1.2783943427
 20
37.7474608447
 30
0.0
 11
16.9102844284
 21
36.3798486968
 31
0.0
  0
ARC
  5
C4
330
1F
100
AcDbEntity
  8
0
  6
CONTINUOUS
 62
     7
100
AcDbCircle
 10
16.1338657359
 20
35.7248560197
 30
0.0
 40
0.0393714704138536
100
AcDbArc
 50
150.1121919354
 51
175.0
  0
ARC
  5
C5
330
1F
100
AcDbEntity
  8
0
  6
CONTINUOUS
 62
     7
100
AcDbCircle
 10
16.8896960657
 20
36.1445261589
 30
0.0
 40
0.2362204724409459
100
AcDbArc
 50
360.0
 51
85.0
  0
LINE
  5
C6
330
1F
100
AcDbEntity
  8
0
  6
CONTINUOUS
 62
     7
100
AcDbLine
 10
16.0637330345
 20
35.121676778
 30
0.0
 11
17.1259159641
 21
35.0287475049
 31
0.0
  0
LINE
  5
C7
330
1F
100
AcDbEntity
  8
0
  6
CONTINUOUS
 62
     7
100
AcDbLine
 10
17.1259159641
 20
36.1445253353
 30
0.0
 11
17.1259159641
 21
35.0287475049
 31
0.0
  0
LINE
  5
C8
330
1F
100
AcDbEntity
  8
0
  6
CONTINUOUS
 62
     7
100
AcDbLine
 10
1.0215858094
 20
3.3524641787
 30
0.0
 11
14.7877278284
 21
4.5568455455
 31
0.0
  0
LINE
  5
C9
330
1F
100
AcDbEntity
  8
0
  6
CONTINUOUS
 62
     7
100
AcDbLine
 10
1.0215858094
 20
3.3524641787
 30
0.0
 11
1.0215858094
 21
35.6579543162
 31
0.0
  0
LINE
  5
CA
330
1F
100
AcDbEntity
  8
0
  6
CONTINUOUS
 62
     7
100
AcDbLine
 10
14.7877278284
 20
34.453574416
 30
0.0
 11
1.0215858094
 21
35.6579543162
 31
0.0
  0
LINE
  5
CB
330
1F
100
AcDbEntity
  8
0
  6
CONTINUOUS
 62
     7
100
AcDbLine
 10
14.7877278284
 20
4.5568455455
 30
0.0
 11
14.7877278284
 21
34.453574416
 31
0.0
  0
ARC
  5
CC
330
1F
100
AcDbEntity
  8
0
  6
CONTINUOUS
 62
     7
100
AcDbCircle
 10
15.6256024399
 20
3.9100872533
 30
0.0
 40
0.0393700787401557
100
AcDbArc
 50
275.0000489546
 51
347.3995434107
  0
LINE
  5
CD
330
1F
100
AcDbEntity
  8
0
  6
CONTINUOUS
 62
     7
100
AcDbLine
 10
15.6290333095
 20
3.87086707
 30
0.0
 11
15.4704415416
 21
3.8569916836
 31
0.0
  0
ARC
  5
CE
330
1F
100
AcDbEntity
  8
0
  6
CONTINUOUS
 62
     7
100
AcDbCircle
 10
15.4670099533
 20
3.8962120721
 30
0.0
 40
0.0393700787401576
100
AcDbArc
 50
202.6004769824
 51
275.0000489546
  0
ARC
  5
CF
330
1F
100
AcDbEntity
  8
0
  6
CONTINUOUS
 62
     7
100
AcDbCircle
 10
3.119693894
 20
2.8159620284
 30
0.0
 40
0.03937007874016
100
AcDbArc
 50
275.0000489546
 51
347.3995434107
  0
LINE
  5
D0
330
1F
100
AcDbEntity
  8
0
  6
CONTINUOUS
 62
     7
100
AcDbLine
 10
3.1231252455
 20
2.7767416828
 30
0.0
 11
2.9645328909
 21
2.7628665897
 31
0.0
  0
ARC
  5
D1
330
1F
100
AcDbEntity
  8
0
  6
CONTINUOUS
 62
     7
100
AcDbCircle
 10
2.9611014073
 20
2.8020868472
 30
0.0
 40
0.0393700787401613
100
AcDbArc
 50
202.6004769824
 51
275.0000489546
  0
ARC
  5
D2
330
1F
100
AcDbEntity
  8
0
  6
CONTINUOUS
 62
     7
100
AcDbCircle
 10
2.9611014625
 20
36.2083321994
 30
0.0
 40
0.0393700787401607
100
AcDbArc
 50
85.0000489546
 51
157.3995434107
  0
LINE
  5
D3
330
1F
100
AcDbEntity
  8
0
  6
CONTINUOUS
 62
     7
100
AcDbLine
 10
2.9645328909
 20
36.2475521985
 30
0.0
 11
3.1231252455
 21
36.2336765187
 31
0.0
  0
ARC
  5
D4
330
1F
100
AcDbEntity
  8
0
  6
CONTINUOUS
 62
     7
100
AcDbCircle
 10
3.1196939729
 20
36.1944572892
 30
0.0
 40
0.0393700787401611
100
AcDbArc
 50
12.6004769824
 51
85.0000489546
  0
ARC
  5
D5
330
1F
100
AcDbEntity
  8
0
  6
CONTINUOUS
 62
     7
100
AcDbCircle
 10
15.4670100084
 20
35.1142069745
 30
0.0
 40
0.0393700787401611
100
AcDbArc
 50
85.0000489546
 51
157.3995434107
  0
LINE
  5
D6
330
1F
100
AcDbEntity
  8
0
  6
CONTINUOUS
 62
     7
100
AcDbLine
 10
15.4704415416
 20
35.1534268112
 30
0.0
 11
15.6290333095
 21
35.1395534782
 31
0.0
  0
ARC
  5
D7
330
1F
100
AcDbEntity
  8
0
  6
CONTINUOUS
 62
     7
100
AcDbCircle
 10
15.6256025188
 20
35.1003320643
 30
0.0
 40
0.0393700787401606
100
AcDbArc
 50
12.6004769824
 51
85.0000489546
  0
LINE
  5
D8
330
1F
100
AcDbEntity
  8
0
  6
CONTINUOUS
 62
     7
100
AcDbLine
 10
1.0215858094
 20
3.3524641787
 30
0.0
 11
1.0215858094
 21
2.5727254263
 31
0.0
  0
LINE
  5
D9
330
1F
100
AcDbEntity
  8
0
  6
CONTINUOUS
 62
     7
100
AcDbLine
 10
1.0215858094
 20
36.4376933619
 30
0.0
 11
1.0215858094
 21
35.6579543162
 31
0.0
  0
ARC
  5
DA
330
1F
100
AcDbEntity
  8
0
  6
CONTINUOUS
 62
     7
100
AcDbCircle
 10
2.7368420648
 20
2.7087345023
 30
0.0
 40
0.2035433070866085
100
AcDbArc
 50
22.6004769824
 51
181.0551896256
  0
ARC
  5
DB
330
1F
100
AcDbEntity
  8
0
  6
CONTINUOUS
 62
     7
100
AcDbCircle
 10
3.3567567166
 20
2.7629702259
 30
0.0
 40
0.2035433070866172
100
AcDbArc
 50
8.9447480121
 51
167.3995434107
  0
ARC
  5
DC
330
1F
100
AcDbEntity
  8
0
  6
CONTINUOUS
 62
     7
100
AcDbCircle
 10
2.7368420868
 20
36.3016844645
 30
0.0
 40
0.2035433070866173
100
AcDbArc
 50
178.9447480122
 51
337.3995434107
  0
ARC
  5
DD
330
1F
100
AcDbEntity
  8
0
  6
CONTINUOUS
 62
     7
100
AcDbCircle
 10
3.3567567767
 20
36.2474491761
 30
0.0
 40
0.2035433070866163
100
AcDbArc
 50
192.6004769824
 51
351.0551903544
  0
ARC
  5
DE
330
1F
100
AcDbEntity
  8
0
  6
CONTINUOUS
 62
     7
100
AcDbCircle
 10
15.2427506327
 20
35.2075592396
 30
0.0
 40
0.2035433070866137
100
AcDbArc
 50
178.9447480122
 51
337.3995434107
  0
ARC
  5
DF
330
1F
100
AcDbEntity
  8
0
  6
CONTINUOUS
 62
     7
100
AcDbCircle
 10
15.2427506107
 20
3.8028597271
 30
0.0
 40
0.2035433070866155
100
AcDbArc
 50
22.6004769824
 51
181.0551896256
  0
ARC
  5
E0
330
1F
100
AcDbEntity
  8
0
  6
CONTINUOUS
 62
     7
100
AcDbCircle
 10
15.8626652625
 20
3.8570954508
 30
0.0
 40
0.2035433070866138
100
AcDbArc
 50
8.9447480122
 51
167.3995434107
  0
ARC
  5
E1
330
1F
100
AcDbEntity
  8
0
  6
CONTINUOUS
 62
     7
100
AcDbCircle
 10
15.8626653226
 20
35.1533239512
 30
0.0
 40
0.2035433070866146
100
AcDbArc
 50
192.6004769824
 51
351.0551903544
  0
LINE
  5
E2
330
1F
100
AcDbEntity
  8
0
  6
CONTINUOUS
 62
     7
100
AcDbLine
 10
17.1259159641
 20
3.98167187
 30
0.0
 11
17.1259159641
 21
4.7614106224
 31
0.0
  0
LINE
  5
E3
330
1F
100
AcDbEntity
  8
0
  6
CONTINUOUS
 62
     7
100
AcDbLine
 10
17.1259159641
 20
34.2490084591
 30
0.0
 11
17.1259159641
 21
35.0287475049
 31
0.0
  0
LINE
  5
E4
330
1F
100
AcDbEntity
  8
0
  6
CONTINUOUS
 62
     7
100
AcDbLine
 10
47.5408767145
 20
1.1839079433
 30
0.0
 11
58.1333964822
 21
1.1839079433
 31
0.0
  0
LINE
  5
E5
330
1F
100
AcDbEntity
  8
0
  6
CONTINUOUS
 62
     7
100
AcDbLine
 10
47.5408767145
 20
2.6991101529
 30
0.0
 11
47.5408767145
 21
1.1839079433
 31
0.0
  0
LINE
  5
E6
330
1F
100
AcDbEntity
  8
0
  6
CONTINUOUS
 62
     7
100
AcDbLine
 10
58.1333964822
 20
2.6991101529
 30
0.0
 11
47.5408767145
 21
2.6991101529
 31
0.0
  0
LINE
  5
E7
330
1F
100
AcDbEntity
  8
0
  6
CONTINUOUS
 62
     7
100
AcDbLine
 10
58.1333964822
 20
1.1839079433
 30
0.0
 11
58.1333964822
 21
2.6991101529
 31
0.0
  0
LINE
  5
E8
330
1F
100
AcDbEntity
  8
0
  6
CONTINUOUS
 62
     7
100
AcDbLine
 10
58.1333964822
 20
17.2841385188
 30
0.0
 11
47.5408767145
 21
17.2841385188
 31
0.0
  0
LINE
  5
E9
330
1F
100
AcDbEntity
  8
0
  6
CONTINUOUS
 62
     7
100
AcDbLine
 10
47.5408767145
 20
3.4586678051
 30
0.0
 11
58.1333964822
 21
3.4586678051
 31
0.0
  0
LINE
  5
EA
330
1F
100
AcDbEntity
  8
0
  6
CONTINUOUS
 62
     7
100
AcDbLine
 10
47.5408767145
 20
17.2841385188
 30
0.0
 11
47.5408767145
 21
3.4586678051
 31
0.0
  0
LINE
  5
EB
330
1F
100
AcDbEntity
  8
0
  6
CONTINUOUS
 62
     7
100
AcDbLine
 10
58.1333964822
 20
3.4586678051
 30
0.0
 11
58.1333964822
 21
17.2841385188
 31
0.0
  0
LINE
  5
EC
330
1F
100
AcDbEntity
  8
0
  6
CONTINUOUS
 62
     7
100
AcDbLine
 10
47.5408767145
 20
2.6991101529
 30
0.0
 11
47.5408767145
 21
3.4586678051
 31
0.0
  0
LINE
  5
ED
330
1F
100
AcDbEntity
  8
0
  6
CONTINUOUS
 62
     7
100
AcDbLine
 10
58.1333964822
 20
3.4586678051
 30
0.0
 11
58.1333964822
 21
2.6991101529
 31
0.0
  0
ARC
  5
EE
330
1F
100
AcDbEntity
  8
0
  6
CONTINUOUS
 62
     7
100
AcDbCircle
 10
70.9475700815
 20
30.7196913301
 30
0.0
 40
0.236220472440948
100
AcDbArc
 50
270.0
 51
0.0
  0
LINE
  5
EF
330
1F
100
AcDbEntity
  8
0
  6
CONTINUOUS
 62
     7
100
AcDbLine
 10
67.484971012
 20
30.4834709456
 30
0.0
 11
70.9475690918
 21
30.4834709456
 31
0.0
  0
ARC
  5
F0
330
1F
100
AcDbEntity
  8
0
  6
CONTINUOUS
 62
     7
100
AcDbCircle
 10
67.4849716563
 20
30.0110299128
 30
0.0
 40
0.4724409448818854
100
AcDbArc
 50
90.0
 51
180.0
  0
LINE
  5
F1
330
1F
100
AcDbEntity
  8
0
  6
CONTINUOUS
 62
     7
100
AcDbLine
 10
67.0125314563
 20
26.4695416349
 30
0.0
 11
67.0125314563
 21
30.0110290433
 31
0.0
  0
ARC
  5
F2
330
1F
100
AcDbEntity
  8
0
  6
CONTINUOUS
 62
     7
100
AcDbCircle
 10
66.2625307114
 20
26.469541084
 30
0.0
 40
0.75
100
AcDbArc
 50
300.0
 51
0.0
  0
ARC
  5
F3
330
1F
100
AcDbEntity
  8
0
  6
CONTINUOUS
 62
     7
100
AcDbCircle
 10
67.0125307114
 20
25.1705029783
 30
0.0
 40
0.75
100
AcDbArc
 50
120.0
 51
180.0
  0
LINE
  5
F4
330
1F
100
AcDbEntity
  8
0
  6
CONTINUOUS
 62
     7
100
AcDbLine
 10
66.2625313737
 20
23.2427597109
 30
0.0
 11
66.2625313737
 21
25.1705029881
 31
0.0
  0
ARC
  5
F5
330
1F
100
AcDbEntity
  8
0
  6
CONTINUOUS
 62
     7
100
AcDbCircle
 10
67.0125307114
 20
23.2427596522
 30
0.0
 40
0.75
100
AcDbArc
 50
180.0
 51
240.0
  0
ARC
  5
F6
330
1F
100
AcDbEntity
  8
0
  6
CONTINUOUS
 62
     7
100
AcDbCircle
 10
66.2625307114
 20
21.9437215465
 30
0.0
 40
0.75
100
AcDbArc
 50
0.0
 51
60.0
  0
LINE
  5
F7
330
1F
100
AcDbEntity
  8
0
  6
CONTINUOUS
 62
     7
100
AcDbLine
 10
67.0125314563
 20
18.4022324824
 30
0.0
 11
67.0125314563
 21
21.9437210642
 31
0.0
  0
ARC
  5
F8
330
1F
100
AcDbEntity
  8
0
  6
CONTINUOUS
 62
     7
100
AcDbCircle
 10
67.4849716563
 20
18.4022327177
 30
0.0
 40
0.4724409448818818
100
AcDbArc
 50
180.0
 51
270.0
  0
LINE
  5
F9
330
1F
100
AcDbEntity
  8
0
  6
CONTINUOUS
 62
     7
100
AcDbLine
 10
70.9475690918
 20
17.9297917535
 30
0.0
 11
67.484971012
 21
17.9297917535
 31
0.0
  0
ARC
  5
FA
330
1F
100
AcDbEntity
  8
0
  6
CONTINUOUS
 62
     7
100
AcDbCircle
 10
70.9475700815
 20
17.6935713003
 30
0.0
 40
0.236220472440948
100
AcDbArc
 50
0.0
 51
90.0
  0
LINE
  5
FB
330
1F
100
AcDbEntity
  8
0
  6
CONTINUOUS
 62
     7
100
AcDbLine
 10
71.1837912162
 20
17.2309730529
 30
0.0
 11
71.1837912162
 21
17.6935708023
 31
0.0
  0
ARC
  5
FC
330
1F
100
AcDbEntity
  8
0
  6
CONTINUOUS
 62
     7
100
AcDbCircle
 10
71.1444204752
 20
17.2309728751
 30
0.0
 40
0.0393700787401627
100
AcDbArc
 50
270.0
 51
0.0
  0
LINE
  5
FD
330
1F
100
AcDbEntity
  8
0
  6
CONTINUOUS
 62
     7
100
AcDbLine
 10
71.1444192977
 20
17.1916023077
 30
0.0
 11
70.9786714525
 21
17.1916023077
 31
0.0
  0
LINE
  5
FE
330
1F
100
AcDbEntity
  8
0
  6
CONTINUOUS
 62
     7
100
AcDbLine
 10
70.9786714525
 20
17.1916023077
 30
0.0
 11
70.9652815272
 21
17.4008099176
 31
0.0
  0
ARC
  5
FF
330
1F
100
AcDbEntity
  8
0
  6
CONTINUOUS
 62
     7
100
AcDbCircle
 10
70.925993471
 20
17.3982957098
 30
0.0
 40
0.0393700787401592
100
AcDbArc
 50
3.6619355755
 51
90.0
  0
LINE
  5
100
330
1F
100
AcDbEntity
  8
0
  6
CONTINUOUS
 62
     7
100
AcDbLine
 10
70.9259940877
 20
17.4376662385
 30
0.0
 11
70.3358470918
 21
17.4376662385
 31
0.0
  0
ARC
  5
101
330
1F
100
AcDbEntity
  8
0
  6
CONTINUOUS
 62
     7
100
AcDbCircle
 10
70.335848758
 20
17.4770358673
 30
0.0
 40
0.0393700787401592
100
AcDbArc
 50
245.1121079736
 51
270.0
  0
ARC
  5
102
330
1F
100
AcDbEntity
  8
0
  6
CONTINUOUS
 62
     7
100
AcDbCircle
 10
70.233620087
 20
17.2566811264
 30
0.0
 40
0.2035433070866172
100
AcDbArc
 50
65.1121079736
 51
252.3995332141
  0
ARC
  5
103
330
1F
100
AcDbEntity
  8
0
  6
CONTINUOUS
 62
     7
100
AcDbCircle
 10
70.1601685067
 20
17.0251389523
 30
0.0
 40
0.0393700787401627
100
AcDbArc
 50
0.0
 51
72.3995332141
  0
LINE
  5
104
330
1F
100
AcDbEntity
  8
0
  6
CONTINUOUS
 62
     7
100
AcDbLine
 10
66.7349709294
 20
16.9454609379
 30
0.0
 11
70.1995401864
 21
16.9454609379
 31
0.0
  0
LINE
  5
105
330
1F
100
AcDbEntity
  8
0
  6
CONTINUOUS
 62
     7
100
AcDbLine
 10
66.2625313737
 20
21.4712815085
 30
0.0
 11
66.2625313737
 21
17.4179016669
 31
0.0
  0
ARC
  5
106
330
1F
100
AcDbEntity
  8
0
  6
CONTINUOUS
 62
     7
100
AcDbCircle
 10
65.7900897665
 20
21.4712806016
 30
0.0
 40
0.4724409448818889
100
AcDbArc
 50
0.0
 51
90.0
  0
LINE
  5
107
330
1F
100
AcDbEntity
  8
0
  6
CONTINUOUS
 62
     7
100
AcDbLine
 10
64.7664688697
 20
21.9437210642
 30
0.0
 11
65.790091818
 21
21.9437210642
 31
0.0
  0
ARC
  5
108
330
1F
100
AcDbEntity
  8
0
  6
CONTINUOUS
 62
     7
100
AcDbCircle
 10
64.7664677193
 20
21.4712806016
 30
0.0
 40
0.4724409448818889
100
AcDbArc
 50
90.0
 51
180.0
  0
LINE
  5
109
330
1F
100
AcDbEntity
  8
0
  6
CONTINUOUS
 62
     7
100
AcDbLine
 10
64.2940246207
 20
17.4179016669
 30
0.0
 11
64.2940246207
 21
21.4712815085
 31
0.0
  0
LINE
  5
10A
330
1F
100
AcDbEntity
  8
0
  6
CONTINUOUS
 62
     7
100
AcDbLine
 10
60.3570205014
 20
16.9454609379
 30
0.0
 11
63.8215850651
 21
16.9454609379
 31
0.0
  0
ARC
  5
10B
330
1F
100
AcDbEntity
  8
0
  6
CONTINUOUS
 62
     7
100
AcDbCircle
 10
60.3963889791
 20
17.0251389523
 30
0.0
 40
0.0393700787401569
100
AcDbArc
 50
107.6004667859
 51
180.0
  0
ARC
  5
10C
330
1F
100
AcDbEntity
  8
0
  6
CONTINUOUS
 62
     7
100
AcDbCircle
 10
60.3229373988
 20
17.2566811264
 30
0.0
 40
0.2035433070866118
100
AcDbArc
 50
287.6004667859
 51
114.8878920264
  0
ARC
  5
10D
330
1F
100
AcDbEntity
  8
0
  6
CONTINUOUS
 62
     7
100
AcDbCircle
 10
60.2207087278
 20
17.4770358673
 30
0.0
 40
0.0393700787401609
100
AcDbArc
 50
270.0
 51
294.8878920264
  0
LINE
  5
10E
330
1F
100
AcDbEntity
  8
0
  6
CONTINUOUS
 62
     7
100
AcDbLine
 10
60.2207089027
 20
17.4376662385
 30
0.0
 11
59.6305619068
 21
17.4376662385
 31
0.0
  0
ARC
  5
10F
330
1F
100
AcDbEntity
  8
0
  6
CONTINUOUS
 62
     7
100
AcDbCircle
 10
59.6305640148
 20
17.3982957098
 30
0.0
 40
0.039370078740159
100
AcDbArc
 50
90.0
 51
176.3380644245
  0
LINE
  5
110
330
1F
100
AcDbEntity
  8
0
  6
CONTINUOUS
 62
     7
100
AcDbLine
 10
59.5912744673
 20
17.4008099176
 30
0.0
 11
59.577884542
 21
17.1916023077
 31
0.0
  0
LINE
  5
111
330
1F
100
AcDbEntity
  8
0
  6
CONTINUOUS
 62
     7
100
AcDbLine
 10
59.577884542
 20
17.1916023077
 30
0.0
 11
59.4121366967
 21
17.1916023077
 31
0.0
  0
ARC
  5
112
330
1F
100
AcDbEntity
  8
0
  6
CONTINUOUS
 62
     7
100
AcDbCircle
 10
59.4121370106
 20
17.2309728751
 30
0.0
 40
0.0393700787401556
100
AcDbArc
 50
180.0
 51
270.0
  0
LINE
  5
113
330
1F
100
AcDbEntity
  8
0
  6
CONTINUOUS
 62
     7
100
AcDbLine
 10
59.3727647782
 20
17.6935708023
 30
0.0
 11
59.3727647782
 21
17.2309730529
 31
0.0
  0
ARC
  5
114
330
1F
100
AcDbEntity
  8
0
  6
CONTINUOUS
 62
     7
100
AcDbCircle
 10
59.6089874043
 20
17.6935713003
 30
0.0
 40
0.236220472440948
100
AcDbArc
 50
90.0
 51
180.0
  0
LINE
  5
115
330
1F
100
AcDbEntity
  8
0
  6
CONTINUOUS
 62
     7
100
AcDbLine
 10
63.0715849825
 20
17.9297917535
 30
0.0
 11
59.6089869027
 21
17.9297917535
 31
0.0
  0
ARC
  5
116
330
1F
100
AcDbEntity
  8
0
  6
CONTINUOUS
 62
     7
100
AcDbCircle
 10
63.0715858295
 20
18.4022327177
 30
0.0
 40
0.472440944881896
100
AcDbArc
 50
270.0
 51
0.0
  0
LINE
  5
117
330
1F
100
AcDbEntity
  8
0
  6
CONTINUOUS
 62
     7
100
AcDbLine
 10
63.5440245381
 20
21.9437210642
 30
0.0
 11
63.5440245381
 21
18.4022324824
 31
0.0
  0
ARC
  5
118
330
1F
100
AcDbEntity
  8
0
  6
CONTINUOUS
 62
     7
100
AcDbCircle
 10
64.2940267744
 20
21.9437215465
 30
0.0
 40
0.7500000000000071
100
AcDbArc
 50
120.0
 51
180.0
  0
ARC
  5
119
330
1F
100
AcDbEntity
  8
0
  6
CONTINUOUS
 62
     7
100
AcDbCircle
 10
63.5440267744
 20
23.2427596522
 30
0.0
 40
0.7500000000000071
100
AcDbArc
 50
300.0
 51
0.0
  0
LINE
  5
11A
330
1F
100
AcDbEntity
  8
0
  6
CONTINUOUS
 62
     7
100
AcDbLine
 10
64.2940246207
 20
25.1705029881
 30
0.0
 11
64.2940246207
 21
23.2427597109
 31
0.0
  0
ARC
  5
11B
330
1F
100
AcDbEntity
  8
0
  6
CONTINUOUS
 62
     7
100
AcDbCircle
 10
63.5440267744
 20
25.1705029783
 30
0.0
 40
0.7500000000000071
100
AcDbArc
 50
0.0
 51
60.0
  0
ARC
  5
11C
330
1F
100
AcDbEntity
  8
0
  6
CONTINUOUS
 62
     7
100
AcDbCircle
 10
64.2940267744
 20
26.469541084
 30
0.0
 40
0.7500000000000071
100
AcDbArc
 50
180.0
 51
240.0
  0
LINE
  5
11D
330
1F
100
AcDbEntity
  8
0
  6
CONTINUOUS
 62
     7
100
AcDbLine
 10
63.5440245381
 20
30.0110290433
 30
0.0
 11
63.5440245381
 21
26.4695416349
 31
0.0
  0
ARC
  5
11E
330
1F
100
AcDbEntity
  8
0
  6
CONTINUOUS
 62
     7
100
AcDbCircle
 10
63.0715858295
 20
30.0110299128
 30
0.0
 40
0.472440944881896
100
AcDbArc
 50
0.0
 51
90.0
  0
LINE
  5
11F
330
1F
100
AcDbEntity
  8
0
  6
CONTINUOUS
 62
     7
100
AcDbLine
 10
59.6089869027
 20
30.4834709456
 30
0.0
 11
63.0715849825
 21
30.4834709456
 31
0.0
  0
ARC
  5
120
330
1F
100
AcDbEntity
  8
0
  6
CONTINUOUS
 62
     7
100
AcDbCircle
 10
59.6089874043
 20
30.7196913301
 30
0.0
 40
0.236220472440948
100
AcDbArc
 50
180.0
 51
270.0
  0
LINE
  5
121
330
1F
100
AcDbEntity
  8
0
  6
CONTINUOUS
 62
     7
100
AcDbLine
 10
59.3727647782
 20
31.1822908195
 30
0.0
 11
59.3727647782
 21
30.7196907234
 31
0.0
  0
ARC
  5
122
330
1F
100
AcDbEntity
  8
0
  6
CONTINUOUS
 62
     7
100
AcDbCircle
 10
59.4121370106
 20
31.1822897553
 30
0.0
 40
0.0393700787401556
100
AcDbArc
 50
90.0
 51
180.0
  0
LINE
  5
123
330
1F
100
AcDbEntity
  8
0
  6
CONTINUOUS
 62
     7
100
AcDbLine
 10
59.4121366967
 20
31.2216603913
 30
0.0
 11
59.577884542
 21
31.2216603913
 31
0.0
  0
LINE
  5
124
330
1F
100
AcDbEntity
  8
0
  6
CONTINUOUS
 62
     7
100
AcDbLine
 10
59.577884542
 20
31.2216603913
 30
0.0
 11
59.5912744673
 21
31.0124527814
 31
0.0
  0
ARC
  5
125
330
1F
100
AcDbEntity
  8
0
  6
CONTINUOUS
 62
     7
100
AcDbCircle
 10
59.6305640148
 20
31.0149669207
 30
0.0
 40
0.039370078740159
100
AcDbArc
 50
183.6619355755
 51
270.0
  0
LINE
  5
126
330
1F
100
AcDbEntity
  8
0
  6
CONTINUOUS
 62
     7
100
AcDbLine
 10
59.6305619068
 20
30.9755964605
 30
0.0
 11
60.2207089027
 21
30.9755964605
 31
0.0
  0
ARC
  5
127
330
1F
100
AcDbEntity
  8
0
  6
CONTINUOUS
 62
     7
100
AcDbCircle
 10
60.2207087278
 20
30.9362267632
 30
0.0
 40
0.0393700787401627
100
AcDbArc
 50
65.1121079736
 51
90.0
  0
ARC
  5
128
330
1F
100
AcDbEntity
  8
0
  6
CONTINUOUS
 62
     7
100
AcDbCircle
 10
60.3229373988
 20
31.1565815041
 30
0.0
 40
0.2035433070866144
100
AcDbArc
 50
245.1121079736
 51
72.3995332141
  0
ARC
  5
129
330
1F
100
AcDbEntity
  8
0
  6
CONTINUOUS
 62
     7
100
AcDbCircle
 10
60.3963889791
 20
31.3881236781
 30
0.0
 40
0.0393700787401569
100
AcDbArc
 50
180.0
 51
252.3995332141
  0
LINE
  5
12A
330
1F
100
AcDbEntity
  8
0
  6
CONTINUOUS
 62
     7
100
AcDbLine
 10
60.3570205014
 20
31.4678017612
 30
0.0
 11
60.3570205014
 21
31.3881239617
 31
0.0
  0
LINE
  5
12B
330
1F
100
AcDbEntity
  8
0
  6
CONTINUOUS
 62
     7
100
AcDbLine
 10
63.8215850651
 20
31.4678017612
 30
0.0
 11
60.3570205014
 21
31.4678017612
 31
0.0
  0
ARC
  5
12C
330
1F
100
AcDbEntity
  8
0
  6
CONTINUOUS
 62
     7
100
AcDbCircle
 10
63.8215858295
 20
30.9953606214
 30
0.0
 40
0.472440944881896
100
AcDbArc
 50
0.0
 51
90.0
  0
LINE
  5
12D
330
1F
100
AcDbEntity
  8
0
  6
CONTINUOUS
 62
     7
100
AcDbLine
 10
64.2940246207
 20
26.9419811905
 30
0.0
 11
64.2940246207
 21
30.9953598589
 31
0.0
  0
ARC
  5
12E
330
1F
100
AcDbEntity
  8
0
  6
CONTINUOUS
 62
     7
100
AcDbCircle
 10
64.7664677193
 20
26.9419820288
 30
0.0
 40
0.4724409448818889
100
AcDbArc
 50
180.0
 51
270.0
  0
LINE
  5
12F
330
1F
100
AcDbEntity
  8
0
  6
CONTINUOUS
 62
     7
100
AcDbLine
 10
65.790091818
 20
26.4695416349
 30
0.0
 11
64.7664688697
 21
26.4695416349
 31
0.0
  0
ARC
  5
130
330
1F
100
AcDbEntity
  8
0
  6
CONTINUOUS
 62
     7
100
AcDbCircle
 10
65.7900897665
 20
26.9419820288
 30
0.0
 40
0.4724409448818889
100
AcDbArc
 50
270.0
 51
0.0
  0
LINE
  5
131
330
1F
100
AcDbEntity
  8
0
  6
CONTINUOUS
 62
     7
100
AcDbLine
 10
66.2625313737
 20
30.9953598589
 30
0.0
 11
66.2625313737
 21
26.9419811905
 31
0.0
  0
ARC
  5
132
330
1F
100
AcDbEntity
  8
0
  6
CONTINUOUS
 62
     7
100
AcDbCircle
 10
66.7349716563
 20
30.9953606214
 30
0.0
 40
0.472440944881896
100
AcDbArc
 50
90.0
 51
180.0
  0
LINE
  5
133
330
1F
100
AcDbEntity
  8
0
  6
CONTINUOUS
 62
     7
100
AcDbLine
 10
70.1995401864
 20
31.4678017612
 30
0.0
 11
66.7349709294
 21
31.4678017612
 31
0.0
  0
LINE
  5
134
330
1F
100
AcDbEntity
  8
0
  6
CONTINUOUS
 62
     7
100
AcDbLine
 10
70.1995401864
 20
31.3881239617
 30
0.0
 11
70.1995401864
 21
31.4678017612
 31
0.0
  0
ARC
  5
135
330
1F
100
AcDbEntity
  8
0
  6
CONTINUOUS
 62
     7
100
AcDbCircle
 10
70.1601685067
 20
31.3881236781
 30
0.0
 40
0.0393700787401603
100
AcDbArc
 50
287.6004667859
 51
0.0
  0
ARC
  5
136
330
1F
100
AcDbEntity
  8
0
  6
CONTINUOUS
 62
     7
100
AcDbCircle
 10
70.233620087
 20
31.1565815041
 30
0.0
 40
0.2035433070866112
100
AcDbArc
 50
107.6004667859
 51
294.8878920264
  0
ARC
  5
137
330
1F
100
AcDbEntity
  8
0
  6
CONTINUOUS
 62
     7
100
AcDbCircle
 10
70.335848758
 20
30.9362267632
 30
0.0
 40
0.0393700787401609
100
AcDbArc
 50
90.0
 51
114.8878920264
  0
LINE
  5
138
330
1F
100
AcDbEntity
  8
0
  6
CONTINUOUS
 62
     7
100
AcDbLine
 10
70.3358470918
 20
30.9755964605
 30
0.0
 11
70.9259940877
 21
30.9755964605
 31
0.0
  0
ARC
  5
139
330
1F
100
AcDbEntity
  8
0
  6
CONTINUOUS
 62
     7
100
AcDbCircle
 10
70.925993471
 20
31.0149669207
 30
0.0
 40
0.039370078740159
100
AcDbArc
 50
270.0
 51
356.3380644245
  0
LINE
  5
13A
330
1F
100
AcDbEntity
  8
0
  6
CONTINUOUS
 62
     7
100
AcDbLine
 10
70.9652815272
 20
31.0124527814
 30
0.0
 11
70.9786714525
 21
31.2216603913
 31
0.0
  0
LINE
  5
13B
330
1F
100
AcDbEntity
  8
0
  6
CONTINUOUS
 62
     7
100
AcDbLine
 10
70.9786714525
 20
31.2216603913
 30
0.0
 11
71.1444192977
 21
31.2216603913
 31
0.0
  0
ARC
  5
13C
330
1F
100
AcDbEntity
  8
0
  6
CONTINUOUS
 62
     7
100
AcDbCircle
 10
71.1444204752
 20
31.1822897553
 30
0.0
 40
0.0393700787401627
100
AcDbArc
 50
0.0
 51
90.0
  0
LINE
  5
13D
330
1F
100
AcDbEntity
  8
0
  6
CONTINUOUS
 62
     7
100
AcDbLine
 10
71.1837912162
 20
30.7196907234
 30
0.0
 11
71.1837912162
 21
31.1822908195
 31
0.0
  0
LINE
  5
13E
330
1F
100
AcDbEntity
  8
0
  6
CONTINUOUS
 62
     7
100
AcDbLine
 10
70.1995401864
 20
16.9454609379
 30
0.0
 11
70.1995401864
 21
17.0251387374
 31
0.0
  0
ARC
  5
13F
330
1F
100
AcDbEntity
  8
0
  6
CONTINUOUS
 62
     7
100
AcDbCircle
 10
66.7349716563
 20
17.417902009
 30
0.0
 40
0.4724409448818925
100
AcDbArc
 50
180.0
 51
270.0
  0
LINE
  5
140
330
1F
100
AcDbEntity
  8
0
  6
CONTINUOUS
 62
     7
100
AcDbLine
 10
60.3570205014
 20
17.0251387374
 30
0.0
 11
60.3570205014
 21
16.9454609379
 31
0.0
  0
ARC
  5
141
330
1F
100
AcDbEntity
  8
0
  6
CONTINUOUS
 62
     7
100
AcDbCircle
 10
63.8215858295
 20
17.417902009
 30
0.0
 40
0.472440944881896
100
AcDbArc
 50
270.0
 51
0.0
  0
ARC
  5
142
330
1F
100
AcDbEntity
  8
0
  6
CONTINUOUS
 62
     7
100
AcDbCircle
 10
59.6089874043
 20
1.9320181997
 30
0.0
 40
0.2362204724409551
100
AcDbArc
 50
90.0
 51
180.0
  0
LINE
  5
143
330
1F
100
AcDbEntity
  8
0
  6
CONTINUOUS
 62
     7
100
AcDbLine
 10
63.0715849825
 20
2.1682386856
 30
0.0
 11
59.6089869027
 21
2.1682386856
 31
0.0
  0
ARC
  5
144
330
1F
100
AcDbEntity
  8
0
  6
CONTINUOUS
 62
     7
100
AcDbCircle
 10
63.0715858295
 20
2.640679617
 30
0.0
 40
0.4724409448818889
100
AcDbArc
 50
270.0
 51
0.0
  0
LINE
  5
145
330
1F
100
AcDbEntity
  8
0
  6
CONTINUOUS
 62
     7
100
AcDbLine
 10
63.5440245381
 20
6.182168583
 30
0.0
 11
63.5440245381
 21
2.6406797079
 31
0.0
  0
ARC
  5
146
330
1F
100
AcDbEntity
  8
0
  6
CONTINUOUS
 62
     7
100
AcDbCircle
 10
64.2940267744
 20
6.1821684459
 30
0.0
 40
0.7499999999999964
100
AcDbArc
 50
120.0
 51
180.0
  0
ARC
  5
147
330
1F
100
AcDbEntity
  8
0
  6
CONTINUOUS
 62
     7
100
AcDbCircle
 10
63.5440267744
 20
7.4812065515
 30
0.0
 40
0.7499999999999969
100
AcDbArc
 50
300.0
 51
0.0
  0
LINE
  5
148
330
1F
100
AcDbEntity
  8
0
  6
CONTINUOUS
 62
     7
100
AcDbLine
 10
64.2940246207
 20
9.4089499203
 30
0.0
 11
64.2940246207
 21
7.4812066431
 31
0.0
  0
ARC
  5
149
330
1F
100
AcDbEntity
  8
0
  6
CONTINUOUS
 62
     7
100
AcDbCircle
 10
63.5440267744
 20
9.4089498777
 30
0.0
 40
0.7500000000000071
100
AcDbArc
 50
0.0
 51
60.0
  0
ARC
  5
14A
330
1F
100
AcDbEntity
  8
0
  6
CONTINUOUS
 62
     7
100
AcDbCircle
 10
64.2940267744
 20
10.7079879833
 30
0.0
 40
0.75
100
AcDbArc
 50
180.0
 51
240.0
  0
LINE
  5
14B
330
1F
100
AcDbEntity
  8
0
  6
CONTINUOUS
 62
     7
100
AcDbLine
 10
63.5440245381
 20
14.2494771488
 30
0.0
 11
63.5440245381
 21
10.707988567
 31
0.0
  0
ARC
  5
14C
330
1F
100
AcDbEntity
  8
0
  6
CONTINUOUS
 62
     7
100
AcDbCircle
 10
63.0715858295
 20
14.2494768122
 30
0.0
 40
0.4724409448818889
100
AcDbArc
 50
0.0
 51
90.0
  0
LINE
  5
14D
330
1F
100
AcDbEntity
  8
0
  6
CONTINUOUS
 62
     7
100
AcDbLine
 10
59.6089869027
 20
14.7219178778
 30
0.0
 11
63.0715849825
 21
14.7219178778
 31
0.0
  0
ARC
  5
14E
330
1F
100
AcDbEntity
  8
0
  6
CONTINUOUS
 62
     7
100
AcDbCircle
 10
59.6089874043
 20
14.9581382295
 30
0.0
 40
0.2362204724409551
100
AcDbArc
 50
180.0
 51
270.0
  0
LINE
  5
14F
330
1F
100
AcDbEntity
  8
0
  6
CONTINUOUS
 62
     7
100
AcDbLine
 10
59.3727647782
 20
15.4207365783
 30
0.0
 11
59.3727647782
 21
14.9581376556
 31
0.0
  0
ARC
  5
150
330
1F
100
AcDbEntity
  8
0
  6
CONTINUOUS
 62
     7
100
AcDbCircle
 10
59.4121370106
 20
15.4207366547
 30
0.0
 40
0.0393700787401627
100
AcDbArc
 50
90.0
 51
180.0
  0
LINE
  5
151
330
1F
100
AcDbEntity
  8
0
  6
CONTINUOUS
 62
     7
100
AcDbLine
 10
59.4121366967
 20
15.4601061501
 30
0.0
 11
59.577884542
 21
15.4601061501
 31
0.0
  0
LINE
  5
152
330
1F
100
AcDbEntity
  8
0
  6
CONTINUOUS
 62
     7
100
AcDbLine
 10
59.577884542
 20
15.4601061501
 30
0.0
 11
59.5912744673
 21
15.2508997136
 31
0.0
  0
ARC
  5
153
330
1F
100
AcDbEntity
  8
0
  6
CONTINUOUS
 62
     7
100
AcDbCircle
 10
59.6305640148
 20
15.25341382
 30
0.0
 40
0.0393700787401574
100
AcDbArc
 50
183.6619355755
 51
270.0
  0
LINE
  5
154
330
1F
100
AcDbEntity
  8
0
  6
CONTINUOUS
 62
     7
100
AcDbLine
 10
59.6305619068
 20
15.2140433927
 30
0.0
 11
60.2207089027
 21
15.2140433927
 31
0.0
  0
ARC
  5
155
330
1F
100
AcDbEntity
  8
0
  6
CONTINUOUS
 62
     7
100
AcDbCircle
 10
60.2207087278
 20
15.1746736625
 30
0.0
 40
0.0393700787401592
100
AcDbArc
 50
65.1121079736
 51
90.0
  0
ARC
  5
156
330
1F
100
AcDbEntity
  8
0
  6
CONTINUOUS
 62
     7
100
AcDbCircle
 10
60.3229373988
 20
15.3950284034
 30
0.0
 40
0.2035433070866126
100
AcDbArc
 50
245.1121079736
 51
72.3995332141
  0
ARC
  5
157
330
1F
100
AcDbEntity
  8
0
  6
CONTINUOUS
 62
     7
100
AcDbCircle
 10
60.3963889791
 20
15.6265705775
 30
0.0
 40
0.0393700787401627
100
AcDbArc
 50
180.0
 51
252.3995332141
  0
LINE
  5
158
330
1F
100
AcDbEntity
  8
0
  6
CONTINUOUS
 62
     7
100
AcDbLine
 10
60.3570205014
 20
15.7062486933
 30
0.0
 11
60.3570205014
 21
15.6265708938
 31
0.0
  0
LINE
  5
159
330
1F
100
AcDbEntity
  8
0
  6
CONTINUOUS
 62
     7
100
AcDbLine
 10
63.8215850651
 20
15.7062486933
 30
0.0
 11
60.3570205014
 21
15.7062486933
 31
0.0
  0
ARC
  5
15A
330
1F
100
AcDbEntity
  8
0
  6
CONTINUOUS
 62
     7
100
AcDbCircle
 10
63.8215858295
 20
15.2338075208
 30
0.0
 40
0.472440944881896
100
AcDbArc
 50
0.0
 51
90.0
  0
LINE
  5
15B
330
1F
100
AcDbEntity
  8
0
  6
CONTINUOUS
 62
     7
100
AcDbLine
 10
64.2940246207
 20
11.180429296
 30
0.0
 11
64.2940246207
 21
15.2338079644
 31
0.0
  0
ARC
  5
15C
330
1F
100
AcDbEntity
  8
0
  6
CONTINUOUS
 62
     7
100
AcDbCircle
 10
64.7664677193
 20
11.1804289282
 30
0.0
 40
0.472440944881896
100
AcDbArc
 50
180.0
 51
270.0
  0
LINE
  5
15D
330
1F
100
AcDbEntity
  8
0
  6
CONTINUOUS
 62
     7
100
AcDbLine
 10
65.790091818
 20
10.707988567
 30
0.0
 11
64.7664688697
 21
10.707988567
 31
0.0
  0
ARC
  5
15E
330
1F
100
AcDbEntity
  8
0
  6
CONTINUOUS
 62
     7
100
AcDbCircle
 10
65.7900897665
 20
11.1804289282
 30
0.0
 40
0.472440944881896
100
AcDbArc
 50
270.0
 51
0.0
  0
LINE
  5
15F
330
1F
100
AcDbEntity
  8
0
  6
CONTINUOUS
 62
     7
100
AcDbLine
 10
66.2625313737
 20
15.2338079644
 30
0.0
 11
66.2625313737
 21
11.180429296
 31
0.0
  0
ARC
  5
160
330
1F
100
AcDbEntity
  8
0
  6
CONTINUOUS
 62
     7
100
AcDbCircle
 10
66.7349716563
 20
15.2338075208
 30
0.0
 40
0.4724409448818907
100
AcDbArc
 50
90.0
 51
180.0
  0
LINE
  5
161
330
1F
100
AcDbEntity
  8
0
  6
CONTINUOUS
 62
     7
100
AcDbLine
 10
70.1995401864
 20
15.7062486933
 30
0.0
 11
66.7349709294
 21
15.7062486933
 31
0.0
  0
LINE
  5
162
330
1F
100
AcDbEntity
  8
0
  6
CONTINUOUS
 62
     7
100
AcDbLine
 10
70.1995401864
 20
15.6265708938
 30
0.0
 11
70.1995401864
 21
15.7062486933
 31
0.0
  0
ARC
  5
163
330
1F
100
AcDbEntity
  8
0
  6
CONTINUOUS
 62
     7
100
AcDbCircle
 10
70.1601685067
 20
15.6265705775
 30
0.0
 40
0.0393700787401586
100
AcDbArc
 50
287.6004667859
 51
0.0
  0
ARC
  5
164
330
1F
100
AcDbEntity
  8
0
  6
CONTINUOUS
 62
     7
100
AcDbCircle
 10
70.233620087
 20
15.3950284034
 30
0.0
 40
0.2035433070866123
100
AcDbArc
 50
107.6004667859
 51
294.8878920264
  0
ARC
  5
165
330
1F
100
AcDbEntity
  8
0
  6
CONTINUOUS
 62
     7
100
AcDbCircle
 10
70.335848758
 20
15.1746736625
 30
0.0
 40
0.0393700787401627
100
AcDbArc
 50
90.0
 51
114.8878920264
  0
LINE
  5
166
330
1F
100
AcDbEntity
  8
0
  6
CONTINUOUS
 62
     7
100
AcDbLine
 10
70.3358470918
 20
15.2140433927
 30
0.0
 11
70.9259940877
 21
15.2140433927
 31
0.0
  0
ARC
  5
167
330
1F
100
AcDbEntity
  8
0
  6
CONTINUOUS
 62
     7
100
AcDbCircle
 10
70.925993471
 20
15.25341382
 30
0.0
 40
0.039370078740159
100
AcDbArc
 50
270.0
 51
356.3380644245
  0
LINE
  5
168
330
1F
100
AcDbEntity
  8
0
  6
CONTINUOUS
 62
     7
100
AcDbLine
 10
70.9652815272
 20
15.2508997136
 30
0.0
 11
70.9786714525
 21
15.4601061501
 31
0.0
  0
LINE
  5
169
330
1F
100
AcDbEntity
  8
0
  6
CONTINUOUS
 62
     7
100
AcDbLine
 10
70.9786714525
 20
15.4601061501
 30
0.0
 11
71.1444192977
 21
15.4601061501
 31
0.0
  0
ARC
  5
16A
330
1F
100
AcDbEntity
  8
0
  6
CONTINUOUS
 62
     7
100
AcDbCircle
 10
71.1444204752
 20
15.4207366547
 30
0.0
 40
0.0393700787401574
100
AcDbArc
 50
0.0
 51
90.0
  0
LINE
  5
16B
330
1F
100
AcDbEntity
  8
0
  6
CONTINUOUS
 62
     7
100
AcDbLine
 10
71.1837912162
 20
14.9581376556
 30
0.0
 11
71.1837912162
 21
15.4207365783
 31
0.0
  0
ARC
  5
16C
330
1F
100
AcDbEntity
  8
0
  6
CONTINUOUS
 62
     7
100
AcDbCircle
 10
70.9475700815
 20
14.9581382295
 30
0.0
 40
0.236220472440948
100
AcDbArc
 50
270.0
 51
0.0
  0
LINE
  5
16D
330
1F
100
AcDbEntity
  8
0
  6
CONTINUOUS
 62
     7
100
AcDbLine
 10
67.484971012
 20
14.7219178778
 30
0.0
 11
70.9475690918
 21
14.7219178778
 31
0.0
  0
ARC
  5
16E
330
1F
100
AcDbEntity
  8
0
  6
CONTINUOUS
 62
     7
100
AcDbCircle
 10
67.4849716563
 20
14.2494768122
 30
0.0
 40
0.472440944881896
100
AcDbArc
 50
90.0
 51
180.0
  0
LINE
  5
16F
330
1F
100
AcDbEntity
  8
0
  6
CONTINUOUS
 62
     7
100
AcDbLine
 10
67.0125314563
 20
10.707988567
 30
0.0
 11
67.0125314563
 21
14.2494771488
 31
0.0
  0
ARC
  5
170
330
1F
100
AcDbEntity
  8
0
  6
CONTINUOUS
 62
     7
100
AcDbCircle
 10
66.2625307114
 20
10.7079879833
 30
0.0
 40
0.75
100
AcDbArc
 50
300.0
 51
0.0
  0
ARC
  5
171
330
1F
100
AcDbEntity
  8
0
  6
CONTINUOUS
 62
     7
100
AcDbCircle
 10
67.0125307114
 20
9.4089498777
 30
0.0
 40
0.75
100
AcDbArc
 50
120.0
 51
180.0
  0
LINE
  5
172
330
1F
100
AcDbEntity
  8
0
  6
CONTINUOUS
 62
     7
100
AcDbLine
 10
66.2625313737
 20
7.4812066431
 30
0.0
 11
66.2625313737
 21
9.4089499203
 31
0.0
  0
ARC
  5
173
330
1F
100
AcDbEntity
  8
0
  6
CONTINUOUS
 62
     7
100
AcDbCircle
 10
67.0125307114
 20
7.4812065515
 30
0.0
 40
0.7500000000000008
100
AcDbArc
 50
180.0
 51
240.0
  0
ARC
  5
174
330
1F
100
AcDbEntity
  8
0
  6
CONTINUOUS
 62
     7
100
AcDbCircle
 10
66.2625307114
 20
6.1821684459
 30
0.0
 40
0.75
100
AcDbArc
 50
0.0
 51
60.0
  0
LINE
  5
175
330
1F
100
AcDbEntity
  8
0
  6
CONTINUOUS
 62
     7
100
AcDbLine
 10
67.0125314563
 20
2.6406797079
 30
0.0
 11
67.0125314563
 21
6.182168583
 31
0.0
  0
ARC
  5
176
330
1F
100
AcDbEntity
  8
0
  6
CONTINUOUS
 62
     7
100
AcDbCircle
 10
67.4849716563
 20
2.640679617
 30
0.0
 40
0.4724409448818925
100
AcDbArc
 50
180.0
 51
270.0
  0
LINE
  5
177
330
1F
100
AcDbEntity
  8
0
  6
CONTINUOUS
 62
     7
100
AcDbLine
 10
70.9475690918
 20
2.1682386856
 30
0.0
 11
67.484971012
 21
2.1682386856
 31
0.0
  0
ARC
  5
178
330
1F
100
AcDbEntity
  8
0
  6
CONTINUOUS
 62
     7
100
AcDbCircle
 10
70.9475700815
 20
1.9320181997
 30
0.0
 40
0.2362204724409449
100
AcDbArc
 50
0.0
 51
90.0
  0
LINE
  5
179
330
1F
100
AcDbEntity
  8
0
  6
CONTINUOUS
 62
     7
100
AcDbLine
 10
71.1837912162
 20
1.4694198384
 30
0.0
 11
71.1837912162
 21
1.9320181744
 31
0.0
  0
ARC
  5
17A
330
1F
100
AcDbEntity
  8
0
  6
CONTINUOUS
 62
     7
100
AcDbCircle
 10
71.1444204752
 20
1.4694197745
 30
0.0
 40
0.0393700787401574
100
AcDbArc
 50
270.0
 51
0.0
  0
LINE
  5
17B
330
1F
100
AcDbEntity
  8
0
  6
CONTINUOUS
 62
     7
100
AcDbLine
 10
71.1444192977
 20
1.4300496799
 30
0.0
 11
70.9786714525
 21
1.4300496799
 31
0.0
  0
LINE
  5
17C
330
1F
100
AcDbEntity
  8
0
  6
CONTINUOUS
 62
     7
100
AcDbLine
 10
70.9786714525
 20
1.4300496799
 30
0.0
 11
70.9652815272
 21
1.6392571431
 31
0.0
  0
ARC
  5
17D
330
1F
100
AcDbEntity
  8
0
  6
CONTINUOUS
 62
     7
100
AcDbCircle
 10
70.925993471
 20
1.6367426092
 30
0.0
 40
0.039370078740159
100
AcDbArc
 50
3.6619355755
 51
90.0
  0
LINE
  5
17E
330
1F
100
AcDbEntity
  8
0
  6
CONTINUOUS
 62
     7
100
AcDbLine
 10
70.9259940877
 20
1.6761127307
 30
0.0
 11
70.3358470918
 21
1.6761127307
 31
0.0
  0
ARC
  5
17F
330
1F
100
AcDbEntity
  8
0
  6
CONTINUOUS
 62
     7
100
AcDbCircle
 10
70.335848758
 20
1.7154827666
 30
0.0
 40
0.0393700787401653
100
AcDbArc
 50
245.1121079736
 51
270.0
  0
ARC
  5
180
330
1F
100
AcDbEntity
  8
0
  6
CONTINUOUS
 62
     7
100
AcDbCircle
 10
70.233620087
 20
1.4951280257
 30
0.0
 40
0.2035433070866101
100
AcDbArc
 50
65.1121079736
 51
252.3995332141
  0
ARC
  5
181
330
1F
100
AcDbEntity
  8
0
  6
CONTINUOUS
 62
     7
100
AcDbCircle
 10
70.1601685067
 20
1.2635858517
 30
0.0
 40
0.0393700787401605
100
AcDbArc
 50
0.0
 51
72.3995332141
  0
LINE
  5
182
330
1F
100
AcDbEntity
  8
0
  6
CONTINUOUS
 62
     7
100
AcDbLine
 10
66.7349709294
 20
1.1839079433
 30
0.0
 11
70.1995401864
 21
1.1839079433
 31
0.0
  0
LINE
  5
183
330
1F
100
AcDbEntity
  8
0
  6
CONTINUOUS
 62
     7
100
AcDbLine
 10
66.2625313737
 20
5.7097272673
 30
0.0
 11
66.2625313737
 21
1.6563488923
 31
0.0
  0
ARC
  5
184
330
1F
100
AcDbEntity
  8
0
  6
CONTINUOUS
 62
     7
100
AcDbCircle
 10
65.7900897665
 20
5.709727501
 30
0.0
 40
0.472440944881896
100
AcDbArc
 50
0.0
 51
90.0
  0
LINE
  5
185
330
1F
100
AcDbEntity
  8
0
  6
CONTINUOUS
 62
     7
100
AcDbLine
 10
64.7664688697
 20
6.182168583
 30
0.0
 11
65.790091818
 21
6.182168583
 31
0.0
  0
ARC
  5
186
330
1F
100
AcDbEntity
  8
0
  6
CONTINUOUS
 62
     7
100
AcDbCircle
 10
64.7664677193
 20
5.709727501
 30
0.0
 40
0.472440944881896
100
AcDbArc
 50
90.0
 51
180.0
  0
LINE
  5
187
330
1F
100
AcDbEntity
  8
0
  6
CONTINUOUS
 62
     7
100
AcDbLine
 10
64.2940246207
 20
1.6563488923
 30
0.0
 11
64.2940246207
 21
5.7097272673
 31
0.0
  0
ARC
  5
188
330
1F
100
AcDbEntity
  8
0
  6
CONTINUOUS
 62
     7
100
AcDbCircle
 10
63.8215858295
 20
1.6563489084
 30
0.0
 40
0.4724409448818903
100
AcDbArc
 50
270.0
 51
0.0
  0
LINE
  5
189
330
1F
100
AcDbEntity
  8
0
  6
CONTINUOUS
 62
     7
100
AcDbLine
 10
60.3570205014
 20
1.2635858162
 30
0.0
 11
60.3570205014
 21
1.1839079433
 31
0.0
  0
ARC
  5
18A
330
1F
100
AcDbEntity
  8
0
  6
CONTINUOUS
 62
     7
100
AcDbCircle
 10
60.3963889791
 20
1.2635858517
 30
0.0
 40
0.0393700787401562
100
AcDbArc
 50
107.6004667859
 51
180.0
  0
ARC
  5
18B
330
1F
100
AcDbEntity
  8
0
  6
CONTINUOUS
 62
     7
100
AcDbCircle
 10
60.3229373988
 20
1.4951280257
 30
0.0
 40
0.2035433070866144
100
AcDbArc
 50
287.6004667859
 51
114.8878920264
  0
ARC
  5
18C
330
1F
100
AcDbEntity
  8
0
  6
CONTINUOUS
 62
     7
100
AcDbCircle
 10
60.2207087278
 20
1.7154827666
 30
0.0
 40
0.0393700787401613
100
AcDbArc
 50
270.0
 51
294.8878920264
  0
LINE
  5
18D
330
1F
100
AcDbEntity
  8
0
  6
CONTINUOUS
 62
     7
100
AcDbLine
 10
60.2207089027
 20
1.6761127307
 30
0.0
 11
59.6305619068
 21
1.6761127307
 31
0.0
  0
ARC
  5
18E
330
1F
100
AcDbEntity
  8
0
  6
CONTINUOUS
 62
     7
100
AcDbCircle
 10
59.6305640148
 20
1.6367426092
 30
0.0
 40
0.0393700787401574
100
AcDbArc
 50
90.0
 51
176.3380644245
  0
LINE
  5
18F
330
1F
100
AcDbEntity
  8
0
  6
CONTINUOUS
 62
     7
100
AcDbLine
 10
59.5912744673
 20
1.6392571431
 30
0.0
 11
59.577884542
 21
1.4300496799
 31
0.0
  0
LINE
  5
190
330
1F
100
AcDbEntity
  8
0
  6
CONTINUOUS
 62
     7
100
AcDbLine
 10
59.577884542
 20
1.4300496799
 30
0.0
 11
59.4121366967
 21
1.4300496799
 31
0.0
  0
ARC
  5
191
330
1F
100
AcDbEntity
  8
0
  6
CONTINUOUS
 62
     7
100
AcDbCircle
 10
59.4121370106
 20
1.4694197745
 30
0.0
 40
0.0393700787401627
100
AcDbArc
 50
180.0
 51
270.0
  0
LINE
  5
192
330
1F
100
AcDbEntity
  8
0
  6
CONTINUOUS
 62
     7
100
AcDbLine
 10
59.3727647782
 20
1.9320181744
 30
0.0
 11
59.3727647782
 21
1.4694198384
 31
0.0
  0
LINE
  5
193
330
1F
100
AcDbEntity
  8
0
  6
CONTINUOUS
 62
     7
100
AcDbLine
 10
60.3570205014
 20
1.1839079433
 30
0.0
 11
63.8215850651
 21
1.1839079433
 31
0.0
  0
ARC
  5
194
330
1F
100
AcDbEntity
  8
0
  6
CONTINUOUS
 62
     7
100
AcDbCircle
 10
66.7349716563
 20
1.6563489084
 30
0.0
 40
0.4724409448818903
100
AcDbArc
 50
180.0
 51
270.0
  0
LINE
  5
195
330
1F
100
AcDbEntity
  8
0
  6
CONTINUOUS
 62
     7
100
AcDbLine
 10
70.1995401864
 20
1.1839079433
 30
0.0
 11
70.1995401864
 21
1.2635858162
 31
0.0
  0
ARC
  5
196
330
1F
100
AcDbEntity
  8
0
  6
CONTINUOUS
 62
     7
100
AcDbCircle
 10
33.20636611
 20
35.1533239512
 30
0.0
 40
0.2035433070866148
100
AcDbArc
 50
351.0551903544
 51
19.8879035534
  0
ARC
  5
197
330
1F
100
AcDbEntity
  8
0
  6
CONTINUOUS
 62
     7
100
AcDbCircle
 10
33.4347921337
 20
35.2359584761
 30
0.0
 40
0.0393700787401614
100
AcDbArc
 50
175.0
 51
199.8879035534
  0
LINE
  5
198
330
1F
100
AcDbEntity
  8
0
  6
CONTINUOUS
 62
     7
100
AcDbLine
 10
33.4383450149
 20
35.728287797
 30
0.0
 11
33.3955728156
 21
35.2393889115
 31
0.0
  0
ARC
  5
199
330
1F
100
AcDbEntity
  8
0
  6
CONTINUOUS
 62
     7
100
AcDbCircle
 10
33.4775665233
 20
35.7248560197
 30
0.0
 40
0.0393714704138552
100
AcDbArc
 50
150.1121919354
 51
175.0
  0
ARC
  5
19A
330
1F
100
AcDbEntity
  8
0
  6
CONTINUOUS
 62
     7
100
AcDbCircle
 10
33.2669587306
 20
35.8459012457
 30
0.0
 40
0.2035433070866144
100
AcDbArc
 50
330.1121919354
 51
157.3995434107
  0
ARC
  5
19B
330
1F
100
AcDbEntity
  8
0
  6
CONTINUOUS
 62
     7
100
AcDbCircle
 10
33.0426993548
 20
35.9392535108
 30
0.0
 40
0.0393700787401578
100
AcDbArc
 50
265.0000489546
 51
337.3995434107
  0
LINE
  5
19C
330
1F
100
AcDbEntity
  8
0
  6
CONTINUOUS
 62
     7
100
AcDbLine
 10
32.8806755104
 20
35.9139069861
 30
0.0
 11
33.0392684517
 21
35.900033653
 31
0.0
  0
ARC
  5
19D
330
1F
100
AcDbEntity
  8
0
  6
CONTINUOUS
 62
     7
100
AcDbCircle
 10
32.8841068444
 20
35.953128421
 30
0.0
 40
0.0393701162868534
100
AcDbArc
 50
192.6004769824
 51
265.0000489546
  0
ARC
  5
19E
330
1F
100
AcDbEntity
  8
0
  6
CONTINUOUS
 62
     7
100
AcDbCircle
 10
32.6470440407
 20
35.9001365341
 30
0.0
 40
0.2035432695399178
100
AcDbArc
 50
12.6004769824
 51
199.8878378453
  0
ARC
  5
19F
330
1F
100
AcDbEntity
  8
0
  6
CONTINUOUS
 62
     7
100
AcDbCircle
 10
32.4186180437
 20
35.8175023152
 30
0.0
 40
0.0393700245932978
100
AcDbArc
 50
355.0
 51
19.8878378453
  0
LINE
  5
1A0
330
1F
100
AcDbEntity
  8
0
  6
CONTINUOUS
 62
     7
100
AcDbLine
 10
32.4150646759
 20
35.3251726672
 30
0.0
 11
32.4578392217
 21
35.8140715527
 31
0.0
  0
ARC
  5
1A1
330
1F
100
AcDbEntity
  8
0
  6
CONTINUOUS
 62
     7
100
AcDbCircle
 10
32.3758449869
 20
35.3286040384
 30
0.0
 40
0.0393700787401612
100
AcDbArc
 50
330.1121195006
 51
355.0
  0
ARC
  5
1A2
330
1F
100
AcDbEntity
  8
0
  6
CONTINUOUS
 62
     7
100
AcDbCircle
 10
32.5864514201
 20
35.2075592396
 30
0.0
 40
0.2035433070866135
100
AcDbArc
 50
150.1121195006
 51
178.9447480122
  0
LINE
  5
1A3
330
1F
100
AcDbEntity
  8
0
  6
CONTINUOUS
 62
     7
100
AcDbLine
 10
32.382941527
 20
35.2113066759
 30
0.0
 11
20.9071959091
 21
36.2153046776
 31
0.0
  0
ARC
  5
1A4
330
1F
100
AcDbEntity
  8
0
  6
CONTINUOUS
 62
     7
100
AcDbCircle
 10
20.7061288142
 20
36.246953006
 30
0.0
 40
0.2035433070866109
100
AcDbArc
 50
351.0551903544
 51
19.8879035534
  0
ARC
  5
1A5
330
1F
100
AcDbEntity
  8
0
  6
CONTINUOUS
 62
     7
100
AcDbCircle
 10
20.9345548379
 20
36.3295875309
 30
0.0
 40
0.0393700787401547
100
AcDbArc
 50
175.0
 51
199.8879035534
  0
LINE
  5
1A6
330
1F
100
AcDbEntity
  8
0
  6
CONTINUOUS
 62
     7
100
AcDbLine
 10
20.938108192
 20
36.8219156967
 30
0.0
 11
20.8953336461
 21
36.3330191578
 31
0.0
  0
ARC
  5
1A7
330
1F
100
AcDbEntity
  8
0
  6
CONTINUOUS
 62
     7
100
AcDbCircle
 10
20.9773292276
 20
36.8184850744
 30
0.0
 40
0.0393714704138571
100
AcDbArc
 50
150.1121919354
 51
175.0
  0
ARC
  5
1A8
330
1F
100
AcDbEntity
  8
0
  6
CONTINUOUS
 62
     7
100
AcDbCircle
 10
20.7667214348
 20
36.9395303005
 30
0.0
 40
0.2035433070866175
100
AcDbArc
 50
330.1121919354
 51
157.3995434107
  0
ARC
  5
1A9
330
1F
100
AcDbEntity
  8
0
  6
CONTINUOUS
 62
     7
100
AcDbCircle
 10
20.542462059
 20
37.0328825656
 30
0.0
 40
0.0393700787401643
100
AcDbArc
 50
265.0000489546
 51
337.3995434107
  0
LINE
  5
1AA
330
1F
100
AcDbEntity
  8
0
  6
CONTINUOUS
 62
     7
100
AcDbLine
 10
20.3804386876
 20
37.0075372324
 30
0.0
 11
20.5390316288
 21
36.9936615527
 31
0.0
  0
ARC
  5
1AB
330
1F
100
AcDbEntity
  8
0
  6
CONTINUOUS
 62
     7
100
AcDbCircle
 10
20.3838695487
 20
37.0467574758
 30
0.0
 40
0.0393701162868569
100
AcDbArc
 50
192.6004769824
 51
265.0000489546
  0
ARC
  5
1AC
330
1F
100
AcDbEntity
  8
0
  6
CONTINUOUS
 62
     7
100
AcDbCircle
 10
20.1468067449
 20
36.9937655889
 30
0.0
 40
0.2035432695399178
100
AcDbArc
 50
12.6004769824
 51
199.8878378453
  0
ARC
  5
1AD
330
1F
100
AcDbEntity
  8
0
  6
CONTINUOUS
 62
     7
100
AcDbCircle
 10
19.9183807479
 20
36.9111313699
 30
0.0
 40
0.0393700245932978
100
AcDbArc
 50
355.0
 51
19.8878378453
  0
LINE
  5
1AE
330
1F
100
AcDbEntity
  8
0
  6
CONTINUOUS
 62
     7
100
AcDbLine
 10
19.914827853
 20
36.4188029135
 30
0.0
 11
19.9576000522
 21
36.9076994524
 31
0.0
  0
ARC
  5
1AF
330
1F
100
AcDbEntity
  8
0
  6
CONTINUOUS
 62
     7
100
AcDbCircle
 10
19.8756076911
 20
36.4222330932
 30
0.0
 40
0.0393700787401552
100
AcDbArc
 50
330.1121195006
 51
355.0
  0
ARC
  5
1B0
330
1F
100
AcDbEntity
  8
0
  6
CONTINUOUS
 62
     7
100
AcDbCircle
 10
20.0862141243
 20
36.3011882944
 30
0.0
 40
0.203543307086617
100
AcDbArc
 50
150.1121195006
 51
178.9447480122
  0
LINE
  5
1B1
330
1F
100
AcDbEntity
  8
0
  6
CONTINUOUS
 62
     7
100
AcDbLine
 10
19.8827047041
 20
36.3049369222
 30
0.0
 11
18.3652866068
 21
36.4376933619
 31
0.0
  0
LINE
  5
1B2
330
1F
100
AcDbEntity
  8
0
  6
CONTINUOUS
 62
     7
100
AcDbLine
 10
18.3652866068
 20
37.5121398298
 30
0.0
 11
18.3652866068
 21
36.4376933619
 31
0.0
  0
ARC
  5
1B3
330
1F
100
AcDbEntity
  8
0
  6
CONTINUOUS
 62
     7
100
AcDbCircle
 10
18.6015070894
 20
37.5121393027
 30
0.0
 40
0.236220472440948
100
AcDbArc
 50
85.0
 51
180.0
  0
LINE
  5
1B4
330
1F
100
AcDbEntity
  8
0
  6
CONTINUOUS
 62
     7
100
AcDbLine
 10
34.2539852992
 20
36.3798486968
 30
0.0
 11
18.6220946268
 21
37.7474608447
 31
0.0
  0
ARC
  5
1B5
330
1F
100
AcDbEntity
  8
0
  6
CONTINUOUS
 62
     7
100
AcDbCircle
 10
34.2333968531
 20
36.1445261589
 30
0.0
 40
0.236220472440948
100
AcDbArc
 50
0.0
 51
85.0
  0
LINE
  5
1B6
330
1F
100
AcDbEntity
  8
0
  6
CONTINUOUS
 62
     7
100
AcDbLine
 10
34.4696180082
 20
35.0287475049
 30
0.0
 11
34.4696180082
 21
36.1445253353
 31
0.0
  0
LINE
  5
1B7
330
1F
100
AcDbEntity
  8
0
  6
CONTINUOUS
 62
     7
100
AcDbLine
 10
34.4696180082
 20
35.0287475049
 30
0.0
 11
33.4074350786
 21
35.121676778
 31
0.0
  0
ARC
  5
1B8
330
1F
100
AcDbEntity
  8
0
  6
CONTINUOUS
 62
     7
100
AcDbCircle
 10
20.0862141024
 20
2.7092306724
 30
0.0
 40
0.2035432695399224
100
AcDbArc
 50
181.0551896256
 51
209.8878378453
  0
ARC
  5
1B9
330
1F
100
AcDbEntity
  8
0
  6
CONTINUOUS
 62
     7
100
AcDbCircle
 10
19.8756076911
 20
2.5881860948
 30
0.0
 40
0.0393700245933044
100
AcDbArc
 50
5.0
 51
29.8878378453
  0
LINE
  5
1BA
330
1F
100
AcDbEntity
  8
0
  6
CONTINUOUS
 62
     7
100
AcDbLine
 10
19.9576000522
 20
2.1027191891
 30
0.0
 11
19.914827853
 21
2.591617488
 31
0.0
  0
ARC
  5
1BB
330
1F
100
AcDbEntity
  8
0
  6
CONTINUOUS
 62
     7
100
AcDbCircle
 10
19.9183807479
 20
2.099287818
 30
0.0
 40
0.0393700787401562
100
AcDbArc
 50
340.1121195006
 51
5.0
  0
ARC
  5
1BC
330
1F
100
AcDbEntity
  8
0
  6
CONTINUOUS
 62
     7
100
AcDbCircle
 10
20.1468068049
 20
2.016653385
 30
0.0
 40
0.2035433070866141
100
AcDbArc
 50
160.1121195006
 51
347.3995434107
  0
ARC
  5
1BD
330
1F
100
AcDbEntity
  8
0
  6
CONTINUOUS
 62
     7
100
AcDbCircle
 10
20.3838696275
 20
1.9636615825
 30
0.0
 40
0.0393700787401557
100
AcDbArc
 50
95.0000489546
 51
167.3995434107
  0
LINE
  5
1BE
330
1F
100
AcDbEntity
  8
0
  6
CONTINUOUS
 62
     7
100
AcDbLine
 10
20.5390316288
 20
2.0167570889
 30
0.0
 11
20.3804386876
 21
2.0028818491
 31
0.0
  0
ARC
  5
1BF
330
1F
100
AcDbEntity
  8
0
  6
CONTINUOUS
 62
     7
100
AcDbCircle
 10
20.5424621142
 20
1.9775367638
 30
0.0
 40
0.0393700787401564
100
AcDbArc
 50
22.6004769824
 51
95.0000489546
  0
ARC
  5
1C0
330
1F
100
AcDbEntity
  8
0
  6
CONTINUOUS
 62
     7
100
AcDbCircle
 10
20.7667214567
 20
2.0708891087
 30
0.0
 40
0.2035433070866188
100
AcDbArc
 50
202.6004769824
 51
29.8879035534
  0
ARC
  5
1C1
330
1F
100
AcDbEntity
  8
0
  6
CONTINUOUS
 62
     7
100
AcDbCircle
 10
20.9773278412
 20
2.1919339922
 30
0.0
 40
0.0393700787401636
100
AcDbArc
 50
185.0
 51
209.8879035534
  0
LINE
  5
1C2
330
1F
100
AcDbEntity
  8
0
  6
CONTINUOUS
 62
     7
100
AcDbLine
 10
20.8953336461
 20
2.677400217
 30
0.0
 11
20.938108192
 21
2.1885026515
 31
0.0
  0
ARC
  5
1C3
330
1F
100
AcDbEntity
  8
0
  6
CONTINUOUS
 62
     7
100
AcDbCircle
 10
20.9345562243
 20
2.6808317784
 30
0.0
 40
0.0393714704138538
100
AcDbArc
 50
160.1121919354
 51
185.0
  0
ARC
  5
1C4
330
1F
100
AcDbEntity
  8
0
  6
CONTINUOUS
 62
     7
100
AcDbCircle
 10
20.7061287542
 20
2.763466396
 30
0.0
 40
0.2035433070866154
100
AcDbArc
 50
340.1121919354
 51
8.9447480122
  0
LINE
  5
1C5
330
1F
100
AcDbEntity
  8
0
  6
CONTINUOUS
 62
     7
100
AcDbLine
 10
20.9071959091
 20
2.7951138172
 30
0.0
 11
32.382941527
 21
3.7991112323
 31
0.0
  0
ARC
  5
1C6
330
1F
100
AcDbEntity
  8
0
  6
CONTINUOUS
 62
     7
100
AcDbCircle
 10
32.5864513981
 20
3.8028597271
 30
0.0
 40
0.2035432695399257
100
AcDbArc
 50
181.0551896256
 51
209.8878378453
  0
ARC
  5
1C7
330
1F
100
AcDbEntity
  8
0
  6
CONTINUOUS
 62
     7
100
AcDbCircle
 10
32.3758449869
 20
3.6818151495
 30
0.0
 40
0.0393700245933053
100
AcDbArc
 50
5.0
 51
29.8878378453
  0
LINE
  5
1C8
330
1F
100
AcDbEntity
  8
0
  6
CONTINUOUS
 62
     7
100
AcDbLine
 10
32.4578392217
 20
3.1963481155
 30
0.0
 11
32.4150646759
 21
3.6852464143
 31
0.0
  0
ARC
  5
1C9
330
1F
100
AcDbEntity
  8
0
  6
CONTINUOUS
 62
     7
100
AcDbCircle
 10
32.4186180437
 20
3.1929168728
 30
0.0
 40
0.0393700787401603
100
AcDbArc
 50
340.1121195006
 51
5.0
  0
ARC
  5
1CA
330
1F
100
AcDbEntity
  8
0
  6
CONTINUOUS
 62
     7
100
AcDbCircle
 10
32.6470441007
 20
3.1102824398
 30
0.0
 40
0.2035433070866171
100
AcDbArc
 50
160.1121195006
 51
347.3995434107
  0
ARC
  5
1CB
330
1F
100
AcDbEntity
  8
0
  6
CONTINUOUS
 62
     7
100
AcDbCircle
 10
32.8841069233
 20
3.0572906373
 30
0.0
 40
0.0393700787401585
100
AcDbArc
 50
95.0000489546
 51
167.3995434107
  0
LINE
  5
1CC
330
1F
100
AcDbEntity
  8
0
  6
CONTINUOUS
 62
     7
100
AcDbLine
 10
33.0392684517
 20
3.1103860152
 30
0.0
 11
32.8806755104
 21
3.0965109221
 31
0.0
  0
ARC
  5
1CD
330
1F
100
AcDbEntity
  8
0
  6
CONTINUOUS
 62
     7
100
AcDbCircle
 10
33.04269941
 20
3.0711658185
 30
0.0
 40
0.0393700787401592
100
AcDbArc
 50
22.6004769824
 51
95.0000489546
  0
ARC
  5
1CE
330
1F
100
AcDbEntity
  8
0
  6
CONTINUOUS
 62
     7
100
AcDbCircle
 10
33.2669587525
 20
3.1645181635
 30
0.0
 40
0.2035433070866159
100
AcDbArc
 50
202.6004769824
 51
29.8879035534
  0
ARC
  5
1CF
330
1F
100
AcDbEntity
  8
0
  6
CONTINUOUS
 62
     7
100
AcDbCircle
 10
33.477565137
 20
3.285563047
 30
0.0
 40
0.0393700787401544
100
AcDbArc
 50
185.0
 51
209.8879035534
  0
LINE
  5
1D0
330
1F
100
AcDbEntity
  8
0
  6
CONTINUOUS
 62
     7
100
AcDbLine
 10
33.3955728156
 20
3.77102929
 30
0.0
 11
33.4383450149
 21
3.2821315778
 31
0.0
  0
ARC
  5
1D1
330
1F
100
AcDbEntity
  8
0
  6
CONTINUOUS
 62
     7
100
AcDbCircle
 10
33.43479352
 20
3.7744608332
 30
0.0
 40
0.0393714704138574
100
AcDbArc
 50
160.1121919354
 51
185.0
  0
ARC
  5
1D2
330
1F
100
AcDbEntity
  8
0
  6
CONTINUOUS
 62
     7
100
AcDbCircle
 10
33.2063660499
 20
3.8570954508
 30
0.0
 40
0.2035433070866133
100
AcDbArc
 50
340.1121919354
 51
8.9447480122
  0
LINE
  5
1D3
330
1F
100
AcDbEntity
  8
0
  6
CONTINUOUS
 62
     7
100
AcDbLine
 10
33.4074350786
 20
3.8887428902
 30
0.0
 11
34.4696180082
 21
3.98167187
 31
0.0
  0
LINE
  5
1D4
330
1F
100
AcDbEntity
  8
0
  6
CONTINUOUS
 62
     7
100
AcDbLine
 10
34.4696180082
 20
2.8658931596
 30
0.0
 11
34.4696180082
 21
3.98167187
 31
0.0
  0
ARC
  5
1D5
330
1F
100
AcDbEntity
  8
0
  6
CONTINUOUS
 62
     7
100
AcDbCircle
 10
34.2333968531
 20
2.8658930291
 30
0.0
 40
0.2362204724409451
100
AcDbArc
 50
275.0
 51
0.0
  0
LINE
  5
1D6
330
1F
100
AcDbEntity
  8
0
  6
CONTINUOUS
 62
     7
100
AcDbLine
 10
18.6220946268
 20
1.2629583101
 30
0.0
 11
34.2539852992
 21
2.6305714114
 31
0.0
  0
ARC
  5
1D7
330
1F
100
AcDbEntity
  8
0
  6
CONTINUOUS
 62
     7
100
AcDbCircle
 10
18.6015070894
 20
1.4982798853
 30
0.0
 40
0.2362204724409477
100
AcDbArc
 50
180.0
 51
275.0
  0
LINE
  5
1D8
330
1F
100
AcDbEntity
  8
0
  6
CONTINUOUS
 62
     7
100
AcDbLine
 10
18.3652866068
 20
2.5727254263
 30
0.0
 11
18.3652866068
 21
1.4982798383
 31
0.0
  0
LINE
  5
1D9
330
1F
100
AcDbEntity
  8
0
  6
CONTINUOUS
 62
     7
100
AcDbLine
 10
18.3652866068
 20
2.5727254263
 30
0.0
 11
19.8827047041
 21
2.7054824526
 31
0.0
  0
ARC
  5
1DA
330
1F
100
AcDbEntity
  8
0
  6
CONTINUOUS
 62
     7
100
AcDbCircle
 10
33.9184362232
 20
32.8743233889
 30
0.0
 40
0.236220472440948
100
AcDbArc
 50
100.0
 51
180.0
  0
LINE
  5
1DB
330
1F
100
AcDbEntity
  8
0
  6
CONTINUOUS
 62
     7
100
AcDbLine
 10
33.6822148377
 20
32.8743235396
 30
0.0
 11
33.6822148377
 21
6.1360958352
 31
0.0
  0
ARC
  5
1DC
330
1F
100
AcDbEntity
  8
0
  6
CONTINUOUS
 62
     7
100
AcDbCircle
 10
33.9184362232
 20
6.1360957991
 30
0.0
 40
0.236220472440948
100
AcDbArc
 50
180.0
 51
260.0
  0
LINE
  5
1DD
330
1F
100
AcDbEntity
  8
0
  6
CONTINUOUS
 62
     7
100
AcDbLine
 10
33.8774177027
 20
5.9034640693
 30
0.0
 11
34.2744151432
 21
5.8334626379
 31
0.0
  0
ARC
  5
1DE
330
1F
100
AcDbEntity
  8
0
  6
CONTINUOUS
 62
     7
100
AcDbCircle
 10
34.2333968531
 20
5.6008306342
 30
0.0
 40
0.236220472440948
100
AcDbArc
 50
0.0
 51
80.0
  0
LINE
  5
1DF
330
1F
100
AcDbEntity
  8
0
  6
CONTINUOUS
 62
     7
100
AcDbLine
 10
34.4696180082
 20
4.7614106224
 30
0.0
 11
34.4696180082
 21
5.600830872
 31
0.0
  0
LINE
  5
1E0
330
1F
100
AcDbEntity
  8
0
  6
CONTINUOUS
 62
     7
100
AcDbLine
 10
34.4696180082
 20
4.7614106224
 30
0.0
 11
32.8948140138
 21
4.623633254
 31
0.0
  0
LINE
  5
1E1
330
1F
100
AcDbEntity
  8
0
  6
CONTINUOUS
 62
     7
100
AcDbLine
 10
32.8948140138
 20
4.623633254
 30
0.0
 11
32.8948140138
 21
34.3867867075
 31
0.0
  0
LINE
  5
1E2
330
1F
100
AcDbEntity
  8
0
  6
CONTINUOUS
 62
     7
100
AcDbLine
 10
34.2744151432
 20
33.1769579102
 30
0.0
 11
33.8774177027
 21
33.1069553056
 31
0.0
  0
ARC
  5
1E3
330
1F
100
AcDbEntity
  8
0
  6
CONTINUOUS
 62
     7
100
AcDbCircle
 10
34.2333968531
 20
33.4095885538
 30
0.0
 40
0.236220472440948
100
AcDbArc
 50
280.0
 51
0.0
  0
LINE
  5
1E4
330
1F
100
AcDbEntity
  8
0
  6
CONTINUOUS
 62
     7
100
AcDbLine
 10
32.8948140138
 20
34.3867867075
 30
0.0
 11
34.4696180082
 21
34.2490084591
 31
0.0
  0
LINE
  5
1E5
330
1F
100
AcDbEntity
  8
0
  6
CONTINUOUS
 62
     7
100
AcDbLine
 10
34.4696180082
 20
33.4095896762
 30
0.0
 11
34.4696180082
 21
34.2490084591
 31
0.0
  0
LINE
  5
1E6
330
1F
100
AcDbEntity
  8
0
  6
CONTINUOUS
 62
     7
100
AcDbLine
 10
18.3652866068
 20
35.6579543162
 30
0.0
 11
18.3652866068
 21
3.3524641787
 31
0.0
  0
LINE
  5
1E7
330
1F
100
AcDbEntity
  8
0
  6
CONTINUOUS
 62
     7
100
AcDbLine
 10
32.1314286991
 20
34.453574416
 30
0.0
 11
32.1314286991
 21
4.5568455455
 31
0.0
  0
LINE
  5
1E8
330
1F
100
AcDbEntity
  8
0
  6
CONTINUOUS
 62
     7
100
AcDbLine
 10
32.1314286991
 20
4.5568455455
 30
0.0
 11
18.3652866068
 21
3.3524641787
 31
0.0
  0
LINE
  5
1E9
330
1F
100
AcDbEntity
  8
0
  6
CONTINUOUS
 62
     7
100
AcDbLine
 10
18.3652866068
 20
35.6579543162
 30
0.0
 11
32.1314286991
 21
34.453574416
 31
0.0
  0
ARC
  5
1EA
330
1F
100
AcDbEntity
  8
0
  6
CONTINUOUS
 62
     7
100
AcDbCircle
 10
32.9693032273
 20
3.9100872533
 30
0.0
 40
0.0393700787401579
100
AcDbArc
 50
275.0000489546
 51
347.3995434107
  0
LINE
  5
1EB
330
1F
100
AcDbEntity
  8
0
  6
CONTINUOUS
 62
     7
100
AcDbLine
 10
32.9727341803
 20
3.87086707
 30
0.0
 11
32.814141239
 21
3.8569916836
 31
0.0
  0
ARC
  5
1EC
330
1F
100
AcDbEntity
  8
0
  6
CONTINUOUS
 62
     7
100
AcDbCircle
 10
32.8107107407
 20
3.8962120721
 30
0.0
 40
0.0393700787401583
100
AcDbArc
 50
202.6004769824
 51
275.0000489546
  0
ARC
  5
1ED
330
1F
100
AcDbEntity
  8
0
  6
CONTINUOUS
 62
     7
100
AcDbCircle
 10
20.4690659315
 20
2.8164581985
 30
0.0
 40
0.0393700787401574
100
AcDbArc
 50
275.0000489546
 51
347.3995434107
  0
LINE
  5
1EE
330
1F
100
AcDbEntity
  8
0
  6
CONTINUOUS
 62
     7
100
AcDbLine
 10
20.4724973574
 20
2.777237997
 30
0.0
 11
20.3139044162
 21
2.7633626107
 31
0.0
  0
ARC
  5
1EF
330
1F
100
AcDbEntity
  8
0
  6
CONTINUOUS
 62
     7
100
AcDbCircle
 10
20.3104734449
 20
2.8025830173
 30
0.0
 40
0.0393700787401579
100
AcDbArc
 50
202.6004769824
 51
275.0000489546
  0
ARC
  5
1F0
330
1F
100
AcDbEntity
  8
0
  6
CONTINUOUS
 62
     7
100
AcDbCircle
 10
20.3104735
 20
36.2078360293
 30
0.0
 40
0.0393700787401551
100
AcDbArc
 50
85.0000489546
 51
157.3995434107
  0
LINE
  5
1F1
330
1F
100
AcDbEntity
  8
0
  6
CONTINUOUS
 62
     7
100
AcDbLine
 10
20.3139044162
 20
36.2470570575
 30
0.0
 11
20.4724973574
 21
36.2331813778
 31
0.0
  0
ARC
  5
1F2
330
1F
100
AcDbEntity
  8
0
  6
CONTINUOUS
 62
     7
100
AcDbCircle
 10
20.4690660104
 20
36.1939611191
 30
0.0
 40
0.0393700787401536
100
AcDbArc
 50
12.6004769824
 51
85.0000489546
  0
ARC
  5
1F3
330
1F
100
AcDbEntity
  8
0
  6
CONTINUOUS
 62
     7
100
AcDbCircle
 10
32.8107107958
 20
35.1142069745
 30
0.0
 40
0.0393700787401609
100
AcDbArc
 50
85.0000489546
 51
157.3995434107
  0
LINE
  5
1F4
330
1F
100
AcDbEntity
  8
0
  6
CONTINUOUS
 62
     7
100
AcDbLine
 10
32.814141239
 20
35.1534268112
 30
0.0
 11
32.9727341803
 21
35.1395534782
 31
0.0
  0
ARC
  5
1F5
330
1F
100
AcDbEntity
  8
0
  6
CONTINUOUS
 62
     7
100
AcDbCircle
 10
32.9693033062
 20
35.1003320643
 30
0.0
 40
0.039370078740162
100
AcDbArc
 50
12.6004769824
 51
85.0000489545
  0
LINE
  5
1F6
330
1F
100
AcDbEntity
  8
0
  6
CONTINUOUS
 62
     7
100
AcDbLine
 10
18.3652866068
 20
35.6579543162
 30
0.0
 11
18.3652866068
 21
36.4376933619
 31
0.0
  0
LINE
  5
1F7
330
1F
100
AcDbEntity
  8
0
  6
CONTINUOUS
 62
     7
100
AcDbLine
 10
18.3652866068
 20
2.5727254263
 30
0.0
 11
18.3652866068
 21
3.3524641787
 31
0.0
  0
ARC
  5
1F8
330
1F
100
AcDbEntity
  8
0
  6
CONTINUOUS
 62
     7
100
AcDbCircle
 10
32.5864513981
 20
3.8028597271
 30
0.0
 40
0.2035433070866194
100
AcDbArc
 50
22.6004769824
 51
181.0551896256
  0
ARC
  5
1F9
330
1F
100
AcDbEntity
  8
0
  6
CONTINUOUS
 62
     7
100
AcDbCircle
 10
32.5864514201
 20
35.2075592396
 30
0.0
 40
0.203543307086612
100
AcDbArc
 50
178.9447480122
 51
337.3995434107
  0
ARC
  5
1FA
330
1F
100
AcDbEntity
  8
0
  6
CONTINUOUS
 62
     7
100
AcDbCircle
 10
33.2063660499
 20
3.8570954508
 30
0.0
 40
0.2035433070866133
100
AcDbArc
 50
8.9447480122
 51
167.3995434107
  0
ARC
  5
1FB
330
1F
100
AcDbEntity
  8
0
  6
CONTINUOUS
 62
     7
100
AcDbCircle
 10
33.20636611
 20
35.1533239512
 30
0.0
 40
0.2035433070866148
100
AcDbArc
 50
192.6004769824
 51
351.0551903544
  0
LINE
  5
1FC
330
1F
100
AcDbEntity
  8
0
  6
CONTINUOUS
 62
     7
100
AcDbLine
 10
34.4696180082
 20
4.7614106224
 30
0.0
 11
34.4696180082
 21
3.98167187
 31
0.0
  0
LINE
  5
1FD
330
1F
100
AcDbEntity
  8
0
  6
CONTINUOUS
 62
     7
100
AcDbLine
 10
34.4696180082
 20
35.0287475049
 30
0.0
 11
34.4696180082
 21
34.2490084591
 31
0.0
  0
ARC
  5
1FE
330
1F
100
AcDbEntity
  8
0
  6
CONTINUOUS
 62
     7
100
AcDbCircle
 10
20.7061287542
 20
2.763466396
 30
0.0
 40
0.2035433070866141
100
AcDbArc
 50
8.9447480122
 51
167.3995434107
  0
ARC
  5
1FF
330
1F
100
AcDbEntity
  8
0
  6
CONTINUOUS
 62
     7
100
AcDbCircle
 10
20.7061288142
 20
36.246953006
 30
0.0
 40
0.2035433070866215
100
AcDbArc
 50
192.6004769824
 51
351.0551903544
  0
ARC
  5
200
330
1F
100
AcDbEntity
  8
0
  6
CONTINUOUS
 62
     7
100
AcDbCircle
 10
20.0862141024
 20
2.7092306724
 30
0.0
 40
0.2035433070866172
100
AcDbArc
 50
22.6004769824
 51
181.0551896256
  0
ARC
  5
201
330
1F
100
AcDbEntity
  8
0
  6
CONTINUOUS
 62
     7
100
AcDbCircle
 10
20.0862141243
 20
36.3011882944
 30
0.0
 40
0.2035433070866153
100
AcDbArc
 50
178.9447480122
 51
337.3995434107
  0
LINE
  5
202
330
1F
100
AcDbEntity
  8
0
  6
CONTINUOUS
 62
     7
100
AcDbLine
 10
47.5408767145
 20
18.5235079881
 30
0.0
 11
58.1333964822
 21
18.5235079881
 31
0.0
  0
LINE
  5
203
330
1F
100
AcDbEntity
  8
0
  6
CONTINUOUS
 62
     7
100
AcDbLine
 10
47.5408767145
 20
20.0387096844
 30
0.0
 11
47.5408767145
 21
18.5235079881
 31
0.0
  0
LINE
  5
204
330
1F
100
AcDbEntity
  8
0
  6
CONTINUOUS
 62
     7
100
AcDbLine
 10
47.5408767145
 20
20.0387096844
 30
0.0
 11
58.1333964822
 21
20.0387096844
 31
0.0
  0
LINE
  5
205
330
1F
100
AcDbEntity
  8
0
  6
CONTINUOUS
 62
     7
100
AcDbLine
 10
58.1333964822
 20
18.5235079881
 30
0.0
 11
58.1333964822
 21
20.0387096844
 31
0.0
  0
LINE
  5
206
330
1F
100
AcDbEntity
  8
0
  6
CONTINUOUS
 62
     7
100
AcDbLine
 10
58.1333964822
 20
34.6237386369
 30
0.0
 11
47.5408767145
 21
34.6237386369
 31
0.0
  0
LINE
  5
207
330
1F
100
AcDbEntity
  8
0
  6
CONTINUOUS
 62
     7
100
AcDbLine
 10
58.1333964822
 20
20.7982676299
 30
0.0
 11
47.5408767145
 21
20.7982676299
 31
0.0
  0
LINE
  5
208
330
1F
100
AcDbEntity
  8
0
  6
CONTINUOUS
 62
     7
100
AcDbLine
 10
47.5408767145
 20
34.6237386369
 30
0.0
 11
47.5408767145
 21
20.7982676299
 31
0.0
  0
LINE
  5
209
330
1F
100
AcDbEntity
  8
0
  6
CONTINUOUS
 62
     7
100
AcDbLine
 10
58.1333964822
 20
20.7982676299
 30
0.0
 11
58.1333964822
 21
34.6237386369
 31
0.0
  0
LINE
  5
20A
330
1F
100
AcDbEntity
  8
0
  6
CONTINUOUS
 62
     7
100
AcDbLine
 10
47.5408767145
 20
20.0387096844
 30
0.0
 11
47.5408767145
 21
20.7982676299
 31
0.0
  0
LINE
  5
20B
330
1F
100
AcDbEntity
  8
0
  6
CONTINUOUS
 62
     7
100
AcDbLine
 10
58.1333964822
 20
20.7982676299
 30
0.0
 11
58.1333964822
 21
20.0387096844
 31
0.0
  0
LINE
  5
20C
330
1F
100
AcDbEntity
  8
0
  6
CONTINUOUS
 62
     7
100
AcDbLine
 10
35.7089863042
 20
1.1839079433
 30
0.0
 11
46.3015084185
 21
1.1839079433
 31
0.0
  0
LINE
  5
20D
330
1F
100
AcDbEntity
  8
0
  6
CONTINUOUS
 62
     7
100
AcDbLine
 10
35.7089863042
 20
31.855168593
 30
0.0
 11
35.7089863042
 21
1.1839079433
 31
0.0
  0
LINE
  5
20E
330
1F
100
AcDbEntity
  8
0
  6
CONTINUOUS
 62
     7
100
AcDbLine
 10
46.3015084185
 20
31.855168593
 30
0.0
 11
35.7089863042
 21
31.855168593
 31
0.0
  0
LINE
  5
20F
330
1F
100
AcDbEntity
  8
0
  6
CONTINUOUS
 62
     7
100
AcDbLine
 10
46.3015084185
 20
1.1839079433
 30
0.0
 11
46.3015084185
 21
31.855168593
 31
0.0
  0
LINE
  5
210
330
1F
100
AcDbEntity
  8
POCKETS
100
AcDbLine
 10
58.5270976405
 20
3.4586678992
 30
0.0
 11
47.1471763807
 21
3.4586678992
 31
0.0
  0
LINE
  5
211
330
1F
100
AcDbEntity
  8
POCKETS
100
AcDbLine
 10
47.1471763807
 20
3.4586678992
 30
0.0
 11
47.1471763807
 21
2.6991101076
 31
0.0
  0
LINE
  5
212
330
1F
100
AcDbEntity
  8
POCKETS
100
AcDbLine
 10
47.1471763807
 20
2.6991101076
 30
0.0
 11
58.5270976405
 21
2.6991101076
 31
0.0
  0
LINE
  5
213
330
1F
100
AcDbEntity
  8
PROFILES_OUTSIDE
100
AcDbLine
 10
17.1259165382
 20
33.4095885538
 30
0.0
 11
17.1259165382
 21
36.3609823417
 31
0.0
  0
LINE
  5
214
330
1F
100
AcDbEntity
  8
PROFILES_OUTSIDE
100
AcDbLine
 10
17.1259165382
 20
36.3609823417
 30
0.0
 11
1.0215858295
 21
37.7699287124
 31
0.0
  0
LINE
  5
215
330
1F
100
AcDbEntity
  8
PROFILES_OUTSIDE
100
AcDbLine
 10
1.0215858295
 20
37.7699287124
 30
0.0
 11
1.0215858295
 21
1.2404904756
 31
0.0
  0
LINE
  5
216
330
1F
100
AcDbEntity
  8
PROFILES_OUTSIDE
100
AcDbLine
 10
1.0215858295
 20
1.2404904756
 30
0.0
 11
17.1259165382
 21
2.6494368462
 31
0.0
  0
LINE
  5
217
330
1F
100
AcDbEntity
  8
POCKETS
100
AcDbLine
 10
58.5270976405
 20
2.6991101076
 30
0.0
 11
58.5270976405
 21
3.4586678992
 31
0.0
  0
LINE
  5
218
330
1F
100
AcDbEntity
  8
PROFILES_OUTSIDE
100
AcDbLine
 10
17.1259165382
 20
2.6494368462
 30
0.0
 11
17.1259165382
 21
5.6008306342
 31
0.0
  0
LINE
  5
219
330
1F
100
AcDbEntity
  8
PROFILES_OUTSIDE
100
AcDbLine
 10
16.9307153203
 20
5.8334623868
 30
0.0
 11
16.5337161812
 21
5.9034640464
 31
0.0
  0
LINE
  5
21A
330
1F
100
AcDbEntity
  8
PROFILES_OUTSIDE
100
AcDbLine
 10
16.3385149634
 20
6.1360957991
 30
0.0
 11
16.3385149634
 21
32.8743233889
 31
0.0
  0
LINE
  5
21B
330
1F
100
AcDbEntity
  8
PROFILES_OUTSIDE
100
AcDbLine
 10
16.5337161812
 20
33.1069551416
 30
0.0
 11
16.9307153203
 21
33.1769568011
 31
0.0
  0
LINE
  5
21C
330
1F
100
AcDbEntity
  8
PROFILES_INSIDE
100
AcDbLine
 10
16.0518710826
 20
35.2393898046
 30
0.0
 11
16.0946440859
 21
35.7282874694
 31
0.0
  0
LINE
  5
21D
330
1F
100
AcDbEntity
  8
PROFILES_INSIDE
100
AcDbLine
 10
15.4704413034
 20
35.1534272412
 30
0.0
 11
15.6290338137
 21
35.1395523309
 31
0.0
  0
LINE
  5
21E
330
1F
100
AcDbEntity
  8
PROFILES_INSIDE
100
AcDbLine
 10
15.1141374661
 20
35.8140709914
 30
0.0
 11
15.0713644632
 21
35.32517271
 31
0.0
  0
LINE
  5
21F
330
1F
100
AcDbEntity
  8
PROFILES_INSIDE
100
AcDbLine
 10
15.6955672725
 20
35.9000332442
 30
0.0
 11
15.5369747576
 21
35.913908103
 31
0.0
  0
LINE
  5
220
330
1F
100
AcDbEntity
  8
PROFILES_OUTSIDE
100
AcDbLine
 10
46.3015070894
 20
1.1839079635
 30
0.0
 11
46.3015070894
 21
31.855167806
 31
0.0
  0
LINE
  5
221
330
1F
100
AcDbEntity
  8
PROFILES_OUTSIDE
100
AcDbLine
 10
46.3015070894
 20
31.855167806
 30
0.0
 11
35.7089874043
 21
31.855167806
 31
0.0
  0
LINE
  5
222
330
1F
100
AcDbEntity
  8
PROFILES_OUTSIDE
100
AcDbLine
 10
35.7089874043
 20
31.855167806
 30
0.0
 11
35.7089874043
 21
1.1839079635
 31
0.0
  0
LINE
  5
223
330
1F
100
AcDbEntity
  8
PROFILES_OUTSIDE
100
AcDbLine
 10
35.7089874043
 20
1.1839079635
 30
0.0
 11
46.3015070894
 21
1.1839079635
 31
0.0
  0
LINE
  5
224
330
1F
100
AcDbEntity
  8
PROFILES_OUTSIDE
100
AcDbLine
 10
58.1333968531
 20
17.2841381016
 30
0.0
 11
47.5408771681
 21
17.2841381016
 31
0.0
  0
LINE
  5
225
330
1F
100
AcDbEntity
  8
PROFILES_OUTSIDE
100
AcDbLine
 10
47.5408771681
 20
17.2841381016
 30
0.0
 11
47.5408771681
 21
1.1839079635
 31
0.0
  0
LINE
  5
226
330
1F
100
AcDbEntity
  8
PROFILES_OUTSIDE
100
AcDbLine
 10
47.5408771681
 20
1.1839079635
 30
0.0
 11
58.1333968531
 21
1.1839079635
 31
0.0
  0
LINE
  5
227
330
1F
100
AcDbEntity
  8
PROFILES_OUTSIDE
100
AcDbLine
 10
58.1333968531
 20
1.1839079635
 30
0.0
 11
58.1333968531
 21
17.2841381016
 31
0.0
  0
LINE
  5
228
330
1F
100
AcDbEntity
  8
PROFILES_OUTSIDE
100
AcDbLine
 10
47.5408771681
 20
34.6237383184
 30
0.0
 11
47.5408771681
 21
18.5235081803
 31
0.0
  0
LINE
  5
229
330
1F
100
AcDbEntity
  8
PROFILES_OUTSIDE
100
AcDbLine
 10
47.5408771681
 20
18.5235081803
 30
0.0
 11
58.1333968531
 21
18.5235081803
 31
0.0
  0
LINE
  5
22A
330
1F
100
AcDbEntity
  8
BOX_STOCK
100
AcDbLine
 10
0.0082000027
 20
0.1705221367
 30
0.0
 11
96.0711921287
 21
0.1705221367
 31
0.0
  0
LINE
  5
22B
330
1F
100
AcDbEntity
  8
BOX_STOCK
100
AcDbLine
 10
96.0711921287
 20
0.1705221367
 30
0.0
 11
96.0711921287
 21
48.2020181997
 31
0.0
  0
LINE
  5
22C
330
1F
100
AcDbEntity
  8
BOX_STOCK
100
AcDbLine
 10
96.0711921287
 20
48.2020181997
 30
0.0
 11
0.0082000027
 21
48.2020181997
 31
0.0
  0
LINE
  5
22D
330
1F
100
AcDbEntity
  8
BOX_STOCK
100
AcDbLine
 10
0.0082000027
 20
48.2020181997
 30
0.0
 11
0.0082000027
 21
0.1705221367
 31
0.0
  0
LINE
  5
22E
330
1F
100
AcDbEntity
  8
POCKETS
100
AcDbLine
 10
58.5270976405
 20
20.798268116
 30
0.0
 11
47.1471763807
 21
20.798268116
 31
0.0
  0
LINE
  5
22F
330
1F
100
AcDbEntity
  8
PROFILES_OUTSIDE
100
AcDbLine
 10
58.1333968531
 20
18.5235081803
 30
0.0
 11
58.1333968531
 21
34.6237383184
 31
0.0
  0
LINE
  5
230
330
1F
100
AcDbEntity
  8
POCKETS
100
AcDbLine
 10
47.1471763807
 20
20.798268116
 30
0.0
 11
47.1471763807
 21
20.0387103245
 31
0.0
  0
LINE
  5
231
330
1F
100
AcDbEntity
  8
POCKETS
100
AcDbLine
 10
47.1471763807
 20
20.0387103245
 30
0.0
 11
58.5270976405
 21
20.0387103245
 31
0.0
  0
LINE
  5
232
330
1F
100
AcDbEntity
  8
POCKETS
100
AcDbLine
 10
58.5270976405
 20
20.0387103245
 30
0.0
 11
58.5270976405
 21
20.798268116
 31
0.0
  0
LINE
  5
233
330
1F
100
AcDbEntity
  8
PROFILES_OUTSIDE
100
AcDbLine
 10
58.1333968531
 20
34.6237383184
 30
0.0
 11
47.5408771681
 21
34.6237383184
 31
0.0
  0
LINE
  5
234
330
1F
100
AcDbEntity
  8
PROFILES_INSIDE
100
AcDbLine
 10
3.5459625367
 20
36.3335150294
 30
0.0
 11
3.58873554
 21
36.8224126943
 31
0.0
  0
LINE
  5
235
330
1F
100
AcDbEntity
  8
PROFILES_INSIDE
100
AcDbLine
 10
3.1896587265
 20
36.994158469
 30
0.0
 11
3.0310662146
 21
37.0080333606
 31
0.0
  0
LINE
  5
236
330
1F
100
AcDbEntity
  8
PROFILES_INSIDE
100
AcDbLine
 10
2.6082289155
 20
36.9081962167
 30
0.0
 11
2.5654559173
 21
36.4192979348
 31
0.0
  0
LINE
  5
237
330
1F
100
AcDbEntity
  8
PROFILES_INSIDE
100
AcDbLine
 10
2.9645327575
 20
36.247552466
 30
0.0
 11
3.1231252678
 21
36.2336775558
 31
0.0
  0
LINE
  5
238
330
1F
100
AcDbEntity
  8
PROFILES_INSIDE
100
AcDbLine
 10
16.0946440859
 20
3.2821317185
 30
0.0
 11
16.0518710826
 21
3.7710293834
 31
0.0
  0
LINE
  5
239
330
1F
100
AcDbEntity
  8
PROFILES_INSIDE
100
AcDbLine
 10
15.6290338019
 20
3.8708669925
 30
0.0
 11
15.4704413156
 21
3.8569918066
 31
0.0
  0
LINE
  5
23A
330
1F
100
AcDbEntity
  8
PROFILES_INSIDE
100
AcDbLine
 10
15.0713643999
 20
3.6852464724
 30
0.0
 11
15.11413752
 21
3.1963482012
 31
0.0
  0
LINE
  5
23B
330
1F
100
AcDbEntity
  8
PROFILES_INSIDE
100
AcDbLine
 10
15.536974774
 20
3.0965108981
 30
0.0
 11
15.6955672606
 21
3.1103860793
 31
0.0
  0
LINE
  5
23C
330
1F
100
AcDbEntity
  8
PROFILES_INSIDE
100
AcDbLine
 10
2.5654558633
 20
2.5911212484
 30
0.0
 11
2.6082289741
 21
2.1022229764
 31
0.0
  0
LINE
  5
23D
330
1F
100
AcDbEntity
  8
PROFILES_INSIDE
100
AcDbLine
 10
3.031066228
 20
2.0023856732
 30
0.0
 11
3.1896587147
 21
2.0162608544
 31
0.0
  0
LINE
  5
23E
330
1F
100
AcDbEntity
  8
PROFILES_INSIDE
100
AcDbLine
 10
3.58873554
 20
2.1880064937
 30
0.0
 11
3.5459625367
 21
2.6769041585
 31
0.0
  0
LINE
  5
23F
330
1F
100
AcDbEntity
  8
PROFILES_INSIDE
100
AcDbLine
 10
3.123125256
 20
2.7767417677
 30
0.0
 11
2.9645327693
 21
2.7628665864
 31
0.0
  0
LINE
  5
240
330
1F
100
AcDbEntity
  8
PROFILES_OUTSIDE
100
AcDbLine
 10
59.5778850421
 20
15.4601067334
 30
0.0
 11
59.4121370106
 21
15.4601067334
 31
0.0
  0
LINE
  5
241
330
1F
100
AcDbEntity
  8
PROFILES_OUTSIDE
100
AcDbLine
 10
59.5912743192
 20
15.2508992795
 30
0.0
 11
59.5778850421
 21
15.4601067334
 31
0.0
  0
LINE
  5
242
330
1F
100
AcDbEntity
  8
PROFILES_OUTSIDE
100
AcDbLine
 10
60.2207087278
 20
15.2140437413
 30
0.0
 11
59.6305640148
 21
15.2140437413
 31
0.0
  0
LINE
  5
243
330
1F
100
AcDbEntity
  8
PROFILES_OUTSIDE
100
AcDbLine
 10
60.3570189004
 20
15.7062484657
 30
0.0
 11
60.3570189004
 21
15.6265705775
 31
0.0
  0
LINE
  5
244
330
1F
100
AcDbEntity
  8
PROFILES_OUTSIDE
100
AcDbLine
 10
63.8215858295
 20
15.7062484657
 30
0.0
 11
60.3570189004
 21
15.7062484657
 31
0.0
  0
LINE
  5
245
330
1F
100
AcDbEntity
  8
PROFILES_OUTSIDE
100
AcDbLine
 10
64.2940267744
 20
11.1804289282
 30
0.0
 11
64.2940267744
 21
15.2338075208
 31
0.0
  0
LINE
  5
246
330
1F
100
AcDbEntity
  8
PROFILES_OUTSIDE
100
AcDbLine
 10
65.7900897665
 20
10.7079879833
 30
0.0
 11
64.7664677193
 21
10.7079879833
 31
0.0
  0
LINE
  5
247
330
1F
100
AcDbEntity
  8
PROFILES_OUTSIDE
100
AcDbLine
 10
66.2625307114
 20
15.2338075208
 30
0.0
 11
66.2625307114
 21
11.1804289282
 31
0.0
  0
LINE
  5
248
330
1F
100
AcDbEntity
  8
PROFILES_INSIDE
100
AcDbLine
 10
33.39557187
 20
35.2393898046
 30
0.0
 11
33.4383448733
 21
35.7282874694
 31
0.0
  0
LINE
  5
249
330
1F
100
AcDbEntity
  8
PROFILES_INSIDE
100
AcDbLine
 10
32.8141420908
 20
35.1534272412
 30
0.0
 11
32.9727346011
 21
35.1395523309
 31
0.0
  0
LINE
  5
24A
330
1F
100
AcDbEntity
  8
PROFILES_INSIDE
100
AcDbLine
 10
32.4578382535
 20
35.8140709914
 30
0.0
 11
32.4150652506
 21
35.32517271
 31
0.0
  0
LINE
  5
24B
330
1F
100
AcDbEntity
  8
PROFILES_INSIDE
100
AcDbLine
 10
33.0392680599
 20
35.9000332442
 30
0.0
 11
32.880675545
 21
35.913908103
 31
0.0
  0
LINE
  5
24C
330
1F
100
AcDbEntity
  8
PROFILES_INSIDE
100
AcDbLine
 10
20.8953345742
 20
36.3330188593
 30
0.0
 11
20.9381075775
 21
36.8219165242
 31
0.0
  0
LINE
  5
24D
330
1F
100
AcDbEntity
  8
PROFILES_INSIDE
100
AcDbLine
 10
20.5390307641
 20
36.9936622989
 30
0.0
 11
20.3804382521
 21
37.0075371905
 31
0.0
  0
LINE
  5
24E
330
1F
100
AcDbEntity
  8
PROFILES_INSIDE
100
AcDbLine
 10
19.957600953
 20
36.9077000466
 30
0.0
 11
19.9148279548
 21
36.4188017648
 31
0.0
  0
LINE
  5
24F
330
1F
100
AcDbEntity
  8
PROFILES_INSIDE
100
AcDbLine
 10
20.313904795
 20
36.2470562959
 30
0.0
 11
20.4724973053
 21
36.2331813857
 31
0.0
  0
LINE
  5
250
330
1F
100
AcDbEntity
  8
PROFILES_INSIDE
100
AcDbLine
 10
33.4383448733
 20
3.2821317185
 30
0.0
 11
33.39557187
 21
3.7710293834
 31
0.0
  0
LINE
  5
251
330
1F
100
AcDbEntity
  8
PROFILES_INSIDE
100
AcDbLine
 10
32.9727345893
 20
3.8708669925
 30
0.0
 11
32.814142103
 21
3.8569918066
 31
0.0
  0
LINE
  5
252
330
1F
100
AcDbEntity
  8
PROFILES_INSIDE
100
AcDbLine
 10
32.4150651873
 20
3.6852464724
 30
0.0
 11
32.4578383074
 21
3.1963482012
 31
0.0
  0
LINE
  5
253
330
1F
100
AcDbEntity
  8
PROFILES_INSIDE
100
AcDbLine
 10
32.8806755614
 20
3.0965108981
 30
0.0
 11
33.039268048
 21
3.1103860793
 31
0.0
  0
LINE
  5
254
330
1F
100
AcDbEntity
  8
PROFILES_OUTSIDE
100
AcDbLine
 10
70.1995385854
 20
15.7062484657
 30
0.0
 11
66.7349716563
 21
15.7062484657
 31
0.0
  0
LINE
  5
255
330
1F
100
AcDbEntity
  8
PROFILES_OUTSIDE
100
AcDbLine
 10
70.1995385854
 20
15.6265705775
 30
0.0
 11
70.1995385854
 21
15.7062484657
 31
0.0
  0
LINE
  5
256
330
1F
100
AcDbEntity
  8
PROFILES_OUTSIDE
100
AcDbLine
 10
70.925993471
 20
15.2140437413
 30
0.0
 11
70.335848758
 21
15.2140437413
 31
0.0
  0
LINE
  5
257
330
1F
100
AcDbEntity
  8
PROFILES_OUTSIDE
100
AcDbLine
 10
70.9786724437
 20
15.4601067334
 30
0.0
 11
70.9652831666
 21
15.2508992795
 31
0.0
  0
LINE
  5
258
330
1F
100
AcDbEntity
  8
PROFILES_OUTSIDE
100
AcDbLine
 10
71.1444204752
 20
15.4601067334
 30
0.0
 11
70.9786724437
 21
15.4601067334
 31
0.0
  0
LINE
  5
259
330
1F
100
AcDbEntity
  8
PROFILES_INSIDE
100
AcDbLine
 10
19.9148279009
 20
2.5916174185
 30
0.0
 11
19.9576010116
 21
2.1027191465
 31
0.0
  0
LINE
  5
25A
330
1F
100
AcDbEntity
  8
PROFILES_INSIDE
100
AcDbLine
 10
20.3804382656
 20
2.0028818433
 30
0.0
 11
20.5390307522
 21
2.0167570245
 31
0.0
  0
LINE
  5
25B
330
1F
100
AcDbEntity
  8
PROFILES_INSIDE
100
AcDbLine
 10
20.9381075775
 20
2.1885026638
 30
0.0
 11
20.8953345742
 21
2.6774003286
 31
0.0
  0
LINE
  5
25C
330
1F
100
AcDbEntity
  8
PROFILES_INSIDE
100
AcDbLine
 10
20.4724972935
 20
2.7772379378
 30
0.0
 11
20.3139048068
 21
2.7633627565
 31
0.0
  0
LINE
  5
25D
330
1F
100
AcDbEntity
  8
PROFILES_OUTSIDE
100
AcDbLine
 10
18.3652866169
 20
37.5121393027
 30
0.0
 11
18.3652866169
 21
1.4982798853
 31
0.0
  0
LINE
  5
25E
330
1F
100
AcDbEntity
  8
PROFILES_OUTSIDE
100
AcDbLine
 10
34.2539848239
 20
36.3798477411
 30
0.0
 11
18.6220950601
 21
37.7474608849
 31
0.0
  0
LINE
  5
25F
330
1F
100
AcDbEntity
  8
PROFILES_OUTSIDE
100
AcDbLine
 10
34.4696173256
 20
33.4095885538
 30
0.0
 11
34.4696173256
 21
36.1445261589
 31
0.0
  0
LINE
  5
260
330
1F
100
AcDbEntity
  8
PROFILES_OUTSIDE
100
AcDbLine
 10
33.8774169686
 20
33.1069551416
 30
0.0
 11
34.2744161077
 21
33.1769568011
 31
0.0
  0
LINE
  5
261
330
1F
100
AcDbEntity
  8
POCKETS
100
AcDbLine
 10
17.5302874132
 20
4.7967884191
 30
0.0
 11
17.1380847762
 21
4.7624751346
 31
0.0
  0
LINE
  5
262
330
1F
100
AcDbEntity
  8
PROFILES_OUTSIDE
100
AcDbLine
 10
71.1837905539
 20
14.9581382295
 30
0.0
 11
71.1837905539
 21
15.4207366547
 31
0.0
  0
LINE
  5
263
330
1F
100
AcDbEntity
  8
PROFILES_OUTSIDE
100
AcDbLine
 10
67.4849716563
 20
14.721917757
 30
0.0
 11
70.9475700815
 21
14.721917757
 31
0.0
  0
LINE
  5
264
330
1F
100
AcDbEntity
  8
PROFILES_OUTSIDE
100
AcDbLine
 10
67.0125307114
 20
10.7079879833
 30
0.0
 11
67.0125307114
 21
14.2494768122
 31
0.0
  0
LINE
  5
265
330
1F
100
AcDbEntity
  8
PROFILES_OUTSIDE
100
AcDbLine
 10
66.2625307114
 20
7.4812065515
 30
0.0
 11
66.2625307114
 21
9.4089498777
 31
0.0
  0
LINE
  5
266
330
1F
100
AcDbEntity
  8
PROFILES_OUTSIDE
100
AcDbLine
 10
67.0125307114
 20
2.640679617
 30
0.0
 11
67.0125307114
 21
6.1821684459
 31
0.0
  0
LINE
  5
267
330
1F
100
AcDbEntity
  8
PROFILES_OUTSIDE
100
AcDbLine
 10
70.9475700815
 20
2.1682386722
 30
0.0
 11
67.4849716563
 21
2.1682386722
 31
0.0
  0
LINE
  5
268
330
1F
100
AcDbEntity
  8
PROFILES_OUTSIDE
100
AcDbLine
 10
71.1837905539
 20
1.4694197745
 30
0.0
 11
71.1837905539
 21
1.9320181997
 31
0.0
  0
LINE
  5
269
330
1F
100
AcDbEntity
  8
PROFILES_OUTSIDE
100
AcDbLine
 10
70.9786724437
 20
1.4300496958
 30
0.0
 11
71.1444204752
 21
1.4300496958
 31
0.0
  0
LINE
  5
26A
330
1F
100
AcDbEntity
  8
PROFILES_OUTSIDE
100
AcDbLine
 10
70.9652831666
 20
1.6392571497
 30
0.0
 11
70.9786724437
 21
1.4300496958
 31
0.0
  0
LINE
  5
26B
330
1F
100
AcDbEntity
  8
PROFILES_OUTSIDE
100
AcDbLine
 10
70.335848758
 20
1.6761126879
 30
0.0
 11
70.925993471
 21
1.6761126879
 31
0.0
  0
LINE
  5
26C
330
1F
100
AcDbEntity
  8
PROFILES_OUTSIDE
100
AcDbLine
 10
70.1995385854
 20
1.1839079635
 30
0.0
 11
70.1995385854
 21
1.2635858517
 31
0.0
  0
LINE
  5
26D
330
1F
100
AcDbEntity
  8
PROFILES_OUTSIDE
100
AcDbLine
 10
66.7349716563
 20
1.1839079635
 30
0.0
 11
70.1995385854
 21
1.1839079635
 31
0.0
  0
LINE
  5
26E
330
1F
100
AcDbEntity
  8
PROFILES_OUTSIDE
100
AcDbLine
 10
66.2625307114
 20
5.709727501
 30
0.0
 11
66.2625307114
 21
1.6563489084
 31
0.0
  0
LINE
  5
26F
330
1F
100
AcDbEntity
  8
PROFILES_OUTSIDE
100
AcDbLine
 10
64.7664677193
 20
6.1821684459
 30
0.0
 11
65.7900897665
 21
6.1821684459
 31
0.0
  0
LINE
  5
270
330
1F
100
AcDbEntity
  8
PROFILES_OUTSIDE
100
AcDbLine
 10
64.2940267744
 20
1.6563489084
 30
0.0
 11
64.2940267744
 21
5.709727501
 31
0.0
  0
LINE
  5
271
330
1F
100
AcDbEntity
  8
PROFILES_OUTSIDE
100
AcDbLine
 10
60.3570189004
 20
1.1839079635
 30
0.0
 11
63.8215858295
 21
1.1839079635
 31
0.0
  0
LINE
  5
272
330
1F
100
AcDbEntity
  8
PROFILES_OUTSIDE
100
AcDbLine
 10
33.6822157508
 20
6.1360957991
 30
0.0
 11
33.6822157508
 21
32.8743233889
 31
0.0
  0
LINE
  5
273
330
1F
100
AcDbEntity
  8
POCKETS
100
AcDbLine
 10
17.5979875236
 20
4.0229726162
 30
0.0
 11
17.5302874132
 21
4.7967884191
 31
0.0
  0
LINE
  5
274
330
1F
100
AcDbEntity
  8
PROFILES_OUTSIDE
100
AcDbLine
 10
34.2744161077
 20
5.8334623868
 30
0.0
 11
33.8774169686
 21
5.9034640464
 31
0.0
  0
LINE
  5
275
330
1F
100
AcDbEntity
  8
POCKETS
100
AcDbLine
 10
17.2057848866
 20
3.9886593317
 30
0.0
 11
17.5979875236
 21
4.0229726162
 31
0.0
  0
LINE
  5
276
330
1F
100
AcDbEntity
  8
POCKETS
100
AcDbLine
 10
1.0094175915
 20
2.5716608031
 30
0.0
 11
17.2057848866
 21
3.9886593317
 31
0.0
  0
LINE
  5
277
330
1F
100
AcDbEntity
  8
POCKETS
100
AcDbLine
 10
0.6172149545
 20
2.5373475185
 30
0.0
 11
1.0094175915
 21
2.5716608031
 31
0.0
  0
LINE
  5
278
330
1F
100
AcDbEntity
  8
POCKETS
100
AcDbLine
 10
0.5495148441
 20
3.3111633214
 30
0.0
 11
0.6172149545
 21
2.5373475185
 31
0.0
  0
LINE
  5
279
330
1F
100
AcDbEntity
  8
POCKETS
100
AcDbLine
 10
0.9417174811
 20
3.345476606
 30
0.0
 11
0.5495148441
 21
3.3111633214
 31
0.0
  0
LINE
  5
27A
330
1F
100
AcDbEntity
  8
POCKETS
100
AcDbLine
 10
14.7877275618
 20
4.5568455231
 30
0.0
 11
0.9417174811
 21
3.345476606
 31
0.0
  0
LINE
  5
27B
330
1F
100
AcDbEntity
  8
POCKETS
100
AcDbLine
 10
14.7877275618
 20
34.4535736649
 30
0.0
 11
14.7877275618
 21
4.5568455231
 31
0.0
  0
LINE
  5
27C
330
1F
100
AcDbEntity
  8
POCKETS
100
AcDbLine
 10
0.9417174811
 20
35.664942582
 30
0.0
 11
14.7877275618
 21
34.4535736649
 31
0.0
  0
LINE
  5
27D
330
1F
100
AcDbEntity
  8
POCKETS
100
AcDbLine
 10
0.5495148441
 20
35.6992558666
 30
0.0
 11
0.9417174811
 21
35.664942582
 31
0.0
  0
LINE
  5
27E
330
1F
100
AcDbEntity
  8
POCKETS
100
AcDbLine
 10
0.6172149545
 20
36.4730716694
 30
0.0
 11
0.5495148441
 21
35.6992558666
 31
0.0
  0
LINE
  5
27F
330
1F
100
AcDbEntity
  8
POCKETS
100
AcDbLine
 10
1.0094175915
 20
36.4387583849
 30
0.0
 11
0.6172149545
 21
36.4730716694
 31
0.0
  0
LINE
  5
280
330
1F
100
AcDbEntity
  8
POCKETS
100
AcDbLine
 10
17.2057848866
 20
35.0217598563
 30
0.0
 11
1.0094175915
 21
36.4387583849
 31
0.0
  0
LINE
  5
281
330
1F
100
AcDbEntity
  8
POCKETS
100
AcDbLine
 10
17.5979875236
 20
34.9874465717
 30
0.0
 11
17.2057848866
 21
35.0217598563
 31
0.0
  0
LINE
  5
282
330
1F
100
AcDbEntity
  8
POCKETS
100
AcDbLine
 10
17.5302874132
 20
34.2136307688
 30
0.0
 11
17.5979875236
 21
34.9874465717
 31
0.0
  0
LINE
  5
283
330
1F
100
AcDbEntity
  8
POCKETS
100
AcDbLine
 10
17.1380847762
 20
34.2479440534
 30
0.0
 11
17.5302874132
 21
34.2136307688
 31
0.0
  0
LINE
  5
284
330
1F
100
AcDbEntity
  8
POCKETS
100
AcDbLine
 10
15.5511133886
 20
34.3867860591
 30
0.0
 11
17.1380847762
 21
34.2479440534
 31
0.0
  0
LINE
  5
285
330
1F
100
AcDbEntity
  8
PROFILES_OUTSIDE
100
AcDbLine
 10
60.3570189004
 20
1.2635858517
 30
0.0
 11
60.3570189004
 21
1.1839079635
 31
0.0
  0
LINE
  5
286
330
1F
100
AcDbEntity
  8
PROFILES_OUTSIDE
100
AcDbLine
 10
59.6305640148
 20
1.6761126879
 30
0.0
 11
60.2207087278
 21
1.6761126879
 31
0.0
  0
LINE
  5
287
330
1F
100
AcDbEntity
  8
PROFILES_OUTSIDE
100
AcDbLine
 10
59.5778850421
 20
1.4300496958
 30
0.0
 11
59.5912743192
 21
1.6392571497
 31
0.0
  0
LINE
  5
288
330
1F
100
AcDbEntity
  8
PROFILES_OUTSIDE
100
AcDbLine
 10
59.4121370106
 20
1.4300496958
 30
0.0
 11
59.5778850421
 21
1.4300496958
 31
0.0
  0
LINE
  5
289
330
1F
100
AcDbEntity
  8
PROFILES_OUTSIDE
100
AcDbLine
 10
59.3727669319
 20
1.9320181997
 30
0.0
 11
59.3727669319
 21
1.4694197745
 31
0.0
  0
LINE
  5
28A
330
1F
100
AcDbEntity
  8
PROFILES_OUTSIDE
100
AcDbLine
 10
63.0715858295
 20
2.1682386722
 30
0.0
 11
59.6089874043
 21
2.1682386722
 31
0.0
  0
LINE
  5
28B
330
1F
100
AcDbEntity
  8
PROFILES_OUTSIDE
100
AcDbLine
 10
63.5440267744
 20
6.1821684459
 30
0.0
 11
63.5440267744
 21
2.640679617
 31
0.0
  0
LINE
  5
28C
330
1F
100
AcDbEntity
  8
PROFILES_OUTSIDE
100
AcDbLine
 10
64.2940267744
 20
9.4089498777
 30
0.0
 11
64.2940267744
 21
7.4812065515
 31
0.0
  0
LINE
  5
28D
330
1F
100
AcDbEntity
  8
PROFILES_OUTSIDE
100
AcDbLine
 10
63.5440267744
 20
14.2494768122
 30
0.0
 11
63.5440267744
 21
10.7079879833
 31
0.0
  0
LINE
  5
28E
330
1F
100
AcDbEntity
  8
PROFILES_OUTSIDE
100
AcDbLine
 10
59.6089874043
 20
14.721917757
 30
0.0
 11
63.0715858295
 21
14.721917757
 31
0.0
  0
LINE
  5
28F
330
1F
100
AcDbEntity
  8
PROFILES_OUTSIDE
100
AcDbLine
 10
59.3727669319
 20
15.4207366547
 30
0.0
 11
59.3727669319
 21
14.9581382295
 31
0.0
  0
LINE
  5
290
330
1F
100
AcDbEntity
  8
POCKETS
100
AcDbLine
 10
15.5511133886
 20
4.6236331288
 30
0.0
 11
15.5511133886
 21
34.3867860591
 31
0.0
  0
LINE
  5
291
330
1F
100
AcDbEntity
  8
PROFILES_OUTSIDE
100
AcDbLine
 10
70.9786724437
 20
17.1916027964
 30
0.0
 11
71.1444204752
 21
17.1916027964
 31
0.0
  0
LINE
  5
292
330
1F
100
AcDbEntity
  8
PROFILES_OUTSIDE
100
AcDbLine
 10
70.9652831666
 20
17.4008102503
 30
0.0
 11
70.9786724437
 21
17.1916027964
 31
0.0
  0
LINE
  5
293
330
1F
100
AcDbEntity
  8
PROFILES_OUTSIDE
100
AcDbLine
 10
70.335848758
 20
17.4376657885
 30
0.0
 11
70.925993471
 21
17.4376657885
 31
0.0
  0
LINE
  5
294
330
1F
100
AcDbEntity
  8
PROFILES_OUTSIDE
100
AcDbLine
 10
70.1995385854
 20
16.9454610641
 30
0.0
 11
70.1995385854
 21
17.0251389523
 31
0.0
  0
LINE
  5
295
330
1F
100
AcDbEntity
  8
PROFILES_OUTSIDE
100
AcDbLine
 10
66.7349716563
 20
16.9454610641
 30
0.0
 11
70.1995385854
 21
16.9454610641
 31
0.0
  0
LINE
  5
296
330
1F
100
AcDbEntity
  8
PROFILES_OUTSIDE
100
AcDbLine
 10
66.2625307114
 20
21.4712806016
 30
0.0
 11
66.2625307114
 21
17.417902009
 31
0.0
  0
LINE
  5
297
330
1F
100
AcDbEntity
  8
PROFILES_OUTSIDE
100
AcDbLine
 10
64.7664677193
 20
21.9437215465
 30
0.0
 11
65.7900897665
 21
21.9437215465
 31
0.0
  0
LINE
  5
298
330
1F
100
AcDbEntity
  8
PROFILES_OUTSIDE
100
AcDbLine
 10
64.2940267744
 20
17.417902009
 30
0.0
 11
64.2940267744
 21
21.4712806016
 31
0.0
  0
LINE
  5
299
330
1F
100
AcDbEntity
  8
PROFILES_OUTSIDE
100
AcDbLine
 10
60.3570189004
 20
16.9454610641
 30
0.0
 11
63.8215858295
 21
16.9454610641
 31
0.0
  0
LINE
  5
29A
330
1F
100
AcDbEntity
  8
PROFILES_OUTSIDE
100
AcDbLine
 10
60.3570189004
 20
17.0251389523
 30
0.0
 11
60.3570189004
 21
16.9454610641
 31
0.0
  0
LINE
  5
29B
330
1F
100
AcDbEntity
  8
PROFILES_OUTSIDE
100
AcDbLine
 10
59.6305640148
 20
17.4376657885
 30
0.0
 11
60.2207087278
 21
17.4376657885
 31
0.0
  0
LINE
  5
29C
330
1F
100
AcDbEntity
  8
PROFILES_OUTSIDE
100
AcDbLine
 10
59.5778850421
 20
17.1916027964
 30
0.0
 11
59.5912743192
 21
17.4008102503
 31
0.0
  0
LINE
  5
29D
330
1F
100
AcDbEntity
  8
PROFILES_OUTSIDE
100
AcDbLine
 10
59.4121370106
 20
17.1916027964
 30
0.0
 11
59.5778850421
 21
17.1916027964
 31
0.0
  0
LINE
  5
29E
330
1F
100
AcDbEntity
  8
PROFILES_OUTSIDE
100
AcDbLine
 10
59.3727669319
 20
17.6935713003
 30
0.0
 11
59.3727669319
 21
17.2309728751
 31
0.0
  0
LINE
  5
29F
330
1F
100
AcDbEntity
  8
PROFILES_OUTSIDE
100
AcDbLine
 10
63.0715858295
 20
17.9297917728
 30
0.0
 11
59.6089874043
 21
17.9297917728
 31
0.0
  0
LINE
  5
2A0
330
1F
100
AcDbEntity
  8
PROFILES_OUTSIDE
100
AcDbLine
 10
63.5440267744
 20
21.9437215465
 30
0.0
 11
63.5440267744
 21
18.4022327177
 31
0.0
  0
LINE
  5
2A1
330
1F
100
AcDbEntity
  8
PROFILES_OUTSIDE
100
AcDbLine
 10
64.2940267744
 20
25.1705029783
 30
0.0
 11
64.2940267744
 21
23.2427596522
 31
0.0
  0
LINE
  5
2A2
330
1F
100
AcDbEntity
  8
PROFILES_OUTSIDE
100
AcDbLine
 10
63.5440267744
 20
30.0110299128
 30
0.0
 11
63.5440267744
 21
26.469541084
 31
0.0
  0
LINE
  5
2A3
330
1F
100
AcDbEntity
  8
PROFILES_OUTSIDE
100
AcDbLine
 10
59.6089874043
 20
30.4834708577
 30
0.0
 11
63.0715858295
 21
30.4834708577
 31
0.0
  0
LINE
  5
2A4
330
1F
100
AcDbEntity
  8
PROFILES_OUTSIDE
100
AcDbLine
 10
59.3727669319
 20
31.1822897553
 30
0.0
 11
59.3727669319
 21
30.7196913301
 31
0.0
  0
LINE
  5
2A5
330
1F
100
AcDbEntity
  8
PROFILES_OUTSIDE
100
AcDbLine
 10
59.5778850421
 20
31.221659834
 30
0.0
 11
59.4121370106
 21
31.221659834
 31
0.0
  0
LINE
  5
2A6
330
1F
100
AcDbEntity
  8
PROFILES_OUTSIDE
100
AcDbLine
 10
59.5912743192
 20
31.0124523801
 30
0.0
 11
59.5778850421
 21
31.221659834
 31
0.0
  0
LINE
  5
2A7
330
1F
100
AcDbEntity
  8
PROFILES_OUTSIDE
100
AcDbLine
 10
60.2207087278
 20
30.9755968419
 30
0.0
 11
59.6305640148
 21
30.9755968419
 31
0.0
  0
LINE
  5
2A8
330
1F
100
AcDbEntity
  8
PROFILES_OUTSIDE
100
AcDbLine
 10
60.3570189004
 20
31.4678015663
 30
0.0
 11
60.3570189004
 21
31.3881236781
 31
0.0
  0
LINE
  5
2A9
330
1F
100
AcDbEntity
  8
PROFILES_OUTSIDE
100
AcDbLine
 10
63.8215858295
 20
31.4678015663
 30
0.0
 11
60.3570189004
 21
31.4678015663
 31
0.0
  0
LINE
  5
2AA
330
1F
100
AcDbEntity
  8
PROFILES_OUTSIDE
100
AcDbLine
 10
64.2940267744
 20
26.9419820288
 30
0.0
 11
64.2940267744
 21
30.9953606214
 31
0.0
  0
LINE
  5
2AB
330
1F
100
AcDbEntity
  8
PROFILES_OUTSIDE
100
AcDbLine
 10
65.7900897665
 20
26.469541084
 30
0.0
 11
64.7664677193
 21
26.469541084
 31
0.0
  0
LINE
  5
2AC
330
1F
100
AcDbEntity
  8
PROFILES_OUTSIDE
100
AcDbLine
 10
66.2625307114
 20
30.9953606214
 30
0.0
 11
66.2625307114
 21
26.9419820288
 31
0.0
  0
LINE
  5
2AD
330
1F
100
AcDbEntity
  8
PROFILES_OUTSIDE
100
AcDbLine
 10
70.1995385854
 20
31.4678015663
 30
0.0
 11
66.7349716563
 21
31.4678015663
 31
0.0
  0
LINE
  5
2AE
330
1F
100
AcDbEntity
  8
PROFILES_OUTSIDE
100
AcDbLine
 10
70.1995385854
 20
31.3881236781
 30
0.0
 11
70.1995385854
 21
31.4678015663
 31
0.0
  0
LINE
  5
2AF
330
1F
100
AcDbEntity
  8
PROFILES_OUTSIDE
100
AcDbLine
 10
70.925993471
 20
30.9755968419
 30
0.0
 11
70.335848758
 21
30.9755968419
 31
0.0
  0
LINE
  5
2B0
330
1F
100
AcDbEntity
  8
PROFILES_OUTSIDE
100
AcDbLine
 10
70.9786724437
 20
31.221659834
 30
0.0
 11
70.9652831666
 21
31.0124523801
 31
0.0
  0
LINE
  5
2B1
330
1F
100
AcDbEntity
  8
PROFILES_OUTSIDE
100
AcDbLine
 10
71.1444204752
 20
31.221659834
 30
0.0
 11
70.9786724437
 21
31.221659834
 31
0.0
  0
LINE
  5
2B2
330
1F
100
AcDbEntity
  8
PROFILES_OUTSIDE
100
AcDbLine
 10
71.1837905539
 20
30.7196913301
 30
0.0
 11
71.1837905539
 21
31.1822897553
 31
0.0
  0
LINE
  5
2B3
330
1F
100
AcDbEntity
  8
PROFILES_OUTSIDE
100
AcDbLine
 10
67.4849716563
 20
30.4834708577
 30
0.0
 11
70.9475700815
 21
30.4834708577
 31
0.0
  0
LINE
  5
2B4
330
1F
100
AcDbEntity
  8
PROFILES_OUTSIDE
100
AcDbLine
 10
67.0125307114
 20
26.469541084
 30
0.0
 11
67.0125307114
 21
30.0110299128
 31
0.0
  0
LINE
  5
2B5
330
1F
100
AcDbEntity
  8
PROFILES_OUTSIDE
100
AcDbLine
 10
66.2625307114
 20
23.2427596522
 30
0.0
 11
66.2625307114
 21
25.1705029783
 31
0.0
  0
LINE
  5
2B6
330
1F
100
AcDbEntity
  8
PROFILES_OUTSIDE
100
AcDbLine
 10
67.0125307114
 20
18.4022327177
 30
0.0
 11
67.0125307114
 21
21.9437215465
 31
0.0
  0
LINE
  5
2B7
330
1F
100
AcDbEntity
  8
PROFILES_OUTSIDE
100
AcDbLine
 10
70.9475700815
 20
17.9297917728
 30
0.0
 11
67.4849716563
 21
17.9297917728
 31
0.0
  0
LINE
  5
2B8
330
1F
100
AcDbEntity
  8
PROFILES_OUTSIDE
100
AcDbLine
 10
71.1837905539
 20
17.2309728751
 30
0.0
 11
71.1837905539
 21
17.6935713003
 31
0.0
  0
LINE
  5
2B9
330
1F
100
AcDbEntity
  8
POCKETS
100
AcDbLine
 10
17.1380847762
 20
4.7624751346
 30
0.0
 11
15.5511133886
 21
4.6236331288
 31
0.0
  0
LINE
  5
2BA
330
1F
100
AcDbEntity
  8
POCKETS
100
AcDbLine
 10
32.894814176
 20
34.3867860591
 30
0.0
 11
34.4817855636
 21
34.2479440534
 31
0.0
  0
LINE
  5
2BB
330
1F
100
AcDbEntity
  8
POCKETS
100
AcDbLine
 10
34.4817855636
 20
34.2479440534
 30
0.0
 11
34.8739882006
 21
34.2136307688
 31
0.0
  0
LINE
  5
2BC
330
1F
100
AcDbEntity
  8
POCKETS
100
AcDbLine
 10
34.8739882006
 20
34.2136307688
 30
0.0
 11
34.941688311
 21
34.9874465717
 31
0.0
  0
LINE
  5
2BD
330
1F
100
AcDbEntity
  8
POCKETS
100
AcDbLine
 10
34.941688311
 20
34.9874465717
 30
0.0
 11
34.549485674
 21
35.0217598563
 31
0.0
  0
LINE
  5
2BE
330
1F
100
AcDbEntity
  8
POCKETS
100
AcDbLine
 10
34.549485674
 20
35.0217598563
 30
0.0
 11
18.418485186
 21
36.4330395303
 31
0.0
  0
LINE
  5
2BF
330
1F
100
AcDbEntity
  8
POCKETS
100
AcDbLine
 10
18.418485186
 20
36.4330395303
 30
0.0
 11
18.0262825489
 21
36.4673528148
 31
0.0
  0
LINE
  5
2C0
330
1F
100
AcDbEntity
  8
POCKETS
100
AcDbLine
 10
18.0262825489
 20
36.4673528148
 30
0.0
 11
17.9585824385
 21
35.693537012
 31
0.0
  0
LINE
  5
2C1
330
1F
100
AcDbEntity
  8
POCKETS
100
AcDbLine
 10
17.9585824385
 20
35.693537012
 30
0.0
 11
18.3507850756
 21
35.6592237274
 31
0.0
  0
LINE
  5
2C2
330
1F
100
AcDbEntity
  8
POCKETS
100
AcDbLine
 10
18.3507850756
 20
35.6592237274
 30
0.0
 11
32.1314283492
 21
34.4535736649
 31
0.0
  0
LINE
  5
2C3
330
1F
100
AcDbEntity
  8
POCKETS
100
AcDbLine
 10
32.1314283492
 20
34.4535736649
 30
0.0
 11
32.1314283492
 21
4.5568455231
 31
0.0
  0
LINE
  5
2C4
330
1F
100
AcDbEntity
  8
POCKETS
100
AcDbLine
 10
32.1314283492
 20
4.5568455231
 30
0.0
 11
18.3507850756
 21
3.3511954605
 31
0.0
  0
LINE
  5
2C5
330
1F
100
AcDbEntity
  8
POCKETS
100
AcDbLine
 10
18.3507850756
 20
3.3511954605
 30
0.0
 11
17.9585824385
 21
3.316882176
 31
0.0
  0
LINE
  5
2C6
330
1F
100
AcDbEntity
  8
POCKETS
100
AcDbLine
 10
17.9585824385
 20
3.316882176
 30
0.0
 11
18.0262825489
 21
2.5430663731
 31
0.0
  0
LINE
  5
2C7
330
1F
100
AcDbEntity
  8
POCKETS
100
AcDbLine
 10
18.0262825489
 20
2.5430663731
 30
0.0
 11
18.418485186
 21
2.5773796577
 31
0.0
  0
LINE
  5
2C8
330
1F
100
AcDbEntity
  8
POCKETS
100
AcDbLine
 10
18.418485186
 20
2.5773796577
 30
0.0
 11
34.549485674
 21
3.9886593317
 31
0.0
  0
LINE
  5
2C9
330
1F
100
AcDbEntity
  8
POCKETS
100
AcDbLine
 10
34.549485674
 20
3.9886593317
 30
0.0
 11
34.941688311
 21
4.0229726162
 31
0.0
  0
LINE
  5
2CA
330
1F
100
AcDbEntity
  8
POCKETS
100
AcDbLine
 10
34.941688311
 20
4.0229726162
 30
0.0
 11
34.8739882006
 21
4.7967884191
 31
0.0
  0
LINE
  5
2CB
330
1F
100
AcDbEntity
  8
POCKETS
100
AcDbLine
 10
34.8739882006
 20
4.7967884191
 30
0.0
 11
34.4817855636
 21
4.7624751346
 31
0.0
  0
LINE
  5
2CC
330
1F
100
AcDbEntity
  8
POCKETS
100
AcDbLine
 10
34.4817855636
 20
4.7624751346
 30
0.0
 11
32.894814176
 21
4.6236331288
 31
0.0
  0
LINE
  5
2CD
330
1F
100
AcDbEntity
  8
POCKETS
100
AcDbLine
 10
32.894814176
 20
4.6236331288
 30
0.0
 11
32.894814176
 21
34.3867860591
 31
0.0
  0
LINE
  5
2CE
330
1F
100
AcDbEntity
  8
PROFILES_OUTSIDE
100
AcDbLine
 10
34.4696173256
 20
2.8658930291
 30
0.0
 11
34.4696173256
 21
5.6008306342
 31
0.0
  0
LINE
  5
2CF
330
1F
100
AcDbEntity
  8
PROFILES_OUTSIDE
100
AcDbLine
 10
18.6220950601
 20
1.262958303
 30
0.0
 11
34.2539848239
 21
2.6305714469
 31
0.0
  0
ARC
  5
2D0
330
1F
100
AcDbEntity
  8
PROFILES_OUTSIDE
100
AcDbCircle
 10
16.8896960657
 20
5.6008306342
 30
0.0
 40
0.2362204724409445
100
AcDbArc
 50
0.0
 51
80.0
  0
ARC
  5
2D1
330
1F
100
AcDbEntity
  8
PROFILES_OUTSIDE
100
AcDbCircle
 10
16.5747354358
 20
6.1360957991
 30
0.0
 40
0.236220472440948
100
AcDbArc
 50
180.0
 51
260.0
  0
ARC
  5
2D2
330
1F
100
AcDbEntity
  8
PROFILES_OUTSIDE
100
AcDbCircle
 10
16.5747354358
 20
32.8743233889
 30
0.0
 40
0.2362204724409516
100
AcDbArc
 50
100.0
 51
180.0
  0
ARC
  5
2D3
330
1F
100
AcDbEntity
  8
PROFILES_OUTSIDE
100
AcDbCircle
 10
16.8896960657
 20
33.4095885538
 30
0.0
 40
0.2362204724409449
100
AcDbArc
 50
280.0
 51
360.0
  0
ARC
  5
2D4
330
1F
100
AcDbEntity
  8
PROFILES_INSIDE
100
AcDbCircle
 10
16.6121370106
 20
25.5919010475
 30
0.0
 40
0.2362204724409484
100
AcDbArc
 50
280.0
 51
0.0
  0
ARC
  5
2D5
330
1F
100
AcDbEntity
  8
PROFILES_OUTSIDE
100
AcDbCircle
 10
71.1444204752
 20
15.4207366547
 30
0.0
 40
0.0393700787401574
100
AcDbArc
 50
0.0
 51
90.0
  0
ARC
  5
2D6
330
1F
100
AcDbEntity
  8
PROFILES_INSIDE
100
AcDbCircle
 10
15.6989985674
 20
35.9392535108
 30
0.0
 40
0.0393700787401611
100
AcDbArc
 50
265.0000489546
 51
337.3995434107
  0
ARC
  5
2D7
330
1F
100
AcDbEntity
  8
PROFILES_INSIDE
100
AcDbCircle
 10
15.9232579432
 20
35.8459012457
 30
0.0
 40
0.2035433070866164
100
AcDbArc
 50
330.1121919354
 51
157.3995434107
  0
ARC
  5
2D8
330
1F
100
AcDbEntity
  8
PROFILES_INSIDE
100
AcDbCircle
 10
16.1338657359
 20
35.7248560197
 30
0.0
 40
0.0393714704138542
100
AcDbArc
 50
150.1121919354
 51
175.0
  0
ARC
  5
2D9
330
1F
100
AcDbEntity
  8
PROFILES_INSIDE
100
AcDbCircle
 10
16.0910913463
 20
35.2359584761
 30
0.0
 40
0.0393700787401623
100
AcDbArc
 50
175.0
 51
199.8879035534
  0
ARC
  5
2DA
330
1F
100
AcDbEntity
  8
PROFILES_INSIDE
100
AcDbCircle
 10
15.8626653226
 20
35.1533239512
 30
0.0
 40
0.2035433070866126
100
AcDbArc
 50
192.6004769824
 51
19.8879035534
  0
ARC
  5
2DB
330
1F
100
AcDbEntity
  8
PROFILES_INSIDE
100
AcDbCircle
 10
15.6256025188
 20
35.1003320643
 30
0.0
 40
0.0393700787401606
100
AcDbArc
 50
12.6004769824
 51
85.0000489546
  0
ARC
  5
2DC
330
1F
100
AcDbEntity
  8
PROFILES_INSIDE
100
AcDbCircle
 10
15.4670100084
 20
35.1142069745
 30
0.0
 40
0.0393700787401594
100
AcDbArc
 50
85.0000489546
 51
157.3995434107
  0
ARC
  5
2DD
330
1F
100
AcDbEntity
  8
PROFILES_INSIDE
100
AcDbCircle
 10
15.2427506327
 20
35.2075592396
 30
0.0
 40
0.2035433070866139
100
AcDbArc
 50
150.1121195006
 51
337.3995434107
  0
ARC
  5
2DE
330
1F
100
AcDbEntity
  8
PROFILES_INSIDE
100
AcDbCircle
 10
15.0321441995
 20
35.3286040384
 30
0.0
 40
0.0393700787401576
100
AcDbArc
 50
330.1121195006
 51
355.0
  0
ARC
  5
2DF
330
1F
100
AcDbEntity
  8
PROFILES_INSIDE
100
AcDbCircle
 10
15.0749172563
 20
35.8175023152
 30
0.0
 40
0.0393700245932996
100
AcDbArc
 50
355.0
 51
19.8878378453
  0
ARC
  5
2E0
330
1F
100
AcDbEntity
  8
PROFILES_INSIDE
100
AcDbCircle
 10
15.3033432533
 20
35.9001365341
 30
0.0
 40
0.2035432554599082
100
AcDbArc
 50
12.6004769824
 51
199.8878378453
  0
ARC
  5
2E1
330
1F
100
AcDbEntity
  8
PROFILES_INSIDE
100
AcDbCircle
 10
15.540406057
 20
35.953128421
 30
0.0
 40
0.0393701303668615
100
AcDbArc
 50
192.6004769824
 51
265.0000489546
  0
ARC
  5
2E2
330
1F
100
AcDbEntity
  8
PROFILES_INSIDE
100
AcDbCircle
 10
3.62795719
 20
36.8189812445
 30
0.0
 40
0.0393714704138578
100
AcDbArc
 50
150.1121919354
 51
175.0
  0
ARC
  5
2E3
330
1F
100
AcDbEntity
  8
PROFILES_INSIDE
100
AcDbCircle
 10
3.4173493972
 20
36.9400264706
 30
0.0
 40
0.2035433070866141
100
AcDbArc
 50
330.1121919354
 51
157.3995434107
  0
ARC
  5
2E4
330
1F
100
AcDbEntity
  8
PROFILES_INSIDE
100
AcDbCircle
 10
3.1930900215
 20
37.0333787357
 30
0.0
 40
0.0393700787401611
100
AcDbArc
 50
265.0000489546
 51
337.3995434107
  0
ARC
  5
2E5
330
1F
100
AcDbEntity
  8
PROFILES_INSIDE
100
AcDbCircle
 10
3.0344975111
 20
37.0472536459
 30
0.0
 40
0.0393701069001787
100
AcDbArc
 50
192.6004769824
 51
265.0000489546
  0
ARC
  5
2E6
330
1F
100
AcDbEntity
  8
PROFILES_INSIDE
100
AcDbCircle
 10
2.7974347074
 20
36.994261759
 30
0.0
 40
0.203543278926592
100
AcDbArc
 50
12.6004769824
 51
199.8878378453
  0
ARC
  5
2E7
330
1F
100
AcDbEntity
  8
PROFILES_INSIDE
100
AcDbCircle
 10
2.5690087104
 20
36.91162754
 30
0.0
 40
0.0393700198999651
100
AcDbArc
 50
355.0
 51
19.8878378453
  0
ARC
  5
2E8
330
1F
100
AcDbEntity
  8
PROFILES_INSIDE
100
AcDbCircle
 10
2.5262356536
 20
36.4227292633
 30
0.0
 40
0.0393700787401619
100
AcDbArc
 50
330.1121195006
 51
355.0
  0
ARC
  5
2E9
330
1F
100
AcDbEntity
  8
PROFILES_INSIDE
100
AcDbCircle
 10
2.7368420868
 20
36.3016844645
 30
0.0
 40
0.2035433070866139
100
AcDbArc
 50
150.1121195006
 51
337.3995434107
  0
ARC
  5
2EA
330
1F
100
AcDbEntity
  8
PROFILES_INSIDE
100
AcDbCircle
 10
2.9611014625
 20
36.2083321994
 30
0.0
 40
0.0393700787401607
100
AcDbArc
 50
85.0000489546
 51
157.3995434107
  0
ARC
  5
2EB
330
1F
100
AcDbEntity
  8
PROFILES_INSIDE
100
AcDbCircle
 10
3.1196939729
 20
36.1944572892
 30
0.0
 40
0.0393700787401611
100
AcDbArc
 50
12.6004769824
 51
85.0000489546
  0
ARC
  5
2EC
330
1F
100
AcDbEntity
  8
PROFILES_INSIDE
100
AcDbCircle
 10
3.3567567767
 20
36.2474491761
 30
0.0
 40
0.2035433070866123
100
AcDbArc
 50
192.6004769824
 51
19.8879035534
  0
ARC
  5
2ED
330
1F
100
AcDbEntity
  8
PROFILES_INSIDE
100
AcDbCircle
 10
3.5851828004
 20
36.330083701
 30
0.0
 40
0.0393700787401659
100
AcDbArc
 50
175.0
 51
199.8879035534
  0
ARC
  5
2EE
330
1F
100
AcDbEntity
  8
PROFILES_INSIDE
100
AcDbCircle
 10
15.9232579651
 20
3.1645181635
 30
0.0
 40
0.2035433070866152
100
AcDbArc
 50
202.6004769824
 51
29.8879035534
  0
ARC
  5
2EF
330
1F
100
AcDbEntity
  8
PROFILES_INSIDE
100
AcDbCircle
 10
16.1338643496
 20
3.285563047
 30
0.0
 40
0.0393700787401553
100
AcDbArc
 50
185.0
 51
209.8879035534
  0
ARC
  5
2F0
330
1F
100
AcDbEntity
  8
PROFILES_INSIDE
100
AcDbCircle
 10
16.0910927326
 20
3.7744608332
 30
0.0
 40
0.0393714704138538
100
AcDbArc
 50
160.1121919354
 51
185.0
  0
ARC
  5
2F1
330
1F
100
AcDbEntity
  8
PROFILES_INSIDE
100
AcDbCircle
 10
15.8626652625
 20
3.8570954508
 30
0.0
 40
0.2035433070866171
100
AcDbArc
 50
340.1121919354
 51
167.3995434107
  0
ARC
  5
2F2
330
1F
100
AcDbEntity
  8
PROFILES_INSIDE
100
AcDbCircle
 10
15.6256024399
 20
3.9100872533
 30
0.0
 40
0.0393700787401557
100
AcDbArc
 50
275.0000489546
 51
347.3995434107
  0
ARC
  5
2F3
330
1F
100
AcDbEntity
  8
PROFILES_INSIDE
100
AcDbCircle
 10
15.4670099533
 20
3.8962120721
 30
0.0
 40
0.0393701022068414
100
AcDbArc
 50
202.6004769824
 51
275.0000489546
  0
ARC
  5
2F4
330
1F
100
AcDbEntity
  8
PROFILES_INSIDE
100
AcDbCircle
 10
15.2427506107
 20
3.8028597271
 30
0.0
 40
0.2035432836199317
100
AcDbArc
 50
22.6004769824
 51
209.8878378453
  0
ARC
  5
2F5
330
1F
100
AcDbEntity
  8
PROFILES_INSIDE
100
AcDbCircle
 10
15.0321441995
 20
3.6818151495
 30
0.0
 40
0.0393700152066281
100
AcDbArc
 50
5.0
 51
29.8878378453
  0
ARC
  5
2F6
330
1F
100
AcDbEntity
  8
PROFILES_INSIDE
100
AcDbCircle
 10
15.0749172563
 20
3.1929168728
 30
0.0
 40
0.0393700787401592
100
AcDbArc
 50
340.1121195006
 51
5.0
  0
ARC
  5
2F7
330
1F
100
AcDbEntity
  8
PROFILES_INSIDE
100
AcDbCircle
 10
15.3033433133
 20
3.1102824398
 30
0.0
 40
0.2035433070866167
100
AcDbArc
 50
160.1121195006
 51
347.3995434107
  0
ARC
  5
2F8
330
1F
100
AcDbEntity
  8
PROFILES_INSIDE
100
AcDbCircle
 10
15.5404061359
 20
3.0572906373
 30
0.0
 40
0.0393700787401557
100
AcDbArc
 50
95.0000489546
 51
167.3995434107
  0
ARC
  5
2F9
330
1F
100
AcDbEntity
  8
PROFILES_INSIDE
100
AcDbCircle
 10
15.6989986226
 20
3.0711658185
 30
0.0
 40
0.0393700787401604
100
AcDbArc
 50
22.6004769824
 51
95.0000489546
  0
ARC
  5
2FA
330
1F
100
AcDbEntity
  8
PROFILES_INSIDE
100
AcDbCircle
 10
2.5690087104
 20
2.0987916479
 30
0.0
 40
0.0393700787401566
100
AcDbArc
 50
340.1121195006
 51
5.0
  0
ARC
  5
2FB
330
1F
100
AcDbEntity
  8
PROFILES_INSIDE
100
AcDbCircle
 10
2.7974347674
 20
2.0161572149
 30
0.0
 40
0.2035433070866141
100
AcDbArc
 50
160.1121195006
 51
347.3995434107
  0
ARC
  5
2FC
330
1F
100
AcDbEntity
  8
PROFILES_INSIDE
100
AcDbCircle
 10
3.03449759
 20
1.9631654124
 30
0.0
 40
0.0393700787401596
100
AcDbArc
 50
95.0000489546
 51
167.3995434107
  0
ARC
  5
2FD
330
1F
100
AcDbEntity
  8
PROFILES_INSIDE
100
AcDbCircle
 10
3.1930900767
 20
1.9770405937
 30
0.0
 40
0.0393700787401604
100
AcDbArc
 50
22.6004769824
 51
95.0000489546
  0
ARC
  5
2FE
330
1F
100
AcDbEntity
  8
PROFILES_INSIDE
100
AcDbCircle
 10
3.4173494192
 20
2.0703929386
 30
0.0
 40
0.2035433070866147
100
AcDbArc
 50
202.6004769824
 51
29.8879035534
  0
ARC
  5
2FF
330
1F
100
AcDbEntity
  8
PROFILES_INSIDE
100
AcDbCircle
 10
3.6279558037
 20
2.1914378221
 30
0.0
 40
0.0393700787401574
100
AcDbArc
 50
185.0
 51
209.8879035534
  0
ARC
  5
300
330
1F
100
AcDbEntity
  8
PROFILES_INSIDE
100
AcDbCircle
 10
3.5851841867
 20
2.6803356083
 30
0.0
 40
0.0393714704138566
100
AcDbArc
 50
160.1121919354
 51
185.0
  0
ARC
  5
301
330
1F
100
AcDbEntity
  8
PROFILES_INSIDE
100
AcDbCircle
 10
3.3567567166
 20
2.7629702259
 30
0.0
 40
0.2035433070866129
100
AcDbArc
 50
340.1121919354
 51
167.3995434107
  0
ARC
  5
302
330
1F
100
AcDbEntity
  8
PROFILES_INSIDE
100
AcDbCircle
 10
3.119693894
 20
2.8159620284
 30
0.0
 40
0.0393700787401644
100
AcDbArc
 50
275.0000489546
 51
347.3995434107
  0
ARC
  5
303
330
1F
100
AcDbEntity
  8
PROFILES_INSIDE
100
AcDbCircle
 10
2.9611014073
 20
2.8020868472
 30
0.0
 40
0.0393700834334961
100
AcDbArc
 50
202.6004769824
 51
275.0000489546
  0
ARC
  5
304
330
1F
100
AcDbEntity
  8
PROFILES_INSIDE
100
AcDbCircle
 10
2.7368420648
 20
2.7087345023
 30
0.0
 40
0.2035433023932736
100
AcDbArc
 50
22.6004769824
 51
209.8878378453
  0
ARC
  5
305
330
1F
100
AcDbEntity
  8
PROFILES_INSIDE
100
AcDbCircle
 10
2.5262356536
 20
2.5876899247
 30
0.0
 40
0.039370024593298
100
AcDbArc
 50
5.0
 51
29.8878378453
  0
ARC
  5
306
330
1F
100
AcDbEntity
  8
PROFILES_INSIDE
100
AcDbCircle
 10
33.0426993548
 20
35.9392535108
 30
0.0
 40
0.0393700787401578
100
AcDbArc
 50
265.0000489546
 51
337.3995434107
  0
ARC
  5
307
330
1F
100
AcDbEntity
  8
PROFILES_INSIDE
100
AcDbCircle
 10
33.2669587306
 20
35.8459012457
 30
0.0
 40
0.2035433070866144
100
AcDbArc
 50
330.1121919354
 51
157.3995434107
  0
ARC
  5
308
330
1F
100
AcDbEntity
  8
PROFILES_INSIDE
100
AcDbCircle
 10
33.4775665233
 20
35.7248560197
 30
0.0
 40
0.0393714704138552
100
AcDbArc
 50
150.1121919354
 51
175.0
  0
ARC
  5
309
330
1F
100
AcDbEntity
  8
PROFILES_INSIDE
100
AcDbCircle
 10
33.4347921337
 20
35.2359584761
 30
0.0
 40
0.0393700787401588
100
AcDbArc
 50
175.0
 51
199.8879035534
  0
ARC
  5
30A
330
1F
100
AcDbEntity
  8
PROFILES_INSIDE
100
AcDbCircle
 10
33.20636611
 20
35.1533239512
 30
0.0
 40
0.2035433070866176
100
AcDbArc
 50
192.6004769824
 51
19.8879035534
  0
ARC
  5
30B
330
1F
100
AcDbEntity
  8
PROFILES_INSIDE
100
AcDbCircle
 10
32.9693033062
 20
35.1003320643
 30
0.0
 40
0.0393700787401551
100
AcDbArc
 50
12.6004769824
 51
85.0000489546
  0
ARC
  5
30C
330
1F
100
AcDbEntity
  8
PROFILES_INSIDE
100
AcDbCircle
 10
32.8107107958
 20
35.1142069745
 30
0.0
 40
0.0393700787401609
100
AcDbArc
 50
85.0000489546
 51
157.3995434107
  0
ARC
  5
30D
330
1F
100
AcDbEntity
  8
PROFILES_INSIDE
100
AcDbCircle
 10
32.5864514201
 20
35.2075592396
 30
0.0
 40
0.2035433070866186
100
AcDbArc
 50
150.1121195006
 51
337.3995434107
  0
ARC
  5
30E
330
1F
100
AcDbEntity
  8
PROFILES_INSIDE
100
AcDbCircle
 10
32.3758449869
 20
35.3286040384
 30
0.0
 40
0.0393700787401612
100
AcDbArc
 50
330.1121195006
 51
355.0
  0
ARC
  5
30F
330
1F
100
AcDbEntity
  8
PROFILES_INSIDE
100
AcDbCircle
 10
32.4186180437
 20
35.8175023152
 30
0.0
 40
0.0393700245932978
100
AcDbArc
 50
355.0
 51
19.8878378453
  0
ARC
  5
310
330
1F
100
AcDbEntity
  8
PROFILES_INSIDE
100
AcDbCircle
 10
32.6470440407
 20
35.9001365341
 30
0.0
 40
0.2035432554599063
100
AcDbArc
 50
12.6004769824
 51
199.8878378453
  0
ARC
  5
311
330
1F
100
AcDbEntity
  8
PROFILES_INSIDE
100
AcDbCircle
 10
32.8841068444
 20
35.953128421
 30
0.0
 40
0.039370130366865
100
AcDbArc
 50
192.6004769824
 51
265.0000489546
  0
ARC
  5
312
330
1F
100
AcDbEntity
  8
PROFILES_INSIDE
100
AcDbCircle
 10
20.9773292276
 20
36.8184850744
 30
0.0
 40
0.0393714704138571
100
AcDbArc
 50
150.1121919354
 51
175.0
  0
ARC
  5
313
330
1F
100
AcDbEntity
  8
PROFILES_INSIDE
100
AcDbCircle
 10
20.7667214348
 20
36.9395303005
 30
0.0
 40
0.2035433070866175
100
AcDbArc
 50
330.1121919354
 51
157.3995434107
  0
ARC
  5
314
330
1F
100
AcDbEntity
  8
PROFILES_INSIDE
100
AcDbCircle
 10
20.542462059
 20
37.0328825656
 30
0.0
 40
0.0393700787401583
100
AcDbArc
 50
265.0000489546
 51
337.3995434107
  0
ARC
  5
315
330
1F
100
AcDbEntity
  8
PROFILES_INSIDE
100
AcDbCircle
 10
20.3838695487
 20
37.0467574758
 30
0.0
 40
0.0393701069001798
100
AcDbArc
 50
192.6004769824
 51
265.0000489546
  0
ARC
  5
316
330
1F
100
AcDbEntity
  8
PROFILES_INSIDE
100
AcDbCircle
 10
20.1468067449
 20
36.9937655889
 30
0.0
 40
0.2035432789265949
100
AcDbArc
 50
12.6004769824
 51
199.8878378453
  0
ARC
  5
317
330
1F
100
AcDbEntity
  8
PROFILES_INSIDE
100
AcDbCircle
 10
19.9183807479
 20
36.9111313699
 30
0.0
 40
0.0393700198999604
100
AcDbArc
 50
355.0
 51
19.8878378453
  0
ARC
  5
318
330
1F
100
AcDbEntity
  8
PROFILES_INSIDE
100
AcDbCircle
 10
19.8756076911
 20
36.4222330932
 30
0.0
 40
0.0393700787401552
100
AcDbArc
 50
330.1121195006
 51
355.0
  0
ARC
  5
319
330
1F
100
AcDbEntity
  8
PROFILES_INSIDE
100
AcDbCircle
 10
20.0862141243
 20
36.3011882944
 30
0.0
 40
0.203543307086617
100
AcDbArc
 50
150.1121195006
 51
337.3995434107
  0
ARC
  5
31A
330
1F
100
AcDbEntity
  8
PROFILES_INSIDE
100
AcDbCircle
 10
20.3104735
 20
36.2078360293
 30
0.0
 40
0.0393700787401551
100
AcDbArc
 50
85.0000489546
 51
157.3995434107
  0
ARC
  5
31B
330
1F
100
AcDbEntity
  8
PROFILES_INSIDE
100
AcDbCircle
 10
20.4690660104
 20
36.1939611191
 30
0.0
 40
0.0393700787401536
100
AcDbArc
 50
12.6004769824
 51
85.0000489546
  0
ARC
  5
31C
330
1F
100
AcDbEntity
  8
PROFILES_INSIDE
100
AcDbCircle
 10
20.7061288142
 20
36.246953006
 30
0.0
 40
0.2035433070866215
100
AcDbArc
 50
192.6004769824
 51
19.8879035534
  0
ARC
  5
31D
330
1F
100
AcDbEntity
  8
PROFILES_INSIDE
100
AcDbCircle
 10
20.9345548379
 20
36.3295875309
 30
0.0
 40
0.0393700787401517
100
AcDbArc
 50
175.0
 51
199.8879035534
  0
ARC
  5
31E
330
1F
100
AcDbEntity
  8
PROFILES_INSIDE
100
AcDbCircle
 10
33.2669587525
 20
3.1645181635
 30
0.0
 40
0.2035433070866186
100
AcDbArc
 50
202.6004769824
 51
29.8879035534
  0
ARC
  5
31F
330
1F
100
AcDbEntity
  8
PROFILES_INSIDE
100
AcDbCircle
 10
33.477565137
 20
3.285563047
 30
0.0
 40
0.0393700787401544
100
AcDbArc
 50
185.0
 51
209.8879035534
  0
ARC
  5
320
330
1F
100
AcDbEntity
  8
PROFILES_INSIDE
100
AcDbCircle
 10
33.43479352
 20
3.7744608332
 30
0.0
 40
0.0393714704138536
100
AcDbArc
 50
160.1121919354
 51
185.0
  0
ARC
  5
321
330
1F
100
AcDbEntity
  8
PROFILES_INSIDE
100
AcDbCircle
 10
33.2063660499
 20
3.8570954508
 30
0.0
 40
0.2035433070866171
100
AcDbArc
 50
340.1121919354
 51
167.3995434107
  0
ARC
  5
322
330
1F
100
AcDbEntity
  8
PROFILES_INSIDE
100
AcDbCircle
 10
32.9693032273
 20
3.9100872533
 30
0.0
 40
0.0393700787401583
100
AcDbArc
 50
275.0000489546
 51
347.3995434107
  0
ARC
  5
323
330
1F
100
AcDbEntity
  8
PROFILES_INSIDE
100
AcDbCircle
 10
32.8107107407
 20
3.8962120721
 30
0.0
 40
0.0393701022068406
100
AcDbArc
 50
202.6004769824
 51
275.0000489546
  0
ARC
  5
324
330
1F
100
AcDbEntity
  8
PROFILES_INSIDE
100
AcDbCircle
 10
32.5864513981
 20
3.8028597271
 30
0.0
 40
0.2035432836199243
100
AcDbArc
 50
22.6004769824
 51
209.8878378453
  0
ARC
  5
325
330
1F
100
AcDbEntity
  8
PROFILES_INSIDE
100
AcDbCircle
 10
32.3758449869
 20
3.6818151495
 30
0.0
 40
0.0393700152066227
100
AcDbArc
 50
5.0
 51
29.8878378453
  0
ARC
  5
326
330
1F
100
AcDbEntity
  8
PROFILES_INSIDE
100
AcDbCircle
 10
32.4186180437
 20
3.1929168728
 30
0.0
 40
0.0393700787401603
100
AcDbArc
 50
340.1121195006
 51
5.0
  0
ARC
  5
327
330
1F
100
AcDbEntity
  8
PROFILES_INSIDE
100
AcDbCircle
 10
32.6470441007
 20
3.1102824398
 30
0.0
 40
0.2035433070866167
100
AcDbArc
 50
160.1121195006
 51
347.3995434107
  0
ARC
  5
328
330
1F
100
AcDbEntity
  8
PROFILES_INSIDE
100
AcDbCircle
 10
32.8841069233
 20
3.0572906373
 30
0.0
 40
0.0393700787401579
100
AcDbArc
 50
95.0000489546
 51
167.3995434107
  0
ARC
  5
329
330
1F
100
AcDbEntity
  8
PROFILES_INSIDE
100
AcDbCircle
 10
33.04269941
 20
3.0711658185
 30
0.0
 40
0.0393700787401601
100
AcDbArc
 50
22.6004769824
 51
95.0000489546
  0
ARC
  5
32A
330
1F
100
AcDbEntity
  8
PROFILES_INSIDE
100
AcDbCircle
 10
19.9183807479
 20
2.099287818
 30
0.0
 40
0.0393700787401562
100
AcDbArc
 50
340.1121195006
 51
5.0
  0
ARC
  5
32B
330
1F
100
AcDbEntity
  8
PROFILES_INSIDE
100
AcDbCircle
 10
20.1468068049
 20
2.016653385
 30
0.0
 40
0.2035433070866141
100
AcDbArc
 50
160.1121195006
 51
347.3995434107
  0
ARC
  5
32C
330
1F
100
AcDbEntity
  8
PROFILES_INSIDE
100
AcDbCircle
 10
20.3838696275
 20
1.9636615825
 30
0.0
 40
0.0393700787401595
100
AcDbArc
 50
95.0000489546
 51
167.3995434107
  0
ARC
  5
32D
330
1F
100
AcDbEntity
  8
PROFILES_INSIDE
100
AcDbCircle
 10
20.5424621142
 20
1.9775367638
 30
0.0
 40
0.0393700787401564
100
AcDbArc
 50
22.6004769824
 51
95.0000489546
  0
ARC
  5
32E
330
1F
100
AcDbEntity
  8
PROFILES_INSIDE
100
AcDbCircle
 10
20.7667214567
 20
2.0708891087
 30
0.0
 40
0.2035433070866188
100
AcDbArc
 50
202.6004769824
 51
29.8879035534
  0
ARC
  5
32F
330
1F
100
AcDbEntity
  8
PROFILES_INSIDE
100
AcDbCircle
 10
20.9773278412
 20
2.1919339922
 30
0.0
 40
0.0393700787401623
100
AcDbArc
 50
185.0
 51
209.8879035534
  0
ARC
  5
330
330
1F
100
AcDbEntity
  8
PROFILES_INSIDE
100
AcDbCircle
 10
20.9345562243
 20
2.6808317784
 30
0.0
 40
0.0393714704138538
100
AcDbArc
 50
160.1121919354
 51
185.0
  0
ARC
  5
331
330
1F
100
AcDbEntity
  8
PROFILES_INSIDE
100
AcDbCircle
 10
20.7061287542
 20
2.763466396
 30
0.0
 40
0.2035433070866171
100
AcDbArc
 50
340.1121919354
 51
167.3995434107
  0
ARC
  5
332
330
1F
100
AcDbEntity
  8
PROFILES_INSIDE
100
AcDbCircle
 10
20.4690659315
 20
2.8164581985
 30
0.0
 40
0.0393700787401554
100
AcDbArc
 50
275.0000489546
 51
347.3995434107
  0
ARC
  5
333
330
1F
100
AcDbEntity
  8
PROFILES_INSIDE
100
AcDbCircle
 10
20.3104734449
 20
2.8025830173
 30
0.0
 40
0.0393700834334875
100
AcDbArc
 50
202.6004769824
 51
275.0000489546
  0
ARC
  5
334
330
1F
100
AcDbEntity
  8
PROFILES_INSIDE
100
AcDbCircle
 10
20.0862141024
 20
2.7092306724
 30
0.0
 40
0.2035433023932815
100
AcDbArc
 50
22.6004769824
 51
209.8878378453
  0
ARC
  5
335
330
1F
100
AcDbEntity
  8
PROFILES_INSIDE
100
AcDbCircle
 10
19.8756076911
 20
2.5881860948
 30
0.0
 40
0.0393700245933046
100
AcDbArc
 50
5.0
 51
29.8878378453
  0
ARC
  5
336
330
1F
100
AcDbEntity
  8
PROFILES_OUTSIDE
100
AcDbCircle
 10
18.6015070894
 20
37.5121393027
 30
0.0
 40
0.236220472440948
100
AcDbArc
 50
85.0
 51
180.0
  0
ARC
  5
337
330
1F
100
AcDbEntity
  8
PROFILES_OUTSIDE
100
AcDbCircle
 10
34.2333968531
 20
36.1445261589
 30
0.0
 40
0.236220472440948
100
AcDbArc
 50
0.0
 51
85.0
  0
ARC
  5
338
330
1F
100
AcDbEntity
  8
PROFILES_OUTSIDE
100
AcDbCircle
 10
34.2333968531
 20
33.4095885538
 30
0.0
 40
0.236220472440948
100
AcDbArc
 50
280.0
 51
0.0
  0
ARC
  5
339
330
1F
100
AcDbEntity
  8
PROFILES_OUTSIDE
100
AcDbCircle
 10
33.9184362232
 20
32.8743233889
 30
0.0
 40
0.236220472440948
100
AcDbArc
 50
100.0
 51
180.0
  0
ARC
  5
33A
330
1F
100
AcDbEntity
  8
PROFILES_OUTSIDE
100
AcDbCircle
 10
33.9184362232
 20
6.1360957991
 30
0.0
 40
0.236220472440948
100
AcDbArc
 50
180.0
 51
260.0
  0
ARC
  5
33B
330
1F
100
AcDbEntity
  8
PROFILES_OUTSIDE
100
AcDbCircle
 10
34.2333968531
 20
5.6008306342
 30
0.0
 40
0.236220472440948
100
AcDbArc
 50
0.0
 51
80.0
  0
ARC
  5
33C
330
1F
100
AcDbEntity
  8
PROFILES_OUTSIDE
100
AcDbCircle
 10
34.2333968531
 20
2.8658930291
 30
0.0
 40
0.236220472440948
100
AcDbArc
 50
275.0
 51
0.0
  0
ARC
  5
33D
330
1F
100
AcDbEntity
  8
PROFILES_OUTSIDE
100
AcDbCircle
 10
18.6015070894
 20
1.4982798853
 30
0.0
 40
0.2362204724409477
100
AcDbArc
 50
180.0
 51
275.0
  0
ARC
  5
33E
330
1F
100
AcDbEntity
  8
PROFILES_OUTSIDE
100
AcDbCircle
 10
67.4849716563
 20
14.2494768122
 30
0.0
 40
0.4724409448818925
100
AcDbArc
 50
90.0
 51
180.0
  0
ARC
  5
33F
330
1F
100
AcDbEntity
  8
PROFILES_OUTSIDE
100
AcDbCircle
 10
67.4849716563
 20
2.640679617
 30
0.0
 40
0.472440944881896
100
AcDbArc
 50
180.0
 51
270.0
  0
ARC
  5
340
330
1F
100
AcDbEntity
  8
PROFILES_OUTSIDE
100
AcDbCircle
 10
71.1444204752
 20
1.4694197745
 30
0.0
 40
0.0393700787401574
100
AcDbArc
 50
270.0
 51
0.0
  0
ARC
  5
341
330
1F
100
AcDbEntity
  8
PROFILES_OUTSIDE
100
AcDbCircle
 10
59.6305640148
 20
15.25341382
 30
0.0
 40
0.039370078740159
100
AcDbArc
 50
183.6619355755
 51
270.0
  0
ARC
  5
342
330
1F
100
AcDbEntity
  8
PROFILES_OUTSIDE
100
AcDbCircle
 10
60.2207087278
 20
15.1746736625
 30
0.0
 40
0.0393700787401579
100
AcDbArc
 50
65.1121079736
 51
90.0
  0
ARC
  5
343
330
1F
100
AcDbEntity
  8
PROFILES_OUTSIDE
100
AcDbCircle
 10
60.3229373988
 20
15.3950284034
 30
0.0
 40
0.2035433070866139
100
AcDbArc
 50
245.1121079736
 51
72.3995332141
  0
ARC
  5
344
330
1F
100
AcDbEntity
  8
PROFILES_OUTSIDE
100
AcDbCircle
 10
60.3963889791
 20
15.6265705775
 30
0.0
 40
0.0393700787401627
100
AcDbArc
 50
180.0
 51
252.3995332141
  0
ARC
  5
345
330
1F
100
AcDbEntity
  8
PROFILES_OUTSIDE
100
AcDbCircle
 10
63.8215858295
 20
15.2338075208
 30
0.0
 40
0.4724409448818907
100
AcDbArc
 50
0.0
 51
90.0
  0
ARC
  5
346
330
1F
100
AcDbEntity
  8
PROFILES_OUTSIDE
100
AcDbCircle
 10
64.7664677193
 20
11.1804289282
 30
0.0
 40
0.472440944881896
100
AcDbArc
 50
180.0
 51
270.0
  0
ARC
  5
347
330
1F
100
AcDbEntity
  8
PROFILES_OUTSIDE
100
AcDbCircle
 10
65.7900897665
 20
11.1804289282
 30
0.0
 40
0.472440944881896
100
AcDbArc
 50
270.0
 51
0.0
  0
ARC
  5
348
330
1F
100
AcDbEntity
  8
PROFILES_OUTSIDE
100
AcDbCircle
 10
66.7349716563
 20
15.2338075208
 30
0.0
 40
0.4724409448818907
100
AcDbArc
 50
90.0
 51
180.0
  0
ARC
  5
349
330
1F
100
AcDbEntity
  8
PROFILES_OUTSIDE
100
AcDbCircle
 10
70.1601685067
 20
15.6265705775
 30
0.0
 40
0.0393700787401586
100
AcDbArc
 50
287.6004667859
 51
0.0
  0
ARC
  5
34A
330
1F
100
AcDbEntity
  8
PROFILES_OUTSIDE
100
AcDbCircle
 10
70.233620087
 20
15.3950284034
 30
0.0
 40
0.2035433070866123
100
AcDbArc
 50
107.6004667859
 51
294.8878920264
  0
ARC
  5
34B
330
1F
100
AcDbEntity
  8
PROFILES_OUTSIDE
100
AcDbCircle
 10
70.335848758
 20
15.1746736625
 30
0.0
 40
0.0393700787401627
100
AcDbArc
 50
90.0
 51
114.8878920264
  0
ARC
  5
34C
330
1F
100
AcDbEntity
  8
PROFILES_OUTSIDE
100
AcDbCircle
 10
70.925993471
 20
15.25341382
 30
0.0
 40
0.039370078740159
100
AcDbArc
 50
270.0
 51
356.3380644245
  0
ARC
  5
34D
330
1F
100
AcDbEntity
  8
PROFILES_OUTSIDE
100
AcDbCircle
 10
70.9475700815
 20
14.9581382295
 30
0.0
 40
0.236220472440948
100
AcDbArc
 50
270.0
 51
0.0
  0
ARC
  5
34E
330
1F
100
AcDbEntity
  8
PROFILES_OUTSIDE
100
AcDbCircle
 10
59.4121370106
 20
1.4694197745
 30
0.0
 40
0.0393700787401574
100
AcDbArc
 50
180.0
 51
270.0
  0
ARC
  5
34F
330
1F
100
AcDbEntity
  8
PROFILES_OUTSIDE
100
AcDbCircle
 10
66.2625307114
 20
10.7079879833
 30
0.0
 40
0.75
100
AcDbArc
 50
300.0
 51
0.0
  0
ARC
  5
350
330
1F
100
AcDbEntity
  8
PROFILES_OUTSIDE
100
AcDbCircle
 10
67.0125307114
 20
9.4089498777
 30
0.0
 40
0.75
100
AcDbArc
 50
120.0
 51
180.0
  0
ARC
  5
351
330
1F
100
AcDbEntity
  8
PROFILES_OUTSIDE
100
AcDbCircle
 10
67.0125307114
 20
7.4812065515
 30
0.0
 40
0.7500000000000008
100
AcDbArc
 50
180.0
 51
240.0
  0
ARC
  5
352
330
1F
100
AcDbEntity
  8
PROFILES_OUTSIDE
100
AcDbCircle
 10
66.2625307114
 20
6.1821684459
 30
0.0
 40
0.75
100
AcDbArc
 50
0.0
 51
60.0
  0
ARC
  5
353
330
1F
100
AcDbEntity
  8
PROFILES_OUTSIDE
100
AcDbCircle
 10
70.9475700815
 20
1.9320181997
 30
0.0
 40
0.2362204724409449
100
AcDbArc
 50
0.0
 51
90.0
  0
ARC
  5
354
330
1F
100
AcDbEntity
  8
PROFILES_OUTSIDE
100
AcDbCircle
 10
63.0715858295
 20
2.640679617
 30
0.0
 40
0.4724409448818889
100
AcDbArc
 50
270.0
 51
0.0
  0
ARC
  5
355
330
1F
100
AcDbEntity
  8
PROFILES_OUTSIDE
100
AcDbCircle
 10
70.925993471
 20
1.6367426092
 30
0.0
 40
0.039370078740159
100
AcDbArc
 50
3.6619355755
 51
90.0
  0
ARC
  5
356
330
1F
100
AcDbEntity
  8
PROFILES_OUTSIDE
100
AcDbCircle
 10
70.335848758
 20
1.7154827666
 30
0.0
 40
0.0393700787401621
100
AcDbArc
 50
245.1121079736
 51
270.0
  0
ARC
  5
357
330
1F
100
AcDbEntity
  8
PROFILES_OUTSIDE
100
AcDbCircle
 10
70.233620087
 20
1.4951280257
 30
0.0
 40
0.2035433070866159
100
AcDbArc
 50
65.1121079736
 51
252.3995332141
  0
ARC
  5
358
330
1F
100
AcDbEntity
  8
PROFILES_OUTSIDE
100
AcDbCircle
 10
70.1601685067
 20
1.2635858517
 30
0.0
 40
0.0393700787401562
100
AcDbArc
 50
0.0
 51
72.3995332141
  0
ARC
  5
359
330
1F
100
AcDbEntity
  8
PROFILES_OUTSIDE
100
AcDbCircle
 10
66.7349716563
 20
1.6563489084
 30
0.0
 40
0.4724409448818903
100
AcDbArc
 50
180.0
 51
270.0
  0
ARC
  5
35A
330
1F
100
AcDbEntity
  8
PROFILES_OUTSIDE
100
AcDbCircle
 10
65.7900897665
 20
5.709727501
 30
0.0
 40
0.472440944881896
100
AcDbArc
 50
0.0
 51
90.0
  0
ARC
  5
35B
330
1F
100
AcDbEntity
  8
PROFILES_OUTSIDE
100
AcDbCircle
 10
64.7664677193
 20
5.709727501
 30
0.0
 40
0.472440944881896
100
AcDbArc
 50
90.0
 51
180.0
  0
ARC
  5
35C
330
1F
100
AcDbEntity
  8
PROFILES_OUTSIDE
100
AcDbCircle
 10
63.8215858295
 20
1.6563489084
 30
0.0
 40
0.4724409448818903
100
AcDbArc
 50
270.0
 51
0.0
  0
ARC
  5
35D
330
1F
100
AcDbEntity
  8
PROFILES_OUTSIDE
100
AcDbCircle
 10
60.3963889791
 20
1.2635858517
 30
0.0
 40
0.0393700787401562
100
AcDbArc
 50
107.6004667859
 51
180.0
  0
ARC
  5
35E
330
1F
100
AcDbEntity
  8
PROFILES_OUTSIDE
100
AcDbCircle
 10
60.3229373988
 20
1.4951280257
 30
0.0
 40
0.2035433070866144
100
AcDbArc
 50
287.6004667859
 51
114.8878920264
  0
ARC
  5
35F
330
1F
100
AcDbEntity
  8
PROFILES_OUTSIDE
100
AcDbCircle
 10
60.2207087278
 20
1.7154827666
 30
0.0
 40
0.0393700787401583
100
AcDbArc
 50
270.0
 51
294.8878920264
  0
ARC
  5
360
330
1F
100
AcDbEntity
  8
PROFILES_OUTSIDE
100
AcDbCircle
 10
59.6305640148
 20
1.6367426092
 30
0.0
 40
0.039370078740159
100
AcDbArc
 50
90.0
 51
176.3380644245
  0
ARC
  5
361
330
1F
100
AcDbEntity
  8
PROFILES_OUTSIDE
100
AcDbCircle
 10
59.6089874043
 20
1.9320181997
 30
0.0
 40
0.2362204724409449
100
AcDbArc
 50
90.0
 51
180.0
  0
ARC
  5
362
330
1F
100
AcDbEntity
  8
PROFILES_OUTSIDE
100
AcDbCircle
 10
63.0715858295
 20
14.2494768122
 30
0.0
 40
0.4724409448818836
100
AcDbArc
 50
0.0
 51
90.0
  0
ARC
  5
363
330
1F
100
AcDbEntity
  8
PROFILES_OUTSIDE
100
AcDbCircle
 10
64.2940267744
 20
6.1821684459
 30
0.0
 40
0.75
100
AcDbArc
 50
120.0
 51
180.0
  0
ARC
  5
364
330
1F
100
AcDbEntity
  8
PROFILES_OUTSIDE
100
AcDbCircle
 10
63.5440267744
 20
7.4812065515
 30
0.0
 40
0.75
100
AcDbArc
 50
300.0
 51
0.0
  0
ARC
  5
365
330
1F
100
AcDbEntity
  8
PROFILES_OUTSIDE
100
AcDbCircle
 10
63.5440267744
 20
9.4089498777
 30
0.0
 40
0.75
100
AcDbArc
 50
0.0
 51
60.0
  0
ARC
  5
366
330
1F
100
AcDbEntity
  8
PROFILES_OUTSIDE
100
AcDbCircle
 10
64.2940267744
 20
10.7079879833
 30
0.0
 40
0.75
100
AcDbArc
 50
180.0
 51
240.0
  0
ARC
  5
367
330
1F
100
AcDbEntity
  8
PROFILES_OUTSIDE
100
AcDbCircle
 10
59.6089874043
 20
14.9581382295
 30
0.0
 40
0.2362204724409462
100
AcDbArc
 50
180.0
 51
270.0
  0
ARC
  5
368
330
1F
100
AcDbEntity
  8
PROFILES_OUTSIDE
100
AcDbCircle
 10
59.4121370106
 20
15.4207366547
 30
0.0
 40
0.0393700787401627
100
AcDbArc
 50
90.0
 51
180.0
  0
ARC
  5
369
330
1F
100
AcDbEntity
  8
PROFILES_OUTSIDE
100
AcDbCircle
 10
59.4121370106
 20
17.2309728751
 30
0.0
 40
0.0393700787401556
100
AcDbArc
 50
180.0
 51
270.0
  0
ARC
  5
36A
330
1F
100
AcDbEntity
  8
PROFILES_OUTSIDE
100
AcDbCircle
 10
63.0715858295
 20
18.4022327177
 30
0.0
 40
0.4724409448818889
100
AcDbArc
 50
270.0
 51
0.0
  0
ARC
  5
36B
330
1F
100
AcDbEntity
  8
PROFILES_OUTSIDE
100
AcDbCircle
 10
63.0715858295
 20
30.0110299128
 30
0.0
 40
0.472440944881896
100
AcDbArc
 50
0.0
 51
90.0
  0
ARC
  5
36C
330
1F
100
AcDbEntity
  8
PROFILES_OUTSIDE
100
AcDbCircle
 10
59.4121370106
 20
31.1822897553
 30
0.0
 40
0.0393700787401556
100
AcDbArc
 50
90.0
 51
180.0
  0
ARC
  5
36D
330
1F
100
AcDbEntity
  8
PROFILES_OUTSIDE
100
AcDbCircle
 10
70.925993471
 20
17.3982957098
 30
0.0
 40
0.0393700787401592
100
AcDbArc
 50
3.6619355755
 51
90.0
  0
ARC
  5
36E
330
1F
100
AcDbEntity
  8
PROFILES_OUTSIDE
100
AcDbCircle
 10
70.335848758
 20
17.4770358673
 30
0.0
 40
0.0393700787401592
100
AcDbArc
 50
245.1121079736
 51
270.0
  0
ARC
  5
36F
330
1F
100
AcDbEntity
  8
PROFILES_OUTSIDE
100
AcDbCircle
 10
70.233620087
 20
17.2566811264
 30
0.0
 40
0.2035433070866172
100
AcDbArc
 50
65.1121079736
 51
252.3995332141
  0
ARC
  5
370
330
1F
100
AcDbEntity
  8
PROFILES_OUTSIDE
100
AcDbCircle
 10
70.1601685067
 20
17.0251389523
 30
0.0
 40
0.0393700787401627
100
AcDbArc
 50
0.0
 51
72.3995332141
  0
ARC
  5
371
330
1F
100
AcDbEntity
  8
PROFILES_OUTSIDE
100
AcDbCircle
 10
66.7349716563
 20
17.417902009
 30
0.0
 40
0.472440944881896
100
AcDbArc
 50
180.0
 51
270.0
  0
ARC
  5
372
330
1F
100
AcDbEntity
  8
PROFILES_OUTSIDE
100
AcDbCircle
 10
65.7900897665
 20
21.4712806016
 30
0.0
 40
0.4724409448818889
100
AcDbArc
 50
0.0
 51
90.0
  0
ARC
  5
373
330
1F
100
AcDbEntity
  8
PROFILES_OUTSIDE
100
AcDbCircle
 10
64.7664677193
 20
21.4712806016
 30
0.0
 40
0.4724409448818889
100
AcDbArc
 50
90.0
 51
180.0
  0
ARC
  5
374
330
1F
100
AcDbEntity
  8
PROFILES_OUTSIDE
100
AcDbCircle
 10
63.8215858295
 20
17.417902009
 30
0.0
 40
0.472440944881896
100
AcDbArc
 50
270.0
 51
0.0
  0
ARC
  5
375
330
1F
100
AcDbEntity
  8
PROFILES_OUTSIDE
100
AcDbCircle
 10
60.3963889791
 20
17.0251389523
 30
0.0
 40
0.0393700787401603
100
AcDbArc
 50
107.6004667859
 51
180.0
  0
ARC
  5
376
330
1F
100
AcDbEntity
  8
PROFILES_OUTSIDE
100
AcDbCircle
 10
60.3229373988
 20
17.2566811264
 30
0.0
 40
0.2035433070866109
100
AcDbArc
 50
287.6004667859
 51
114.8878920264
  0
ARC
  5
377
330
1F
100
AcDbEntity
  8
PROFILES_OUTSIDE
100
AcDbCircle
 10
60.2207087278
 20
17.4770358673
 30
0.0
 40
0.0393700787401592
100
AcDbArc
 50
270.0
 51
294.8878920264
  0
ARC
  5
378
330
1F
100
AcDbEntity
  8
PROFILES_OUTSIDE
100
AcDbCircle
 10
59.6305640148
 20
17.3982957098
 30
0.0
 40
0.039370078740159
100
AcDbArc
 50
90.0
 51
176.3380644245
  0
ARC
  5
379
330
1F
100
AcDbEntity
  8
PROFILES_OUTSIDE
100
AcDbCircle
 10
59.6089874043
 20
17.6935713003
 30
0.0
 40
0.236220472440948
100
AcDbArc
 50
90.0
 51
180.0
  0
ARC
  5
37A
330
1F
100
AcDbEntity
  8
PROFILES_OUTSIDE
100
AcDbCircle
 10
71.1444204752
 20
31.1822897553
 30
0.0
 40
0.0393700787401556
100
AcDbArc
 50
0.0
 51
90.0
  0
ARC
  5
37B
330
1F
100
AcDbEntity
  8
PROFILES_OUTSIDE
100
AcDbCircle
 10
64.2940267744
 20
21.9437215465
 30
0.0
 40
0.7500000000000071
100
AcDbArc
 50
120.0
 51
180.0
  0
ARC
  5
37C
330
1F
100
AcDbEntity
  8
PROFILES_OUTSIDE
100
AcDbCircle
 10
63.5440267744
 20
23.2427596522
 30
0.0
 40
0.75
100
AcDbArc
 50
300.0
 51
0.0
  0
ARC
  5
37D
330
1F
100
AcDbEntity
  8
PROFILES_OUTSIDE
100
AcDbCircle
 10
63.5440267744
 20
25.1705029783
 30
0.0
 40
0.7500000000000004
100
AcDbArc
 50
0.0
 51
60.0
  0
ARC
  5
37E
330
1F
100
AcDbEntity
  8
PROFILES_OUTSIDE
100
AcDbCircle
 10
64.2940267744
 20
26.469541084
 30
0.0
 40
0.7500000000000071
100
AcDbArc
 50
180.0
 51
240.0
  0
ARC
  5
37F
330
1F
100
AcDbEntity
  8
PROFILES_OUTSIDE
100
AcDbCircle
 10
59.6089874043
 20
30.7196913301
 30
0.0
 40
0.236220472440948
100
AcDbArc
 50
180.0
 51
270.0
  0
ARC
  5
380
330
1F
100
AcDbEntity
  8
PROFILES_OUTSIDE
100
AcDbCircle
 10
67.4849716563
 20
30.0110299128
 30
0.0
 40
0.4724409448818889
100
AcDbArc
 50
90.0
 51
180.0
  0
ARC
  5
381
330
1F
100
AcDbEntity
  8
PROFILES_OUTSIDE
100
AcDbCircle
 10
59.6305640148
 20
31.0149669207
 30
0.0
 40
0.039370078740159
100
AcDbArc
 50
183.6619355755
 51
270.0
  0
ARC
  5
382
330
1F
100
AcDbEntity
  8
PROFILES_OUTSIDE
100
AcDbCircle
 10
60.2207087278
 20
30.9362267632
 30
0.0
 40
0.0393700787401609
100
AcDbArc
 50
65.1121079736
 51
90.0
  0
ARC
  5
383
330
1F
100
AcDbEntity
  8
PROFILES_OUTSIDE
100
AcDbCircle
 10
60.3229373988
 20
31.1565815041
 30
0.0
 40
0.2035433070866152
100
AcDbArc
 50
245.1121079736
 51
72.3995332141
  0
ARC
  5
384
330
1F
100
AcDbEntity
  8
PROFILES_OUTSIDE
100
AcDbCircle
 10
60.3963889791
 20
31.3881236781
 30
0.0
 40
0.0393700787401569
100
AcDbArc
 50
180.0
 51
252.3995332141
  0
ARC
  5
385
330
1F
100
AcDbEntity
  8
PROFILES_OUTSIDE
100
AcDbCircle
 10
63.8215858295
 20
30.9953606214
 30
0.0
 40
0.472440944881896
100
AcDbArc
 50
0.0
 51
90.0
  0
ARC
  5
386
330
1F
100
AcDbEntity
  8
PROFILES_OUTSIDE
100
AcDbCircle
 10
64.7664677193
 20
26.9419820288
 30
0.0
 40
0.4724409448818889
100
AcDbArc
 50
180.0
 51
270.0
  0
ARC
  5
387
330
1F
100
AcDbEntity
  8
PROFILES_OUTSIDE
100
AcDbCircle
 10
65.7900897665
 20
26.9419820288
 30
0.0
 40
0.4724409448818889
100
AcDbArc
 50
270.0
 51
0.0
  0
ARC
  5
388
330
1F
100
AcDbEntity
  8
PROFILES_OUTSIDE
100
AcDbCircle
 10
66.7349716563
 20
30.9953606214
 30
0.0
 40
0.472440944881896
100
AcDbArc
 50
90.0
 51
180.0
  0
ARC
  5
389
330
1F
100
AcDbEntity
  8
PROFILES_OUTSIDE
100
AcDbCircle
 10
70.1601685067
 20
31.3881236781
 30
0.0
 40
0.0393700787401569
100
AcDbArc
 50
287.6004667859
 51
0.0
  0
ARC
  5
38A
330
1F
100
AcDbEntity
  8
PROFILES_OUTSIDE
100
AcDbCircle
 10
70.233620087
 20
31.1565815041
 30
0.0
 40
0.2035433070866172
100
AcDbArc
 50
107.6004667859
 51
294.8878920264
  0
ARC
  5
38B
330
1F
100
AcDbEntity
  8
PROFILES_OUTSIDE
100
AcDbCircle
 10
70.335848758
 20
30.9362267632
 30
0.0
 40
0.0393700787401627
100
AcDbArc
 50
90.0
 51
114.8878920264
  0
ARC
  5
38C
330
1F
100
AcDbEntity
  8
PROFILES_OUTSIDE
100
AcDbCircle
 10
70.925993471
 20
31.0149669207
 30
0.0
 40
0.0393700787401588
100
AcDbArc
 50
270.0
 51
356.3380644245
  0
ARC
  5
38D
330
1F
100
AcDbEntity
  8
PROFILES_OUTSIDE
100
AcDbCircle
 10
70.9475700815
 20
30.7196913301
 30
0.0
 40
0.2362204724409445
100
AcDbArc
 50
270.0
 51
0.0
  0
ARC
  5
38E
330
1F
100
AcDbEntity
  8
PROFILES_OUTSIDE
100
AcDbCircle
 10
67.4849716563
 20
18.4022327177
 30
0.0
 40
0.4724409448818818
100
AcDbArc
 50
180.0
 51
270.0
  0
ARC
  5
38F
330
1F
100
AcDbEntity
  8
PROFILES_OUTSIDE
100
AcDbCircle
 10
66.2625307114
 20
26.469541084
 30
0.0
 40
0.75
100
AcDbArc
 50
300.0
 51
0.0
  0
ARC
  5
390
330
1F
100
AcDbEntity
  8
PROFILES_OUTSIDE
100
AcDbCircle
 10
67.0125307114
 20
25.1705029783
 30
0.0
 40
0.75
100
AcDbArc
 50
120.0
 51
180.0
  0
ARC
  5
391
330
1F
100
AcDbEntity
  8
PROFILES_OUTSIDE
100
AcDbCircle
 10
67.0125307114
 20
23.2427596522
 30
0.0
 40
0.75
100
AcDbArc
 50
180.0
 51
240.0
  0
ARC
  5
392
330
1F
100
AcDbEntity
  8
PROFILES_OUTSIDE
100
AcDbCircle
 10
66.2625307114
 20
21.9437215465
 30
0.0
 40
0.75
100
AcDbArc
 50
0.0
 51
60.0
  0
ARC
  5
393
330
1F
100
AcDbEntity
  8
PROFILES_OUTSIDE
100
AcDbCircle
 10
70.9475700815
 20
17.6935713003
 30
0.0
 40
0.2362204724409409
100
AcDbArc
 50
0.0
 51
90.0
  0
ARC
  5
394
330
1F
100
AcDbEntity
  8
PROFILES_OUTSIDE
100
AcDbCircle
 10
71.1444204752
 20
17.2309728751
 30
0.0
 40
0.0393700787401627
100
AcDbArc
 50
270.0
 51
0.0
  0
ENDSEC
  0
SECTION
  2
OBJECTS
  0
DICTIONARY
  5
C
330
0
100
AcDbDictionary
  3
ACAD_GROUP
350
D
  3
ACAD_MLINESTYLE
350
17
  3
ACAD_SCALELIST
350
47
  0
DICTIONARY
  5
D
102
{ACAD_REACTORS
330
C
102
}
330
C
100
AcDbDictionary
  0
DICTIONARY
  5
17
102
{ACAD_REACTORS
330
C
102
}
330
C
100
AcDbDictionary
  3
STANDARD
350
18
  0
DICTIONARY
  5
47
102
{ACAD_REACTORS
330
C
102
}
330
C
100
AcDbDictionary
  0
MLINESTYLE
  5
18
102
{ACAD_REACTORS
330
17
102
}
330
17
100
AcDbMlineStyle
  2
Standard
 70
     0
  3

 62
   256
 51
90.0
 52
90.0
 71
     2
 49
0.5
 62
   256
  6
BYLAYER
 49
-0.5
 62
   256
  6
BYLAYER
  0
ENDSEC
  0
EOF
